<svg xmlns="http://www.w3.org/2000/svg" xmlns:xlink="http://www.w3.org/1999/xlink" width="40" height="40" viewBox="0 0 40 40">
  <defs>
    <rect id="rect-2" width="22" height="22" x="9" y="9"/>
    <mask id="mask-3" maskContentUnits="userSpaceOnUse" maskUnits="userSpaceOnUse">
      <rect width="40" height="40" x="0" y="0" fill="black"/>
      <use fill="white" xlink:href="#rect-2"/>
    </mask>
  </defs>
  <g>
    <ellipse cx="20" cy="20" fill="rgb(255,243,223)" rx="20" ry="20"/>
    <g>
      <use fill="none" xlink:href="#rect-2"/>
      <g mask="url(#mask-3)">
        <path fill="rgb(255,133,56)" fill-rule="evenodd" d="M24.79445457 20.2366829c0 .73850822-.5986805 1.33718871-1.33718872 1.33718871-.73821258-.00071144-1.33647537-.59897423-1.3371868-1.33718872 0-.73850822.59867858-1.33718681 1.3371868-1.33718681.73850823 0 1.33718872.59867859 1.33718872 1.33718681zm-.97510337-.14943505c-.0606289-.14648628-.20354844-.24201012-.36208725-.24201012-.2162571 0-.3916378.17518616-.39187432.39144516-.00017357.15853882.09519387.30156136.2416134.36235237.14641952.06078911.31504249.02736855.42720794-.08467292.11216354-.11204148.14576912-.2806282.08514023-.4271145z"/>
        <path fill="rgb(255,133,56)" fill-rule="evenodd" d="M28.64316463 25.03113556H11.35683632c-.7377119-.00070953-1.3357668-.5981884-1.33718777-1.33589935.00088215-3.510643 1.84611225-6.76268006 4.8593359-8.56410027l-1.29121113-3.0125389c-.29061031-.67717362.02200127-1.4617777.6986723-1.7535553.32333946-.14295579.69070053-.14930821 1.01878929-.01761723.33354092.13078403.60007477.39080906.73906135.72101593l1.29335976 3.01210975c1.74344444-.48870182 3.58768845-.48870182 5.33113289 0l1.2890625-3.01382827c.13879395-.32700253.4024582-.5850172.73238945-.71669865.32993126-.1316824.69879341-.12612057 1.02460289.01544857.6769476.2919712.98972225 1.07688427.69909954 1.7544136l-1.28906155 3.01253987c3.01102734 1.80245209 4.85451794 5.0535221 4.8554678 8.5628109-.00141907.73771095-.59947586 1.33518982-1.3371849 1.33589935zm-12.56105518-9.4887886l-.37898445.20582008c-2.91816425 1.5787201-4.73692703 4.62923431-4.73816395 7.94706917.00023651.21632957.17554665.3916397.39187527.39187622h17.28632831c.21632767-.00023651.3916359-.17554665.39187241-.39187622-.00082397-3.31850243-1.81959152-6.36985016-4.73816204-7.9492178l-.3755455-.19980526 1.62679672-3.79628849c.08448029-.1987505-.0077591-.42838955-.20625114-.51347637-.09434891-.04181385-.20160103-.04367352-.2973423-.00515652-.09693146.03811264-.17438889.11371231-.21484375.20968723l-1.6280861 3.80101586-.4103527-.13363266c-1.81085777-.59355545-3.76390839-.59355545-5.57476616 0l-.4103508.1332035-1.6328125-3.79843807c-.04037857-.09826088-.11903954-.1758356-.21785164-.21484375-.04493522-.01810741-.09292126-.02744293-.14136696-.02750015-.05148697-.00008774-.1024208.01059723-.14953232.0313673l-.0047264.00214863c-.19745827.08469486-.28927994.31309605-.20538998.51089859l1.62765598 3.7971487z"/>
        <path fill="rgb(255,133,56)" fill-rule="evenodd" d="M17.87992287 20.2366829c0 .73850822-.5986805 1.33718871-1.33718872 1.33718871-.73821259-.00071144-1.33647633-.59897423-1.33718682-1.33718872 0-.73850822.59867955-1.33718681 1.33718682-1.33718681.73850822 0 1.33718872.59867859 1.33718872 1.33718681zm-.97510147-.14943505c-.0606289-.14648628-.20354844-.24201012-.36208535-.24201012-.216259 0-.3916397.17518616-.39187622.39144516-.00017357.15853882.09519387.30156136.2416134.36235237.14641952.06078911.31504249.02736855.42720794-.08467292.11216354-.11204148.14576912-.2806282.08514023-.4271145z"/>
        <path fill="rgb(255,133,56)" fill-rule="evenodd" d="M11.30828094 25.85312843h17.38343812c.71176147 0 1.28882408.57687188 1.2890625 1.28863335v1.3161316c0 .71192931-.57713318 1.2890625-1.2890625 1.2890625H11.30828094c-.71192932 0-1.2890625-.57713319-1.2890625-1.2890625v-1.31570245c0-.71192932.57713318-1.2890625 1.2890625-1.2890625zm17.38343812 2.94808579c.18984794 0 .34375-.15390206.34375-.34375v-1.31570244c0-.18984795-.15390206-.34375-.34375-.34375H11.30828094c-.18984794 0-.34375.15390205-.34375.34375v1.31570244c0 .18984794.15390206.34375.34375.34375h17.38343812z"/>
      </g>
    </g>
  </g>
</svg>
