<svg xmlns="http://www.w3.org/2000/svg" xmlns:xlink="http://www.w3.org/1999/xlink" width="48" height="48" viewBox="0 0 48 48">
  <defs>
    <rect id="rect-2" width="30" height="30" x="9" y="9"/>
    <mask id="mask-3" maskContentUnits="userSpaceOnUse" maskUnits="userSpaceOnUse">
      <rect width="48" height="48" x="0" y="0" fill="black"/>
      <use fill="white" xlink:href="#rect-2"/>
    </mask>
  </defs>
  <g>
    <g opacity=".15">
      <ellipse cx="24" cy="24" fill="rgb(140,132,243)" rx="24" ry="24"/>
    </g>
    <g>
      <use fill="none" xlink:href="#rect-2"/>
      <g mask="url(#mask-3)">
        <path fill="rgb(140,132,243)" fill-rule="evenodd" d="M30.53788757 24.32272339c0 1.00708008-.81637573 1.8234558-1.82343292 1.8234558-1.00666046-.00097655-1.82247162-.81680297-1.82344055-1.8234558 0-1.00704956.81638336-1.8234253 1.82344055-1.8234253 1.0070572 0 1.82343292.81637574 1.82343292 1.8234253zm-1.3296814-.20373535c-.08267974-.19976807-.277565-.3300171-.49375152-.3300171-.29489899 0-.53405762.2388916-.53437805.53378297-.00023651.21618652.12980652.41122436.3294754.4941101.19966126.08291626.42960358.037323.58255005-.115448.1529541-.1528015.19878388-.38269042.11610413-.58242797z"/>
        <path fill="rgb(140,132,243)" fill-rule="evenodd" d="M35.78613281 30.86062622H12.2138672c-1.00597-.00097656-1.82149887-.81570435-1.82343674-1.82168579.00120163-4.78723145 2.51742554-9.22183228 6.62636566-11.6783142l-1.76074219-4.10800172c-.396286-.9234314.0300026-1.99334717.9527359-2.39120483.44091797-.1949463.94186402-.20361328 1.38925934-.02404785.45482636.17834472.81828308.53292846 1.00780869.98321533l1.76367187 4.10742187c2.37742615-.66641235 4.89230347-.66641235 7.26972962 0l1.7578125-4.10977173c.18926239-.44589233.54880524-.79772949.99871063-.97729492.4499054-.17956543.95289612-.17199707 1.39718628.02105713.92311096.39813233 1.34962463 1.46847534.95332336 2.3923645l-1.7578125 4.10803223c4.10594178 2.45788574 6.61979676 6.8911438 6.62109375 11.67654419-.00193786 1.00598144-.81747436 1.82070923-1.82344055 1.8216858zm-17.1287117-12.9392395l-.51679611.28063965c-3.9793129 2.15280151-6.45944595 6.31262207-6.46113205 10.83691406.00032425.29501343.23937988.53405762.53437424.53439331H35.7861328c.29499817-.0003357.53404999-.23937988.53437805-.53439331-.00112915-4.52520752-2.4812622-8.68615723-6.46113586-10.83984375l-.51210785-.27246094 2.2183609-5.17675781c.11520386-.2709961-.01058197-.58416748-.28125-.70019531-.1286621-.05700684-.2749176-.0595398-.4054718-.00701905-.13217163.05197144-.2378006.15505982-.29296875.28594971l-2.22011566 5.18319702-.55957031-.18222046c-2.46935273-.80941772-5.1326027-.80941772-7.6019516 0l-.55957413.18164063-2.2265625-5.1796875c-.05506134-.13400269-.162323-.23977661-.29706955-.29296875-.06127167-.02468872-.12670898-.03744507-.19277191-.0375061-.0702095-.00012208-.1396637.01443481-.20390701.04275512l-.00644684.00292969c-.2692604.11550903-.39447022.42697144-.28007508.6966858l2.2195282 5.17794799z"/>
        <path fill="rgb(140,132,243)" fill-rule="evenodd" d="M21.10898209 24.32272339c0 1.00708008-.81637955 1.8234558-1.82343674 1.8234558-1.00665283-.00097655-1.8224678-.81680297-1.82343674-1.8234558 0-1.00704956.81637955-1.8234253 1.82343674-1.8234253s1.82343674.81637574 1.82343674 1.8234253zm-1.3296814-.20373535c-.08267593-.19976807-.277565-.3300171-.49375534-.3300171-.29489899 0-.53404999.2388916-.53437424.53378297-.0002365.21618652.12981034.41122436.32947159.4941101.19966507.08291626.42960358.037323.58255768-.115448.15295029-.1528015.19877624-.38269042.11610031-.58242797z"/>
        <path fill="rgb(140,132,243)" fill-rule="evenodd" d="M12.14765549 31.98153687h23.7046852c.9705887 0 1.75749207.7866516 1.7578125 1.75723266v1.79470825c0 .9708252-.78699493 1.7578125-1.7578125 1.7578125H12.1476555c-.97081375 0-1.7578125-.7869873-1.7578125-1.7578125v-1.79412841c0-.9708252.78699875-1.7578125 1.7578125-1.7578125zm23.7046852 4.02011108c.25888825 0 .46875-.20986939.46875-.46875v-1.79412842c0-.25888061-.20986175-.46875-.46875-.46875H12.1476555c-.25888443 0-.46875.20986939-.46875.46875v1.79412842c0 .25888061.20986557.46875.46875.46875h23.7046852z"/>
      </g>
    </g>
  </g>
</svg>
