<svg xmlns="http://www.w3.org/2000/svg" xmlns:xlink="http://www.w3.org/1999/xlink" width="40" height="40" viewBox="0 0 40 40">
  <defs>
    <ellipse id="ellipse-6" cx="16.5" cy="16.375" rx="1" ry="1"/>
    <mask id="mask-7" x="0" y="0" maskContentUnits="userSpaceOnUse" maskUnits="userSpaceOnUse">
      <rect width="40" height="40" x="0" y="0" fill="black"/>
      <use fill="white" xlink:href="#ellipse-6"/>
    </mask>
    <ellipse id="ellipse-8" cx="23.5" cy="11.375" rx="1" ry="1"/>
    <mask id="mask-9" x="0" y="0" maskContentUnits="userSpaceOnUse" maskUnits="userSpaceOnUse">
      <rect width="40" height="40" x="0" y="0" fill="black"/>
      <use fill="white" xlink:href="#ellipse-8"/>
    </mask>
    <ellipse id="ellipse-10" cx="29.5" cy="16.375" rx="1" ry="1"/>
    <mask id="mask-11" x="0" y="0" maskContentUnits="userSpaceOnUse" maskUnits="userSpaceOnUse">
      <rect width="40" height="40" x="0" y="0" fill="black"/>
      <use fill="white" xlink:href="#ellipse-10"/>
    </mask>
    <ellipse id="ellipse-12" cx="10.5" cy="20.375" rx="1" ry="1"/>
    <mask id="mask-13" x="0" y="0" maskContentUnits="userSpaceOnUse" maskUnits="userSpaceOnUse">
      <rect width="40" height="40" x="0" y="0" fill="black"/>
      <use fill="white" xlink:href="#ellipse-12"/>
    </mask>
  </defs>
  <g>
    <g opacity=".2">
      <ellipse cx="20" cy="20" fill="rgb(140,132,243)" rx="20" ry="20"/>
    </g>
    <g>
      <rect width="1.7" height="6" x="10" y="23.625" fill="rgb(140,132,243)"/>
      <rect width="1.7" height="9" x="16" y="20.625" fill="rgb(140,132,243)"/>
      <rect width="1.7" height="12" x="23" y="17.625" fill="rgb(140,132,243)"/>
      <rect width="1.7" height="9.75" x="29" y="19.875" fill="rgb(140,132,243)"/>
      <use fill-opacity="0" stroke="rgb(140,132,243)" stroke-linecap="butt" stroke-linejoin="miter" stroke-width="1" mask="url(#mask-7)" xlink:href="#ellipse-6"/>
      <use fill-opacity="0" stroke="rgb(140,132,243)" stroke-linecap="butt" stroke-linejoin="miter" stroke-width="1" mask="url(#mask-9)" xlink:href="#ellipse-8"/>
      <use fill-opacity="0" stroke="rgb(140,132,243)" stroke-linecap="butt" stroke-linejoin="miter" stroke-width="1" mask="url(#mask-11)" xlink:href="#ellipse-10"/>
      <use fill-opacity="0" stroke="rgb(140,132,243)" stroke-linecap="butt" stroke-linejoin="miter" stroke-width="1" mask="url(#mask-13)" xlink:href="#ellipse-12"/>
      <path fill="none" stroke="rgb(140,132,243)" stroke-linecap="butt" stroke-linejoin="miter" stroke-width=".5" d="M24.24998595 11.37499509l4.49999572 4.49999571"/>
      <path fill="none" stroke="rgb(140,132,243)" stroke-linecap="butt" stroke-linejoin="miter" stroke-width=".5" d="M11.24999833 19.874987l4.49999572-2.99999715"/>
      <path fill="none" stroke="rgb(140,132,243)" stroke-linecap="butt" stroke-linejoin="miter" stroke-width=".5" d="M17.24999262 15.8749908l5.49999476-3.99999619"/>
    </g>
  </g>
</svg>
