<svg xmlns="http://www.w3.org/2000/svg" xmlns:xlink="http://www.w3.org/1999/xlink" width="40" height="40" viewBox="0 0 40 40">
  <defs>
    <path id="path-2" fill-rule="evenodd" d="M23.67749977 30.85000038h-7.35499954c-1.26750088 0-2.29750061-1.07500076-2.29750061-2.39500046v-2.1175003c0-.78499985.15250015-1.54249954.45250034-2.25250054.28999996-.6875.70499993-1.29999923 1.23249912-1.81749916.10250092-.10000038.210001-.2025013.32500077-.30999946.55999946-.52500153 1.32749939-1.24500084 1.32749939-1.84250069v-.227499c0-.8900013-.72249985-1.73000146-1.15250016-2.15250016-1.4699993-1.44250107-2.18499946-2.77500153-2.18499946-4.07250118v-2.11749935c0-1.32000065 1.02999973-2.39500046 2.2975006-2.39500046h7.35499955c1.26749992 0 2.2974987 1.0749998 2.2974987 2.39500046v2.11749935c0 1.29749965-.71500015 2.62749958-2.18499755 4.07000065-.43000031.4224987-1.15250016 1.26249885-1.15250016 2.15249824v.22750092c0 .60000038.76749802 1.31750107 1.3274994 1.84500122.11499976.10749817.22249984.20999908.32500076.30749893.52749824.51749992.94249916 1.12750053 1.23249816 1.81750107.29999924.71249962.4524994 1.46999931.4524994 2.25499916v2.1175003c0 1.3199997-1.02999879 2.39500046-2.2974987 2.39500046zm-7.35499954-20.70000076c-.71500015 0-1.29750061.625-1.29750061 1.39500046v2.11749935c0 1.01500034.6175003 2.11250019 1.88500023 3.3550005.66250038.64999961 1.45249939 1.6724987 1.45249939 2.8674984v.2275009c0 1.03250123-.90999985 1.88500024-1.64249993 2.57250024-.1099987.10500145-.21750068.2025013-.30999946.29500007-.88000012.86249924-1.38500023 2.08749962-1.38500023 3.35499954v2.11750031c0 .77000046.58250046 1.39500046 1.2975006 1.39500046h7.35499955c.71500015 0 1.2974987-.625 1.2974987-1.39500046v-2.1175003c0-1.27000046-.50499916-2.49250031-1.38499832-3.35499955-.09250068-.09000015-.19750023-.18999862-.30750084-.29249954-.73250007-.6875-1.64499855-1.54000092-1.64499855-2.57250023v-.227499c0-1.19250108.78999901-2.2175007 1.4524994-2.86750031 1.26749992-1.24500084 1.88499831-2.34250069 1.88499831-3.35750103v-2.11749935c0-.77000046-.58249855-1.39500046-1.2974987-1.39500046h-7.35499954zm5.95204353 4.54500007h-4.52777862c-.04261399 0-.08345414.01420498-.11541367.04261399-.07102394.06214618-.07635116.17045784-.01420593.24148178.659029.7414751 1.29626846 1.10249138 1.88285446 1.22496605v10.9586277l-1.80236626.6651287c-.13326645.0501709-.22263336.17716408-.22263336.31983758v.39352798c0 .18813896.15208054.34178734.34178734.34178734h4.36642456c.18814087 0 .34178925-.15208054.34178925-.34178734v-.37784958c0-.14267349-.08936692-.26966667-.22263337-.31983757L20.5 27.17547607V16.1964283c.8823185-.1947937 1.5648346-.83850384 1.90238571-1.21733284.02663422-.03018475.04261398-.07102394.04261398-.11363793 0-.09410667-.07635116-.17045784-.17045593-.17045784z"/>
    <mask id="mask-3" x="0" y="0" maskContentUnits="userSpaceOnUse" maskUnits="userSpaceOnUse">
      <rect width="40" height="40" x="0" y="0" fill="black"/>
      <use fill="white" xlink:href="#path-2"/>
    </mask>
  </defs>
  <g>
    <path fill="rgb(204,232,255)" fill-rule="evenodd" d="M20 0c11.03830049 0 20 8.96169951 20 20s-8.96169951 20-20 20S0 31.03830049 0 20 8.96169951 0 20 0z"/>
    <g>
      <use fill="rgb(0,140,255)" xlink:href="#path-2"/>
      <use fill-opacity="0" stroke="rgb(71,114,229)" stroke-linecap="butt" stroke-linejoin="miter" stroke-width=".2" mask="url(#mask-3)" xlink:href="#path-2"/>
    </g>
  </g>
</svg>
