<svg xmlns="http://www.w3.org/2000/svg" width="42" height="42" viewBox="0 0 42 42">
  <g>
    <g opacity=".2">
      <path fill="rgb(255,133,56)" fill-rule="evenodd" d="M21 0c11.59021551 0 21 9.40978449 21 21s-9.40978449 21-21 21S0 32.59021551 0 21 9.40978449 0 21 0z"/>
    </g>
    <g>
      <path fill="rgb(255,133,56)" fill-rule="evenodd" d="M22.85736084 9.62426758c.0203247.51879883-.16226196 1.02416992-.5064087 1.40161133-.72503661.79003906-1.92620849.83618164-2.70587157.1040039-.37249756-.34716797-.59396363-.83544922-.61428833-1.3540039-.02032471-.51879883.16223144-1.02392578.50634765-1.4013672.72488404-.7902832 1.92608643-.83666991 2.70587158-.10473632.37252808.34741211.59402466.83569336.61434937 1.35449219zm-1.85906982 2.90478515c5.02487182 0 9.14642334 3.99536133 9.43048095 9.01538086h2.55645752c-.25222778-5.67382812-4.36245727-10.34545898-9.7298584-11.38427734-.10284423 1.06811523-1.09643554 1.9074707-2.309906 1.9074707-1.21347046 0-2.19628906-.82861328-2.30819702-1.88793945-5.31570435 1.0793457-9.37365723 5.72802734-9.62362671 11.36401367h2.5541687c.28405762-5.01635742 4.40505981-9.01464844 9.43048096-9.01464844zm9.7611084 16.6291504c-.37664796-.28393555-.83062745-.43652344-1.29638672-.43554688-1.19302369 0-2.15878296.9609375-2.15878296 2.14624023.00146484.46557618.1534729.9169922.43173217 1.2824707C25.79071045 33.49121095 23.51306152 34.2199707 21.1772461 34.25v-2.5895996c5.12539673-.09887696 9.26571656-4.34960938 9.26571656-9.56445313v-.08007813H33v.08007813c-.00009155 2.5415039-.7852478 5.01611328-2.24060059 7.06225586zM11.55133056 22.0180664v.08007812c0 5.17822266 4.08236694 9.40625 9.1560974 9.56103516v2.58935547c-2.3270874-.0522461-4.59036254-.7980957-6.5189514-2.14794922.2940979-.37719727.45449828-.84716797.45446777-1.33178711 0-1.18701172-.94418335-2.14868164-2.109375-2.14868164-.48431397-.00073242-.95428467.17041015-1.331604.48486328C9.7707672 27.06958007 8.99980163 24.61621094 9 22.09814453v-.08007812h2.55133057zm.96072387 7.00854492c.4322815-.01708985.85314942.1459961 1.16851807.45263672.66061401.640625.7013855 1.71240234.0914917 2.40478515-.29199219.3305664-.69955444.52612305-1.13174439.5432129-.43218994.01708984-.85299682-.14550782-1.16851806-.45214844-.66030884-.640625-.7010498-1.7121582-.09146118-2.40454102.29180908-.33081055.69943237-.52685547 1.13171386-.54394531zm15.66589356.64746094c-.60974121.69262695-.56872559 1.76416015.09204101 2.40454101.31536866.30688477.7362671.4699707 1.16854859.45263672.4322815-.01708984.83987427-.21289063 1.13168335-.54370117.6097107-.69238281.56869507-1.76391602-.0920105-2.40405274-.31536865-.30737304-.73660278-.47094726-1.169281-.45385742-.43270875.01708985-.84072877.21313477-1.13098145.5444336z"/>
      <path fill="rgb(255,133,56)" fill-rule="evenodd" d="M20.05718994 26.88012695h1.88607788c.3227234.0024414.59725952-.23486328.64151001-.55444336l.1461792-1.02319336c.1647644-.08154296.32369995-.1743164.475708-.27758789l.9647522.38867188c.07778931.02954101.15829468.0444336.23953248.0444336.23294067.00097656.447937-.125.56109619-.32861329l.94369507-1.6340332.00228882-.0041504c.15447998-.2783203.0854187-.62719726-.16329957-.82568359l-.81588745-.63793945c.00793457-.09838867.01171875-.18774414.01171875-.27734375 0-.08935547-.00378418-.18139648-.01150512-.2770996l.81628418-.6381836c.24887085-.19970703.31686401-.55029297.16079712-.82861328l-.94198609-1.63012696c-.15515137-.28100586-.49053955-.40258789-.79833984-.2890625l-.96789551.38842774c-.15240479-.10351563-.31192017-.19604492-.47738647-.27709961l-.1461792-1.01879883c-.04266358-.3215332-.31762696-.5612793-.64190674-.55957031h-1.8861084c-.32272339-.00219727-.59701538.23535156-.64086914.55517578l-.1461792 1.02319336c-.16473389.08129883-.3236084.17382812-.47549439.2770996l-.9658203-.3876953c-.29861451-.1147461-.6485901.0102539-.79977418.28466796l-.93972778 1.62670899c-.16293335.27954101-.0954895.63671875.15829468.83764648l.8144226.63720703c-.00793457.09887696-.01190185.1904297-.01190185.27661133 0 .08618164.00396728.17773438.01190185.27709961l-.81671142.63842774c-.24856568.2001953-.31628418.5505371-.16018677.82885742l.9430542 1.63012695c.1576538.28466797.48468018.40356445.7979126.28881836l.96728515-.38842773c.1522522.10327148.31155396.19580078.4767456.27685546l.1461792 1.0185547c.0430298.32128905.31771851.56054687.64172364.55908202zm-1.53277588-5.12963867c-.00015259 1.3671875 1.10791016 2.47558594 2.47497559 2.47583008 1.36663818-.00146484 2.47421264-1.10888672 2.47583008-2.4753418 0-1.3671875-1.10818482-2.4753418-2.47528077-2.47558594-1.36706542 0-2.47537231 1.1081543-2.4755249 2.47509766z"/>
    </g>
  </g>
</svg>
