<svg xmlns="http://www.w3.org/2000/svg" width="12" height="11.271" viewBox="0 0 12 11.271">
  <g>
    <path fill="rgb(189,189,189)" fill-rule="evenodd" d="M3.45201874 5.06381226c.8475647-.00097657 1.5344162-.68780518 1.5353775-1.53536988v-1.9166565C4.98643494.7642212 4.29958344.07739259 3.45201874.07641603H1.5353775C.6878128.07739258.0009613.76422119 0 1.61178589v1.9166565c.0009613.84756469.6878128 1.5343933 1.5353775 1.53536987h1.91664124z"/>
    <path fill="rgb(189,189,189)" fill-rule="evenodd" d="M3.45201874 11.21084595c.8475647-.00097657 1.5344162-.68780518 1.5353775-1.53536988v-1.9165039c-.00089264-.84762573-.6877594-1.5345459-1.5353775-1.53552246H1.5353775C.6877594 6.22442627.00089264 6.91134644 0 7.75897217v1.9165039c.0009613.8475647.6878128 1.53439331 1.5353775 1.53536988h1.91664124z"/>
    <path fill="rgb(189,189,189)" fill-rule="evenodd" d="M6.98595428 11.27056885h3.82063294c.65798187 0 1.19340515-.5581665 1.19340515-1.24398804V8.92666626c.00099182-.40194702-.07898712-.80001831-.23516083-1.17037964-.1484909-.35388183-.36610412-.67459106-.64008331-.94332886-.05260468-.05218505-.10923767-.10519409-.16924286-.16143798-.29071808-.27267457-.68891907-.6459961-.68891907-.95690918v-.11865235c0-.46209717.37493134-.89865112.59851838-1.11779785.76371765-.74853516 1.1348877-1.44012451 1.1348877-2.11413574V1.2441101C11.99999237.5581665 11.46456908 0 10.80658721 0H6.98595428c-.65811157 0-1.19340515.55801392-1.19340515 1.2441101V2.3439026c0 .6746521.37117005 1.36560058 1.1348877 2.11413574.22358703.21914673.59851837.65567017.59851837 1.11779785v.11865235c0 .31115722-.39820099.6842041-.68891907.95690918-.06000519.05676269-.11663818.10977172-.16937256.16143798-.27390289.26876831-.49145507.58944702-.6399536.94329834-.15617372.37039185-.23615266.76843262-.23516084 1.17041016v1.09991455c0 .6859436.53529358 1.2441101 1.19340515 1.2441101zm3.56893158-8.39111328H7.24317932c-.04934692.00003051-.0940857.02902221-.11428833.07403564-.02020264.04504395-.01211548.09771729.0206604.13461304.57330322.64523315 1.12421417.89642334 1.61703491.92849731v4.39331055l-1.76300048.65008545c-.1109848.04095459-.18470002.14672851-.18470765.26501465v.32583618c0 .15603638.12648774.28250122.28250885.28250122h3.61614228c.15602874 0 .28251648-.12646484.28251648-.28250122V9.337677c0-.11801147-.07333374-.22357178-.18390656-.2647705l-1.78990936-.66268921v-4.3965149c.75669098-.06582641 1.34679413-.6164856 1.62215423-.92559814.0328827-.03683472.04105378-.0895691.02085877-.13461304-.02018738-.04507446-.06497955-.07406616-.114357-.07403564z"/>
  </g>
</svg>
