<svg xmlns="http://www.w3.org/2000/svg" width="16" height="15.027" viewBox="0 0 16 15.027">
  <g>
    <path fill="rgb(255,255,255)" fill-rule="evenodd" d="M4.60269165 6.75177002c1.13008118-.00128174 2.04588318-.91708374 2.04716492-2.04718018V2.14907837C6.64857483 1.01898193 5.73277283.10317993 4.60269165.10189819H2.04718018C.91708374.10317993.00128174 1.01898193 0 2.14907837v2.55551147c.00128174 1.13009644.91708374 2.04589844 2.04718018 2.04718018h2.55551147z"/>
    <path fill="rgb(255,255,255)" fill-rule="evenodd" d="M4.60269165 14.94781494c1.13008118-.00128174 2.04588318-.91708374 2.04716492-2.04718017V10.3453064c-.00117493-1.13015747-.91700745-2.04608155-2.04716492-2.04736328H2.04718018C.91700745 8.29922485.00119018 9.21514892 0 10.3453064v2.55532837c.00128174 1.13009643.91708374 2.04589843 2.04718018 2.04718017h2.55551147z"/>
    <path fill="rgb(255,255,255)" fill-rule="evenodd" d="M9.31460571 15.0274353h5.09417725c.87730408 0 1.59120178-.74420166 1.59120178-1.65866089V11.9022522c.00132752-.53598023-.1053009-1.06671143-.3135376-1.56054688-.19799804-.4718628-.48814392-.89944458-.85345459-1.25775146-.0701294-.0696106-.14564514-.1402893-.22564697-.215271-.38761902-.36358642-.91856384-.86132812-.91856384-1.27584839v-.15823364c0-.61611938.49990845-1.19818115.7980194-1.49038696 1.0182953-.99801636 1.5131836-1.92016602 1.5131836-2.81884766V1.658844C15.99998474.74420166 15.28608704 0 14.40878296 0H9.3146057c-.87748718 0-1.59120178.74404907-1.59120178 1.658844v1.46636962c0 .89953614.4948883 1.82080078 1.5131836 2.81881714.29811096.29220581.7980194.87426758.7980194 1.49041748v.15820313c0 .41488647-.53094482.91226196-.91856384 1.2758789-.08000183.0756836-.15551758.1463623-.22583008.21524048-.3651886.35836792-.65527343.7859497-.85327148 1.25775147-.2082367.49383545-.31486511 1.02456665-.3135376 1.56054687v1.46652222c0 .91464233.7137146 1.658844 1.59120178 1.658844zM14.0731659 3.83929443H9.65756226c-.0657959.00006104-.1254425.0386963-.15238953.09872437-.02693176.06002807-.0161438.13027954.02755737.17947388.7644043.86032104 1.49894715 1.19522094 2.15605164 1.23797607v5.85772705l-2.3506775.86679077c-.14797973.05459595-.24626159.19561768-.24627685.35336304v.43444824c0 .20803833.16864014.37667847.37667847.37667847h4.8215332c.20802307 0 .37667847-.16864014.37667847-.37667847v-.41760254c0-.15731811-.09777832-.29806518-.24520874-.35299682l-2.38653565-.88354493V5.35162354c1.0089264-.08776856 1.79571534-.82199097 2.16285706-1.23413086.04385376-.04910279.05474854-.11941529.02781677-.17947388-.0269165-.06008911-.0866394-.09875488-.15248108-.09872437z"/>
  </g>
</svg>
