<?xml version="1.0" encoding="utf-8"?>
<!-- Generator: Adobe Illustrator 23.1.0, SVG Export Plug-In . SVG Version: 6.00 Build 0)  -->
<svg version="1.1" id="Layer_1" xmlns="http://www.w3.org/2000/svg" xmlns:xlink="http://www.w3.org/1999/xlink" x="0px" y="0px"
	 viewBox="0 0 80 80" style="enable-background:new 0 0 80 80;" xml:space="preserve">
<style type="text/css">
	.st0{fill:#FAFBFF;}
	.st1{clip-path:url(#SVGID_2_);}
	.st2{fill-rule:evenodd;clip-rule:evenodd;fill:#F0BEB4;}
	.st3{fill-rule:evenodd;clip-rule:evenodd;fill:#F9C956;}
	.st4{fill-rule:evenodd;clip-rule:evenodd;fill:#E0ADA6;}
	.st5{fill-rule:evenodd;clip-rule:evenodd;fill:#39222F;}
	.st6{fill-rule:evenodd;clip-rule:evenodd;fill:#37212E;}
	.st7{fill:#39222F;}
</style>
<g>
	<ellipse class="st0" cx="40" cy="40" rx="39" ry="39"/>
	<g>
		<defs>
			<ellipse id="SVGID_1_" cx="40" cy="40" rx="39" ry="39"/>
		</defs>
		<clipPath id="SVGID_2_">
			<use xlink:href="#SVGID_1_"  style="overflow:visible;"/>
		</clipPath>
		<g class="st1">
			<path class="st2" d="M62.8,65.9c-1.2,0-2.3,0.9-2.5,2.1c-1.1,5.9-2.3,17.3-2,23.2h11.8c-1.9-8.4-3.8-19.2-4.8-23.4
				C65,66.7,64,65.9,62.8,65.9z"/>
			<path class="st3" d="M59.6,75.8c1-7.4,2.5-14.1,3-14.6c0.5-0.5,1.2,0.6,1.7,1.8c0.4,0.9,0.8,1.9,1,2.9c0.4,1.7,1.4,5.3,2.5,10
				H59.6z"/>
			<path class="st2" d="M17.2,65.9c1.2,0,2.3,0.9,2.5,2.1c1.1,5.9,2.3,17.3,2,23.2H9.9c1.9-8.4,3.8-19.2,4.8-23.4
				C15,66.7,16,65.9,17.2,65.9z"/>
			<path class="st3" d="M20.4,75.8c-1-7.4-2.5-14.1-3-14.6c-0.5-0.5-1.2,0.6-1.7,1.8c-0.4,0.9-0.8,1.9-1,2.9
				c-0.4,1.7-1.4,5.3-2.5,10H20.4z"/>
			<path class="st2" d="M46.4,50.8c-0.3-4-0.9-11.2-0.9-11.2H34.8l-0.7,11c-0.1,1.7-1.2,3.2-2.7,4L17.8,61l4,28.9h37.6l3.1-28.2
				l-13.5-7C47.5,53.9,46.6,52.4,46.4,50.8z"/>
			<path class="st4" d="M38.7,51.6c3.1,0.7,6-1.1,7.5-3.7l-0.5-8.3c0-0.1-0.1-0.2-0.2-0.2H34.8c-0.1,0-0.2,0.1-0.2,0.2l-0.4,8.5
				C35.5,49.7,36.7,51.2,38.7,51.6z"/>
			<path class="st3" d="M49.7,54.1c0,0-2.2,9.6-9.5,9.6c-7.5,0-9.6-9.8-9.6-9.8L17.1,61L20,91.4h40.4l2.8-30.3
				C63.2,61.1,49.7,54.1,49.7,54.1z"/>
			<path class="st2" d="M52.9,28.8c0.7,0.3,1.1,1.2,1.2,2.1c0.2,2.3-0.5,4.7-2,6.5c-0.2,0.3-0.5,0.6-0.9,0.7
				c-2.4,1.1-1.5-5.8-1.2-6.9C50.2,30,51.4,28.2,52.9,28.8z"/>
			<path class="st2" d="M52.9,31.4c0-0.2-0.1-0.3-0.2-0.5c-0.1-0.2-0.2-0.3-0.4-0.3c-0.3,0-0.5,0.4-0.6,0.7
				c-0.2,0.8-0.3,1.6-0.3,2.4c0.1-0.1,0.2-0.1,0.3,0c0.1,0.1,0.1,0.2,0.2,0.3c0.2,0.8-0.3,1.7-1.1,1.8"/>
			<path class="st2" d="M27.8,28.8C27,29,26.6,30,26.6,30.9c-0.2,2.3,0.5,4.7,2,6.5c0.2,0.3,0.5,0.6,0.9,0.7
				c2.4,1.1,1.5-5.8,1.2-6.9C30.4,30,29.3,28.2,27.8,28.8z"/>
			<path class="st2" d="M27.8,31.4c0-0.2,0.1-0.3,0.2-0.5c0.1-0.2,0.2-0.3,0.4-0.3c0.3,0,0.5,0.4,0.6,0.7c0.2,0.8,0.3,1.6,0.3,2.4
				c-0.1-0.1-0.2-0.1-0.3,0c-0.1,0.1-0.1,0.2-0.2,0.3c-0.2,0.8,0.3,1.7,1.1,1.8"/>
			<path class="st2" d="M29.4,28.2c0.1-1.8,0.4-3.6,0.8-5.4c0.7-2.7,2.3-5.2,4.8-6.6c2.7-1.5,6-1.8,9-1.2c2.2,0.5,4.3,1.7,5.6,3.6
				c1.4,2,1.5,5.1,1.7,7.5c0.3,3.6,0,7.1-0.9,10.6c-0.7,2.8-1.9,5.6-3.9,7.8c-1.5,1.7-3.6,3-5.9,3.1c-0.4,0-0.7,0-1.1-0.1
				c-2.5-0.3-4.6-2-6.1-4.1c-2.3-3-3.6-6.8-4-10.6C29.3,31.4,29.3,29.8,29.4,28.2z"/>
			<path class="st5" d="M53,26c0-1.7-0.2-6-0.6-7.7c-0.9-2.9-2.7-5.4-5.2-7.1c-2.2-1.5-4.5-2-6.9-2c-2.4,0-4.8,0.5-6.9,2
				c-2.5,1.7-4.3,4.2-5.2,7.1c-0.5,1.7-0.6,5.9-0.6,7.7c0,0.9,0,1.8,0.1,2.6c0,0,0,0,0.1,0c0.3-0.1,0.7-0.2,1,0
				c0.5,0.1,0.6,0.8,0.6,1.4c0.1,0.4,0,0.9,0.1,1.2c0,0,0.1,0.8,0.1,1.6c0,0,0.5-2.6,0.9-5.3c0.3-1.6,0.2-3.3,0.5-4.9
				c0.2-0.9,0.4-1.9,0.8-2.7c0.4-0.8,1.2-1.6,2.1-1.7c1.3-0.2,2.5,0.5,3.7,1.1c1.7,0.7,3.7,0.7,5.4,0c1.2-0.5,2.4-1.3,3.7-1.1
				c0.9,0.2,1.7,0.9,2.1,1.7c0.4,0.8,0.6,1.8,0.8,2.7c0.3,1.4,0.3,2.9,0.4,4.4c0.2,2.1,0.6,4.1,0.9,6.2c0,0,0.2-1.3,0.3-2.7
				c0.1-0.4,0.1-0.9,0.4-1.3c0.2-0.3,0.5-0.4,0.8-0.5c0.4,0,0.4,0.2,0.5-0.2C53.2,27.8,53.1,26.8,53,26z"/>
			<path class="st5" d="M34.6,32.6c-1.3-0.1-1.1-2.2,0.2-2.1C36.1,30.6,35.9,32.7,34.6,32.6z"/>
			<path class="st6" d="M30.9,28.4c0.2-0.1,0.4-0.2,0.5-0.2c0.2-0.1,0.4-0.1,0.6-0.2c0.2-0.1,0.4-0.1,0.6-0.2c0.1,0,0.2,0,0.3-0.1
				l0.1,0c0,0,0,0,0,0c0,0,0,0,0,0l0,0l0.1,0c0.4,0,0.8-0.1,1.2,0c0.1,0,0.2,0,0.3,0l0.1,0l0,0h0l0.2,0c0.2,0,0.4,0.1,0.6,0.1
				c0.2,0.1,0.4,0.1,0.6,0.2l0.1,0l0,0c0,0,0,0,0,0l0,0l0.1,0l0,0l0,0c0.1,0,0.1,0.1,0.2,0.1l0,0l0,0c0,0,0.1,0,0.1,0
				c0.1,0,0.1,0,0.2-0.1c0-0.1,0-0.1,0-0.2c-0.1-0.1-0.2-0.1-0.3-0.2c-0.1,0-0.2-0.1-0.3-0.1c-0.2-0.1-0.4-0.1-0.6-0.2
				c-0.4-0.1-0.8-0.2-1.2-0.2c-0.8-0.1-1.6,0-2.4,0.3c-0.2,0.1-0.4,0.1-0.7,0.3c-0.2,0.1-0.4,0.2-0.6,0.3c0,0-0.1,0.1,0,0.1
				C30.8,28.4,30.8,28.4,30.9,28.4C30.9,28.4,30.9,28.4,30.9,28.4z"/>
			<path class="st5" d="M45.7,32.6c1.3-0.1,1.1-2.2-0.2-2.1C44.1,30.6,44.4,32.7,45.7,32.6z"/>
			<path class="st6" d="M49.5,28.2c-0.2-0.1-0.3-0.2-0.5-0.3c-0.2-0.1-0.4-0.2-0.6-0.2c-1.2-0.4-2.4-0.4-3.6-0.1
				c-0.2,0.1-0.4,0.1-0.7,0.2c-0.1,0-0.2,0.1-0.3,0.1c-0.1,0-0.2,0.1-0.3,0.2c0,0-0.1,0.1,0,0.2c0,0.1,0.1,0.1,0.2,0.1
				c0.1,0,0.1,0,0.2-0.1c0,0,0,0,0,0l0.1,0l0.1,0c0.1,0,0.2-0.1,0.3-0.1c0.2-0.1,0.4-0.1,0.6-0.2c0.2-0.1,0.4-0.1,0.6-0.1
				c0.1,0,0.2,0,0.3,0c0,0,0,0,0,0l0,0l0.1,0c0.1,0,0.1,0,0.2,0c0.4,0,0.8,0,1.2,0c0.4,0,0.8,0.1,1.1,0.2c0.2,0.1,0.4,0.1,0.6,0.2
				c0.2,0.1,0.4,0.2,0.6,0.2c0,0,0.1,0,0.1,0C49.6,28.3,49.6,28.2,49.5,28.2C49.5,28.2,49.5,28.2,49.5,28.2z"/>
			<g>
				<path class="st7" d="M40.2,38.1l0.3,0.1c0.2,0,0.3-0.1,0.4-0.3c0-0.2-0.1-0.4-0.3-0.4c-0.5-0.2-0.9-0.3-1.1-0.7
					c-0.2-0.3-0.2-0.8-0.1-1.2l0.5-5.8c0-0.2-0.1-0.4-0.3-0.4c-0.2,0-0.4,0.1-0.4,0.3l-0.5,5.8c0,0.5-0.1,1.2,0.2,1.7
					C39.2,37.7,39.7,37.9,40.2,38.1z"/>
				<path class="st7" d="M42.7,41.3c-0.1-0.2-0.3-0.2-0.4-0.2c-0.3,0.1-0.5,0.2-0.8,0.3c-0.3,0.1-0.6,0.1-0.8,0.2
					c-0.6,0.1-1.2,0-1.8-0.1c-0.1,0-0.3-0.1-0.4-0.1c-0.2-0.1-0.3-0.1-0.5-0.2c0,0-0.2-0.1-0.3-0.1c-0.3,0-0.3,0.3-0.2,0.5
					c0.2,0.2,0.8,0.4,1.1,0.5c0.3,0.1,0.6,0.2,1,0.2c0.2,0,0.4,0,0.6,0c0.5,0,0.9-0.1,1.3-0.2c0.4-0.1,0.7-0.2,1-0.4
					C42.7,41.6,42.8,41.5,42.7,41.3z"/>
			</g>
		</g>
	</g>
</g>
</svg>
