<svg xmlns="http://www.w3.org/2000/svg" xmlns:xlink="http://www.w3.org/1999/xlink" width="48" height="48" viewBox="0 0 48 48">
  <defs>
    <rect id="rect-1" width="48" height="48" x="0" y="0"/>
    <mask id="mask-2" maskContentUnits="userSpaceOnUse" maskUnits="userSpaceOnUse">
      <rect width="48" height="48" x="0" y="0" fill="black"/>
      <use fill="white" xlink:href="#rect-1"/>
    </mask>
    <ellipse id="ellipse-3" cx="24" cy="24" rx="23.022" ry="23.022"/>
    <path id="path-4" fill-rule="evenodd" d="M24 .9777832C11.29368973.9777832.97777748 11.29370117.97777748 24S11.29368973 47.0222168 24 47.0222168c12.70630836 0 23.02222633-10.31591797 23.02222633-23.0222168S36.70630836.9777832 24 .9777832z"/>
    <mask id="mask-5" maskContentUnits="userSpaceOnUse" maskUnits="userSpaceOnUse">
      <rect width="48" height="48" x="0" y="0" fill="black"/>
      <use fill="white" xlink:href="#path-4"/>
    </mask>
  </defs>
  <g>
    <use fill="none" xlink:href="#rect-1"/>
    <g mask="url(#mask-2)">
      <g opacity=".1">
        <use fill="rgb(242,166,28)" xlink:href="#ellipse-3"/>
        <use fill-opacity="0" stroke="rgb(242,166,28)" stroke-dasharray="0 0 0 0" stroke-linecap="butt" stroke-linejoin="miter" stroke-width=".5" xlink:href="#ellipse-3"/>
      </g>
      <g>
        <use fill="none" xlink:href="#path-4"/>
        <g mask="url(#mask-5)">
          <path fill="rgb(240,190,180)" fill-rule="evenodd" d="M37.46044444 39.29688889c-.72831267-.00243097-1.35530539.51368539-1.49288888 1.22888889-.66311112 3.4951111-1.34222223 10.20933333-1.17466667 13.72222222h6.98488889c-1.09511111-4.97244444-2.22222222-11.30888889-2.84444445-13.80355556-.16934915-.67525846-.77671916-1.1484719-1.47288889-1.14755555z"/>
          <path fill="rgb(0,140,255)" fill-rule="evenodd" d="M35.59466667 45.10577778c.57022222-4.35555556 1.47866666-8.32844445 1.76-8.64666667.28133333-.31822222.68977777.368 1.00088889 1.04088889.24875038.551859.44732915 1.1249856.59333333 1.71244444.25866667 1.01511112.8 3.15555556 1.45377778 5.89333334h-4.808z"/>
          <path fill="rgb(240,190,180)" fill-rule="evenodd" d="M10.53955556 39.29688889c.72831267-.00243097 1.35530539.51368539 1.49288888 1.22888889.66311112 3.4951111 1.34222223 10.20933333 1.17466667 13.72222222H6.22222222c1.09511111-4.97244444 2.22222222-11.30888889 2.84444445-13.80355556.16934915-.67525846.77671916-1.1484719 1.47288889-1.14755555z"/>
          <path fill="rgb(0,140,255)" fill-rule="evenodd" d="M12.40533333 45.10577778c-.57022222-4.35555556-1.47866666-8.32844445-1.76-8.64666667-.28133333-.31822222-.68977777.368-1.00088889 1.04088889-.24875038.551859-.44732915 1.1249856-.59333333 1.71244444-.25866667 1.01511112-.8 3.15555556-1.45377778 5.89333334h4.808z"/>
          <path fill="rgb(240,190,180)" fill-rule="evenodd" d="M27.79688889 30.38222222c-.196-2.35555555-.54755556-6.58933333-.54755556-6.58933333h-6.304l-.44044444 6.48222222c-.0688823 1.01399415-.68273437 1.91069129-1.60311111 2.34177778l-8.0128889 3.75288889 2.348 17.03333333h22.20577779l1.85022222-16.64-7.99466667-4.13333333c-.85453694-.44016403-1.42194846-1.2896016-1.50133333-2.24755556z"/>
          <path fill="rgb(224,173,166)" fill-rule="evenodd" d="M23.23911111 30.85111111c1.81288889.40577778 3.54355556-.64044444 4.4-2.16755555l-.272-4.9c-.0046429-.06064495-.05517761-.10750088-.116-.10755556h-6.30577778c-.06121409.00032203-.11181123.04781743-.116.10888889l-.22444444 4.99555555c.72844444.9528889 1.43955555 1.80311112 2.63422222 2.07066667z"/>
          <path fill="rgb(0,140,255)" fill-rule="evenodd" d="M29.74977778 32.35022222S28.476 37.99466667 24.12044444 37.99466667c-4.4 0-5.68888888-5.81244445-5.68888888-5.81244445l-7.96222223 4.19066667 1.70844445 17.96755555h23.84666666l1.64444445-17.89466666-7.91911111-4.09555556z"/>
          <path fill="rgb(240,190,180)" fill-rule="evenodd" d="M31.6 17.36266667c.42977778.1671111.67155556.72977777.72177778 1.26.12301377 1.38387275-.31115209 2.75963781-1.20622222 3.82222222-.1448889.17022222-.30577778.33422222-.50844445.42888889-1.39422222.64844444-.87466667-3.42533334-.73733333-4.05733334.15288889-.696.84844444-1.79688888 1.73022222-1.45377777z"/>
          <path fill="rgb(240,190,180)" fill-rule="evenodd" d="M31.6 18.92533333c-.01439915-.09841944-.04535499-.19369128-.09155556-.28177777-.04799627-.0890692-.13782301-.14778278-.23866666-.156-.18533334-.00266667-.28933334.20844444-.33866667.3871111-.12866419.46546592-.19487386.94597179-.19688889 1.4288889.03860541-.04977814.1099671-.05946436.16044445-.02177778.04747079.0385213.08026448.0921837.09288889.152.13333333.4511111-.17555556.98177778-.63333334 1.0911111"/>
          <path fill="rgb(240,190,180)" fill-rule="evenodd" d="M16.78355556 17.36266667c-.42977778.1671111-.67155556.72977777-.72177778 1.26-.12321363 1.38389451.31097594 2.7597347 1.20622222 3.82222222.14488889.17022222.30577778.33422222.50844444.42888889 1.39422223.64844444.87466667-3.42533334.7368889-4.05733334-.152-.696-.84711112-1.79688888-1.72977778-1.45377777z"/>
          <path fill="rgb(240,190,180)" fill-rule="evenodd" d="M16.78622222 18.92533333c.01419602-.09846683.0451628-.19377234.09155556-.28177777.047934-.08912639.13779563-.14786276.23866666-.156.18533334-.00266667.28933334.20844444.33866667.3871111.12845319.4655094.19465897.945987.19688889 1.4288889-.03860541-.04977814-.1099671-.05946436-.16044444-.02177778-.0474708.0385213-.08026448.0921837-.0928889.152-.13333333.4511111.17555556.98177778.6328889 1.0911111"/>
          <path fill="rgb(240,190,180)" fill-rule="evenodd" d="M17.74177778 17.05244444c.05885682-1.07779693.22259341-2.14729457.48888889-3.19333333.41688889-1.60577778 1.364-3.09022222 2.82444444-3.91111111 1.61333333-.90666667 3.564-1.08355556 5.32133333-.69288889 1.29733334.28844445 2.53822223 1.01333333 3.29777778 2.14266667.8088889 1.2.8888889 3.0191111 1.00711111 4.4391111.17690042 2.10042581.00235929 4.21564808-.51644444 6.25866668-.42577778 1.65777777-1.13644445 3.30577777-2.27688889 4.58888888-.89866667 1.01155556-2.10755556 1.77422223-3.46133333 1.8128889-.2134384.00604077-.42701678-.00510633-.63866667-.03333334-1.496-.19866667-2.73022222-1.20933333-3.61911111-2.39155556C18.84 24.30577778 18.072 22.04577778 17.81333333 19.81466667c-.10266327-.91700964-.1266026-1.84112709-.07155555-2.76222223z"/>
          <path fill="rgb(57,34,47)" fill-rule="evenodd" d="M31.70355556 15.72622222c0-1.02222222-.09155556-3.54177778-.37644445-4.52533333-.50339367-1.71286156-1.58171353-3.19990703-3.05333333-4.21066667-1.27466667-.86933333-2.65377778-1.2-4.09955556-1.176-1.44533333-.0231111-2.82444444.30666667-4.0991111 1.176C18.60382197 8.0008324 17.52568328 9.48753055 17.02222221 11.2c-.28488889.98355556-.3751111 3.50488889-.37644444 4.52533333 0 .51733334.02444444 1.03377778.0471111 1.55022223 0-.00711112.0288889 0 .06755556.01644444.19022223-.08222222.39066667-.11911111.56222223.00355556.27644444.0831111.34266666.47288888.36533333.82266666.04444444.22222222.02844444.50266667.04755556.71111111 0 0 .04177777.46044445.08444444.9208889 0 0 .276-1.55555556.55288889-3.11111112.16755555-.94933333.12133333-1.92355555.30533333-2.87288889.10666667-.54888889.216-1.1071111.47866667-1.6.26266667-.49288889.70533333-.92222222 1.25466667-1.028.75155555-.14488889 1.464.32311111 2.168.62222222 1.01828045.43887393 2.1723862.43887393 3.19066666 0 .704-.30088888 1.41644445-.76888888 2.168-.62222222.54933334.10577778.99244445.53333334 1.25466667 1.028.26222222.49466667.372 1.052.47866667 1.6.1631111.84444445.1711111 1.7248889.25644444 2.57777778.12133333 1.21555556.36711111 2.42622222.55511111 3.63377778 0 0 .09377778-.78666667.18844445-1.5728889.0311111-.26133332.06666666-.53333332.21822222-.74933332.11187083-.16092374.29302293-.25973398.48888889-.26666667.22844444-.00355556.23066666.11422222.29422222-.12577778.11644444-.44177778.03155555-1.07866667.03066667-1.53688889z"/>
          <path fill="rgb(198,150,145)" fill-rule="evenodd" d="M24.42977778 22.65866667c-.01400415-.02868139-.03901038-.0504817-.06933334-.06044445-.3031111-.10355555-.58755555-.2151111-.72888888-.44177778-.13333334-.21333333-.12044445-.48888888-.09244445-.8l.30533333-3.40755555c.00314566-.03212998-.00678743-.06417218-.02755555-.08888889-.01941372-.02496755-.04811634-.04100254-.07955556-.04444444-.03223875-.00385144-.06465747.00557467-.08980498.0261118-.02514751.02053714-.04086082.05041885-.04352835.08277708l-.304 3.4088889c-.02444444.27422222-.05822222.64933333.128.94844444.18622222.2991111.50888889.424.85511111.54177778.01244097.00425902.02551763.00636331.03866667.00622222.04148557.0000982.08007928-.02123843.10205852-.05642331.02197924-.03518488.02422603-.07922665.00594148-.11646558v.00177778z"/>
          <path fill="rgb(57,34,47)" fill-rule="evenodd" d="M20.80977778 19.60533333c-.78044445-.08622222-.648-1.29955555.13333333-1.21288889.78133333.08666667.64755556 1.29911112-.13333333 1.2128889z"/>
          <path fill="rgb(55,33,46)" fill-rule="evenodd" d="M18.60444444 17.13866667c.10432134-.05021511.21129378-.0947249.32044445-.13333334.10933333-.03955555.21911111-.08.32977778-.11466666.11066666-.03466667.22488889-.06444445.3391111-.0888889.05777779-.01244444.116-.02355555.17466667-.03288888l.07822223-.012c.00134133-.00019156.00254844-.00036667.00363289-.00052622-.00040356.00029955.00069688.00052622.00481155.00052622l.01955556-.00266667.04933333-.00577778c.23399644-.02657955.46990756-.0320831.70488889-.01644444.05733333.00355556.11511111.00888889.172.01555556l.04444444.00533333.01955556.00222222H20.868l.08888889.01333333c.11688889.01955556.23288889.04444445.34755555.07466667.1272369.03347467.25247467.07413245.37511112.12177778l.04133333.01644444.02266667.00933334s.02444444.01022222.01555555.00622222l.01555556.00666667.03688889.01555555.0231111.00977778.00844445.00355555c.03466667.01466667.06933333.03066667.104.04444445l.00933333.004.02933334.01244444c.01852533.0076969.037932.01307111.05777778.016.0344711.007996.07020844-.0068351.08888888-.03688889.01757067-.03122444.01250712-.07028755-.01244444-.096-.04764756-.04379377-.10253689-.0789831-.16222222-.104C21.9 16.844 21.84088888 16.81822222 21.78 16.79422222c-.11117778-.04535333-.22466844-.08481555-.34-.11822222-.23624578-.06842711-.47856133-.113824-.72355556-.13555556-.48215155-.04408666-.96827288.0063369-1.4311111.14844445-.13364356.03867822-.263864.08832844-.38933334.14844444-.119688.06150311-.23586711.129608-.348.204-.02638711.01534134-.03534133.04916845-.02.07555556.01534133.02638711.04916844.03534133.07555556.02l.00088888.00177778z"/>
          <path fill="rgb(57,34,47)" fill-rule="evenodd" d="M27.35688889 19.60533333c.78044444-.08622222.648-1.29955555-.13333333-1.21288889-.78133334.08666667-.64755556 1.29911112.13333333 1.2128889z"/>
          <path fill="rgb(55,33,46)" fill-rule="evenodd" d="M29.61777778 17.04311111c-.1008889-.06533333-.20177778-.12888889-.3088889-.184-.1109111-.05577822-.22591066-.10302622-.344-.14133333-.69641332-.23039911-1.44491244-.2526409-2.15377777-.064-.13030044.03454578-.25851155.07654089-.384.12577778-.06622222.02577777-.13333333.05288888-.19555555.084-.06767823.02721244-.13009423.06601555-.18444445.11466666-.02495155.02571245-.03001511.06477556-.01244444.096.018772.02994534.05442977.04474356.08888889.0368889.03119422-.00663423.06156133-.01666668.09055866-.02991334.00072534.00019289.00356445-.000332.01033022-.00253111L26.256 17.06488889l.04444444-.02c.04666667-.02044445.09866667-.04444445.14977778-.06266667.108224-.04363066.21858711-.08175333.33066667-.11422222.11244444-.03244444.22577778-.05955556.34088889-.08133333.05822222-.01111111.11644444-.02044445.1751111-.0288889.00266668 0 .01955556-.00222221.00311112 0l.01955556-.00222221.03955555-.0048889c.02962978-.00355555.06074089-.00666666.09333333-.00933333.23447867-.02133333.47041023-.02133333.7048889 0 .22767155.0209529.45283377.06351511.67244444.12711111.12622222.036.24888889.08222223.37333333.12577778.12129333.04135734.24002089.08988756.35555556.14533334.0263871.01534133.06021422.0063871.07555555-.02.01534134-.02638712.00638711-.06021423-.02-.07555556l.00355556-.00088889z"/>
          <path fill="rgb(198,150,145)" fill-rule="evenodd" d="M25.92888889 24.85066667c-.10088889.06533333-.20177778.12888889-.30888889.184-.11081244.05611777-.22582667.10352-.344.14177777-.69653067.22973423-1.44483511.25197023-2.15377778.064-.13030044-.03454577-.25851155-.07654088-.384-.12577777-.06622222-.02577778-.13333333-.05333334-.19555555-.084-.06767823-.02721245-.13009423-.06601556-.18444445-.11466667-.02502578-.02585556-.03008755-.06508311-.01244444-.09644444.01889644-.0297769.054528-.04438578.08888889-.03644445.03136222.00632578.06187777.01627022.09093466.02962978.00112311.00000178.00403645.00059511.00995423.00237022l.03155555.01377778.04444445.02c.04666666.02044444.09866666.04444444.14977777.06266667.108.04444444.21866667.08133333.33066667.11422222.112.03288889.22577778.05955555.34088889.08133333.05822222.01066667.11644444.02.17511111.02844445h.00311111l.01955556.00266666.03955555.0048889c.02962978.00355555.0607409.00666666.09333334.00933332.23448888.02111067.4704.02111067.70488888 0 .22764134-.02116888.45278312-.0637271.67244445-.1271111.12622222-.03644445.24888889-.08266667.37333333-.12577778.12129334-.04135734.2400209-.08988756.35555556-.14533334.02613378-.01400355.0586631-.00482133.07361733.02078.01495422.02560178.00697333.05844622-.01806178.07433111l.00355556.00133334z"/>
        </g>
      </g>
    </g>
  </g>
</svg>
