<svg xmlns="http://www.w3.org/2000/svg" xmlns:xlink="http://www.w3.org/1999/xlink" width="41.5" height="41.221" viewBox="0 0 41.5 41.221">
  <defs>
    <rect id="rect-2" width="24" height="24" x="8.75" y="8.611"/>
    <mask id="mask-3" maskContentUnits="userSpaceOnUse" maskUnits="userSpaceOnUse">
      <rect width="41.5" height="41.221" x="0" y="0" fill="black"/>
      <use fill="white" xlink:href="#rect-2"/>
    </mask>
  </defs>
  <g>
    <path fill="rgb(236,235,255)" fill-rule="evenodd" d="M20.6105655 0h.278869C32.26471526 0 41.5 9.23528474 41.5 20.6105655c0 11.37528076-9.23528474 20.6105655-20.6105655 20.6105655h-.278869C9.23528474 41.221131 0 31.98584626 0 20.6105655 0 9.23528474 9.23528474 0 20.6105655 0z"/>
    <g>
      <use fill="none" xlink:href="#rect-2"/>
      <g mask="url(#mask-3)">
        <path fill="rgb(140,132,243)" fill-rule="evenodd" d="M17.31921768 31.34775257h6.86156464c1.14605713-.00128937 2.0748024-.93003464 2.07609176-2.07609177v-14.570158c-.00128936-1.14605904-.93003463-2.0748024-2.07609176-2.07609367h-6.86156464c-1.14605903.00129127-2.07480144.93003463-2.07609272 2.07609367v14.570158c.00129128 1.14605713.93003369 2.0748024 2.07609272 2.07609177zM16.27437592 14.7015028c.00077438-.57672977.46811294-1.04406929 1.04484367-1.04484367h6.86156273c.57672882.00077438 1.04406929.4681139 1.04484367 1.04484367v14.570158c-.00077438.57672883-.46811485 1.04406739-1.04484367 1.04484177h-6.86156273c-.57673073-.00077438-1.0440693-.46811294-1.04484367-1.04484177v-14.570158z"/>
        <path fill="rgb(140,132,243)" fill-rule="evenodd" d="M23.12375 13.2905655c-.28477182 0-.515625-.23085318-.515625-.515625V11.568378c-.0005169-.36654767-.2976708-.66349187-.66421875-.66375h-2.3878125c-.36654795.00025813-.66370185.29720233-.66421875.66375v1.2065625c0 .28477182-.23085318.515625-.515625.515625s-.515625-.23085318-.515625-.515625V11.568378c.00129157-.93577011.75969832-1.69396718 1.69546875-1.695h2.3878125c.93577043.00103282 1.69417718.75922989 1.69546875 1.695v1.2065625c0 .28477182-.23085318.515625-.515625.515625z"/>
        <path fill="rgb(140,132,243)" fill-rule="evenodd" d="M22.15109375 21.07509675c-.234375-.0121875-.465-.020625-.6975-.02671875-.18421875-.0046875-.3684375-.0065625-.55265625-.0075.13125-.2596875.25875-.5221875.37921875-.789375.17484375-.38484375.3384375-.77765625.48703125-1.17984375.15416135-.40806109.28238554-.8254551.38390625-1.2496875-.3540205.25467828-.69171499.53131534-1.01109375.82828125-.31640625.29015625-.6178125.59015625-.90796875.89765625s-.568125.62296875-.83765625.94453125c-.26953125.3215625-.52875.6496875-.78.984375L17.63 22.78603425l1.734375.09375c.234375.0121875.465.02109375.6975.028125l.34828125.00703125h.19875s-.1996875.39328125-.38390625.796875c-.17578125.38671875-.33984375.7809375-.489375 1.18546875-.15444011.41003907-.28266725.82947801-.38390625 1.25578125.35621984-.25534214.69595848-.53292584 1.0171875-.83109375.3178125-.29109375.62015625-.5925.91171875-.90140625.57654672-.6152962 1.11817631-1.2624035 1.62234375-1.93828125l.984375-1.3125-1.73625-.0946875z"/>
      </g>
    </g>
  </g>
</svg>
