<svg xmlns="http://www.w3.org/2000/svg" width="12" height="11.822" viewBox="0 0 12 11.822">
  <g>
    <path fill="rgb(189,189,189)" fill-rule="evenodd" d="M6.52729831 11.81314382C3.71978198 11.81031347 1.28280256 9.82708663.64140128 7.02316945 0 4.21925226 1.32261455 1.33097837 3.83583658.04728667 3.92873974 0 4.04068412.01867277 4.1141971.0937183c.07351299.07504555.09226201.1897908.04662126.28532517-.37630989.7825815-.57102559 1.6438641-.56891614 2.51647704.00188904 3.15118803 2.49012716 5.7060428 5.56191426 5.71082126.85927161.00229026 1.70714002-.20175368 2.4757752-.59580817.09281409-.04753086.20484774-.02896307.27834976.04613204.07350203.0750951.09205855.1899479.04610404.28535396-1.00865436 2.13045465-3.11800079 3.47966131-5.42674718 3.4711242z"/>
    <path fill="rgb(189,189,189)" fill-rule="evenodd" d="M9.1107759 1.9127173H8.00852675c-.10507202-.00006104-.19976806-.06536866-.23995971-.1654358-.04020691-.10009765-.01800537-.21530151.05625915-.29193115L8.80207534.44784302h-.68847657c-.11074829 0-.200531-.09255981-.200531-.20675659 0-.11416626.08978271-.20672607.200531-.20672607h1.03013611c.10430908.0012207.19781494.06658935.2374878.16604614.03967285.0994873.01782226.21377564-.05549622.2902832l-.9776001 1.00750733h.7619629c.11074828 0 .200531.09255981.200531.20672607 0 .11419678-.08978272.2067566-.200531.2067566l.00068664.0010376zm2.51905823 2.10058593h-1.31140137c-.12496948-.00003052-.23764038-.07766724-.28549194-.1966858-.04786683-.11901855-.0215149-.25604247.06677246-.347229l1.16322326-1.19924926h-.82011413c-.13148499 0-.23806763-.10986328-.23806763-.24542237 0-.13552856.10658264-.24542236.23806763-.24542236h1.22450256c.12472534.00030518.23706055.07781983.28486633.19656372.04780579.11877442.02172852.25549317-.06614685.34674072l-1.163208 1.19924927h.90699768c.13148498 0 .23806762.10986328.23806762.24542237 0 .13552856-.10658264.24542236-.23806762.24542236v.00061035zM8.7591371 6.45629639H7.0377626c-.16415406.0001831-.31221009-.10171508-.37498475-.25808715-.06277466-.1564026-.0278778-.33636475.08839417-.45584107l1.5256195-1.57284546H7.20209975c-.17285156 0-.31295776-.1444397-.31295776-.32263183 0-.17819214.1401062-.32263184.31295776-.32263184h1.60630798c.16407776-.00003052.31201172.10186768.37480164.2581482.06278992.15628051.02807617.33615112-.08795166.45578002l-1.5258789 1.57312012h1.1897583c.11393737-.00344849.2206726.0572815.27862548.15847778.05793762.1011963.05793762.22686768 0 .32806397-.05795288.10116577-.1646881.16189575-.27862549.15844726z"/>
  </g>
</svg>
