<svg xmlns="http://www.w3.org/2000/svg" width="16" height="15.762" viewBox="0 0 16 15.762">
  <g>
    <path fill="rgb(255,255,255)" fill-rule="evenodd" d="M8.70306442 15.75085842C4.9597093 15.74708462 1.7104034 13.10278218.8552017 9.36422593 0 5.6256697 1.76348607 1.77463783 5.11444877.0630489 5.23831965 0 5.38757882.02489703 5.48559614.12495775c.09801732.10006072.12301602.2530544.06216169.38043356-.50174652 1.04344199-.76136745 2.1918188-.75855485 3.35530271.00251872 4.20158405 3.32016954 7.60805707 7.41588567 7.61442835 1.14569548.00305368 2.2761867-.2690049 3.3010336-.79441089.12375212-.06337448.27313032-.03861742.37113302.06150938.0980027.10012681.12274473.25326386.06147205.38047195-1.34487248 2.8406062-4.15733439 4.63954842-7.2356629 4.62816561z"/>
    <path fill="rgb(255,255,255)" fill-rule="evenodd" d="M12.14768604 2.55031355h-1.46963501c-.1401062-.00009156-.26635742-.0871582-.3199768-.22061158-.05358888-.13345336-.02398683-.28704834.0750122-.38922119L11.73609546.59712751h-.91796875c-.14764404 0-.2673645-.12341308-.2673645-.27563476 0-.1522522.11972046-.27566529.2673645-.27566529h1.37353516c.1390686.00161743.26376343.08877564.31665039.22140503.05288696.1326294.02374267.28500366-.07400513.38702393l-1.3034668 1.34335327h1.01593018c.14767456 0 .26739502.12341309.26739502.27563477 0 .1522522-.11972046.27566528-.26739502.27566528l.00091553.0014038zm3.35876465 2.80078125h-1.74853516c-.1666565-.00006104-.31686401-.10354615-.38067627-.26226807-.06381226-.1586914-.02868652-.34140015.0890503-.46298218l1.55093383-1.5989685h-1.09347534c-.17529297 0-.31741333-.1465149-.31741333-.32724 0-.1807251.14212036-.32723998.31741333-.32723998h1.63269043c.16629028.00039673.31607056.10372924.37982178.26208496.0637207.15835571.02896118.34066772-.0881958.4623413L14.2971001 4.69579085h1.20935059c.17529296 0 .31741333.1465149.31741333.32724 0 .18072509-.14212037.32723998-.31741333.32723998v.00082398zm-3.8276062 3.25735473H9.38367846c-.21887207.00021363-.41629028-.13565063-.49996948-.34417724-.08370972-.2084961-.03717041-.44845581.11785888-.60775757l2.03414917-2.09710693H9.60279468c-.23046875 0-.41726685-.19262696-.41726685-.4302063 0-.23757935.1867981-.43017578.41726685-.43017578h2.14175415c.21875-.00003052.41601563.13583374.49972534.34420776.08374024.20837402.03744507.44821167-.11727905.60769653l-2.03448486 2.09750366h1.58633422c.1519165-.00457763.29421998.07635498.37149048.21130372.07727051.1349182.07727051.30249023 0 .43740844-.0772705.13491822-.21957397.21585083-.37149048.21130371z"/>
  </g>
</svg>
