<svg xmlns="http://www.w3.org/2000/svg" width="16" height="16" viewBox="0 0 16 16">
  <path fill="rgb(255,255,255)" fill-rule="evenodd" d="M13.13204575 13.94886404c.39598274-.0003767.716897-.32129001.71727275-.71727276V8.11795527h1.36363602v5.11363601c-.00150204 1.1486311-.93227768 2.07940579-2.08090877 2.08090878H2.9115908c-1.14863133-.001503-2.07940655-.93227768-2.080909-2.08090878V3.01045448C.83180933 1.86166763 1.7628039.930673 2.9115908.92954546H8v1.3636365H2.91159081c-.39598298.00037574-.71689677.32128977-.71727252.71727252v10.2211368c.00037575.39598275.32128954.71689606.71727252.71727276h10.22045494zM10 2.3006819V.93704545h5.23954487v5.56295461h-1.36363602V3.34113652L7.51727247 9.69977289l-.9647727-.9640913 6.43499947-6.4349997H10z"/>
</svg>
