<svg xmlns="http://www.w3.org/2000/svg" xmlns:xlink="http://www.w3.org/1999/xlink" width="42" height="42" viewBox="0 0 42 42">
  <defs>
    <rect id="rect-2" width="24" height="24" x="9" y="9"/>
    <mask id="mask-3" maskContentUnits="userSpaceOnUse" maskUnits="userSpaceOnUse">
      <rect width="42" height="42" x="0" y="0" fill="black"/>
      <use fill="white" xlink:href="#rect-2"/>
    </mask>
  </defs>
  <g>
    <path fill="rgb(255,243,223)" fill-rule="evenodd" d="M21 0c11.59021551 0 21 9.40978449 21 21s-9.40978449 21-21 21S0 32.59021551 0 21 9.40978449 0 21 0z"/>
    <g>
      <use fill="none" xlink:href="#rect-2"/>
      <g mask="url(#mask-3)">
        <path fill="rgb(255,133,56)" fill-rule="evenodd" d="M18.88500023 32.51390743h4.23374939c.7244339.00566101 1.34066582-.52692032 1.44000053-1.24453354l.328125-2.296875c.36985016-.1828308.72663689-.39098358 1.06781197-.62296676l2.16562462.87234497H28.125c.16989517.0661583.35064697.10001755.53296852.09984207.52292252.00195312 1.0055027-.2807312 1.25953102-.73781204l2.11828232-3.6679697.00515747-.00937462c.34674454-.62429047.19176483-1.4077263-.3665638-1.85297013L29.842968 21.62156296c.01781273-.22078133.02625084-.421875.02625084-.62250138 0-.20062255-.00843811-.4073429-.02578164-.62249755l1.83234406-1.43203354c.55860138-.44874192.71121216-1.23540116.36093903-1.86046791l-2.11453247-3.65906239c-.34828187-.63093758-1.1010952-.90375042-1.79203225-.64874935l-2.1726551.87187385c-.3420639-.23236751-.70014572-.44023036-1.07156372-.62203025l-.328125-2.28703118c-.09578705-.72159862-.71301842-1.25951671-1.44093705-1.25578212h-4.23374938c-.72444344-.00506878-1.34016419.52819442-1.43859482 1.2459383l-.328125 2.296875c-.36979103.18231105-.72643471.3901577-1.06734276.62203025l-2.16796875-.87046813h-.00562477c-.66468811-.2573433-1.45031357.0234375-1.78968811.63937473l-2.109375 3.65109348c-.365757.62800217-.21435452 1.42935753.35531234 1.88062477l1.828125 1.43015671c-.01781272.22218704-.02671813.42750168-.02671813.62109375 0 .19359398.0089054.3989067.02671813.62203217l-1.83328151 1.43296814c-.55793953.44923973-.70991993 1.23569679-.35953045 1.86046981l2.1168747 3.65906048c.35390663.6393776 1.08796882.9060936 1.79109382.6487503l2.17124939-.87234496c.34178734.23189163.69937897.43958664 1.0701561.62156295l.328125 2.28656388c.09658813.72083664.7131958 1.25798797 1.44046974 1.25484466zm-2.50406265-5.07281494l-.20906258-.15093613-2.62828064 1.0546875c-.29953194.10687256-.53859425-.03609466-.64265633-.2264061l-2.11359405-3.65624904c-.12750054-.23859405-.0782814-.5142212.11906242-.67031479l2.23640633-1.74843597-.0267191-.2578125c-.06062698-.52168274-.06062698-1.04862976 0-1.5703125l.0267191-.2578125-2.23218727-1.74562454c-.20278263-.16036225-.25690842-.44536972-.12703133-.66890717l2.11640549-3.66140652.00609398-.01031208c.11390686-.20671844.40031242-.30703163.62953186-.21984386l2.63624954 1.0589056.2114067-.1481247c.42489625-.30719661.87913895-.5716095 1.35609437-.7893753l.234375-.105937.40171814-2.80546856v-.00890637c.02953148-.24093723.25312423-.42843723.50859451-.42843723h4.23281097c.25558472-.00376797.47418213.18291378.51046944.43593693l.40218735 2.80546856.234375.10546875c.47754478.21616268.93203926.48000145 1.35656166.78750038l.20906448.15093803 2.62874794-1.0551567c.29953194-.10781289.538126.03562545.64218903.2264061l2.11359215 3.65625c.12750053.23859405.0778141.51421928-.11952973.67031287l-2.23781395 1.7493744.02812577.25922012c.02973365.26005554.04538154.52153205.046875.78327941-.0018406.26220513-.01748658.52412987-.046875.78468705l-.02718735.25875091 2.23312569 1.74609375c.19791412.1611805.25183296.44104386.12796783.6642189l-2.11828041 3.66702939-.00562668.00984573c-.0899372.15792465-.25794792.25518417-.43968582.25453186-.0641632-.00020218-.12773514-.01228333-.1875-.03562546l-2.63718796-1.05890655-.20859337.1490631c-.42544937.30712128-.87996483.57182313-1.35703277.79030991l-.234375.10593796-.40218735 2.80406189v.00890732c-.02999878.24093628-.25359345.42843628-.50952911.42843628h-4.233284c-.2561245.00388717-.47501755-.18365097-.51046753-.4373436l-.40312576-2.8045311-.234375-.10593795c-.47734833-.2165413-.93180466-.48035813-1.35656166-.78749848zM21 26.55656338c-3.06868362-.0005188-5.5559702-2.48850537-5.55562496-5.55718899.00034523-3.06868172 2.48819256-5.55610943 5.55687427-5.55593681 3.06868363.00017261 5.55624962 2.4878788 5.55624962 5.55656242C26.5538826 24.06767082 24.06767273 26.55346203 21 26.55656338zm-4.618124-5.55593777C16.38153075 18.44970894 18.44908523 16.38145447 21 16.38093758 23.55022621 16.38326263 25.61715698 18.4497757 25.62000084 21c0 2.55091476-2.06783485 4.6188879-4.61874962 4.61906338-2.55091667.00017166-4.61903-2.067523-4.61937523-4.61843777z"/>
        <path fill="rgb(255,133,56)" fill-rule="evenodd" d="M19.43200874 21.911026c.15342713.27332878.37791252.50008202.64968682.65625.57186699.31874085 1.26797676.31874085 1.83984375 0 .27171707-.15608597.49607086-.38286781.64921951-.65625.31560516-.5675106.31560516-1.25780296 0-1.82531357-.15314865-.27338028-.37750244-.50016403-.64921951-.65625-.571867-.31873893-1.26797676-.31873893-1.83984375 0-.2717743.15616799-.4962597.38292122-.64968682.65625-.31560516.5675106-.31560516 1.25780297 0 1.82531357zm2.57156182-.29437637c-.09736061.17666816-.2419777.32274627-.41765595.421875h.00187493c-.17900658.10032654-.38121796.1518898-.58640671.14953232-.20370102.00232887-.40439224-.04925919-.58171845-.14953232-.17490768-.0993557-.31871032-.2454319-.41531372-.421875-.20312881-.38716126-.20312881-.84939957 0-1.23656273.0966034-.1764431.24040604-.3225174.41531372-.421875.1773262-.10027123.37801743-.15185928.58171845-.14953041.2045555-.00202942.40607834.0495224.58453178.1495304.17567825.09913064.32029534.24520875.41765595.421875.20248413.38732148.20248413.84924317 0 1.23656274z"/>
      </g>
    </g>
  </g>
</svg>
