<svg xmlns="http://www.w3.org/2000/svg" xmlns:xlink="http://www.w3.org/1999/xlink" width="24" height="24" viewBox="0 0 24 24">
  <defs>
    <rect id="rect-1" width="24" height="24" x="0" y="0"/>
    <mask id="mask-2" maskContentUnits="userSpaceOnUse" maskUnits="userSpaceOnUse">
      <rect width="24" height="24" x="0" y="0" fill="black"/>
      <use fill="white" xlink:href="#rect-1"/>
    </mask>
  </defs>
  <g>
    <use fill="none" xlink:href="#rect-1"/>
    <g mask="url(#mask-2)">
      <path fill="rgb(51,51,51)" fill-rule="evenodd" d="M19.2000225 2.40001699h1.19997928c1.32598114 0 2.39996217 1.07398043 2.40001758 2.39996036v16.80000627C22.80001936 22.92601897 21.72598292 24 20.40000178 24H3.59999717c-1.32603625 0-2.40001684-1.07403645-2.40001684-2.40001638l.01203753-16.79994965c0-1.32603655 1.06199907-2.40001698 2.3879793-2.40001698H4.7999772V0H7.1999942v2.40001699h9.60001192V0h2.40001639v2.40001699zM3.59999717 21.59998362h16.8000046V8.39997482H3.59999718v13.2000088z"/>
      <path fill="rgb(51,51,51)" fill-rule="evenodd" d="M17.7030781 11.78239412l-1.27198026-1.27198026-5.85601418 5.85601418-2.54396051-2.54401676-1.2720365 1.27198025 3.81599701 3.81599702 7.12799443-7.12799443z"/>
    </g>
  </g>
</svg>
