<svg xmlns="http://www.w3.org/2000/svg" xmlns:xlink="http://www.w3.org/1999/xlink" width="56" height="55.309" viewBox="0 0 56 55.309">
  <defs>
    <rect id="rect-2" width="36" height="36" x="10" y="9.654"/>
    <mask id="mask-3" maskContentUnits="userSpaceOnUse" maskUnits="userSpaceOnUse">
      <rect width="56" height="55.309" x="0" y="0" fill="black"/>
      <use fill="white" xlink:href="#rect-2"/>
    </mask>
  </defs>
  <g>
    <path fill="rgb(255,238,227)" fill-rule="evenodd" d="M27.65432099 0h.69135802C43.60851426 0 56 12.39148574 56 27.65432099c2.3e-7 15.26283483-12.39148533 27.65432076-27.65432058 27.65432099H27.654321C12.39148574 55.30864198 0 42.91715623 0 27.65432098-2.3e-7 12.39148616 12.39148533 2.4e-7 27.65432058 0z"/>
    <g>
      <use fill="none" xlink:href="#rect-2"/>
      <g mask="url(#mask-3)">
        <path fill="rgb(255,133,56)" fill-rule="evenodd" d="M36.09999847 42.1239853h.03700257c.77391815-.00067521 1.5443573-.10356523 2.29133224-.30599977h.00500107c.97057343-.26965713 1.79816818-.90634155 2.30766678-1.77532959l1.41199875-2.34700012c.61327743-1.01501846.3169899-2.33308029-.6716652-2.98800277l-5.62266921-3.74966622c-.96767044-.64013481-2.26485443-.42882347-2.97933197.4853344l-1.63766861 2.10533142-.0043335.00566864c-.03570938.04633713-.10004044.05940246-.15099716.03066635l-.314003-.17300034c-.99899673-.54466629-2.2433319-1.22299957-4.77266502-3.75333404-2.52933311-2.53033257-3.20833397-3.77433395-3.75466728-4.77433395l-.17066574-.3113327-.00333404-.00600053c-.02851296-.05105972-.01532364-.11530304.03100013-.15099907l2.10966683-1.64133262c.91345978-.71528626 1.12360573-2.0125885.48266601-2.97966767l-3.75066566-5.62166595c-.6545086-.98806286-1.97153855-1.2845745-2.98633385-.67233372l-2.34833336 1.41066647c-.86879635.50917244-1.5055542 1.33622932-1.77566623 2.30633354v.00300026c-.55066681 2.01199913-.35700036 4.26666641.57699966 6.70466614 1.19833374 3.12666702 3.62300014 6.52866745 7.2066679 10.11300087 2.90833282 2.90800094 5.70933151 5.06233215 8.32533264 6.40299988 2.17833328 1.11566543 4.25099945 1.68233108 6.15766525 1.68233108zm-20.6003313-18.61599732c-.84300041-2.1993332-1.02466679-4.20933342-.54033375-5.97600174.18998241-.6794529.63650417-1.25852013 1.24533272-1.61499882l2.3560009-1.41499996c.48074531-.28991032 1.10457802-.14920616 1.41433334.31900024l3.74733353 5.61800003c.30093956.45998955.20181656 1.07351303-.2286663 1.4153328l-2.1020012 1.63633346c-.50361633.38942337-.6477356 1.08806992-.33933258 1.64500046l.1693325.3089981c.58133507 1.06466676 1.30633355 2.38533402 3.95533372 5.03700257 2.64900016 2.65166473 3.9743328 3.37233353 5.03700065 3.95166397l.30966568.17066956c.55727768.30673599 1.25499344.16107559 1.64300156-.34300232l1.63333511-2.09999848c.34049225-.43064499.95308685-.53079223 1.4129982-.23099899l5.62233353 3.74933243c.4680481.31009293.60832214.9341011.3180008 1.41466522l-1.41333772 2.34933472-.00333023.00533294c-.3560524.60892869-.93497085 1.0555153-1.6143341 1.24533463-.65858078.17798615-1.33813477.26644897-2.02033234.26299667-3.87067032 0-8.59400177-2.67699813-13.66066742-7.74366378-3.46666717-3.46700097-5.80200005-6.73233414-6.9416666-9.70533371z"/>
        <path fill="rgb(255,133,56)" fill-rule="evenodd" d="M30.84266667 17.60498765c4.34366666.005 7.86333333 3.52466667 7.86833333 7.86833334.00673066.25077924.21196379.45057802.46283333.45057802.25086955 0 .45610268-.19979878.46283334-.45057802-.00533334-4.85466667-3.93933334-8.78866667-8.794-8.794-.25077924.00673066-.45057802.21196379-.45057802.46283333 0 .25086954.19979878.45610267.45057802.46283333z"/>
        <path fill="rgb(255,133,56)" fill-rule="evenodd" d="M38.4596672 25.47332c.00036622.39423371.319767.71378327.7140007.7143345.39441682-.00055123.71396638-.32024956.71433259-.71466637-.00532913-4.99346733-4.05220032-9.04003906-9.04566574-9.04500008-.38841248.00839234-.69890404.32566452-.69890404.71416664 0 .38850212.31049156.70577431.69890404.71416664 4.19566726.00466729 7.61266708 3.4216671 7.61733246 7.61699868zm-7.82060241-8.3311653c0-.11363412.0897255-.2069912.20326805-.21150017 4.70533562.00533294 8.53766823 3.83766746 8.54300117 8.5423336.00307847.07756424-.0365448.1505928-.1032524.19029045-.0667038.03969765-.14979172.03969765-.21649933 0-.0667038-.03969765-.10633088-.11272621-.1032486-.19029045-.004776-4.48246384-3.6375351-8.11492348-8.12000084-8.11933327-.11354256-.00450897-.20326805-.09786796-.20326805-.21150017z"/>
        <path fill="rgb(255,133,56)" fill-rule="evenodd" d="M30.31366667 20.91098765c2.81041909.0034895 5.08784383 2.28091425 5.09133333 5.09133334-.00451743.16831591.08269677.32581605.2277563.41130515.14505952.0854891.32509454.0854891.47015407 0s.23227373-.24298924.2277563-.41130515c-.00404067-3.3214222-2.6955778-6.01295934-6.017-6.017-.25077924.00673066-.45057802.21196379-.45057802.46283333 0 .25086954.19979878.45610267.45057802.46283333z"/>
        <path fill="rgb(255,133,56)" fill-rule="evenodd" d="M35.15266418 26.00232124c.00037003.3942337.31977082.71378136.7140007.71433258.39480973-.00073433.71437073-.32119178.7140007-.7159996-.004776-3.45965385-2.80867766-6.26280975-6.26833343-6.26666641-.39451408 0-.71433258.3198185-.71433258.71433258 0 .39451599.3198185.71433449.71433258.71433449 2.6656685.00300026 4.8370018 2.17300033 4.84033203 4.83966636zm-5.0506649-5.55399894c0-.11671639.09461785-.21133423.21133423-.21133423 3.1756649.00333404 5.76199913 2.59000015 5.76600075 5.76499939.00307846.07756424-.0365448.1505928-.10325241.19029236-.06670761.03969764-.14979172.03969764-.21649933 0-.0667038-.03969956-.10633087-.11272812-.1032486-.19029236-.00367355-2.94922638-2.39377594-5.3390274-5.3430004-5.34233284-.1167164 0-.21133424-.09461785-.21133424-.21133232z"/>
        <path fill="rgb(255,133,56)" fill-rule="evenodd" d="M29.85066667 23.95432099c1.277563.00054915 2.31361077 1.03510577 2.316 2.31266666.00673066.25077924.21196379.45057803.46283333.45057803.25086954 0 .45610267-.19979879.46283333-.45057803-.00202066-1.78856493-1.45143506-3.23797933-3.24-3.24-.25077923.00673067-.45057802.2119638-.45057802.46283334 0 .25086954.19979879.45610267.45057802.46283333l-.00166666.00166667z"/>
        <path fill="rgb(255,133,56)" fill-rule="evenodd" d="M31.91366768 26.26698685c.00054932.394104.31989479.71344948.7139988.7140007.3943634-.00036812.71396636-.31997109.71433257-.71433449-.00494766-1.92623138-1.5654316-3.48641968-3.49166488-3.49099922-.38841248.00839233-.69890404.32566452-.69890404.71416664 0 .38850212.31049156.7057743.69890404.71416664 1.13812446.0031128 2.0600357.92487526 2.0633335 2.06299973zm-2.26660347-2.77716637c0-.1136341.0897255-.2069912.20326805-.21150017 1.6493988.00421334 2.98545265 1.34026718 2.9896679 2.98966599.00307845.07756424-.0365448.1505928-.10325242.19029236-.0667038.03969764-.14979172.03969764-.21649551 0-.06670761-.03969956-.10633087-.11272812-.10325241-.19029236-.00311661-1.41623688-1.15042878-2.56354904-2.56666756-2.56666565-.11354256-.00450897-.20326805-.09786797-.20326805-.21150017z"/>
      </g>
    </g>
  </g>
</svg>
