<svg xmlns="http://www.w3.org/2000/svg" xmlns:xlink="http://www.w3.org/1999/xlink" width="64" height="64" viewBox="0 0 64 64">
  <defs>
    <rect id="rect-2" width="36" height="36" x="14" y="13.957"/>
    <mask id="mask-3" maskContentUnits="userSpaceOnUse" maskUnits="userSpaceOnUse">
      <rect width="64" height="64" x="0" y="0" fill="black"/>
      <use fill="white" xlink:href="#rect-2"/>
    </mask>
  </defs>
  <g>
    <g opacity=".15">
      <path fill="rgb(255,209,46)" fill-rule="evenodd" d="M32 0c17.66128078 0 32 14.33871922 32 32S49.66128078 64 32 64 0 49.66128078 0 32 14.33871922 0 32 0z"/>
    </g>
    <g>
      <use fill="none" xlink:href="#rect-2"/>
      <g mask="url(#mask-3)">
        <path fill="rgb(255,209,46)" fill-rule="evenodd" d="M40.09997559 46.42614746h.0369873c.77392578-.00061035 1.54437256-.10351562 2.29138184-.30603027h.00500488c.97052002-.26965332 1.79815674-.90625 2.30761719-1.77526856l1.41204834-2.3470459c.61322021-1.01501464.31695556-2.3330078-.6716919-2.9880371l-5.62268066-3.7496338c-.96765137-.64013671-2.26483154-.428833-2.97930908.48535157l-1.63769532 2.10534668-.0043335.00561523c-.03570556.04638672-.10003661.05944824-.15100097.03076172l-.31396484-.1730957c-.99902344-.54467774-2.24334717-1.2229004-4.77270508-3.7532959-2.52929688-2.53027344-3.20831299-3.774292-3.75463867-4.774292l-.1706543-.31140136-.00335693-.00598144c-.02850342-.0510254-.01531983-.11523438.03100586-.15100098l2.10968017-1.64135742c.91345215-.71520996 1.1235962-2.01257325.48266602-2.97961426l-3.75067139-5.6217041c-.65454101-.98803711-1.97155762-1.2845459-2.98632812-.67236328l-2.34832764 1.4107666c-.86883545.50915527-1.5055542 1.33618164-1.7756958 2.30627441v.00305176c-.55065918 2.01196289-.35699463 4.26660156.57702637 6.70458984 1.19830322 3.12670899 3.62298584 6.52868653 7.20666503 10.11303711 2.9083252 2.90795899 5.70928956 5.06237793 8.32531739 6.4029541 2.17834472 1.11572266 4.25097656 1.68237305 6.1576538 1.68237305zm-20.6003418-18.6159668c-.84301758-2.19934082-1.0246582-4.20935058-.54034424-5.97595214.19000244-.67944336.63653565-1.25854493 1.24536133-1.61499024l2.35601807-1.41503906c.48071289-.289917 1.10455322-.14916992 1.41430664.31896973l3.74731445 5.61804199c.30096435.45996094.20184326 1.07348633-.2286377 1.4152832l-2.10198974 1.63635254c-.50366211.3894043-.64776612 1.08813477-.33935547 1.64501953l.16931152.30895996c.58135987 1.06469727 1.30633545 2.38537598 3.9553833 5.0369873 2.64898682 2.6517334 3.9743042 3.37243653 5.0369873 3.95166016l.30963136.17077637c.557312.30664063 1.25500488.16101074 1.64300537-.34301758l1.63336181-2.10009765c.3404541-.430542.95306397-.53076172 1.41296387-.23095704l5.62237549 3.74938965c.46801758.3100586.60827637.93408203.31799316 1.41467285l-1.41333008 2.34924317-.00335693.0053711c-.35601807.60888671-.93493652 1.05554198-1.61431885 1.24536132-.65856933.17797852-1.33813476.2664795-2.0203247.26293945-3.8706665 0-8.59399414-2.67700195-13.66070557-7.74365234-3.46661377-3.46691895-5.80200195-6.7322998-6.9416504-9.70532227z"/>
        <path fill="rgb(255,209,46)" fill-rule="evenodd" d="M34.84266667 21.90720988c4.34366666.005 7.86333333 3.52466666 7.86833333 7.86833333.00673066.25077924.21196379.45057802.46283333.45057802.25086955 0 .45610268-.19979878.46283334-.45057802-.00533334-4.85466667-3.93933334-8.78866667-8.794-8.794-.25077924.00673066-.45057802.21196379-.45057802.46283333 0 .25086955.19979878.45610268.45057802.46283334z"/>
        <path fill="rgb(255,209,46)" fill-rule="evenodd" d="M42.45965576 29.7755127c.00036621.3942871.31976319.71386718.71398926.71435546.39447021-.00048828.71398926-.32019043.71435547-.7145996-.00531006-4.99353028-4.05218506-9.04003907-9.0456543-9.04504395-.38842773.00842285-.69891357.3256836-.69891357.71411133 0 .3885498.31048584.70581054.69891357.7142334 4.19567871.00463867 7.6126709 3.42163086 7.61730957 7.61694336zM34.6390381 21.444458c0-.11364745.08972168-.20703124.20324707-.21154784 4.7053833.00537109 8.53765869 3.83764648 8.54302978 8.5423584.00305176.07751464-.03656006.15051269-.10327148.19030761-.06671143.03967285-.14978028.03967285-.2164917 0-.06671143-.03979492-.10632324-.11279297-.10327149-.19030762-.00476074-4.48254394-3.6375122-8.11499023-8.11999511-8.11938476-.1135254-.0045166-.20324707-.0979004-.20324707-.21142578z"/>
        <path fill="rgb(255,209,46)" fill-rule="evenodd" d="M34.31366667 25.21320988c2.81041909.0034895 5.08784383 2.28091424 5.09133333 5.09133333-.00451743.16831591.08269677.32581605.2277563.41130515.14505952.0854891.32509454.0854891.47015407 0s.23227373-.24298924.2277563-.41130515c-.00404067-3.3214222-2.6955778-6.01295934-6.017-6.017-.25077924.00673066-.45057802.21196379-.45057802.46283333 0 .25086955.19979878.45610268.45057802.46283334z"/>
        <path fill="rgb(255,209,46)" fill-rule="evenodd" d="M39.15270996 30.30456543c.00036621.3942871.31976318.71374512.71398926.71435547.39477539-.00073242.71435547-.321167.71398926-.71594238-.00476075-3.4597168-2.80865479-6.26281739-6.26831055-6.26672364-.39453125 0-.71435547.31982422-.71435547.71435547s.31982422.71435547.71435547.71435547c2.66564941.00292969 4.8369751 2.17297363 4.84033203 4.83959961zm-5.05072021-5.55407715c0-.11669922.09460449-.21130371.2113037-.21130371 3.17572022.0032959 5.76202393 2.58996582 5.76605225 5.76501465.00305176.07751465-.03656006.15063476-.10327148.19030762-.06671143.03967285-.14978027.03967285-.2164917 0-.06671143-.03967286-.10632324-.11279297-.10327148-.19030762-.00366211-2.94921875-2.3937378-5.33898926-5.34301758-5.34240723-.11669922 0-.21130371-.09460449-.21130371-.2113037z"/>
        <path fill="rgb(255,209,46)" fill-rule="evenodd" d="M33.85066667 28.25654321c1.277563.00054915 2.31361077 1.03510577 2.316 2.31266667.00673066.25077923.21196379.45057802.46283333.45057802.25086954 0 .45610267-.19979879.46283333-.45057802-.00202066-1.78856494-1.45143506-3.23797934-3.24-3.24-.25077923.00673066-.45057802.21196379-.45057802.46283333 0 .25086954.19979879.45610267.45057802.46283333l-.00166666.00166667z"/>
        <path fill="rgb(255,209,46)" fill-rule="evenodd" d="M35.91363525 30.56921387c.00061036.39404297.3199463.71350097.7140503.71398926.39434814-.00036622.71392822-.3199463.71429443-.71435547-.00494385-1.92614746-1.56542969-3.48632813-3.49163818-3.4909668-.38842774.00842285-.69891358.3256836-.69891358.71411133 0 .3885498.31048584.70581054.69891358.7142334 1.13812256.00305175 2.05999756.92480468 2.06329345 2.06298828zm-2.26654052-2.77709961c0-.11364746.08972168-.20703125.20324707-.21154785 1.64941406.00427246 2.98547363 1.34020996 2.98968506 2.98962402.00311279.07763672-.03656006.15063477-.10327149.19030762-.06671142.03967285-.14978027.03967285-.2164917 0-.06671142-.03967285-.10632324-.1126709-.10321045-.19030762-.00311279-1.4161377-1.15045166-2.56347656-2.56671142-2.5666504-.1135254-.0045166-.20324707-.09790038-.20324707-.21142577z"/>
      </g>
    </g>
  </g>
</svg>
