<svg xmlns="http://www.w3.org/2000/svg" width="40" height="40" viewBox="0 0 40 40">
  <g>
    <ellipse cx="19.75" cy="19.75" fill="rgb(204,248,231)" rx="19.25" ry="19.25"/>
    <g>
      <path fill="rgb(0,218,135)" fill-rule="evenodd" d="M9.32642397 20.35000223c5.9e-7-.3035524.24644697-.54999891.54999936-.54999967l8.76987578-.00000246-2.0395412-2.03954005c-.22662872-.2266286-.22662883-.59461847-2.3e-7-.8212472.22662995-.22663007.59461981-.22663017.82124854-.00000157l2.85191417 2.85191257c.08073585.0807358.13271205.17941201.15592319.28324566.05143944.1796575.00646307.38119093-.1349318.52258589l-2.9217691 2.92177074c-.20735233.20735244-.54403889.20735253-.75139065 8.9e-7-.20735311-.207353-.2073532-.54403956-8.9e-7-.751392l1.86733347-1.86733452-8.61865962.00000243c-.30355442 8e-8-.55000094-.2464463-.55000102-.55000071z"/>
      <path fill="none" stroke="rgb(0,218,135)" stroke-linecap="round" stroke-linejoin="miter" stroke-width="1.5" d="M12.67810335 14.11570547c1.68233431-1.95860086 4.18795855-3.20179542 6.98427843-3.20179542 5.06041352 0 9.16882725 4.0713404 9.16882725 9.08608995 0 5.01474956-4.10841373 9.08608995-9.16882725 9.08608995-2.84460396 0-5.38838671-1.28649772-7.07068594-3.30389013"/>
    </g>
  </g>
</svg>
