<svg xmlns="http://www.w3.org/2000/svg" width="56" height="53.5" viewBox="0 0 56 53.5">
  <g>
    <ellipse cx="28" cy="26.75" fill="rgb(255,133,56)" rx="28" ry="26.75"/>
    <g>
      <path fill="rgb(255,255,255)" fill-rule="evenodd" d="M39.83772278 37.26635048l3.36776733 3.34295654.00060272-.00241089c.11927796.1116333.18899537.2663269.19365693.42962646.00466156.16329957-.05612946.32171631-.16884613.44000245l-1.73320008 1.73257446c-.24114227.2371521-.6278839.2371521-.86902618 0l-3.36776734-3.36715698-1.34710693 1.97164917c-.13144684.20376587-.37129211.3100891-.61054993.27069091-.23926544-.0394287-.43232727-.21707153-.4914627-.45223999L32.65618134 33.4096c-.05488587-.2102356.00575256-.4338379.1593399-.58755493.15359497-.15371705.37713623-.21453858.5874405-.15982056l8.22545623 2.18585205c.23516846.05914307.4128189.25219727.45223999.4914856.03941345.2392578-.06691742.47909545-.27069092.61053466l-1.97224426 1.31625367zm-2.26514435 1.18188476l3.46520233 3.46517944.87023163-.85690307-3.46520233-3.46582031c-.12976837-.12857056-.19451904-.30886841-.17619324-.4906311.0183258-.18173219.11777496-.3454895.27059937-.44555665l1.4633026-.99249267-5.89011382-1.5486145 1.54862976 5.8901062.97734833-1.46328736c.10112762-.15231323.26529693-.25115967.44721985-.26931763h.06051635c.16056824.00054932.31447602.0642395.42845917.17733765z"/>
      <path fill="rgb(255,255,255)" fill-rule="evenodd" d="M32.09277344 38.80104896c-1.27720642.53027344-2.63554383.83868408-4.01651001.9119873v-5.5076599c.90538025.02114868 1.80888366.09265136 2.70631408.2142334.33488465.04089355.6407547-.19415284.68747712-.5282898.04671478-.33410645-.18295288-.64404297-.51621247-.69656372-.95449066-.12460327-1.91516113-.19613648-2.87757873-.2142334v-4.8982544h6.12249756c-.03074646.96032715-.12474823 1.9175415-.2814026 2.86547852-.04663085.33370972.1813965.64370728.5138321.69854736.33244324.0548706.6479721-.16543579.71102905-.49639892.16239167-1.0151062.25640107-2.03994751.2814026-3.06762696h4.28580474c-.06365967 1.37921143-.36183167 2.7374878-.88172913 4.01651001-.12693786.31115723.02085877.6664734.3310318.79580689.07343293.03161621.1524353.0482788.23238373.04901123.2508545.00027466.4765091-.15249634.56946564-.38549805 1.67700958-4.15792846 1.18141937-8.87704468-1.3227768-12.59585571-2.50421142-3.71884155-6.6905899-5.95263672-11.17397308-5.96224976h-.44055939c-4.803833.20272828-8.58614349 3.25097657-9.87333679 4.79171753-.01779938.01657105-.03440094.03393555-.04980469.05203247-.01878357.00335694-.03401947.0175171-.03855133.03634644-4.09572601 4.98565674-4.08049774 12.17556763.0363083 17.14382935l.04296874.04840087c3.73407746 4.5279541 9.98277283 6.0944214 15.41123963 3.86340332.31333923-.12683105.46452331-.4836731.33768463-.79699707-.12683869-.31335449-.48366547-.46453857-.7970047-.337677zM26.852005 15.2799308v5.45498657c-1.61032867-.04003906-3.21231842-.24505615-4.780838-.6118164 1.1068573-2.70025635 2.8273468-4.53091431 4.780838-4.84317017zm1.22425843 5.45501709c1.59832-.0430603 3.18816376-.24804688 4.74513244-.61184693-1.10806274-2.6760559-2.81040954-4.51272583-4.74513244-4.83468628v5.4465332zm-7.2093811-.95922852c.53972625-1.40808105 1.34046935-2.70159912 2.36016082-3.81256103-1.2577591.4607544-3.44567108 2.0229187-4.60568237 3.05865478.73558044.28775025 1.48498535.53936768 2.24552154.75390625zm13.1914749.03811646c.77407838-.22293091 1.53618623-.48553467 2.28330232-.78671265l-.03025818.00302124c-1.29125977-1.35494995-2.87432099-2.39782715-4.62893677-3.04943848 1.03205109 1.1123047 1.83887482 2.41400147 2.37589264 3.83312989zM15.2182312 26.85802528h4.2864151c.02481842-2.00106811.33350372-3.98849487.91683197-5.90280151-.90931702-.26464844-1.8026123-.58145142-2.67545318-.94891358-1.51978302 1.97369385-2.40159607 4.3638916-2.52779389 6.85171509zm24.49119568 0h-4.28580475c-.03629303-2.0003357-.3557663-3.98544311-.94890594-5.89614868.92029571-.26446533 1.8239975-.58355713 2.70631408-.9555664 1.5247345 1.9710083 2.40732575 4.36276244 2.52839661 6.85171508zm-12.85742188 0h-6.12310028c.03831482-1.89556885.34767151-3.77593994.91864777-5.58389282 1.70542145.41339111 3.45015717.64324951 5.20445251.68566894v4.89822388zm6.39179993-5.55969238c-1.6943283.40231323-3.42650604.62402344-5.1675415.66143799v4.89825439h6.08618927c-.04081726-1.88745117-.3501358-3.75946045-.91864777-5.55969238zM21.64150238 33.64379188c1.70812988-.40707397 3.45490265-.6302185 5.21050262-.66567993v-4.90188599h-6.12310028c.04111481 1.88949585.34833527 3.76379395.91259766 5.56756592zm-6.39240646-5.56149292h4.25555038c.03804016 2.00283814.35955048 3.99017334.95495606 5.90283203-.90732575.26461792-1.7986145.58145142-2.66940308.94888306-1.52928162-1.9694519-2.41636276-4.36132813-2.54110336-6.85171509zM26.852005 39.65795204c-1.9534912-.31225586-3.6739807-2.1428833-4.780838-4.83709717 1.56832122-.3687439 3.17030334-.57580566 4.780838-.6178894v5.45498657zm-8.23574829-3.7447815c.73563385-.29510498 1.4858017-.55264282 2.24759674-.77157592.53839112 1.40179443 1.33599091 2.68966674 2.35108185 3.79623413-1.7433548-.64459229-3.31630707-1.6791687-4.59867859-3.0246582z"/>
    </g>
  </g>
</svg>
