<svg xmlns="http://www.w3.org/2000/svg" width="48" height="48" viewBox="0 0 48 48">
  <g>
    <ellipse cx="24" cy="24" fill="rgb(238,238,238)" rx="24" ry="24"/>
    <path fill="rgb(104,104,104)" fill-rule="evenodd" d="M29.6669693 16.93904877c.58539581-.58539582 1.53592682-.58539582 2.12132263 0 .585392.58539581.585392 1.53592682 0 2.12132263l-5.30329895 5.30329895 5.30329895 5.30329895c.58539581.58539581.58539581 1.53592682 0 2.12132263-.58539581.58539581-1.53592682.58539581-2.12132263 0l-5.30329895-5.30329895-5.30329895 5.30329895c-.58539581.58539581-1.53592682.58539581-2.12132263 0-.58539582-.58539581-.58539582-1.53592682 0-2.12132263l5.30329895-5.30329895-5.30329895-5.30329895c-.585392-.58539581-.585392-1.53592682 0-2.12132263.58539581-.58539582 1.53592682-.58539582 2.12132263 0l5.30329895 5.30329895 5.30329895-5.30329895z"/>
  </g>
</svg>
