<svg xmlns="http://www.w3.org/2000/svg" xmlns:xlink="http://www.w3.org/1999/xlink" width="298.474" height="260.114" viewBox="0 0 298.474 260.114">
  <defs>
    <linearGradient id="linearGradient-11" x1="102.755" x2="198.991" y1="65.835" y2="65.835" gradientUnits="userSpaceOnUse">
      <stop offset="0" stop-color="rgb(0,91,234)"/>
      <stop offset="1" stop-color="rgb(0,198,251)"/>
    </linearGradient>
    <linearGradient id="linearGradient-13" x1="101.25" x2="200.497" y1="115.288" y2="115.288" gradientUnits="userSpaceOnUse">
      <stop offset="0" stop-color="rgb(0,91,234)"/>
      <stop offset="1" stop-color="rgb(0,198,251)"/>
    </linearGradient>
    <path id="path-14" fill-rule="evenodd" d="M196.01540028 87.02830538V59.8609873c0-1.26958983-1.02920399-2.29879382-2.29879382-2.29879382h-85.94305127c-1.26897196.00148666-2.29730716 1.02982186-2.29879382 2.29879382v27.17541244l9.0683639 6.98272115 1.55681225 1.19526486 8.5044579 6.54832466 6.14630555 4.72979527 13.16140408 10.13142114.88228355.67992494c.760264.5840636 1.80295856.63565966 2.61717137.1295095 2.11912096-1.31540112 4.79878067-1.32375178 6.92606073-.02158491.81414266.49602682 1.84996243.43806322 2.6036808-.1456982l1.19526487-.9281515 12.72700759-9.8508172 6.10853194-4.72979527 8.47747676-6.55102277.13760386-.10522648 10.42821376-8.07275954z"/>
    <filter id="filter-15" width="200%" height="200%" x="-50%" y="-50%" color-interpolation-filters="sRGB" filterUnits="userSpaceOnUse">
      <feOffset dx="0" dy="-3" in="SourceAlpha" result="shadow-1-feOffset-shadow"/>
      <feGaussianBlur in="shadow-1-feOffset-shadow" result="shadow-1-feGaussianBlur-shadow" stdDeviation="1.205"/>
      <feColorMatrix in="shadow-1-feGaussianBlur-shadow" result="shadow-1-feColorMatrix-shadow" type="matrix" values="0 0 0 0 0  0 0 0 0 0  0 0 0 0 0  0 0 0 0.1 0"/>
    </filter>
    <linearGradient id="linearGradient-19" x1="159.016" x2="132.348" y1="97.767" y2="254.449" gradientUnits="userSpaceOnUse">
      <stop offset="0" stop-color="rgb(0,91,234)"/>
      <stop offset="1" stop-color="rgb(0,198,251)"/>
    </linearGradient>
    <linearGradient id="linearGradient-21" x1="77.619" x2="91.785" y1="100.692" y2="100.692" gradientUnits="userSpaceOnUse">
      <stop offset="0" stop-color="rgb(0,91,234)"/>
      <stop offset="1" stop-color="rgb(0,198,251)"/>
    </linearGradient>
    <linearGradient id="linearGradient-23" x1="82.476" x2="98.8" y1="111.301" y2="111.301" gradientUnits="userSpaceOnUse">
      <stop offset="0" stop-color="rgb(0,91,234)"/>
      <stop offset="1" stop-color="rgb(0,198,251)"/>
    </linearGradient>
    <linearGradient id="linearGradient-25" x1="73.977" x2="91.785" y1="119.94" y2="119.94" gradientUnits="userSpaceOnUse">
      <stop offset="0" stop-color="rgb(0,91,234)"/>
      <stop offset="1" stop-color="rgb(0,198,251)"/>
    </linearGradient>
    <linearGradient id="linearGradient-27" x1="145.12" x2="158" y1="68.497" y2="82.777" gradientUnits="userSpaceOnUse">
      <stop offset="0" stop-color="rgb(255,118,32)"/>
      <stop offset="1" stop-color="rgb(253,186,69)"/>
    </linearGradient>
  </defs>
  <g transform="translate(0 30.05693031)">
    <path fill="rgb(0,140,255)" fill-opacity=".05" fill-rule="evenodd" d="M273.67420856 82.12130563c-1.33491861-5.35156865-6.75473003-8.60811556-12.10564619-7.27365964L204.50112471 89.0716012c4.50352216-2.31767902 6.56001302-7.64039613 4.7830354-12.38394474-1.7769432-4.74366869-6.82410256-7.4053697-11.74241467-6.1927457l-1.07399928.27385431c.67579473-.34450197 1.38923244-.61180182 2.12472803-.79740144l29.07166106-7.2476598c4.92539674-1.22826671 8.14456243-5.95572812 7.4849435-10.98837882-.65965336-5.03253061-4.9903396-8.76977513-10.0643444-8.68654874l16.07176391-4.00623246c5.35335226-1.33388734 8.61163373-6.75521572 7.27855986-12.1086856-1.33427609-5.35380943-6.75480145-8.61239865-12.10934422-7.27889167L52.21928512 65.56054494c-5.35204854 1.33413123-8.60920673 6.7545471-7.27497665 12.10656812 1.33419565 5.3521411 6.75450419 8.60922042 12.10658357 7.27496809l19.3815362-4.83160692c5.35215142-1.33423167 10.77242553 1.92296774 12.10669164 7.27499908 1.3341116 5.352117-1.92296774 10.77242553-7.27496465 12.10657156l-38.7614329 9.66420377c-3.48305635.84404356-6.24672367 3.48894455-7.2422325 6.93196133-.9951525 3.44181938-.06981889 7.15492135 2.42537605 9.72749683 2.49553926 2.57137464 6.17761335 3.61029834 9.64907276 2.7200435l18.30998083-4.56536909c-4.5209476 2.30865368-6.59078075 7.64119046-4.8108097 12.39469443 1.77950663 4.75467038 6.84241719 7.41763904 11.76808853 6.18932111l-39.81654832 10.19208122c-3.48305636.84404356-6.247068 3.49014539-7.2422325 6.93196133-.99549684 3.44302022-.06981889 7.15492135 2.42537604 9.72749683 2.4951349 2.57255826 6.17763737 3.61030523 9.64909678 2.7200504l57.06516128-14.23006616c-4.51684885 2.31112855-6.58300715 7.64082036-4.80401269 12.39274472 1.77921872 4.7506891 6.83806235 7.41379117 11.76210027 6.18890358l135.6614893-33.823385c5.16933534-1.29945203 8.40776016-6.42945685 7.35643665-11.65513054-1.05132351-5.2256737-6.0214129-8.70453937-11.29206302-7.90380452 4.6019043-2.23475637 6.7717089-7.58554137 5.02375844-12.39406248-1.74674964-4.80817678-6.84492925-7.51855643-11.80771132-6.27774743l39.81380722-10.19312714c2.57209753-.63987986 4.78259853-2.27573261 6.14729574-4.5468467 1.36593248-2.27088983 1.77173925-4.9913641 1.1300564-7.56215923z"/>
    <path fill="rgb(255,80,16)" fill-rule="evenodd" d="M273.9925232 23.42445755L268 17.42868615l5.9925232-5.99572945 5.99887084 5.99572944-5.99887085 5.99577141zm-4.40960694-5.99579048l4.40963745 4.40968895 4.40805054-4.40968895-4.40805054-4.40966034-4.40963745 4.40966034z"/>
    <path fill="rgb(255,80,16)" fill-rule="evenodd" d="M5.99252987 146.42445374L0 140.42868042l5.99252987-5.99572754 5.99897003 5.99572754-5.99897003 5.99577332zm-4.4096799-5.99580384l4.40965987 4.40969849 4.4080906-4.40969849-4.4080906-4.4096527-4.40965986 4.4096527z"/>
    <path fill="rgb(253,186,69)" fill-rule="evenodd" d="M270.75021362 180.93341064L266 176.18318176l4.75021362-4.75022888 4.75183106 4.75022888-4.75183106 4.75022888zm-3.16729736-4.75021362l3.1673584 3.16734314 3.16894531-3.16734314-3.16894531-3.16734314-3.1673584 3.16734314z"/>
    <path fill="rgb(0,140,255)" fill-rule="evenodd" d="M112.96728516 195.83383179c-2.34000397-.00003052-4.23692322-1.89698792-4.23692322-4.23698426 0-2.3400116 1.8969574-4.23698425 4.23697662-4.23698425 2.34002686 0 4.23698425 1.89697266 4.23698425 4.23698425-.00267791 2.338974-1.89812469 4.23435975-4.23703765 4.23698426zm.00022125-7.35475159c-1.7220459 0-3.11792755 1.39587402-3.11792755 3.1177826 0 1.7218933 1.39588165 3.11778259 3.11778259 3.11778259s3.11777496-1.39588929 3.11777496-3.1177826c-.00167846-1.72102356-1.39646148-3.11592102-3.11763-3.11778259z"/>
    <path fill="rgb(0,140,255)" fill-rule="evenodd" d="M136.23373413 10.90691662C133.89414978 10.90511608 131.99882507 9.0073862 132 6.66780567c.00119019-2.33960962 1.89845276-4.23543954 4.23806763-4.23484969 2.3395996.00059032 4.23590088 1.89738011 4.23590088 4.2369802-.0026703 2.34022999-1.90005494 4.23614025-4.24023438 4.23698044zm.00021362-7.35474038c-1.7216339.00177002-3.11590576 1.3984301-3.11473083 3.11991.00119018 1.72149038 1.39736938 3.11624002 3.1188507 3.1156497 1.72149659-.00058937 3.11671448-1.39628983 3.11671448-3.11777973-.00167846-1.72227001-1.39840698-3.11769986-3.12083435-3.11777997z"/>
    <path fill="rgb(0,140,255)" fill-rule="evenodd" d="M294.23690796 118.90692902C291.89691162 118.90689087 290 117.0099411 290 114.66993713c0-2.34001922 1.89697266-4.23697662 4.236969-4.23697662 2.34002685 0 4.23696899 1.8969574 4.23696899 4.23697662-.00268555 2.3389969-1.8981018 4.23438263-4.23703003 4.23699189zm.00024414-7.3547516c-1.7220459 0-3.11791992 1.39588166-3.11791992 3.1177826s1.39587402 3.11777497 3.11776733 3.11777497 3.11779785-1.39587403 3.11779785-3.11777497c-.00170898-1.72102356-1.39648437-3.11592102-3.11764526-3.1177826z"/>
    <path fill="rgb(253,186,69)" fill-rule="evenodd" d="M188.61392328 167.39428994l-3.06405338 2.57112675-.69459075-3.93923136 3.75864413 1.3681046zm-3.12843987-.61516242l.3999122 2.26802135 1.76420562-1.479988-2.16411782-.78803335z"/>
    <path fill="rgb(253,186,69)" fill-rule="evenodd" d="M25.1390934 49.34731293H16.0000038l4.56954003-7.91436005 4.56954956 7.91436005zm-7.19490051-1.1192131h5.26185035l-2.63013076-4.55675889-2.6317196 4.55675888z"/>
    <g>
      <path fill="url(#linearGradient-11)" fill-rule="evenodd" d="M102.75506163 83.16730308l45.34451762-33.64279365c1.85412004-1.37371902 4.39077844-1.36493786 6.23534334.02158492l44.65649834 33.62120873h-96.2363593z"/>
      <path fill="url(#linearGradient-13)" fill-rule="evenodd" d="M103.32951356 82.72751037H198.416969c1.14798326 0 2.08.93201675 2.08 2.08v60.96169922c0 1.14798325-.93201674 2.08-2.08 2.08h-95.08745543c-1.14798325 0-2.08-.93201675-2.08-2.08V84.80751037c0-1.14798325.93201675-2.08 2.08-2.08z"/>
      <g>
        <use fill="black" stroke="black" stroke-opacity="0" stroke-width="0" filter="url(#filter-15)" xlink:href="#path-14"/>
        <use fill="rgb(255,255,255)" xlink:href="#path-14"/>
      </g>
      <path fill="rgb(240,248,255)" fill-rule="evenodd" d="M183.22903417 90.4899867c.62542088 0 1.22522616.24844748 1.66746551.69068683.44223935.44223935.69068684 1.04204463.69068684 1.66746552v2.26102021l-.13760386.10522648h-68.53211635c-.52013688.00046062-1.02579889-.17125575-1.4380952-.48835878-.58037733-.44659446-.92033648-1.13747918-.92005715-1.86979357 0-.62542089.24844748-1.22522617.69068683-1.66746552.44223935-.44223935 1.04204463-.69068683 1.66746552-.69068683l66.31156786-.00809434z"/>
      <path fill="rgb(240,248,255)" fill-rule="evenodd" d="M171.53270643 105.99875066h-.01618869c-.412767.32071517-.92077325.4944818-1.44349142.49375501H131.5574373c-.52000352-.00034704-1.02541283-.1719776-1.4380952-.48835878h-.01618868c-.80134764-.61582813-1.12117973-1.67382654-.79518296-2.63045.32599676-.95662345 1.22533312-1.59915539 2.23597627-1.59749592h38.54257016c1.00698611.0023847 1.90161644.64322863 2.22789617 1.5958924.32627973.95266376.0123789 2.00741995-.78170663 2.6266573z"/>
      <path fill="url(#linearGradient-19)" fill-rule="evenodd" d="M197.01100465 143.46747113l-41.2811567-25.22737354-1.3490574-.82832125c-2.12727971-1.30216743-4.80693863-1.29381633-6.92606074.02158492l-1.34905741.84181182-40.62821292 25.19229805 38.4400418-26.84354432 3.38073787-2.35815235c2.33783277-1.74035427 5.54066249-1.74035427 7.87849526 0l2.9679263 2.07754841 38.86634394 27.12414826z"/>
      <path fill="url(#linearGradient-21)" fill-rule="evenodd" d="M78.51789623 99.79308658h12.36815832c.49588033 0 .89847224.40259191.89847224.89847224 0 .49588032-.40259191.89847223-.89847224.89847223H78.51789623c-.49588032 0-.89847223-.4025919-.89847223-.89847223s.4025919-.89847224.89847223-.89847224z"/>
      <path fill="url(#linearGradient-23)" fill-rule="evenodd" d="M83.3745029 110.40207404h14.52665018c.49588032 0 .89847223.40259191.89847223.89847224 0 .49588032-.4025919.89847223-.89847223.89847223H83.3745029c-.49588032 0-.89847223-.4025919-.89847223-.89847223s.4025919-.89847224.89847223-.89847224z"/>
      <path fill="url(#linearGradient-25)" fill-rule="evenodd" d="M74.87544123 119.04143769h16.01061332c.49588033 0 .89847224.4025919.89847224.89847223s-.40259191.89847224-.89847224.89847224H74.87544123c-.49588033 0-.89847224-.40259191-.89847224-.89847224 0-.49588032.40259191-.89847223.89847224-.89847223z"/>
    </g>
    <path fill="url(#linearGradient-27)" fill-rule="evenodd" d="M163.07688904 62.58021545c-2.52212525-2.52388-6.58978272-2.56412887-9.1609192-.11899948l-3.07511901 3.07513047c-1.62612915 1.70996856-2.15255737 4.08171081-1.58068848 6.22058868l6.91604615-6.91604614c1.28559875-1.222538 3.31936645-1.20241547 4.5804596.05950164 1.28208922 1.28121186 1.28204345 3.35961152 0 4.640831l-6.85600282 6.8560028c2.18978882.58509827 4.6234436.01859284 6.34085083-1.70001983l2.83532715-2.83531952c2.56417847-2.56238556 2.56417847-6.71928406.00004578-9.28166962zm-14.74542237 17.06565857c-.64056396.64105225-1.67977905.64105225-2.32038879 0-.6309967-.63054657-.64105225-1.64746093-.02981567-2.29014587l7.71749878-7.71749115c.64274597-.6112976 1.6596527-.60123444 2.2902069.029747.641037.64055634.641037 1.67977906 0 2.3203888l-7.65750122 7.65750122zm-2.44711303 4.76765442c-1.28115845 1.28208924-3.35961914 1.28208924-4.64082337 0-1.26191711-1.26103973-1.28204345-3.29486084-.05950927-4.5804596l6.91604614-6.91604613c-2.13893128-.5719223-4.5106659-.04550171-6.22058106 1.58068847l-3.07513427 3.07512665c-2.4451294 2.57112884-2.40487671 6.63878632.1190033 9.16091156 2.56237792 2.56413269 6.71928405 2.56413269 9.28166198 0l2.83532715-2.83531952c1.71855163-1.71740723 2.28511047-4.15105438 1.7000122-6.34085083l-6.8560028 6.8559494z" transform="rotate(45.000016 150.99999237 74.65685272)"/>
  </g>
</svg>
