<svg xmlns="http://www.w3.org/2000/svg" xmlns:xlink="http://www.w3.org/1999/xlink" width="56" height="56" viewBox="0 0 56 56">
  <defs>
    <rect id="rect-2" width="36" height="36" x="10" y="10"/>
    <mask id="mask-3" maskContentUnits="userSpaceOnUse" maskUnits="userSpaceOnUse">
      <rect width="56" height="56" x="0" y="0" fill="black"/>
      <use fill="white" xlink:href="#rect-2"/>
    </mask>
  </defs>
  <g>
    <path fill="rgb(219,228,255)" fill-rule="evenodd" d="M28 0c15.45362069 0 28 12.54637931 28 28S43.45362069 56 28 56 0 43.45362069 0 28 12.54637931 0 28 0z"/>
    <g>
      <use fill="none" xlink:href="#rect-2"/>
      <g mask="url(#mask-3)">
        <path fill="rgb(71,114,229)" fill-rule="evenodd" d="M12.76666641 39.7290001h6.85666657l10.4470005-.0996666v-5.8860016c0-3.29433059-2.6800003-5.97466468-5.9746666-5.97466468h-5.35433387c-3.29433346 0-5.9746666 2.6803341-5.9746666 5.97466469v5.98566818zm6.84833336-1.66666795H14.4333334v-4.31900024c.00275516-2.37809944 1.92990017-4.30524254 4.3079996-4.30799866h5.35433389c2.37809944.00275612 4.30524444 1.92989922 4.30800056 4.30799866v4.2353363l-8.78866768.08366394z"/>
        <path fill="rgb(71,114,229)" fill-rule="evenodd" d="M16.29335594 22.51764297c.48628044 2.44527436 2.63215065 4.20653725 5.1253109 4.20668984 1.38624573.00063515 2.71583557-.55005264 3.69566727-1.53066635 1.7629261-1.76293373 2.03504943-4.52567673.64995193-6.5986824-1.38509369-2.07300568-4.04165268-2.87892724-6.34505844-1.92490578-2.30340767.95402336-3.61215115 3.40228653-3.12587166 5.8475647zm1.63350678-1.71479797c.33148002-1.66570663 1.79343414-2.86530495 3.49180412-2.86517715.94428253-.00022316 1.84991074.37500381 2.51733208 1.04299926 1.20078659 1.2010727 1.38593483 3.0831089.44221878 4.49514962-.94371605 1.4120407-2.75346566 1.96081924-4.3224907 1.31072807-1.56902694-.65008926-2.4603424-2.31799316-2.12886428-3.9836998z"/>
        <path fill="rgb(71,114,229)" fill-rule="evenodd" d="M42.4 26.326h-8.01366667c-.46023729 0-.83333333-.37309604-.83333333-.83333333 0-.4602373.37309604-.83333334.83333333-.83333334H42.4c.4602373 0 .83333333.37309605.83333333.83333334S42.8602373 26.326 42.4 26.326z"/>
        <path fill="rgb(71,114,229)" fill-rule="evenodd" d="M42.4 32.90666667h-8.01366667c-.46023729 0-.83333333-.37309605-.83333333-.83333334S33.92609604 31.24 34.38633333 31.24H42.4c.4602373 0 .83333333.37309604.83333333.83333333 0 .4602373-.37309604.83333334-.83333333.83333334z"/>
        <path fill="rgb(71,114,229)" fill-rule="evenodd" d="M42.4 39.48733333h-8.01366667c-.46023729 0-.83333333-.37309604-.83333333-.83333333 0-.4602373.37309604-.83333333.83333333-.83333333H42.4c.4602373 0 .83333333.37309604.83333333.83333333 0 .4602373-.37309604.83333333-.83333333.83333333z"/>
      </g>
    </g>
  </g>
</svg>
