<svg xmlns="http://www.w3.org/2000/svg" xmlns:xlink="http://www.w3.org/1999/xlink" width="56" height="56" viewBox="0 0 56 56">
  <defs>
    <path id="path-2" fill-rule="evenodd" d="M26.2659378 24.57590485c-2.9996643-.00003243-5.58158302-2.1190033-6.16675949-5.06103516-.58517646-2.94203186.98936844-5.88773155 3.76070786-7.03562927 2.77133942-1.14789677 5.96761703-.17828655 7.63412094 2.31585693 1.6665039 2.49414444 1.33908844 5.81816864-.78200912 7.93923569-1.17891312 1.17954254-2.77837754 1.84204674-4.44606018 1.8415718zm10.9221573 16.28621673l-13.3527794.12726975h-8.48457908v-7.31412506c.00460243-4.03047944 3.27182007-7.29614258 7.3023014-7.29882431h7.23275567c4.03183937.00268554 7.29961586 3.27046394 7.3023014 7.3022995v7.18338012z"/>
    <mask id="mask-3" x="0" y="0" maskContentUnits="userSpaceOnUse" maskUnits="userSpaceOnUse">
      <rect width="56" height="56" x="0" y="0" fill="black"/>
      <use fill="white" xlink:href="#path-2"/>
    </mask>
  </defs>
  <g>
    <path fill="rgb(236,235,255)" fill-rule="evenodd" d="M28 0c15.45362069 0 28 12.54637931 28 28S43.45362069 56 28 56 0 43.45362069 0 28 12.54637931 0 28 0z"/>
    <g>
      <use fill-opacity="0" stroke="rgb(140,132,243)" stroke-linecap="butt" stroke-linejoin="miter" stroke-width="2.4" mask="url(#mask-3)" xlink:href="#path-2"/>
      <path fill="rgb(236,235,255)" fill-rule="evenodd" d="M33.25229263 43.9999733c-3.52882194-.0000229-6.56621551-2.49277878-7.25463295-5.9538002-.68841743-3.46101761 1.16387368-6.926363 4.42408562-8.27676583 3.26021576-1.35040283 7.02033615-.20976066 8.98082733 2.7243557 1.960495 2.93412018 1.57533264 6.84452057-.9199295 9.33976364-1.38419342 1.39163208-3.26754761 2.17173004-5.2303505 2.16644669z"/>
      <g>
        <path fill="rgb(140,132,243)" fill-rule="evenodd" d="M30.23196793 41.98558807h7.77073669v-.00051117c.65815353.00024414 1.24689865-.40922927 1.47567368-1.0263443.22877884-.6171112.04922485-1.311409-.45003891-1.74024581-.01852799-.01646805-.03808213-.03242112-.05866623-.04734421-.51205445-.45886994-.80518341-1.11358643-.80640793-1.80116272v-.51461792c.00001144-.03437424-.00170517-.06872559-.00514603-.10292435.01646805-1.6467781-.4374237-2.91068268-1.33491897-3.74487686-.89749527-.834198-1.97407532-.98189163-2.54427338-.9947586-.04940414-.00411606-.1013794-.00411606-.16262055-.00411606-2.23280906.003685-4.04178237 1.81311798-4.04489898 4.04592895v1.31124878c.00014686.68732834-.29213906 1.34225845-.80383301 1.80116272-.03242111.02573013-.06175423.05146027-.06175423.05146027-.4991455.42906189-.67853737 1.12343978-.44967842 1.7405777.22886086.61714172.81761933 1.0266571 1.47582627 1.02652358zm-.2761898-1.4697647c-.04372598-.11357499-.01358796-.2423401.07600402-.32470704l.02161407-.01389694.03036309-.0267601c.80095863-.70153809 1.26077842-1.71419144 1.26184273-2.7789383v-1.31433486c.00141906-1.5285759 1.24006843-2.76745987 2.76864814-2.76916123.02573014 0 .06329727.00257492.09931946.00257492h.02573013c.3849373.00771714 1.11878205.10240555 1.71213532.65356446.63401031.5892372.94586944 1.5423088.9263153 2.83348846v.05146027l.00668717.04322815v.49660873c.00086975 1.0654869.46089172 2.07891464 1.26235962 2.78099442l.02882004.02521896.02315521.01595306c.09072495.08192826.12160873.21127701.07769012.32535553-.0439186.11408234-.1535759.18932343-.27581787.1892624H30.2299099c-.12169838-.00102616-.2304039-.0763321-.27413178-.1899109z"/>
        <path fill="rgb(140,132,243)" fill-rule="evenodd" d="M35.7944779 41.34540372c2e-8.5990009-.31956315 1.15250057-.83831314 1.45200103-.51875.29950045-1.15787635.29950045-1.67662635 0-.51875-.29950046-.83831316-.85300012-.83831315-1.45200102"/>
        <path fill="rgb(140,132,243)" fill-rule="evenodd" d="M34.11785158 43.66067131c-1.2789712 0-2.3157822-1.036811-2.3157822-2.3157822h1.27779716c0 .5729791.46449133 1.03747043 1.03747042 1.03747043.5729791 0 1.03747043-.46449134 1.03747043-1.03747043h1.27779716c1.3e-7 1.27856936-1.03618373 2.31521395-2.31475297 2.3157822z"/>
      </g>
    </g>
  </g>
</svg>
