<svg xmlns="http://www.w3.org/2000/svg" xmlns:xlink="http://www.w3.org/1999/xlink" width="64" height="64" viewBox="0 0 64 64">
  <defs>
    <rect id="rect-2" width="40" height="40" x="12" y="12"/>
    <mask id="mask-3" maskContentUnits="userSpaceOnUse" maskUnits="userSpaceOnUse">
      <rect width="64" height="64" x="0" y="0" fill="black"/>
      <use fill="white" xlink:href="#rect-2"/>
    </mask>
  </defs>
  <g>
    <g opacity=".15">
      <path fill="rgb(232,52,111)" fill-rule="evenodd" d="M32 0c17.66128078 0 32 14.33871922 32 32S49.66128078 64 32 64 0 49.66128078 0 32 14.33871922 0 32 0z"/>
    </g>
    <g>
      <use fill="none" xlink:href="#rect-2"/>
      <g mask="url(#mask-3)">
        <path fill="rgb(232,52,111)" fill-rule="evenodd" d="M20.50778198 23.31965058c0 3.44702149 2.80407715 6.2512207 6.25112915 6.2512207 3.44702149 0 6.25109864-2.80419921 6.25109864-6.2512207 0-3.44702148-2.80407715-6.25146484-6.25109864-6.25146484-3.447052 0-6.25112915 2.80444336-6.25112915 6.25146484zm1.48147583 0c0-2.63012695 2.14001465-4.77001953 4.76965332-4.77001953 2.63000489 0 4.76959229 2.13989258 4.76959229 4.77001953 0 1.70410157-.90905762 3.27856446-2.38482666 4.13061524-1.47570801.85205078-3.29388428.85205078-4.76959229 0-1.47573852-.85205078-2.38482666-2.42651367-2.38482666-4.13061524z"/>
        <path fill="rgb(232,52,111)" fill-rule="evenodd" d="M34.07409668 23.31842988c0 2.73706055 2.22705078 4.96313477 4.96295166 4.96313477C41.7744751 28.28156465 44 26.05549043 44 23.31842988s-2.22589111-4.96289062-4.96295166-4.96289062c-2.73699951 0-4.96295166 2.22583007-4.96295166 4.96289062zm1.48144531.00219727c0-1.92285157 1.55871582-3.48144532 3.48150635-3.48144532 1.92218018.00146485 3.4800415 1.55932618 3.48144531 3.48144532 0 1.92285156-1.55871582 3.4814453-3.48144531 3.4814453-1.92279053 0-3.48150635-1.55859374-3.48150635-3.4814453z"/>
        <path fill="rgb(232,52,111)" fill-rule="evenodd" d="M39.77777778 44.11481481H38.2962963c0-6.09481481-4.95851852-11.05333333-11.05296297-11.05333333-6.09444444 0-11.05185185 4.95851852-11.05185185 11.05333333H14.71c.0034909-5.96201892 4.20497797-11.09698395 10.04828783-12.28079627 5.84330987-1.18381233 11.71208824 1.91098974 14.03578624 7.40153702.65278415 1.54368801.98736238 3.2032263.9837037 4.87925925z"/>
        <path fill="rgb(232,52,111)" fill-rule="evenodd" d="M50.66666667 44.11481481h-1.48148148c0-6.09481481-4.95851852-11.05333333-11.05296297-11.05333333-1.91502927-.0007537-3.7973944.49609676-5.46259259 1.44185185l-.73333333-1.28703703c3.88010833-2.2090052 8.64251296-2.18656112 12.50162837.0589172 3.85911542 2.24547834 6.23190949 6.37474581 6.228742 10.83960131z"/>
      </g>
    </g>
  </g>
</svg>
