<svg xmlns="http://www.w3.org/2000/svg" xmlns:xlink="http://www.w3.org/1999/xlink" width="56" height="56" viewBox="0 0 56 56">
  <defs>
    <rect id="rect-2" width="36" height="36" x="10" y="10"/>
    <mask id="mask-3" maskContentUnits="userSpaceOnUse" maskUnits="userSpaceOnUse">
      <rect width="56" height="56" x="0" y="0" fill="black"/>
      <use fill="white" xlink:href="#rect-2"/>
    </mask>
  </defs>
  <g>
    <path fill="rgb(255,238,227)" fill-rule="evenodd" d="M28 0c15.45362069 0 28 12.54637931 28 28S43.45362069 56 28 56 0 43.45362069 0 28 12.54637931 0 28 0z"/>
    <g>
      <use fill="none" xlink:href="#rect-2"/>
      <g mask="url(#mask-3)">
        <path fill="rgb(255,133,56)" fill-rule="evenodd" d="M17.65699959 20.18766785c0 3.10233307 2.52366638 5.62599945 5.62599945 5.62599945 3.10233497 0 5.62600136-2.52366638 5.62600136-5.62599945 0-3.10233498-2.52366639-5.6263342-5.62600136-5.6263342-3.10233307 0-5.62599945 2.52399922-5.62599945 5.6263342zm1.33333397 0c0-2.36700058 1.9260006-4.29300118 4.29266739-4.29300118 2.36699867 0 4.29266738 1.9260006 4.29266738 4.29300118 0 1.53362083-.81818008 2.95074653-2.1463356 3.717556-1.32815551.76681137-2.96450996.76681137-4.29266548 0-1.32815552-.76680947-2.1463337-2.18393517-2.1463337-3.717556z"/>
        <path fill="rgb(255,133,56)" fill-rule="evenodd" d="M29.8666668 20.18666649c0 2.46333313 2.00433349 4.46666717 4.46666526 4.46666717 2.46366883 0 4.46666718-2.00333404 4.46666718-4.46666717s-2.00333405-4.46666622-4.46666718-4.46666622c-2.46333122 0-4.46666527 2.00333309-4.46666527 4.46666622zm1.33333396.0020008c0-1.73049163 1.40283966-3.1333332 3.13333512-3.1333332 1.72995758.00128746 3.13204574 1.40337372 3.1333313 3.1333332 0 1.73049165-1.40283967 3.13333321-3.1333313 3.13333321-1.73049546 0-3.13333512-1.40284156-3.13333512-3.1333332z"/>
        <path fill="rgb(255,133,56)" fill-rule="evenodd" d="M35 38.90333333h-1.33333333c0-5.48533333-4.46266667-9.948-9.94766667-9.948s-9.94666667 4.46266667-9.94666667 9.948H12.439c.00314182-5.36581703 3.78448017-9.98728555 9.04345905-11.05271665 5.25897888-1.0654311 10.5408794 1.71989077 12.63220762 6.66138332.58750573 1.38931922.88862614 2.88290368.88533333 4.39133333z"/>
        <path fill="rgb(255,133,56)" fill-rule="evenodd" d="M44.8 38.90333333h-1.33333333c0-5.48533333-4.46266667-9.948-9.94766667-9.948-1.72352634-.00067833-3.41765497.44648709-4.91633333 1.29766667l-.66-1.15833333c3.4920975-1.98810469 7.77826167-1.96790501 11.25146554.05302548 3.47320387 2.0209305 5.60871853 5.73727123 5.60586779 9.75564118z"/>
      </g>
    </g>
  </g>
</svg>
