<svg xmlns="http://www.w3.org/2000/svg" xmlns:xlink="http://www.w3.org/1999/xlink" width="32" height="32" viewBox="0 0 32 32">
  <defs>
    <rect id="rect-2" width="20" height="20" x="6" y="6"/>
    <mask id="mask-3" maskContentUnits="userSpaceOnUse" maskUnits="userSpaceOnUse">
      <rect width="32" height="32" x="0" y="0" fill="black"/>
      <use fill="white" xlink:href="#rect-2"/>
    </mask>
  </defs>
  <g>
    <g opacity=".15">
      <ellipse cx="16" cy="16" fill="rgb(253,186,69)" rx="16" ry="16"/>
    </g>
    <g>
      <use fill="none" xlink:href="#rect-2"/>
      <g mask="url(#mask-3)">
        <path fill="rgb(253,186,69)" fill-rule="evenodd" d="M16.1015625 24.8125c-1.53125 0-3.0390625-.40234375-4.3984375-1.1875-2.0390625-1.18359375-3.49609375-3.0859375-4.1015625-5.36328125-.609375-2.2890625-.29296875-4.66796875.89453125-6.703125 1.18359375-2.03515625 3.1015625-3.484375 5.390625-4.08203125 1.53515625-.40234375 3.1484375-.3828125 4.66796875.05859375.18359375.0546875.328125.1953125.38671875.37890625.0546875.18359375.015625.37890625-.10546875.52734375-1.68359375 2.015625-2.28125 4.73046875-1.60546875 7.26171875s2.55078125 4.58203125 5.015625 5.48828125c.1796875.06640625.3125.21484375.35546875.40234375s-.01171875.3828125-.14453125.5234375c-1.109375 1.1484375-2.51171875 1.9765625-4.0625 2.390625-.76171875.203125-1.53125.3046875-2.29296875.3046875zM14.078125 8.1953125c.671875-.17578125 1.35546875-.26171875 2.04296875-.26171875.6640625 0 1.32421875.08203125 1.9765625.2421875-1.70703125 2.17578125-2.296875 5.0390625-1.58203125 7.71484375.71875 2.67578125 2.66015625 4.859375 5.22265625 5.89453125-.984375.95703125-2.203125 1.6484375-3.53515625 2.00390625-2.08203125.5546875-4.2578125.26953125-6.125-.8125-1.8671875-1.078125-3.19921875-2.8203125-3.75390625-4.90625-.55859375-2.09375-.26953125-4.2734375.81640625-6.13671875s2.83984375-3.19140625 4.9375-3.73828125zm5.84375 2.99609375c.13866806.14117432.32453156.21728516.52397156.253479l-.01615906.0043335 2.78125 8.921875 1.5546875-.41796875-2.08203125-9.10546875-.03826904.01019287c.15205383-.13006592.27322006-.28735351.32342529-.47503662.11328125-.42578125-.1796875-.88671875-.953125-1.5-.4765625-.37890625-.96484375-.67578125-.984375-.6875l-.33203125-.19921875-.1875.3359375C20.5 8.3515625 20.22265625 8.8515625 20 9.41796875c-.36328125.9140625-.38671875 1.4609375-.078125 1.7734375zm1.48046875-.55078125c-.51171875.13671875-.859375.08984375-.9453125.03515625-.01171875-.05078125-.046875-.3125.265625-1.06640625.0859375-.20703125.17578125-.40625.25390625-.5625.14453125.09765625.32421875.22265625.5.359375.6484375.5.74609375.7421875.76171875.79296875-.046875.09375-.32421875.3046875-.8359375.44140625zm-7.671875 2.1875c-.71875 0-1.37890625-.48046875-1.57421875-1.20703125-.23046875-.8671875.28515625-1.76171875 1.15234375-1.99609375.421875-.11328125.859375-.0546875 1.23828125.1640625s.64453125.5703125.7578125.98828125c.23046875.8671875-.28515625 1.76171875-1.15234375 1.99609375-.140625.0390625-.28125.0546875-.421875.0546875zm-.2265625-2.484375c.07421875-.01953125.15234375-.03125.23046875-.03125.15234375 0 .3046875.0390625.44140625.12109375.20703125.1171875.3515625.30859375.4140625.5390625.05859375.2265625.02734375.46484375-.08984375.671875s-.30859375.3515625-.5390625.4140625c-.47265625.125-.9609375-.15625-1.0859375-.62890625s.15625-.9609375.62890625-1.0859375zm10.203125 9.12890625L21.3671875 11.96875l.765625-.20703125 1.75390625 7.6640625-.1796875.046875zm-12.703125-2.58203125c-.28125 0-.5625-.07421875-.8125-.21875-.375-.21875-.64453125-.5703125-.7578125-.98828125C9.203125 14.81640625 9.71875 13.921875 10.5859375 13.6875c.8671875-.23046875 1.76171875.28515625 1.99609375 1.15234375.23046875.8671875-.28515625 1.76171875-1.15234375 1.99609375-.140625.0390625-.28515625.0546875-.42578125.0546875zm-.2265625-2.484375c.078125-.01953125.15625-.03125.23046875-.03125.390625 0 .75.26171875.85546875.66015625.05859375.2265625.02734375.46484375-.08984375.671875s-.30859375.3515625-.5390625.4140625c-.2265625.05859375-.46484375.02734375-.671875-.08984375s-.3515625-.30859375-.4140625-.5390625c-.125-.47265625.15625-.9609375.62890625-1.0859375zm1.4453125 7.08203125c-.71875 0-1.37890625-.48046875-1.57421875-1.20703125-.11328125-.421875-.0546875-.859375.1640625-1.23828125s.5703125-.64453125.98828125-.7578125c.421875-.11328125.859375-.0546875 1.23828125.1640625.375.21875.64453125.5703125.7578125.98828125.11328125.421875.0546875.859375-.1640625 1.23828125s-.5703125.64453125-.98828125.7578125c-.140625.03515625-.28125.0546875-.421875.0546875zM11.9921875 19c.07421875-.01953125.15234375-.03125.23046875-.03125.15625 0 .30859375.04296875.44140625.12109375.20703125.1171875.3515625.30859375.4140625.5390625.05859375.2265625.02734375.46484375-.08984375.671875s-.30859375.3515625-.5390625.4140625c-.47265625.125-.9609375-.15625-1.0859375-.62890625-.05859375-.2265625-.02734375-.46484375.08984375-.671875S11.76171875 19.0625 11.9921875 19zm4.84375 4.19921875c-.71875 0-1.37890625-.48046875-1.57421875-1.20703125-.11328125-.421875-.0546875-.859375.1640625-1.23828125.21875-.375.5703125-.64453125.98828125-.7578125.8671875-.23046875 1.76171875.28515625 1.99609375 1.15234375.11328125.421875.0546875.859375-.1640625 1.23828125-.21875.375-.5703125.64453125-.98828125.7578125-.140625.03515625-.28125.0546875-.421875.0546875zm-.23046875-2.48828125c.078125-.01953125.15625-.03125.23046875-.03125.390625 0 .75.26171875.85546875.66015625.05859375.2265625.02734375.46484375-.08984375.671875s-.30859375.3515625-.5390625.4140625c-.47265625.125-.9609375-.15625-1.0859375-.62890625-.05859375-.2265625-.02734375-.46484375.08984375-.671875s.30859375-.3515625.5390625-.4140625z"/>
      </g>
    </g>
  </g>
</svg>
