<svg id="Layer_1" data-name="Layer 1" xmlns="http://www.w3.org/2000/svg" viewBox="0 0 64 64"><defs><style>.cls-1{fill:#fff3df;}.cls-1,.cls-3{fill-rule:evenodd;}.cls-2,.cls-3{fill:#fdba45;}</style></defs><title>dating--gambling---icon-instance</title><path class="cls-1" d="M3,32A29,29,0,1,1,32,61,29,29,0,0,1,3,32Z"/><path class="cls-2" d="M30.3,43.7a2.3,2.3,0,0,1-1.4-.4,52.88,52.88,0,0,1-7.5-5.7h0l-.4-.3c-3.5-3.4-5.2-6.7-5.2-10.1,0-4.9,3.5-8.8,7.9-8.8a9.91,9.91,0,0,1,6.7,2.8A9.93,9.93,0,0,1,37,18.4a12.25,12.25,0,0,1,1.9.2c4.3,1.1,6.7,4.1,6.6,8.5a1.24,1.24,0,0,1-1.3,1.2h0A1.24,1.24,0,0,1,43,27c0-3.3-1.5-5.3-4.7-6.1a5,5,0,0,0-1.2-.2h0a6.83,6.83,0,0,0-5.6,2.9l-1,1.4-1-1.4a7,7,0,0,0-5.7-2.9c-3.1,0-5.4,2.7-5.4,6.3,0,2.6,1.4,5.3,4.3,8.2l.1.1a53.5,53.5,0,0,0,7.5,5.8h.1a1.23,1.23,0,1,1,1.3,2.1A1.87,1.87,0,0,1,30.3,43.7Z"/><path class="cls-2" d="M48,47.5H35.2a1,1,0,0,1-.4-.1l-.4-.2a.75.75,0,0,1-.3-.3l-.3-.3-.2-.4a1,1,0,0,1-.1-.4V33h0a1,1,0,0,1,.1-.4l.2-.4a.75.75,0,0,1,.3-.3l.3-.3.4-.2a1,1,0,0,1,.4-.1H48.4a1,1,0,0,1,.4.1l.4.2h0a.75.75,0,0,1,.3.3l.3.3c0,.1.1.2.2.4s.1.2.1.4V45.8c0,.1-.1.2-.1.4s-.1.2-.2.4-.1.2-.3.3l-.3.3c-.1,0-.2.1-.4.2a1,1,0,0,1-.4.1ZM35.8,33.6V45.1H47.7V33.6ZM48,45Zm-.3-11.7Z"/><path class="cls-3" d="M38.6,36.8a1.1,1.1,0,1,0,1.1-1.1A1.11,1.11,0,0,0,38.6,36.8Zm4.4,0a1.1,1.1,0,1,0,1.1-1.1A1.11,1.11,0,0,0,43,36.8Zm-3.3,5.3A1.1,1.1,0,1,1,40.8,41,1.11,1.11,0,0,1,39.7,42.1Zm3.3-1a1.1,1.1,0,0,0,2.2,0,1,1,0,0,0-1-1.1A1.13,1.13,0,0,0,43,41.1Z"/></svg>