<svg xmlns="http://www.w3.org/2000/svg" xmlns:xlink="http://www.w3.org/1999/xlink" width="56" height="55.624" viewBox="0 0 56 55.624">
  <defs>
    <rect id="rect-2" width="36" height="36" x="10" y="9.812"/>
    <mask id="mask-3" maskContentUnits="userSpaceOnUse" maskUnits="userSpaceOnUse">
      <rect width="56" height="55.624" x="0" y="0" fill="black"/>
      <use fill="white" xlink:href="#rect-2"/>
    </mask>
  </defs>
  <g>
    <path fill="rgb(255,238,227)" fill-rule="evenodd" d="M27.81184742 0h.37630516C43.53792903 0 56 12.46207097 56 27.81184742S43.53792903 55.62369484 28.18815258 55.62369484h-.37630516C12.46207097 55.62369484 0 43.16162387 0 27.81184742S12.46207097 0 27.81184742 0z"/>
    <g>
      <use fill="none" xlink:href="#rect-2"/>
      <g mask="url(#mask-3)">
        <path fill="rgb(255,133,56)" fill-rule="evenodd" d="M24.82749939 45.08270931h6.350626c1.08664893.00849152 2.01099967-.79038238 2.16000175-1.8667984l.4921875-3.4453125c.55477523-.27425384 1.08995056-.58647919 1.60171508-.93445587L38.6804657 40.14466H38.6875c.25484085.09923553.52597046.15003204.79945374.14976501.78438568.00292969 1.508255-.4210968 1.88929748-1.10671997l3.17742157-5.50195313.0077324-.01406097c.52012252-.9364357.28764724-2.11158752-.54984284-2.77945328l-2.74711228-2.1480484c.02672196-.33116913.0393753-.6328125.0393753-.93375015 0-.30093384-.01265334-.61101532-.03866958-.93374634l2.74851608-2.14804745c.83789826-.67311477 1.06682206-1.85310363.54140473-2.79070472l-3.1717949-5.48859406c-.52242278-.9464054-1.65164184-1.3556242-2.6880455-.9731245l-3.25898742 1.30781269c-.51309204-.3485527-1.05021668-.66034699-1.60734558-.93304634l-.4921875-3.43054772c-.14368057-1.0823965-1.06952667-1.88927364-2.16140366-1.88367176h-6.35062408c-1.0866661-.00760364-2.01024628.79229164-2.15789032 1.86890602l-.4921875 3.44531346c-.5546875.2734661-1.08965492.5852375-1.601017.93304634l-3.25195313-1.30570316h-.0084381c-.99703026-.3860159-2.17546845.03515625-2.68453026.95906162l-3.1640625 5.4766426c-.54863549.94200135-.3215313 2.14403344.53296852 2.82093621l2.7421875 2.1452341c-.02671814.33328248-.04007817.64125062-.04007817.93164063 0 .29039002.01336003.59835816.04007817.93304825l-2.7499218 2.14945221c-.8369093.67385864-1.06488037 1.85354614-.5392971 2.79070282l3.175313 5.48859406c.53085898.95906066 1.63195323 1.35913848 2.68664073.97312164l3.25687408-1.30851364c.51268197.34783554 1.04906846.65937805 1.60523606.93234634l.4921875 3.42984009c.14487839 1.08126068 1.0697937 1.88698578 2.16070175 1.88227081zm-3.75609207-7.60922241l-.31359482-.2264061-3.94242096 1.58203125c-.44929695.16031266-.80789185-.054142-.96398544-.33961105l-3.17039013-5.484375c-.19124985-.35788727-.1174221-.77132416.17859363-1.00546646l3.35460854-2.62265778-.04007721-.38671875c-.09094048-.7825203-.09094048-1.57294464 0-2.35546875l.04007721-.3867178-3.3482809-2.6184368c-.30417348-.24054147-.38536168-.66805459-.19054604-1.00335885l3.17460918-5.4921093.00914002-.0154705c.17086029-.31007767.60046959-.46054459.94429779-.32976532l3.95437431 1.58835983.31710815-.22218704c.63734627-.46079636 1.31871033-.85741425 2.03414154-1.18406296l.3515625-.15890503.60257721-4.20820427v-.01335907c.04429818-.36140632.37968827-.64265632.76289177-.64265632h6.34921837c.38337708-.00565148.7112751.27437114.7657032.65390586l.60328102 4.20820427.3515625.15820313c.71631623.32424354 1.39805985.72000122 2.03484345 1.18124962l.31359482.2264061 3.94312668-1.58273507c.44929504-.16171836.80718612.05343819.96327972.33961106l3.17039108 5.484375c.19124985.35788917.1167183.77132797-.1792984 1.00546646l-3.35671615 2.62406349.04218673.38882923c.04459763.39008713.06806946.78229904.0703125 1.17491913-.00276184.39330673-.02623367.78619385-.0703125 1.17703247l-.04078293.38812637 3.34968567 2.61914063c.296875.2417717.37775422.66156387.19195557.99632645l-3.17742157 5.50054931-.00843811.01476288c-.13491058.23688507-.38692474.38277435-.65953064.3817978-.09624481-.00030519-.1916008-.01842118-.28125-.05343629l-3.95578003-1.58836365-.31289291.22359467c-.63817215.46068573-1.31994248.85773468-2.03554535 1.18547058l-.3515625.15890503-.60328102 4.20609283v.01335907c-.04500008.36140824-.38039208.64265824-.76429749.64265824H24.8282032c-.3841877.00582504-.71253013-.27547837-.7657032-.6560173l-.60468674-4.20679474-.3515625-.15890503c-.7160244-.32481385-1.39770889-.72054291-2.03484344-1.18125153zM28 36.14668941c-4.60302353-.00077438-8.33395576-3.73275756-8.33343887-8.33577728.0005188-4.60302639 3.73228836-8.33416652 8.33531189-8.33390713 4.60302353.0002575 8.33437729 3.73181916 8.33437729 8.33484173C36.3308258 32.41335201 32.60150909 36.14204311 28 36.14668941zm-6.92718887-8.33390426C21.07229423 23.98641015 24.17362595 20.88402939 28 20.8832531c3.82533836.00348663 6.92573547 3.10325622 6.9300003 6.92859363 0 3.82637406-3.10175323 6.92833329-6.92812538 6.92859268-3.82637405.0002594-6.928545-3.10128402-6.9290638-6.92765426z"/>
        <path fill="rgb(255,133,56)" fill-rule="evenodd" d="M23.50984383 29.17802048c.23014068.40999222.56686973.75012207.97453117.984375.85779953.47810936 1.9019661.47810936 2.75976563 0 .4075737-.23412895.74410438-.57430268.97382736-.984375.47340774-.85126686.47340774-1.8867035 0-2.73797035-.22972298-.41007233-.56625367-.75024796-.97382736-.984375-.85779954-.47810936-1.9019661-.47810936-2.75976563 0-.40766144.23425102-.74439049.57438087-.97453117.984375-.47340775.85126686-.47340775 1.88670349 0 2.73797035zm3.85734367-.44156266c-.14603996.2650013-.36296463.48411751-.62648392.6328125h.00281143c-.268507.1504879-.57182502.2278328-.87960815.22429657-.30554962.00349427-.60658836-.07388877-.87257767-.22429657-.26236152-.1490345-.47806549-.3681469-.62296867-.6328125-.30469513-.58074188-.30469513-1.27410125 0-1.85484313.14490318-.2646656.36060715-.483778.62296867-.6328125.2659893-.1504078.56702805-.22779084.87257767-.22429848.30683327-.00304222.6091175.0742855.87679672.22429848.26351929.14869499.48044396.3678112.62648392.6328125.3037281.58097839.3037281 1.27386283 0 1.85484313z"/>
        <path fill="rgb(255,133,56)" fill-rule="evenodd" d="M29.86539062 30.1370818c-.35811161-.27053187-.6157017-.65283416-.73195312-1.08632813l.92039062-.3628125c.05803412.25039328.18605738.47912817.36914063.65953125.17625738.16486244.41056262.2533272.65179687.24609375.19840195.00571296.3935406-.05137679.55757813-.163125.1504723-.10030456.23827025-.27137756.23203125-.45210937.00424796-.18393502-.07736067-.35936758-.22078125-.47460938 0 0-.22148438-.18421875-.78609375-.39515625l-.31851563-.1153125c-.3210322-.10982316-.61241122-.29220573-.85148437-.53296875-.2366448-.23927036-.3649641-.56502353-.35507813-.90140625-.00228244-.26149664.07096144-.51809434.2109375-.73898437.14533003-.22693986.35108935-.40883597.59414063-.52523438.27061384-.13128642.56832663-.19704337.8690625-.19195312 0 0 .703125 0 1.108125.32976562.25579826.19937976.4492601.46773791.55757812.7734375l-.86132812.36210938c-.05301944-.1583716-.1506898-.29804021-.28125-.4021875-.14572267-.1125596-.32649554-.17007825-.51046875-.16242188-.18642638-.00788277-.37048226.04410624-.52523438.14835938-.13059687.08531816-.20856218.23143683-.20671875.38742187.00010373.15476625.07238502.30062884.19546875.39445313 0 0 .19617188.16382812.64476563.315l.32625.10898437s.67289062.23203125 1.0321875.61171875c0 0 .35929687.3796875.35859375.99632813.0095437.30703468-.08211473.60869223-.26085938.85851562-.1717079.23249549-.40329993.4140267-.67007812.52523438-.26663753.11427059-.55365823.17334902-.84375.17367187-.43296674.00699007-.85620831-.12865478-1.20445313-.38601562z"/>
      </g>
    </g>
  </g>
</svg>
