<svg xmlns="http://www.w3.org/2000/svg" xmlns:xlink="http://www.w3.org/1999/xlink" width="41.5" height="41.221" viewBox="0 0 41.5 41.221">
  <defs>
    <rect id="rect-2" width="24" height="24" x="8.75" y="8.611"/>
    <mask id="mask-3" maskContentUnits="userSpaceOnUse" maskUnits="userSpaceOnUse">
      <rect width="41.5" height="41.221" x="0" y="0" fill="black"/>
      <use fill="white" xlink:href="#rect-2"/>
    </mask>
  </defs>
  <g>
    <path fill="rgb(255,238,227)" fill-rule="evenodd" d="M20.6105655 0h.278869C32.26471526 0 41.5 9.23528474 41.5 20.6105655c0 11.37528076-9.23528474 20.6105655-20.6105655 20.6105655h-.278869C9.23528474 41.221131 0 31.98584626 0 20.6105655 0 9.23528474 9.23528474 0 20.6105655 0z"/>
    <g>
      <use fill="none" xlink:href="#rect-2"/>
      <g mask="url(#mask-3)">
        <path fill="rgb(255,133,56)" fill-rule="evenodd" d="M18.63500023 32.12447262h4.23374939c.7244339.005661 1.34066582-.52692032 1.44000053-1.24453354l.328125-2.296875c.36985016-.18283081.72663689-.39098358 1.06781197-.62296677l2.16562462.87234497H27.875c.16989517.0661583.35064697.10001755.53296852.09984208.52292252.00195312 1.0055027-.2807312 1.25953102-.73781205l2.11828232-3.6679697.00515556-.00937462c.34674645-.62429047.19176484-1.40772629-.36656189-1.85297012L29.592968 21.23212814c.01781273-.22078132.02625084-.421875.02625084-.62250137 0-.20062256-.00843811-.40734291-.02578164-.62249756l1.83234406-1.43203354c.55859947-.44874191.71121216-1.23540115.36093712-1.8604679l-2.11453056-3.6590624c-.34828187-.63093757-1.1010952-.90375041-1.79203225-.64874935l-2.1726551.87187386c-.3420639-.23236752-.70014572-.44023037-1.07156372-.62203026l-.328125-2.28703117c-.09578705-.72159863-.71301842-1.25951672-1.44093705-1.25578213h-4.23374938c-.72444344-.00506878-1.34016419.52819443-1.43859482 1.2459383l-.328125 2.296875c-.36979103.18231106-.72643471.3901577-1.06734276.62203026l-2.16796875-.87046814h-.00562477c-.66468811-.2573433-1.45031357.0234375-1.78968811.63937473l-2.109375 3.65109349c-.365757.62800216-.21435452 1.42935753.35531234 1.88062477l1.828125 1.4301567c-.01781272.22218705-.02671813.42750168-.02671813.62109376 0 .19359397.0089054.3989067.02671813.62203216l-1.83328151 1.43296814c-.55793953.44923973-.70991993 1.2356968-.35953045 1.86046982l2.1168747 3.65906048c.35390663.6393776 1.08796882.9060936 1.79109382.6487503l2.17124939-.87234497c.34178734.23189163.69937897.43958664 1.0701561.62156296l.328125 2.28656387c.09658813.72083664.7131958 1.25798798 1.44046974 1.25484467zm-2.50406265-5.07281494l-.20906258-.15093613-2.62828064 1.0546875c-.29953194.10687256-.53859425-.03609467-.64265633-.2264061l-2.11359405-3.65624904c-.12750054-.23859406-.0782814-.5142212.11906242-.6703148l2.23640633-1.74843597-.0267191-.2578125c-.06062698-.52168274-.06062698-1.04862976 0-1.5703125l.0267191-.2578125-2.23218727-1.74562454c-.20278263-.16036224-.25690842-.44536972-.12703133-.66890716l2.11640549-3.66140652.00609398-.01031208c.11390686-.20671845.40031242-.30703163.62953186-.21984387l2.63624954 1.0589056.2114067-.14812469c.42489625-.30719662.87913895-.5716095 1.35609437-.7893753l.234375-.105937.40171814-2.80546857v-.00890636c.02953148-.24093724.25312423-.42843724.50859451-.42843724h4.23281097c.25558472-.00376796.47418213.18291378.51046944.43593693l.40218735 2.80546856.234375.10546875c.47754478.21616268.93203926.48000145 1.35656166.78750038l.20906448.15093804 2.62874794-1.05515671c.29953194-.10781288.538126.03562546.64218903.2264061l2.11359215 3.65625c.12750053.23859405.0778141.51421928-.11952973.67031288l-2.23781395 1.74937439.02812577.25922012c.02973365.26005554.04538154.52153206.046875.78327942-.0018406.26220512-.01748658.52412987-.046875.78468704l-.02718735.25875092 2.23312569 1.74609375c.19791412.1611805.25183296.44104385.12796783.6642189l-2.11828041 3.66702938-.00562668.00984573c-.0899372.15792466-.25794792.25518418-.43968582.25453187-.0641632-.00020218-.12773514-.01228333-.1875-.03562546l-2.63718796-1.05890656-.20859337.14906311c-.42544937.30712128-.87996483.57182312-1.35703277.7903099l-.234375.10593797-.40218735 2.80406189v.00890731c-.02999878.24093628-.25359345.42843628-.50952911.42843628h-4.233284c-.2561245.00388718-.47501755-.18365097-.51046753-.4373436l-.40312576-2.8045311-.234375-.10593795c-.47734833-.21654129-.93180466-.48035812-1.35656166-.78749847zM20.75 26.16712856c-3.06868362-.0005188-5.5559702-2.48850536-5.55562496-5.55718898.00034523-3.06868172 2.48819256-5.55610943 5.55687427-5.55593682 3.06868363.00017262 5.55624962 2.4878788 5.55624962 5.55656243C26.3038826 23.678236 23.81767273 26.1640272 20.75 26.16712856zm-4.618124-5.55593776c-.00034524-2.55091668 2.06720924-4.6191702 4.618124-4.61968804 2.55022621.00232506 4.61715698 2.06883812 4.62000084 4.61906243 0 2.55091476-2.06783485 4.6188879-4.61874962 4.61906337-2.55091667.00017166-4.61903-2.067523-4.61937523-4.61843776z"/>
        <path fill="rgb(255,133,56)" fill-rule="evenodd" d="M17.75656319 21.52134705c.15342712.27332878.37791252.50008201.64968681.65625.57186699.31874084 1.26797676.31874084 1.83984375 0 .27171707-.15608597.49607086-.38286782.64921951-.65625.31560517-.5675106.31560517-1.25780297 0-1.82531357-.15314865-.27338028-.37750244-.50016403-.64921951-.65625-.57186699-.31873894-1.26797676-.31873894-1.83984375 0-.2717743.15616798-.49625969.38292122-.64968681.65625-.31560517.5675106-.31560517 1.25780296 0 1.82531357zm2.57156181-.29437638c-.09736061.17666817-.2419777.32274628-.41765594.421875h.00187492c-.17900658.10032654-.38121796.1518898-.5864067.14953232-.20370103.00232887-.40439225-.04925919-.58171845-.14953232-.17490769-.0993557-.31871033-.2454319-.41531372-.421875-.20312882-.38716125-.20312882-.84939956 0-1.23656273.09660339-.1764431.24040603-.3225174.41531372-.421875.1773262-.10027122.37801742-.15185928.58171844-.1495304.20455551-.00202943.40607834.0495224.58453179.1495304.17567825.09913063.32029533.24520874.41765594.421875.20248413.38732148.20248413.84924317 0 1.23656273z"/>
        <path fill="rgb(255,133,56)" fill-rule="evenodd" d="M21.99359375 22.16072175c-.23874108-.18035457-.4104678-.43522277-.48796875-.72421875l.61359375-.241875c.0386894.16692885.12403825.31941878.24609375.4396875.11750492.1099083.27370842.1688848.43453125.1640625.13226797.00380864.2623604-.0342512.37171875-.10875.10031486-.0668697.15884684-.18091837.1546875-.30140625.00283197-.12262335-.05157378-.23957838-.1471875-.31640625 0 0-.14765625-.1228125-.5240625-.2634375l-.21234375-.076875c-.21402147-.07321544-.40827415-.19480382-.56765625-.3553125-.1577632-.15951358-.2433094-.37668235-.23671875-.6009375-.00152163-.1743311.04730762-.34539623.140625-.49265625.09688668-.15129323.23405957-.27255731.39609375-.35015625.18040923-.08752428.37888442-.13136225.579375-.12796875 0 0 .46875 0 .73875.21984375.17053217.13291984.29950673.31182527.37171875.515625l-.57421875.24140625c-.0353463-.10558106-.10045987-.19869347-.1875-.268125-.09714845-.07503974-.2176637-.1133855-.3403125-.10828125-.12428426-.00525518-.24698817.02940416-.35015625.09890625-.08706458.05687878-.13904146.15429122-.1378125.25828125.00006915.1031775.04825667.20041923.1303125.26296875 0 0 .13078125.10921875.42984375.21l.2175.07265625s.44859375.1546875.688125.4078125c0 0 .23953125.253125.2390625.66421875.00636247.20468979-.05474315.40579482-.17390625.57234375-.11447193.15499699-.26886662.2760178-.44671875.35015625-.17775835.0761804-.36910549.11556601-.5625.11578125-.2886445.00466005-.57080554-.08576985-.80296875-.25734375z"/>
      </g>
    </g>
  </g>
</svg>
