<svg xmlns="http://www.w3.org/2000/svg" xmlns:xlink="http://www.w3.org/1999/xlink" width="56" height="56" viewBox="0 0 56 56">
  <defs>
    <rect id="rect-2" width="32.2" height="33.705" x="11.9" y="11.148"/>
    <mask id="mask-3" maskContentUnits="userSpaceOnUse" maskUnits="userSpaceOnUse">
      <rect width="56" height="56" x="0" y="0" fill="black"/>
      <use fill="white" xlink:href="#rect-2"/>
    </mask>
  </defs>
  <g>
    <ellipse cx="28" cy="28" fill="rgb(253,186,69)" rx="28" ry="28"/>
    <g>
      <use fill="none" xlink:href="#rect-2"/>
      <g mask="url(#mask-3)">
        <path fill="rgb(255,255,255)" fill-rule="evenodd" d="M16.96852112 42.48331333h22.06295776c1.24539185-.0015333 2.25460816-1.05790908 2.25608826-2.36146467v-3.47470013c-.0014801-1.30361948-1.01069641-2.35999527-2.25608826-2.36152856h-3.4385376c-1.24539184.0015333-2.25460815 1.05790908-2.25608825 2.36152856-.00065613.6141482-.47586823 1.1119577-1.06259918 1.11317156h-8.54760743c-.5870819-.00070276-1.06284332-.49870392-1.06349945-1.11317156-.0014801-1.30393891-1.0112381-2.36050637-2.2569809-2.36152856h-3.43764495c-1.24539185.0015333-2.25460816 1.05790908-2.25608826 2.36152856v3.47470013c.0014801 1.30355559 1.01069641 2.35993138 2.25608826 2.36146467zm-1.06349564-5.83622869c.00065613-.61446763.47641373-1.1124688 1.06349564-1.11317156h3.4385376c.5870819.00070276 1.06284332.49870393 1.06349945 1.11317156.00147247 1.30323616 1.01015472 2.35948417 2.25518798 2.36152857h8.54761506c1.24539184-.0015333 2.25460815-1.0579091 2.25608825-2.36152857.00065613-.61485096.47695923-1.1129799 1.06438446-1.11317156h3.43764496c.58708191.00070276 1.06284332.49870393 1.06349945 1.11317156v3.47470013c-.00065613.61453152-.47641754 1.1125327-1.06349945 1.11323545H16.96852112c-.58708191-.00070276-1.06283951-.49870393-1.06349564-1.11323545v-3.47470013z"/>
        <path fill="rgb(255,255,255)" fill-rule="evenodd" d="M28 34.8148966c-.32932535 0-.5962963-.27944618-.5962963-.62416052V14.14082781c0-.34471433.26697095-.62416052.5962963-.62416052s.5962963.27944619.5962963.62416052v20.04990827c0 .34471434-.26697095.62416052-.5962963.62416052z"/>
        <path fill="rgb(255,255,255)" fill-rule="evenodd" d="M28 35.0093226l-6.17584074-5.48449846c-.25111058-.22303017-.28194572-.61690957-.06887222-.87975425.2130735-.26284468.58936905-.29512071.84047963-.07209054L28 33.37246165l5.40423333-4.7994823c.25111058-.22303017.62740613-.19075414.84047963.07209054.2130735.26284468.18223836.65672408-.06887222.87975425L28 35.0093226z"/>
      </g>
    </g>
  </g>
</svg>
