<svg id="Layer_1" data-name="Layer 1" xmlns="http://www.w3.org/2000/svg" viewBox="0 0 64 64"><defs><style>.cls-1{fill:#ecebff;}.cls-1,.cls-3{fill-rule:evenodd;}.cls-2,.cls-3{fill:#8c84f3;}</style></defs><title>drugs-icon-instance</title><path class="cls-1" d="M3,32A29,29,0,1,1,32,61,29,29,0,0,1,3,32Z"/><path class="cls-2" d="M28.3,45.3h-.8a1,1,0,0,1-.4-.1,1,1,0,0,1-.4-.1,1,1,0,0,1-.4-.1h0a1,1,0,0,0-.4-.1,1,1,0,0,0-.4-.1l-.4-.2h0l-.4-.2-.4-.2-.4-.2-.4-.2h0l-.4-.2a1.73,1.73,0,0,1-.4-.3.75.75,0,0,1-.3-.3h0a.75.75,0,0,1-.3-.3l-.2-.2a.35.35,0,0,1-.1-.2l-.3-.3h0a.75.75,0,0,0-.3-.3h0a1.73,1.73,0,0,0-.3-.4l-.2-.4-.2-.4-.2-.4-.2-.4-.2-.4h0a1,1,0,0,1-.1-.4,1,1,0,0,1-.1-.4,1,1,0,0,1-.1-.4,1,1,0,0,0-.1-.4h0a1,1,0,0,0-.1-.4h0v-.4h0v-.8h0v-.4h0a1,1,0,0,1,.1-.4,1,1,0,0,1,.1-.4,1,1,0,0,1,.1-.4,1,1,0,0,0,.1-.4,1,1,0,0,0,.1-.4l.2-.4.2-.4.2-.4.2-.4h0l.2-.4h0a1.73,1.73,0,0,1,.3-.4.75.75,0,0,1,.3-.3.75.75,0,0,1,.3-.3.75.75,0,0,1,.3-.3h0l9.4-9.1h0l.3-.3a.75.75,0,0,0,.3-.3h0a.75.75,0,0,0,.3-.3l.4-.2h0l.4-.2.4-.2.4-.2.4-.2.4-.2a1,1,0,0,1,.4-.1,1,1,0,0,1,.4-.1,1,1,0,0,1,.4-.1,1,1,0,0,0,.4-.1,1,1,0,0,0,.4-.1h1.6a1,1,0,0,1,.4.1,1,1,0,0,1,.4.1,1,1,0,0,1,.4.1,49323420047718.39,49323420047718.39,0,0,0,.8.2l.4.2.4.2.4.2.4.2.4.2.4.2a1.73,1.73,0,0,1,.4.3.75.75,0,0,1,.3.3.75.75,0,0,1,.3.3l.1.1.2.2.3.3h0a.75.75,0,0,0,.3.3,1.73,1.73,0,0,0,.3.4h0l.2.4h0l.2.4.2.4h0l.2.4.2.4a1,1,0,0,1,.1.4,1,1,0,0,1,.1.4,1,1,0,0,1,.1.4,1,1,0,0,0,.1.4,1,1,0,0,0,.1.4v1.6a1,1,0,0,1-.1.4,1,1,0,0,1-.1.4,1,1,0,0,1-.1.4,1,1,0,0,0-.1.4,1,1,0,0,0-.1.4l-.2.4-.2.4-.2.4h0l-.2.4-.2.4a1.73,1.73,0,0,1-.3.4,18372264439979.63,18372264439979.63,0,0,0-.6.6l-.3.3-9.4,9.1-.3.3h0a.75.75,0,0,0-.3.3h0a1.73,1.73,0,0,0-.4.3l-.4.2h0l-.4.2-.4.2-.4.2-.4.2h0l-.4.2a1,1,0,0,1-.4.1h0a1,1,0,0,1-.4.1,1,1,0,0,1-.4.1,1,1,0,0,0-.4.1,1,1,0,0,0-.4.1h-.4C28.8,45.3,28.5,45.3,28.3,45.3ZM23.7,41l.2.2.2.2c.1.1.2.2.3.2a1.44,1.44,0,0,0,.3.2,1.44,1.44,0,0,0,.3.2c.1.1.3.1.3.2a.49.49,0,0,0,.3.1.49.49,0,0,0,.3.1.49.49,0,0,0,.3.1.49.49,0,0,0,.3.1,1,1,0,0,1,.3.1.44.44,0,0,1,.3.1.44.44,0,0,1,.3.1h1.8a.44.44,0,0,0,.3-.1.44.44,0,0,0,.3-.1.44.44,0,0,0,.3-.1.44.44,0,0,0,.3-.1.49.49,0,0,1,.3-.1,14835033845809.2,14835033845809.2,0,0,1,.6-.2c.1-.1.3-.1.3-.2a13193341996773.84,13193341996773.84,0,0,1,.6-.4c.1-.1.2-.2.3-.2l.2-.2A1.24,1.24,0,0,0,33,41l9.4-9.1.2-.2.2-.2.2-.2c.1-.1.2-.2.2-.3a1.44,1.44,0,0,0,.2-.3,1.44,1.44,0,0,0,.2-.3.49.49,0,0,0,.1-.3.49.49,0,0,0,.1-.3.49.49,0,0,0,.1-.3.49.49,0,0,0,.1-.3,1,1,0,0,1,.1-.3,1,1,0,0,1,.1-.3,1,1,0,0,1,.1-.3V26.5a1,1,0,0,0-.1-.3,1,1,0,0,0-.1-.3,1,1,0,0,0-.1-.3,1,1,0,0,0-.1-.3.49.49,0,0,1-.1-.3.49.49,0,0,1-.1-.3.49.49,0,0,1-.1-.3,1.44,1.44,0,0,1-.2-.3,1.44,1.44,0,0,1-.2-.3c-.1-.1-.2-.2-.2-.3l-.2-.2-.2-.2-.2-.2-.2-.2-.2-.2c-.1-.1-.2-.2-.3-.2a16491677495958.1,16491677495958.1,0,0,1-.6-.4c-.1-.1-.3-.1-.3-.2a27815688460882.49,27815688460882.49,0,0,1-.6-.2,111262753843532.3,111262753843532.3,0,0,0-.6-.2,1,1,0,0,1-.3-.1,37087584614551.8,37087584614551.8,0,0,1-.6-.2H36.9a17117346745168.6,17117346745168.6,0,0,1-.6.2,31789358241010.4,31789358241010.4,0,0,1-.6.2,44505101537424.19,44505101537424.19,0,0,0-.6.2.49.49,0,0,1-.3.1,41229193739913.71,41229193739913.71,0,0,0-.6.4,1.44,1.44,0,0,1-.3.2c-.1.1-.2.2-.3.2l-.2.2a3,3,0,0,0-.4.3l-9.4,9.1-.2.2-.2.2-.2.2c-.1.1-.2.2-.2.3a146592688853049.28,146592688853049.28,0,0,0-.4.6,98900225638721.45,98900225638721.45,0,0,1-.2.6,24725056409684.62,24725056409684.62,0,0,1-.2.6,98900225638726.45,98900225638726.45,0,0,0-.2.6,1,1,0,0,1-.1.3v1.8a16483370939789.48,16483370939789.48,0,0,1,.2.6,49450112819359.6,49450112819359.6,0,0,1,.2.6,24725056409676.91,24725056409676.91,0,0,0,.2.6.49.49,0,0,1,.1.3,18324086106631.45,18324086106631.45,0,0,1,.4.6c.1.1.2.2.2.3l.2.2.2.2a1,1,0,0,1,.3.1Zm-2.4,1.1Zm-.3-.3Zm1.6,1.5Z"/><rect class="cls-2" x="31.75" y="23.09" width="2.5" height="17.7" transform="translate(-12.9 33.46) rotate(-45.97)"/><path class="cls-3" d="M35.9,24.8a1,1,0,0,1,0-1.6,1.15,1.15,0,0,1,1.7,0,1,1,0,0,1,0,1.6A1.15,1.15,0,0,1,35.9,24.8Z"/></svg>