<svg xmlns="http://www.w3.org/2000/svg" xmlns:xlink="http://www.w3.org/1999/xlink" width="32" height="32" viewBox="0 0 32 32">
  <defs>
    <rect id="rect-2" width="20" height="20" x="6" y="6"/>
    <mask id="mask-3" maskContentUnits="userSpaceOnUse" maskUnits="userSpaceOnUse">
      <rect width="32" height="32" x="0" y="0" fill="black"/>
      <use fill="white" xlink:href="#rect-2"/>
    </mask>
  </defs>
  <g>
    <g opacity=".15">
      <ellipse cx="16" cy="16" fill="rgb(42,211,232)" rx="16" ry="16"/>
    </g>
    <g>
      <use fill="none" xlink:href="#rect-2"/>
      <g mask="url(#mask-3)">
        <path fill="rgb(42,211,232)" fill-rule="evenodd" d="M25.61232758 10.01934814h-1.31808472v-.44970703c.00707245-.17797851-.10806275-.33795166-.2791214-.38763427-.91238785-.23913575-1.85191345-.3590088-2.79511642-.35668946-1.5506897 0-3.66350174.348938-5.22581864 1.9383545-1.5506897-1.60491944-3.67900848-1.9383545-5.22582245-1.9383545-.94320297-.00231933-1.88272857.11755371-2.7951126.35668946-.17106248.04968261-.28620148.20965576-.27912522.38763427v.44586182h-1.3064537c-.21409226 0-.38767243.17358398-.38767243.38763428v12.38226318c0 .21411133.17358017.38769531.38767242.38769531.06658173-.00024414.13200379-.01757812.18996048-.05041504.16444397-.08703613 4.0029335-2.11791992 9.32738877-.77532959h.09304046c.03091431.00372315.06212616.00372315.09304047 0 5.42741013-1.37628173 9.30413055.74041748 9.32738876.7753296.1199379.06921386.26773453.06921386.38767243 0 .11920929-.06884766.19301224-.19573975.19383621-.33343506V10.40704346c0-.21411133-.17353058-.38769532-.38767242-.38769532zM8.4617157 20.07556152c.69950485-.08874511 1.4038086-.13409423 2.1089363-.13568115 2.65942765 0 4.23337937.70947266 5.0397377 1.23669434l-.011631-9.65692139c-1.38786698-1.56622314-3.38825608-1.89959717-4.83814621-1.89959717-.77331162.0018921-1.5440979.08770752-2.2988968.25585938v10.199646zm7.92401886-8.5559082c1.38786697-1.55072021 3.38825226-1.89959717 4.8381462-1.89959717.77326203.0022583 1.54404832.08807373 2.2988968.25585938v10.199646c-.69558335-.08959962-1.39600754-.13623048-2.0973053-.13952637-2.64392471 0-4.22174835.70941162-5.0397377 1.2366333v-9.65301514zM6.77534485 22.16900635V10.79473877h.92653656v9.72283935c-.00242233.2140503.16917038.3895874.38326263.39202881.02093506.00024414.0418663-.0012207.06256104-.00439453.80199432-.12243652 1.61169815-.18725586 2.42295074-.19384765 1.12376404-.01947022 2.24282837.14959716 3.31071854.50012207-2.41156387-.29162598-4.85767746.03796386-7.10602951.95751953zm11.32389831-.95751953c2.41664887-.29418946 4.86838532.03546142 7.12153626.95751953l.01550674-11.37426758h-.92653656v9.7189331c.00024033.02093506-.00121307.04187012-.0043602.06256104-.0321312.21166992-.22979354.35723877-.44146347.32513428-.8071823-.12194824-1.62211609-.1854248-2.43845749-.19000244-1.12889862-.02075196-2.2532959.14831543-3.32622528.50012207z"/>
      </g>
    </g>
  </g>
</svg>
