<svg xmlns="http://www.w3.org/2000/svg" xmlns:xlink="http://www.w3.org/1999/xlink" width="40" height="40.5" viewBox="0 0 40 40.5">
  <defs>
    <rect id="rect-2" width="28" height="28" x="6" y="4.25"/>
    <mask id="mask-3" maskContentUnits="userSpaceOnUse" maskUnits="userSpaceOnUse">
      <rect width="40" height="40.5" x="0" y="0" fill="black"/>
      <use fill="white" xlink:href="#rect-2"/>
    </mask>
  </defs>
  <g>
    <g opacity=".2">
      <ellipse cx="20" cy="20.25" fill="rgb(0,140,255)" rx="20" ry="20.25"/>
    </g>
    <g>
      <use fill="none" xlink:href="#rect-2"/>
      <g mask="url(#mask-3)">
        <path fill="rgb(0,140,255)" fill-rule="evenodd" d="M21.78795242 8.24359322c.01955796.49920272-.15620231.98546314-.48748398 1.34867858-.69795227.76024628-1.85424995.80474377-2.60476493.1002369-.35857582-.33413124-.5717888-.80395413-.59134674-1.30306435-.01955986-.49911022.15618705-.98527908.4874401-1.34839868.69779969-.76041174 1.8541031-.80516005 2.60476494-.10080338.35860825.3342309.57183266.80414867.59139061 1.30335093zm-1.78959274 2.79503536c4.83710861 0 8.8046875 3.84467888 9.078125 8.67530346h2.4609375c-.24281311-5.459795-4.19945526-9.95516396-9.3663292-10.95470143-.09898376 1.02785302-1.0554695 1.83541108-2.22359466 1.83541108-1.16812515 0-2.11421776-.79736424-2.22195053-1.81672287-5.1171112 1.03861236-9.02343845 5.51189613-9.26406383 10.93544864h2.45874977c.2734375-4.82722854 4.24046898-8.67473888 9.07812595-8.67473888zm2.73467636 15.71948528c-.06303406-.01913452-.11609077-.06351662-.14741135-.12330627l-2.33187484-5.16248322c-.24020958.06599808-.49259568.06833458-.7339058.0067978-.4839859-.12798692-.84875106-.55611802-.99039077-1.0657959l-5.02796936-1.57264329c-.45117188-.1189251-.54960919-.50345039-.52062512-.66824722.10445309-.5872631.6283598-.55045319 1.07898426-.43209457l4.83109475 1.39822006c.17117118-.3590393.85859298-.69769287 1.30046844-.62294006l2.43632889-2.49176598c.32905578-.34271717.86282158-.34851646 1.19874954-.01302338.21295548.21822167.29408646.53930664.2116394.8375721-.04027557.14826584-.1173973.28299904-.22367095.3907528l-2.43359376 2.49176597c.03714371.21879196.02668.44340897-.03062438.65748596-.10155106.36647797-.32966614.68150711-.64093781.88514137l2.30945206 5.11208153c.0658226.12490082.02243805.28139115-.09734345.35111237-.05753708.03281402-.1253357.04050636-.18836975.02136993zm-2.98514557-6.1165657c-.16156769-.04195595-.29974746-.1500721-.38285446-.29955864-.0831089-.14948654-.10401535-.32751847-.05792618-.4932747.09703827-.34875487.44283104-.55580329.78312493-.46890449.16148376.0420971.29956436.15023995.38264846.29968262.08308411.14944458.10406113.3274002.05813218.49315071-.09655571.3491459-.44274521.55642891-.78312493.4689045zm9.64687538 6.39873886c-.36258697-.27312088-.7996025-.41987229-1.24796867-.4190712-1.1484375 0-2.078125.92478561-2.078125 2.06533432.00141907.4478798.14775467.8823471.41562653 1.23398972-1.87257958 1.28930282-4.06513215 1.99060249-6.31367302 2.01946067v-2.49176406c4.93390655-.09514046 8.91953087-4.18559838 8.91953087-9.2036705v-.07701874h2.4614849v.07701873c-.00009346 2.44556809-.75590705 4.82693482-2.1568756 6.79572106zm-18.49039173-6.87047577v.07701874c0 4.98296165 3.9298439 9.05133438 8.81398487 9.2002716v2.49176407c-2.2401371-.05030441-4.4188385-.76793861-6.27539062-2.06702995.28311157-.36278343.43753242-.81512642.4375-1.2815609 0-1.14224625-.90890694-2.06759643-2.03054714-2.06759643-.46623326-.0007267-.91863728.1639614-1.28187466.46663856-1.37771416-1.95862007-2.11987495-4.31934929-2.11968803-6.74248695v-.07701874h2.45601558zm.92481613 6.74412918c.41612626-.01649666.82128144.14037895 1.12487126.43555069.63592338.61638641.67516422 1.64765167.08804703 2.31394195-.2810669.31806374-.6734066.5063572-1.08944226.52285004-.4160347.01649285-.82112789-.14019012-1.12485409-.43507194-.63563346-.61652375-.67486381-1.64753914-.08804702-2.31394196.28091049-.3183422.67329788-.50683403 1.08942508-.52332878zm15.080575.6229992c-.5869732.66644286-.54748917 1.69771575.08859443 2.31394385.30358887.29516983.70874405.45204544 1.1248722.4355507.41612626-.01649666.80851365-.20498849 1.08942414-.52332879.58691025-.66625213.54742432-1.69734573-.08859444-2.31337738-.30359077-.29577255-.70906448-.45308113-1.12559509-.43668747-.4165306.01639366-.80930519.20511818-1.09034157.52389908h.00164032z"/>
      </g>
    </g>
  </g>
</svg>
