<svg xmlns="http://www.w3.org/2000/svg" width="16.37" height="11.993" viewBox="0 0 16.37 11.993">
  <g>
    <path fill="rgb(212,211,219)" fill-rule="evenodd" d="M7.64062847 11.53761134l-.01250744-.00265854c-.64434219-.13695921-1.30406454-.47736267-1.96008834-1.0107904-.78772672-.64104282-1.57956623-1.57024354-2.35352417-2.76183636-.95359395-1.46876273-1.528598-2.79265819-1.70898112-3.93533235-.1405128-.89096924-.0440116-1.66678973.28681894-2.30818929.1609765-.30847713.43557694-.54225979.76575329-.65191172L3.55301167.5589208c.386923-.1340309.81071063.06075302.9609019.4417356l.86371183 2.16911493c.14713199.37284446-.01707764.7961968-.37717281.972371l-.8308285.40308598c-.01822006.00873175-.02728695.02951766-.0213148.04875791l.00070287.00227096.03528651.11757172c.11280157.37715347.2529014.8463444.925916 1.88307257.67298922 1.03684758 1.04480695 1.3553662 1.34326765 1.61124364l.0936831.08106371c.01515315.0133295.03783844.0135339.0532378.00045868l.00186877-.00159955.70467044-.59388555c.30710503-.25757375.76065457-.23579766 1.04168064.05006926l1.63078516 1.67098462c.28706458.29239193.29251696.75904532.01234726 1.05803643l-.64573636.69164903c-.23461325.2571331-.56003384.41284777-.90908467.43387514-.26697506.01476161-.53471836-.00583295-.796306-.06118554z"/>
    <path fill="rgb(212,211,219)" fill-rule="evenodd" d="M7.9307106 4.38843083c-.00003244-.27462752.22290207-.49756216.49752959-.49752987l6.09002405-.00003407-1.84493465-1.84493361c-.20500232-.20500221-.20498084-.53786116.00002137-.7428635.205013-.20501311.53787196-.20503478.74287429-.00003257l2.57983562 2.57983417c.0731103.07311027.12013138.16246966.1410848.25649017.04646003.1622539.00575094.3445225-.12213807.47241159l-2.64299643 2.64299791c-.18756624.18756635-.4921133.18758801-.67967964.00002177-.18756634-.18756623-.18754485-.49211329.00002139-.67967963l1.68918587-1.68918682-5.95329832.00003404c-.27461673-.00004308-.49748663-.22291286-.49752987-.49752958z"/>
  </g>
</svg>
