<svg xmlns="http://www.w3.org/2000/svg" width="500" height="312.257" viewBox="0 0 500 312.257">
  <defs>
    <linearGradient id="linearGradient-11" x1="322.713" x2="203.318" y1="117.819" y2="33.174" gradientUnits="userSpaceOnUse">
      <stop offset="0" stop-color="rgb(0,198,251)"/>
      <stop offset="1" stop-color="rgb(0,73,255)"/>
    </linearGradient>
    <filter id="filter-13" width="200%" height="200%" x="-50%" y="-50%" color-interpolation-filters="sRGB" filterUnits="userSpaceOnUse">
      <feOffset dx="0" dy="0" in="SourceAlpha" result="shadow-1-feOffset-shadow"/>
      <feGaussianBlur in="shadow-1-feOffset-shadow" result="shadow-1-feGaussianBlur-shadow" stdDeviation="9.036"/>
      <feColorMatrix in="shadow-1-feGaussianBlur-shadow" result="shadow-1-feColorMatrix-shadow" type="matrix" values="0 0 0 0 0  0 0 0 0 0.6392156862745098  0 0 0 0 1  0 0 0 0.3 0"/>
    </filter>
    <linearGradient id="linearGradient-15" x1="345.993" x2="184.237" y1="191.533" y2="90.376" gradientUnits="userSpaceOnUse">
      <stop offset="0" stop-color="rgb(0,198,251)"/>
      <stop offset="1" stop-color="rgb(0,73,255)"/>
    </linearGradient>
    <linearGradient id="linearGradient-17" x1="330.998" x2="197.154" y1="237.942" y2="209.277" gradientUnits="userSpaceOnUse">
      <stop offset="0" stop-color="rgb(0,198,251)"/>
      <stop offset="1" stop-color="rgb(0,73,255)"/>
    </linearGradient>
    <filter id="filter-19" width="200%" height="200%" x="-50%" y="-50%" color-interpolation-filters="sRGB" filterUnits="userSpaceOnUse">
      <feOffset dx="0" dy="0" in="SourceAlpha" result="shadow-1-feOffset-shadow"/>
      <feGaussianBlur in="shadow-1-feOffset-shadow" result="shadow-1-feGaussianBlur-shadow" stdDeviation="2.41"/>
      <feColorMatrix in="shadow-1-feGaussianBlur-shadow" result="shadow-1-feColorMatrix-shadow" type="matrix" values="0 0 0 0 0.1568627450980392  0 0 0 0 1  0 0 0 0 0.4980392156862745  0 0 0 0.57 0"/>
    </filter>
    <linearGradient id="linearGradient-21" x1="381.654" x2="384.935" y1="143.341" y2="98.429" gradientUnits="userSpaceOnUse">
      <stop offset="0" stop-color="rgb(66,212,125)"/>
      <stop offset="1" stop-color="rgb(116,255,172)"/>
    </linearGradient>
  </defs>
  <g>
    <path fill="rgb(0,140,255)" fill-opacity=".05" fill-rule="evenodd" d="M458.45581659 121.7666577c-2.23623997-8.96488488-11.31544434-14.42021398-20.27923618-12.1847491l-95.59870062 23.82780253c7.54424737-3.88254865 10.98925668-12.79910177 8.01248467-20.74543863-2.97671436-7.94653802-11.43165638-12.40538826-19.670755-10.37401479l-1.79915097.45875752c1.13208339-.57710565 2.32722585-1.02488322 3.55931942-1.33579752l48.7005048-12.14119448c8.25096672-2.05757795 13.64367523-9.97696573 12.53868936-18.40760301-1.10504355-8.43043611-8.35975823-14.6910242-16.85967141-14.55160432l26.92322994-6.71119352c8.96787277-2.23451239 14.42610758-11.31625795 12.1929579-20.28432775-2.23516361-8.96863862-11.31556397-14.42738897-20.28543106-12.19351375L87.47713249 94.0242661c-8.96568879 2.23492095-14.4220419 11.3151379-12.18695535 20.28078058 2.23502886 8.96584384 11.315066 14.42206483 20.28080646 12.18694101l32.46772157-8.0938511c8.96586113-2.23508921 18.0458406 3.22133294 20.2809875 12.18699292 2.23488806 8.96580347-3.22133295 18.0458406-12.18693525 20.28078634l-64.93269668 16.18936053c-5.83477505 1.41393185-10.46443805 5.8446389-12.13210274 11.61234013-1.66706776 5.76569536-.11695978 11.98584012 4.06296145 16.29538832 4.18049803 4.30753656 10.34866525 6.04792933 16.16401324 4.55658489l30.67266462-7.64785262c-7.57343827 3.8674295-11.04079843 12.80043242-8.05901185 20.76344638 2.98100858 7.96496792 11.46233683 12.42594171 19.71376355 10.36827796l-66.70021363 17.07365463c-5.83477506 1.41393184-10.46501486 5.84665052-12.13210273 11.61234012-1.6676446 5.76770699-.11695979 11.98584012 4.06296142 16.29538832 4.17982065 4.30951935 10.3487055 6.04794088 16.16405349 4.55659645l95.59488726-23.83803953c-7.5665721 3.87157538-11.02777619 12.79981244-8.04762558 20.76018026 2.98052628 7.95829852 11.45504165 12.4194958 19.70373208 10.36757851l227.2585319-56.66053689c8.65960979-2.17682676 14.08458097-10.77055052 12.32341619-19.52453765-1.76116478-8.75398714-10.0870001-14.58174201-18.91633121-13.2403604 7.70905598-3.7436376 11.34388713-12.70720973 8.41574107-20.76238776-2.92613446-8.0546012-11.466545-12.59499733-19.78013918-10.51640868l66.69562177-17.07540675c4.30874754-1.07191922 8.01175283-3.81228051 10.29787755-7.61682413 2.28819403-3.80416795 2.96799676-8.36147446 1.8930572-12.66804024h-2e-8z"/>
    <path fill="rgb(2,204,170)" fill-rule="evenodd" d="M448.95043945 13.39434814l10.03857422 10.04405213 10.04925537-10.04405213-10.04925537-10.04397583-10.03857422 10.04397583zm10.03863526 7.38700867l-7.3869629-7.38705444 7.3869629-7.38700867 7.38433838 7.38700867-7.38433838 7.38705444z"/>
    <path fill="rgb(2,204,170)" fill-rule="evenodd" d="M0 219.44248962l10.03862 10.04403687 10.0493927-10.04403687L10.03862 209.3985138 0 219.44248962zm10.03857422 7.38702393l-7.38700867-7.38708496 7.38700867-7.3869934 7.38438415 7.3869934-7.38438415 7.38708496z"/>
    <path fill="rgb(2,204,170)" fill-rule="evenodd" d="M395.34442139 262.58610535l7.95751953 7.95755005 7.96020508-7.95755005-7.96020508-7.95751953-7.95751953 7.95751953zm7.95758056 5.30593872l-5.3059082-5.30587769 5.3059082-5.3059082 5.30859375 5.3059082-5.30859375 5.30587769z"/>
    <path fill="rgb(140,132,243)" fill-rule="evenodd" d="M182.14382935 305.15879822c0 3.91992187 3.17770385 7.09768677 7.09765625 7.0977478 3.91812133-.00439453 7.09332275-3.17953491 7.09780883-7.0977478 0-3.9199524-3.17773437-7.0977478-7.09771728-7.0977478-3.91998291 0-7.0977478 3.1777954-7.0977478 7.0977478zm1.87490844.00003052c0-2.88452149 2.3383789-5.22286988 5.22311402-5.22286988 2.88327026.0031128 5.21981811 2.33984375 5.22262573 5.22286988 0 2.88449096-2.33834839 5.22286987-5.22286987 5.22286987-2.88449097 0-5.22286988-2.3383789-5.22286988-5.22286987z"/>
    <path fill="rgb(140,132,243)" fill-rule="evenodd" d="M222.80001831 7.09416199c-.00195312 3.91923523 3.17306519 7.09829712 7.09231567 7.10131836 3.92022706-.00141907 7.09872437-3.17741394 7.10317994-7.0977478 0-3.91926575-3.17663575-7.09674073-7.09591675-7.09773255-3.91931153-.00099182-7.0975647 3.17488098-7.09957886 7.09416199zm1.87490845.00717163c-.00195313-2.88380432 2.33370971-5.22348023 5.21777344-5.22644043 2.88540649.00013733 5.2251892 2.33773804 5.22799682 5.22286987 0 2.88381958-2.33724975 5.22187805-5.22109985 5.22286987-2.88378906.00099183-5.22265625-2.33547973-5.22467041-5.21929931z"/>
    <path fill="rgb(0,140,255)" fill-rule="evenodd" d="M485.80456543 176.2917633c0 3.91992188 3.17767334 7.09768677 7.09759521 7.0977478 3.91815186-.004364 7.09332276-3.17950439 7.09783936-7.0977478 0-3.9199829-3.17773438-7.0977478-7.09771729-7.0977478-3.91992187 0-7.09771728 3.1777649-7.09771728 7.0977478zm1.87493896 0c0-2.88449096 2.33837891-5.22286987 5.2230835-5.22286987 2.88330078.0031128 5.2197876 2.33984375 5.22265625 5.22286988 0 2.88452148-2.3383789 5.22286987-5.22290039 5.22286987-2.88446045 0-5.22283936-2.33834839-5.22283936-5.22286987z"/>
    <path fill="rgb(253,186,69)" fill-rule="evenodd" d="M301.0859375 276.63414001l-7.6548462-13.25805664-7.65484618 13.25805664h15.30969238zm-3.23822021-1.87490844h-8.81460572l4.40863037-7.63342285 4.40597535 7.63342285z"/>
    <path fill="rgb(253,186,69)" fill-rule="evenodd" d="M34.45787048 53.6060028L26.8030243 66.8640442h15.30969238L34.45787048 53.6060028zm4.41662598 11.3831482h-8.81459045l4.40863037-7.63342285 4.40596008 7.63342285z"/>
    <path fill="url(#linearGradient-11)" fill-rule="evenodd" d="M215.0895996 126.57533264V95.6467743c0-23.21846008 18.82226563-42.04074096 42.04074098-42.04074096 23.21847534 0 42.04074096 18.82228088 42.04074096 42.04074096v30.92855835h-84.08148193zm72.29919435-11.78231811V95.64677429c0-16.7112732-13.54718018-30.2584381-30.25842286-30.2584381-16.7113037 0-30.25845337 13.5471649-30.25845337 30.2584381v19.14624024h60.51687623z"/>
    <path fill="black" fill-rule="evenodd" d="M283.2796936 123.16896057h-52.28396606c-17.0107727.0202942-30.79449463 13.80734253-30.81072998 30.81808472v25.58233642c.0243225 16.99639893 13.79223633 30.77093506 30.78863525 30.80337525h52.28399658c17.01651001-.00405884 30.81582642-13.78686524 30.84017945-30.80337525V153.9870453c-.01623535-17.01361084-13.80444336-30.80184937-30.81811524-30.81808472zm-21.46588134 42.86550903v14.14611817h-7.36395264V166.0344696c-3.33514404-1.70196533-5.06918335-5.46798706-4.19396973-9.10858154.87524414-3.640625 4.13162232-6.20690918 7.87594605-6.20690918 3.74432373 0 7.0007019 2.56628418 7.87594604 6.20690918.87524414 3.64059448-.85879516 7.40661621-4.19396972 9.10858154z" filter="url(#filter-13)"/>
    <path fill="url(#linearGradient-15)" fill-rule="evenodd" d="M283.2796936 114.79302979h-52.28396606c-17.0107727.02029418-30.79449463 13.80732727-30.81072998 30.81809997v25.58233643c.0243225 16.99639892 13.79223633 30.77093506 30.78863525 30.80334472h52.28399658c17.01651001-.00402832 30.81582642-13.78686523 30.84017945-30.80334472v-25.58233643c-.01623535-17.01364136-13.80444336-30.80184936-30.81811524-30.81809997zm-21.46588134 42.86549377v14.14611816h-7.36395264v-14.14611816c-3.33514404-1.70196533-5.06918335-5.46798706-4.19396973-9.10858154.87524414-3.640625 4.13162232-6.20690918 7.87594605-6.20690918 3.74432373 0 7.0007019 2.56628418 7.87594604 6.20690918.87524414 3.64059448-.85879516 7.4066162-4.19396972 9.10858154z"/>
    <path fill="url(#linearGradient-17)" fill-rule="evenodd" d="M231.75421143 221.28300476l-3.74087525 4.92648316 5.73651123-.73638917-.02944946-.08102417c1.23632812-.16448974 2.45639038.40020752 3.13104248 1.44921875.6746521 1.04901124.68243408 2.39337159.01989746 3.45010376-.6625061 1.05670166-1.87597656 1.63546753-3.11413574 1.4852295l-5.7144165-.68484497 3.68197631 4.58035278c.58633423.73144531.82284546 1.68301392.64718628 2.60385132-.17565918.9208374-.74591064 1.71850586-1.56030273 2.18270874l-.24301148.14730835c-.7953186.45141601-1.74511718.54315185-2.6121521.25228882-.86697387-.29086304-1.5692749-.93692017-1.93139648-1.77664185l-2.3859253-5.55978394-2.59945678 5.64813233c-.38934326.83688354-1.11849976 1.4668579-2.00302124 1.73052978-.88150025.26165772-1.8327942.13461304-2.6147461-.34921264-.78198242-.48379517-1.32028198-1.27835083-1.47958374-2.18395996-.15515136-.89361573.07492066-1.81115723.63327027-2.5258484l3.73355102-4.79391479-5.50823974.73638916c-1.23461914.15737915-2.4489441-.41293335-3.11624146-1.4635315-.66726684-1.05059814-.66726684-2.39218139 0-3.44277953.66729737-1.05059815 1.88162232-1.62088013 3.11624146-1.46350098l5.4493103.73638916-3.63778686-4.72763061c-.56826783-.7324524-.78878785-1.67636109-.6038208-2.58474732.18267822-.90957641.74902343-1.6960144 1.55377197-2.15762329l.17675781-.1031189c.78695679-.45172119 1.72833252-.54934692 2.59127808-.26873779.86288452.28063965 1.56680297.91329956 1.9375 1.74151611l2.46694946 5.53033448 2.43008423-5.58184815c.36151123-.83309936 1.06039428-1.47305298 1.92199707-1.76000976.86325073-.2848816 1.80648803-.19403076 2.59945678.2503662l.09573365.05892945c.8067627.4538269 1.37649536 1.23587036 1.56115722 2.14291382.18341065.9085083-.03103637 1.8520813-.58911132 2.59210205zm33.75631713 0l-3.74087524 4.92648316 5.73651123-.73638917-.02209473-.11785888c1.2361145-.16583252 2.4567566.39749145 3.13256836 1.4456787.67584229 1.04821778.68511963 2.39254762.02389527 3.4499817-.66125489 1.05749512-1.87399292 1.63763428-3.11227417 1.4888916l-5.72180176-.68484497 3.68200684 4.5803833c.58380126.73233032.81878662 1.68307495.64328002 2.60308838-.17550659.92001343-.74398803 1.71749878-1.556427 2.18344116l-.2503662.14730835c-.79531861.45141602-1.7451172.54318237-2.61212159.25228882-.8670044-.29086304-1.56933594-.93688965-1.931427-1.77661133l-2.3859253-5.55978393-2.5994873 5.64813232c-.59692383 1.2739563-1.95077515 2.01403809-3.34542847 1.82873535-1.39465332-.18527222-2.50827026-1.2531433-2.75189209-2.63876343-.15484619-.89129638.07528687-1.80645752.63327027-2.51846313l3.7335205-4.7939148-5.50820922.73638916c-.90820313.12280274-1.82592774-.14477539-2.5258484-.73638916-1.0600891-.9316101-1.38754272-2.4461975-.80700683-3.73251342.5805359-1.28631592 1.93295288-2.04272461 3.33285523-1.86410523l5.4493103.73638916-3.63778687-4.72763061c-.5670166-.73291016-.78805542-1.67581177-.60577392-2.58435059.18225097-.9085083.74990845-1.6932373 1.5557251-2.15066528l.1767273-.11047364c.7869873-.45172119 1.72836303-.54934692 2.59127807-.26873779.86291504.28063965 1.56680298.91329956 1.93756103 1.74151611l2.46691895 5.52297974 2.43008423-5.5744934c.36151123-.83309937 1.06039428-1.47305299 1.92202758-1.76000977.86322022-.2848816 1.806427-.19403076 2.5994568.2503662l.09570312.05892945c.8067932.4538269 1.37649536 1.23587036 1.56115722 2.14291382.18341065.9085083-.03100586 1.8520813-.58911133 2.59210205zm35.74456788 4.2268982l-5.73651123.73638915 3.74087524-4.92648315c.56033325-.73742676.77493286-1.6809082.58868408-2.58813477-.18621826-.90722656-.75518799-1.68984985-1.56072998-2.1468811l-.09570312-.05892944c-.79302979-.44439698-1.73623658-.5352478-2.5994873-.25036621-.86355592.28778076-1.56295777.9309082-1.92199708 1.7673645l-2.43008423 5.5744934-2.46691894-5.53033447c-.37075806-.82821655-1.074646-1.46087646-1.93756104-1.7415161-.86291504-.28060914-1.80429077-.1829834-2.59127807.26873778l-.1767273.11047364c-.8062439.45898437-1.37387085 1.2449646-1.5560913 2.15460205-.18218995.90966797.0389099 1.8536377.60614013 2.58776855l3.63778686 4.72027588-5.4493103-.73638916c-1.39990234-.17861938-2.75231933.5777893-3.33285522 1.86410523-.5805359 1.28631591-.25308228 2.80090332.80700683 3.73251342.7003479.5907898 1.6177063.85824585 2.5258484.73638916l5.50820922-.73638916-3.7335205 4.7939148c-.5579834.71200561-.78811646 1.62716675-.63327027 2.51846313.2715149 1.54476929 1.61273193 2.67178345 3.18121338 2.6730957 1.26229858.01046754 2.41412353-.7180786 2.94558716-1.86306762l2.59945678-5.64813233 2.3859253 5.55978394c.36212158.83972168 1.0644226 1.4857483 1.93139648 1.77661133.86703491.29089355 1.8168335.1991272 2.6121521-.25228882l.25036621-.14730835c.81243897-.46594238 1.38092041-1.26342773 1.556427-2.18344116.1755066-.92001343-.05944824-1.87075806-.64328003-2.60308838l-3.68200683-4.5803833 5.72180176.68484497c1.400177.16827393 2.74624633-.59680176 3.3180542-1.88589478.57180786-1.28912353.23550414-2.80044555-.82904053-3.72543335l-.00735474.08102417c-.69992065-.59707641-1.62228393-.86520385-2.53320312-.73638916z"/>
    <path fill="black" fill-rule="evenodd" d="M193.55493164 157.19789124l5.25497437-1.3085022c.83700561-.20837403 1.72332763-.02023316 2.40350341.51016235.68017579.5303955 1.07867432 1.34414673 1.08056641 2.20666504v.31530762l32.61776733-.00006104c.32473755-.00057983.6480713.04180908.96166993.12612915.14685058.03686524.29086303.08428955.4309082.14187622.36398315.13977051.70428467.33474732 1.00897217.57806397l4.97122192 4.00427246 1.33477783 1.05099487c.07189942.05718994.14035034.11859131.20492554.18392945l.11560059.13137817.05255127.0578003c.04730224.0578308.08935546.12088012.13140869.18392944.62451172.95614624.51379394 2.21542358-.26800537 3.0479126-.07385254.0770874-.15286255.14907836-.23648072.21542358l-6.30599975 5.08685303c-.33865357.27062988-.7206421.48205566-1.12979126.6253662-.10159302.03704835-.20507813.06860352-.3100586.09457398-.31359863.08432007-.63693237.1267395-.96166992.12612915h-4.0463562c-.1027832-.000885-.20101929-.04244995-.2732544-.11560058l-1.12457275-.82501221-.57278442-.80401612c-.14962769-.13381958-.37588501-.13381958-.52548218 0l-1.70788574 1.69735718c-.07189942.07363892-.17034912.1152649-.2732544.11560059-.1027832-.00088501-.2010498-.04248047-.2732849-.11560059l-1.16134644-.89334106-.8407898-1.0510254c-.07189941-.0736084-.17037964-.11526489-.27328491-.11560058h-1.82873535c-.10314942-.000885-.20205689.0409546-.2732544.1156311l-1.98110962 1.9758606c-.06958007.07385254-.16656494.11569214-.26803588.1156311h-.03677369c-.10290527-.00033569-.20135498-.04199218-.2732544-.1156311l-1.1350708-.92486572-.8408203-1.09829712c-.07119751-.074646-.17010498-.1164856-.2732544-.11560059h-3.15298462c-.21273804-.00003051-.38598633.17089844-.3888855.38360596l.00003052.43093872c.0043335.10534668-.0349121.20785523-.10845947.28341675-.07357788.075531-.1749878.11749267-.28042603.11593628l-.85128784.00003052c-.11349487.00021362-.22125244-.0498352-.29431152-.13665772-.16894531-.21768188-.37112427-.40744018-.59906006-.56228638l-.5255127-.32055664c0-.13659668.33633423-.16815185.5255127-.1786499h-.88284302c-.10290527.00030518-.2013855.04196167-.2732544.11560059l-1.99691772 1.9916687c-.07116699.074646-.17010498.1164856-.2732544.11560058h-5.53875732v.3310852c.00143433.74832154-.29663086 1.46609498-.82775878 1.99328614-.53112793.52716065-1.25109864.81988526-1.99942017.81286621-.22058106-.0054016-.43954468-.03894043-.65164185-.09985351l-2.10198974-.52548218-.73043824-.17868042-1.3715515-.34155273-1.05099488-.26275635c-4.38931275 8.07913208-13.7010498 12.15005493-22.6123352 9.88565063-8.9112854-2.26437378-15.15008546-10.28671264-15.15011597-19.48120117 0-9.19448853 6.23876953-17.21685791 15.15005493-19.48129272 8.9112854-2.2644043 18.22302246 1.80645752 22.61236572 9.8855896zm-25.96966553 9.40197753c0 .85943604.34176636 1.68362427.9499817 2.29083252.60821532.60720826 1.43292236.94763184 2.2923584.94625855.3746643-.00003052.74639892-.06582642 1.09829711-.194458h.03677368c1.27764893-.4754944 2.12512207-1.6951294 2.12509155-3.05841065 0-1.36328125-.84744262-2.58288575-2.12509155-3.05838013-.01208496-.00289917-.02468872-.00289917-.03677368 0-.35162353-.13027954-.72335815-.19787598-1.09829712-.19970703-.86541748-.00003052-1.69494629.34588623-2.30389404.96078491-.60897827.61489868-.9468689 1.44772339-.93844605 2.31307983z" filter="url(#filter-19)"/>
    <path fill="url(#linearGradient-21)" fill-rule="evenodd" d="M193.55493164 153.84751892l5.25497437-1.3085022c.83700561-.20837402 1.72332763-.02023315 2.40350341.51016236.68017579.5303955 1.07867432 1.3441162 1.08056641 2.20666504v.31530761l32.61776733-.00006103c.32473755-.00057984.6480713.04180908.96166993.12612915.14685058.03686523.29086303.08428955.4309082.14187622.36398315.1397705.70428467.33474731 1.00897217.57806396l4.97122192 4.00427247 1.33477783 1.05102539c.07189942.05715942.14035034.1185913.20492554.18389892l.11560059.13137818.05255127.05780029c.04730224.0578308.08935546.12088013.13140869.18392944.62451172.95611572.51379394 2.21542359-.26800537 3.0479126-.07385254.0770874-.15286255.14907837-.23648072.21542358l-6.30599975 5.08685303c-.33865357.27062988-.7206421.48205566-1.12979126.62536621-.10159302.03704834-.20507813.06860352-.3100586.09457398-.31359863.08432006-.63693237.12670898-.96166992.12612915h-4.0463562c-.1027832-.00088501-.20101929-.04244995-.2732544-.11560059l-1.12457275-.8250122-.57278442-.80404664c-.14962769-.13378906-.37588501-.13378906-.52548218 0l-1.70788574 1.6973877c-.07189942.0736084-.17034912.1152649-.2732544.11560058-.1027832-.00091552-.2010498-.04248046-.2732849-.11560058l-1.16134644-.89334107-.8407898-1.05099487c-.07189941-.07363892-.17037964-.11529541-.27328491-.1156311h-1.82873535c-.10314942-.00088501-.20205689.04095459-.2732544.1156311l-1.98110962 1.9758606c-.06958007.07385254-.16656494.11569213-.26803588.1156311h-.03677369c-.10290527-.0003357-.20135498-.04199219-.2732544-.1156311l-1.1350708-.92486573-.8408203-1.09829712c-.07119751-.074646-.17010498-.1164856-.2732544-.11560058h-3.15298462c-.21273804-.00003052-.38598633.17089844-.3888855.38360596l.00003052.4309082c.0043335.1053772-.0349121.20788574-.10845947.28344726-.07357788.07553101-.1749878.11749268-.28042603.1159668h-.85128784c-.11349487.00021362-.22125244-.04980469-.29431152-.13665771-.16894531-.21768189-.37112427-.40744019-.59906006-.56228638l-.5255127-.32055664c0-.1366272.33633423-.16815186.5255127-.1786499h-.88284302c-.10290527.00033569-.2013855.04196167-.2732544.11560058l-1.99691772 1.9916687c-.07116699.074646-.17010498.1164856-.2732544.11560059h-5.53875732v.33105469c.00143433.74835205-.29663086 1.46612549-.82775878 1.99331665-.53112793.52716064-1.25109864.81988525-1.99942017.8128662-.22058106-.0054016-.43954468-.03897094-.65164185-.0998535l-2.10198974-.52548219-.73043824-.1786499-1.3715515-.34158325-1.05099488-.26275635c-4.38931275 8.07913208-13.7010498 12.15005493-22.6123352 9.88565064-8.9112854-2.26437378-15.15008546-10.28671265-15.15011597-19.48120117 0-9.19448853 6.23876953-17.21685791 15.15005493-19.48129273 8.9112854-2.2644043 18.22302246 1.80645752 22.61236572 9.8855896zm-25.96966553 9.40197754c0 .85943604.34176636 1.68362427.9499817 2.29083252.60821532.60720825 1.43292236.94763184 2.2923584.94625854.3746643-.00003051.74639892-.06582641 1.09829711-.194458h.03677368c1.27764893-.47549439 2.12512207-1.6951294 2.12509155-3.05841065 0-1.36328125-.84744262-2.58288574-2.12509155-3.05838012-.01208496-.00289917-.02468872-.00289917-.03677368 0-.35162353-.13027955-.72335815-.19787598-1.09829712-.19970704-.86541748-.00003051-1.69494629.34588623-2.30389404.96078492-.60897827.61489868-.9468689 1.44772338-.93844605 2.31307983z"/>
  </g>
</svg>
