<svg xmlns="http://www.w3.org/2000/svg" width="80" height="80" viewBox="0 0 80 80">
  <defs>
    <rect id="rect-1" width="80" height="80" x="0" y="0"/>
    <linearGradient id="linearGradient-3" x1="77.6" x2="10.4" y1="-1.6" y2="109.6" gradientUnits="userSpaceOnUse">
      <stop offset="0" stop-color="rgb(0,140,255)"/>
      <stop offset="1" stop-color="rgb(0,53,186)"/>
    </linearGradient>
  </defs>
  <g>
    <path fill="url(#linearGradient-3)" fill-rule="evenodd" d="M0 30C0 13.4314575 13.4314575 0 30 0h20c16.5685425 0 30 13.4314575 30 30v48c0 1.1045695-.8954305 2-2 2H30C13.4314575 80 0 66.5685425 0 50V30z"/>
    <path fill="rgb(255,255,255)" fill-rule="evenodd" d="M42.55361938 13.25457764c1.59403992 1.44973755 1.69325257 3.89279174.22128296 5.4567871-1.47198486 1.56396485-3.95715332 1.65655518-5.55119323.20684815-1.59403992-1.44973755-1.69325257-3.89282226-.2212677-5.4567871 1.4713745-1.56399537 3.95713806-1.6565857 5.55117797-.20684815zM39.99990845 21.688385c10.30744934 0 18.75930786 7.9112854 19.3431549 17.85073853h5.24333191c-.5183258-11.23464966-8.9491272-20.48443604-19.95950317-22.5414734-.20985413 2.11535645-2.2488556 3.77676392-4.73762512 3.77676392-2.47373963 0-4.5049286-1.6409607-4.7352295-3.73828125-10.90393066 2.13702393-19.22590637 11.34228516-19.74061584 22.50238037h5.24331665c.5838623-9.93884277 9.03511047-17.85012817 19.34317017-17.85012817zm6.22885132 32.30175781c-.25494385.14129639-.57543946.04748535-.71614075-.20925903l-4.970932-10.61471558c-.50149537.12686158-1.03363038.14910889-1.56338502.01382447-1.03121948-.2633667-1.80929565-1.14788819-2.11054992-2.19293213L26.1532135 37.75085449c-.96087646-.2453308-1.17132568-1.03601074-1.10879517-1.37515259.2224884-1.2080078 1.33850098-1.13223266 2.2987671-.8887329l10.29483032 2.87722778c.36437988-.7420044 1.82914734-1.43832398 2.77137756-1.2843628l5.19161987-5.13391113c.71372986-.70532226 1.85740662-.71673584 2.55430603-.02703857.46781922.46359253.61633301 1.12503051.44796753 1.72271728-.0823822.2946167-.24111938.57241822-.4762268.80453491l-5.186203 5.128479c.07516479.43594361.06375121.89532472-.06494141 1.35290528-.21946717.78109741-.7245636 1.40823364-1.36553955 1.8213501l4.92523193 10.51971436c.1407013.25674438.0480957.5802307-.20684814.72155761zm-6.76280213-12.54129028c-.71855163-.18341065-1.14065552-.91577149-.93922424-1.6307373.20083618-.7149353.95065307-1.14846802 1.66920471-.96505738.71855164.18338013 1.14067078.91577149.93922424 1.63070679-.20143127.716156-.95065307 1.14846802-1.6692047.96508789zm-18.83987427-.97109985c-.00059509.05291748-.00421142.1052246-.00421142.15814209 0 10.25393676 8.37428284 18.62521362 18.7839508 18.93426513v5.12487793c-4.95649719-.115448-9.5540161-1.67041015-13.37286377-4.25357055.5838623-.72518921.93501282-1.63974.93501282-2.63671875 0-2.34985352-1.93678284-4.25418091-4.32633972-4.25418091-1.03843689 0-1.99150085.36019897-2.73710632.96029663-2.84233094-3.92468262-4.5199585-8.7104187-4.5199585-13.87496948 0-.05291749.00360107-.10522461.00421143-.1581421h5.23730468zm39.39344788 14.13711547c-.74079895-.53814697-1.66018677-.86166381-2.660141-.86166381-2.44126891 0-4.42013549 1.90310669-4.4195404 4.25 0 .95303344.32951355 1.82974243.8802948 2.53866577-3.84649658 2.56152343-8.4710846 4.08340454-13.44802856 4.15618896v-5.12368774c10.51309204-.1947937 19.00582886-8.61239624 19.00582886-18.93847656 0-.05291749-.00360108-.10522461-.00419617-.1581421h5.23730469c.00059509.05291749.00421142.10522461.00421142.1581421 0 5.2102356-1.70709228 10.0350647-4.59573364 13.97897338zm-39.74880981.8171692c1.2507019-1.36434937 3.36366272-1.44552613 4.71838378-.18038941 1.35472107 1.26513672 1.43890381 3.39672851.1882019 4.76107788-1.2507019 1.36434937-3.36366271 1.44552612-4.71838378.1803894-1.35472107-1.26452636-1.4389038-3.39672851-.1882019-4.76107788zm34.45317077.20565795c-1.251297 1.36434937-1.16651916 3.49655152.18821716 4.76107788 1.35472107 1.26513672 3.46768189 1.18395996 4.7183838-.1803894 1.2507019-1.36434937 1.16651916-3.49655151-.18820191-4.76107788-1.35473633-1.26513672-3.4670868-1.18457031-4.71839905.1803894z"/>
  </g>
</svg>
