<svg xmlns="http://www.w3.org/2000/svg" width="16" height="15.526" viewBox="0 0 16 15.526">
  <g>
    <path fill="rgb(255,255,255)" fill-rule="evenodd" d="M2.10526316 13.36842105l.2631579.5263158.52631578.26315789-.52631579.2631579-.2631579.52631578-.26315789-.52631579-.52631579-.2631579.5263158-.26315789.26315789-.52631579z"/>
    <path fill="rgb(255,255,255)" fill-rule="evenodd" d="M13.31578947 0l.2631579.52631579.52631579.2631579-.5263158.26315789-.26315789.52631579-.2631579-.5263158-.52631578-.26315789.52631579-.2631579L13.31578948 0z"/>
    <path fill="rgb(255,255,255)" fill-rule="evenodd" d="M15.36842105 12.63157895l.21052632.42105263L16 13.26315789l-.42105263.21052632-.21052632.47368421-.21052631-.42105263-.42105263-.21052632.42105263-.21052631c0-.05263158.21052631-.47368421.21052631-.47368421z"/>
    <path fill="rgb(255,255,255)" fill-rule="evenodd" d="M4.89474574 13.68421543c-.94738769-1-1.47369384-2.15789795-1.6842041-2.78945922-.05264282-.3157959 0-.57894898.15789795-.73684693.26315308-.15789795.57891846-.15789795.78945923.05264282.73684692.6842041 2.6315918 2.15786744 4.57894898 2.15786744 1.94735717 0 3.42105102-1.47366333 4-2.10525513.15789794-.21051026.47369384-.26315308.73684692-.15789795.26315308.10528564.42105102.42105102.3684082.6842041-.10525512.57894898-.3684082 1.73684692-1.0526123 2.73684692-.36843872.57894898-.84213257 1.05264283-1.36843872 1.36843873-.63156128.42105102-1.3684082.63156127-2.15789795.63156127-.94735718 0-1.78945923-.15789794-2.57894898-.52630615-.63156128-.3157959-1.26315307-.73684692-1.78945923-1.3157959zm3.89474488-.3684082c-1 0-2.05264282-.3157959-3.21054077-.9473877l-.84210205-.47366332.57894897.7368164c.47369385.57894898 1 1 1.57894897 1.3157959.6842041.36843872 1.47369385.52633667 2.26315308.52633667h.10525513c.73684692 0 1.36843872-.21054077 1.89474487-.6315918.42105103-.3157959.78948975-.78945923 1.10525513-1.3684082l.3157959-.6315918-.57894898.3684082c-.0526123.05264283-.15789795.10528565-.21051025.15789796-.9473877.6315918-2 .9473877-3 .9473877z"/>
    <path fill="rgb(255,255,255)" fill-rule="evenodd" d="M5.05263158 2.63157895c.21052631-.36842106.2631579-.84210527.15789474-1.10526316-.10526316-.2631579-.36842106-.63157895-.78947369-.84210526C4.05263158.52631579 3.63157895.4736842 3.2631579.63157895c-.4736842.15789473-.89473684.63157894-1.21052631 1.31578947C1.7368421 2.57894737 1.63157895 3.31578947 1.68421053 4v.10526316H.31578947c-.15789473 0-.2631579.10526316-.31578947.2631579 0 .10526315 0 .31578947.10526316.31578947C1 4.78947368 1.31578947 5.15789473 1.31578947 6.05263158c0 1.15789474 0 1.42105263-.10526315 2.2631579 0 .05263157 0 .15789473-.05263158.2105263-.05263158.31578948-.15789474.7894737 0 1.05263159.10526315.10526316.21052631.21052631.36842105.21052631.21052632.05263158.42105263 0 .57894737-.15789473.36842105-.2631579.57894737-.94736842.57894737-1.89473684V5.78947368c.05263158-.68421052.78947368-1.15789473 1.4736842-1.15789473.36842106 0 .47368422-.21052632.47368422-.31578948.05263158-.10526315 0-.21052631-.05263158-.21052631-.15789474-.05263158-1.10526316 0-1.63157895 0h-.05263158v-.05263158s-.21052631-.5263158-.05263158-1.2631579c.10526316-.42105263.31578948-.63157894.5263158-.63157894.10526315 0 .2105263.10526315.26315789.21052631.10526316.36842106.2631579.78947369.63157894.68421053.47368422 0 .68421053-.21052632.78947369-.42105263z"/>
    <path fill="rgb(255,255,255)" fill-rule="evenodd" d="M4.31578947 6.57894737C4.78947368 8.63157895 6.05263157 9 6.68421053 9.21052632c.05263158 0 .10526315 0 .10526315.05263157.5263158.15789474 1.68421053 0 2.15789474-.63157894.63157895-.84210527.68421053-1.84210527.68421053-2.47368421v-.2631579c0-.4736842 0-1.2631579-.05263158-1.78947368 0-.2631579-.21052632-.47368421-.47368421-.42105263-.2631579 0-.47368421.21052631-.47368421.4736842v1.21052632c0 .78947369-.47368421 1.68421053-1.7368421 1.7368421h-.10526317c-.89473684 0-1.42105263-.57894736-1.4736842-1.68421052-.05263159-.36842105 0-1.4736842 0-1.52631579 0-.05263158-.05263159-.10526316-.10526316-.10526316h-.05263158c-.5263158 0-.68421053.2631579-.89473685.7368421-.10526315.42105264-.05263157 1.57894738.05263158 2.05263159z"/>
    <path fill="rgb(255,255,255)" fill-rule="evenodd" d="M10.68421053 9.36842105h.10526315c.36842106 0 .7368421-.36842105.89473685-.84210526.2631579-.7368421.63157894-1.7368421 1.21052631-2 .21052632-.10526316.42105263-.10526316.63157895 0 .36842105.15789474.36842105.42105263.42105263.78947368 0 .31578948.05263158.63157895.21052632 1.15789474.15789473.42105263.57894737.57894737.94736842.57894737s.68421052-.15789474.7368421-.42105263c.15789474-.5263158-.15789473-1.36842106-.52631579-2.2631579L15 5.42105263c-.21052632-.68421052-.63157895-.94736842-.94736842-1.05263158-.47368421-.15789473-.94736842-.10526316-1.21052632.05263158-.42105263.2631579-.68421052.7368421-.84210526 1-.05263158.05263158-.10526316.05263158-.15789474.05263158-.05263158 0-.10526315-.05263158-.10526315-.10526316 0-.2631579 0-.94736842-.21052632-1.2631579C11.42105263 4 11.26315789 3.89473686 11 3.89473686c-.42105263-.05263159-.78947368.26315789-.84210526.68421052h-.10526316.10526316C10.10526316 5.05263157 10 5.94736842 10 7.36842105c-.05263158 1.15789474.21052632 1.94736842.68421053 2z"/>
  </g>
</svg>
