<svg xmlns="http://www.w3.org/2000/svg" xmlns:xlink="http://www.w3.org/1999/xlink" width="56" height="56" viewBox="0 0 56 56">
  <defs>
    <rect id="rect-2" width="36" height="36" x="10" y="10"/>
    <mask id="mask-3" maskContentUnits="userSpaceOnUse" maskUnits="userSpaceOnUse">
      <rect width="56" height="56" x="0" y="0" fill="black"/>
      <use fill="white" xlink:href="#rect-2"/>
    </mask>
  </defs>
  <g>
    <path fill="rgb(219,228,255)" fill-rule="evenodd" d="M28 0c15.45362069 0 28 12.54637931 28 28S43.45362069 56 28 56 0 43.45362069 0 28 12.54637931 0 28 0z"/>
    <g>
      <use fill="none" xlink:href="#rect-2"/>
      <g mask="url(#mask-3)">
        <path fill="rgb(71,114,229)" fill-rule="evenodd" d="M16.842 38.10166667l.54233333.99133333.99133334.542-.99133334.54233333-.54233333.99133334-.542-.99133334L15.30833333 39.635 16.3 39.093l.542-.99133333z"/>
        <path fill="rgb(71,114,229)" fill-rule="evenodd" d="M38.10866667 12.66833333l.54233333.99133334.99133333.542L38.651 14.744l-.54233333.99133333-.542-.99133333L36.575 14.20166667l.99166667-.542.542-.99133334z"/>
        <path fill="rgb(71,114,229)" fill-rule="evenodd" d="M42.002 36.74366667l.43766667.80033333.8.43733333-.8.43766667-.43766667.80033333L41.56433333 38.419l-.8-.43766667.8-.43733333.43766667-.80033333z"/>
        <path fill="rgb(71,114,229)" fill-rule="evenodd" d="M25.46333313 41.45199966c1.45166779.65966797 3.04966736.99300003 4.74966812.99300003.10033226 0 .2013321-.00133514.30399895-.00233459 1.58866691-.03633118 3.02699852-.444664 4.27499962-1.21133423C35.8390007 40.58766556 36.75 39.6910019 37.5 38.56666565c1.3089981-1.96666718 1.83733368-4.21133423 2.03433228-5.37433243.11377334-.6735649-.2317505-1.34115791-.84736252-1.63721847-.61561203-.29606057-1.3528328-.14917756-1.80797196.36021804-1.0293312 1.16166687-3.80566406 3.86166764-7.34566498 3.86166764-3.62133216 0-7.11333274-2.77700043-8.44666671-3.97333336-.52370644-.46522331-1.29611206-.51637459-1.87659645-.12427902-.58048249.39209938-.82143402 1.12774086-.58540345 1.78727913.43133355 1.19733428 1.4343338 3.49633407 3.3053341 5.4489975 1.04533386 1.09300231 2.23333358 1.94667053 3.53333282 2.53633498zm4.99300003-1.58533477c-3.43366623.08000183-5.73399925-1.53966523-7.230999-3.36666489l.07266618.04166794c2.16133308 1.20066452 4.25933456 1.80966568 6.2353344 1.80966568 2.00233268 0 3.99233054-.6206665 5.91599845-1.84600067.22800064-.14566803.44466782-.2946663.44466782-.2946663-.93766785 1.84700013-2.57866669 3.58933259-5.43766785 3.65599824z"/>
        <path fill="rgb(219,228,255)" fill-rule="evenodd" d="M25.32533264 41.75566864c1.49433327.67866516 3.13866806 1.02266693 4.8876667 1.02266693.10266686 0 .20699883-.00133514.30900002-.00533295 1.6483345-.03800201 3.14166641-.46067047 4.44166946-1.2606697 1.08833313-.66899872 2.03399659-1.597332 2.81099701-2.76399994 1.34500122-2.0149994 1.8856659-4.31100083 2.08833313-5.5.14167786-.82126236-.2787094-1.63684464-1.0298233-1.997921-.7511139-.36107635-1.6506195-.17999648-2.20351029.44358826-.99933242 1.12766648-3.69166564 3.74966813-7.09633255 3.74966813-3.5063324 0-6.9193344-2.71866608-8.2243328-3.88866806-.62825776-.5627327-1.55599404-.6337738-2.26260758-.17326165-.70661354.46051216-1.01621056 1.33794594-.7550602 2.13992882l.01966668.05766678c.44033432 1.222332 1.46466636 3.56966782 3.37666702 5.56666565 1.076334 1.12400055 2.30033302 2.00200271 3.6376667 2.60966873zm-3.15600014-3.07067108c-1.81299972-1.89333344-2.79333305-4.12399674-3.22133255-5.30333328l-.01133346-.02899933c-.1831665-.51575852.00586128-1.09011078.4595356-1.39627457.45367622-.3061657 1.05703354-.26656341 1.46679687.09627533 1.36166764 1.22000122 4.93266678 4.05766678 8.67033386 4.05766678 3.67666626 0 6.53733063-2.77899933 7.59799958-3.97499848.355484-.40053749.93357086-.51658248 1.41609573-.28426551.48252106.23231697.75232315.75658989.66090393 1.28426551-.19366836 1.13666535-.70933151 3.32966614-1.98600006 5.24399949-.72299957 1.08499908-1.5996666 1.94833374-2.60533142 2.56666565-1.19700241.73600006-2.57933426 1.1269989-4.1080017 1.16233444-1.76433183.0403328-3.41666604-.28300095-4.90633393-.9596672-1.26133347-.5723343-2.41599846-1.40133286-3.43333245-2.46366883zm8.048666 1.51900482c-1.54533195 0-2.9766655-.3393364-4.25799942-1.01000214-1.11299896-.5823326-2.11999893-1.41766738-2.99266624-2.48266601l-1.1206665-1.36666489 1.54166603.86666489.07299995.04066467c2.11133385 1.17333603 4.1546669 1.76667023 6.07333374 1.76667023 1.93666649 0 3.8666668-.60333634 5.73566628-1.79300308.14500045-.09233094.29100036-.18899918.43333435-.2879982l1.0803337-.74466706-.59366607 1.16999817c-.55700302 1.09733582-1.26133347 1.97566986-2.0933342 2.6103363-1.02666855.78333283-2.24933243 1.19666672-3.63333511 1.22833253-.08199883.0015564-.16388703.00233459-.2456665.00233459zm4.65833664-2.9706688c-1.10533523 1.48500062-2.58966827 2.25766755-4.42766761 2.29999924-2.1398201.05029679-4.01268387-.57411575-5.58699227-1.85993576 1.60716248.67174149 3.17269707 1.01126862 4.67165756 1.01126862 1.80633545 0 3.6000023-.48733139 5.34300232-1.4513321z"/>
        <path fill="rgb(71,114,229)" fill-rule="evenodd" d="M19.73333333 17.33333333c.123.48966667.40433334 1.63333334 1.37933334 1.47433334 1.56-.25666667 2.093-2.23533334 1.76-3.28166667-.333-1.04633333-1.99933334-2.522-3.94933334-1.75933333-1.95.76266666-3.32966666 3.85266666-3.04433333 6.516h-2.393c-.37235959-.00280782-.68489405.2798925-.71933333.65066666-.02766667.35333334.01466666.725.30566666.76166667C14.76666667 21.90933333 15.26 22.537 15.26 24.15633333c0 2.23533334-.03566667 2.76666667-.23833333 4.26666667-.095.70466667-.873 2.74733333.80933333 3.08133333 1.617.321 2.38466667-1.60566666 2.42566667-3.99533333.03566666-2.08066667-.047-2.94866667 0-3.71C18.334 22.54633333 19.773 21.77666667 20.938 21.73033333c1.33766667-.05366666 1.23066667-1.27533333.92166667-1.36666666-.41533334-.12366667-3.187 0-3.187 0S18.265 19.457 18.58966667 18.045c.23833333-1.03366667.991-1.31433333 1.14366666-.71166667z"/>
        <path fill="rgb(219,228,255)" fill-rule="evenodd" d="M15.8000002 31.66966534c.1241188.02502441.25038432.03786087.37699985.03833389.3691864.00222397.7274456-.12517548 1.01233291-.36000061.75233269-.60766602 1.20199967-2.00466442 1.23333359-3.8333311.01844978-1.08030892.00531197-1.81902314-.0052948-2.41537286l-.00037193-.02096176-.0000267-.00143051c-.0096531-.52825737-.01662064-.90955544.00535964-1.2652359.04066658-.66166687.49066735-1.10466576.86100006-1.35966683.49329758-.33124923 1.06726075-.52237701 1.66066742-.5529995.85133362-.03400039 1.21466637-.5230007 1.27066613-.96966743.04366684-.347332-.0889988-.65733337-.30833245-.72399902-.39233398-.11700058-2.53533363-.036335-3.12033462-.01200104-.08733368-.2670002-.28066635-1.03433227-.03333283-2.10966682.14166642-.61566544.46266747-.89699936.64566803-.89699936.08199883-.00133324.14033127.06200027.1716652.18700027l.00233459.008667c.11366653.45299911.40333176 1.60733223 1.35433197 1.60733223.0708046-.00019455.1414795-.00610161.21133423-.01766587.63033295-.10400009 1.1566658-.47500038 1.5233326-1.07299995.44166755-.72066689.59333228-1.71733284.36833381-2.42399979-.1819992-.57166672-.7713337-1.34166717-1.6780014-1.77500057-.55766678-.26666641-1.44233322-.5-2.4873314-.09033299-.97500038.38066674-1.8453331 1.31466675-2.451334 2.63033295-.55666732 1.2076664-.81500053 2.61066628-.71500015 3.87433434h-2.21033287c-.45949077-.00098038-.84354019.34935188-.8846674.8069992-.05666637.72299958.2140007.91033364.45066739.94033432.82433319.1040001 1.32599926.30366516 1.62433243.64733124.2890005.33300018.41766739.8413353.41766739 1.6483345 0 2.27466584-.04166699 2.79933358-.23666668 4.24533272-.01399994.10433388-.04500008.24266625-.08066655.40433312-.1430006.64433193-.35833358 1.61833477.0666666 2.26900005.20099927.30799866.52166653.50766754.95499993.59366608zm-2.8666668-10.72199917c.02677822-.28472138.26669407-.50177384.55266666-.5l2.57699967.0020008-.01966668-.1843338c-.13433265-1.25266647.1083336-2.664999.66933442-3.88399887.56099891-1.21900081 1.38833236-2.11533355 2.26933288-2.45900058.71941948-.28944874 1.5277958-.26049996 2.2246666.07966614.81633377.3896675 1.34366798 1.0720005 1.50366783 1.57533359.16833114.52433395.10666656 1.43066597-.33333397 2.14900017-.21933365.35766601-.62166786.807333-1.29333305.91799927-.72166825.1186676-1.00533295-.61166573-1.18833352-1.34199906l-.0023346-.00866699c-.06899833-.2753334-.25300025-.43899918-.49299811-.43899918H19.394001c-.33800125.00333214-.78499985.36633301-.96666718 1.15566635-.33333397 1.45000077.0763321 2.38533402.09366608 2.42433358l.0466671.10333252.11300087-.00499916c1.05766678-.04733467 2.83833313-.0909996 3.1289978-.00766755.04366684.027668.11733437.21266747.06000137.44599915-.05166626.21066666-.24266624.5680008-.93799972.59600067-1.30366707.05200005-2.76033402.91766739-2.8409996 2.22533417-.02273179.3646965-.0158329.747303-.00633812 1.27396774l.0003376.01869965.00032425.01816559c.0106163.59290123.02382087 1.3305149.00534248 2.40649986-.0296669 1.72966576-.43400002 3.03400135-1.10933304 3.57866764-.31533432.25600052-.69133377.34033203-1.11733437.25600052-.34633255-.06900025-.58866596-.21566773-.74099922-.44900131-.34833336-.53333283-.1513338-1.42466736-.02066707-2.01500035.03733348-.17033195.06933307-.31599998.08533382-.43333244.20833302-1.54566765.23966599-2.10700035.23966599-4.28966713 0-1.74333382-.58833313-2.40600014-2.33333302-2.62666702-.18400001-.02300072-.17333317-.41666603-.16033363-.58333397z"/>
        <path fill="rgb(71,114,229)" fill-rule="evenodd" d="M23.16833333 20.049s-.052 2.147 0 2.86c.07533334 1.03866667.46366667 3.175 2.818 3.06666667C28.34066667 25.86733333 29.053 24.088 29.08966667 22.838c.01933333-.67433333.01766666-1.60766667.01233333-2.32466667-.0023109-.28209765.10813564-.55343593.30680015-.7537278.1986645-.2002919.46909273-.31294833.75119985-.31293886.56309604.00014402 1.02741569.44131362 1.05633333 1.00366666.051.984.11233334 2.47233334.07866667 3.429-.03766667 1.075.158 3.47766667-1.31333333 5.306-.99666667 1.24-3.28166667 1.552-4.315 1.231-1.03333334-.321-3.81033334-.84666666-4.81733334-5.153-.23133333-.99-.31966666-3.155 0-4.06666666.357-1.01666667.68666667-1.56666667 1.936-1.531.21023177.00339576.37978713.17309869.383.38333333z"/>
        <path fill="rgb(219,228,255)" fill-rule="evenodd" d="M25.61566544 30.57500076c.26533317.08200074.60233306.125.97633361.125 1.18266678 0 2.73166657-.42933273 3.51833344-1.40833282 1.32166672-1.64066696 1.33533478-3.70733452 1.3433342-4.9406681.00133133-.17700005.00233268-.33033181.00699997-.46366692.03333282-.94533158-.02433396-2.39433289-.0786667-3.44366646-.0343952-.6648426-.5935955-1.180439-1.25904082-1.16086388-.66544533.01957321-1.19337082.56714821-1.18862534 1.23286438.00533295.68066597.00733185 1.63533402-.01233482 2.31866646-.01333428.47599983-.21899987 2.85199928-2.94433403 2.97599983-.05399895.00366593-.10699845.00366593-.1589985.00366593-1.87366676 0-2.3876667-1.57499886-2.48533439-2.91699982-.04707908-.64343834-.00723648-2.50441551-.00083351-2.80340767.00053215-.02488708.00083351-.03895378.00083351-.0405922v-.0039997c-.00086021-.3010292-.24234772-.54607201-.54333305-.55133248-1.39766693-.04100036-1.75133324.65499878-2.09766579 1.64266587-.34033394.96966743-.23833465 3.15800094-.00500107 4.15966606.41266632 1.77000045 1.1760006 3.1206665 2.2670002 4.0166664.91233254.74766923 1.83033371 1.01666833 2.4386673 1.19166757.08099937.02400016.15600014.04566764.22266579.06666755zm-4.60899926-9.32366752c.33600045-.95699883.61600113-1.42133332 1.66200066-1.42133332v.00066758c.03633308 0 .07366562.00066566.1123333.00133323.1191864.00133133.2163887.09589577.22099876.21500016-.00333214.11699867-.05133247 2.16633224 0 2.87366676.15200043 2.08733177 1.15000153 3.2263317 2.81866837 3.2263317.08566665 0 .17300033-.0039978.17300033-.0039978 2.34166527-.10666847 3.22099877-1.84433364 3.2626648-3.30000114.01966858-.6883335.01766777-1.64733314.01233291-2.3303337-.00202942-.48352624.38183022-.88049126.86515046-.89468957.48332214-.0142002.8898239.35954476.91618347.84235573.05400085 1.04266739.1119995 2.48133469.07866668 3.41466713-.00499916.13966751-.00699997.29333496-.00699997.47299957-.00799942 1.18966675-.02133178 3.18200112-1.27000045 4.73333359-.91833115 1.14133453-3.10866547 1.4936676-4.13699913 1.17466736-.06900025-.02033234-.14533425-.0423336-.22833443-.06666565-1.15299988-.33600235-3.55599976-1.03533554-4.47466469-4.96466827-.22100067-.9449997-.31100082-3.10099984-.00500107-3.97333336z"/>
        <path fill="rgb(71,114,229)" fill-rule="evenodd" d="M31.95133333 21.362c.09818564-.86520544.87276682-1.49134255 1.73933334-1.406.47166666.04666667.928.186 1.16666666.51533333.45766667.63333334.47233334 1.86666667.44933334 2.464-.00168379.03250533.01957706.06176675.05101223.07020842.03143516.00844167.06449457-.00623247.0793211-.03520842.26466667-.502.85933333-1.491 1.656-1.97566666 1.094-.66666667 3.56866667-.489 4.37733333 1.98433333C42.279 25.45233333 43.40366667 27.83633333 43.037 29.15933333c-.29733333 1.07333334-2.961 1.37466667-3.53333333-.32866666-.736-2.19666667-.075-3.16666667-1.082-3.61366667-1.66466667-.73833333-2.73933334 1.92133333-3.32933334 3.72066667-.72533333 2.21166666-3.644 3.17433333-3.479-2.24733334.08166667-2.61233333.22166667-4.305.338-5.32833333z"/>
        <path fill="rgb(219,228,255)" fill-rule="evenodd" d="M33.01766586 30.8453331c.06924057.0120163.13939286.0180397.2096672.01800156.80599976 0 1.66600038-.777668 2.0256653-1.875.25366973-.77266694 1.02600097-3.1273346 2.1650009-3.63333512.30500031-.1353321.61133576-.13066482.93833543.01433373.48166656.21366691.50766372.54100036.56499862 1.2583332.04299927.54366684.10233307 1.28933335.42666626 2.25600052.32666779.97500038 1.2543335 1.31933212 2.0403328 1.31933212h.07100296c.86733246-.0229988 1.5823326-.43366622 1.73899841-.99833297.29266739-1.05799866-.2883339-2.66866493-.96099853-4.53333283-.20466996-.56733322-.41633606-1.15399933-.60933686-1.74399948-.45233154-1.3833332-1.35832977-1.97333336-2.03899765-2.22500038-.86966705-.32133293-1.91233444-.2583332-2.58333206.14999962-.67100143.40833473-1.19833374 1.14533424-1.52666855 1.70000076-.00300217-.68933296-.09000015-1.62866592-.48699951-2.17866707-.23566818-.32600021-.66799927-.52266693-1.28466797-.58366584-.95634079-.09079934-1.80996513.59920883-1.9216652 1.55333328-.10833358.95599937-.25500106 2.6586666-.336668 5.34199905-.0403328 1.29866791.0930004 2.32100105.39299964 3.03866768.34233475.81633186.82799912 1.06033325 1.17566681 1.12133217zm-.89966583-9.46299934l-.16666603-.0189991.16833305.0189991c.09108353-.77298356.78240204-1.332016 1.5573349-1.25933266.51766587.05133247.86999894.20166588 1.04733277.44733238.4363327.6040001.43733215 1.8516674.41766739 2.36000061-.00424576.11014938.06832885.20856667.17481231.23706246.10648728.0284977.2185135-.02051545.26985169-.11806298.27233505-.5170002.84199905-1.45266533 1.59500122-1.9109993.49433517-.30033302 1.39433288-.4553337 2.29433441-.12199974.61166763.22599984 1.42699814.75933266 1.83766556 2.01566697.19466781.5949993.40699768 1.1839981.61266708 1.75366592.62633133 1.73600006 1.21766663 3.37566757.9533348 4.33066559-.11566924.41766739-.71566772.7350006-1.42667007.75366783-.68166732.01799965-1.50733184-.25766563-1.78633117-1.09100151-.31066895-.92899895-.36633301-1.6206665-.41066742-2.17633248-.0573349-.72133255-.09899902-1.24266624-.76166535-1.53666687-.41233444-.18300056-.81900024-.18766593-1.20900344-.01433372-1.14233017.50766754-1.88632965 2.43200111-2.34633255 3.83533478-.31066513.94633293-1.05066681 1.64433288-1.70800019 1.64433288-.05127716.00003434-.10246277-.00431633-.15299988-.01300048-.87799835-.15499878-1.3599987-1.5826664-1.29333114-3.82166672.07966614-2.6716652.22533417-4.36466599.33333206-5.31433296z"/>
      </g>
    </g>
  </g>
</svg>
