<svg xmlns="http://www.w3.org/2000/svg" xmlns:xlink="http://www.w3.org/1999/xlink" width="32" height="32" viewBox="0 0 32 32">
  <defs>
    <rect id="rect-2" width="20" height="20" x="6" y="6"/>
    <mask id="mask-3" maskContentUnits="userSpaceOnUse" maskUnits="userSpaceOnUse">
      <rect width="32" height="32" x="0" y="0" fill="black"/>
      <use fill="white" xlink:href="#rect-2"/>
    </mask>
  </defs>
  <g>
    <g opacity=".15">
      <ellipse cx="16" cy="16" fill="rgb(140,132,243)" rx="16" ry="16"/>
    </g>
    <g>
      <use fill="none" xlink:href="#rect-2"/>
      <g mask="url(#mask-3)">
        <path fill="rgb(129,92,234)" fill-rule="evenodd" d="M25.44124985 14.90441895c.29893112 1.19573974.49821853 2.46618652.54803848 3.61206054.04981995 1.29541016-.07472992 2.21710205-.34875107 2.83984375-.27402115.64770508-.69750595.99645996-1.19572067 1.14593506-.47330856.12451172-1.02134705.04980469-1.59429932-.17437744-.97151947-.39855957-2.09251022-1.24554443-3.18858719-2.26690674-.77223587-.74731445-2.21706771-1.12097168-3.66189956-1.12097168-1.44482804 0-2.88965988.37365723-3.66189575 1.12097168-1.09607697 1.0213623-2.21706772 1.86834717-3.188591 2.26690674-.57294846.24908447-1.12099076.29888916-1.59429551.17437744-.5231285-.1494751-.92170334-.52313232-1.19572067-1.12097168-.27402115-.64770508-.39857483-1.56939697-.34875488-2.83984375.04982376-1.14593506.24911117-2.41638183.5480423-3.61212158.27401733-1.14587402.67259216-2.21704102 1.12098693-3.03912354 1.73410797-3.07183838 3.61603546-2.59613037 5.86627579-2.02728271l.03760147.00952148c.7224121.17437744 1.4946518.37365723 2.29179764.4484253h.24911117c.79714585-.07476807 1.56938172-.27404786 2.29179764-.4484253 2.26688767-.59783935 4.16011429-1.07116699 5.90387344 1.99285889.44839478.82208252.82205964 1.89324951 1.12099076 3.03912354zm-1.24554062 6.72595214c.24910736-.07470703.44839477-.27404785.59786224-.6227417.22419739-.52313232.32383728-1.29541015.27401734-2.44128418-.04981995-1.09606933-.24910736-2.29180908-.52312851-3.4376831-.27402115-1.09613037-.62277222-2.06762695-1.04625702-2.8149414-1.3581009-2.44464112-2.9364891-2.04986573-4.80820084-1.58172608l-.04941559.0123291c-.77223968.19927979-1.56938553.39855957-2.4661789.47332764h-.37366103c-.8718834-.07476807-1.66902924-.27404785-2.4412651-.47332764-1.89322663-.49822998-3.48752213-.89678955-4.85762025 1.56939697-.4234848.74731446-.77223587 1.74377442-1.04625702 2.8149414-.2989273 1.14587403-.47330475 2.36651612-.5231285 3.43768311-.04981995 1.14587403.04982375 1.91815186.24911117 2.39141846.14946365.34875488.34875107.54803467.59785843.62280274.27402115.09960937.62277221.02490234 1.02134704-.12457276.8469696-.32385254 1.86831665-1.12097168 2.88965989-2.06762695.97152328-.89678955 2.64055252-1.37005615 4.30958175-1.37005615 1.66902542 0 3.33805466.4732666 4.28466797 1.41992187.99643326.94659424 2.0177803 1.71881104 2.88965988 2.06756592.39857483.1494751.7473259.19927979 1.02134705.12457275zm-10.48748017-7.97143554c-.24910736-.22418213-.54803848-.39855957-.89678955-.42352295-.02490997-.3237915-.17437744-.64764405-.39857482-.87182617l-.02490998-.02496338c-.27402115-.27398682-.62277221-.42346192-1.02134704-.42346192-.39857483 0-.77223587.17437744-1.02134324.42346192-.2242012.22424316-.39857482.54803466-.4234848.89678955-.34875488.02496338-.64768219.17437744-.89679336.3986206l-.02490998.02490235c-.27402114.27398681-.4234848.6227417-.4234848 1.0213623 0 .39855957.17437744.7722168.4234848 1.02130127.24910736.2491455.54803849.39855957.92170334.42352295.02490998.34875488.17437363.67254639.4234848.89678955.27401734.27398682.6227684.42346192 1.02134324.42346192.39857483 0 .77223587-.17437745 1.02134704-.42346192.22419739-.2491455.39857483-.54803467.4234848-.89678955.34875107-.02496338.67259217-.17437744.89678955-.42352295.27402115-.27398682.4234848-.6227417.4234848-1.02130127 0-.3986206-.17437743-.77227783-.4234848-1.0213623zm6.62629319-1.6192627c.48120498 0 .87187957.39068604.87187957.8718872 0 .48120118-.39067459.87188722-.87187957.87188722-.48120499 0-.87187958-.39068604-.87187958-.87188721s.3906746-.8718872.87187958-.8718872zm-7.62272644 3.1636963c.14946747 0 .27402115-.0498047.37366485-.14941407.09964371-.09967041.14946366-.22424317.14946366-.37371826 0-.14941407-.04981995-.27398682-.14946366-.37365723-.0996437-.09960938-.22419738-.14941406-.37366485-.14941406h-.34875107c-.27402115 0-.47330856-.22424317-.47330856-.47332764v-.34875488c0-.12457276-.04981995-.24908447-.12455368-.34875488l-.02490998-.02490235c-.0996437-.0996704-.22419739-.1494751-.37366104-.1494751-.14946747 0-.27402115.0498047-.37366486.1494751-.0996437.09960938-.14946365.22418213-.14946365.37365723v.34875488c0 .27398682-.22419739.47332764-.47330856.47332764h-.34875107c-.12455368 0-.24910736.04980468-.34875107.12451172l-.02491379.02490234c-.0996437.09967041-.14946365.22424316-.14946365.37365723 0 .1494751.07473373.27404785.14946365.34875488.09964371.0996704.2242012.1494751.37366486.1494751h.34875107c.27402115 0 .47330856.22424316.47330856.47332763v.34875489c0 .1494751.04981995.27398681.14946365.37365722.09964371.09967041.2241974.1494751.37366486.1494751.14946365 0 .27401733-.04980469.37366104-.1494751.0996437-.0996704.14946366-.22418213.14946366-.37365722v-.32385254c0-.27398682.2242012-.47332764.47330856-.47332764h.34875107zm5.8540535-1.39501954c.48120498 0 .87187957.39068603.87187957.8718872 0 .48120118-.39067459.87188721-.87187958.87188721-.48120498 0-.87187957-.39068603-.87187957-.8718872 0-.48120118.39067459-.87188721.87187957-.87188721zm4.40922164.8718872c0-.48120117-.39067459-.8718872-.87187957-.8718872-.481205 0-.87187958.39068603-.87187958.8718872 0 .48120118.39067459.87188721.87187958.87188721.48120498 0 .87187957-.39068603.87187957-.8718872zm-1.76866913 1.76867676c0-.48120117-.39067459-.8718872-.87187957-.8718872-.48120499 0-.87187958.39068603-.87187958.8718872 0 .48120118.3906746.87188721.87187958.87188721s.87187957-.39068603.87187957-.8718872z"/>
      </g>
    </g>
  </g>
</svg>
