<svg xmlns="http://www.w3.org/2000/svg" xmlns:xlink="http://www.w3.org/1999/xlink" width="56" height="56" viewBox="0 0 56 56">
  <defs>
    <rect id="rect-2" width="34" height="34" x="11" y="11"/>
    <mask id="mask-3" maskContentUnits="userSpaceOnUse" maskUnits="userSpaceOnUse">
      <rect width="56" height="56" x="0" y="0" fill="black"/>
      <use fill="white" xlink:href="#rect-2"/>
    </mask>
  </defs>
  <g>
    <path fill="rgb(255,236,241)" fill-rule="evenodd" d="M28 0c15.45362069 0 28 12.54637931 28 28S43.45362069 56 28 56 0 43.45362069 0 28 12.54637931 0 28 0z"/>
    <g>
      <use fill="none" xlink:href="#rect-2"/>
      <g mask="url(#mask-3)">
        <path fill="rgb(232,112,148)" fill-rule="evenodd" d="M34.7257037 39.73251852H16.95c-2.31892593 0-4.2052963-1.88668519-4.2052963-4.2052963-.00057686-1.22546344.53370736-2.39015016 1.46294445-3.18907407.0469074-.04061111.0979074-.08185185.15016666-.12183334 1.02979832-.93415313 1.6178927-2.2592801 1.61972223-3.64964814v-3.00427778c0-5.43748148 4.42346296-9.86094445 9.86094444-9.86094445.09444445 0 .24083333 0 .40485185.00975926l-.06925926 1.25737037c-.13348148-.00724074-.25594444-.00787037-.33653703-.00787037-4.743 0-8.60168519 3.85868519-8.60168519 8.60168519v3.00427778c-.00161052 1.75661103-.74855584 3.43002943-2.0551111 4.60416666l-.02172223.01951852-.0232963.01731482c-.0362037.02707407-.07114815.05509259-.10388889.08342592-.93521292.80311397-1.2716649 2.10349997-.84331537 3.25941171s1.53095901 1.9230206 2.76368574 1.92275496h17.7735c1.23202066.00010542 2.33396784-.76651938 2.76225502-1.92170118.42828718-1.1551818.0924339-2.45487552-.84188465-3.25794697l-.00251851-.00188889c-.03148149-.0277037-.06296297-.05351852-.09822223-.07901852l-.02235185-.01668518-.0210926-.01888889c-1.05821645-.94989648-1.75889003-2.23379803-1.98522221-3.63768519l1.24351852-.19833333c.17903492 1.10991954.73023451 2.12594747 1.56305555 2.88118519.04911111.03746296.09633333.07555555.14324074.11616666.93051254.79800434 1.46564798 1.96292736 1.46483333 3.18875926 0 2.31861111-1.88668518 4.2052963-4.2056111 4.2052963z"/>
        <path fill="rgb(232,112,148)" fill-rule="evenodd" d="M25.84162963 44.45285185c-3.25424074 0-5.90088889-2.64727778-5.90088889-5.9012037H21.2c0 2.55944444 2.0825 4.64194444 4.64225926 4.64194444 2.55975926 0 4.64162963-2.0825 4.64162963-4.64194444h1.25925926c0 3.25392592-2.6475926 5.9012037-5.90151852 5.9012037z"/>
        <path fill="rgb(232,112,148)" fill-rule="evenodd" d="M27.60700798 23.60712814c1.32981682 3.21085549 4.46250343 5.30481339 7.93784523 5.30583573 2.28079987.005867 4.4691391-.9010315 6.07718658-2.51852036 2.23514176-2.15772247 3.1318245-5.35373306 2.34528733-8.35922622-.78653717-3.00549317-3.13384247-5.35255433-6.13941574-6.13877965-3.00557709-.78622627-6.20149422.1107874-8.358984 2.34615422-2.45692825 2.45795059-3.19173813 6.1536808-1.8619194 9.36453628zm.60265923-3.28860855c0-4.04474258 3.29076004-7.335186 7.335186-7.335186 4.04473877 0 7.33518219 3.29044342 7.33518219 7.335186 0 4.04473877-3.29075623 7.3351841-7.33518219 7.3351841s-7.335186-3.29044533-7.335186-7.3351841z"/>
        <path fill="rgb(232,112,148)" fill-rule="evenodd" d="M30.2717037 26.50462963c-.25473424.00020042-.48449142-.1531099-.5820843-.38840801-.0975929-.23529811-.04379072-.50621828.13630653-.68636977l10.51481481-10.51481481c.24584854-.24593546.64451823-.24600593.8904537-.0001574.24593546.24584853.24600594.64451823.00015741.8904537l-10.51481481 10.5148148c-.11785596.11818573-.27792652.18457027-.44483334.18448149z"/>
      </g>
    </g>
  </g>
</svg>
