<svg xmlns="http://www.w3.org/2000/svg" xmlns:xlink="http://www.w3.org/1999/xlink" width="280" height="229.091" viewBox="0 0 280 229.091">
  <defs>
    <rect id="rect-1" width="280" height="229.091" x="0" y="0"/>
    <mask id="mask-2" maskContentUnits="userSpaceOnUse" maskUnits="userSpaceOnUse">
      <rect width="280" height="229.091" x="0" y="0" fill="black"/>
      <use fill="white" xlink:href="#rect-1"/>
    </mask>
    <linearGradient id="linearGradient-4" x1="20.672" x2="43.27" y1="181.119" y2="181.119" gradientUnits="userSpaceOnUse">
      <stop offset="0" stop-color="rgb(255,148,148)"/>
      <stop offset="1" stop-color="rgb(228,35,118)"/>
    </linearGradient>
    <linearGradient id="linearGradient-13" x1="29.667" x2="35.751" y1="48.338" y2="48.338" gradientUnits="userSpaceOnUse">
      <stop offset="0" stop-color="rgb(255,231,163)"/>
      <stop offset=".5" stop-color="rgb(255,202,5)"/>
      <stop offset="1" stop-color="rgb(250,172,24)"/>
    </linearGradient>
    <linearGradient id="linearGradient-21" x1="263.035" x2="273.165" y1="104.567" y2="104.567" gradientUnits="userSpaceOnUse">
      <stop offset="0" stop-color="rgb(237,30,121)"/>
      <stop offset="1" stop-color="rgb(141,63,255)"/>
    </linearGradient>
    <linearGradient id="linearGradient-23" x1="18.378" x2="28.509" y1="12.931" y2="12.931" gradientUnits="userSpaceOnUse">
      <stop offset="0" stop-color="rgb(243,127,123)"/>
      <stop offset=".5" stop-color="rgb(237,61,87)"/>
      <stop offset="1" stop-color="rgb(221,30,71)"/>
    </linearGradient>
    <linearGradient id="linearGradient-25" x1="106.222" x2="116.353" y1="212.66" y2="212.66" gradientUnits="userSpaceOnUse">
      <stop offset="0" stop-color="rgb(0,91,234)"/>
      <stop offset="1" stop-color="rgb(0,198,251)"/>
    </linearGradient>
    <linearGradient id="linearGradient-27" x1="143.933" x2="154.064" y1="8.502" y2="8.502" gradientUnits="userSpaceOnUse">
      <stop offset="0" stop-color="rgb(255,231,163)"/>
      <stop offset=".5" stop-color="rgb(255,202,5)"/>
      <stop offset="1" stop-color="rgb(250,172,24)"/>
    </linearGradient>
    <linearGradient id="linearGradient-30" x1="56.064" x2="219.049" y1="111.287" y2="111.287" gradientUnits="userSpaceOnUse">
      <stop offset="0" stop-color="rgb(0,91,234)"/>
      <stop offset="1" stop-color="rgb(0,198,251)"/>
    </linearGradient>
    <linearGradient id="linearGradient-34" x1="61.027" x2="80.093" y1="84.293" y2="84.293" gradientUnits="userSpaceOnUse">
      <stop offset="0" stop-color="rgb(237,30,121)"/>
      <stop offset="1" stop-color="rgb(141,63,255)"/>
    </linearGradient>
    <linearGradient id="linearGradient-36" x1="61.269" x2="79.851" y1="111.224" y2="111.224" gradientUnits="userSpaceOnUse">
      <stop offset="0" stop-color="rgb(255,231,163)"/>
      <stop offset=".5" stop-color="rgb(255,202,5)"/>
      <stop offset="1" stop-color="rgb(250,172,24)"/>
    </linearGradient>
    <linearGradient id="linearGradient-38" x1="61.269" x2="79.609" y1="138.498" y2="138.498" gradientUnits="userSpaceOnUse">
      <stop offset="0" stop-color="rgb(0,198,251)"/>
      <stop offset="1" stop-color="rgb(178,251,112)"/>
    </linearGradient>
  </defs>
  <g>
    <use fill="none" xlink:href="#rect-1"/>
    <g mask="url(#mask-2)">
      <path fill="url(#linearGradient-4)" fill-rule="evenodd" d="M40.82909393 181.9999778l2.16363526 1.69274903c.40735626.31726074.52576446.88232422.27999878 1.33642578l-2.30363465 3.81811523c-.2468338.45324707-.79367828.65002442-1.27272796.45825196l-2.54545594-1.01818848c-.48045349.33984375-.99179077.63391113-1.52727508.87817383l-.38181305 2.7109375c-.0710144.5189209-.51994324.9020996-1.04364014.89086914h-4.47999573c-.52797698.01049805-.97854614-.37963867-1.04364013-.90368652l-.38182068-2.69812012c-.53871918-.23791504-1.05067444-.53222656-1.52726746-.87817383l-2.54545593 1.01818848c-.4823227.17785644-1.02237701-.02197266-1.27272797-.47094727l-2.23999786-3.8182373c-.25325012-.4519043-.14598083-1.02038574.25453949-1.34899903l2.16364288-1.6800537c-.01734161-.29675294-.01734161-.59423829 0-.89086915-.01755523-.29248047-.01755523-.58569336 0-.87817383l-2.16364288-1.69274902c-.40533447-.32580566-.5133133-.89807129-.25453949-1.3491211l2.2527237-3.81811523c.26141357-.43591308.79351043-.6274414 1.27272796-.45825195l2.54545593 1.01818848c.4804535-.33996582.99179077-.63391114 1.52727509-.87817383l.38181305-2.7109375c.07563782-.51123047.51408386-.89013672 1.0309143-.89086914h4.51818085c.52585602-.00476074.97310639.38244629 1.0436325.90368652l.38182069 2.69812012c.5387268.23791504 1.05068207.53222656 1.52726745.87817383l2.54545594-1.01818848c.48232269-.17785645 1.02237701.02185059 1.27272796.47094727l2.23999787 3.81811523c.25325012.45202637.14598083 1.02050781-.2545395 1.3491211l-2.16363525 1.6800537v1.78173829zm-12.46803283.5534668c.60476684 1.46008301 2.02950286 2.41210938 3.60984802 2.41210938v.06359863c1.04631805-.0032959 2.04789734-.42480469 2.78176117-1.1706543.73386383-.74572754 1.13910675-1.75402832 1.12551117-2.80029297 0-1.58032226-.9519806-3.00500488-2.41202545-3.60986328-1.46004486-.60473632-3.14063263-.27038574-4.25811005.8470459-1.11746979 1.11743164-1.45175934 2.7980957-.84698486 4.25805664z"/>
      <g opacity=".1">
        <path fill="rgb(0,0,0)" fill-rule="evenodd" d="M223.03524497 183.7401398l20.94873992 11.11052342c2.0039664 1.06283794 2.76804331 3.55269397 1.70520537 5.55666038l-1.05636015 1.9917526c-1.06283794 2.00396642-3.55269398 2.76804332-5.55666039 1.70520538l-20.94873992-11.11052341c-2.0039664-1.06283794-2.76804331-3.55269398-1.70520537-5.55666039l1.05636015-1.9917526c1.06283794-2.00396641 3.55269398-2.76804332 5.55666039-1.70520537z"/>
      </g>
      <path fill="rgb(255,255,255)" fill-rule="evenodd" d="M223.51681297 182.83752956l20.94873993 11.11052341c2.0039664 1.06283795 2.76804331 3.55269398 1.70520537 5.55666039l-1.05636015 1.9917526c-1.06283795 2.00396641-3.55269398 2.76804332-5.55666039 1.70520537l-20.94873992-11.1105234c-2.0039664-1.06283795-2.76804331-3.55269398-1.70520537-5.5566604l1.05636015-1.9917526c1.06283794-2.0039664 3.55269398-2.76804331 5.55666038-1.70520537z"/>
      <ellipse cx="222.664" cy="188.3" fill="rgb(2,204,170)" rx="3.042" ry="3.042"/>
      <path fill="rgb(230,243,252)" fill-rule="evenodd" d="M228.9001548 188.59280122l11.08795826 5.88068878c.3656873.19394853.5051174.64830182.31116886 1.01398912l-.19167825.36140673c-.19394853.3656873-.64830182.50511739-1.01398912.31116886l-11.08795826-5.88068878c-.3656873-.19394853-.5051174-.64830182-.31116887-1.01398912l.19167826-.36140673c.19394853-.3656873.64830182-.50511739 1.01398912-.31116886z"/>
      <path fill="rgb(230,243,252)" fill-rule="evenodd" d="M227.3043353 191.60580014l7.1863719 3.81141556c.3656873.19394853.5051174.64830182.31116887 1.01398912l-.19167826.36140672c-.19394853.3656873-.64830182.5051174-1.01398912.31116886l-7.1863719-3.81141555c-.3656873-.19394854-.5051174-.64830183-.31116887-1.01398913l.19167825-.36140672c.19394853-.3656873.64830183-.5051174 1.01398913-.31116886z"/>
      <g opacity=".1">
        <path fill="rgb(0,0,0)" fill-rule="evenodd" d="M30.11277348 44.57308988l23.2473536-4.6748246c2.22385289-.44719595 4.39240565.99522408 4.83960159 3.21907696l.44447036 2.21029892c.44719595 2.22385288-.99522408 4.39240564-3.21907696 4.83960158l-23.2473536 4.67482461c-2.22385289.44719594-4.39240565-.99522408-4.83960159-3.21907696l-.44447037-2.21029892c-.44719594-2.22385289.99522409-4.39240564 3.21907697-4.83960159z"/>
      </g>
      <path fill="rgb(255,255,255)" fill-rule="evenodd" d="M29.91604146 43.5513997l23.2473536-4.67482462c2.22385289-.44719594 4.39240564.99522408 4.83960159 3.21907697l.44447036 2.21029891c.44719594 2.22385289-.99522408 4.39240565-3.21907696 4.83960159l-23.2473536 4.6748246c-2.2238529.44719595-4.39240565-.99522407-4.8396016-3.21907696l-.44447036-2.21029891c-.44719594-2.22385289.99522408-4.39240565 3.21907697-4.83960159z"/>
      <g opacity=".7">
        <ellipse cx="32.709" cy="48.338" fill="url(#linearGradient-13)" rx="3.042" ry="3.042"/>
      </g>
      <path fill="rgb(230,243,252)" fill-rule="evenodd" d="M37.7278583 44.61964798l12.30459148-2.47433785c.40581257-.0816051.80153387.18161023.88313897.5874228l.08064987.4010623c.0816051.40581257-.18161024.80153388-.5874228.88313898l-12.30459148 2.47433785c-.40581257.0816051-.80153387-.18161023-.88313897-.5874228l-.08064987-.4010623c-.0816051-.40581257.18161024-.80153388.5874228-.88313898z"/>
      <path fill="rgb(230,243,252)" fill-rule="evenodd" d="M38.3954388 47.95586272l7.97490109-1.60367776c.40581257-.0816051.80153387.18161023.88313897.5874228l.08064987.4010623c.0816051.40581258-.18161024.80153388-.5874228.88313898l-7.9749011 1.60367776c-.40581257.0816051-.80153387-.18161023-.88313897-.5874228l-.08064987-.4010623c-.0816051-.40581258.18161024-.80153388.5874228-.88313898z"/>
      <ellipse cx="219.38" cy="29.311" fill="rgb(2,204,170)" rx="1.731" ry="1.731"/>
      <path fill="rgb(2,204,170)" fill-rule="evenodd" d="M224.2377994 29.45237236l10.42376327 4.35821888c.55502775.23205942.81723705.87107433.58517764 1.42610208l-.49445515 1.18261234c-.23205942.55502775-.87107433.81723706-1.42610208.58517764l-10.42376326-4.35821888c-.55502775-.23205941-.81723706-.87107433-.58517764-1.42610208l.49445515-1.18261234c.2320594-.55502773.8710743-.81723705 1.42610205-.58517765z"/>
      <ellipse cx="217.229" cy="34.44" fill="rgb(2,204,170)" rx="1.731" ry="1.731"/>
      <path fill="rgb(2,204,170)" fill-rule="evenodd" d="M222.10657996 34.58152466l10.42376326 4.35821889c.55502775.23205941.81723706.87107432.58517764 1.42610207l-.49445515 1.18261234c-.23205942.55502775-.87107433.81723706-1.42610208.58517764l-10.42376326-4.35821888c-.55502775-.23205941-.81723705-.87107433-.58517764-1.42610207l.49445515-1.18261235c.2320594-.55502773.8710743-.81723705 1.42610206-.58517765z"/>
      <g opacity=".8">
        <path fill="url(#linearGradient-21)" fill-rule="evenodd" d="M263.00909424 104.54184792c0 2.81164551 2.27926636 5.09082032 5.09091186 5.09082032 2.811615 0 5.09091187-2.27917481 5.09091187-5.09082032 0-2.8116455-2.27929688-5.09094238-5.09091187-5.09094238-2.8116455 0-5.09091186 2.27929687-5.09091186 5.09094238zm1.3618164.0255127c0-2.05957031 1.66955567-3.72912598 3.72909546-3.72912598.98901368 0 1.93753052.39294434 2.63687134 1.09228516.69934082.69934082 1.09222412 1.64782715 1.09222412 2.63684082 0 2.05944824-1.66958618 3.7290039-3.72909546 3.7290039-2.0595398 0-3.72909546-1.66955566-3.72909546-3.7290039z"/>
      </g>
      <path fill="url(#linearGradient-23)" fill-rule="evenodd" d="M18.3527298 12.90549538c0 2.81164551 2.27927398 5.09082032 5.09091186 5.09082032 2.81163025 0 5.09090424-2.2791748 5.09090424-5.09082032 0-2.8116455-2.27927399-5.09094238-5.09090424-5.09094238-2.81163788 0-5.09091186 2.27929688-5.09091186 5.09094238zM19.9881363 11.51072c.58045959-1.39465332 1.9449234-2.30126953 3.45550536-2.29614258 2.04959107.00695801 3.70937348 1.66674805 3.716362 3.71643067.00514221 1.51049805-.9015274 2.875-2.29614258 3.45544433-1.39461517.58044434-3.00164795.26220704-4.0697937-.8059082-1.06814575-1.06811523-1.38638305-2.6751709-.80593109-4.06982422z"/>
      <g opacity=".7">
        <path fill="url(#linearGradient-25)" fill-rule="evenodd" d="M106.19636536 212.63462136c0 2.8116455 2.27928161 5.09082031 5.09091186 5.09082031 2.81163025 0 5.09091187-2.2791748 5.09091187-5.09082031 0-2.8116455-2.27928162-5.09094238-5.09091187-5.09094238-2.81163025 0-5.09091186 2.27929687-5.09091186 5.09094238zm1.3618164.02539063c0-2.05957032 1.66957093-3.72912598 3.72909546-3.72912598.98901367 0 1.93751526.39294433 2.63685608 1.09228515.69934082.69934083 1.09222412 1.64782715 1.09222412 2.63684083 0 2.05944824-1.66957092 3.7290039-3.7290802 3.7290039-2.05952453 0-3.72909546-1.66955566-3.72909546-3.7290039z"/>
      </g>
      <g opacity=".7">
        <path fill="url(#linearGradient-27)" fill-rule="evenodd" d="M143.90727234 8.47641824c0 2.8116455 2.27928162 5.0908203 5.09091186 5.0908203 2.81163025 0 5.09091187-2.2791748 5.09091187-5.0908203 0-2.81164551-2.27928162-5.09094239-5.09091187-5.09094239-2.81163024 0-5.09091186 2.27929688-5.09091186 5.09094239zm1.3618164.02539062c0-2.05957031 1.66957093-3.72912598 3.72909546-3.72912598.98901368 0 1.93751526.39294434 2.63685608 1.09228516.69934082.69934082 1.09222412 1.64782715 1.09222412 2.63684082 0 2.05944824-1.66957092 3.7290039-3.7290802 3.7290039-2.05952453 0-3.72909545-1.66955566-3.72909545-3.7290039z"/>
      </g>
      <g opacity=".07">
        <path fill="rgb(0,0,0)" fill-rule="evenodd" d="M68.57454545 72.02363636h147.78909091C220.58108354 72.02363636 224 75.44255282 224 79.66v76.36363636c0 4.21744718-3.41891646 7.63636364-7.63636364 7.63636364H68.57454546c-4.21744719 0-7.63636364-3.41891646-7.63636364-7.63636364V79.66c0-4.21744718 3.41891645-7.63636364 7.63636363-7.63636364z"/>
      </g>
      <g opacity=".6">
        <path fill="url(#linearGradient-30)" fill-rule="evenodd" d="M63.63636364 65.50727273h147.7890909c4.21744719 0 7.63636364 3.41891645 7.63636364 7.63636363v76.36363637c0 4.21744718-3.41891645 7.63636363-7.63636363 7.63636363H63.63636364C59.41891646 157.14363636 56 153.72471991 56 149.50727273V73.14363636c0-4.21744718 3.41891646-7.63636363 7.63636364-7.63636363z"/>
      </g>
      <rect width=".993" height="8.095" x="69.822" y="93.825" fill="rgb(233,231,242)" rx="0" ry="0"/>
      <rect width=".993" height="8.82" x="69.822" y="120.515" fill="rgb(233,231,242)" rx="0" ry="0"/>
      <g opacity=".6">
        <ellipse cx="70.56" cy="84.293" fill="url(#linearGradient-34)" rx="9.533" ry="9.533"/>
      </g>
      <g opacity=".6">
        <ellipse cx="70.56" cy="111.224" fill="url(#linearGradient-36)" rx="9.291" ry="9.291"/>
      </g>
      <g opacity=".6">
        <ellipse cx="70.433" cy="138.498" fill="url(#linearGradient-38)" rx="9.176" ry="9.176"/>
      </g>
      <g opacity=".8">
        <path fill="rgb(255,255,255)" fill-rule="evenodd" d="M87.17181818 130.74727273h60.33454546c.68989378 0 1.25.56010622 1.25 1.25v2.47636363c0 .68989378-.56010622 1.25-1.25 1.25H87.17181818c-.68989378 0-1.25-.56010622-1.25-1.25v-2.47636363c0-.68989378.56010622-1.25 1.25-1.25z"/>
        <path fill="rgb(255,255,255)" fill-rule="evenodd" d="M87.30181818 139.3h43.79636364c.76164273 0 1.38.61835727 1.38 1.38v2.7509091c0 .76164272-.61835727 1.38-1.38 1.38H87.30181818c-.76164273 0-1.38-.61835728-1.38-1.38V140.68c0-.76164273.61835727-1.38 1.38-1.38z"/>
        <g opacity=".5">
          <path fill="rgb(255,255,255)" fill-rule="evenodd" d="M192.44545455 130.77272727h14.19818181c1.19213646 0 2.16.96786355 2.16 2.16v1.1909091c0 1.19213645-.96786354 2.16-2.16 2.16h-14.19818181c-1.19213646 0-2.16-.96786355-2.16-2.16v-1.1909091c0-1.19213645.96786354-2.16 2.16-2.16z"/>
        </g>
      </g>
      <g opacity=".8">
        <path fill="rgb(255,255,255)" fill-rule="evenodd" d="M87.17181818 104.56727273h60.33454546c.68989378 0 1.25.56010622 1.25 1.25v2.47636363c0 .68989378-.56010622 1.25-1.25 1.25H87.17181818c-.68989378 0-1.25-.56010622-1.25-1.25v-2.47636363c0-.68989378.56010622-1.25 1.25-1.25z"/>
        <path fill="rgb(255,255,255)" fill-rule="evenodd" d="M87.30181818 113.10727273h43.79636364c.76164273 0 1.38.61835726 1.38 1.38v2.75090909c0 .76164273-.61835727 1.38-1.38 1.38H87.30181818c-.76164273 0-1.38-.61835727-1.38-1.38v-2.7509091c0-.76164273.61835727-1.38 1.38-1.38z"/>
        <g opacity=".5">
          <path fill="rgb(255,255,255)" fill-rule="evenodd" d="M192.44545455 104.59272727h14.19818181c1.19213646 0 2.16.96786355 2.16 2.16v1.1909091c0 1.19213645-.96786354 2.16-2.16 2.16h-14.19818181c-1.19213646 0-2.16-.96786355-2.16-2.16v-1.1909091c0-1.19213645.96786354-2.16 2.16-2.16z"/>
        </g>
      </g>
      <g opacity=".8">
        <path fill="rgb(255,255,255)" fill-rule="evenodd" d="M87.17181818 76.18545455h60.33454546c.68989378 0 1.25.56010621 1.25 1.25v2.47636363c0 .68989378-.56010622 1.25-1.25 1.25H87.17181818c-.68989378 0-1.25-.56010622-1.25-1.25v-2.47636363c0-.68989379.56010622-1.25 1.25-1.25z"/>
        <path fill="rgb(255,255,255)" fill-rule="evenodd" d="M87.30181818 84.72545455h43.79636364c.76164273 0 1.38.61835726 1.38 1.38v2.75090909c0 .76164273-.61835727 1.38-1.38 1.38H87.30181818c-.76164273 0-1.38-.61835727-1.38-1.38v-2.7509091c0-.76164273.61835727-1.38 1.38-1.38z"/>
        <g opacity=".5">
          <path fill="rgb(255,255,255)" fill-rule="evenodd" d="M192.44545455 76.2109091h14.19818181c1.19213646 0 2.16.96786354 2.16 2.16v1.19090908c0 1.19213645-.96786354 2.16-2.16 2.16h-14.19818181c-1.19213646 0-2.16-.96786355-2.16-2.16V78.3709091c0-1.19213645.96786354-2.16 2.16-2.16z"/>
        </g>
      </g>
    </g>
  </g>
</svg>
