<svg xmlns="http://www.w3.org/2000/svg" xmlns:xlink="http://www.w3.org/1999/xlink" width="280" height="229.091" viewBox="0 0 280 229.091">
  <defs>
    <rect id="rect-1" width="280" height="229.091" x="0" y="0"/>
    <mask id="mask-2" maskContentUnits="userSpaceOnUse" maskUnits="userSpaceOnUse">
      <rect width="280" height="229.091" x="0" y="0" fill="black"/>
      <use fill="white" xlink:href="#rect-1"/>
    </mask>
    <path id="path-4" fill-rule="evenodd" d="M.00041962-.0004439v229.0909424h280V-.0004439h-280z"/>
    <mask id="mask-5" maskContentUnits="userSpaceOnUse" maskUnits="userSpaceOnUse">
      <rect width="280" height="229.091" x="0" y="0" fill="black"/>
      <use fill="white" xlink:href="#path-4"/>
    </mask>
    <linearGradient id="linearGradient-8" x1="251.746" x2="265.313" y1="13.72" y2="13.72" gradientUnits="userSpaceOnUse">
      <stop offset="0" stop-color="rgb(0,91,234)"/>
      <stop offset="1" stop-color="rgb(0,198,251)"/>
    </linearGradient>
    <linearGradient id="linearGradient-10" x1="2.864" x2="16.431" y1="143.372" y2="143.372" gradientUnits="userSpaceOnUse">
      <stop offset="0" stop-color="rgb(0,91,234)"/>
      <stop offset="1" stop-color="rgb(0,198,251)"/>
    </linearGradient>
    <linearGradient id="linearGradient-12" x1="224.688" x2="235.442" y1="211.145" y2="211.145" gradientUnits="userSpaceOnUse">
      <stop offset="0" stop-color="rgb(0,91,234)"/>
      <stop offset="1" stop-color="rgb(0,198,251)"/>
    </linearGradient>
    <linearGradient id="linearGradient-14" x1="85.387" x2="94.259" y1="211.917" y2="211.917" gradientUnits="userSpaceOnUse">
      <stop offset="0" stop-color="rgb(246,148,83)"/>
      <stop offset=".5" stop-color="rgb(243,117,33)"/>
      <stop offset="1" stop-color="rgb(212,98,42)"/>
    </linearGradient>
    <linearGradient id="linearGradient-17" x1="12.001" x2="20.863" y1="21.695" y2="21.695" gradientUnits="userSpaceOnUse">
      <stop offset="0" stop-color="rgb(243,127,123)"/>
      <stop offset=".5" stop-color="rgb(237,61,87)"/>
      <stop offset="1" stop-color="rgb(221,30,71)"/>
    </linearGradient>
    <linearGradient id="linearGradient-19" x1="127.337" x2="137.671" y1="5.167" y2="5.167" gradientUnits="userSpaceOnUse">
      <stop offset="0" stop-color="rgb(255,231,163)"/>
      <stop offset=".5" stop-color="rgb(255,202,5)"/>
      <stop offset="1" stop-color="rgb(250,172,24)"/>
    </linearGradient>
    <linearGradient id="linearGradient-24" x1="187.308" x2="120.337" y1="68.663" y2="144.187" gradientUnits="userSpaceOnUse">
      <stop offset="0" stop-color="rgb(255,231,163)"/>
      <stop offset=".5" stop-color="rgb(255,202,5)"/>
      <stop offset="1" stop-color="rgb(250,172,24)"/>
    </linearGradient>
    <linearGradient id="linearGradient-26" x1="188.593" x2="159.728" y1="56.903" y2="93.825" gradientUnits="userSpaceOnUse">
      <stop offset="0" stop-color="rgb(255,148,148)"/>
      <stop offset="1" stop-color="rgb(228,35,118)"/>
    </linearGradient>
  </defs>
  <g>
    <use fill="none" xlink:href="#rect-1"/>
    <g mask="url(#mask-2)">
      <rect width="280" height="229.091" x="0" y="0" fill="none" rx="0" ry="0"/>
      <g>
        <use fill="none" xlink:href="#path-4"/>
        <g mask="url(#mask-5)">
          <g opacity=".05">
            <path fill="rgb(0,140,255)" fill-rule="evenodd" d="M240.08727273 67.45454545c-2.50442635-4.3191053-8.03058697-5.79881876-12.35818182-3.3090909l-46.1109091 26.58727272c3.23454467-3.16150602 3.6334332-8.22748022.93354689-11.85625598-2.6998863-3.62877577-7.66681635-4.7024669-11.62445597-2.51283493l-.86545455.50909091c.49839037-.48916174 1.05390982-.91648439 1.65454546-1.27272727l23.48181818-13.56727273c4.00838728-2.28275803 5.65396096-7.21817794 3.81757526-11.44970728-1.8363857-4.23152932-6.5651572-6.4006311-10.97030253-5.0321109l13.04545454-7.5090909c2.88429746-1.57340383 4.68916827-4.58655154 4.71530822-7.8719873.02613995-3.28543577-1.73055833-6.32692042-4.58945526-7.94601888-2.85889692-1.61909847-6.37077518-1.56140247-9.17494387.15073344L43.27272728 108.2709091c-4.19209599 2.55956006-5.5769625 7.99592653-3.12037108 12.24918117 2.45659143 4.25325463 7.85757738 5.77025387 12.16946198 3.41809156l15.65454546-9.04909091c4.31188461-2.3521623 9.71287055-.83516306 12.16946198 3.41809156 2.45659142 4.25325464 1.07172492 9.68962112-3.12037107 12.24918117l-31.37272728 18.08545454c-2.79641523 1.61419089-4.5192489 4.59763454-4.5195262 7.82649662-.00027727 3.22886208 1.72204391 6.21260161 4.51818187 7.82727278 2.79613795 1.61467116 6.24129278 1.61496698 9.03770798.00077606l14.80181817-8.54c-3.37142825 3.1331231-3.84931808 8.29965167-1.10978442 11.99802213 2.73953367 3.69837045 7.82108958 4.74679106 11.80069351 2.43470514L48.0709091 189c-2.79641524 1.61419089-4.5192489 4.59763454-4.5195262 7.82649662-.00027728 3.22886207 1.72204391 6.21260161 4.51818187 7.82727278 2.79613795 1.61467116 6.24129278 1.61496698 9.03770798.00077605l46.11090908-26.62545454c-3.37142825 3.1331231-3.84931809 8.29965168-1.10978442 11.99802213 2.73953367 3.69837046 7.82108958 4.74679107 11.8006935 2.43470514l109.63272728-63.28c4.15239797-2.43436983 5.67240192-7.6933634 3.45899935-11.96763696-2.21340256-4.27427355-7.38550739-6.06780557-11.76990844-4.08145395 3.45120528-3.09116809 4.00534684-8.29174437 1.28298645-12.04072983-2.7223604-3.74898546-7.83909887-4.83159986-11.84662281-2.5065429l32.06-18.81090909c4.32512262-2.4998155 5.80633498-8.03157398 3.3090909-12.35818181l.0509091.03818181z"/>
          </g>
          <path fill="url(#linearGradient-8)" fill-rule="evenodd" d="M258.52908325 20.49095015l-6.78363037-6.77093506 6.78363037-6.78363037 6.7836609 6.78363037-6.7836609 6.77093506zm-4.98910522-6.7709961l4.9890747 4.9763794 4.92547608-4.9763794-4.97634888-4.9890747-4.9382019 4.9890747z"/>
          <path fill="url(#linearGradient-10)" fill-rule="evenodd" d="M9.6472702 150.18180708l-6.78363418-6.77087402 6.78363418-6.7836914 6.783638 6.7836914-6.783638 6.77087402zm-4.98908996-6.77087402l4.98908996 4.97631836 4.97636414-4.97631836-4.97636414-4.98913574-4.98908996 4.98913574z"/>
          <path fill="url(#linearGradient-12)" fill-rule="evenodd" d="M230.0581665 216.51640181l-5.37091064-5.3708496 5.37091064-5.37097169 5.3963623 5.37097168-5.3963623 5.37084961zm-3.5126953-5.37097168l3.57635497 3.57629395 3.58911133-3.57629395-3.58911133-3.58911133-3.57635498 3.58911133z"/>
          <path fill="url(#linearGradient-14)" fill-rule="evenodd" d="M89.47273254 216.36369185c-1.9418335.00512695-3.69532775-1.16064453-4.4420166-2.953125-.74667358-1.79260254-.33930969-3.85839844 1.0319519-5.23339844 1.3712616-1.37487793 3.43605042-1.78771972 5.2305603-1.04577636 1.79452516.74194335 2.96495057 2.49230957 2.96495057 4.43408203.00001526 2.64501953-2.14045715 4.79125976-4.78544617 4.79821777zm0-8.32373047c-1.43336486-.00512695-2.7282257.85498047-3.27912902 2.17834473-.55090332 1.32324219-.24900818 2.84814453.76454162 3.86169433 1.0135498 1.0135498 2.5384674 1.3154297 3.86175537.76452637 1.3232727-.55090332 2.1834259-1.84570312 2.1782837-3.27905273 0-.9350586-.3714447-1.83178711-1.03257752-2.49291993-.66116333-.6611328-1.55787659-1.03259277-2.49287415-1.03259277z"/>
          <path fill="rgb(2,204,170)" fill-rule="evenodd" d="M259.63635254 115.24540572c-1.9418335 0-3.69223023-1.17041016-4.43414307-2.96496582-.74191284-1.7944336-.32907104-3.85925293 1.0458374-5.23059082 1.37490845-1.37121582 3.4407959-1.77856446 5.2333374-1.03186035 1.79254151.7467041 2.958313 2.50012207 2.95315552 4.4420166 0 1.2713623-.5059204 2.49047851-1.40612792 3.38830566-.90020752.89782715-2.1206665 1.4005127-3.39205933 1.39709473zm0-8.33630371c-1.947052 0-3.52545166 1.57836914-3.52545166 3.52539062 0 1.94714356 1.57839966 3.5255127 3.52545166 3.5255127 1.947052 0 3.52545166-1.57836914 3.52545166-3.5255127 0-.93493652-.37142944-1.83166504-1.03259277-2.49279785-.66113282-.66113281-1.55783081-1.03259277-2.4928589-1.03259277z"/>
          <path fill="url(#linearGradient-17)" fill-rule="evenodd" d="M16.07454681 26.12907271c-1.94184112 0-3.69223404-1.17041016-4.43414688-2.96490479-.74191665-1.79455566-.32906723-3.85931396 1.04584503-5.23059082 1.37490845-1.37127685 3.44077683-1.77862548 5.23331833-1.03192138 1.79254914.74664306 2.958313 2.50012207 2.95316315 4.44195556.00000763 1.27142334-.50592041 2.49053955-1.40612793 3.3883667-.90019226.89782715-2.1206665 1.4005127-3.3920517 1.39709473zm0-8.32366943c-1.43220901-.00512696-2.72626113.8536377-3.27791595 2.175354-.55165482 1.3217163-.25209045 2.84564209.75881195 3.86016846 1.0109024 1.0145874 2.53373337 1.31964111 3.85742188.77276611 1.32369232-.54693604 2.18712615-1.83789062 2.18713378-3.27008057-.0069809-1.94415283-1.58129882-3.51849365-3.52545166-3.52545166v-.01275634z"/>
          <path fill="url(#linearGradient-19)" fill-rule="evenodd" d="M132.5036316.73820357l5.1672821 8.90911865h-10.33454895l5.16726684-8.90911865zm-2.96545411 7.6362915h5.94363403l-2.9654541-5.09088134-2.97817993 5.09088134z"/>
          <g opacity=".1">
            <path fill="rgb(0,0,0)" fill-rule="evenodd" d="M120.19636364 146.8090909c-.10945029 6.81734552 4.67005963 12.73835412 11.35707751 14.06950815 6.68701789 1.33115403 13.36965305-2.30813785 15.87928612-8.64768996l-27.23636363-5.42181818z"/>
            <g opacity=".9">
              <path fill="rgb(0,0,0)" fill-rule="evenodd" d="M171.5509091 140.45818182c-1.90868955-1.96619149-2.72735808-4.74585676-2.18909092-7.43272727l5.00181818-25.1109091c3.07797377-15.49031136-5.8919018-30.84070745-20.89818181-35.76363636L154 69.47818182c.44433522-2.25241762-1.01922796-4.4392202-3.2709091-4.88727273-1.08364255-.21714942-2.20915695.00563767-3.12835943.61923517-.91920245.6135975-1.55659948 1.56761102-1.77164056 2.65167392l-.54727273 2.77454546c-15.46305679-.76465535-29.15256788 9.91402974-32.17454545 25.09818181l-5.00181818 25.17454546c-.53266105 2.68378322-2.35027244 4.93438582-4.86181819 6.02-4.00475297 1.72528057-6.9133022 5.2991842-7.7890909 9.57090909l-1.0309091 5.18 79.62181819 15.84545455 1.03090909-5.18c.85670734-4.30133108-.46220621-8.74849811-3.52545455-11.88727273z"/>
            </g>
          </g>
          <path fill="rgb(251,176,59)" fill-rule="evenodd" d="M117.6509091 144.26363636c-.1094503 6.81734552 4.67005963 12.73835411 11.3570775 14.06950815 6.6870179 1.33115403 13.36965305-2.30813785 15.87928613-8.64768996l-27.23636364-5.42181819z"/>
          <path fill="url(#linearGradient-24)" fill-rule="evenodd" d="M169.00545455 137.91272727c-1.90868955-1.96619148-2.72735808-4.74585675-2.18909091-7.43272727l5.00181818-25.1109091c3.07797377-15.49031136-5.8919018-30.84070745-20.89818182-35.76363635l.53454545-2.67272728c.44433522-2.25241762-1.01922796-4.4392202-3.27090909-4.88727272-1.08364256-.21714942-2.20915695.00563767-3.12835943.61923517-.91920246.6135975-1.55659948 1.56761101-1.77164057 2.65167392l-.54727272 2.77454545c-15.4630568-.76465535-29.15256789 9.91402975-32.17454546 25.09818182L105.56 118.36363636c-.53266104 2.68378323-2.35027244 4.93438582-4.86181818 6.02-4.00475297 1.72528057-6.9133022 5.2991842-7.78909091 9.5709091l-1.0309091 5.18L171.5 154.98l1.0309091-5.18c.85670734-4.30133107-.46220622-8.7484981-3.52545455-11.88727273z"/>
          <ellipse cx="168.599" cy="82.472" fill="url(#linearGradient-26)" rx="16.647" ry="16.647"/>
          <path fill="rgb(255,255,255)" fill-rule="evenodd" d="M169.27272727 74.1490909c.85963065-.0000284 1.55846568.69312504 1.56545455 1.55272728v8.90909091c.0102899.42175978-.1500876.82981916-.44478995 1.13170938-.29470236.30189023-.69877934.47205249-1.1206646.47192698-.8575476 0-1.55272727-.69517967-1.55272727-1.55272727v-8.9090909c-.01379624-.42055695.14368323-.8287057.4363848-1.13100405.29270156-.30229833.69555935-.47285855 1.11634247-.47263232z"/>
          <path fill="rgb(255,255,255)" fill-rule="evenodd" d="M169.27272727 88.30181818c.86457667 0 1.56545455.70087788 1.56545455 1.56545455-.00698887.85960225-.7058239 1.55275569-1.56545455 1.55272727-.8575476 0-1.55272727-.69517967-1.55272727-1.55272727-.0000284-.85963065.69312503-1.55846567 1.55272727-1.56545455z"/>
          <path fill="rgb(251,176,59)" fill-rule="evenodd" d="M81.64545455 122.10545455c-.80118313-.01131375-1.5112728-.51852066-1.78181819-1.27272728-7.72006005-19.54706842 1.80805021-41.65797265 21.31818182-49.47090909.98055646-.39011383 2.09170429.08853447 2.48181815 1.06909094.39011385.98055645-.08853444 2.09170428-1.06909088 2.48181817-17.56840506 7.0341536-26.14306215 26.94875202-19.18 44.54545454.20815557.4781101.21168006 1.02055879.00975475 1.50133335-.20192531.48077455-.59172444.85802733-1.07884565 1.04412118-.22374583.08212296-.46213028.11679707-.7.10181819z"/>
          <path fill="rgb(251,176,59)" fill-rule="evenodd" d="M92.75636364 119.5090909c-.76514274.00440105-1.46000106-.44550723-1.76909091-1.14545454-6.18708758-15.520133 1.37274534-33.11796561 16.8890909-39.31454545.98055647-.39011384 2.0917043.08853445 2.48181818 1.0690909.39011385.98055647-.08853444 2.09170432-1.06909089 2.48181819-13.53128562 5.4124473-20.12953896 20.75523656-14.7509091 34.3.18737067.4690537.17987798.99347548-.02081673 1.4569847-.2006947.4635092-.57800671.82780304-1.04827418 1.0121062-.22500022.09654983-.46792376.14426695-.71272727.14z"/>
        </g>
      </g>
    </g>
  </g>
</svg>
