<svg xmlns="http://www.w3.org/2000/svg" xmlns:xlink="http://www.w3.org/1999/xlink" width="56" height="55.309" viewBox="0 0 56 55.309">
  <defs>
    <rect id="rect-2" width="36" height="36" x="10" y="9.654"/>
    <mask id="mask-3" maskContentUnits="userSpaceOnUse" maskUnits="userSpaceOnUse">
      <rect width="56" height="55.309" x="0" y="0" fill="black"/>
      <use fill="white" xlink:href="#rect-2"/>
    </mask>
  </defs>
  <g>
    <path fill="rgb(219,228,255)" fill-rule="evenodd" d="M27.65432099 0h.69135802C43.60851426 0 56 12.39148574 56 27.65432099c2.3e-7 15.26283483-12.39148533 27.65432076-27.65432058 27.65432099H27.654321C12.39148574 55.30864198 0 42.91715623 0 27.65432098-2.3e-7 12.39148616 12.39148533 2.4e-7 27.65432058 0z"/>
    <g>
      <use fill="none" xlink:href="#rect-2"/>
      <g mask="url(#mask-3)">
        <path fill="rgb(71,114,229)" fill-rule="evenodd" d="M32.28917694 23.51047897c.19766998-.58694076.75220871-1.009758 1.4056511-1.01047897.65382385 0 1.20882415.4231205 1.40611266 1.01047897H39v1.14603806h-3.98362732c-.24536133.48046112-.74503708.80942917-1.32154465.80942917-.57651138 0-1.07618713-.32896805-1.32154846-.80942917H31.5v-1.14603806h.78917694z"/>
        <path fill="rgb(71,114,229)" fill-rule="evenodd" d="M35.48374176 31.80220795c.06948853.13644218.16082764.2634468.27292633.3755188.42419434.42410278 1.06210327.5508995 1.61624146.32125854.3331337-.13805008.59654617-.3885765.75364303-.69677734H39v-1.14603806h-.78937912c-.19784164-.58669662-.75222015-1.00928688-1.40544891-1.0101509-.59983445 0-1.14060212.361351-1.370121.91553878-.01295853.03128815-.02478028.06284332-.03547669.09461212H31.5v1.14603806h3.98374176z"/>
        <rect width="13.713" height="1" x="14.467" y="20.115" fill="rgb(71,114,229)" rx="0" ry="0"/>
        <rect width="14.952" height="1" x="12.967" y="26.412" fill="rgb(71,114,229)" rx="0" ry="0"/>
        <rect width="13.665" height="1" x="14.695" y="33.632" fill="rgb(71,114,229)" rx="0" ry="0"/>
        <path fill="rgb(71,114,229)" fill-rule="evenodd" d="M12.78210068 30.73531055C14.24901962 37.9762621 20.61195755 43.18285847 28 43.18765355c2.0770731.00401687 4.13358784-.41127778 6.04633427-1.22099687 7.9044838-3.33929824 11.60529709-12.45418548 8.26599884-20.35866832-3.33929825-7.9044838-12.45418167-11.60529804-20.35866642-8.26600075-6.80365372 2.87984467-10.63848591 10.15237427-9.17156601 17.39332294zm.68456554-3.08098888c0-8.01366615 6.51966572-14.53333378 14.53333378-14.53333378 8.01366901 0 14.53333378 6.51966763 14.53333378 14.53333378 0 8.0136671-6.51966477 14.53333569-14.53333378 14.53333569-8.01366806 0-14.53333378-6.51966858-14.53333378-14.53333569z"/>
        <path fill="rgb(71,114,229)" fill-rule="evenodd" d="M28 43.18765736h.5V12.12098789H28c-1.26399994 0-2.48400116.43066693-3.62633324 1.28033352-1.0739994.798666-2.0340004 1.93433285-2.8536663 3.37566757-1.6570015 2.91366577-2.56933403 6.7773323-2.56933403 10.8773327 0 4.10000133.91233253 7.96366786 2.56933403 10.87733363.82033157 1.44233322 1.7796669 2.57566834 2.8536663 3.37566757 1.14233208.8496666 2.3623333 1.28033448 3.62633324 1.28033448zm-5.61066628-25.91633702C23.78966713 14.8086548 25.58866692 13.36398792 27.5 13.14898777v29.0106659c-1.91066742-.21500016-3.71066666-1.65966416-5.11066628-4.12232972-1.5720005-2.76533508-2.4386673-6.45266723-2.4386673-10.38300419 0-3.93033218.86599923-7.616333 2.4386673-10.38299942z"/>
      </g>
    </g>
  </g>
</svg>
