<svg xmlns="http://www.w3.org/2000/svg" width="16" height="16.002" viewBox="0 0 16 16.002">
  <path fill="rgb(255,255,255)" fill-rule="evenodd" d="M.16009521 9.58978271c.75500489 3.72668458 4.02835083 6.40701294 7.83016968 6.41256714-.64859009-.00149536-1.27456665-.2232666-1.86087036-.65933227-.55307007-.4119873-1.04708862-.99560547-1.46954346-1.7383728-.34075927-.59918213-.62036132-1.27639771-.83331298-2.00820923h.5371704c.19567872.63754272.44500733 1.22793579.74383546 1.7536621.72094726 1.26818848 1.6479187 2.012146 2.63183593 2.12286378v-3.87652588h.44320679v-.51495362h-.44320679v-3.203125h.21542359v-.51495361h-.21542359v-2.7279663h.349823V4.1204834h-.349823V.53338623C6.75509644.644104 5.82867432 1.38806153 5.10754395 2.65625c-.25314332.44534302-.47076416.9369812-.65029908 1.4642334h-.54208374c.19989014-.62139893.4493103-1.19940186.74468994-1.71878052.42211914-.74224853.9164734-1.3270874 1.46954346-1.7383728C6.71768188.22576904 7.34591675.0039978 7.9968567.0039978h.24865723C7.12649536-.03149414 5.9821167.16851807 4.88317872.63278198 1.3795166 2.11581421-.5953064 5.8609314.16009521 9.58978271zm3.60339356-4.9543457c.046875-.1746521.09744263-.34640503.15167236-.51495361H1.02761841V4.635437h2.73587036zm.5336914 0h-.5336914c-.22872925.85232544-.368927 1.7734375-.41229248 2.72796631H.25515747v.51495361h3.0821228c-.0003662.04156495-.00054931.0831604-.00054931.1248169 0 1.07366943.12149048 2.11590576.3531189 3.0783081H1.14538573v.51495362H3.8265381c-.0491333-.16885376-.09472657-.34057618-.13668824-.51495362h.53005982c.04412842.17471314.09210205.34649659.14379883.51495362h3.37567138v-.51495362H4.21990967c-.24124146-.95516967-.36819458-1.99893188-.36819458-3.0783081 0-.0416565.00021362-.08325195.00057983-.1248169h3.88708496v-.51495361H3.86669922c.0451355-.95999145.1916809-1.88226318.43048096-2.7279663zm0 0h3.44219971V4.1204834h-3.282135c-.05725098.16815185-.11062623.33990478-.1600647.51495361zm-.43048095 2.72796631h-.51550293c-.00775147.1706543-.01239014.3423767-.01391602.51495361h.51501465c.0015564-.17269897.00637818-.34442138.0144043-.51495361zm4.38763428 8.63528442V.00427246c3.022583.09921265 5.85876464 1.9165039 7.11291504 4.88522339 1.719635 4.07055664-.18618775 8.76443481-4.25674439 10.48406982-.90588379.3835144-1.87438965.59521485-2.85617065.62512207zm0 0v.00366211h-.22662354c.07562256-.00015258.15115357-.00137329.22662354-.0036621zm3.30270385-9.86575317c-.12210083-.36352539-.46557617-.62539673-.87026977-.62539673-.40441895.00042725-.74761963.262146-.8699646.62539673h-.48840332v.70928955h.5404663c.15185548.29736328.4610901.50097656.81790162.50097656.35684204 0 .66607666-.20361328.81793213-.50097656h2.46554565v-.70928955h-2.413208zm1.9246521 3.6690979h.48855591v.70928955h-.54058838c-.097229.19073486-.26028442.34579468-.46646118.4312439-.34295654.14212036-.73776245.06362915-1.00030517-.19885254-.06936646-.06936646-.12591553-.14794922-.1689148-.23239136H9.32839966v-.70928955h2.41348266c.00662232-.01965332.01394654-.03918457.02197266-.05856323.1420288-.34301758.47671509-.5666504.84796143-.5666504.40429687.00054932.74743652.26208497.86987304.62521363z"/>
</svg>
