<svg xmlns="http://www.w3.org/2000/svg" width="12" height="12.002" viewBox="0 0 12 12.002">
  <path fill="rgb(189,189,189)" fill-rule="evenodd" d="M.12007141 7.19232178c.56655884 2.79663086 3.02409363 4.80755615 5.87754822 4.80941772-.4881897 0-.9593811-.1663208-1.40058899-.49447632-.41479492-.30899047-.7853241-.7467041-1.1021576-1.30377197-.25556945-.44940185-.46527099-.9573059-.62498473-1.50616455h.40286254c.14674378.47814941.3337555.92092896.55789185 1.31521606.54071045.95114136 1.23591614 1.50912476 1.97387695 1.5921631V8.69732665h.33241272v-.38623047h-.33241272V5.90878296h.16156006v-.38623047h-.16156006V3.47659302h.26237488v-.38623047h-.26237488V.4000244c-.73822021.08303833-1.43302917.64102173-1.97387695 1.59216309-.18986511.3340149-.35305786.70272827-.48771667 1.09817505h-.40657044c.1499176-.46603394.33699036-.89953613.55851746-1.28909302.3165741-.55670166.68736267-.9953003 1.10215759-1.30377197.44120789-.32818604.9123993-.49450684 1.40058899-.49450684h.18659973C5.34492493-.02365112 4.48660278.1263733 3.66236877.47457886 1.0346222 1.58685303-.44648743 4.39569092.12007141 7.19232178zm2.7025299-3.71572876c.03515626-.13098145.0730896-.25979615.11375428-.38623047H.77070618v.38623047h2.05189514zm.40026856 0h-.40026855c-.1715393.6392517-.27667236 1.33007812-.3092041 2.04595947H.19136047v.38623047h2.31158448c-.00027466.03115845-.000412.06234741-.000412.09359741 0 .80526734.0911255 1.58691406.26484681 2.30871582H.85902405v.38623047H2.8698883c-.03684998-.12664795-.07102967-.25546265-.10250855-.38623047h.39752197c.03309632.13104248.06906128.2598877.10784912.38623047h2.5317688v-.38623047H3.16490173c-.18093872-.71636963-.2761383-1.49920654-.2761383-2.30874634 0-.03121948.00013733-.06240844.00042724-.0935669h2.91532898V5.5225525H2.8999939c.03385925-.72000122.1437683-1.41168213.32287597-2.04595947zm0 0h2.58164978v-.38623047H3.34292603c-.04293824.12609863-.0829773.25494385-.12005616.38623047zM2.8999939 5.52255249h-.38659668c-.0058136.12799072-.00930786.2567749-.01045227.38623047h.38624572c.00117493-.1295166.00479126-.2583313.01080323-.38623047zm3.29074096 6.47644043V.00320435c2.26693726.07440185 4.39407349 1.43737793 5.33468628 3.6639099 1.28971863 3.05291749-.13963318 6.57333375-3.19255066 7.86303712-.67941284.28762817-1.40579223.44641113-2.14213562.46884155zm0 0v.00274658h-.1699829c.05670165-.00012207.1133728-.00100708.1699829-.00274658zm2.47702027-7.399292c-.09158325-.27264404-.34918213-.46902465-.65267945-.46902465-.30329895.0003357-.56069946.19659424-.65246582.46902466h-.366333v.53198242h.40534973c.1138916.22302246.34584045.37573242.6134491.37573242.2676239 0 .49955749-.15270996.61344909-.37573242h1.84913635v-.53198242h-1.809906zm1.44348144 2.75183106h.36642456v.53198242h-.40545654c-.07292175.14306641-.19519043.25933838-.349823.3234253-.2572174.1065979-.55332947.04772949-.75022888-.1491394-.05203247-.05200196-.09442139-.11096192-.12667847-.1742859H6.99627686v-.53198242h1.81011962c.00495911-.01473999.01045227-.02938843.01646424-.0439148.10653686-.25726318.3575592-.42498779.63598633-.42498779.30322265.00039673.56056213.19656373.65238952.4689026z"/>
</svg>
