<svg xmlns="http://www.w3.org/2000/svg" width="40" height="40" viewBox="0 0 40 40">
  <g>
    <g opacity=".2">
      <ellipse cx="20" cy="20" fill="rgb(140,132,243)" rx="20" ry="20"/>
    </g>
    <g>
      <path fill="rgb(140,132,243)" fill-rule="evenodd" d="M10.20063114 21.9883461c.94673443 4.67328072 5.05346012 8.03352165 9.8216734 8.03637695 1.3404827.00242997 2.66767501-.26565742 3.90211486-.78821182 5.06883717-2.17516708 7.42913151-8.03584671 5.28261662-13.11688232-2.1465149-5.08103562-7.99377537-7.4743824-13.08684826-5.35658837-4.39115238 1.85839844-6.8662901 6.55202294-5.91955662 11.22530556zm.44231033-1.98835373c0-5.17198753 4.20759106-9.37936306 9.37936306-9.37936306 5.171772 0 9.37936116 4.20759106 9.37936116 9.37936306 0 5.171772-4.20758915 9.3793602-9.37936116 9.3793602-5.171772 0-9.37936306-4.20737457-9.37936306-9.3793602z"/>
      <path fill="rgb(140,132,243)" fill-rule="evenodd" d="M17.5847435 29.20273876c.7686348.54533386 1.58868408.82198334 2.43755913.82198334.84887504 0 1.66892433-.27664948 2.43755913-.82198334.72475051-.51478958 1.37420654-1.24750137 1.92943763-2.17726135 1.12057686-1.88167858 1.73819542-4.37667751 1.73819542-7.02548504 0-2.64880943-.61761856-5.14402199-1.73905563-7.02570152-.55437088-.92933178-1.20318222-1.66225624-1.92857742-2.17704487-.7686348-.54555225-1.58868409-.82198525-2.43755913-.82198525-.84887505 0-1.66892433.276433-2.43841934.82198525-.7253933.51478863-1.37420464 1.24728298-1.92857743 2.17704487-1.12057495 1.88167953-1.73905372 4.37689209-1.73905372 7.02570152 0 2.64880753.61761856 5.14380646 1.73905372 7.02548504.555233.92975998 1.20468903 1.66247177 1.92943764 2.17726135zm-1.37420464-15.89801979c1.03173066-1.73087978 2.38549996-2.68408966 3.81176377-2.68408966 1.42626571 0 2.78003502.95428562 3.81176567 2.68408966 1.062706 1.78315449 1.64805603 4.16112423 1.64805603 6.6952734 0 2.53414917-.58535004 4.91254807-1.64805603 6.69505596-1.03173065 1.73088074-2.38549996 2.68430329-3.81176567 2.68430329-1.42626381 0-2.7791729-.95342255-3.81176377-2.68430329-1.06270694-1.7825079-1.64805698-4.16069317-1.64805698-6.69505596 0-2.5343647.58535004-4.91211891 1.64805698-6.6952734z"/>
      <rect width="3.826" height=".645" x="24.521" y="14.596" fill="rgb(140,132,243)" rx="0" ry="0"/>
      <rect width="13.675" height=".645" x="11.719" y="14.596" fill="rgb(140,132,243)" rx="0" ry="0"/>
      <path fill="rgb(140,132,243)" fill-rule="evenodd" d="M14.23979756 19.49574324h-3.91954083v.64536896H29.7243502v-.64536896H14.23979756z"/>
      <path fill="rgb(140,132,243)" fill-rule="evenodd" d="M20.36112217 14.91771094l-.01613422-4.7774513-.64536896.00236635.0150586 4.45347608h-.0150586v14.94932665h.64536896V14.91792606l.01613422-.00021512z"/>
      <rect width="4.246" height=".645" x="24.362" y="24.395" fill="rgb(140,132,243)" rx="0" ry="0"/>
      <rect width="14.097" height=".645" x="11.436" y="24.395" fill="rgb(140,132,243)" rx="0" ry="0"/>
    </g>
  </g>
</svg>
