<svg xmlns="http://www.w3.org/2000/svg" xmlns:xlink="http://www.w3.org/1999/xlink" width="41.5" height="41.221" viewBox="0 0 41.5 41.221">
  <defs>
    <rect id="rect-2" width="24" height="24" x="8.75" y="8.611"/>
    <mask id="mask-3" maskContentUnits="userSpaceOnUse" maskUnits="userSpaceOnUse">
      <rect width="41.5" height="41.221" x="0" y="0" fill="black"/>
      <use fill="white" xlink:href="#rect-2"/>
    </mask>
  </defs>
  <g>
    <g opacity=".15">
      <path fill="rgb(232,52,111)" fill-rule="evenodd" d="M20.6105655 0h.278869C32.26471526 0 41.5 9.23528474 41.5 20.6105655c0 11.37528076-9.23528474 20.6105655-20.6105655 20.6105655h-.278869C9.23528474 41.221131 0 31.98584626 0 20.6105655 0 9.23528474 9.23528474 0 20.6105655 0z"/>
    </g>
    <g>
      <use fill="none" xlink:href="#rect-2"/>
      <g mask="url(#mask-3)">
        <path fill="rgb(232,52,111)" fill-rule="evenodd" d="M18.3907814 15.3061905h-.9375v1.27218818h-3.0004692v.9375h.9874258c.0338211.50699806.15290737 1.34613228.54585552 2.24765587.24798584.5689907.62864304 1.21007919 1.21172524 1.80612945-.63407898.42953873-1.39285088.74302292-2.27297497.93793297l.2029686.91546822c1.17779445-.26104737 2.08898448-.70259667 2.7938013-1.22366524.7047863.52118301 1.61611748.9627533 2.79416848 1.22366524l.20203018-.91593552c-.87975693-.19482994-1.6382637-.50813484-2.27218056-.93740082.58350372-.596138.9646244-1.23727417 1.213274-1.8061943.39294815-.9015236.51203537-1.74065781.54585648-2.24765587h.98601913v-.9375h-3v-1.27218819zm.59249878 4.11656379c-.26486587.59686088-.61941528 1.11513138-1.06171417 1.55335617-.44252014-.43832398-.79722977-.95675278-1.06219101-1.55382538-.26688004-.60458183-.42743874-1.24949837-.47574997-1.9064064h3.07738113c-.04888343.6571846-.21011161 1.30226898-.47772598 1.9068756zm8.06437493 6.9609375c-.17653847.00008583-.33815194-.09902-.41812516-.25640679l-.7922287-1.55718803h-3.7767601l-.8291359 1.56421852c-.12128638.22872543-.40502547.31581879-.633749.1945324-.22872353-.1212864-.31581879-.4050274-.1945324-.63375092L23.1875 20.4394722c.15630531-.29640198.4641285-.48163796.79921722-.48093796h.0075016c.33712578.00312424.64442254.19382858.796875.49453163l1.72677804 3.39296913c.01793861.02756882.03305816.05714226.04494476.08831025l.9001522 1.76872062c.07400513.1452427.06724358.31850052-.0178585.45753288-.08510208.13903046-.2363205.22386742-.39933014.22402955l.00187493-.00093651zm-1.68731308-2.75109482l-1.37268639-2.69812393-1.4301796 2.69812393h2.80286599z"/>
        <path fill="rgb(232,52,111)" fill-rule="evenodd" d="M10.508502 24.85258102c1.71583844 4.14230633 5.75788212 6.84323407 10.241498 6.8434515 2.94164276.0078888 5.76424026-1.16111755 7.83890533-3.24655914 4.3071518-4.33309269 4.2966385-11.33417416-.02349853-15.65431404-4.32014084-4.32013893-11.3212204-4.33064938-15.65431213-.02350044-3.17019177 3.17059898-4.11843014 7.93861484-2.40259266 12.08092212zm.1872797-4.24201583c0-5.54390526 4.51031304-10.0542183 10.0542183-10.05515576v.00093746c5.54390717 0 10.0542183 4.51031304 10.0542183 10.0542183 0 5.5439062-4.51031113 10.05421733-10.0542183 10.05421733-5.54390526 0-10.0542183-4.51031112-10.0542183-10.05421733z"/>
      </g>
    </g>
  </g>
</svg>
