<svg xmlns="http://www.w3.org/2000/svg" xmlns:xlink="http://www.w3.org/1999/xlink" width="56" height="55.624" viewBox="0 0 56 55.624">
  <defs>
    <rect id="rect-2" width="36" height="36" x="10" y="9.812"/>
    <mask id="mask-3" maskContentUnits="userSpaceOnUse" maskUnits="userSpaceOnUse">
      <rect width="56" height="55.624" x="0" y="0" fill="black"/>
      <use fill="white" xlink:href="#rect-2"/>
    </mask>
  </defs>
  <g>
    <path fill="rgb(219,228,255)" fill-rule="evenodd" d="M27.81184742 0h.37630516C43.53792903 0 56 12.46207097 56 27.81184742S43.53792903 55.62369484 28.18815258 55.62369484h-.37630516C12.46207097 55.62369484 0 43.16162387 0 27.81184742S12.46207097 0 27.81184742 0z"/>
    <g>
      <use fill="none" xlink:href="#rect-2"/>
      <g mask="url(#mask-3)">
        <path fill="rgb(71,114,229)" fill-rule="evenodd" d="M23.8736744 19.50301933h-1.40625v1.90828133h-4.50070191v1.40625h1.48113823c.05073166.76049805.22936058 2.01919937.8187828 3.37148285.37197876.85348701.94296265 1.81511879 1.8175869 2.70919418-.95111847.64431-2.08927536 1.11453247-3.40946197 1.4069004l.3044529 1.37320329c1.7666912-.39157105 3.13347625-1.05389786 4.19070053-1.83549881 1.0571804.7817726 2.42417716 1.44413185 4.19125366 1.8354988l.30304718-1.37390708c-1.3196354-.29224587-2.45739556-.7621994-3.40826988-1.40609742.87525558-.894207 1.44693565-1.85591316 1.81991004-2.70929336.58942223-1.35228348.76805115-2.6109848.81878281-3.37148285h1.47903061v-1.40625h-4.5000019v-1.90828133zm.88875007 6.17484284c-.39729881.89529228-.92912483 1.67270088-1.59257317 2.33003616-.6637802-.65748405-1.19584655-1.43512916-1.59328651-2.33073997-.40032005-.9068737-.64115906-1.8742466-.71362496-2.8596077h4.6160717c-.0733242.985775-.31516647 1.95340156-.71658706 2.8603115zM36.8589859 36.11927032c-.26480484.0001297-.50722885-.14853286-.62718582-.38460922L35.04345703 33.39888h-5.66514015l-1.24370384 2.34632874c-.18193054.34308243-.60754013.47372437-.95062638.29179382-.34308433-.18193054-.47372627-.60753631-.29179573-.95062256l4.17656136-7.8834381c.23445892-.44460488.6961937-.7224579 1.19882965-.72140694h.01124954c.50568772.00468445.96663666.29074287 1.1953125.7417965l2.59017563 5.0894699c.02689743.04134369.04956818.08568573.06739426.1324234l1.35024261 2.6531067c.1110077.21786117.10086441.47775268-.0267868.68629836-.12765122.20854569-.35448075.33580017-.59899521.33604431l.00281143-.0014038zM34.3280182 31.9926281l-2.05902863-4.0471859-2.14526748 4.0471859h4.2042961z"/>
        <path fill="rgb(71,114,229)" fill-rule="evenodd" d="M12.41790104 34.15754223c2.57375622 6.21345901 8.6368246 10.26485062 15.36224842 10.26517868 4.41246223.01182938 8.64635658-1.74168015 11.7583561-4.86984634 6.46072387-6.4996338 6.44496154-17.001256-.0352478-23.48146534-6.48020936-6.48020936-16.98183251-6.49597455-23.4814682-.03524971-4.75528623 4.75589752-6.17764474 11.90791988-3.60388852 18.1213827zm.28092003-6.36302567c0-8.31585788 6.76546955-15.08132648 15.08132839-15.08273315v.00140667c8.31585884 0 15.08132744 6.7654686 15.08132744 15.08132648 0 8.31586075-6.7654686 15.08132935-15.08132744 15.08132935s-15.0813284-6.7654686-15.0813284-15.08132935z"/>
      </g>
    </g>
  </g>
</svg>
