<svg xmlns="http://www.w3.org/2000/svg" xmlns:xlink="http://www.w3.org/1999/xlink" width="56" height="56" viewBox="0 0 56 56">
  <defs>
    <rect id="rect-2" width="36" height="36" x="10" y="10"/>
    <mask id="mask-3" maskContentUnits="userSpaceOnUse" maskUnits="userSpaceOnUse">
      <rect width="56" height="56" x="0" y="0" fill="black"/>
      <use fill="white" xlink:href="#rect-2"/>
    </mask>
    <path id="path-7" fill-rule="evenodd" d="M21.78633333 32.908c-1.19800264.03970797-2.2985878-.65675806-2.77557758-1.75642519-.4769898-1.09966713-.2334859-2.37914299.61409509-3.22672397.84758098-.84758099 2.12705684-1.09108488 3.22672397-.6140951 1.09966713.4769898 1.79613316 1.57757495 1.75642519 2.7755776-.0527147 1.53599859-1.28566807 2.76895196-2.82166667 2.82166666z"/>
    <mask id="mask-8" x="0" y="0" maskContentUnits="userSpaceOnUse" maskUnits="userSpaceOnUse">
      <rect width="56" height="56" x="0" y="0" fill="black"/>
      <use fill="white" xlink:href="#path-7"/>
    </mask>
    <path id="path-12" fill-rule="evenodd" d="M37.90533333 20.302c-.66790175.02207504-1.28145909-.36625322-1.54735742-.97934223-.26589834-.613089-.13012635-1.3264034.3424094-1.79893913.47253574-.47253574 1.18585012-.60830774 1.79893913-.3424094.613089.26589833 1.00141726.87945568.97934223 1.54735743-.02913134.85657131-.71676202 1.544202-1.57333334 1.57333333z"/>
    <mask id="mask-13" x="0" y="0" maskContentUnits="userSpaceOnUse" maskUnits="userSpaceOnUse">
      <rect width="56" height="56" x="0" y="0" fill="black"/>
      <use fill="white" xlink:href="#path-12"/>
    </mask>
  </defs>
  <g>
    <g opacity=".15">
      <path fill="rgb(255,133,56)" fill-rule="evenodd" d="M28 0c15.45362069 0 28 12.54637931 28 28S43.45362069 56 28 56 0 43.45362069 0 28 12.54637931 0 28 0z"/>
    </g>
    <g>
      <use fill="none" xlink:href="#rect-2"/>
      <g mask="url(#mask-3)">
        <path fill="rgb(255,133,56)" fill-rule="evenodd" d="M26.77433333 42.57433333c-2.762 0-5.069-.405-5.17666666-.424-.26192471-.05778081-.43159824-.31193973-.3845309-.57600003.04706734-.2640603.29410636-.44394242.55986423-.40766663.02866667.005 2.89133333.50666666 5.96266667.391C29.513 41.491 31.00833333 41.23366667 32.18 40.79333333 33.57266667 40.27 34.496 39.487 34.92433333 38.46566667c.485-1.15633334-.214-1.92733334-1.39466666-3.08966667-.58033334-.57133333-1.18066667-1.162-1.56333334-1.86366667-.46466666-.85133333-.52433333-1.711-.18266666-2.628.69766666-1.874 2.183-2.11966666 3.37866666-2.31766666.68633334-.11333334 1.279-.21133334 1.66-.56333334.42566667-.39366666.59333334-1.152.513-2.31866666-.01886973-.2755901.18924325-.51429694.46483334-.53316667.27559009-.01886973.51429693.18924324.53316666.46483333.104 1.50866667-.16033333 2.5-.83333333 3.12166667-.6.55533333-1.4.68766667-2.17533333.81566667-1.13333334.18733333-2.10966667.34866666-2.605 1.67866666C32.19 32.654 33.13533333 33.58466667 34.23 34.66233333c.557.54833334 1.13333333 1.115 1.48833333 1.76466667.436.796.47733334 1.589.12733334 2.42433333-.54 1.287-1.65766667 2.256-3.32233334 2.88-1.27466666.47766667-2.87833333.75533334-4.76666666.82533334-.331.012-.66.01766666-.98233334.01766666z"/>
        <path fill="rgb(255,133,56)" fill-rule="evenodd" d="M21.15600014 41.84200287c.13298988.15647125.32798004.2466507.53333473.24666595.2061119.00075531.40208435-.0893631.53566551-.24633407l6-7.04933548.00699997-.00799942c.52466774-.60833359.91200066-1.24399948 1.15133476-1.88966751.94433308-2.50133133.5879984-5.32866478-.9556694-7.56199837-1.54966545-2.24300003-4.00566482-3.52933312-6.73833084-3.52933312-2.73266792 0-5.18933487 1.28633309-6.73800087 3.52933312-1.54366684 2.23333359-1.9013338 5.05833244-.95733357 7.55633354.2403326.64899826.62799931 1.286335 1.15199948 1.89366531l6.01000023 7.05867005zm-5.45966625-15.9940033c1.3779993-1.99433136 3.5623331-3.13833236 5.99299907-3.13833236 2.43066597 0 4.61600113 1.14800071 5.99100113 3.1376667 1.375 1.98966598 1.69399834 4.50466728.85299873 6.72799873v.00300217c-.20066452.54066467-.53133392 1.08300018-.98233222 1.60733414-.00600052.0063324-.01166726.01300048-.0170002.01933288l-5.8453331 6.86666489-5.8550005-6.87666703-.00199985-.00233459c-.4536667-.52599716-.7869997-1.07066345-.98999977-1.61899567v-.00300216c-.83933354-2.22000122-.52333355-4.72833252.8546667-6.7226677z"/>
        <path fill="rgb(255,133,56)" fill-rule="evenodd" d="M21.05400085 41.92833328c.15841294.18638993.39071846.29376602.63533402.29366684.24507904.00049591.47795105-.10691833.63666534-.29366684l6-7.0486679.00699997-.00799943c.53499985-.61999893.93033219-1.26966857 1.17499924-1.9296646.96066666-2.54200364.59799957-5.41500283-.97066498-7.6846695-1.57500076-2.2796669-4.07100105-3.5866661-6.84799957-3.5866661-2.77700043 0-5.27300072 1.3069992-6.8476677 3.5866661-1.56833362 2.26966667-1.93200015 5.14033508-.97266674 7.67900085.2460003.66366577.64233304 1.31466675 1.17566681 1.93333435l6.00933361 7.05866623zm-5.99300098-16.51966667c1.524333-2.20466614 3.94033337-3.47133255 6.6283331-3.47133255 2.6883335 0 5.10400008 1.26533318 6.62866782 3.47166634 1.51866532 2.19766616 1.87033081 4.97866821.9403305 7.43966674-.23399734.63066483-.61299895 1.25266648-1.1269989 1.84866715l-6.00766753 7.05766678c-.10766793.12777328-.26624108.20151901-.43333054.20151901-.16709137 0-.32566452-.07374573-.43333435-.20151901l-6.01000023-7.05900192c-.5136671-.5953331-.89299965-1.21899796-1.1283331-1.85399628-.92866706-2.45666886-.576334-5.2353363.94233323-7.43333626zm6.628335 15.86866951l-5.95600128-6.9960022c-.46666622-.53966522-.80700016-1.09999847-1.01566696-1.66133117-.85566616-2.26333619-.53033257-4.8223343.86900043-6.84800148 1.40333271-2.03066826 3.62766743-3.19566727 6.1026678-3.19566727 2.47499848 0 4.69999886 1.164999 6.10266496 3.19600105 1.40000152 2.0253334 1.72433471 4.58666611.8666687 6.85066605-.20700073.5593338-.54533386 1.11399841-1.00699997 1.6503334l-.00266838.00299836-.01199913.01366806-5.94766617 6.9873352zm-5.88333511-15.35266876c1.35266685-1.9576664 3.49733352-3.0806675 5.8833332-3.0806675v-.00099945c2.38633347 0 4.53166771 1.12566567 5.88166619 3.07933235 1.35000038 1.9536667 1.66333389 4.42266846.83800125 6.60500336v.0039978c-.1949997.52799988-.5170021 1.05466462-.95733261 1.56666565-.00700188.00766754-.01366806.01533509-.01833344.0213356l-5.7436676 6.74733353-5.75366688-6.75833511-.00266647-.00300217c-.44400025-.51366424-.76900006-1.04499817-.96666718-1.578331v-.00366592c-.82433319-2.17900085-.51333332-4.64100074.83933354-6.59866714z"/>
        <use fill-opacity="0" stroke="rgb(255,133,56)" stroke-linecap="butt" stroke-linejoin="miter" stroke-width="1.2" mask="url(#mask-8)" xlink:href="#path-7"/>
        <path fill="rgb(255,133,56)" fill-rule="evenodd" d="M19.495224 32.11096191c.57468605.59440995 1.365654.93066025 2.19244385.93203736.05133247 0 .10299873-.0019989.10299873-.0019989 1.60588646-.05559922 2.89488602-1.34445572 2.95066643-2.95033455.02705383-.84423065-.29644013-1.66202355-.89370728-2.2592907-.59726715-.59726906-1.41506195-.92076301-2.2592926-.89370918-1.60600853.05561066-2.89505577 1.34465599-2.95066643 2.95066643-.02650833.82636642.28287316 1.62822342.8575573 2.22262954zm2.10177612-4.90829467h.09400177v-.00166703c.7545948.00132561 1.47647476.30825425 2.00096512.85077286.52449226.54251671.80686379 1.27435112.78269959 2.02856064-.05078507 1.46556663-1.22709847 2.64188004-2.6926651 2.6926651-.77051545.02471542-1.51691056-.27052307-2.06202698-.8156395-.54511643-.54511642-.84035492-1.29150962-.8156395-2.06202507.05078507-1.46556663 1.22709847-2.64188003 2.6926651-2.692667z"/>
        <path fill="rgb(255,133,56)" fill-rule="evenodd" d="M37.55366516 25.28366661c.07426071.08724403.18309784.1374588.29766846.13733482.11457062.00012398.22340774-.05009079.29766846-.13733482l3.34633255-3.93066597.0039978-.0043335c.29266739-.33933448.50866699-.69366645.6420021-1.05366706.52666474-1.39466668.3306656-2.96733284-.53333282-4.21666718-.86400223-1.24933243-2.23300171-1.96666622-3.75699997-1.96666622-1.52400208 0-2.89733505.71966648-3.75733566 1.96666622-.86000061 1.24699974-1.05966568 2.82066727-.53333283 4.21366692.13399887.3619995.35033417.71733284.64233399 1.05599975l3.35099792 3.93566704zm-3.04399872-8.91800117c.76833344-1.11199952 1.98633194-1.74999905 3.34166718-1.74999905 1.35533142 0 2.57266617.63799953 3.33933258 1.74733257s.944664 2.51166725.47599792 3.75133515v.00166511c-.1119995.30233383-.2963333.6040001-.54799652.8963337l-.00933456.01066589-3.25933457 3.82866669-3.2646675-3.83333206c-.23627854-.26562119-.42321397-.57131196-.55199815-.902668v-.00166512c-.46666717-1.23766708-.29199981-2.63633347.47633362-3.74833488z"/>
        <path fill="rgb(255,133,56)" fill-rule="evenodd" d="M37.42666626 25.39166641c.10593796.1244812.26120758.1961441.42466736.19599915.16345596.00014496.31872558-.07151795.42466354-.19599915l3.34600067-3.93066597.00366593-.0043335c.30466842-.35400009.53133392-.72566604.67133331-1.10333442.546669-1.44599915.34033585-3.07966614-.55166626-4.37033272-.8939972-1.29633331-2.31466675-2.03966617-3.8939972-2.03966617-1.57933425 0-2.99866866.74333286-3.89433288 2.03966617-.89167022 1.29133415-1.09833526 2.923666-.5530014 4.3666668.15620804.4059143.38379288.78059768.67200088 1.10633468l3.35066605 3.93566513zm-3.19533539-9.21833229c.83233261-1.20500088 2.15333557-1.89600086 3.62000275-1.89600086 1.4679985 0 2.7903328.69566631 3.61999893 1.89600086.82966614 1.20033264 1.02166367 2.71933174.51366425 4.0636654-.12666703.34133338-.33233262.67866706-.61199952 1.00300025l-3.35066604 3.93599892c-.04280853.0498848-.10526657.0785904-.17099762.0785904-.06573487 0-.1281929-.0287056-.17100144-.0785904l-3.35133361-3.93666458c-.26270295-.29602623-.47020722-.63674927-.61266709-1.00600052-.50699997-1.34200096-.31733322-2.85499954.5149994-4.05999947zm3.62000275 8.93733406l-3.39166641-3.9830017c-.26666642-.30866624-.46233368-.62966538-.58233262-.95399857-.48766708-1.28966713-.30233383-2.74866677.49533463-3.902668.79766464-1.15399933 2.06666565-1.82199955 3.4786644-1.82199955 1.41200256 0 2.67866516.66399956 3.47866821 1.82199955.79999924 1.15800094.98266602 2.61400032.49433136 3.90500069-.11899948.32166671-.3133316.64033317-.57799911.94766616l-.008667.01033402-3.38633346 3.9766674zm-3.20466614-8.65100097c.73799896-1.06633377 1.9046669-1.67800045 3.20466614-1.67800045v.00066661c1.29966736 0 2.46766662.61166668 3.20433426 1.6779995.73412704 1.05224037.90458297 2.39795113.45599746 3.60000038-.1209793.30956078-.29590988.59520912-.5166664.84366608l-.01233292.01433372-3.1313324 3.6779995-3.13666535-3.6839981-.00300216-.00333405c-.22380066-.25143814-.40081024-.54088593-.52266693-.85466767-.44866562-1.18666649-.28033066-2.52833175.4576683-3.59466552z"/>
        <use fill-opacity="0" stroke="rgb(255,133,56)" stroke-linecap="butt" stroke-linejoin="miter" stroke-width=".8" mask="url(#mask-13)" xlink:href="#path-12"/>
        <path fill="rgb(255,133,56)" fill-rule="evenodd" d="M36.5615654 19.9217949c.33782577.3493862.8027687.54703712 1.28876877.54787063l.06033325-.00099945c.9431343-.0333519 1.69998169-.79019928 1.73333359-1.7333336.01591491-.49624251-.17423249-.97694778-.5253067-1.3280239-.35107804-.35107803-.8317833-.54122353-1.32802582-.52530861-.94313431.0333519-1.6999817.79019928-1.73333359 1.73333359-.01550674.48575401.1664009.95707702.5042305 1.30646133zm1.23943329-2.70846177h.05099869c.39577484.00060654.77441787.16153526 1.0495224.44606018.2751007.28452683.42319488.6683712.4104805 1.06394005-.02667237.76856232-.64344407 1.38548088-1.41200257 1.41233253-.40452576.01339722-.79653168-.14134979-1.0828247-.4274559-.28629685-.2861042-.44130326-.67800903-.42817307-1.08254433.02650833-.76863288.64337158-1.3856411 1.41199875-1.41233253z"/>
      </g>
    </g>
  </g>
</svg>
