<svg xmlns="http://www.w3.org/2000/svg" xmlns:xlink="http://www.w3.org/1999/xlink" width="56" height="55.309" viewBox="0 0 56 55.309">
  <defs>
    <rect id="rect-2" width="36" height="36" x="10" y="9.654"/>
    <mask id="mask-3" maskContentUnits="userSpaceOnUse" maskUnits="userSpaceOnUse">
      <rect width="56" height="55.309" x="0" y="0" fill="black"/>
      <use fill="white" xlink:href="#rect-2"/>
    </mask>
  </defs>
  <g>
    <path fill="rgb(236,235,255)" fill-rule="evenodd" d="M27.65432099 0h.69135802C43.60851426 0 56 12.39148574 56 27.65432099c2.3e-7 15.26283483-12.39148533 27.65432076-27.65432058 27.65432099H27.654321C12.39148574 55.30864198 0 42.91715623 0 27.65432098-2.3e-7 12.39148616 12.39148533 2.4e-7 27.65432058 0z"/>
    <g>
      <use fill="none" xlink:href="#rect-2"/>
      <g mask="url(#mask-3)">
        <path fill="rgb(140,132,243)" fill-rule="evenodd" d="M27.2140007 40.44098663c.1960125.23051071.48341751.3632431.7859993.36299897.3023491.00048828.58967972-.13172532.7859993-.36166382l8.83333587-10.375.01133347-.0130005c.77233124-.89666747 1.34233093-1.83333396 1.69400024-2.78266715 1.39333344-3.68166542.86566544-7.84266663-1.40666961-11.13099861C35.63700104 12.83932114 32.02199936 10.9459877 28 10.9459877s-7.63733292 1.89333344-9.91833305 5.19466782c-2.27166653 3.2879982-2.79833317 7.4469986-1.4090004 11.12299919.3540001.9553337.92466736 1.89299965 1.69566727 2.78699875l8.84566688 10.39033317zm-8.03566742-23.5423317C21.20666695 13.9629879 24.42200088 12.27932073 28 12.27932073c3.57800102 0 6.79299927 1.68366718 8.81966782 4.61866665 2.02399826 2.92866706 2.49333572 6.63066673 1.25566482 9.90333366v.0043335c-.29533386.79999923-.7816658 1.59466743-1.44599914 2.36666679-.0083313.00933456-.01666642.019001-.02466584.02866745L28 39.30731964l-8.61966515-10.12233353-.00300026-.00333023c-.66800117-.77433395-1.15699958-1.57600212-1.45700073-2.38333511v-.0043335c-1.23566627-3.26766586-.76533317-6.96699905 1.25799942-9.89533233z"/>
        <path fill="rgb(140,132,243)" fill-rule="evenodd" d="M23.74402618 25.442873c.1806717.48773956.64584732.81147385 1.16597367.81144905h6.1800003c.52021408.00037766.98563767-.32323074 1.16642761-.81101608.18079377-.48778915.03870392-1.03656197-.35609436-1.37531853-.01499939-.01300049-.03033256-.0253334-.0463333-.03766632-.40958024-.36639786-.64388085-.88978577-.6443329-1.43933296v-.40833473c.0000267-.02750206-.00141906-.05498505-.00433349-.08233261.01366806-1.30699921-.34633255-2.31066704-1.05833244-2.97200013-.7119999-.66133308-1.56599999-.77866554-2.01799965-.78899955-.05133438-.00300026-.09800148-.00300026-.12900162-.00300026-1.77155113.002388-3.20697975 1.43811416-3.20899963 3.2096672v1.04500008c-.0004158.54865646-.23392487 1.0712967-.64233208 1.43766594-.01533508.01233291-.03333473.02566719-.0486679.03899956-.39462663.33882522-.5366459.88747978-.3559742 1.37521934zm.93806267-.34468841c-.03619766-.09430504-.01036453-.20116997.0649128-.2685299l.0189991-.0126667.02400017-.0209999c.63526725-.5567341.99969673-1.36030198 1-2.20499993V21.5476551c.00146865-1.21975708.98991012-2.20819855 2.2096672-2.20966721.02033234 0 .05066681 0 .07933235.0020008h.02033425c.3069992.00599862.89266586.08166505 1.3666668.52199937.50533294.46999931.75433158 1.22999954.73866653 2.25899887v.04100036l.00499916.03333474v.39633178c.00042343.84548188.36564064 1.64966202 1.0020008 2.20633507l.02233315.01966477.01866531.01300048c.07483673.06731415.10042572.17379952.06434822.26776696-.0360794.09396934-.12635803.1559658-.22701454.15590095h-6.1799984c-.10101509.00030518-.19171524-.06183052-.2279129-.15613746z"/>
        <path fill="rgb(140,132,243)" fill-rule="evenodd" d="M28 27.58565432c-1.01214119-.00091887-1.83241446-.82119215-1.83333333-1.83333333h1c0 .46023729.37309604.83333333.83333333.83333333.4602373 0 .83333333-.37309604.83333333-.83333333h1C29.83241446 26.76446217 29.0121412 27.58473545 28 27.58565432z"/>
        <ellipse cx="28" cy="42.563" fill="rgb(140,132,243)" rx="4.733" ry="1.133"/>
      </g>
    </g>
  </g>
</svg>
