<svg xmlns="http://www.w3.org/2000/svg" xmlns:xlink="http://www.w3.org/1999/xlink" width="40" height="40" viewBox="0 0 40 40">
  <defs>
    <rect id="rect-2" width="26" height="26" x="7" y="7"/>
    <mask id="mask-3" maskContentUnits="userSpaceOnUse" maskUnits="userSpaceOnUse">
      <rect width="40" height="40" x="0" y="0" fill="black"/>
      <use fill="white" xlink:href="#rect-2"/>
    </mask>
    <path id="path-7" fill-rule="evenodd" d="M15.51235185 23.54466667c-.86522413.02867797-1.66009119-.47432527-2.00458381-1.2685293-.34449263-.79420404-.1686287-1.71826994.44351312-2.33041177.61214182-.61214182 1.53620772-.78800574 2.33041176-.44351312.79420404.34449263 1.29720728 1.13935969 1.2685293 2.00458382-.03807173 1.10933232-.92853805 1.99979864-2.03787037 2.03787037z"/>
    <mask id="mask-8" x="0" y="0" maskContentUnits="userSpaceOnUse" maskUnits="userSpaceOnUse">
      <rect width="40" height="40" x="0" y="0" fill="black"/>
      <use fill="white" xlink:href="#path-7"/>
    </mask>
    <path id="path-12" fill-rule="evenodd" d="M27.15385185 14.44033333c-.48237348.01594309-.92549823-.26451621-1.11753592-.70730272-.19203768-.4427865-.09398013-.957958.24729568-1.29923382.34127581-.3412758.85644731-.43933336 1.29923382-.24729567.4427865.19203768.7232458.63516243.70730272 1.11753592-.0210393.61863484-.51766146 1.115257-1.1362963 1.1362963z"/>
    <mask id="mask-13" x="0" y="0" maskContentUnits="userSpaceOnUse" maskUnits="userSpaceOnUse">
      <rect width="40" height="40" x="0" y="0" fill="black"/>
      <use fill="white" xlink:href="#path-12"/>
    </mask>
  </defs>
  <g>
    <g opacity=".2">
      <path fill="rgb(140,132,243)" fill-rule="evenodd" d="M20 0c11.03830049 0 20 8.96169951 20 20s-8.96169951 20-20 20S0 31.03830049 0 20 8.96169951 0 20 0z"/>
    </g>
    <g>
      <use fill="none" xlink:href="#rect-2"/>
      <g mask="url(#mask-3)">
        <path fill="rgb(140,132,243)" fill-rule="evenodd" d="M19.1147963 30.5259074c-1.99477778 0-3.66094445-.2925-3.7387037-.30622221-.18916785-.0417306-.31170985-.22528981-.27771677-.41600003.03399308-.19071021.21241016-.32062508.4043464-.2944259.0207037.00361111 2.08818518.36592593 4.30637036.28238889 1.28362963-.04814815 2.3635926-.234 3.2097963-.55201852 1.00581481-.37796296 1.67266667-.94346296 1.98201852-1.6810926.35027778-.83512962-.15455556-1.39196296-1.00725926-2.23142592-.41912963-.41262963-.8527037-.83922222-1.12907408-1.34598148-.33559259-.61485185-.37868518-1.23572222-.13192592-1.898.50387037-1.35344444 1.5766111-1.53087037 2.44014815-1.67387037.49568518-.08185185.92372222-.15262963 1.19888889-.40685185.30742592-.28431482.42851851-.832.3705-1.6745926-.01362814-.19903728.13667567-.37143667.33571296-.38506481.19903729-.01362814.37143668.13667568.38506481.33571296.07511111 1.0895926-.1157963 1.80555556-.60185185 2.25453704-.43333333.40107407-1.01111111.49664815-1.57107407.5890926-.81851852.13529629-1.52364815.2518148-1.8813889 1.21237036-.38253703 1.02675926.30020371 1.69890741 1.0907963 2.47722223.40227778.39601851.81851852.80527777 1.07490741 1.27448148.3148889.57488889.34474074 1.1476111.09196296 1.7509074-.39.9295-1.1972037 1.62933334-2.39946296 2.08-.9205926.34498149-2.0787963.54551852-3.4425926.59607408-.23905555.00866666-.47666666.01275926-.70946295.01275926z"/>
        <path fill="rgb(140,132,243)" fill-rule="evenodd" d="M15.05711174 29.99699974c.09604836.1130085.23687363.17814064.38518524.17814827.14885903.0005474.29039478-.06454086.38686943-.17790604l4.33333397-5.09118652.00505638-.00577736c.37892533-.43935203.6586647-.89844513.83151627-1.36475944.68201828-1.80651856.42466736-3.84848214-.69020271-5.46144486-1.11920357-1.61994362-2.89298058-2.5489626-4.86657334-2.5489626-1.97359276 0-3.74785232.92901898-4.86633396 2.5489626-1.11487007 1.61296272-1.37318516 3.6532402-.6914072 5.45735169.1735735.4687233.4535551.92901992.83199978 1.36764907l4.34055614 5.0979252zM11.11401939 18.4457779c.9952221-1.44035339 2.57279587-2.26657486 4.3282776-2.26657486 1.75548171 0 3.33377647.8291111 4.32683372 2.2660923.99305343 1.4369812 1.22344398 3.25337029.61605453 4.85911179v.00216675c-.14492607.39048195-.38373947.78216553-.70946121 1.16085243-.0043335.00457382-.00842667.00938797-.01227951.0139618l-4.22162914 4.95925903-4.228611-4.96648026-.00144481-.0016861c-.32764817-.37988853-.56838894-.7732582-.71500016-1.16927719v-.00216675c-.60618495-1.60333442-.37796306-3.41490745.61725998-4.85525894z"/>
        <path fill="rgb(140,132,243)" fill-rule="evenodd" d="M14.98344421 30.05935287c.11440945.13461495.28218651.21216584.45885277.21209145.17700195.00035667.34518814-.077219.45981407-.21209145l4.33333397-5.09070587.00505638-.00577545c.38638688-.4477787.67190552-.91698265.84860993-1.39365005.69381523-1.83588791.43188858-3.91083145-.70103836-5.55003548-1.13749886-1.64642715-2.94016648-2.59037113-4.94577599-2.59037113-2.00561142 0-3.80827808.94394398-4.94553757 2.59037113-1.1326847 1.63920403-1.39533329 3.71246147-.70248127 5.5459423.17766667.47931672.46390725.94948197.84909249 1.39629746l4.34007358 5.0979271zm-4.32827758-11.93087196c1.10090828-1.59225845 2.84579658-2.5070734 4.78713035-2.5070734 1.9415741 0 3.68622208.91385174 4.78737068 2.50731563 1.0968132 1.58720398 1.35079575 3.59570313.67912865 5.37309266-.16900063.45548057-.44272232.90470314-.81394386 1.33514785l-4.338871 5.0972023c-.0777607.09228325-.19228554.14554215-.31296254.14554215s-.23520183-.0532589-.31296253-.14554215l-4.34055614-5.0981655c-.37098122-.42996407-.6449442-.88038827-.81490708-1.3390007-.67070389-1.77425958-.41624069-3.78107263.68057347-5.36851884zm4.7871294 11.4607029l-4.30155564-5.05266571c-.33703708-.38975907-.58283329-.79444504-.73353672-1.199852-.6179819-1.6346302-.38301849-3.4827957.62761116-4.94577789 1.01351834-1.46659278 2.61998082-2.30798149 4.4074812-2.30798149 1.78749943 0 3.39444446.8413887 4.4074812 2.30822182 1.0111122 1.46274185 1.24535178 3.31259346.62592696 4.94770432-.1495018.40396308-.39385223.80455398-.72727966 1.19190597l-.00192451.00216675-.008667.00987244-4.295537 5.04640579zm-4.24907398-11.08803559c.97692585-1.41387176 2.5258522-2.224926 4.24907398-2.224926v-.00072288c1.72346401 0 3.27287006.81298066 4.24787044 2.22396279.97500038 1.41098213 1.20129586 3.19414902.6052208 4.77027893v.00288772c-.140831.3813324-.37338638.7617035-.69140625 1.13148117-.00505448.00553895-.00987053.01107407-.01324082.01540757l-4.1482029 4.87307357-4.15542602-4.88101768-.00192642-.00216675c-.32066631-.37098121-.55538845-.7547226-.69814777-1.13990783v-.0026474c-.59535218-1.57372284-.3707409-3.35183335.60618496-4.7657032z"/>
        <use fill-opacity="0" stroke="rgb(140,132,243)" stroke-linecap="butt" stroke-linejoin="miter" stroke-width="1.2" mask="url(#mask-8)" xlink:href="#path-7"/>
        <path fill="rgb(140,132,243)" fill-rule="evenodd" d="M13.8576622 22.96903038c.4150505.42929268.98630428.67214012 1.5834303.67313576.03707408 0 .07438945-.00144387.07438945-.00144387 1.1598072-.0401554 2.09074974-.97099494 2.13103676-2.13079643.01953888-.60972214-.21409607-1.2003498-.64545632-1.63171005-.43136024-.43136024-1.02198791-.6649952-1.63171005-.64545631-1.15989685.04016304-2.09087467.9711399-2.13103771 2.13103675-.01914501.59682084.20429706 1.17593956.61934757 1.60523415zm1.5179491-3.54488182h.06788922v-.00120354c.54498577.0009575 1.0663433.22262764 1.44514274.61444664.37879944.3918171.58273316.92036438.56528283 1.46507263-.03667832 1.05846405-.8862381 1.90802384-1.94470406 1.94470215-.55648327.01785088-1.09554481-.19537735-1.48924065-.58907318-.39369583-.39369583-.6069231-.93275833-.58907318-1.48924064.03667832-1.05846596.8862381-1.90802384 1.9447031-1.94470406z"/>
        <path fill="rgb(140,132,243)" fill-rule="evenodd" d="M26.89986992 18.0382042c.05363083.06300926.13223648.09927367.21498108.09918403.0827446.00008964.16135025-.03617477.21498108-.09918404l2.41679573-2.83881569.00288963-.00312996c.21137047-.24507331.3673706-.50098037.46366692-.7609806.38037109-1.00725937.2388153-2.14307404-.38518525-3.04537106-.62400054-.90229606-1.6127224-1.4203701-2.71338844-1.4203701-1.10066795 0-2.09251976.51975918-2.71363067 1.4203701-.62111092.90061093-.7653141 2.03714848-.38518525 3.04320431.09677887.2614441.25301934.51807404.46390725.7626667l2.42016792 2.8424263zm-2.19844437-6.44077874c.55490875-.80311012 1.43457413-1.26388836 2.41342736-1.26388836.97885131 0 1.85803604.46077824 2.41173934 1.2619629.55370331.8011856.68225861 1.81398105.34377861 2.70929622v.00120354c-.08088874.21835231-.21401786.43622207-.39577865.64735221l-.00674057.00770379-2.35396195 2.76514816-2.35781478-2.76851845c-.17064667-.19183826-.30565453-.41261387-.3986683-.65192604v-.00120354c-.33703613-.89387035-.2108879-1.9040184.34401894-2.70713043z"/>
        <path fill="rgb(140,132,243)" fill-rule="evenodd" d="M26.80814743 18.1162033c.07651138.08990289.18865204.1416588.30670548.1415558.11805152.000103.23019027-.05165291.30670166-.1415558l2.4165573-2.83881377.0026474-.00312996c.22003747-.25566674.38374139-.52409268.48485184-.79685211.39481545-1.0443325.2457962-2.22420311-.39842605-3.1563511-.64566612-.93624114-1.67170334-1.47309303-2.81233215-1.47309303-1.14063073 0-2.16570473.53685189-2.8125744 1.47309304-.64398192.93262863-.7932415 2.11153602-.39938926 3.15370369.11281586.29315948.27718353.56376457.4853325.7990179l2.41992568 2.84242535zm-2.30773926-6.65768527c.60112953-.8702774 1.55518532-1.36933327 2.61444474-1.36933327 1.06022262 0 2.01523971.50242615 2.61444473 1.36933327.5992031.86690712.73786926 1.9639635.37098121 2.93487072-.09148216.24651813-.24001884.49014854-.44200134.72438812l-2.41992569 2.84266663c-.03091621.0360279-.076025.05675888-.12349891.05675888-.04747582 0-.0925827-.02073097-.12350083-.05675888l-2.42040634-2.84314728c-.1897297-.21379662-.33959389-.4598732-.442482-.72655583-.36616706-.96922206-.2291851-2.061944.37194443-2.93222236zM27.114851 17.9132595l-2.44953728-2.87661171c-.19259262-.22292614-.33390808-.4547596-.42057419-.68900013-.35220337-.93142605-.21835136-1.98514843.3577404-2.81859303.57609368-.83344364 1.49259377-1.3158884 2.51237107-1.3158884 1.0197773 0 1.9345932.47955513 2.51237106 1.3158884.57777596.83633423.70970345 1.88788986.35701752 2.82027817-.08594322.23231506-.22629547.46246338-.41744423.68442535l-.00625992.00746346L27.114851 17.9132595zm-2.31448174-6.24794388c.53300095-.77013016 1.37559319-1.21188927 2.31448174-1.21188927v.0004816c.93864822 0 1.78220367.44175912 2.3142414 1.21188832.53020478.7599516.65331078 1.73185349.32933236 2.60000038-.08737373.22357178-.2137127.42987251-.37314797.60931492l-.00890731.01035213-2.26151848 2.65633393-2.26536942-2.66066742-.00216675-.00240708c-.16163444-.18159389-.28947639-.39064025-.37748146-.61725997-.32403755-.8570366-.20246315-1.82601834.3305359-2.59614754z"/>
        <use fill-opacity="0" stroke="rgb(140,132,243)" stroke-linecap="butt" stroke-linejoin="miter" stroke-width=".8" mask="url(#mask-13)" xlink:href="#path-12"/>
        <path fill="rgb(140,132,243)" fill-rule="evenodd" d="M26.1833496 14.16574192c.24398805.25233364.57977868.39508152.93077851.39568424l.04357529-.00072288c.68115234-.0240879 1.22776413-.5706997 1.25185204-1.25185108.01149368-.35839749-.12583352-.70557404-.37938881-.95912934-.2535572-.2535553-.6007328-.39088344-.95912934-.37938976-.68115234.0240879-1.22776413.57070064-1.25185203 1.25185203-.01119995.3508234.12017822.69122315.36416435.94355679zm.89515115-1.9561119h.0368328c.28583527.00043868.55929948.11666488.75798608.322155.1986866.20549106.30564117.48271178.2964592.76840018-.01926232.55507374-.46471024 1.00062561-1.01977921 1.02001858-.29215622.00967598-.57527352-.10208702-.78204155-.30871773-.20676804-.20663166-.31871796-.48967361-.30923653-.78183746.01914788-.55512428.46465874-1.000741 1.0197792-1.02001858z"/>
      </g>
    </g>
  </g>
</svg>
