<svg xmlns="http://www.w3.org/2000/svg" width="41" height="41" viewBox="0 0 41 41">
  <g>
    <ellipse cx="20.5" cy="20.5" fill="rgb(212,246,250)" rx="19.5" ry="19.5"/>
    <path fill="rgb(42,211,232)" fill-rule="evenodd" d="M28.46649265 12.67276573c-1.83232212-2.65162659-4.73604297-4.17276764-7.96646976-4.17276764-3.23042488 0-6.13368416 1.52114105-7.96577263 4.17276764-1.8232832 2.63842106-2.24429035 5.97797966-1.1284008 8.92966461.2984352.80586815.77273464 1.58879853 1.4066782 2.32237435l7.04891872 8.27973175c.15927887.18743896.39283753.29546356.6388092.29546356.24597168 0 .47953034-.1080246.6388092-.29546356l7.0470667-8.27741242c.63672256-.73797989 1.11055755-1.51998329 1.40644455-2.31936454 1.11797714-2.95631981.69696808-6.29657269-1.12608338-8.93499375zm-.44533539 8.34715843c-.22822952.6167984-.600811 1.22664643-1.10685348 1.81308937-.00149155.00138665-.00281143.00294114-.00394058.00463486l-6.41034031 7.52877617-6.4135828-7.53364181c-.50581074-.58598137-.87839222-1.19582749-1.10893822-1.8184185-.92264748-2.44054414-.5725422-5.20223141.93701363-7.38697434 1.51442146-2.191926 3.91580867-3.44915486 6.58574008-3.44915486 2.66993332 0 5.07108689 1.25722886 6.5855074 3.44915486 1.5100212 2.18474293 1.86035919 4.9464302.93539428 7.39253425zm-9.77115917-2.59336662c0-1.43486595 1.09829712-2.55889988 2.5-2.55889988 1.4249649 0 2.5 1.1002779 2.5 2.55889988 0 1.45862198-1.0750351 2.55889893-2.5 2.55889893-1.40170288 0-2.5-1.12403488-2.5-2.55889893z"/>
  </g>
</svg>
