<svg xmlns="http://www.w3.org/2000/svg" xmlns:xlink="http://www.w3.org/1999/xlink" width="56" height="55.624" viewBox="0 0 56 55.624">
  <defs>
    <rect id="rect-2" width="36" height="36" x="10" y="9.812"/>
    <mask id="mask-3" maskContentUnits="userSpaceOnUse" maskUnits="userSpaceOnUse">
      <rect width="56" height="55.624" x="0" y="0" fill="black"/>
      <use fill="white" xlink:href="#rect-2"/>
    </mask>
  </defs>
  <g>
    <g opacity=".15">
      <path fill="rgb(0,140,255)" fill-rule="evenodd" d="M27.81184742 0h.37630516C43.53792903 0 56 12.46207097 56 27.81184742S43.53792903 55.62369484 28.18815258 55.62369484h-.37630516C12.46207097 55.62369484 0 43.16162387 0 27.81184742S12.46207097 0 27.81184742 0z"/>
    </g>
    <g>
      <use fill="none" xlink:href="#rect-2"/>
      <g mask="url(#mask-3)">
        <path fill="rgb(0,140,255)" fill-rule="evenodd" d="M36.49093628 44.89075565H19.50906372c-1.04906273 0-1.90336037-.81351852-1.90336037-1.8126564V12.5463009c0-.9998436.85429764-1.81335926 1.90336037-1.81335926h16.98187256c1.04906464 0 1.90265655.81351566 1.90265655 1.81335926v30.53109264c.0007019.9998436-.85289001 1.81336212-1.90265655 1.81336212zM19.36351585 43.0731783c.03652573.04154968.09036065.06365585.14554596.05976486h16.98187447c.0552063.00400162.1090889-.01812362.14554596-.05976486V12.5540352c-.03561401-.04245282-.08961105-.06499386-.14484406-.06046868H19.50906181c-.05539322-.0042858-.10949516.01819134-.14554596.06046868v30.5191431z"/>
        <ellipse cx="20.75" cy="28.75" fill="rgb(0,140,255)" rx=".75" ry=".75"/>
        <rect width="19.03" height="1.758" x="18.485" y="37.297" fill="rgb(0,140,255)" rx="0" ry="0"/>
        <path fill="rgb(0,140,255)" fill-rule="evenodd" d="M26.04109383 28.28504944h3.91781425c.76091004-.00116158 1.37734985-.6179161 1.37812424-1.37882614v-3.91711045c-.00077439-.76091003-.6172142-1.37766647-1.37812424-1.37882804h-3.91781425c-.76090813.00116157-1.37734986.61791801-1.37812424 1.37882804v3.91711045c.00077438.76091003.6172161 1.37766456 1.37812424 1.37882614zm.6381092-1.08714295h2.64159394c.51304435-.00078582.92868042-.4166336.92920303-.92967796v-2.641119c-.00052261-.51304627-.41615868-.92889405-.92920303-.92967797h-2.64159394c-.51304435.00078392-.92868042.4166317-.92920303.92967797v2.641119c.00052261.51304436.41615868.92889214.92920303.92967796z"/>
        <path fill="rgb(0,140,255)" fill-rule="evenodd" d="M16.5 18.70111275c0-.27595711.2240429-.5.5-.5h1.5c.2759571 0 .5.22404289.5.5 0 .2759571-.2240429.5-.5.5H17c-.2759571 0-.5-.2240429-.5-.5zm6 0c0-.27595711.2240429-.5.5-.5h1.5c.2759571 0 .5.22404289.5.5 0 .2759571-.2240429.5-.5.5H23c-.2759571 0-.5-.2240429-.5-.5z"/>
        <path fill="rgb(0,140,255)" fill-rule="evenodd" d="M20.75000239 14.45111275c.2759571 1.5e-7.49999987.22404317.49999972.50000028l-8.5e-7 1.5c-1.5e-7.2759571-.22404317.49999987-.50000028.49999972-.2759571-1.6e-7-.49999987-.22404318-.49999972-.50000028l8.5e-7-1.5c1.5e-7-.27595711.22404317-.49999988.50000028-.49999972zm-.00000337 6c.2759571 1.5e-7.49999987.22404317.49999972.50000028l-8.5e-7 1.5c-1.5e-7.2759571-.22404317.49999987-.50000028.49999972-.2759571-1.6e-7-.49999987-.22404318-.49999972-.50000028l8.5e-7-1.5c1.5e-7-.27595711.22404317-.49999988.50000028-.49999972z"/>
      </g>
    </g>
  </g>
</svg>
