<svg xmlns="http://www.w3.org/2000/svg" width="220" height="181.15" viewBox="0 0 220 181.15">
  <defs>
    <linearGradient id="linearGradient-11" x1="99.116" x2="124.238" y1="115.641" y2="115.641" gradientUnits="userSpaceOnUse">
      <stop offset="0" stop-color="rgb(0,91,234)"/>
      <stop offset="1" stop-color="rgb(0,198,251)"/>
    </linearGradient>
    <linearGradient id="linearGradient-13" x1="56.401" x2="163.23" y1="71.932" y2="71.932" gradientUnits="userSpaceOnUse">
      <stop offset="0" stop-color="rgb(0,91,234)"/>
      <stop offset="1" stop-color="rgb(0,198,251)"/>
    </linearGradient>
    <linearGradient id="linearGradient-15" x1="101.053" x2="115.121" y1="88.189" y2="88.189" gradientUnits="userSpaceOnUse">
      <stop offset="0" stop-color="rgb(0,91,234)"/>
      <stop offset="1" stop-color="rgb(0,198,251)"/>
    </linearGradient>
    <linearGradient id="linearGradient-17" x1="55.127" x2="59.589" y1="49.446" y2="93.95" gradientUnits="userSpaceOnUse">
      <stop offset="0" stop-color="rgb(0,91,234)"/>
      <stop offset="1" stop-color="rgb(0,198,251)"/>
    </linearGradient>
    <linearGradient id="linearGradient-19" x1="54.727" x2="89.447" y1="45.503" y2="73.895" gradientUnits="userSpaceOnUse">
      <stop offset="0" stop-color="rgb(0,91,234)"/>
      <stop offset="1" stop-color="rgb(0,198,251)"/>
    </linearGradient>
    <linearGradient id="linearGradient-21" x1="44.107" x2="78.827" y1="59.155" y2="87.547" gradientUnits="userSpaceOnUse">
      <stop offset="0" stop-color="rgb(0,91,234)"/>
      <stop offset="1" stop-color="rgb(0,198,251)"/>
    </linearGradient>
    <linearGradient id="linearGradient-23" x1="119.656" x2="125.45" y1="76.024" y2="76.024" gradientUnits="userSpaceOnUse">
      <stop offset="0" stop-color="rgb(0,91,234)"/>
      <stop offset="1" stop-color="rgb(0,198,251)"/>
    </linearGradient>
    <linearGradient id="linearGradient-25" x1="90.861" x2="96.655" y1="76.024" y2="76.024" gradientUnits="userSpaceOnUse">
      <stop offset="0" stop-color="rgb(0,91,234)"/>
      <stop offset="1" stop-color="rgb(0,198,251)"/>
    </linearGradient>
  </defs>
  <g>
    <path fill="rgb(240,248,255)" fill-rule="evenodd" d="M196.44425612 43.98342345c-2.20997666-3.8203122-7.09778134-5.12687961-10.91920904-2.9188324l-40.77457627 23.52881357c2.95125715-2.77794557 3.35661199-7.32491352.9432882-10.5811028-2.41332378-3.25618928-6.88156577-4.19109228-10.39790214-2.1755827l-.76647834.44745762c.44471407-.41409297.93461374-.7768272 1.46045198-1.08135593l20.76949152-12.00263653c3.51947888-2.03107017 4.95533636-6.37925662 3.33746047-10.10678331-1.61787588-3.7275267-5.77468092-5.6483036-9.66194258-4.46459146l11.4826742-6.62900188c2.54703005-1.39176462 4.1398997-4.05442891 4.16173866-6.95682342.02183895-2.90239451-1.53078239-5.58872693-4.05658067-7.01866184-2.52579828-1.42993492-5.6281219-1.37891522-8.10553463.1333007L22.37288136 80.10319747c-3.82355776 2.20752688-5.13360965 7.09668699-2.9260828 10.92024477 2.20752685 3.82355778 7.09668694 5.13360972 10.92024475 2.9260829l13.84839925-7.99416195c3.82412986-2.20752687 8.71375374-.89701122 10.9212806 2.92711864 2.20752687 3.82412986.89701122 8.71375373-2.92711864 10.9212806l-27.68229755 15.98832392c-3.82355783 2.20809889-5.13314605 7.09772275-2.92504716 10.92128058 2.20809889 3.82355783 7.09772275 5.13314605 10.92128058 2.92504716l13.081921-7.55291908c-2.9670875 2.77415766-3.38209676 7.33237115-.96479746 10.59675823 2.4172993 3.26438709 6.89833566 4.1970478 10.41733984 2.16821352l-28.39077213 16.62843692c-2.47340826 1.42801947-3.99709242 4.06711149-3.99709537 6.92315562-.00000296 2.85604412 1.52367572 5.4951393 3.99708103 6.9231639 2.4734053 1.4280246 5.52076811 1.4280277 7.99417633.00000814l40.77043311-23.54124292c-2.9653991 2.77490712-3.37895037 7.33227692-.96148482 10.59564353 2.41746554 3.26336661 6.89761002 4.19554124 10.41609876 2.16725666l96.92636535-55.95913371c3.69340226-2.13945725 5.05456118-6.80305626 3.09186837-10.59335104-1.96269281-3.79029478-6.55682595-5.37012073-10.43555952-3.58856986 3.04848716-2.73490008 3.53702343-7.33134094 1.13151023-10.64592367-2.4055132-3.31458272-6.92694274-4.27510923-10.4721882-2.2246978l28.38041431-16.62843692c1.83793183-1.05918748 3.1793781-2.80560632 3.72880856-4.8545079.54943046-2.04890157.26176618-4.23218033-.79961835-6.06884426h.0062147z"/>
    <path fill="rgb(2,204,170)" fill-rule="evenodd" d="M191.54293823 22.13256836l5.993042 6.00753784 6.00753784-6.00753784-6.00753785-5.99510193-5.99304199 5.99510193zm5.993042 4.4310913l-4.41036988-4.43107604 4.41036987-4.38757324 4.40826416 4.40827941-4.40826416 4.41036988z"/>
    <path fill="rgb(2,204,170)" fill-rule="evenodd" d="M0 116.95632935l5.99303436 5.99508667 6.00753022-5.99508667-6.00753022-5.9951172L0 116.95632936zm5.99302673 4.41033935l-4.41035461-4.41033935 4.41035461-4.41036988 4.40828705 4.41036988-4.40828705 4.41033935z"/>
    <path fill="rgb(2,204,170)" fill-rule="evenodd" d="M162.92430115 124.46984863l4.75009155 4.75216675 4.75216675-4.75216675-4.75216675-4.75009155-4.75009155 4.75009155zm4.75009155 3.16741944l-3.16741943-3.16741944 3.16741943-3.16534424 3.16949463 3.16534424-3.16949463 3.16741944z"/>
    <path fill="rgb(0,140,255)" fill-rule="evenodd" d="M65.23144531 176.91357422c0 2.33966064 1.89668274 4.23632812 4.23634339 4.23632812 1.12355041 0 2.20108032-.44631958 2.99555969-1.24078369.79446411-.7944641 1.24078369-1.87200928 1.24078369-2.99554443 0-2.33969116-1.89666748-4.23635864-4.23634338-4.23635864-2.33966065 0-4.23634339 1.89666748-4.23634339 4.23635864zm1.13937378-.00350952c-.0038147-1.71478272 1.3821869-3.10849 3.0969696-3.1142273 1.71781922 0 3.11199952 1.38952637 3.1177063 3.10736084-.00001525 1.71478272-1.38911437 3.10540772-3.10391235 3.10733032-1.71478271.0018921-3.10696411-1.38568115-3.11076355-3.10046386z"/>
    <path fill="rgb(0,140,255)" fill-rule="evenodd" d="M100.08964539 4.23358154c-.00152588 2.33912659 1.8930664 4.2368164 4.23220825 4.23910523 1.12443542.00164795 2.20333862-.4440155 2.99882507-1.23872376.79548645-.79470825 1.24220276-1.8731842 1.24165344-2.99761963 0-2.33912658-1.89582824-4.23558044-4.23497009-4.23634338-2.33912659-.00076294-4.2361908 1.89445496-4.23771667 4.23358154zm1.35379028-1.1850586c.48065185-1.16641234 1.6168518-1.92820739 2.8784027-1.92988586.82662965-.00386047 1.62072755.32182313 2.20660401.90496827.58587647.5831604.91525269 1.37573242.91525269 2.20237732.0041809 1.2615509-.75230408 2.40129089-1.91647339 2.88734436-1.16415405.48606872-2.50650024.22265625-3.40063477-.66731263-.89411926-.88998413-1.16378784-2.23109436-.68315124-3.39749145z"/>
    <path fill="rgb(0,140,255)" fill-rule="evenodd" d="M211.52731323 87.85705566c0 2.33966065 1.89666748 4.23632813 4.23635864 4.23632813 2.33917237-.00112915 4.23519898-1.89715576 4.23632813-4.23632813 0-2.33969116-1.89666748-4.23635864-4.23632813-4.23635864-2.33969116 0-4.23635864 1.89666748-4.23635864 4.23635864zm1.3486023-1.20028686c.48580932-1.16467285 1.62582397-1.92160034 2.88775635-1.91741943.82589721 0 1.61782836.32879638 2.2008667.91378784.58303832.58499145.9092102 1.37802124.90646362 2.20391845 0 1.26193238-.76074219 2.39941407-1.92700196 2.88137818-1.16629028.4819336-2.50808715.21328735-3.39892578-.68051148-.89083862-.89379882-1.15499878-2.23648071-.66915893-3.40115356z"/>
    <path fill="rgb(234,57,64)" fill-rule="evenodd" d="M127.09454346 159.88528442h9.1376648l-4.56987-7.9133606-4.5677948 7.9133606zm7.20487976-1.11862182h-5.26176453l2.6308899-4.55743408 2.63087463 4.55743408z"/>
    <path fill="rgb(234,57,64)" fill-rule="evenodd" d="M37.0809784 45.72766113h9.1355896l-4.5781479-7.91543579-4.5574417 7.9154358zm7.20282745-1.12069702h-5.26177216l2.63088226-4.55743408 2.6308899 4.55743408z"/>
    <path fill="url(#linearGradient-11)" fill-rule="evenodd" d="M116.80094162 102.83238767l-3.34764595 4.5905838c-.18571565.17714813-.2434305.45023808-.145271.68738039.09815948.2371423.33199913.38955013.5885855.38361773h9.71148776c.25658637-.0059324.49042602.14647542.5885855.38361773.09815949.23714231.04044465.51023226-.145271.68738039l-17.6952919 19.76685499c-.20648162.22863345-.54929648.27148865-.8057071.10072125-.25641063-.1707674-.34901495-.50360825-.21764507-.78226551l4.04576271-9.24538606c.08184851-.19320352.06067945-.41466317-.05628862-.58886205-.11696808-.17419888-.31393998-.27761346-.52374904-.27497976h-9.05480226c-.229901.00369436-.44305535-.11984897-.55412966-.32117115-.1110743-.20132217-.10191561-.44752097.0238095-.64003413l8.11638419-15.53672316c.11418937-.18270928.3148658-.2932381.53032015-.2920904h8.49340866c.2621939-.01278425.50414447.14055236.60451387.38311174.1003694.24255939.03750923.52202458-.15705624.6982442z"/>
    <path fill="url(#linearGradient-13)" fill-rule="evenodd" d="M66.34181213 105.68078613h77.60282898c.28793335 0 .58003235-.01242065.89904785-.03314209 7.65000916-.45742798 14.43640137-5.06427002 17.68515015-12.00527954 3.24874878-6.940979 2.43896485-15.10324096-2.11030578-21.27056885-4.54925538-6.1673584-12.10856629-9.35092163-19.69932557-8.29626464-1.96383667-14.60244751-14.50094604-25.89453125-29.62335205-25.89453125-12.64950561-.00302124-23.93191528 7.9552307-28.17324829 19.87249755-1.02827453-.15789794-2.06703186-.23754882-3.10734558-.23825073-6.71110535.0032959-12.98860168 3.31695557-16.77742004 8.8562622-3.78883362 5.53927613-4.6011963 12.59106446-2.1711731 18.84677125-4.21253967 2.47253418-6.24761963 7.4597168-4.96757507 12.17358398 1.28005981 4.7138672 5.55815124 7.98672486 10.4427185 7.98892212zm1.7201233-34.2001648c2.50544738-4.41860961 7.27749633-7.05859374 12.352005-6.8333435 1.28338623.05548096 2.55226135.29406738 3.76817322.70846558.91360473.31262207 1.91693115.22296142 2.76063537-.24667359.84370423-.46966552 1.44854737-1.275177 1.6642151-2.21640014 2.63302611-11.43493653 13.42973327-19.07192993 25.08877563-17.74642945 11.65905761 1.3255005 20.46591186 11.19119263 20.46490478 22.9253235v.2444458c-.00953674 1.1184082.53001404 2.17037963 1.44387818 2.81518554.91387939.6448059 2.08587646.80041504 3.13635253.41647339 1.46173096-.5331421 3.00177002-.8201294 4.55743409-.84936524 7.38719177-.1532898 13.70959472 5.53521729 14.31655883 12.8975525.31933594 3.78546142-.90380859 7.5394287-3.39189148 10.41015624-2.48808288 2.87069702-6.03018188 4.61480713-9.82260131 4.83654785h-.09944153c-.13464356.01864624-.25065613.01864624-.35629273.01864624H66.4433136c-2.01289368.02301026-3.7415619-1.42590332-4.07061768-3.41186523-.15866089-1.09127808.1378479-2.19985962.8201294-3.06622314.6822815-.86636353 1.69044494-1.41448975 2.78852844-1.51605225l2.63502502-.22787476c.64552308-.05612182 1.21377564-.4480896 1.49554444-1.03158569.28175354-.5834961.23536682-1.27224731-.12210083-1.8126831l-1.4500885-2.20620728c-2.79864502-4.23898315-2.98324585-9.68948364-.47779847-14.10809326z"/>
    <path fill="url(#linearGradient-15)" fill-rule="evenodd" d="M113.99811676 90.41543852c-6.52542373-2.2787194-11.45781544-.0849341-11.50753296-.0621469l-1.43766478-3.09284369c.246516-.11600753 6.173258-2.81939736 14.06798493-.06629002l-1.12278719 3.2212806z"/>
    <rect width="2.066" height="10.375" x="54.984" y="53.182" fill="url(#linearGradient-17)" rx="0" ry="0" transform="rotate(-46.000016 56.01668173 58.36899972)"/>
    <rect width="2.072" height="9.585" x="62.853" y="48.211" fill="url(#linearGradient-19)" rx="0" ry="0" transform="rotate(-1 63.88845356 53.00351531)"/>
    <rect width="9.585" height="2.072" x="47.137" y="64.525" fill="url(#linearGradient-21)" rx="0" ry="0" transform="rotate(-1 51.92997964 65.56071114)"/>
    <path fill="url(#linearGradient-23)" fill-rule="evenodd" d="M122.54745763 74.82278315l1.5661017-1.5661017 1.133145 1.13314501-1.5661017 1.5661017 1.76911488 1.77118644-1.19322033 1.19322034-1.77118645-1.77118644-1.57024482 1.57231638-1.133145-1.133145 1.57024482-1.5723164-1.69661017-1.69661016 1.1952919-1.19322034 1.69661017 1.69661017z"/>
    <path fill="url(#linearGradient-25)" fill-rule="evenodd" d="M93.7527307 74.82278315l1.5661017-1.5661017 1.133145 1.13314501-1.5661017 1.5661017 1.76911488 1.77118644-1.19322034 1.19322034-1.77118644-1.77118644-1.57024482 1.57231638-1.133145-1.133145 1.57231638-1.5723164-1.69868173-1.69661016 1.1952919-1.19322034 1.69661017 1.69661017z"/>
  </g>
</svg>
