<svg xmlns="http://www.w3.org/2000/svg" xmlns:xlink="http://www.w3.org/1999/xlink" width="220" height="180" viewBox="0 0 220 180">
  <defs>
    <rect id="rect-1" width="220" height="180" x="-1.833" y="-.935"/>
    <mask id="mask-2" maskContentUnits="userSpaceOnUse" maskUnits="userSpaceOnUse">
      <rect width="220" height="180" x="0" y="0" fill="black"/>
      <use fill="white" xlink:href="#rect-1"/>
    </mask>
    <linearGradient id="linearGradient-5" x1="195.967" x2="206.627" y1="9.845" y2="9.845" gradientUnits="userSpaceOnUse">
      <stop offset="0" stop-color="rgb(0,91,234)"/>
      <stop offset="1" stop-color="rgb(0,198,251)"/>
    </linearGradient>
    <linearGradient id="linearGradient-7" x1=".417" x2="11.077" y1="111.715" y2="111.715" gradientUnits="userSpaceOnUse">
      <stop offset="0" stop-color="rgb(0,91,234)"/>
      <stop offset="1" stop-color="rgb(0,198,251)"/>
    </linearGradient>
    <linearGradient id="linearGradient-9" x1="174.707" x2="183.157" y1="164.965" y2="164.965" gradientUnits="userSpaceOnUse">
      <stop offset="0" stop-color="rgb(0,91,234)"/>
      <stop offset="1" stop-color="rgb(0,198,251)"/>
    </linearGradient>
    <linearGradient id="linearGradient-11" x1="64.982" x2="72.227" y1="165.436" y2="165.436" gradientUnits="userSpaceOnUse">
      <stop offset="0" stop-color="rgb(246,148,83)"/>
      <stop offset=".5" stop-color="rgb(243,117,33)"/>
      <stop offset="1" stop-color="rgb(212,98,42)"/>
    </linearGradient>
    <linearGradient id="linearGradient-14" x1="7.322" x2="14.563" y1="15.976" y2="15.976" gradientUnits="userSpaceOnUse">
      <stop offset="0" stop-color="rgb(243,127,123)"/>
      <stop offset=".5" stop-color="rgb(237,61,87)"/>
      <stop offset="1" stop-color="rgb(221,30,71)"/>
    </linearGradient>
    <linearGradient id="linearGradient-16" x1="98.217" x2="106.337" y1="3.125" y2="3.125" gradientUnits="userSpaceOnUse">
      <stop offset="0" stop-color="rgb(255,231,163)"/>
      <stop offset=".5" stop-color="rgb(255,202,5)"/>
      <stop offset="1" stop-color="rgb(250,172,24)"/>
    </linearGradient>
    <linearGradient id="linearGradient-21" x1="145.337" x2="92.717" y1="53.015" y2="112.355" gradientUnits="userSpaceOnUse">
      <stop offset="0" stop-color="rgb(255,231,163)"/>
      <stop offset=".5" stop-color="rgb(255,202,5)"/>
      <stop offset="1" stop-color="rgb(250,172,24)"/>
    </linearGradient>
    <linearGradient id="linearGradient-23" x1="146.347" x2="123.667" y1="43.775" y2="72.785" gradientUnits="userSpaceOnUse">
      <stop offset="0" stop-color="rgb(255,148,148)"/>
      <stop offset="1" stop-color="rgb(228,35,118)"/>
    </linearGradient>
  </defs>
  <g transform="translate(1.83333081 .93463147)">
    <use fill="none" xlink:href="#rect-1"/>
    <g mask="url(#mask-2)">
      <g opacity=".05">
        <path fill="rgb(0,140,255)" fill-rule="evenodd" d="M186.80666919 52.06536853c-1.96776356-3.39358274-6.3097469-4.55621474-9.71-2.6l-36.23 20.89c2.54142795-2.48404045 2.85484036-6.46444875.73350112-9.3156297-2.12133924-2.85118096-6.02392713-3.69479542-9.13350112-1.9743703l-.68.4c.39159243-.38434137.828072-.72009488 1.3-1l18.45-10.66c3.14944715-1.7935956 4.4423979-5.67142553 2.99952342-8.99619858-1.44287448-3.32477304-5.1583378-5.02906729-8.61952342-3.95380142l10.25-5.9c2.26623372-1.23624586 3.6843465-3.60371906 3.70488503-6.18513287.02053853-2.58141382-1.3597244-4.97115176-3.60600056-6.24330055-2.24627615-1.2721488-5.00560907-1.22681623-7.20888447.11843342l-116.89 67.49c-3.2937897 2.0110829-4.3818991 6.2825137-2.45172013 9.62435663 1.93017898 3.34184293 6.1738108 4.5337709 9.56172013 2.68564337l12.3-7.11c3.38790934-1.84812752 7.63154115-.65619955 9.56172013 2.68564337 1.93017897 3.34184293.84206958 7.61327374-2.45172013 9.62435663l-24.65 14.21c-2.1971834 1.26829284-3.55083842 3.61242714-3.5510563 6.1493902-.00021786 2.53696306 1.3530345 4.88132984 3.55000004 6.15000004 2.19696553 1.2686702 4.9038729 1.26890263 7.10105627.00060976l11.62999999-6.71c-2.64897934 2.46173958-3.02446421 6.52115489-.87197347 9.42701739 2.15249074 2.9058625 6.14514181 3.72962155 9.27197347 1.91298261l-25.23 14.78c-2.1971834 1.26829284-3.55083842 3.61242714-3.5510563 6.1493902-.00021786 2.53696306 1.3530345 4.88132984 3.55000004 6.15000004 2.19696553 1.2686702 4.9038729 1.26890263 7.10105627.00060976l36.22999999-20.92c-2.64897934 2.46173958-3.02446421 6.52115489-.87197347 9.42701739 2.15249074 2.9058625 6.14514181 3.72962155 9.27197347 1.91298261l86.14-49.72c3.2625984-1.91271915 4.45688722-6.04478553 2.7177852-9.40314333-1.73910201-3.35835779-5.80289866-4.76756152-9.2477852-3.20685667 2.71166129-2.42877493 3.14705823-6.51494201 1.00806078-9.46057344-2.13899745-2.94563143-6.15929197-3.79625703-9.30806078-1.96942656l25.19-14.78c3.39831063-1.96414076 4.56212034-6.31052242 2.6-9.71l.04.03z"/>
      </g>
      <path fill="url(#linearGradient-5)" fill-rule="evenodd" d="M195.9666748 9.8453685l5.33000184 5.3199997 5.33000183-5.3199997-5.33000183-5.32999992-5.33000184 5.32999992zm5.32998658 3.90999985L197.3766632 9.8453685l3.88000488-3.91999995 3.9099884 3.91999995-3.86999511 3.90999985z"/>
      <path fill="url(#linearGradient-7)" fill-rule="evenodd" d="M.41666919 111.74536896l5.32999992 5.3199997 5.32999993-5.3199997-5.32999993-5.33000183-5.32999992 5.33000183zm5.32999992 3.91000366l-3.91999983-3.91000366 3.91999983-3.91999817 3.9100008 3.91999817-3.9100008 3.91000366z"/>
      <path fill="url(#linearGradient-9)" fill-rule="evenodd" d="M174.70666504 164.96536255l4.22000122 4.22000122 4.2400055-4.22000122-4.2400055-4.22000122-4.22000122 4.22000122zm4.27000427 2.81001282l-2.80999756-2.80999756 2.80999756-2.82000733 2.82000733 2.82000733-2.82000733 2.80999756z"/>
      <path fill="url(#linearGradient-11)" fill-rule="evenodd" d="M64.97652435 166.7450409c.58667755 1.40841674 1.96442414 2.32438659 3.49015045 2.32032775 2.0782013-.00550842 3.76000214-1.69177246 3.75999451-3.76998901 0-1.52574158-.9196167-2.90104675-2.3296051-3.48397827-1.40997315-.58293152-3.03230286-.25854492-4.10972595.82173156-1.0774231 1.08029175-1.39749146 2.70347596-.8108139 4.11190796zm.91368866-2.5081482c.4328537-1.03971863 1.4502411-1.71556091 2.57645417-1.71151733.73464965 0 1.43920898.2918396 1.95868682.81130981.51947022.51948547.81130982 1.2240448.81130982 1.95869446.00404358 1.12620544-.67179108 2.14360046-1.7115097 2.57644653-1.03971863.43286133-2.23786927.1956482-3.03422547-.600708-.79636383-.7963562-1.03356934-1.99450684-.60071564-3.03422547z"/>
      <path fill="rgb(2,204,170)" fill-rule="evenodd" d="M198.68269348 87.2857666c.58293152 1.40997315 1.9582367 2.32958985 3.48397827 2.32959747.99894715.00265503 1.95788575-.3923111 2.66519165-1.09773254.70729065-.70542908 1.10481263-1.66331482 1.10479737-2.6622696.00405883-1.52572631-.91191101-2.90346526-2.32032776-3.49014281-1.408432-.58667756-3.03161621-.26660157-4.11190796.8108139-1.08027649 1.0774231-1.40466309 2.6997528-.82173157 4.10973358zm.713974-1.4504013c0-1.5298233 1.24017334-2.76999665 2.77000427-2.76999665.73464966 0 1.43920899.2918396 1.9586792.81131745.51948548.51947021.81130982 1.22402954.81130982 1.9586792 0 1.52983093-1.24015808 2.77000427-2.76998902 2.77000427-1.52983093 0-2.77000427-1.24017334-2.77000427-2.77000427z"/>
      <path fill="url(#linearGradient-14)" fill-rule="evenodd" d="M7.31269646 17.26576614c.58293342 1.40998078 1.9582405 2.32959748 3.48397255 2.3296032.99894523.00265694 1.95788765-.392313 2.66518783-1.09773731.7073021-.70542431 1.10481644-1.66331387 1.10481262-2.66226292.0040474-1.52572632-.91191482-2.903471-2.3203411-3.4901476-1.4084282-.58667659-3.03160954-.26660441-4.11189652.81081677-1.08028698 1.0774212-1.4046688 2.69974709-.82173538 4.10972786zm.9084692-2.50120449c.43344307-1.03848743 1.45019722-1.71324062 2.57550335-1.70919227v.00999927c1.52755165.00548554 2.76451492 1.2424488 2.77000045 2.77000046-.00000763 1.1253128-.6784191 2.13962936-1.7184639 2.5693283-1.04004192.429698-2.23655032.1900139-3.03083228-.60713481-.79428101-.7971487-1.02965165-1.99451351-.59620762-3.03300095z"/>
      <path fill="url(#linearGradient-16)" fill-rule="evenodd" d="M98.21666718 6.64536858h8.12000274l-4.06000519-7-4.05999755 7zm6.40000152-1h-4.66999817l2.33999634-4 2.33000183 4z"/>
      <g opacity=".1">
        <path fill="rgb(0,0,0)" fill-rule="evenodd" d="M92.60666919 114.41536853c-.08599665 5.35648576 3.66933257 10.0087068 8.92341805 11.05461354 5.25408548 1.04590674 10.50472739-1.81353688 12.47658195-6.79461354l-21.4-4.26z"/>
        <g opacity=".9">
          <path fill="rgb(0,0,0)" fill-rule="evenodd" d="M132.95666919 109.42536853c-1.49968464-1.54486474-2.1429242-3.72888745-1.72-5.84l3.93-19.73c2.41840796-12.17095893-4.62935142-24.23198443-16.42-28.1l.42-2.1c.34912053-1.7697567-.80082197-3.48795873-2.57-3.84-.85143344-.1706174-1.73576618.0044296-2.4579967.48654192-.7222305.48211232-1.22304245 1.23169437-1.3920033 2.08345808l-.43 2.18c-12.14954462-.60080063-22.90558905 7.7895948-25.28 19.72l-3.93 19.78c-.41851939 2.10868682-1.84664263 3.87701743-3.82 4.73-3.14659162 1.35557759-5.4318803 4.16364473-6.12 7.52l-.81 4.07 62.56 12.45.81-4.07c.6731272-3.37961727-.36316202-6.87381994-2.77-9.34z"/>
        </g>
      </g>
      <path fill="rgb(251,176,59)" fill-rule="evenodd" d="M90.60666919 112.41536853c-.08599665 5.35648576 3.66933257 10.0087068 8.92341805 11.05461354 5.25408548 1.04590674 10.50472739-1.81353688 12.47658195-6.79461354l-21.4-4.26z"/>
      <path fill="url(#linearGradient-21)" fill-rule="evenodd" d="M130.95666919 107.42536853c-1.49968464-1.54486474-2.1429242-3.72888745-1.72-5.84l3.93-19.73c2.41840796-12.17095893-4.62935142-24.23198443-16.42-28.1l.42-2.1c.34912053-1.7697567-.80082197-3.48795873-2.57-3.84-.85143344-.1706174-1.73576618.0044296-2.4579967.48654192-.7222305.48211232-1.22304245 1.23169437-1.3920033 2.08345808l-.43 2.18c-12.14954462-.60080063-22.90558905 7.7895948-25.28 19.72l-3.93 19.78c-.41851939 2.10868682-1.84664263 3.87701743-3.82 4.73-3.14659162 1.35557759-5.4318803 4.16364473-6.12 7.52l-.81 4.07 62.56 12.45.81-4.07c.6731272-3.37961727-.36316202-6.87381994-2.77-9.34z"/>
      <ellipse cx="130.637" cy="63.865" fill="url(#linearGradient-23)" rx="13.08" ry="13.08"/>
      <path fill="rgb(255,255,255)" fill-rule="evenodd" d="M131.16666919 57.32536853c.67542408-.00002232 1.22450875.54459824 1.23 1.22v7c.00808492.33138268-.11792597.65200077-.34947782.88920023-.23155185.23719946-.54904091.37089838-.88052218.37079977-.6737874 0-1.22-.5462126-1.22-1.22v-7c-.0108399-.3304376.11289397-.6511259.34287377-.88864603.2299798-.23752012.54651092-.37153172.87712623-.37135397z"/>
      <path fill="rgb(255,255,255)" fill-rule="evenodd" d="M131.16666919 68.44536853c.67931024 0 1.23.55068976 1.23 1.23-.00549125.67540177-.55457592 1.22002233-1.23 1.22-.6737874 0-1.22-.5462126-1.22-1.22-.00002232-.67542408.54459824-1.22450874 1.22-1.23z"/>
      <path fill="rgb(251,176,59)" fill-rule="evenodd" d="M62.31666919 95.00536853c-.62950103-.00888937-1.18742863-.40740909-1.4-1-6.06576147-15.3584109 1.42061088-32.73126423 16.75-38.87.77043722-.30651801 1.64348194.0695628 1.94999997.84000002.30651803.77043721-.06956277 1.64348194-.83999997 1.94999999-13.80374684 5.52683498-20.54097741 21.17401945-15.07 35 .1635508.37565793.16632004.80186762.00766444 1.17961906-.1586556.37775143-.46492634.67416433-.84766444.82038093-.17580029.06452518-.36310236.09176912-.55.08z"/>
      <path fill="rgb(251,176,59)" fill-rule="evenodd" d="M71.04666919 92.96536853c-.60118358.00345796-1.14714369-.3500414-1.39-.9-4.8612831-12.19439022 1.07858563-26.0212587 13.27-30.89.77043722-.30651802 1.64348195.06956278 1.94999999.84.30651803.77043722-.06956277 1.64348196-.83999998 1.95-10.63172442 4.25263716-15.81606633 16.30768587-11.59000001 26.95.14721981.3685422.1413327.78058788-.016356 1.1447737-.1576887.3641858-.45414813.65041667-.823644.7952263-.17678589.07586057-.36765438.1133526-.56.11z"/>
    </g>
  </g>
</svg>
