<svg xmlns="http://www.w3.org/2000/svg" width="32" height="32" viewBox="0 0 32 32">
  <g>
    <ellipse cx="16" cy="16" fill="rgb(232,248,255)" rx="16" ry="16"/>
    <g>
      <path fill="rgb(0,140,255)" fill-rule="evenodd" d="M13.1187439 24.00012207h5.76260376c1.77561187 0 3.22029495-1.44470215 3.22029495-3.22009277v-2.81866455c0-1.77557373-1.44468308-3.22027588-3.22029495-3.22027588H13.1187439c-1.77561188 0-3.22029496 1.44470215-3.22029496 3.22027588v2.81848144c0 1.77557373 1.44468308 3.22027588 3.22029496 3.22027588zm-2.27140808-6.03875732c.00130844-1.25396729 1.01748275-2.2701416 2.27140426-2.27142334h5.76260758c1.25391769.00128173 2.27009582 1.01745605 2.27140045 2.27142334v2.81866455c-.00130463 1.25390625-1.01748276 2.27008056-2.27140045 2.27142334h-5.76260758c-1.2539215-.00134278-2.27009582-1.0175171-2.27140426-2.27142334v-2.81866455z"/>
      <ellipse cx="16.25" cy="19.25" fill="rgb(0,140,255)" rx="1.25" ry="1.25"/>
      <path fill="rgb(0,140,255)" fill-rule="evenodd" d="M11.5431099 12.45684814v3.2331543h8.91386794v-3.2331543c0-2.45758056-1.99930954-4.45690918-4.45693206-4.45690918-2.45762635 0-4.45693589 1.99932862-4.45693589 4.45690918zm7.96498107 0v2.2841797h-7.01609039v-2.2841797c0-1.93432617 1.57373428-3.50805664 3.5080452-3.50805664 1.9343109 0 3.5080452 1.57373047 3.5080452 3.50805664z"/>
    </g>
  </g>
</svg>
