<svg xmlns="http://www.w3.org/2000/svg" xmlns:xlink="http://www.w3.org/1999/xlink" width="72" height="72" viewBox="0 0 72 72">
  <defs>
    <rect id="rect-2" width="42.932" height="42.146" x="14.534" y="14.927"/>
    <mask id="mask-3" maskContentUnits="userSpaceOnUse" maskUnits="userSpaceOnUse">
      <rect width="72" height="72" x="0" y="0" fill="black"/>
      <use fill="white" xlink:href="#rect-2"/>
    </mask>
  </defs>
  <g>
    <g opacity=".2">
      <path fill="rgb(140,132,243)" fill-rule="evenodd" d="M36 0c19.86894088 0 36 16.13105912 36 36S55.86894088 72 36 72 0 55.86894088 0 36 16.13105912 0 36 0z"/>
    </g>
    <g>
      <use fill="none" xlink:href="#rect-2"/>
      <g mask="url(#mask-3)">
        <path fill="rgb(140,132,243)" fill-rule="evenodd" d="M31.17176819 43.13134766h9.65644836c2.97540283 0 5.39627075-2.37658692 5.39627075-5.29718018v-4.63690185c0-2.92095948-2.42086792-5.2975464-5.39627075-5.2975464H31.1717682c-2.97540283 0-5.39627075 2.37658692-5.39627075 5.2975464v4.6364746c0 2.92102051 2.42086792 5.29760743 5.39627075 5.29760743zm-3.80619812-9.93408204c.00219726-2.06274414 1.70500183-3.73443603 3.80621338-3.73657226h9.65644836c2.1011963.00213623 3.80401611 1.67382812 3.80621338 3.73657226v4.63690186c-.00219727 2.06274414-1.70501709 3.73443604-3.80621338 3.73657227h-9.65644836c-2.10121155-.00213623-3.80401612-1.67382813-3.80621338-3.73657227v-4.63690185z"/>
        <path fill="rgb(140,132,243)" fill-rule="evenodd" d="M28.53147888 24.1420288v5.31860352h14.93704224v-5.31860351c0-4.04290772-3.3502655-7.33190918-7.46852112-7.33190918s-7.46852112 3.28900146-7.46852112 7.33190918zm13.3469696 0v3.7576294H30.12153626v-3.7576294c0-3.18206786 2.63711548-5.77093505 5.87846375-5.77093505 3.241333 0 5.87844849 2.58886719 5.87844849 5.77093506z"/>
        <path fill="rgb(140,132,243)" fill-rule="evenodd" d="M24.03477478 55.82440186h23.93043518c3.27671814 0 5.94285584-2.61737061 5.94285584-5.83410645 0-3.21679687-2.6661377-5.83416748-5.94285584-5.83416748H24.03477478c-3.27671814 0-5.94285583 2.6173706-5.94285583 5.83416748 0 3.21673584 2.6661377 5.83410645 5.94285583 5.83410645zm-4.3527832-5.83410645c0-2.36004639 1.94880676-4.27319336 4.35279846-4.27319336h23.93043518c2.40397644 0 4.35279846 1.91314697 4.35279846 4.27319336 0 2.35998535-1.94882202 4.27313232-4.35279846 4.27313232H24.03479004c-2.4039917 0-4.35279846-1.91314697-4.35279846-4.27313232z"/>
        <path fill="rgb(140,132,243)" fill-rule="evenodd" d="M29.77331677 47.6764878l-1.68228571 2.1732683v.0347317l2.67408695-.34770731v1.18243902l-2.67408695-.3129756v.0347317l1.7001739 2.0862439-1.11582608.62595122-1.062559-2.43395122h-.03537889l-1.15120497 2.4515122-1.00968944-.62595122 1.68268323-2.12097561v-.0347317l-2.62121739.33014633V49.5367805l2.6033292.33053658v-.0347317l-1.66479504-2.12097561 1.0804472-.6087805 1.0979379 2.4167805h.03537888l1.0804472-2.43395122 1.06255901.59082926z"/>
        <path fill="rgb(140,132,243)" fill-rule="evenodd" d="M38.26703106 47.6764878l-1.68268323 2.1732683v.0347317l2.67448447-.34770731v1.18243902l-2.67448447-.3129756v.0347317l1.7001739 2.0862439-1.11582608.62595122-1.062559-2.43395122h-.03537889l-1.15120496 2.4515122-1.00929193-.62595122 1.68228571-2.12097561v-.0347317l-2.62121739.33014633V49.5367805l2.60372671.33053658v-.0347317l-1.66479503-2.12097561 1.0804472-.6087805 1.0979379 2.4167805h.03537887l1.08044721-2.43395122 1.062559.59082926z"/>
        <path fill="rgb(140,132,243)" fill-rule="evenodd" d="M46.76034783 47.6764878l-1.68228572 2.1732683v.0347317l2.67408696-.34770731v1.18243902l-2.67408696-.3129756v.0347317l1.70017391 2.0862439-1.11582608.62595122-1.062559-2.43395122h-.03537889l-1.15120497 2.4515122-1.00929192-.62595122 1.68228571-2.12097561v-.0347317l-2.6212174.33014633V49.5367805l2.6033292.33053658v-.0347317l-1.66439751-2.12097561 1.08004968-.6087805 1.0979379 2.4167805h.03577639l1.08004969-2.43395122 1.062559.59082926z"/>
      </g>
    </g>
  </g>
</svg>
