<svg xmlns="http://www.w3.org/2000/svg" xmlns:xlink="http://www.w3.org/1999/xlink" width="220" height="220" viewBox="0 0 220 220">
  <defs>
    <linearGradient id="linearGradient-11" x1="67.987" x2="152.3" y1="90.595" y2="90.595" gradientUnits="userSpaceOnUse">
      <stop offset="0" stop-color="rgb(0,91,234)"/>
      <stop offset="1" stop-color="rgb(0,198,251)"/>
    </linearGradient>
    <linearGradient id="linearGradient-14" x1="62.057" x2="157.979" y1="90.58" y2="90.58" gradientUnits="userSpaceOnUse">
      <stop offset="0" stop-color="rgb(0,91,234)"/>
      <stop offset="1" stop-color="rgb(0,198,251)"/>
    </linearGradient>
    <rect id="rect-15" width="26.825" height="44.167" x="96.614" y="65.125"/>
    <path id="path-16" fill-rule="evenodd" d="M100.1242752 75.0254364v7.28323364h19.79999543V75.0254364c0-5.46762085-4.43237305-9.90000152-9.8999939-9.90000152s-9.90000152 4.43238067-9.90000152 9.90000152zm17.0254364 0v4.508667h-14.25086974v-4.508667c0-3.93527222 3.19016266-7.12543487 7.12543487-7.12543487 3.9352646 0 7.12543488 3.19016265 7.12543488 7.12543487z"/>
    <filter id="filter-17" width="200%" height="200%" x="-50%" y="-50%" color-interpolation-filters="sRGB" filterUnits="userSpaceOnUse">
      <feOffset dx="0" dy="1" in="SourceAlpha" result="shadow-1-feOffset-shadow"/>
      <feGaussianBlur in="shadow-1-feOffset-shadow" result="shadow-1-feGaussianBlur-shadow" stdDeviation="1.205"/>
      <feColorMatrix in="shadow-1-feGaussianBlur-shadow" result="shadow-1-feColorMatrix-shadow" type="matrix" values="0 0 0 0 0  0 0 0 0 0.396078431372549  0 0 0 0 0.7254901960784313  0 0 0 0.5 0"/>
    </filter>
    <path id="path-18" fill-rule="evenodd" d="M103.86994171 79.5341034h12.31214142c4.00646973.00382232 7.25339508 3.2507553 7.2572174 7.25722503v6.02427673c-.0057373 4.00714875-3.25527953 7.25280762-7.26242065 7.2537613h-12.31214142c-4.00241088-.00764466-7.24456787-3.2513504-7.25028991-7.2537613v-6.02427673c.00382232-4.00579071 3.24970245-7.25244904 7.25549316-7.25722504zm7.25722504 13.42543792v-3.3312149c.78538513-.40078736 1.19372558-1.2876358.9876175-2.14494324-.20610047-.85731506-.97293092-1.4616394-1.85466767-1.4616394-.88173676 0-1.6485672.60432434-1.8546753 1.4616394-.20610046.85730743.20224 1.74415588.98762513 2.14494324v3.3312149h1.73410034z"/>
    <filter id="filter-19" width="200%" height="200%" x="-50%" y="-50%" color-interpolation-filters="sRGB" filterUnits="userSpaceOnUse">
      <feOffset dx="0" dy="1" in="SourceAlpha" result="shadow-1-feOffset-shadow"/>
      <feGaussianBlur in="shadow-1-feOffset-shadow" result="shadow-1-feGaussianBlur-shadow" stdDeviation="1.205"/>
      <feColorMatrix in="shadow-1-feGaussianBlur-shadow" result="shadow-1-feColorMatrix-shadow" type="matrix" values="0 0 0 0 0  0 0 0 0 0.396078431372549  0 0 0 0 0.7254901960784313  0 0 0 0.5 0"/>
    </filter>
    <path id="path-20" fill-rule="evenodd" d="M104.51849711 105.59768786l-1.35086705.1734104.88092485-1.1601156c.13141869-.17426115.18191836-.39645968.13872833-.61040463-.04348754-.21359606-.17764917-.39775189-.36763006-.50462427l-.02254335-.01387284c-.18674121-.10465292-.408856-.12604641-.61213873-.05895953-.20289891.06757147-.3674702.21827086-.45260116.41445086l-.57225433 1.31445087-.58092486-1.30231214c-.08730282-.19503386-.25305747-.34401835-.45626417-.41010183-.2032067-.06608348-.42488774-.04309433-.61020982.06328102l-.0416185.02427746c-.18950235.1087044-.3228714.29390407-.36589595.50809249-.04355203.21391739.00837509.4361908.14219653.60867052l.8566474 1.1132948-1.283237-.17341041c-.29073104-.0370616-.57669051.09723774-.73382583.34463741-.15713532.24739967-.15713532.56332551 0 .81072518.15713532.24739966.4430948.38169901.73382584.3446374l1.29710983-.1734104-.87919076 1.12890174c-.13149016.16830267-.1856638.3843673-.14913294.59479769.03752088.21326022.16428085.4003672.34842189.51429619.18414104.11392899.40815445.14384726.61573996.0822356.20829045-.06209388.38-.21044588.4716763-.40751445l.61213872-1.3300578.56184972 1.30924855c.08527504.19774788.25065691.34987519.45482407.41837211.20416715.06849692.4278347.04689349.61511812-.05941257l.05722544-.03468208c.1917874-.10931545.3260652-.29715614.36743225-.5139995.04136704-.21684336-.01432864-.44092514-.15240335-.61316813l-.86705203-1.07861272 1.34566474.16127167c.29156698.03537897.57732063-.10090514.73333405-.34974803.15601342-.24884289.15418768-.56542648-.00468543-.81245341-.15887311-.24702694-.4461796-.3800062-.73731914-.34126676l.00693642.01907514z"/>
    <filter id="filter-21" width="200%" height="200%" x="-50%" y="-50%" color-interpolation-filters="sRGB" filterUnits="userSpaceOnUse">
      <feOffset dx="0" dy="1" in="SourceAlpha" result="shadow-1-feOffset-shadow"/>
      <feGaussianBlur in="shadow-1-feOffset-shadow" result="shadow-1-feGaussianBlur-shadow" stdDeviation="1.205"/>
      <feColorMatrix in="shadow-1-feGaussianBlur-shadow" result="shadow-1-feColorMatrix-shadow" type="matrix" values="0 0 0 0 0  0 0 0 0 0.396078431372549  0 0 0 0 0.7254901960784313  0 0 0 0.5 0"/>
    </filter>
    <path id="path-22" fill-rule="evenodd" d="M112.46763006 105.59768786l-1.35086705.1734104.88092485-1.1601156c.13141869-.17426115.18191835-.39645968.13872832-.61040463-.04348753-.21359606-.17764916-.39775189-.36763005-.50462427l-.02254336-.01387284c-.1867412-.10465292-.408856-.12604641-.61213872-.05895953-.20289891.06757147-.36747021.21827086-.45260116.41445086l-.57225434 1.31271677-.58092485-1.30057804c-.08730282-.19503386-.25305747-.34401835-.45626417-.41010183-.2032067-.06608348-.42488774-.04309433-.61020982.06328102l-.0416185.02601156c-.18976372.10772566-.32343023.29250987-.36635246.50645558-.04292224.21394572.00912582.43598837.14265304.60857333l.8566474 1.1132948-1.283237-.17341041c-.32965627-.04206639-.6481321.13606076-.78483971.43896977-.13670762.30290902-.0595915.65957305.19004203.8789493.16481935.13932062.38092972.20232656.59479769.1734104l1.29710982-.1734104-.87919075 1.12890174c-.13140602.16767185-.18559777.3831786-.14913295.59306358.0573704.32629828.3196192.57776612.64803709.62139651.3284179.0436304.64722663-.1306438.78780106-.43064506l.61213873-1.3300578.56184971 1.30924855c.08527505.19774788.25065692.34987519.45482408.41837211.20416715.06849692.4278347.04689349.61511812-.05941257l.05895954-.03468208c.19131897-.10972953.32518666-.2975285.36651602-.51417429.04132935-.2166458-.01400038-.4405378-.15148712-.61299334l-.86705202-1.07861272 1.34739884.16127167c.29159917.03502463.57717862-.10159438.73289459-.35061111.15571597-.24901674.15352518-.56558519-.0056223-.81242294-.1591475-.24683775-.44659042-.3794912-.73767691-.34043415l.0052023.02774566z"/>
    <filter id="filter-23" width="200%" height="200%" x="-50%" y="-50%" color-interpolation-filters="sRGB" filterUnits="userSpaceOnUse">
      <feOffset dx="0" dy="1" in="SourceAlpha" result="shadow-1-feOffset-shadow"/>
      <feGaussianBlur in="shadow-1-feOffset-shadow" result="shadow-1-feGaussianBlur-shadow" stdDeviation="1.205"/>
      <feColorMatrix in="shadow-1-feGaussianBlur-shadow" result="shadow-1-feColorMatrix-shadow" type="matrix" values="0 0 0 0 0  0 0 0 0 0.396078431372549  0 0 0 0 0.7254901960784313  0 0 0 0.5 0"/>
    </filter>
    <path id="path-24" fill-rule="evenodd" d="M121.0115607 105.77976879c-.16481715-.14059683-.38202697-.20373922-.5965318-.1734104l-1.35086705.1734104.88092486-1.16011561c.13194996-.17365303.18248446-.39582673.1386265-.60946813-.04385795-.2136414-.1778356-.39793702-.36752824-.50556077l-.02254335-.01387283c-.18674121-.10465293-.408856-.12604642-.61213873-.05895954-.20335543.0677671-.3680539.21921398-.45260116.41618497l-.57225433 1.31271676-.58092486-1.30231214c-.08730282-.19503386-.25305747-.34401835-.45626417-.41010183-.2032067-.06608348-.42488773-.04309433-.61020982.06328102l-.0416185.02601156c-.18985508.10808652-.32352563.2931742-.36643441.5073855-.04290879.21421131.0091591.43650436.142735.60937751l.8566474 1.1115607-1.283237-.17341041c-.32965628-.04206639-.6481321.13606076-.78483972.43896977-.13670762.30290902-.0595915.65957305.19004203.8789493.16492439.13912486.38094635.20210502.59479769.1734104l1.29710983-.1734104-.87919075 1.12890174c-.13140602.16767185-.18559778.3831786-.14913295.59306358.06394221.36377425.37978188.6291673.74913295.62947977.29725069.00246123.56848933-.1690972.69364161-.43872832l.61213873-1.3300578.56184971 1.30924855c.08527505.19774788.25065692.34987519.45482408.41837211.20416715.06849692.4278347.04689349.61511812-.05941257l.05895954-.03468208c.19131897-.10972953.32518666-.2975285.36651602-.51417429.04132935-.2166458-.01400038-.4405378-.15148712-.61299334l-.86705202-1.07861272 1.34739884.16127167c.32971963.03963015.64670054-.14053405.78135436-.44410272.13465382-.30356866.05545378-.65946666-.1952272-.87728456l-.0017341.01907515z"/>
    <filter id="filter-25" width="200%" height="200%" x="-50%" y="-50%" color-interpolation-filters="sRGB" filterUnits="userSpaceOnUse">
      <feOffset dx="0" dy="1" in="SourceAlpha" result="shadow-1-feOffset-shadow"/>
      <feGaussianBlur in="shadow-1-feOffset-shadow" result="shadow-1-feGaussianBlur-shadow" stdDeviation="1.205"/>
      <feColorMatrix in="shadow-1-feGaussianBlur-shadow" result="shadow-1-feColorMatrix-shadow" type="matrix" values="0 0 0 0 0  0 0 0 0 0.396078431372549  0 0 0 0 0.7254901960784313  0 0 0 0.5 0"/>
    </filter>
  </defs>
  <g transform="translate(.00002289 19.42456794)">
    <path fill="rgb(0,140,255)" fill-opacity=".05" fill-rule="evenodd" d="M196.44398 43.98312748c-2.208-3.8234-7.097-5.1334-10.92-2.9259l-40.774 23.5368c2.954-2.7771 3.362-7.3266.948-10.5846-2.414-3.2581-6.885-4.1926-10.402-2.1743l-.766.4477c.444-.4142.934-.7773 1.459-1.0824l20.771-11.9915c3.519-2.0319 4.953-6.3799 3.335-10.1069-1.618-3.7269-5.775-5.6471-9.661-4.4635l11.483-6.6289c3.825-2.2076 5.136-7.09815 2.929-10.92342-2.208-3.825266-7.098-5.13668-10.924-2.92911l-131.538 75.94593c-3.823943 2.2075-5.13428 7.0971-2.92671 10.921 2.20757 3.824 7.09707 5.1343 10.92101 2.9267l13.8477-7.9943c3.824-2.2076 8.7135-.8972 10.9211 2.9267 2.2075 3.824.8972 8.7135-2.9267 10.921l-27.69392 15.989c-2.49392 1.418-4.03693 4.063-4.04327 6.932-.00633 2.868 1.52498 5.521 4.01262 6.95 2.48764 1.428 5.55017 1.415 8.02497-.036l13.0819-7.553c-2.9694 2.774-3.3855 7.334-.967 10.599 2.4184 3.266 6.9018 4.198 10.421 2.166l-28.38934 16.628c-2.49392 1.418-4.03693 4.064-4.04327 6.932-.00633 2.869 1.52498 5.521 4.01262 6.95 2.48759 1.429 5.55019 1.415 8.02499-.036l40.7709-23.541c-2.9657 2.775-3.3796 7.332-.9622 10.596 2.4173 3.263 6.8976 4.196 10.4163 2.167l96.9263-55.9597c3.691-2.1405 5.051-6.8025 3.089-10.5916-1.962-3.7891-6.554-5.3694-10.433-3.5903 3.048-2.735 3.537-7.3311 1.131-10.6455-2.405-3.3144-6.926-4.2751-10.471-2.2253l28.387-16.6282c1.838-1.0599 3.178-2.8064 3.727-4.8551.55-2.0488.262-4.2317-.799-6.0683z"/>
    <path fill="rgb(2,204,170)" fill-rule="evenodd" d="M197.536026 28.1400299l-5.9925232-5.9957695 5.9925232-5.99572944 5.99887085 5.99572945-5.99887085 5.9957695zm-4.4096222-5.99578857l4.40963746 4.40969086 4.4080658-4.40969086-4.4080658-4.40966034-4.40963745 4.40966034z"/>
    <path fill="rgb(2,204,170)" fill-rule="evenodd" d="M5.99252987 122.9524002L0 116.9566269l5.99252987-5.99572755 5.99897003 5.99572754-5.99897003 5.99577332zm-4.4096799-5.99578857l4.40965987 4.40969086 4.4080906-4.40969086-4.4080906-4.40966034-4.40965986 4.40966034z"/>
    <path fill="rgb(2,204,170)" fill-rule="evenodd" d="M167.6742096 129.22155762l-4.75021363-4.75022888 4.75021362-4.75022889 4.75183106 4.75022889-4.75183106 4.75022888zm-3.16731263-4.750206l3.1673584 3.16733551 3.16894531-3.1673355-3.1689453-3.16735078-3.1673584 3.16735077z"/>
    <path fill="rgb(0,140,255)" fill-rule="evenodd" d="M69.46728516 181.15086365c-2.34000397-.00004578-4.23692322-1.89698792-4.23692322-4.23698426 0-2.3400116 1.8969574-4.23698425 4.23697662-4.23698425 2.34002686 0 4.23698425 1.89697266 4.23698425 4.23698425-.00267791 2.338974-1.89812469 4.23435975-4.23703765 4.23698426zm.00022125-7.35473633c-1.7220459 0-3.11792755 1.39587402-3.11792755 3.1177826 0 1.7218933 1.39588165 3.11778258 3.11778259 3.11778258s3.11777496-1.39588928 3.11777496-3.11778259c-.00167846-1.72102356-1.39646148-3.11592102-3.11763-3.1177826z"/>
    <path fill="rgb(0,140,255)" fill-rule="evenodd" d="M104.32242584 8.4739604c-2.33957672-.00180054-4.23490906-1.89952993-4.2337265-4.23911.00118256-2.33960997 1.8984375-4.23543988 4.23806-4.2348504 2.3395996.0005907 4.2359085 1.89738047 4.2359085 4.23698044-.00267791 2.34022999-1.90007018 4.23614073-4.240242 4.23697996zm.0000763-7.3547399c-1.72148896.00177001-3.1157608 1.3984301-3.11457825 3.11991.00117493 1.72149038 1.39736938 3.11624002 3.1188507 3.1156497 1.72148896-.00058937 3.11670686-1.39628983 3.11670686-3.11777973-.00167847-1.72227002-1.39840699-3.11769999-3.12082673-3.11777997h-.00015258z"/>
    <path fill="rgb(0,140,255)" fill-rule="evenodd" d="M215.76289368 92.09435272c-2.33996582-.00003814-4.2368927-1.89698791-4.2368927-4.23699188 0-2.34001923 1.89697265-4.23697662 4.23698425-4.23697662s4.236969 1.8969574 4.236969 4.23697662c-.00270081 2.33899689-1.89811707 4.23438263-4.23706055 4.23699188zm.00022888-7.35475158c-1.72203064 0-3.11790466 1.39588165-3.11790466 3.11778259s1.39587402 3.11777496 3.11778259 3.11777496c1.7218933 0 3.11776733-1.39587402 3.11776733-3.11777496-.00167846-1.72102356-1.39645386-3.11592102-3.11764526-3.1177826z"/>
    <path fill="rgb(234,57,64)" fill-rule="evenodd" d="M136.23257446 159.88616943h-9.13907623l4.56955719-7.91436767 4.56951904 7.91436767zm-7.19488525-1.11921692h5.26185608l-2.63014221-4.5567627-2.63171387 4.5567627z"/>
    <path fill="rgb(234,57,64)" fill-rule="evenodd" d="M46.21672821 45.72739029h-9.13908768l4.56953812-7.91436005 4.56954956 7.91436005zm-7.1948967-1.11920929h5.26184845l-2.63012695-4.55675888-2.6317215 4.55675888z"/>
    <g>
      <path fill="url(#linearGradient-11)" fill-rule="evenodd" d="M144.48463203 49.26019115l-34.34021972-12.33246853L76.13712234 49.0945078c-4.34215432 2.05072227-8.14974536 3.28240607-8.14974536 7.32289164v20.12896448c0 13.98461292 3.6637904 27.84261875 11.20238301 40.0766151 6.34442202 10.29425067 16.16663143 20.89485923 31.28758208 27.63160693 13.90177124-4.51408987 24.27730053-16.55114186 30.6201595-26.84695557 7.53859262-12.23399635 11.20238302-26.09043913 11.20238302-40.07505205V59.23089036c0-5.76765638-3.05576375-8.5842734-7.81525256-9.9706992z"/>
      <path fill="rgb(0,140,255)" fill-rule="evenodd" d="M144.48150635 49.26019287c3.57000732 1.55992127 7.81524658 2.16482544 7.83712768 10.44898987l-.01875305 16.6183548c.33448792 14.36911773-3.32929993 28.22713852-10.8678894 40.46113205-2.685318 4.35778808-5.78016663 9.02505493-9.93162537 13.3421936-3.7106781 3.86073303-8.57489014 8.126297-14.27533722 11.23051453-2.15912628 1.16230774-4.4172287 2.13050842-6.7476883 2.89321899-15.12095641-6.73675537-24.943161-17.33735657-31.28758239-27.63160706-7.5385971-12.23400878-11.20238495-26.0920143-11.20238495-40.07662582V56.41740036c0-4.04048538 4.5797348-5.75984192 8.14974213-7.32289124l34.00416565-12.16678619 34.34022522 12.33246994zm-9.58306885 61.44038773c5.96304321-9.67840576 8.86250305-20.64320755 8.86250305-31.70648575V64.86881256c0-3.19956589-1.93037414-6.1974945-5.76296997-7.98562622l-27.8473053-10.4583702-27.52687835 10.29268645c-3.83260346 1.78813172-5.76296997 4.78606034-5.76296997 7.98562241v14.13467407c0 11.06326294 2.89945983 22.02650452 8.86249542 31.70648575 5.01895904 8.14349365 12.79044342 16.70899963 24.75402832 22.03900147 11.96359253-5.33781434 19.40214538-13.73764039 24.4210968-21.8827057z"/>
      <path fill="url(#linearGradient-14)" fill-rule="evenodd" d="M148.9891083 46.23867938s.82486362.16390666 2.31867964.75556974c.92698547.3641633 1.80662723.83888364 2.61984148 1.41386156.95279077.68627587 1.99886176 1.64039921 2.73044516 3.01295095.7582349 1.35256313 1.20997766 3.06492137 1.26328064 4.95451202.05330298 1.88959065.02132119 3.92443192.0359795 6.12984273 0 4.40682389.0426424 9.44395552.00932803 15.05809192-.07787032 6.16901242-.87253114 12.30806724-2.3679849 18.29358282-1.76268158 6.9556698-4.4717709 13.63647478-8.05141516 19.85536014-3.82981914 6.58158549-8.69371608 13.10053997-14.79157702 18.92255799-6.0792049 5.79003623-13.52696382 10.91245263-22.25399426 13.62823947l-.07728932.02398634-.07195902-.03198178c-3.0574203-1.30768468-6.04066684-2.78240225-8.93624464-4.4174845-2.96038756-1.71087375-5.8109883-3.60504312-8.53513971-5.6714371-5.51685846-4.18561652-10.54732722-9.28138143-14.88219209-15.02077982-9.1856093-12.1118763-14.64908216-26.63452779-15.72437917-41.79753197-.27451035-3.59795116-.20121875-7.1399342-.21054677-10.61795366-.00932802-3.47801946 0-6.91206396 0-10.28081232v-5.007815c.0106606-.82486361-.03597951-1.64439693.08528477-2.49724462.12758601-.84365025.47349703-1.63929184 1.0034286-2.30801904 1.05006871-1.3325745 2.53189156-2.13211921 3.95508113-2.83705112 1.4431782-.68894102 2.90234728-1.28326925 4.32020655-1.91490957h.0159909l38.57403423-13.0045946.04797268-.0159909.0466401.01732347 28.6130398 9.7850946 7.6369845 2.6344998 1.96821254.6902736c.44108217.1559112.66628726.24652628.66628726.24652628s-.2305354-.06396358-.67561528-.20788163l-1.98020571-.65029636-7.672964-2.55854305-28.60288559-9.64515962-38.49490595 13.06854353h.01732346c-1.42318957.62764259-2.8796935 1.22596854-4.30554823 1.90957927-1.42585472.68361072-2.8383837 1.484488-3.80849793 2.72778-.48982108.61707262-.80793326 1.35259378-.92214156 2.13211922-.11193626.77022806-.06929388 1.60575228-.07728932 2.43194847v15.28862731c.01332574 3.48468234-.0573007 7.01866993.21854222 10.58730445 1.08487555 15.07664136 6.52745097 29.5131699 15.66574589 41.55367083 4.31087853 5.70741661 9.30670035 10.7725323 14.79157702 14.93549507 2.70781671 2.05917807 5.54197882 3.94669124 8.48583445 5.65144848 2.85580445 1.6149737 5.79768654 3.07271825 8.81249245 4.36672272 8.61646273-2.69001085 15.99013317-7.75131539 22.02328163-13.48553007 6.06721172-5.7860385 10.92711095-12.27567635 14.74626948-18.81861718 3.57520945-6.18376269 6.28686532-12.82794586 8.05941062-19.7474216 1.50337857-5.95880946 2.31229927-12.0715486 2.41062728-18.2162935.01865604-5.60480838.03731208-10.64460516.0519704-15.05142905 0-2.20274566.03064922-4.25224525 0-6.12317986-.03064921-1.8709346-.4757291-3.5539762-1.21131022-4.88921586-.71159479-1.35522827-1.73234686-2.30402132-2.66514902-2.99296234-.80192867-.57746983-1.66866312-1.05913821-2.58252939-1.43518274-.55667367-.23871473-1.125078-.4490856-1.70303022-.63030774-.39310948-.12659458-.58899793-.19988618-.58899793-.19988618z"/>
    </g>
    <g opacity=".9">
      <g>
        <use fill="black" stroke="black" stroke-opacity="0" stroke-width="0" filter="url(#filter-17)" xlink:href="#path-16"/>
        <use fill="rgb(255,255,255)" xlink:href="#path-16"/>
      </g>
      <g>
        <use fill="black" stroke="black" stroke-opacity="0" stroke-width="0" filter="url(#filter-19)" xlink:href="#path-18"/>
        <use fill="rgb(255,255,255)" xlink:href="#path-18"/>
      </g>
      <g>
        <use fill="black" stroke="black" stroke-opacity="0" stroke-width="0" filter="url(#filter-21)" xlink:href="#path-20"/>
        <use fill="rgb(255,255,255)" xlink:href="#path-20"/>
      </g>
      <g>
        <use fill="black" stroke="black" stroke-opacity="0" stroke-width="0" filter="url(#filter-23)" xlink:href="#path-22"/>
        <use fill="rgb(255,255,255)" xlink:href="#path-22"/>
      </g>
      <g>
        <use fill="black" stroke="black" stroke-opacity="0" stroke-width="0" filter="url(#filter-25)" xlink:href="#path-24"/>
        <use fill="rgb(255,255,255)" xlink:href="#path-24"/>
      </g>
    </g>
  </g>
</svg>
