<svg xmlns="http://www.w3.org/2000/svg" width="40" height="41.221" viewBox="0 0 40 41.221">
  <g transform="translate(0 .6105655)">
    <g opacity=".15">
      <ellipse cx="20" cy="20" fill="rgb(255,68,68)" rx="20" ry="20"/>
    </g>
    <g transform="translate(6.75 -.6105655)">
      <path fill="rgb(255,68,68)" fill-rule="evenodd" d="M18.96861792 32.11267853H7.5318532c-.70651102 0-1.28185368-.54787636-1.28185368-1.22076798v-20.5622177c0-.6733637.57534266-1.221241 1.28185368-1.221241h11.43676472c.70651245 0 1.2813816.5478773 1.2813816 1.221241v20.56174468c.00047303.67336464-.57439613 1.221241-1.2813816 1.221241zM7.43383169 30.88859558c.0245986.02798462.06085539.04287338.0980215.04025269h11.43676473c.03717804.00269699.07346725-.01220703.09802246-.04025269V10.33490276c-.02398873-.02859115-.06035233-.04377174-.09754753-.0407238H7.5318532c-.03730679-.00288677-.07374287.0122509-.0980215.0407238v20.55369282z"/>
      <ellipse cx="13.25" cy="28.833" fill="rgb(255,68,68)" rx=".758" ry=".758"/>
      <rect width="12.816" height="1.184" x="6.842" y="26.19" fill="rgb(255,68,68)" rx="0" ry="0"/>
    </g>
    <path fill="rgb(255,68,68)" fill-rule="evenodd" d="M23.21500206 18.03346062c0-.63421822-.3497982-1.18831063-.8665905-1.47947121V15.1330719c0-1.29495049-1.05345917-2.34840965-2.34840965-2.34840965-1.29495049 0-2.34840966 1.05345916-2.34840966 2.34840965v1.42091751c-.5167923.29116058-.8665924.84525108-.8665924 1.4794712v1.48506737c0 .93558884.76122093 1.69680977 1.69680977 1.69680977h3.03638267c.93558884 0 1.69680977-.76122093 1.69680977-1.69668388v-1.48519325zm-1.56500244-2.90346146v1.07437515h-3.29999924v-1.07437515c0-.90979767.74020195-1.64999962 1.64999962-1.64999962.90979958 0 1.64999962.74020195 1.64999962 1.64999962zm-4.17000008 3.0120449c.00063515-.60837745.4936657-1.101408 1.10204315-1.10204314h2.7959137c.60837936.00063514 1.10140991.4936657 1.10204315 1.10204315v1.36757087c-.00063324.60837937-.49366379 1.10140992-1.10204315 1.10204506h-2.7959137c-.60837745-.00063514-1.101408-.4936657-1.10204315-1.10204506v-1.36757087z"/>
  </g>
</svg>
