<svg xmlns="http://www.w3.org/2000/svg" xmlns:xlink="http://www.w3.org/1999/xlink" width="56" height="56.292" viewBox="0 0 56 56.292">
  <defs>
    <ellipse id="ellipse-3" cx="28" cy="23.317" rx="2.75" ry="2.75"/>
    <mask id="mask-4" x="0" y="0" maskContentUnits="userSpaceOnUse" maskUnits="userSpaceOnUse">
      <rect width="56" height="56.292" x="0" y="0" fill="black"/>
      <use fill="white" xlink:href="#ellipse-3"/>
    </mask>
  </defs>
  <g>
    <path fill="rgb(227,252,255)" fill-rule="evenodd" d="M28 0c15.45362069 0 28 12.54637931 28 28v.29166667c0 15.45362068-12.54637931 28-28 28s-28-12.54637932-28-28V28C0 12.54637931 12.54637931 0 28 0z"/>
    <g>
      <path fill="rgb(92,195,208)" fill-rule="evenodd" d="M28.00045013 39.8889246c-.27500152-.00001526-.53612327-.12078476-.71421814-.33032608l-8.04834747-9.45267868c-.70172119-.81331635-1.22086716-1.66681004-1.54271316-2.53592396-1.26416588-3.34521866-.7851925-7.12834549 1.28202247-10.119133 2.07391167-3.00373458 5.36377907-4.72634029 9.0232563-4.72634029 3.65947533 0 6.94844819 1.7226057 9.02370072 4.7263403 2.06721878 2.9907875 2.54440307 6.77703857 1.27978897 10.12672233-.32050324.86465073-.83920288 1.71591091-1.54181671 2.53056622l-.00937653.01071167-8.03495407 9.44018173c-.17888641.2102089-.44132233.33089447-.71734238.32987976zm0-25.95156956c-3.25505065 0-6.18022155 1.53199864-8.02558326 4.20272827-1.84536171 2.6707306-2.26853562 6.02978897-1.14453507 9.00272179v.00401878c.27185059.73430443.71823693 1.46369934 1.32576752 2.1680994l.00267982.00312424 7.84077836 9.20895386 7.82783126-9.19556427c.00714493-.00848007.01472855-.01740646.02276612-.02589035.60396194-.70216465 1.04677581-1.42843533 1.31550216-2.1524744v-.00401688c1.12623215-2.97739792.69903946-6.3453846-1.14230346-9.0098648-1.84134674-2.66448022-4.7678547-4.20183564-8.02290345-4.20183564zm-.00045204 29.6297884c5.05922127 0 9.16666603-.82148743 9.16666603-1.83333206 0-.72449112-2.10576248-1.35139084-5.15891647-1.64902878-1.21096992-.11804962-1.5452652-.18357468-4.00774956-.18430328-2.15562248-.00064087-2.65388298.04932403-3.54908752.1390953-.12743378.01277924-.26291466.02636338-.41236305.04072571-3.07814408.29579544-5.20521546.92536545-5.20521546 1.65351105 0 1.01184463 4.10744476 1.83333206 9.16666603 1.83333206z"/>
      <use fill-opacity="0" stroke="rgb(92,195,208)" stroke-linecap="butt" stroke-linejoin="miter" stroke-width="2" mask="url(#mask-4)" xlink:href="#ellipse-3"/>
    </g>
  </g>
</svg>
