<svg xmlns="http://www.w3.org/2000/svg" width="32" height="32" viewBox="0 0 32 32">
  <g>
    <g opacity=".15">
      <ellipse cx="16" cy="16" fill="rgb(52,232,199)" rx="16" ry="16"/>
    </g>
    <g>
      <path fill="rgb(35,215,182)" fill-rule="evenodd" d="M8.93032837 23.06970215C10.81967163 24.9590454 13.32786942 26 16 26s5.18032837-1.04095459 7.06967163-2.93029785C24.9590149 21.18029785 26 18.67211915 26 16c0-2.67211914-1.0409851-5.18029785-2.93032837-7.06970215C21.18032837 7.0409546 18.67213058 6 16 6s-5.18032837 1.04095459-7.06967163 2.93029785C7.0409851 10.81970215 6 13.32788085 6 16c0 2.67211914 1.0409851 5.18029785 2.93032837 7.06970215zM7.02458954 16c0-4.95080566 4.02458954-8.97540283 8.97541046-8.97540283 4.95082092 0 8.97541046 4.02459717 8.97541046 8.97540283S20.95082092 24.97540283 16 24.97540283c-4.95082092 0-8.97541046-4.02459717-8.97541046-8.97540283z"/>
      <g>
        <path fill="rgb(35,215,182)" fill-rule="evenodd" d="M12.92232513 16.97680664c.0234375 1.35546875.6875 2.0703125 2.0859375 2.09375.0390625.4765625.0625.95703125.12890625 1.4296875.05859375.46484375.48828125.76953125.84765625.546875.859375-.53125 1.70703125-1.08984375 2.4921875-1.71875.41015625-.328125.39453125-1.35546875.36328125-1.55859375-.05859375-.36328125.0625-.625.31640625-.8984375 1.34765625-1.4375 1.97265625-3.16796875 1.9609375-5.12890625-.00390625-.62890625-.2265625-.85546875-.84765625-.86328125-1.83203125-.0234375-3.4921875.49609375-4.86328125 1.71875-.48046875.4296875-.93359375.62890625-1.5625.53515625-.58203125-.0859375-1.08203125.12890625-1.42578125.609375-.4765625.66796875-.9375 1.3515625-1.37890625 2.04296875-.34765625.54296875-.09765625 1.02734375.5390625 1.08984375.44921875.04296875.8984375.0703125 1.34375.1015625zm7.33581543-5.38171387c.04408265.00488282.09263611.01025391.14855957.01452637.0234375 1.89453125-.54296875 3.515625-1.83203125 4.84375-.33203125.34765625-.5234375.68359375-.4453125 1.16796875.03515625.21484375.0625.4453125.0234375.65625-.046875.23046875-.11328125.52734375-.27734375.65625-.6328125.48828125-1.3125.921875-2.046875 1.42578125-.05078125-.61328125-.0859375-1.1328125-.1328125-1.65234375-.04296875-.5-.1640625-.578125-.6484375-.43359375-.4140625.12109375-.79296875.0625-1.09765625-.25s-.359375-.6875-.23046875-1.1015625c.14453125-.453125.0546875-.58984375-.41015625-.62890625-.53515625-.046875-1.0703125-.08203125-1.69921875-.12890625.51171875-.734375.9453125-1.41015625 1.43359375-2.04296875.12890625-.16796875.66796875-.29296875 1-.27734375.6640625.03125 1.1484375-.08984375 1.64453125-.56640625 1.20703125-1.15234375 2.70703125-1.6640625 4.3671875-1.6953125.06428147-.00250244.1269951.00445557.20300293.01281738z"/>
        <ellipse cx="17.668" cy="14.293" fill="rgb(35,215,182)" rx=".793" ry=".793"/>
        <path fill="rgb(35,215,182)" fill-rule="evenodd" d="M11.71529388 20.3088684c-.0859375-.0859375-.0859375-.2265625 0-.3125l1.05859375-1.05859374c.0859375-.0859375.2265625-.0859375.3125 0s.0859375.2265625 0 .3125l-1.05859375 1.05859375c-.0859375.0859375-.2265625.0859375-.3125 0z"/>
        <path fill="rgb(35,215,182)" fill-rule="evenodd" d="M12.91841888 20.3557434c-.0859375-.0859375-.0859375-.2265625 0-.3125l.48046875-.48046874c.0859375-.0859375.2265625-.0859375.3125 0s.0859375.2265625 0 .3125l-.48046875.48046875c-.08984375.0859375-.2265625.0859375-.3125 0z"/>
        <path fill="rgb(35,215,182)" fill-rule="evenodd" d="M11.67232513 19.10964966c-.0859375-.0859375-.0859375-.2265625 0-.3125l.48046875-.48046875c.0859375-.0859375.2265625-.0859375.3125 0s.0859375.2265625 0 .3125l-.48046875.48046875c-.08984375.0859375-.2265625.0859375-.3125 0z"/>
      </g>
    </g>
  </g>
</svg>
