<svg xmlns="http://www.w3.org/2000/svg" xmlns:xlink="http://www.w3.org/1999/xlink" width="56" height="56" viewBox="0 0 56 56">
  <defs>
    <rect id="rect-2" width="30.8" height="30.8" x="12.6" y="12.6"/>
    <mask id="mask-3" maskContentUnits="userSpaceOnUse" maskUnits="userSpaceOnUse">
      <rect width="56" height="56" x="0" y="0" fill="black"/>
      <use fill="white" xlink:href="#rect-2"/>
    </mask>
  </defs>
  <g>
    <ellipse cx="28" cy="28" fill="rgb(255,65,68)" rx="28" ry="28"/>
    <g>
      <use fill="none" xlink:href="#rect-2"/>
      <g mask="url(#mask-3)">
        <path fill="rgb(255,255,255)" fill-rule="evenodd" d="M42.84635162 31.3285435l-1.68531799-.9711914c-1.8178711-1.04754639-1.81951904-3.6665039 0-4.71478271l1.685318-.97119141c.43227386-.24926758.58037566-.80102539.33080291-1.23248291l-3.63104248-6.27764893c-.24933624-.43115234-.80262756-.57946777-1.23514557-.3303833l-1.68531036.97119141c-1.81764221 1.04736328-4.09039307-.26013184-4.09039307-2.35736084V13.5023106c0-.49841309-.40473175-.90234375-.90411377-.90234375h-7.26230621c-.49913788 0-.90410614.40393066-.90410614.90234375v1.94238281c0 2.0951538-2.27063751 3.40588379-4.09039307 2.35736084l-1.68531036-.9711914c-.43204498-.24908448-.98534393-.10125733-1.23514557.3303833l-3.63103867 6.27764892c-.24957275.43145752-.10147857.98339844.3307991 1.23248291l1.685318.9711914c1.8178711 1.04760743 1.81951904 3.66650391 0 4.71478272l-1.68508148.9711914c-.4325142.24932862-.58060837.80108643-.33103562 1.23248292l3.63103867 6.27764892c.24933624.43121338.80262756.57971192 1.23514557.3303833l1.68531036-.9711914c1.8174057-1.04754639 4.09039307.2598877 4.09039307 2.35736084v1.94238281c0 .49841309.40473175.90234375.90410614.90234375h7.26207733c.49937439 0 .90410614-.40393066.90410614-.90234375v-1.94238281c0-2.09466553 2.27063751-3.40612793 4.09062958-2.35736084l1.68531036.9711914c.43204498.24908448.98534393.10125733 1.23491669-.3303833l3.63127136-6.27764892c.24957275-.43139649.10147095-.9831543-.33080292-1.23248291zm-4.41436767 5.82647706l-.90222168-.52001953c-3.02335358-1.74243164-6.80271912.43280029-6.80271912 3.92022705v1.04003906h-5.45409393v-1.04003906c0-3.484375-3.77700806-5.6640625-6.80271149-3.92022705l-.9022293.52001953-2.72716141-4.71478272.90222549-.52001953c3.02311707-1.74194336 3.02617645-6.09667969.00023651-7.84051513l-.902462-.52001954 2.7271614-4.71472168.90222931.52001954c3.02334595 1.7423706 6.80271149-.43286133 6.80271149-3.92028809v-1.04003906h5.45409393v1.04003906c0 3.484375 3.77677155 5.6640625 6.80271912 3.92028809l.90222168-.52001954 2.72716522 4.71472168-.9022293.52001954c-3.02311707 1.74194335-3.02617646 6.09667968-.00023652 7.84051513l.90246582.52001953-2.72716522 4.71478272z"/>
        <path fill="rgb(255,255,255)" fill-rule="evenodd" d="M28.00011444 21.68358501c-3.48953247 0-6.32829285 2.83343506-6.32829285 6.31640625 0 3.4829712 2.83876038 6.31640625 6.32829285 6.31640625 3.48930359 0 6.32806397-2.83343506 6.32806397-6.31640625s-2.83876038-6.31640625-6.32806397-6.31640625zm.00000763 10.828125c-2.49242401 0-4.52008057-2.02392578-4.52008057-4.51171875s2.02765656-4.51171875 4.52008057-4.51171875c2.4921875 0 4.51983643 2.02392578 4.51983643 4.51171875s-2.02764893 4.51171875-4.51983643 4.51171875z"/>
      </g>
    </g>
  </g>
</svg>
