<svg xmlns="http://www.w3.org/2000/svg" xmlns:xlink="http://www.w3.org/1999/xlink" width="56" height="56" viewBox="0 0 56 56">
  <defs>
    <rect id="rect-2" width="36" height="36" x="10" y="10"/>
    <mask id="mask-3" maskContentUnits="userSpaceOnUse" maskUnits="userSpaceOnUse">
      <rect width="56" height="56" x="0" y="0" fill="black"/>
      <use fill="white" xlink:href="#rect-2"/>
    </mask>
    <path id="path-4" fill-rule="evenodd" d="M23.09666634 42.46666813h9.80666542c1.69000244 0 3.06333542-1.43333435 3.06333542-3.19333267v-2.82333374c0-1.0466652-.20333481-2.05666733-.60333252-3.0066681-.38666916-.91999816-.94000245-1.73333358-1.64333344-2.4233322-.13666916-.13000108-.2800026-.26666642-.43333435-.40999986-.74666595-.7033348-1.77000046-1.6600008-1.77000046-2.46000003v-.30333329c0-1.1866684.96333313-2.30666732 1.53666687-2.87000084 1.95999909-1.92333412 2.9133339-3.69666671 2.9133339-5.42666626V16.7266674c0-1.76000022-1.37333298-3.19333362-3.06333542-3.19333362h-9.80666542c-1.69000054 0-3.06333352 1.4333334-3.06333352 3.19333362v2.82333374c0 1.72999955.9533329 3.50666619 2.9133339 5.4299984.57333374.56333542 1.53666687 1.68333435 1.53666687 2.87000084v.30333328c0 .7966671-1.0233345 1.75666714-1.77000046 2.4566679-.15333366.14333344-.2966671.27999878-.43333435.4133339-.7033329.68999862-1.25666618 1.50666427-1.64333344 2.42333221-.39999961.94666672-.60333252 1.95666885-.60333252 3.00333405v2.82333374c0 1.75999832 1.37333298 3.19333267 3.06333352 3.19333267zM21.36666679 16.7266674c0-1.0266676.77666665-1.8600006 1.72999955-1.8600006h9.80666923c.953331 0 1.72999573.833333 1.72999573 1.8600006v2.82333184c0 1.35333442-.82332993 2.81666755-2.51333237 4.4766674-.8833313.8666668-1.93666458 2.23333359-1.93666458 3.82333374v.30333328c0 1.37666512 1.21666718 2.51333523 2.19333267 3.42999936.14666748.13666534.28666687.27000045.40999985.38999939 1.17333221 1.15000152 1.84666443 2.78000259 1.84666443 4.47333526v2.82333374c0 1.02666855-.77666474 1.86000061-1.72999573 1.86000061h-9.80666923c-.9533329 0-1.72999955-.83333206-1.72999955-1.8600006v-2.82333375c0-1.68999863.67333413-3.32333374 1.84666634-4.47333526.12333298-.12333298.26666641-.25333405.4133339-.39333344.97666549-.91666412 2.18999862-2.05333233 2.18999862-3.42999744v-.3033352c0-1.59333228-1.05333138-2.95666694-1.93666458-3.82333183-1.69000054-1.6566677-2.51333428-3.12000084-2.51333428-4.47333526V16.7266674z"/>
    <mask id="mask-5" x="0" y="0" maskContentUnits="userSpaceOnUse" maskUnits="userSpaceOnUse">
      <rect width="56" height="56" x="0" y="0" fill="black"/>
      <use fill="white" xlink:href="#path-4"/>
    </mask>
  </defs>
  <g>
    <path fill="rgb(219,228,255)" fill-rule="evenodd" d="M28 0c15.45362069 0 28 12.54637931 28 28S43.45362069 56 28 56 0 43.45362069 0 28 12.54637931 0 28 0z"/>
    <g>
      <use fill="none" xlink:href="#rect-2"/>
      <g mask="url(#mask-3)">
        <g>
          <use fill="rgb(71,114,229)" xlink:href="#path-4"/>
          <use fill-opacity="0" stroke="rgb(219,228,255)" stroke-linecap="butt" stroke-linejoin="miter" stroke-width=".2" mask="url(#mask-5)" xlink:href="#path-4"/>
        </g>
        <path fill="rgb(71,114,229)" fill-rule="evenodd" d="M24.99568627 20.92666667h6.03703704c.12547567 0 .22727669.10180101.22727669.22727669 0 .05681917-.02130719.11127087-.05681917.15151779-.8712273.97776325-3.4659695 3.27893972-6.38031954 0-.08286129-.09469862-.0757589-.23911402.01893973-.32197531.04261438-.03787945.09706608-.05681917.15388525-.05681917z"/>
        <rect width="1.333" height="15.867" x="27.333" y="22.667" fill="rgb(71,114,229)" rx="0" ry="0"/>
        <path fill="rgb(71,114,229)" fill-rule="evenodd" d="M27.81917624 37.3709614l-2.88899928 1.06612853c-.17768808.06689434-.29684363.23622064-.29684363.42645141v.52470248c0 .25085377.20277347.45571768.45571769.45571768h5.82189796c.25085377 0 .45571769-.20277346.45571769-.45571768v-.503798c0-.19023077-.11915555-.35955707-.29684363-.4264514l-2.93289869-1.08703302c-.1045224-.03762807-.2174066-.03762807-.31774811 0z"/>
      </g>
    </g>
  </g>
</svg>
