<svg xmlns="http://www.w3.org/2000/svg" width="40" height="40" viewBox="0 0 40 40">
  <g>
    <ellipse cx="20" cy="20" fill="rgb(255,133,56)" rx="20" ry="20"/>
    <g>
      <path fill="rgb(255,255,255)" fill-rule="evenodd" d="M28.45551872 26.61881065l2.4055481 2.38782502.00043106-.00172997c.08519745.07975197.13499641.19023705.13832474.30688858.00332832.11665154-.04009056.22979736-.12060166.31427574l-1.23800277 1.23756981c-.17224312.16938782-.44848824.16938782-.62073136 0l-2.40554619-2.40511513-.96221923 1.40831566c-.09389115.14555168-.2652092.22150421-.43611146.19334793-.17090415-.02815628-.30880165-.15504837-.35104179-.32302665l-1.53972244-5.87316704c-.03920365-.15018273.00410843-.30989075.11381721-.41968918.10970879-.10979652.26938248-.1532383.41959572-.11415672l5.87532807 1.56133651c.16797828.04223824.29487228.18013764.32302665.3510418.02815628.17090225-.04779625.3422184-.19334793.43610954l-1.40874672.9401741zm-1.61796379.84421349l2.47514343 2.47514152.62159348-.61208534-2.47514153-2.4755745c-.09269332-.0918331-.13894462-.220623-.12585258-.3504467.01309013-.12982368.08412361-.24678611.1932869-.3182659l1.04521179-.7089119-4.20722199-1.10616303 1.10616303 4.20722199.69810486-1.0452118c.07223701-.10879135.1894989-.1794014.31944274-.19235801h.04322815c.11468888.00037956.22462464.04587555.30604172.12665367z"/>
      <path fill="rgb(255,255,255)" fill-rule="evenodd" d="M22.9234085 27.71503258c-.91229247.3787651-1.8825302.59906769-2.86893462.6514206v-3.93403054c.64670181.01509094 1.29206085.06617737 1.93308258.15301895.2392044.02920341.45768165-.13868332.49105072-.37734222.03337097-.23865891-.13068009-.46003151-.36872101-.4975586-.68177795-.08900452-1.36797142-.14009094-2.0554123-.15302086v-3.49874305h4.37321091c-.0219612.68593215-.0891075 1.36967086-.20100212 2.04676818-.03330421.23835373.1295681.45977402.36702538.4989586.23745727.03918456.4628334-.11816407.50787735-.35458184.11598968-.7250576.18314361-1.45708656.20100021-2.19114494h3.06129456c-.045475.98514175-.25845719 1.9553337-.62981034 2.86893463-.09066772.22225761.01490021.4760418.2364502.56842613.05245209.02258682.10887909.03449058.16598892.0350132.17918396.00018501.34036255-.10892296.40675736-.27535248 1.19786834-2.96995163.84387588-6.34074402-.94483948-8.9970541C25.80970764 11.60243416 22.81943512 10.00687314 19.61702347 10h-.31468964c-3.43130874.14480877-6.13295746 2.32212067-7.05238247 3.42266464-.01271343.01182366-.02457332.02423477-.035573.0371561-.0134163.00239278-.02430344.01251126-.02753735.02595425-2.92551994 3.56118775-2.91464329 8.69683457.02593517 12.24559784l.03069115.03458214c2.66719914 3.23425102 7.1305523 4.35315514 11.00802803 2.75957108.2238121-.09059906.33180237-.34547997.2412033-.56929016-.09059905-.2238121-.34547996-.33180237-.56929015-.24120331zm-3.74340629-16.8007946v3.89642524c-1.15023613-.02861213-2.29450989-.17505073-3.41488266-.4370184.79061127-1.92876147 2.01953697-3.23635863 3.41488266-3.45940684zm.87446976 3.89642524c1.14165878-.0307579 2.27725792-.17717933 3.3893795-.4370184-.7914753-1.9114704-2.00743294-3.22339057-3.3893795-3.45335483v3.89037323zm-5.14955616-.6851387c.38551998-1.0057745.95748138-1.9297123 1.6858282-2.72326088-.89839458.32910824-2.46119212 1.44494724-3.28977107 2.18476105.52541637.20553589 1.06070137.38526249 1.60394287.53849983zm9.4224844.02723312c.55291176-.1592493 1.09727287-.34681129 1.63093185-.5619421l-.02161407.00216103c-.92233277-.96782589-2.05308724-1.7127428-3.30638504-2.17817688.7371769.79450893 1.31348037 1.72428513 1.69706726 2.73795795zM10.87016582 19.1843071h3.06172371c.01772595-1.42933655.23821736-2.84892655.65487957-4.21630001-.64950752-.18902016-1.28757858-.41532517-1.91103744-.67778969-1.08555985 1.40978336-1.7154255 3.11706829-1.80556584 4.8940897zm17.49371243 0h-3.06129074c-.02592278-1.42881203-.25411987-2.84674645-.67778969-4.211545.65735245-.18889999 1.30285835-.41681861 1.93308258-.6825447 1.08909416 1.4078617 1.71951676 3.11624813 1.80599785 4.8940897zm-9.18387413 0h-4.37364483c.02737045-1.35399056.24833489-2.69709969.65617657-3.98849678 1.21815872.29528045 2.46439743.45946502 3.71746826.48975467v3.4987421zm4.56556702-3.97120667c-1.2102337.28736878-2.44750214.44573975-3.69109917.47246456v3.4987421h4.34727669c-.02915383-1.34816741-.25009537-2.6853199-.65617752-3.97120666zm-8.28735829 8.81818009c1.22009373-.2907486 2.46778775-.45015335 3.72179127-.47549057V20.0544548h-4.37364483c.02936936 1.34964943.24881268 2.68842507.65185356 3.97682572zm-4.56600189-3.97250366h3.03967857c.02717114 1.43058967.25682164 2.85011863.68211174 4.21630096-.64809131.18902779-1.28472423.4153347-1.90671444.67778778-1.0923481-1.40676308-1.72597503-3.11524963-1.81507587-4.89408874zm8.28779125 8.26834106c-1.39534569-.22304916-2.62427139-1.53064537-3.41488266-3.45508385 1.12022972-.26338577 2.26450157-.41127205 3.41488266-.4413414v3.89642525zm-5.88267612-2.67484856c.52545357-.2108078 1.06128788-.39475822 1.60542774-.55113601.3845625 1.00128746.95427513 1.92118454 1.67934418 2.71158981-1.24525547-.46042442-2.36879349-1.19939423-3.28477192-2.1604538z"/>
    </g>
  </g>
</svg>
