<?xml version="1.0" encoding="utf-8"?>
<!-- Generator: Adobe Illustrator 23.1.0, SVG Export Plug-In . SVG Version: 6.00 Build 0)  -->
<svg version="1.1" id="Layer_1" xmlns="http://www.w3.org/2000/svg" xmlns:xlink="http://www.w3.org/1999/xlink" x="0px" y="0px"
	 viewBox="0 0 41 40.4" style="enable-background:new 0 0 41 40.4;" xml:space="preserve">
<style type="text/css">
	.st0{fill-rule:evenodd;clip-rule:evenodd;fill:#FFF3DF;}
	.st1{fill:none;}
	.st2{filter:url(#Adobe_OpacityMaskFilter);}
	.st3{fill:#FFFFFF;}
	.st4{mask:url(#mask-3_1_);}
	.st5{fill-rule:evenodd;clip-rule:evenodd;fill:#FDBA45;}
</style>
<g>
	<g>
		<path class="st0" d="M20.2,0h0.5C31.9,0,41,9,41,20.2s-9.1,20.2-20.2,20.2h-0.5C9.1,40.5,0,31.4,0,20.2C0,9,9.1,0,20.2,0z"/>
		<g>
			<rect x="8.5" y="8.2" class="st1" width="24" height="24"/>
		</g>
		<defs>
			<filter id="Adobe_OpacityMaskFilter" filterUnits="userSpaceOnUse" x="9.7" y="10.2" width="21.6" height="20">
				<feColorMatrix  type="matrix" values="1 0 0 0 0  0 1 0 0 0  0 0 1 0 0  0 0 0 1 0"/>
			</filter>
		</defs>
		<mask maskUnits="userSpaceOnUse" x="9.7" y="10.2" width="21.6" height="20" id="mask-3_1_">
			<rect class="st2" width="41" height="40.4"/>
			<g>
				<rect id="rect-2_1_" x="8.5" y="8.2" class="st3" width="24" height="24"/>
			</g>
		</mask>
		<g class="st4">
			<path class="st5" d="M26.4,23.4c-0.2,0-0.4-0.2-0.4-0.4s0.2-0.4,0.4-0.4c0.1,0,1,0,1.1,0c1-0.1,1.9-0.6,2.4-1.4
				c0.5-0.9,0.6-1.9,0.2-3c-0.3-0.7-0.9-1.3-1.6-1.6c-0.8-0.3-1.6-0.3-2.3-0.1c-0.1,0.1-0.3,0-0.4-0.1s-0.2-0.2-0.2-0.4
				c0-2.7-2.2-4.9-4.9-4.9c-2.3,0-4.2,1.5-4.8,3.7c0,0.2-0.1,0.3-0.3,0.4s-0.3,0.1-0.5,0.1c-0.7-0.2-1.4-0.2-2.1,0.1
				c-0.7,0.3-1.2,0.8-1.5,1.5c-0.4,1-0.3,1.9,0.2,2.8c0.1,0.2,0.1,0.3,0,0.5s-0.2,0.3-0.4,0.3c-0.5,0.1-0.9,0.5-0.9,1v0.3
				c0,0.4,0.3,0.8,0.8,0.8h3.1c0.2,0,0.4,0.2,0.4,0.4s-0.2,0.4-0.4,0.4h-3.1c-0.9,0-1.7-0.7-1.7-1.7v-0.3c0-0.8,0.5-1.5,1.2-1.8
				c-0.2-0.4-0.3-0.9-0.3-1.3c-0.1-0.6,0.1-1.3,0.3-1.9c0.4-0.9,1.1-1.6,2-2c0.8-0.3,1.6-0.4,2.4-0.2c0.8-2.6,3.4-4.3,6.2-4
				c2.8,0.3,4.9,2.5,5.2,5.3c0.8-0.2,1.6-0.1,2.4,0.2c1,0.4,1.7,1.1,2.1,2.1c0.5,1.3,0.4,2.7-0.3,3.8c-0.7,1.1-1.9,1.8-3.1,1.9
				C27.4,23.4,26.4,23.4,26.4,23.4z"/>
			<path class="st5" d="M16.9,26.1c-0.2,0-0.4-0.2-0.4-0.4c-0.2-2.6,1.7-4.8,4.3-5c1.3-0.1,2.5,0.3,3.4,1.2c0.1,0.1,0.2,0.3,0.1,0.4
				s-0.1,0.3-0.3,0.3s-0.3,0-0.4-0.1c-0.8-0.7-1.8-1-2.8-1c-2.1,0.1-3.6,1.9-3.5,4C17.4,25.9,17.2,26.1,16.9,26.1
				C16.9,26.1,16.9,26.1,16.9,26.1z"/>
			<path class="st5" d="M16.8,27.1c-0.1,0-0.3-0.1-0.4-0.2l-1.8-2.1c-0.2-0.2-0.1-0.5,0-0.6c0.2-0.2,0.5-0.1,0.6,0l1.6,1.8l1.8-1.6
				c0.1-0.1,0.3-0.1,0.4-0.1s0.3,0.2,0.3,0.3s0,0.3-0.1,0.4L17.2,27C17.1,27.1,16.9,27.1,16.8,27.1z"/>
			<path class="st5" d="M20.7,30.2c-1.1,0-2.2-0.4-3-1.1c-0.2-0.2-0.2-0.4,0-0.6s0.4-0.2,0.6,0c0.7,0.6,1.6,0.9,2.5,0.9
				c0.1,0,0.2,0,0.3,0c2.1-0.2,3.6-2,3.4-4.1c0-0.2,0.1-0.3,0.2-0.4c0.1-0.1,0.3-0.1,0.4,0s0.2,0.2,0.3,0.4c0.1,1.2-0.3,2.4-1.1,3.4
				c-0.8,0.9-1.9,1.5-3.1,1.6C21.2,30.2,21,30.2,20.7,30.2z"/>
			<path class="st5" d="M26.6,26.6L25,24.8l-1.8,1.6c-0.2,0.2-0.5,0.1-0.6,0c-0.2-0.2-0.1-0.5,0-0.6l2.1-1.9c0.2-0.2,0.5-0.2,0.7,0
				l1.9,2.1c0.1,0.1,0.1,0.3,0.1,0.5c-0.1,0.2-0.2,0.3-0.4,0.3h0C26.8,26.8,26.7,26.7,26.6,26.6z"/>
		</g>
	</g>
</g>
</svg>
