<svg xmlns="http://www.w3.org/2000/svg" xmlns:xlink="http://www.w3.org/1999/xlink" width="64" height="64" viewBox="0 0 64 64">
  <defs>
    <rect id="rect-2" width="40" height="40" x="12" y="12"/>
    <mask id="mask-3" maskContentUnits="userSpaceOnUse" maskUnits="userSpaceOnUse">
      <rect width="64" height="64" x="0" y="0" fill="black"/>
      <use fill="white" xlink:href="#rect-2"/>
    </mask>
  </defs>
  <g>
    <g opacity=".2">
      <ellipse cx="32" cy="32" fill="rgb(140,132,243)" rx="32" ry="32"/>
    </g>
    <g>
      <use fill="none" xlink:href="#rect-2"/>
      <g mask="url(#mask-3)">
        <path fill="rgb(140,132,243)" fill-rule="evenodd" d="M23.97332764 46.41552734c2.47076416 1.37817383 5.2310791 2.1048584 8.00482177 2.1048584 2.81774903 0 5.63482666-.75231933 8.14666748-2.17492676 2.4706421-1.39538574 4.54467774-3.39782714 6.02593995-5.81811523 1.54888916-2.54553223 2.36773681-5.49926758 2.36773681-8.5415039 0-4.41223145-1.71813965-8.55664063-4.8363037-11.67248536C40.5640869 17.1973877 36.41186522 15.48144531 32 15.48144531s-8.55963135 1.71484375-11.67962646 4.8322754c-2.63372803 2.63183593-4.26446534 5.96618652-4.7163086 9.64257812-.40930176 3.38061523.2281189 6.80554199 1.82629395 9.8125l-1.85665894 6.00891113c-.22528076.7331543-.02276611 1.53076172.52493286 2.06762695.5477295.53686524 1.34915161.72338868 2.07766724.48352051l5.79702759-1.91333008zm.45446777-1.44616699l-.28851318-.1685791-6.42779541 2.12145996c-.20217896.06628418-.42443848.0144043-.5763855-.13452148-.15197754-.14892578-.2083435-.3701172-.14620972-.5736084l2.04296875-6.6118164-.1555481-.27746583c-1.54998779-2.76513672-2.19000244-6.02807617-1.80221557-9.18774414.4114685-3.34484863 1.89590454-6.37927246 4.29333496-8.77331543C24.20742798 18.52600098 27.9800415 16.9630127 32 16.9630127c4.02001953 0 7.79742432 1.56079101 10.63555908 4.39660644 2.83813477 2.8359375 4.40112305 6.61010742 4.40112305 10.62634277 0 2.77111817-.7444458 5.45776368-2.15185547 7.77111817-1.34979248 2.20471191-3.23956299 4.0288086-5.49072266 5.29968262-2.2892456 1.29663085-4.85333252 1.98217773-7.41595459 1.98217773-2.62145996.00036621-5.23223877-.71557617-7.550354-2.06958008z"/>
        <rect width="11.018" height="2.5" x="24.967" y="33.809" fill="rgb(140,132,243)" rx="0" ry="0"/>
        <ellipse cx="38.466" cy="34.92" fill="rgb(140,132,243)" rx="1.25" ry="1.25"/>
        <rect width="11.018" height="2.5" x="28.015" y="28.438" fill="rgb(140,132,243)" rx="0" ry="0" transform="matrix(-1 0 0 1 67.04777778 0)"/>
        <ellipse cx="25.417" cy="29.55" fill="rgb(140,132,243)" rx="1.25" ry="1.25" transform="matrix(-1 0 0 1 50.83333333 0)"/>
      </g>
    </g>
  </g>
</svg>
