<svg id="Layer_1" data-name="Layer 1" xmlns="http://www.w3.org/2000/svg" xmlns:xlink="http://www.w3.org/1999/xlink" viewBox="0 0 220 180"><defs><style>.cls-1,.cls-3{fill:#008cff;}.cls-1,.cls-2,.cls-3,.cls-4{fill-rule:evenodd;}.cls-1{opacity:0.05;}.cls-2{fill:#02ccaa;}.cls-4{fill:#ea3940;}.cls-5{fill:url(#linear-gradient);}</style><linearGradient id="linear-gradient" x1="42.8" y1="-4660.62" x2="161.65" y2="-4564.65" gradientTransform="matrix(1, 0, 0, -1, 0, -4525)" gradientUnits="userSpaceOnUse"><stop offset="0" stop-color="#005bea"/><stop offset="1" stop-color="#00c6fb"/></linearGradient></defs><title>Tick-Ok-Illustration</title><path class="cls-1" d="M195.27,44a7.89,7.89,0,0,0-10.78-2.88L144.28,64.37A7.88,7.88,0,0,0,135,51.79l-.75.44a7.84,7.84,0,0,1,1.43-1.07l20.49-11.83A7.88,7.88,0,0,0,149.88,25l11.33-6.54a7.89,7.89,0,1,0-7.89-13.66L23.58,79.67a7.88,7.88,0,1,0,7.88,13.66l13.66-7.89A7.89,7.89,0,1,1,53,99.1L25.69,114.87a7.89,7.89,0,1,0,7.89,13.66l12.9-7.45a7.89,7.89,0,0,0,9.33,12.59l-28,16.4a7.89,7.89,0,1,0,7.89,13.66L75.9,140.51a7.89,7.89,0,0,0,9.33,12.59l95.6-55.2a7.89,7.89,0,0,0-7.24-14,7.88,7.88,0,0,0-9.21-12.69l28-16.4A7.91,7.91,0,0,0,195.27,44Z"/><path class="cls-2" d="M196.34,28.42l-5.91-5.92,5.91-5.91,5.92,5.91ZM192,22.5l4.35,4.35,4.35-4.35-4.35-4.35Z"/><path class="cls-2" d="M7.41,121.94,1.5,116l5.91-5.91L13.33,116ZM3.06,116l4.35,4.35L11.76,116l-4.35-4.35Z"/><path class="cls-2" d="M166.89,128.12l-4.69-4.69,4.69-4.68,4.68,4.68Zm-3.13-4.69,3.13,3.13,3.12-3.13-3.12-3.12Z"/><path class="cls-3" d="M70,179.34a4.18,4.18,0,1,1,4.18-4.18A4.18,4.18,0,0,1,70,179.34Zm0-7.25a3.08,3.08,0,1,0,3.08,3.07A3.07,3.07,0,0,0,70,172.09Z"/><path class="cls-3" d="M104.4,9a4.18,4.18,0,1,1,4.18-4.18A4.18,4.18,0,0,1,104.4,9Zm0-7.26a3.08,3.08,0,1,0,3.08,3.08,3.08,3.08,0,0,0-3.08-3.08Z"/><path class="cls-3" d="M214.32,91.5a4.18,4.18,0,1,1,4.18-4.18A4.18,4.18,0,0,1,214.32,91.5Zm0-7.26a3.08,3.08,0,1,0,3.08,3.08A3.07,3.07,0,0,0,214.32,84.24Z"/><path class="cls-4" d="M135.87,158.37h-9l4.51-7.81Zm-7.09-1.11H134l-2.6-4.49Z"/><path class="cls-4" d="M47.09,45.76h-9L42.58,38ZM40,44.66h5.19l-2.59-4.5Z"/><polygon class="cls-5" points="95.5 128.81 58.29 89.48 73.55 75.05 96.95 99.78 147.21 56.29 160.95 72.17 95.5 128.81"/></svg>