<svg xmlns="http://www.w3.org/2000/svg" width="64" height="64" viewBox="0 0 64 64">
  <g>
    <g opacity=".15">
      <ellipse cx="32" cy="32" fill="rgb(42,211,232)" rx="32" ry="32"/>
    </g>
    <path fill="rgb(42,211,232)" fill-rule="evenodd" d="M38.09191895 24.57756074c.4262085-.88476563.6656494-1.87646484.66729736-2.92382813 0-3.7331543-3.02618408-6.75927734-6.75921631-6.75927734s-6.7592163 3.02612305-6.7592163 6.75927734c0 .74121094.11926269 1.4543457.33966064 2.12158204-.20855713-.1159668-.45800782-.14624024-.69317627-.07714844-.44091797.12011719-.87506104.26391601-1.30053711.4309082-3.0041504-1.52856445-6.65142823-.94311523-9.02630616 1.44873047-.7399292.73925781-.74499511 1.93701172-.0112915 2.68237305l2.37390137 2.53027343c-.1083374.26269532-.20458985.52294922-.29034424.78466797C15.08166503 32.2023166 14 33.73014863 14 35.3849338v1.79785156c0 1.60571289.79058838 2.8371582 2.22650146 3.4675293.9260254.40576171 1.73681641 1.03515625 2.35961915 1.83154296.95928955 1.22509766 2.1461792 2.25341797 3.4954834 3.02832032v1.69091797c.00079345 1.05126953.85253906 1.9033203 1.90380859 1.90454101h4.00769043c1.05133056-.0012207 1.90325927-.85327148 1.90454101-1.90454101v-.09936524h2.20166016v.09936524c.0012207 1.05126953.85321045 1.9033203 1.90454101 1.90454101h4.00695801c1.05279541 0 1.90637207-.85327148 1.90679932-1.90600586v-1.6706543c3.25775146-1.85498046 5.50531006-5.11499023 6.01757812-8.7253418 1.07189942-.34106444 2.02160645-.98632812 2.73345948-1.85717773C49.53271484 33.87809785 50.00280762 32.54509004 50 31.1710666c0-1.05175781-.85266113-1.90454102-1.90454102-1.90454102-1.05187988 0-1.90454101.8527832-1.90454101 1.90454102 0 .49731445-.17889404.9777832-.50396729 1.3540039-.8071289-3.44580078-3.22167968-6.37939453-6.66748047-8.01171874-.29290771-.14941407-.6439209-.12768555-.91625976.05639648l-.0112915.0078125zm-6.09197999-7.87792969c-2.7359619 0-4.95391845 2.21801758-4.95391845 4.95385742 0 2.73608399 2.21795654 4.95410157 4.95391845 4.95410157 2.73602295 0 4.9539795-2.21801758 4.9539795-4.95410157-.0032959-2.73461914-2.21936035-4.95043945-4.9539795-4.95385742zm-.33392334 6.41479492H34.012146c.49847412 0 .90264892-.40429687.90264892-.90258789 0-.49853515-.4041748-.90283203-.90264892-.90283203h-1.54956055v-1.85864258c0-.32250976-.17199707-.62036132-.45129395-.78173828-.27929687-.16113281-.62335205-.16113281-.90264892 0-.27923584.16137696-.45129395.45922852-.45129395.78173828v2.65527344c.0008545.55688477.45196533 1.0078125 1.008667 1.00878906zm-2.30529785 4.76367188c-1.43933105-.61108399-2.6231079-1.70678711-3.34667968-3.0822754-.08221436.31274415-.32818604.55859376-.64312745.64135743-.50128173.13476563-.99163818.30761719-1.46673584.5168457l-.42724609.1916504-.40167236-.23828126c-2.33184815-1.37817382-5.30596924-.98852539-7.24066162.94677735-.03851319.0390625-.03851319.10180664 0 .14086914l.01879882.01879883 3.21868897 3.41870117-.26177979.5559082c-.234375.49414063-.42687988 1.00708008-.57543945 1.5336914l-.13989258.49853516-.50024414.13110352c-1.03723144.2722168-1.7894287 1.20947266-1.7894287 2.2331543v1.80517578c0 .88232422.37609862 1.47583008 1.14630126 1.81518554 1.19995117.52587891 2.25054932 1.3413086 3.05767822 2.37304688.91357422 1.16601562 2.06817627 2.12060547 3.3848877 2.79907227l.4911499.2512207v2.77929687c-.00036621.0263672.00982666.05175782.02838135.0703125.01855469.01879883.04388428.02905274.07019043.02905274h4.00769043c.02636719 0 .05175781-.0102539.07043457-.02905274.01867676-.01855468.02905273-.0439453.02886963-.0703125v-1.91137695h5.81219482v1.90454102c-.00024414.02636718.01019287.0517578.02886963.07055664.01861572.01855468.04400635.02905273.07037354.02880859h4.006958c.02642823.00024414.05175782-.0102539.07043457-.0288086.01867676-.01879882.02905274-.04418945.02886963-.07055663V44.439133l.49267578-.2512207c3.17199707-1.6171875 5.32025147-4.75097656 5.6060791-8.1772461l.05645753-.6821289.67242431-.12939453c1.9173584-.36791992 3.25701904-2.02416992 3.25701904-4.02661133 0-.0546875-.04443359-.0991211-.0993042-.0991211-.05480956 0-.0993042.0444336-.0993042.0991211-.0032959 1.68432617-1.08789062 3.1760254-2.6890869 3.69873047l-1.06506348.35205078-.11437989-1.1171875c-.35424804-3.40820312-2.55218506-6.38452148-5.87915039-7.96191406-.3012085-.13183594-.50683594-.41723633-.53674316-.7446289-.00402832-.04394532-.00482178-.08789063-.0024414-.13134766-.73291016 1.1538086-1.8053589 2.07055664-3.0767212 2.60986328h2.14312744c.49847412 0 .90264893.40405273.90264893.90258789 0 .49853516-.4041748.90258789-.90264893.90258789h-9.54833984c-.49853516 0-.90264893-.40405273-.90264893-.90258789 0-.49853516.40411377-.9025879.90264893-.9025879h2.1348877zm-4.37341308 6.20019531c0-.55297851-.44897461-1.00195312-1.00195313-1.00195312-.55291748 0-1.00189209.4489746-1.00189209 1.00195312s.44897461 1.00195313 1.0018921 1.00195313c.5529785 0 1.00195312-.44897461 1.00195312-1.00195313z"/>
  </g>
</svg>
