<svg xmlns="http://www.w3.org/2000/svg" xmlns:xlink="http://www.w3.org/1999/xlink" width="41.5" height="41.221" viewBox="0 0 41.5 41.221">
  <defs>
    <rect id="rect-2" width="24" height="24" x="8.75" y="8.611"/>
    <mask id="mask-3" maskContentUnits="userSpaceOnUse" maskUnits="userSpaceOnUse">
      <rect width="41.5" height="41.221" x="0" y="0" fill="black"/>
      <use fill="white" xlink:href="#rect-2"/>
    </mask>
  </defs>
  <g>
    <path fill="rgb(237,255,235)" fill-rule="evenodd" d="M20.6105655 0h.278869C32.26471526 0 41.5 9.23528474 41.5 20.6105655c0 11.37528076-9.23528474 20.6105655-20.6105655 20.6105655h-.278869C9.23528474 41.221131 0 31.98584626 0 20.6105655 0 9.23528474 9.23528474 0 20.6105655 0z"/>
    <g>
      <use fill="none" xlink:href="#rect-2"/>
      <g mask="url(#mask-3)">
        <path fill="rgb(109,190,98)" fill-rule="evenodd" d="M23 19.79841175c0-.12147275.10739921-.214897.22770117-.19807232l5.17425736.72363957c.22580394.03157954.23133536.35582137.00673997.39508452l-5.17425737.90454946C23.11206714 21.64500607 23 21.55083064 23 21.42660078v-1.62818903z"/>
        <g>
          <path fill="rgb(109,190,98)" fill-rule="evenodd" d="M22.5860939 10.92103481c-.14437484-.02999973-.29062462-.05718803-.43499946-.08062553l.1875-1.15687466c.16124916.02624989.32531166.05671883.48656273.0904684l-.23906327 1.1470318zm3.15234375 1.25578022c-.2418766-.14906215-.4921875-.2887497-.74484443-.41578102l.52640533-1.0467186c.28125.140625.5625019.29812527.83250046.46453095l-.61406136.99796867zm1.98093796 1.6045313c.19687462.20484351.38531303.42093753.5625.64171886l.91312408-.73312474c-.19734191-.24843788-.40874862-.4879694-.62718582-.71718788l-.84843826.80859375zm2.19937515 3.6140623c-.09375-.26718712-.19640732-.53390694-.31078148-.79265594l1.07109452-.47484398c.12843704.2892189.24562454.58781242.34827995.88687515l-1.10859299.38062477zm.53437424 3.3510952l1.171875.0159378v-.15187644c0-.2662487-.00984383-.53577996-.02859497-.80015564l-1.16906166.08343696c.01687431.23671913.02578163.47812462.02578163.71671868v.13593864zm.46875 3.74718666l-1.09734344-.41109466c.09890556-.264843.1875-.53765679.26390647-.81046868l1.12874985.31453133c-.08250046.3051567-.18187523.6103115-.29296875.90703201H30.921875zm-2.8125 2.51437378L29 27.76603317c.20578194-.24140548.40265656-.49453163.58781242-.75281143l-.95578193-.67828178c-.1635933.23062515-.33937455.45703125-.52265549.67312431zm-2.01937485 3.19125175l-.58687591-1.01437377c.24468803-.140625.48656273-.2957821.7185936-.45796967l.6717186.95999908c-.25921822.18140793-.52968789.35390664-.80343629.51234436zm-3.37406349.07265664l.25453186 1.14374923c.16124916-.03562545.32296753-.07546806.48093605-.1176567l-.30609321-1.1320305c-.14109421.0384369-.28593636.07406236-.4293747.10593797z"/>
          <path fill="rgb(109,190,98)" fill-rule="evenodd" d="M20.9454689 31.56337833c-4.42949867-.00104522-8.42231273-2.66996002-10.11695766-6.76246738-1.69464398-4.09251022-.75746632-8.80285645 2.37461376-11.93503284 2.04895782-2.06016922 4.83675003-3.21532155 7.7423439-3.20812512h.46875v21.90562534h-.46875zm-.46875-20.92734432v6.59484482h-4.4756546c.27070046-1.41982555.7135353-2.71853924 1.30878067-3.80906391.87937355-1.61062431 1.98937416-2.58140564 3.16687393-2.7857809zm-8.95974159 6.59484482h3.53086948c.28563881-1.5846014.7732954-3.03904343 1.43933964-4.2581253.41103554-.75304223.87379265-1.38693429 1.37551117-1.89216996-2.94752216.95577622-5.30066967 3.243783-6.34572029 6.15029526zm3.23583508 3.37968636c0-.83190728.05143737-1.64998627.1516056-2.44218636h-3.67312336c-.19666576.78193855-.30113888 1.60009575-.30113888 2.44218636 0 1.1890602.2083025 2.33039665.59033204 3.38943481h3.52925586c-.19542503-1.08029747-.29693126-2.22123146-.29693126-3.38943481zM15.24656868 24.9375c.29230595 1.21766376.7098856 2.33905506 1.24061775 3.3108797.41103554.75304032.87379265 1.38693238 1.37551117 1.89216615-2.61920166-.84931183-4.76906776-2.7505951-5.94879627-5.20304585h3.33266735zm.9652443 0h4.26490592v5.6475954c-1.17749977-.2043724-2.28750038-1.17515563-3.16687393-2.78578185-.46011162-.84294892-.82915878-1.81029511-1.098032-2.86181355zM20.4767189 24h-4.47379303c-.20525455-1.07301521-.31214428-2.21537018-.31214428-3.38943481 0-.83459092.0540123-1.6531582.15897656-2.44218636h4.62696075V24z"/>
        </g>
      </g>
    </g>
  </g>
</svg>
