<?xml version="1.0" encoding="utf-8"?>
<!-- Generator: Adobe Illustrator 23.0.5, SVG Export Plug-In . SVG Version: 6.00 Build 0)  -->
<svg version="1.1" id="Layer_1" xmlns="http://www.w3.org/2000/svg" xmlns:xlink="http://www.w3.org/1999/xlink" x="0px" y="0px"
	 viewBox="0 0 32 32" style="enable-background:new 0 0 32 32;" xml:space="preserve">
<style type="text/css">
	.st0{fill-rule:evenodd;clip-rule:evenodd;fill:#E3FCFF;}
	.st1{enable-background:new    ;}
	.st2{fill:#5CC3D0;}
</style>
<g>
	<path class="st0" d="M8.5,0.5h15c4.4,0,8,3.6,8,8v15c0,4.4-3.6,8-8,8h-15c-4.4,0-8-3.6-8-8v-15C0.5,4.1,4.1,0.5,8.5,0.5z"/>
	<g class="st1">
		<path class="st2" d="M13.1,18.4c0-0.4-0.2-0.8-0.5-1s-0.9-0.5-1.7-0.7s-1.4-0.5-1.9-0.8c-0.9-0.6-1.4-1.3-1.4-2.2
			c0-0.8,0.3-1.5,1-2s1.5-0.8,2.5-0.8c0.7,0,1.3,0.1,1.9,0.4s1,0.6,1.3,1.1c0.3,0.5,0.5,1,0.5,1.6h-1.7c0-0.5-0.2-0.9-0.5-1.2
			c-0.3-0.3-0.8-0.4-1.4-0.4c-0.6,0-1,0.1-1.3,0.4s-0.5,0.6-0.5,1c0,0.4,0.2,0.7,0.5,0.9c0.3,0.2,0.9,0.5,1.7,0.7
			c0.8,0.2,1.4,0.5,1.9,0.8c0.5,0.3,0.8,0.6,1,1c0.2,0.4,0.3,0.8,0.3,1.3c0,0.8-0.3,1.5-1,2c-0.6,0.5-1.5,0.7-2.6,0.7
			c-0.7,0-1.4-0.1-2-0.4c-0.6-0.3-1.1-0.6-1.4-1.1s-0.5-1-0.5-1.6h1.7c0,0.6,0.2,1,0.6,1.3s0.9,0.5,1.6,0.5c0.6,0,1.1-0.1,1.4-0.4
			C13,19.1,13.1,18.8,13.1,18.4z"/>
		<path class="st2" d="M22,18.7h-3.9L17.3,21h-1.8l3.8-10h1.6l3.8,10h-1.8L22,18.7z M18.6,17.3h2.9L20,13.1L18.6,17.3z"/>
	</g>
</g>
</svg>
