<?xml version="1.0" encoding="utf-8"?>
<!-- Generator: Adobe Illustrator 23.0.5, SVG Export Plug-In . SVG Version: 6.00 Build 0)  -->
<svg version="1.1" id="Layer_1" xmlns="http://www.w3.org/2000/svg" xmlns:xlink="http://www.w3.org/1999/xlink" x="0px" y="0px"
	 viewBox="0 0 32 32" style="enable-background:new 0 0 32 32;" xml:space="preserve">
<style type="text/css">
	.st0{fill-rule:evenodd;clip-rule:evenodd;fill:#EDFFEB;}
	.st1{enable-background:new    ;}
	.st2{fill:#42D47D;}
</style>
<g>
	<path class="st0" d="M8.5,0.5h15c4.4,0,8,3.6,8,8v15c0,4.4-3.6,8-8,8h-15c-4.4,0-8-3.6-8-8v-15C0.5,4.1,4.1,0.5,8.5,0.5z"/>
	<g class="st1">
		<path class="st2" d="M14.5,18.5L16,11h1.7l-2.3,10h-1.7l-1.9-7.3L10,21H8.3L6,11h1.7l1.5,7.5l1.9-7.5h1.4L14.5,18.5z"/>
		<path class="st2" d="M25.3,16.5h-4.1v3.1H26V21h-6.5V11H26v1.4h-4.7v2.7h4.1V16.5z"/>
	</g>
</g>
</svg>
