<?xml version="1.0" encoding="utf-8"?>
<!-- Generator: Adobe Illustrator 23.0.5, SVG Export Plug-In . SVG Version: 6.00 Build 0)  -->
<svg version="1.1" id="Layer_1" xmlns="http://www.w3.org/2000/svg" xmlns:xlink="http://www.w3.org/1999/xlink" x="0px" y="0px"
	 viewBox="0 0 32 32" style="enable-background:new 0 0 32 32;" xml:space="preserve">
<style type="text/css">
	.st0{fill-rule:evenodd;clip-rule:evenodd;fill:#ECEBFF;}
	.st1{enable-background:new    ;}
	.st2{fill:#8C84F3;}
</style>
<g>
	<path class="st0" d="M8.5,0.5h15c4.4,0,8,3.6,8,8v15c0,4.4-3.6,8-8,8h-15c-4.4,0-8-3.6-8-8v-15C0.5,4.1,4.1,0.5,8.5,0.5z"/>
	<g class="st1">
		<path class="st2" d="M13.9,16.8h-4V21H8.2V11h6.3v1.4H9.9v3h4V16.8z"/>
		<path class="st2" d="M20,17.1h-1.9V21h-1.7V11h3.5c1.1,0,2,0.3,2.7,0.8c0.6,0.5,0.9,1.3,0.9,2.2c0,0.7-0.2,1.2-0.5,1.7
			s-0.8,0.8-1.3,1l2.2,4.1V21H22L20,17.1z M18.1,15.8h1.8c0.6,0,1-0.1,1.4-0.4c0.3-0.3,0.5-0.7,0.5-1.2c0-0.5-0.2-0.9-0.5-1.2
			c-0.3-0.3-0.8-0.4-1.4-0.5h-1.8V15.8z"/>
	</g>
</g>
</svg>
