<?xml version="1.0" encoding="utf-8"?>
<!-- Generator: Adobe Illustrator 23.0.5, SVG Export Plug-In . SVG Version: 6.00 Build 0)  -->
<svg version="1.1" id="Layer_1" xmlns="http://www.w3.org/2000/svg" xmlns:xlink="http://www.w3.org/1999/xlink" x="0px" y="0px"
	 viewBox="0 0 32 32" style="enable-background:new 0 0 32 32;" xml:space="preserve">
<style type="text/css">
	.st0{fill-rule:evenodd;clip-rule:evenodd;fill:#FFECF1;}
	.st1{enable-background:new    ;}
	.st2{fill:#E87094;}
</style>
<g>
	<path class="st0" d="M8.5,0.5h15c4.4,0,8,3.6,8,8v15c0,4.4-3.6,8-8,8h-15c-4.4,0-8-3.6-8-8v-15C0.5,4.1,4.1,0.5,8.5,0.5z"/>
	<g class="st1">
		<path class="st2" d="M15.4,12.3h-3.1v8.6h-1.7v-8.6H7.5V11h7.9V12.3z"/>
		<path class="st2" d="M24.5,11v6.7c0,1.1-0.3,1.9-1,2.5c-0.7,0.6-1.6,0.9-2.7,0.9c-1.1,0-2-0.3-2.7-0.9c-0.7-0.6-1-1.5-1-2.5V11
			h1.7v6.7c0,0.7,0.2,1.2,0.5,1.5c0.3,0.4,0.8,0.5,1.5,0.5c1.3,0,2-0.7,2-2.1V11H24.5z"/>
	</g>
</g>
</svg>
