<?xml version="1.0" encoding="utf-8"?>
<!-- Generator: Adobe Illustrator 23.0.5, SVG Export Plug-In . SVG Version: 6.00 Build 0)  -->
<svg version="1.1" id="Layer_1" xmlns="http://www.w3.org/2000/svg" xmlns:xlink="http://www.w3.org/1999/xlink" x="0px" y="0px"
	 viewBox="0 0 32 32" style="enable-background:new 0 0 32 32;" xml:space="preserve">
<style type="text/css">
	.st0{fill-rule:evenodd;clip-rule:evenodd;fill:#E8E8E8;}
	.st1{enable-background:new    ;}
	.st2{fill:#AEAEAE;}
</style>
<g>
	<path class="st0" d="M8.5,0.5h15c4.4,0,8,3.6,8,8v15c0,4.4-3.6,8-8,8h-15c-4.4,0-8-3.6-8-8v-15C0.5,4.1,4.1,0.5,8.5,0.5z"/>
	<g class="st1">
		<path class="st2" d="M7.9,11l2.9,7.6l2.9-7.6h2.2v10h-1.7v-3.3l0.2-4.4L11.4,21h-1.2l-2.9-7.7l0.2,4.4V21H5.7V11H7.9z"/>
		<path class="st2" d="M26.3,16.3c0,1-0.2,1.8-0.5,2.6c-0.3,0.7-0.8,1.3-1.4,1.7c-0.6,0.4-1.3,0.6-2.2,0.6c-0.8,0-1.5-0.2-2.2-0.6
			c-0.6-0.4-1.1-1-1.5-1.7c-0.3-0.7-0.5-1.6-0.5-2.5v-0.6c0-1,0.2-1.8,0.5-2.6c0.3-0.7,0.8-1.3,1.5-1.7c0.6-0.4,1.3-0.6,2.2-0.6
			c0.8,0,1.5,0.2,2.2,0.6c0.6,0.4,1.1,1,1.5,1.7c0.3,0.7,0.5,1.6,0.5,2.6V16.3z M24.6,15.7c0-1.1-0.2-1.9-0.6-2.5s-1-0.9-1.8-0.9
			c-0.7,0-1.3,0.3-1.8,0.9c-0.4,0.6-0.6,1.4-0.6,2.5v0.6c0,1.1,0.2,1.9,0.6,2.5c0.4,0.6,1,0.9,1.8,0.9c0.8,0,1.4-0.3,1.8-0.9
			c0.4-0.6,0.6-1.4,0.6-2.6V15.7z"/>
	</g>
</g>
</svg>
