<svg xmlns="http://www.w3.org/2000/svg" xmlns:xlink="http://www.w3.org/1999/xlink" width="41.5" height="41.221" viewBox="0 0 41.5 41.221">
  <defs>
    <rect id="rect-2" width="24" height="24" x="8.75" y="8.611"/>
    <mask id="mask-3" maskContentUnits="userSpaceOnUse" maskUnits="userSpaceOnUse">
      <rect width="41.5" height="41.221" x="0" y="0" fill="black"/>
      <use fill="white" xlink:href="#rect-2"/>
    </mask>
  </defs>
  <g>
    <path fill="rgb(255,243,223)" fill-rule="evenodd" d="M20.6105655 0h.278869C32.26471526 0 41.5 9.23528474 41.5 20.6105655c0 11.37528076-9.23528474 20.6105655-20.6105655 20.6105655h-.278869C9.23528474 41.221131 0 31.98584626 0 20.6105655 0 9.23528474 9.23528474 0 20.6105655 0z"/>
    <g>
      <use fill="none" xlink:href="#rect-2"/>
      <g mask="url(#mask-3)">
        <path fill="rgb(253,186,69)" fill-rule="evenodd" d="M29.984375 29.695878c-.36243687 0-.65625-.29381313-.65625-.65625 0-9.3778125-7.629375-17.0071875-17.0071875-17.0071875-.36243687 0-.65625-.29381313-.65625-.65625s.29381313-.65625.65625-.65625c7.36260431.0031631 14.00956147 4.4091187 16.88015625 11.1890625.95479264 2.25578816 1.4444143 4.68109742 1.43953125 7.130625 0 .36243687-.29381313.65625-.65625.65625z"/>
        <path fill="rgb(253,186,69)" fill-rule="evenodd" d="M25.33625 29.695878c-.36243687 0-.65625-.29381313-.65625-.65625 0-6.8146875-5.544375-12.3590625-12.3590625-12.3590625-.36243687 0-.65625-.29381313-.65625-.65625s.29381313-.65625.65625-.65625c3.6279275-.00998967 7.10907395 1.43182341 9.6675 4.0040625 2.57223909 2.55842605 4.01405217 6.0395725 4.0040625 9.6675 0 .36243687-.29381313.65625-.65625.65625z"/>
        <path fill="rgb(253,186,69)" fill-rule="evenodd" d="M21.0565625 29.695878c-.36243687 0-.65625-.29381313-.65625-.65625 0-4.453125-3.624375-8.079375-8.079375-8.079375-.36243687 0-.65625-.29381313-.65625-.65625s.29381313-.65625.65625-.65625c5.17875 0 9.391875 4.213125 9.391875 9.391875 0 .36243687-.29381313.65625-.65625.65625z"/>
        <ellipse cx="13.715" cy="27.645" fill="rgb(253,186,69)" rx="2.2" ry="2.2"/>
      </g>
    </g>
  </g>
</svg>
