<svg xmlns="http://www.w3.org/2000/svg" width="48" height="48" viewBox="0 0 48 48">
  <g>
    <g opacity=".1">
      <ellipse cx="24" cy="24" fill="rgb(232,52,111)" rx="24" ry="24"/>
    </g>
    <g>
      <path fill="rgb(232,52,111)" fill-rule="evenodd" d="M21 25.92004395h6.12000275c3.71999359 0 6.83999633 3.11999511 6.83999633 6.95996093v4.20007324H14.04000092v-4.20007324c0-3.83996582 3.11999893-6.95996093 6.95999908-6.95996093zm-5.52000046 9.7199707H32.6399994v-2.76000977c0-3-2.51999664-5.52001953-5.51999664-5.52001953H21c-3 0-5.52000046 2.52001953-5.52000046 5.52001953v2.76000977z"/>
      <path fill="rgb(232,52,111)" fill-rule="evenodd" d="M23.88000107 25.44006348c3.24000168 0 5.88000107-2.64001465 5.88000107-5.88000489v-2.88000488c.83999633-.7199707 1.3199997-1.80004883 1.3199997-3v-2.64001465h-7.44000245c-3.11999893 0-5.52000046 2.52001953-5.52000046 5.52001953v3C18 22.80004883 20.6399994 25.44006348 23.88000107 25.44006348zm5.75999832-13.08007813v1.19995117c0 1.5600586-1.19999695 2.76000977-2.7599945 2.76000977h-7.32000352C19.80000305 14.04003906 21.6000023 12.35998535 24 12.35998535h5.63999939zm-2.76000214 5.52001953h-7.43999862v1.80004883c0 2.52001953 2.04000091 4.4399414 4.43999862 4.4399414 2.40000153 0 4.44000244-2.04003906 4.44000244-4.4399414v-2.04003906c-.48000335.11999512-.95999908.23999023-1.44000244.23999023z"/>
    </g>
  </g>
</svg>
