<svg xmlns="http://www.w3.org/2000/svg" width="48" height="48" viewBox="0 0 48 48">
  <g>
    <g opacity=".1">
      <ellipse cx="24" cy="24" fill="rgb(42,211,232)" rx="24" ry="24"/>
    </g>
    <g>
      <path fill="rgb(42,211,232)" fill-rule="evenodd" d="M21 25.91998291h6.12000275c3.71999359 0 6.83999633 3.11999512 6.83999633 6.96002197v4.19995117H14.04000092v-4.19995117c0-3.84002685 3.11999893-6.96002197 6.95999908-6.96002197zm-5.52000046 9.72003174H32.6399994v-2.76000977c0-3-2.51999664-5.52001953-5.51999664-5.52001953H21c-3 0-5.52000046 2.52001953-5.52000046 5.52001953v2.76000977z"/>
      <path fill="rgb(42,211,232)" fill-rule="evenodd" d="M23.88000107 25.44000244c3.24000168 0 5.88000107-2.64001465 5.88000107-5.88000488v-2.88000488c.83999633-.72003174 1.3199997-1.7999878 1.3199997-3v-2.64001465h-7.44000245c-3.11999893 0-5.52000046 2.52001953-5.52000046 5.52001953v3C18 22.79998779 20.6399994 25.44000244 23.88000107 25.44000244zm5.75999832-13.08001709v1.2000122c0 1.55999757-1.19999695 2.76000977-2.7599945 2.76000977h-7.32000352C19.80000305 14.03997802 21.6000023 12.35998535 24 12.35998535h5.63999939zm-2.76000214 5.52001953h-7.43999862v1.7999878c0 2.52001953 2.04000091 4.44000244 4.43999862 4.44000244 2.40000153 0 4.44000244-2.03997803 4.44000244-4.44000244v-2.03997803c-.48000335.11999512-.95999908.23999023-1.44000244.23999023z"/>
    </g>
  </g>
</svg>
