<svg xmlns="http://www.w3.org/2000/svg" width="40" height="40" viewBox="0 0 40 40">
  <g>
    <g opacity=".1">
      <ellipse cx="20" cy="20" fill="rgb(0,218,135)" rx="20" ry="20"/>
    </g>
    <g>
      <path fill="rgb(0,218,135)" fill-rule="evenodd" d="M17.5 21.60000038h5.09999847c3.1000023 0 5.69999981 2.60000038 5.69999981 5.80000115v3.5H11.69999981v-3.5c0-3.20000077 2.59999943-5.80000115 5.80000019-5.80000115zm-4.60000038 8.09999848h14.30000114v-2.29999924c0-2.5-2.10000229-4.60000038-4.60000229-4.60000038H17.5c-2.5 0-4.60000038 2.10000038-4.60000038 4.60000038v2.29999924z"/>
      <path fill="rgb(0,218,135)" fill-rule="evenodd" d="M19.89999962 21.20000076c2.70000076 0 4.89999962-2.20000076 4.89999962-4.90000152v-2.39999962c.70000076-.60000038 1.10000038-1.5 1.10000038-2.5V9.1999998h-6.19999886c-2.60000038 0-4.60000038 2.09999943-4.60000038 4.59999943v2.5C15 19 17.20000076 21.20000076 19.89999962 21.20000076zm4.79999924-10.90000057v1c0 1.3000002-1 2.3000002-2.29999924 2.3000002h-6.10000038C16.5 11.6999998 18 10.30000018 20 10.30000018h4.69999886zm-2.29999733 4.59999943h-6.20000077v1.5c0 2.10000038 1.70000077 3.70000076 3.70000077 3.70000076s3.69999885-1.70000076 3.69999885-3.70000076V14.6999998c-.39999962.10000038-.79999924.1999998-1.19999885.1999998z"/>
    </g>
  </g>
</svg>
