<svg xmlns="http://www.w3.org/2000/svg" xmlns:xlink="http://www.w3.org/1999/xlink" width="56" height="56.346" viewBox="0 0 56 56.346">
  <defs>
    <rect id="rect-2" width="36" height="36" x="10" y="10.173"/>
    <mask id="mask-3" maskContentUnits="userSpaceOnUse" maskUnits="userSpaceOnUse">
      <rect width="56" height="56.346" x="0" y="0" fill="black"/>
      <use fill="white" xlink:href="#rect-2"/>
    </mask>
  </defs>
  <g>
    <path fill="rgb(236,235,255)" fill-rule="evenodd" d="M28 0c15.45362069 0 28 12.54637931 28 28v.34567901c0 15.45362069-12.54637931 28-28 28s-28-12.54637931-28-28V28C0 12.54637931 12.54637931 0 28 0z"/>
    <g>
      <use fill="none" xlink:href="#rect-2"/>
      <g mask="url(#mask-3)">
        <path fill="rgb(140,132,243)" fill-rule="evenodd" d="M33.81 43.74950617H18.40666667c-3.47666667 0-6.30666667-2.83-6.30666667-6.30666666V22.03950617c0-3.47666666 2.83-6.30666666 6.30666667-6.30666666h5.37c.36666666 0 .66666666.3.66666666.66666666 0 .36666667-.3.66666667-.66666666.66666667h-5.37c-2.74333334 0-4.97333334 2.23-4.97333334 4.97333333v15.40333334c0 2.74333333 2.23 4.97333333 4.97333334 4.97333333H33.81c2.74333333 0 4.97333333-2.23 4.97333333-4.97333333v-4.20333334c0-.36666666.3-.66666666.66666667-.66666666.36666667 0 .66666667.3.66666667.66666666v4.20333334c0 3.47666666-2.83 6.30666666-6.30666667 6.30666666z"/>
        <path fill="rgb(140,132,243)" fill-rule="evenodd" d="M27.7033329 28.49617386c1.85333252 1.85666656 4.31999779 2.87666511 6.94333458 2.87666511 2.62333298 0 5.0866661-1.02666664 6.94333267-2.87999916 1.85666657-1.85333252 2.87666703-4.3199997 2.87666703-6.94333267 0-2.62333488-1.0233345-5.09000015-2.87666703-6.94333458-1.85333633-1.85333252-4.3199997-2.87333298-6.94333267-2.87333298-2.6233368 0-5.09000206 1.02333355-6.94333458 2.87666703-1.85666656 1.85333252-2.87666702 4.3199997-2.87666702 6.94333267 0 2.62333488 1.0233326 5.09000015 2.87666702 6.94333458zm-1.5466671-6.94333458c0-4.6800003 3.80999947-8.48999977 8.49000168-8.48999977 4.6800003 0 8.48666382 3.80999946 8.48666382 8.48999977 0 4.6800003-3.80666351 8.48666763-8.48666382 8.48666763-4.68000221 0-8.49000168-3.80666733-8.49000168-8.48666763z"/>
        <path fill="rgb(140,132,243)" fill-rule="evenodd" d="M30.62000084 24.38617325c.23333359.2733345.57333183.4300003.93333244.4300003h6.08333206c.67666626 0 1.23000336-.54999923 1.23000336-1.2266674 0-.3599987-.15666962-.7033329-.4300003-.93666649l-.00333405-.00333404c-.01666641-.01333237-.02999878-.02666474-.046669-.03666497-.39666367-.3600006-.62666321-.87000084-.62666321-1.4066677v-.4133339c0-.0233326 0-.04999924-.00333405-.07666588.01333237-1.28666687-.33666992-2.2733326-1.04333496-2.9300003-.703331-.65333367-1.54333496-.76999855-1.98999786-.77999878-.03666687-.00333405-.08000183-.00333405-.12666703-.00333405-1.74333572.00333405-3.16333389 1.42333412-3.16666793 3.16666603v1.03000069c0 .539999-.22999955 1.04999924-.62999917 1.40999985L30.75 22.6495056c-.51333237.44333458-.5699997 1.22333527-.12999916 1.73666764zm.70000076-.8199997c.00333214-.03333282.01666641-.10000038.07666588-.15333366l.01333427-.01000023.0233326-.02000046c.62666702-.54999923.98666763-1.34333229.98666763-2.17666626V20.1795063c0-1.19333267.97333146-2.16666603 2.16666413-2.16666603.0300026 0 .05333328.00333405.07666778.00333405h.0233345c.29999924.00333213.87666703.07666587 1.34000016.50999832.4933319.46000099.73999786 1.20666694.72333145 2.21666717v.04333306l.00333405.03000068v.3899994c.00333404.83333396.36333465 1.62666702.99000167 2.17666625l.02666474.0233345.02000046.01333237c.04666519.04333496.07333374.10333443.07333374.16666794 0 .08333206-.04000092.13666535-.06666565.1633339-.0233345.02333259-.08000183.06666564-.1633339.06666564h-6.08000183c-.0699997 0-.1333332-.02999878-.17666626-.07999992-.05666542-.06333351-.05999946-.1333332-.05666542-.17000008z"/>
        <g>
          <path fill="rgb(140,132,243)" fill-rule="evenodd" d="M35.90666667 24.31617284c-.01.72333333-.60666667 1.30333333-1.33333334 1.29-.70666666-.01-1.28-.58333333-1.29-1.29"/>
          <path fill="rgb(140,132,243)" fill-rule="evenodd" d="M34.59666667 26.10617284h-.03c-.98333334-.01666667-1.76666667-.8-1.78333334-1.78333333l1-.01666667c.00666667.44.35666667.79333333.8.8h.01333334c.21333333 0 .41333333-.08.56333333-.23.15666667-.15.24333333-.35333333.24666667-.57l1 .01666667c-.00666667.48333333-.20333334.93666666-.55 1.27333333-.34.33-.78666667.51-1.26.51z"/>
        </g>
      </g>
    </g>
  </g>
</svg>
