<svg xmlns="http://www.w3.org/2000/svg" xmlns:xlink="http://www.w3.org/1999/xlink" width="42" height="42" viewBox="0 0 42 42">
  <defs>
    <rect id="rect-2" width="24" height="24" x="9" y="9"/>
    <mask id="mask-3" maskContentUnits="userSpaceOnUse" maskUnits="userSpaceOnUse">
      <rect width="42" height="42" x="0" y="0" fill="black"/>
      <use fill="white" xlink:href="#rect-2"/>
    </mask>
  </defs>
  <g>
    <path fill="rgb(237,255,235)" fill-rule="evenodd" d="M21 0c11.59021551 0 21 9.40978449 21 21s-9.40978449 21-21 21S0 32.59021551 0 21 9.40978449 0 21 0z"/>
    <g>
      <use fill="none" xlink:href="#rect-2"/>
      <g mask="url(#mask-3)">
        <path fill="rgb(109,190,98)" fill-rule="evenodd" d="M13.46343803 19.96875h4.08046914c1.39329147-.00181007 2.5220375-1.13139343 2.52281189-2.52468872v-4.08093643c-.00180817-1.39248467-1.13032723-2.52079392-2.5228119-2.52234364h-4.08046913c-1.39259338.00129128-2.52126216 1.1297512-2.52281284 2.52234364v4.08093643c.00051594 1.3934021 1.12941265 2.52313614 2.52281284 2.52468872zm-1.49156284-6.60562515c.00103283-.82326317.66829872-1.49031925 1.49156189-1.49109364h4.08047009c.82326126.00077439 1.4905281.66783047 1.49156189 1.49109364v4.08281326c-.00103379.82333756-.66822434 1.4905281-1.4915619 1.49156189h-4.08047008c-.82406998-.00103378-1.49156284-.66936684-1.49156189-1.49343872v-4.08093643z"/>
        <path fill="rgb(109,190,98)" fill-rule="evenodd" d="M24.71249962 20.07374954c.4720974.47472763 1.11455726.7407589 1.78406334.73875046.66949844.0017395 1.3118248-.26464462 1.78359413-.73968697l2.88562584-2.88515663c.98331833-.98595237.98331833-2.5817051 0-3.56765651L28.28015709 10.734375c-.9852047-.9851265-2.58245277-.9851265-3.56765747 0l-2.88515473 2.88656235c-.98383522.98573875-.98383522 2.58191871 0 3.56765747l2.88515473 2.88515472zm.72937584-8.6090622c.27910042-.28064632.65888595-.43796157 1.0546875-.43687534v-.00093746c.39567947-.00117016.77534866.15616703 1.05421829.43687535l2.88609314 2.88515567c.581707.58281136.581707 1.5265646 0 2.109375l-2.88562393 2.88562584c-.58259773.5822239-1.52677918.5822239-2.109375 0l-2.88562584-2.88562584c-.58119202-.58302307-.58119202-1.52635002 0-2.109375l2.88562584-2.88421821z"/>
        <path fill="rgb(109,190,98)" fill-rule="evenodd" d="M13.46343803 31.15921783h4.08046914c1.39321517-.00155067 2.5220375-1.13100051 2.52281189-2.5242176v-4.08093834c-.00180817-1.39256096-1.13025094-2.52100372-2.5228119-2.52281189h-4.08046913c-1.39340019.00155067-2.5222969 1.13128662-2.52281284 2.52468681v4.08093834c.00155068 1.39259148 1.13021946 2.52105332 2.52281284 2.52234268zm-1.49156284-6.60328102c-9.5e-7-.82406997.66749191-1.49240303 1.49156189-1.49343681h4.08047009c.82406997.00103378 1.49156189.66936684 1.49156189 1.49343681v4.08093834c-.00103379.82326317-.66830063 1.4903183-1.4915619 1.49109268h-4.08047008c-.82326317-.00077438-1.49052906-.6678295-1.49156189-1.49109268v-4.08093834z"/>
        <path fill="rgb(109,190,98)" fill-rule="evenodd" d="M24.45843697 31.15921783h4.078125c1.39240837-.00258255 2.51995468-1.13180732 2.52046966-2.5242176v-4.08093834c-.00155067-1.39266777-1.13014412-2.52126122-2.5228138-2.52281189h-4.078125c-1.39237594.00309944-2.51969528 1.13230705-2.52046775 2.52468681v4.08093834c.00180816 1.39248467 1.13032722 2.52079392 2.52281189 2.52234268zm-1.49390603-6.60515594c.00103379-.82333756.66822434-1.4905281 1.4915619-1.49156189h4.08046913c.82315445.00232506 1.48922157.67027855 1.48921966 1.49343681v4.07906342c-.00103378.82326317-.66830063 1.4903183-1.4915638 1.49109459h-4.078125c-.82326316-.0007763-1.4905281-.66783142-1.49156189-1.4910946V24.5540619z"/>
      </g>
    </g>
  </g>
</svg>
