<svg xmlns="http://www.w3.org/2000/svg" xmlns:xlink="http://www.w3.org/1999/xlink" width="56" height="56.346" viewBox="0 0 56 56.346">
  <defs>
    <rect id="rect-2" width="32" height="32" x="12" y="12.173"/>
    <mask id="mask-3" maskContentUnits="userSpaceOnUse" maskUnits="userSpaceOnUse">
      <rect width="56" height="56.346" x="0" y="0" fill="black"/>
      <use fill="white" xlink:href="#rect-2"/>
    </mask>
  </defs>
  <g>
    <path fill="rgb(219,228,255)" fill-rule="evenodd" d="M28 0c15.45362069 0 28 12.54637931 28 28v.34567901c0 15.45362069-12.54637931 28-28 28s-28-12.54637931-28-28V28C0 12.54637931 12.54637931 0 28 0z"/>
    <g>
      <use fill="none" xlink:href="#rect-2"/>
      <g mask="url(#mask-3)">
        <path fill="rgb(71,114,229)" fill-rule="evenodd" d="M37.27081481 26.72839506h-4.11525925c-2.12924906-.00261275-3.85460326-1.72823205-3.8568889-3.85748148v-4.11466667c.00228564-2.12924943 1.72763984-3.85486872 3.8568889-3.85748148h4.11525925c2.12948048.00228626 3.85519523 1.728001 3.85748149 3.85748148v4.11466667c-.00228626 2.12948048-1.728001 3.85519523-3.85748149 3.85748148z"/>
        <path fill="rgb(71,114,229)" fill-rule="evenodd" d="M18.71496391 26.72839546h4.11466599c2.12948036-.0022869 3.855196-1.72800255 3.857481-3.857481v-4.1146679c-.002285-2.12948036-1.72800064-3.85519504-3.857481-3.857481H18.7149639c-2.12948036.00228596-3.855196 1.72800064-3.85748195 3.857481v4.1146679c.00228595 2.12947845 1.7280016 3.8551941 3.85748195 3.857481zm-2.67229652-7.9721489c.00163269-1.47519111 1.1971054-2.67066383 2.67229652-2.67229652h4.11466599c1.47519111.0016327 2.67066383 1.19710541 2.67229652 2.67229653v4.11466598c-.00163269 1.47519112-1.1971054 2.67066384-2.67229652 2.67229653H18.7149639c-1.47519111-.0016327-2.67066383-1.19710541-2.67229652-2.67229653v-4.11466598z"/>
        <path fill="rgb(71,114,229)" fill-rule="evenodd" d="M18.71496391 41.44691467h4.11466599c2.12948036-.00228882 3.855196-1.72800064 3.857481-3.8574829v-4.114666c-.002285-2.12948035-1.72800064-3.85519408-3.857481-3.857481H18.7149639c-2.12948036.00228692-3.855196 1.72800065-3.85748195 3.857481v4.114666c.00228595 2.12948226 1.7280016 3.85519408 3.85748195 3.8574829zm-2.67229652-7.9721489c.00163269-1.4751911 1.1971054-2.67066383 2.67229652-2.67229652h4.11466599c1.47519111.0016327 2.67066383 1.19710541 2.67229652 2.67229653v4.11466598c-.00163269 1.47519303-1.1971054 2.67066193-2.67229652 2.67229462H18.7149639c-1.47519111-.0016327-2.67066383-1.1971016-2.67229652-2.67229462v-4.11466598z"/>
        <path fill="rgb(71,114,229)" fill-rule="evenodd" d="M33.170372 41.44691467h4.114666c2.12947845-.00228882 3.85519409-1.72800064 3.85747909-3.8574829v-4.114666c-.002285-2.12948035-1.72800064-3.85519408-3.8574791-3.857481h-4.11466598c-2.12948227.00228692-3.855196 1.72800065-3.85748291 3.857481v4.114666c.00228691 2.12948226 1.72800064 3.85519408 3.8574829 3.8574829zm-2.67229842-7.9721489c.00163269-1.4751911 1.1971054-2.67066383 2.67229461-2.67229652h4.1146698c1.47518921.0016327 2.67066193 1.19710541 2.67229462 2.67229653v4.11466598c-.00163269 1.47519303-1.1971054 2.67066193-2.67229462 2.67229462h-4.1146698c-1.4751892-.0016327-2.67066192-1.1971016-2.67229461-2.67229462v-4.11466598z"/>
        <path fill="rgb(219,228,255)" fill-rule="evenodd" d="M34.31111145 24.74172974c.28932953.0642147.58481598.09660339.88118362.09659195 1.8717041 0 3.56325913-1.29866791 3.98340989-3.2002964.48533249-2.19792557-.90577698-4.37925912-3.10370636-4.86459351-2.19792557-.4853325-4.3792572.90637207-4.8645916 3.10400009-.4853325 2.19762993.90696525 4.37896347 3.10370445 4.86429787zm-2.30596542-4.15714836c.09212494-1.69294549 1.49170303-3.01848603 3.18714904-3.0185566l-.00118255-.00059319c.232193.00013733.46368408.02556992.69036865.07585145 1.65547562.3659935 2.73597717 1.96236038 2.4605484 3.63528823-.27542877 1.67292595-1.81067657 2.83864022-3.4961052 2.6545887-1.68543243-.1840477-2.93290328-1.65363502-2.84077834-3.3465786z"/>
        <rect width="7.169" height=".889" x="31.589" y="20.377" fill="rgb(219,228,255)" rx="0" ry="0" transform="rotate(-45.000016 35.17393661 20.82168627)"/>
      </g>
    </g>
  </g>
</svg>
