<svg xmlns="http://www.w3.org/2000/svg" xmlns:xlink="http://www.w3.org/1999/xlink" width="256" height="183.244" viewBox="0 0 256 183.244">
  <defs>
    <ellipse id="ellipse-7" cx="126.059" cy="75.017" rx="28" ry="28"/>
    <mask id="mask-8" x="0" y="-20" maskContentUnits="userSpaceOnUse" maskUnits="userSpaceOnUse">
      <rect width="256" height="183.244" x="0" y="-20" fill="black"/>
      <use fill="white" xlink:href="#ellipse-7"/>
    </mask>
    <linearGradient id="linearGradient-11" x1="137.848" x2="152.359" y1="128.177" y2="128.177" gradientUnits="userSpaceOnUse">
      <stop offset="0" stop-color="rgb(0,198,251)"/>
      <stop offset="1" stop-color="rgb(178,251,112)"/>
    </linearGradient>
    <linearGradient id="linearGradient-13" x1="201.331" x2="217.655" y1="90.835" y2="90.835" gradientUnits="userSpaceOnUse">
      <stop offset="0" stop-color="rgb(71,114,229)"/>
      <stop offset=".45" stop-color="rgb(88,136,255)"/>
      <stop offset="1" stop-color="rgb(89,102,255)"/>
    </linearGradient>
    <linearGradient id="linearGradient-15" x1="188.635" x2="206.156" y1="40.601" y2="40.849" gradientUnits="userSpaceOnUse">
      <stop offset="0" stop-color="rgb(255,0,4)"/>
      <stop offset="1" stop-color="rgb(228,54,131)"/>
    </linearGradient>
    <linearGradient id="linearGradient-17" x1="40.955" x2="57.588" y1="52.999" y2="52.999" gradientUnits="userSpaceOnUse">
      <stop offset="0" stop-color="rgb(45,228,191)"/>
      <stop offset="1" stop-color="rgb(0,140,255)"/>
    </linearGradient>
    <linearGradient id="linearGradient-19" x1="109.735" x2="126.059" y1="19.347" y2="19.347" gradientUnits="userSpaceOnUse">
      <stop offset="0" stop-color="rgb(255,240,80)"/>
      <stop offset=".41" stop-color="rgb(255,216,76)"/>
      <stop offset="1" stop-color="rgb(255,174,70)"/>
    </linearGradient>
    <linearGradient id="linearGradient-21" x1="43.531" x2="59.855" y1="107.662" y2="107.662" gradientUnits="userSpaceOnUse">
      <stop offset="0" stop-color="rgb(246,44,132)"/>
      <stop offset=".23" stop-color="rgb(225,48,156)"/>
      <stop offset=".72" stop-color="rgb(171,56,217)"/>
      <stop offset="1" stop-color="rgb(138,62,255)"/>
    </linearGradient>
    <rect id="rect-22" width="5.023" height="10.627" x="206.773" y="85.814"/>
    <mask id="mask-23" maskContentUnits="userSpaceOnUse" maskUnits="userSpaceOnUse">
      <rect width="256" height="183.244" x="0" y="0" fill="black"/>
      <use fill="white" xlink:href="#rect-22"/>
    </mask>
    <linearGradient id="linearGradient-25" x1="196.676" x2="207.074" y1="91.127" y2="91.34" gradientUnits="userSpaceOnUse">
      <stop offset="0" stop-color="rgb(255,255,255)" stop-opacity="0"/>
      <stop offset="1" stop-color="rgb(255,255,255)" stop-opacity=".8"/>
    </linearGradient>
    <rect id="rect-26" width="9.069" height="8.264" x="113.362" y="15.214"/>
    <mask id="mask-27" maskContentUnits="userSpaceOnUse" maskUnits="userSpaceOnUse">
      <rect width="256" height="183.244" x="0" y="0" fill="black"/>
      <use fill="white" xlink:href="#rect-26"/>
    </mask>
    <rect id="rect-29" width="10.883" height="10.627" x="46.252" y="102.348"/>
    <mask id="mask-30" maskContentUnits="userSpaceOnUse" maskUnits="userSpaceOnUse">
      <rect width="256" height="183.244" x="0" y="0" fill="black"/>
      <use fill="white" xlink:href="#rect-29"/>
    </mask>
    <linearGradient id="linearGradient-32" x1="46.252" x2="57.135" y1="107.662" y2="107.662" gradientUnits="userSpaceOnUse">
      <stop offset="0" stop-color="rgb(255,255,255)" stop-opacity="0"/>
      <stop offset="1" stop-color="rgb(255,255,255)"/>
    </linearGradient>
    <linearGradient id="linearGradient-34" x1="48.899" x2="54.488" y1="107.662" y2="107.662" gradientUnits="userSpaceOnUse">
      <stop offset="0" stop-color="rgb(255,255,255)" stop-opacity="0"/>
      <stop offset="1" stop-color="rgb(255,255,255)"/>
    </linearGradient>
    <linearGradient id="linearGradient-36" x1="53.893" x2="55.251" y1="104.851" y2="104.851" gradientUnits="userSpaceOnUse">
      <stop offset="0" stop-color="rgb(255,255,255)" stop-opacity="0"/>
      <stop offset="1" stop-color="rgb(255,255,255)"/>
    </linearGradient>
    <rect id="rect-37" width="7.255" height="4.992" x="191.355" y="38.105"/>
    <mask id="mask-38" maskContentUnits="userSpaceOnUse" maskUnits="userSpaceOnUse">
      <rect width="256" height="183.244" x="0" y="0" fill="black"/>
      <use fill="white" xlink:href="#rect-37"/>
    </mask>
    <rect id="rect-40" width="9.069" height="8.858" x="140.569" y="123.748"/>
    <mask id="mask-41" maskContentUnits="userSpaceOnUse" maskUnits="userSpaceOnUse">
      <rect width="256" height="183.244" x="0" y="0" fill="black"/>
      <use fill="white" xlink:href="#rect-40"/>
    </mask>
    <linearGradient id="linearGradient-43" x1="134.765" x2="145.92" y1="128.354" y2="128.354" gradientUnits="userSpaceOnUse">
      <stop offset="0" stop-color="rgb(255,255,255)" stop-opacity="0"/>
      <stop offset="1" stop-color="rgb(255,255,255)" stop-opacity=".6"/>
    </linearGradient>
    <linearGradient id="linearGradient-45" x1="167.925" x2="145.95" y1="129.435" y2="128.728" gradientUnits="userSpaceOnUse">
      <stop offset="0" stop-color="rgb(255,255,255)" stop-opacity="0"/>
      <stop offset="1" stop-color="rgb(255,255,255)" stop-opacity=".6"/>
    </linearGradient>
    <rect id="rect-46" width="7.255" height="5.757" x="47.612" y="50.12"/>
    <mask id="mask-47" maskContentUnits="userSpaceOnUse" maskUnits="userSpaceOnUse">
      <rect width="256" height="183.244" x="0" y="0" fill="black"/>
      <use fill="white" xlink:href="#rect-46"/>
    </mask>
    <linearGradient id="linearGradient-49" x1="47.612" x2="54.867" y1="52.93" y2="52.93" gradientUnits="userSpaceOnUse">
      <stop offset="0" stop-color="rgb(255,255,255)" stop-opacity="0"/>
      <stop offset="1" stop-color="rgb(255,255,255)"/>
    </linearGradient>
  </defs>
  <g transform="translate(0 20)">
    <g opacity=".05">
      <path fill="rgb(0,146,255)" fill-rule="evenodd" d="M214.5718208 60.87485592c-.90428233-3.74786565-4.71899182-6.10137692-8.52194658-5.25767359l-40.56959001 8.97652677c3.2095187-1.54298388 4.70861445-5.21635227 3.4884975-8.54817735-1.22011696-3.33182508-4.77330821-5.26766232-8.26851702-4.50482453l-.76393704.17303173c.4824859-.22876259.99025758-.40312644 1.51373066-.51980037l20.66956893-4.5870981c3.50182815-.77495347 5.82466677-4.01585173 5.39913061-7.53303862-.42553615-3.51718689-3.46404249-6.191502-7.06260541-6.21609115l11.42570148-2.53037867c2.51441133-.49592017 4.54222916-2.2954339 5.29814091-4.70164387.75591175-2.40620997.12120895-5.04124473-1.65830716-6.88463493-1.77951611-1.84339019-4.42439017-2.60564963-6.91034233-1.99157827L57.7186303 45.74091828c-3.80462964.84271846-6.15817895 4.56579342-5.25679954 8.31572071.90137942 3.74992729 4.7163535 6.10668574 8.52098317 5.26396736l13.77954029-3.05121609c3.80511498-.84257005 7.62036472 1.51469404 8.5215988 5.26509672.9012341 3.75040269-1.45282649 7.47374275-5.25794147 8.3163128L50.4792331 75.9569931c-3.80477501.84319377-6.15804879 4.56677438-5.25618409 8.31685008.9018647 3.75007569 4.71735006 6.10656909 8.52212507 5.26337532l13.01718225-2.88334876c-3.2219863 1.5357302-4.73212961 5.21593947-3.5107227 8.55560803 1.22140692 3.33966856 4.78602218 5.27696096 8.28687956 4.50374237l-28.31045311 6.45436518c-2.4611639.5451432-4.42429818 2.3430133-5.14990916 4.71637-.72561098 2.3733567-.10346108 4.96163065 1.63209185 6.7898441 1.73555292 1.82821344 4.3208371 2.61861725 6.78200097 2.07347396l40.5692329-8.98793011c-3.22074431 1.53679092-4.72943637 5.21667725-3.50762915 8.55554092 1.22180721 3.33886366 4.78578933 5.2755208 8.28606976 4.50262532l96.44623734-21.36173641c3.67691607-.81991167 6.01651675-4.34229082 5.31439587-8.00107358-.70212088-3.65878276-4.1982646-6.1632002-7.94147987-5.68877661 3.28106936-1.48199455 4.8633027-5.1748997 3.66464747-8.55322358-1.19865522-3.37832388-4.79045917-5.34924948-8.3190607-4.56490666l28.30166586-6.4570517c1.82834035-.40347072 3.41007671-1.5068016 4.3967412-3.0669209.9866645-1.56011931 1.2973046-3.44902446.86348403-5.25057606l.00527235.00161192z"/>
    </g>
    <path fill="rgb(79,205,123)" fill-rule="evenodd" d="M226.72433472 133.80541992l3.19355774 3.11990357 3.19496154-3.11990357-3.19496154-3.11854553-3.19355774 3.11854553zm3.19355774 2.07948303l-2.12950135-2.07948303 2.12950135-2.078125 2.13090515 2.078125-2.13090515 2.07948303z"/>
    <path fill="rgb(248,207,69)" fill-rule="evenodd" d="M0 121.95552826c0 1.53604126 1.27516794 2.78125763 2.8481648 2.78125763.75537991 0 1.47982144-.29302979 2.01395535-.81461334.53413439-.52158356.83420754-1.22901154.83420754-1.9666443 0-1.53604888-1.27516604-2.78125762-2.8481629-2.78125762C1.27516795 119.17427063 0 120.41947937 0 121.95552826zm.75904775-.00680542c0-1.12667847.93532955-2.04003906 2.08911705-2.04003906 1.15220093.00373077 2.08529544.91490936 2.0891168 2.04003906 0 1.1266861-.93532943 2.0400467-2.0891168 2.0400467-1.1537875 0-2.08911705-.9133606-2.08911705-2.0400467z"/>
    <path fill="rgb(85,190,253)" fill-rule="evenodd" d="M250.3036499 12.38637829c0 1.53604507 1.27516175 2.78125667 2.8481598 2.78125667 1.5726776-.0007515 2.84739684-1.2455225 2.84815978-2.78125667 0-1.53604603-1.27516174-2.78125668-2.84815979-2.78125668-1.57299804 0-2.84815979 1.24521065-2.84815979 2.78125668zm.76602173-.00228214c-.00256348-1.12579442.92927551-2.04080677 2.08213806-2.04455948.5552826-.00180722 1.08843994.212327 1.48173523.59510517.39329529.38277817.61434937.90270328.61434937 1.4449358 0 1.12579727-.93392945 2.03878212-2.08680725 2.04002952-1.15287781.00124645-2.08885193-.9097166-2.0914154-2.03551101z"/>
    <path fill="rgb(0,198,251)" fill-rule="evenodd" d="M26.3000145 20.11523247h6.1420021l-3.07796478-5.19666481-3.06403732 5.1966648zm4.84257316-.73577309h-3.53757095l1.76878548-2.99206161 1.76878547 2.99206161z"/>
    <g opacity=".8">
      <ellipse cx="126.059" cy="75.017" fill="rgb(0,140,255)" rx="34.3" ry="33.494" transform="rotate(-32.000011 126.05879895 75.01694924)"/>
    </g>
    <use fill-opacity="0" stroke="rgb(255,255,255)" stroke-dasharray="4 4 4 4" stroke-linecap="butt" stroke-linejoin="miter" stroke-width="2" mask="url(#mask-8)" opacity=".8" xlink:href="#ellipse-7"/>
    <g opacity=".4">
      <path fill="rgb(0,53,186)" fill-rule="evenodd" d="M96.83323525 93.27909157c-9.84923343-15.76206134-4.74885926-36.7149469 11.39237862-46.80111623 16.14124435-10.08617338 37.20942539-5.48522321 47.05865881 10.27683812 9.84923545 15.76206457 4.74886574 36.71494285-11.39237861 46.80111623-16.14123789 10.08616934-37.20942337 5.48522645-47.05865882-10.27683812zm52.8618561-40.29641227c-10.38395118-10.93625016-27.28664388-12.92357276-40.37088074-4.74658244-7.2898436 4.52782577-12.50776214 11.71605941-14.49026513 19.96186972-3.6066051 14.81641407 3.81297297 29.86772263 17.72114365 35.94899418 13.90816421 6.08127559 30.43120574 1.49874468 39.4641137-10.94504822 9.03291199-12.44378642 8.05983566-29.28298956-2.32411148-40.21923324z"/>
    </g>
    <path fill="url(#linearGradient-11)" fill-rule="evenodd" d="M142.84838252 121.0921497h4.51035564c2.75957512 0 5 2.24042488 5 5v4.16949073c0 2.75957512-2.24042488 5-5 5h-4.51035564c-2.75957512 0-5-2.24042488-5-5v-4.16949073c0-2.75957512 2.24042488-5 5-5z"/>
    <g opacity=".7">
      <path fill="url(#linearGradient-13)" fill-rule="evenodd" d="M207.33118845 82.8651153h4.3241501c3.31149015 0 6 2.68850986 6 6v3.94067708c0 3.31149014-2.68850985 6-6 6h-4.3241501c-3.31149014 0-6-2.68850986-6-6V88.8651153c0-3.31149015 2.68850986-6 6-6z"/>
    </g>
    <g opacity=".7">
      <path fill="url(#linearGradient-15)" fill-rule="evenodd" d="M193.63462727 34.40170784h2.69656118c2.75957513 0 5 2.24042488 5 5v2.39830439c0 2.75957512-2.24042487 5-5 5h-2.69656118c-2.75957513 0-5-2.24042488-5-5v-2.39830439c0-2.75957512 2.24042487-5 5-5z"/>
    </g>
    <g opacity=".7">
      <path fill="url(#linearGradient-17)" fill-rule="evenodd" d="M49.8914167 46.80001223h2.69656118c2.75957512 0 5 2.24042488 5 5v2.39830438c0 2.75957513-2.24042488 5-5 5h-2.69656119c-2.75957512 0-5-2.24042487-5-5v-2.39830438c0-2.75957512 2.24042488-5 5-5z"/>
    </g>
    <g opacity=".7">
      <path fill="url(#linearGradient-19)" fill-rule="evenodd" d="M115.73456846 11.37628541h4.3241501c3.31149015 0 6 2.68850985 6 6v3.94067707c0 3.31149015-2.68850985 6-6 6h-4.3241501c-3.31149014 0-6-2.68850985-6-6V17.3762854c0-3.31149015 2.68850986-6 6-6z"/>
    </g>
    <g opacity=".7">
      <path fill="url(#linearGradient-21)" fill-rule="evenodd" d="M48.53107085 99.69138555h6.3241501c2.75957512 0 5 2.24042487 5 5v5.94067706c0 2.75957513-2.24042488 5-5 5h-6.3241501c-2.75957512 0-5-2.24042487-5-5v-5.94067706c0-2.75957513 2.24042488-5 5-5z"/>
    </g>
    <g>
      <use fill="none" xlink:href="#rect-22"/>
      <g mask="url(#mask-23)">
        <path fill="url(#linearGradient-25)" fill-rule="evenodd" d="M207.91245646 96.4406312h2.19158479v-5.3585726h1.52869803l.16284066-1.79467169h-1.6915387v-1.02161245c0-.42273619.08668134-.59006926.50555763-.59006926h1.18598107v-1.86219205h-1.51567078c-1.632415 0-2.3674527.70113537-2.3674527 2.04371419v1.43015957h-1.13988464v1.8166892h1.13988464v5.33655509z"/>
      </g>
    </g>
    <g>
      <use fill="none" xlink:href="#rect-26"/>
      <g mask="url(#mask-27)">
        <path fill="rgb(255,255,255)" fill-rule="evenodd" d="M122.34064054 21.5186134v-.00208404s-.00426835 0-.0085367-.00625212c-.1084162-.06668938-.21896658-.07710959-.28768708-.1017013h-.00426836c-.46951897-.14463257-.8771468-.45848942-1.18148045-.84070288-.16953583-.20875459-.30581053-.44131696-.40421315-.68981819v-.00375128c-.03756152-.10586937-.0396957-.224243.0145124-.29551727.08536709-.11795683.24158885-.19339918.40634733-.252586h.00213417c.18524658-.06293809.38415189-.13421236.55019087-.27676089 0 0 0-.00208404.00426835-.00208404.03277758-.02780848.05961193-.06166118.07896455-.09961725.00571362-.01165986.00987358-.02398663.01237823-.03667915.01401298-.04649902.01037561-.09637395-.01024405-.1404645-.0437655-.07725569-.11062415-.13963559-.1916491-.17881087-.10034877-.05592585-.22070178-.06627787-.32951695-.02834298h-.00213418c-.11225772.03251107-.2061615.0729415-.2915286.08336171-.0020325-.00090971-.00437001-.00090971-.00640253 0-.10941947.02396896-.22321448.021105-.33122429-.00833617 0-.01208745 0-.0387632-.00640253-.07127426-.00810987-.19548322.01067089-.39680176.01237823-.60645647.01067089-.31719133.02304911-.64271882-.02475645-.9724144v-.00416809c-.10756253-.56102433-.47037264-1.03910376-.93306224-1.3567119-.33866614-.22750202-.7324977-.36431822-1.1422116-.39680175-.13957518-.01208745-.27488201-.01625554-.41018884-.01625554-.54805669.00416809-1.11702831.14463258-1.56093715.48433156-.3328783.25533348-.59447712.58848391-.76062073.96866312-.15835594.38846559-.14384354.8019397-.12378227 1.18415315.01237822.26884153.04268354.52934689.01878075.77734798-.00090191.00567239-.00233059.01125285-.00426835.01667235-.13019183.0195454-.26292543.01601557-.39183492-.01042022-.10099622-.02191594-.2007312-.04904659-.2987848-.08127767-.00234911.00030682-.00471176-.00046223-.00640253-.00208404-.10223666-.0208782-.2087126.00287005-.2915286.06502214-.00213417 0-.00426835 0-.00426835.00208404s-.00384152 0-.00384152.00416808c-.06701316.04168086-.1566486.1117047-.16091695.23382961-.0008528.00747945-.0008528.01502822 0 .02250767h.00256101c.01300349.06269205.04840388.1188294.09987949.15838725.04268354.03459511.07896455.05710278.10201367.07544235.00213417 0 .00426835 0 .00640253.00416809.19975898.13046108.42085973.18714705.614643.26050536.13317266.05710277.2479914.14421576.27488202.25633727.03329317.14046449-.0290248.30301983-.1084162.45848943-.21802146.41745095-.53878167.77550442-.93348907 1.04202142-.20923833.13873365-.44100952.24189124-.6854977.30510388-.00376333.00082-.00736657.00222745-.01067088.00416808-.04993974.01833958-.1686.02834299-.24372303.13838045-.00384151.00833617-.00810987.01625553-.01237822.02625894-.0193927.06508273-.00452788.13531964.0396957.18756385.02713512.03575987.06176755.06545796.10158682.087113h.00640253c.20402734.11587278.42683543.16672342.63342378.21549003h.00213417c.14768506.03084383.28512607.0487666.39567644.09586597.00426836.00791936.01664658.04459852.04268354.10586938.03756152.10962065.0542081.23799769.09561114.3751277.01335844.03775691.0455647.06621888.08536708.07544236.0506035.0131653.10431979.00874499.15195342-.01250426h.01280506c.34146834-.05877.68592453-.10962065 1.00050223-.0345951.32909012.08544575.6167772.3071879.93903794.496419v.00250085c.21341771.13004428.46226276.2580045.74994984.26842472.21195389.00745786.42417357.00272585.63555795-.01417149h.00426835c.17763712-.01737712.34880047-.07442236.50025112-.16672343.001412-.00196632.0035576-.00331323.0059757-.00375128.34146834-.18923109.64025314-.41680857.97147742-.55768986.10628203-.03667916.2420157-.03459512.38970075-.04459852h.00426835c.274445-.00759328.54907128.00634513.82123136.04168086.00883617.00208684.01805446.00208684.02689063 0 .0377319-.00471006.07237102-.02280962.09731848-.05085065.0145647-.01626579.02456462-.03593942.0290248-.05710277.00853672-.02625894.01451241-.0383464.00213418-.01625554.00446267-.00685595.00791141-.01429301.01024405-.02209085.05036659-.16088811.07725722-.30552068.15835595-.39471772.04805175-.03787615.1091911-.05623485.17073417-.05126745h.01365873c.23774733-.02625894.45031137-.10962066.65220453-.17922769.00278845-.00078736.00574826-.00078736.0085367 0 .07512304-.03251107.18738076-.06919022.26463797-.17297556v-.00208404c.02967072-.04132591.04045173-.09282115.02977146-.14220268-.01068027-.04938153-.04186426-.09222196-.08611373-.11830267l-.00042684-.00041681z"/>
      </g>
    </g>
    <g>
      <use fill="none" xlink:href="#rect-29"/>
      <g mask="url(#mask-30)">
        <path fill="url(#linearGradient-32)" fill-rule="evenodd" d="M49.44942474 102.37998962c.5805397-.02588653.76613617-.0318222 2.24372101-.0318222 1.47813797 0 1.66262818.00593567 2.2415123.0318222.57888413.02589417.97437668.11597443 1.32071304.24704743.3640213.13361358.69374085.34329223.96609497.61436462.27675248.2652588.49089814.58628845.62748719.94070435.13478088.33712005.22647094.72062683.2529869 1.2869873.02651215.56636048.03258896.74706269.03258896 2.19047547s-.0060768 1.62519073-.03258895 2.19101715c-.02651597.56581878-.11820603.95202636-.25298691 1.2896881-.28173065.7144394-.85922623 1.27954865-1.59026718 1.55614472-.34633637.13161469-.74017716.22115326-1.32071305.2470398-.5805397.02589416-.76613617.03182983-2.243721.03182983-1.47758866 0-1.6648407-.00593567-2.24372101-.03182983-.57888413-.02588654-.9743805-.11542511-1.32071686-.2470398-.73188019-.27609253-1.31024933-.84127044-1.5924759-1.55614471-.13422775-.33550263-.22647094-.72063446-.2529869-1.28753662-.02651215-.56690216-.03258896-.74813843-.03258896-2.19100952 0-1.44287873.00607681-1.62464905.03258896-2.19047547.02651596-.56582641.11875915-.95202637.2529869-1.28914642.1366539-.35469818.3507805-.67607117.627491-.9417801.2721405-.27055358.60146332-.47985076.9649849-.61328887.3452301-.131073.73907089-.22115326 1.3196106-.24704743zm4.44269944.9563446c-.57390976-.02535247-.74569703-.03074645-2.19897843-.03074645-1.45273208 0-1.62506866.00539398-2.19898224.03074646-.53027343.02157593-.81860733.11057281-1.0102806.18339538-.2364998.08499909-.45038987.22086335-.62583161.3975296-.1806755.17119599-.31961441.37987519-.40654373.6105957-.0745697.187706-.16350174.46872712-.18780518.98708344-.02596283.55989075-.0314865.72764588-.0314865 2.14678956 0 1.41913604.00552367 1.58689117.0314865 2.14731597.02209473.51836396.11323548.79938508.18780518.98654938.08705902.23081207.22597503.43964386.40654373.6111374.17559814.17647552.38944244.31230926.6258316.3975296.19167328.07497405.48000718.15911865 1.01028061.1828537.57391358.02535247.74570084.03074645 2.19898224.03074645 1.4532814 0 1.62506867-.00539398 2.19897843-.03074646.53027343-.02373504.81861114-.11003113 1.0102806-.1828537.47470093-.17874145.84989167-.54512024 1.03293229-1.00866699.0767784-.1871643.1629486-.46818542.18725204-.98654938.02596283-.5604248.03148651-.72871398.03148651-2.14731597 0-1.41860962-.00552368-1.5868988-.0314865-2.14678956-.02430344-.51835632-.11268235-.79937744-.18725205-.98708343-.08714295-.2307434-.22626877-.43941498-.40709687-.6105957-.17544174-.17666626-.38933181-.31253052-.62583541-.3975296-.19166947-.07282258-.48000718-.15966035-1.01028061-.1833954z"/>
        <path fill="url(#linearGradient-34)" fill-rule="evenodd" d="M49.1113739 106.61812592c.43249512-1.01974488 1.45148087-1.68464661 2.58177185-1.68464661.74108124-.00014496 1.45185852.28723144 1.97592926.79889679.52407456.51165771.81850434 1.20568085.81850434 1.9293518.00022506 1.10373688-.68047715 2.09892273-1.7246666 2.52145386-1.04418945.42253876-2.24621582.18920899-3.04553223-.5911789-.7993164-.78038787-1.03849792-1.95413207-.60600662-2.97387694zm.76779175 1.04360199c0 .97829437.81214523 1.7713623 1.8139801 1.7713623 1.00183106 0 1.81397629-.79306793 1.81397629-1.7713623 0-.978302-.81214523-1.77136994-1.81397629-1.77136994-1.00183487 0-1.8139801.79306793-1.8139801 1.77136994z"/>
        <path fill="url(#linearGradient-36)" fill-rule="evenodd" d="M55.25095224 104.82559644c.0002234.25818611-.15890315.49106075-.40313154.5899651-.24422838.09890434-.52542367.04434535-.71238072-.13821986-.18695705-.1825652-.24282852-.4571549-.1415449-.69564608.1012836-.23849118.33976034-.39387967.60415744-.39366151.36058656 0 .65289972.28544639.65289972.63756235"/>
      </g>
    </g>
    <g>
      <use fill="none" xlink:href="#rect-37"/>
      <g mask="url(#mask-38)">
        <path fill="rgb(255,255,255)" fill-rule="evenodd" d="M197.81733704 38.25413895c.3136444.08342743.55807495.32361602.64154052.63040924.15161133.55600738.1513672 1.7168045.1513672 1.7168045s0 1.16030121-.1513672 1.71631241c-.0836029.30680084-.32810974.54696274-.64178466.63040543-.56585694.14904022-2.83456421.14904022-2.83456421.14904022s-2.26870728 0-2.83456421-.14904022c-.31352234-.0835495-.55781555-.32370377-.64128113-.63040543-.15136719-.5565033-.15136719-1.71680832-.15136719-1.71680832s0-1.1603012.15136719-1.7163086c.0834198-.3068199.3278656-.54702377.64154053-.63040923.56584167-.14904023 2.83454895-.14904023 2.83454895-.14904023s2.26872253 0 2.8345642.14904023zm-1.68014527 2.34672165l-1.89634704-1.0533867v2.10677338l1.89634704-1.05338668z"/>
      </g>
    </g>
    <g>
      <use fill="none" xlink:href="#rect-40"/>
      <g mask="url(#mask-41)">
        <path fill="url(#linearGradient-43)" fill-rule="evenodd" d="M145.18592834 123.74803162c2.4229889 0 4.38954163 1.87228393 4.44981385 4.20510864.00230407.03639221.00230407.07324219.00230407.11457825 0 2.38134765-1.99278259 4.313385-4.45211792 4.313385-.75212097.00038148-1.4921112-.18510436-2.151062-.5391693l-2.4657898.76382446.80244446-2.31394959c-.41807557-.67176819-.6387024-1.44294739-.63772583-2.22903442 0-.06290436.00415039-.12625885.00415039-.18916321.1044464-2.29598236 2.05535888-4.12557983 4.44798278-4.12557983zm-2.05950927 7.34129333c.61123657.39324951 1.3275299.60202026 2.05949402.60028076 2.06318664 0 3.74308776-1.62605285 3.74630737-3.62818908 0-.0956955-.00413513-.18915558-.01242066-.28261567-.15000915-1.86868286-1.76548767-3.34422302-3.73065185-3.34422302-1.94309998 0-3.54293823 1.43914795-3.72697449 3.27503205-.01254272.11687469-.0188446.2342987-.01887512.35180664-.00128174.76571655.24812317 1.51179504.71180725 2.12928772l-.46655273 1.34794616 1.4378662-.44932556z"/>
        <path fill="url(#linearGradient-45)" fill-rule="evenodd" d="M147.22655568 128.93398512c-.11042889-.05301877-.6464691-.3095757-.74631522-.34372338-.09984612-.03414768-.17300526-.05301877-.2461644.05256946-.07315913.10558823-.28343414.34417269-.3460105.41336667-.06257638.069194-.12699323.07952816-.23742211.02650939-.11042889-.05301877-.46012036-.16310011-.87744953-.52524527-.23821144-.21273653-.44260527-.45897115-.60643863-.73058066-.06257637-.10603754-.00644168-.16310012.04601204-.21566957.05245372-.05256946.10812828-.12445932.16472308-.18511638.01472386-.01842178.02668699-.0350463.03957036-.05122153.0255063-.04065951.048403-.08282614.06855793-.12625656.0311528-.05846647.02906334-.12851962-.00552145-.18511638-.02806734-.05301877-.2466245-.57466954-.33864858-.785846-.09202407-.21117645-.18128742-.1747822-.24570427-.1747822s-.1380361-.01033417-.20843452-.01033417c-.11223286.00324281-.21798013.0521055-.29171631.13479348-.10030624.10558823-.38143978.36214515-.38143978.88334661.00207389.12173626.02095571.24264296.05613468.35944928.08547208.26433174.2173418.51214552.38972195.73237792.0542942.06919398.75459739 1.17225397 1.86348745 1.59775206 1.10889007.42549809 1.11073055.28081975 1.3108829.26284729.20015236-.01797247.6441685-.25475968.73619258-.50277969.09202407-.24802.09202407-.45829783.06441685-.50277968-.02760722-.04448185-.10214672-.07054192-.20843452-.1235607z"/>
      </g>
    </g>
    <g>
      <use fill="none" xlink:href="#rect-46"/>
      <g mask="url(#mask-47)">
        <path fill="url(#linearGradient-49)" fill-rule="evenodd" d="M47.61210837 55.22475729c.68050114.42719195 1.47260848.65393621 2.28159541.65311687 2.7636066 0 4.3248378-2.27906334 4.23086077-4.32352266.29143162-.20576786.54294387-.4606446.74272165-.75265706-.2716396.11763979-.55980453.19484896-.85488777.22905345.31070922-.18165423.54317033-.46744318.65404977-.80409233-.29205148.16919332-.61154002.28845532-.94469645.3526461-.46125076-.47963235-1.19477542-.5971941-1.78882631-.28669458-.5940509.31049953-.9006913.9717365-.74779546 1.61254033-1.1972114-.0576198-2.31300356-.60913607-3.06941086-1.51715533-.39351368.66426999-.19120842 1.5127758.46230633 1.93899852-.23649665-.0072366-.46778152-.06966303-.67451251-.18205864-.00827145.6985476.4929129 1.30429266 1.19403872 1.44314776-.21925459.05793995-.44913347.066418-.67223888.02479254.194697.59219666.75350911.9979281 1.39032944 1.00946335-.6238371.47782811-1.41630963.6944813-2.20353385.60242168z"/>
      </g>
    </g>
    <g>
      <g opacity=".9">
        <path fill="rgb(255,255,255)" fill-rule="evenodd" d="M121.33790588 87.1370697c1.94435883-.00209045 3.52005005-1.57778168 3.5221405-3.5221405v-3.75696564c-.00209045-1.94435882-1.57778167-3.52005005-3.5221405-3.5221405h-3.75696563c-1.94435883.00209045-3.52005005 1.57778168-3.5221405 3.5221405v3.75696564c.00209045 1.94435882 1.57778167 3.52005005 3.5221405 3.5221405h3.75696563z"/>
      </g>
      <g opacity=".9">
        <path fill="rgb(255,255,255)" fill-rule="evenodd" d="M134.53665161 87.1370697c1.94436646-.00209045 3.5200653-1.57778168 3.5221405-3.5221405v-3.75696564c-.0020752-1.94435882-1.57777404-3.52005005-3.5221405-3.5221405h-3.756958c-1.94436646.00209045-3.52005006 1.57778168-3.5221405 3.5221405v3.75696564c.00209044 1.94435882 1.57777404 3.52005005 3.5221405 3.5221405h3.756958z"/>
      </g>
      <g opacity=".9">
        <path fill="rgb(255,255,255)" fill-rule="evenodd" d="M121.33790588 73.69807434c1.94435883-.00208282 3.52005005-1.57777405 3.5221405-3.5221405V66.4189682c-.00209045-1.94435882-1.57778167-3.52005005-3.5221405-3.52213669h-3.75696563c-1.94435883.00208664-3.52005005 1.57777787-3.5221405 3.5221367v3.75696563c.00209045 1.94436645 1.57778167 3.52005768 3.5221405 3.5221405h3.75696563z"/>
      </g>
      <g opacity=".9">
        <path fill="rgb(255,255,255)" fill-rule="evenodd" d="M130.76615906 73.69807434h3.75752258c1.9443512-.00208282 3.52005005-1.57777405 3.52212524-3.5221405V66.4189682c-.0020752-1.94435882-1.57777404-3.52005005-3.52212524-3.52213669h-3.75752258c-1.94413758.00238419-3.51950073 1.57799149-3.52159119 3.5221367v3.75696563c.00209046 1.94415283 1.57745361 3.51976013 3.52159119 3.5221405zm1.85969543-1.72576904c-.27061462.00001526-.54040527-.02955628-.80458069-.0881958-2.00578308-.44313813-3.27703857-2.43484497-2.83389282-4.44142151.4431305-2.00658417 2.43484497-3.2773056 4.44169617-2.83416748 2.0068512.44314575 3.27703857 2.4348526 2.83389282 4.4417038-.38362122 1.73631286-1.9281311 2.92208099-3.63711548 2.92208099zm-2.91007995-3.88394928c.08410644-1.54576874 1.36201477-2.75608063 2.91007995-2.75614166l-.00108337-.0005417c.21200561.00012208.42337036.02334596.63035583.06925965.40158081.08878327.76609803.2568512 1.0802002.48446655l-4.07029724 4.07030488c-.37919617-.52340699-.58694458-1.17491913-.54925537-1.86734772zm1.11201477 2.45238495l-.0315094.03151703-.57389832-.57389832.04264832-.04265594c.15919494.21974182.3486023.41690063.5627594.58503723zm0 0l4.09202575-4.09203339c.48661805.62128449.71951294 1.43592835.58195496 2.27148438-.2514801 1.52749633-1.65327454 2.59186554-3.19218445 2.4238205-.56015015-.0611725-1.06730652-.27785493-1.48179626-.6032715zm4.01593017-4.18518067l.08462525.08462525-.00852967.00852203c-.02471923-.03155518-.05007934-.06261444-.07609558-.09314728zm0 0l-.3296051-.32959747c.11883545.10119629.2290039.21149445.3296051.32959747zm-.3296051-.32959747c-.05758667-.04904175-.11721802-.09594727-.17878723-.14056397l.01911926-.01911163.15966797.1596756z"/>
      </g>
    </g>
  </g>
</svg>
