<svg xmlns="http://www.w3.org/2000/svg" xmlns:xlink="http://www.w3.org/1999/xlink" width="56" height="55.309" viewBox="0 0 56 55.309">
  <defs>
    <rect id="rect-2" width="34" height="34" x="11" y="10.654"/>
    <mask id="mask-3" maskContentUnits="userSpaceOnUse" maskUnits="userSpaceOnUse">
      <rect width="56" height="55.309" x="0" y="0" fill="black"/>
      <use fill="white" xlink:href="#rect-2"/>
    </mask>
  </defs>
  <g>
    <path fill="rgb(255,238,227)" fill-rule="evenodd" d="M27.02959331.7425h2.1823357C43.99666787.7425 56 12.74583213 56 27.53057099c0 14.78473885-12.00333213 26.78807099-26.78807099 26.78807099h-2.1823357c-14.78473886 0-26.78807099-12.00333214-26.78807099-26.788071C.24152232 12.74583214 12.24485445.7425 27.02959331.7425z"/>
    <g>
      <use fill="none" xlink:href="#rect-2"/>
      <g mask="url(#mask-3)">
        <path fill="rgb(255,133,56)" fill-rule="evenodd" d="M18.43435287 25.99996948h2.92305375c2.83144569 0 5.13557434-2.30413055 5.13620376-5.13620376v-2.92242623c0-2.83207416-2.3028698-5.13620376-5.13620376-5.13620376h-2.92305375c-2.83207511 0-5.13620471 2.3028698-5.13620471 5.13620376v2.92242623c0 2.8320732 2.3041296 5.13620376 5.13620471 5.13620376zm-3.8769455-8.05862999c.00225545-2.14024257 1.73670197-3.8746891 3.8769455-3.87694454h2.92305375c2.13999748.00260258 3.87406158 1.73694801 3.87631607 3.87694454v2.92242623c-.00225449 2.13999557-1.7363186 3.87434005-3.87631607 3.87694358h-2.92305375c-2.14024353-.00225639-3.87469005-1.73670196-3.8769455-3.87694358v-2.92242623z"/>
        <path fill="rgb(255,133,56)" fill-rule="evenodd" d="M34.64259338 25.99996948h2.92305756c2.83207321 0 5.13619995-2.30413055 5.13557434-5.13620376v-2.92242623c0-2.83207416-2.3028717-5.13620376-5.13620758-5.13620376h-2.92242432c-2.8320732 0-5.13620376 2.3028698-5.13620376 5.13620376v2.92242623c0 2.8320732 2.3028698 5.13620376 5.13620376 5.13620376zm-3.87631607-8.05862999c.00225449-2.13999653 1.73631668-3.87434196 3.87631607-3.87694454h2.92305375c2.14024353.00225544 3.874691 1.73670197 3.8769455 3.87694454v2.92242623c-.0022545 2.14048767-1.73708726 3.87503433-3.87757493 3.87694358h-2.92242432c-2.13999939-.00260353-3.87406158-1.736948-3.87631607-3.87694358v-2.92242623z"/>
        <path fill="rgb(255,133,56)" fill-rule="evenodd" d="M18.43435287 42.5035057h2.92305375c2.83144569 0 5.13557434-2.30413055 5.13620376-5.13620376v-2.92242432c0-2.83207702-2.3028698-5.13620567-5.13620376-5.13620567h-2.92305375c-2.83207511 0-5.13620471 2.3028698-5.13620471 5.13620567v2.92242432c0 2.83207321 2.30287075 5.13620377 5.13620471 5.13620377zm-3.8769455-8.05862808c.00225545-2.14024353 1.73670197-3.8746891 3.8769455-3.8769455h2.92305375c2.13999748.00260354 3.87406158 1.73694611 3.87631607 3.8769455v2.92242432c-.00225449 2.1399994-1.7363186 3.87434387-3.87631607 3.8769455h-2.92305375c-2.14024353-.0022583-3.87469005-1.73670197-3.8769455-3.8769455v-2.92242432z"/>
        <path fill="rgb(255,133,56)" fill-rule="evenodd" d="M34.64259338 42.5035057h2.92305756c2.83207321 0 5.13619995-2.30413055 5.13557434-5.13620376v-2.92242432c0-2.83207702-2.3028717-5.13620567-5.13620758-5.13620567h-2.92242432c-2.8320732 0-5.13620376 2.3028698-5.13620376 5.13620567v2.92242432c0 2.83207321 2.3028698 5.13620377 5.13620376 5.13620377zm-3.87631607-8.05862808c.00225449-2.13999939 1.73631668-3.87434196 3.87631607-3.8769455h2.92305375c2.14024353.0022564 3.874691 1.73670197 3.8769455 3.8769455v2.92242432c-.0022545 2.14048767-1.73708726 3.87503815-3.87757493 3.8769455h-2.92242432c-2.13999939-.00260163-3.87406158-1.7369461-3.87631607-3.8769455v-2.92242432z"/>
      </g>
    </g>
  </g>
</svg>
