<svg xmlns="http://www.w3.org/2000/svg" width="32" height="32" viewBox="0 0 32 32">
  <g>
    <g opacity=".2">
      <ellipse cx="16" cy="16" fill="rgb(140,132,243)" rx="16" ry="16"/>
    </g>
    <path fill="rgb(140,132,243)" fill-rule="evenodd" d="M16.70306442 23.63340347c-3.74335512-.00366046-6.99266101-2.56855246-7.84786272-6.19483696C8 13.81228201 9.76348607 10.07689962 13.11444877 8.41671104c.12387088-.06115548.27313005-.03700614.37114737.06004969.09801732.09705582.12301602.24545497.06216169.36900884-.50174652 1.01210662-.76136745 2.12599679-.75855485 3.25454037.00251872 4.07540722 3.32016954 7.37958121 7.41588567 7.38576115 1.14569548.00296198 2.2761867-.26092647 3.3010336-.7705541.12375212-.0614713.27313032-.03745772.37113302.0596622s.12274473.24565815.06147205.36904608c-1.34487248 2.75530059-4.15733439 4.50021917-7.2356629 4.4891782z"/>
    <path fill="rgb(140,132,243)" fill-rule="evenodd" d="M20.56188202 10.71613789h-1.34070969c-.12780761-.00009442-.24298858-.0771265-.29188537-.19521046-.0488968-.11808395-.02189255-.25399304.06843376-.34441376l1.18867874-1.1886797h-.83742142c-.1347103 0-.24391556-.10920524-.24391556-.2439165 0-.13471222.10920525-.24391747.24391556-.24391747h1.25300026c.12688065.00142384.24061966.07856274.28887177.19591904.04825401.1173563.0216732.25219059-.0675087.342453l-1.18909645 1.18867874h.92680168c.13471222 0 .24391747.10920525.24391747.24391747 0 .13471126-.10920525.24391746-.24391747.24391746l.00083542.00125218zm3.06406593 2.47831058h-1.59512329c-.15201568-.0000534-.28905105-.09162426-.34726715-.2320528-.05821419-.1404295-.02615929-.30209637.08123398-.409688l1.4148693-1.41487026h-.99753951c-.15991974 0-.28956223-.12964153-.28956223-.28956223 0-.15991973.12964249-.28956127.28956223-.28956127h1.48943329c.15169906.00034428.28833961.09179974.34648895.23191357.05814934.14011288.0264225.301445-.08045578.4091034l-1.41486931 1.41487026h1.10322952c.15991974 0 .28956223.12964057.28956223.28956222 0 .15991974-.12964249.28956127-.28956223.28956127v.00072384zm-3.49177742 2.88230896h-2.09379196c-.1996727.000206-.37975883-.12002945-.4561119-.30452728-.07635308-.18449593-.03389931-.3968296.10752296-.53778458l1.85567856-1.85567665h-1.3072033c-.21023369 0-.3806591-.17042732-.3806591-.38066006 0-.21023273.17042541-.38066005.3806591-.38066005h1.95383835c.19957733-.00002003.37951279.12019348.45588875.30457687.07637787.18438435.0341549.39662266-.10697746.53773499l-1.8560009 1.8560009h1.4471569c.13858605-.00404454.26841164.06758022.3388977.1869707.07048798.1193905.07048798.267663 0 .3870535-.07048606.11939048-.20031165.19101524-.3388977.18697166z"/>
  </g>
</svg>
