<svg xmlns="http://www.w3.org/2000/svg" width="56" height="56" viewBox="0 0 56 56">
  <g>
    <ellipse cx="28" cy="28" fill="rgb(255,133,56)" rx="28" ry="28"/>
    <g>
      <path fill="rgb(255,255,255)" fill-rule="evenodd" d="M39.13772153 36.9734732l3.36776734 3.49916792.00060272-.00252354c.11927795.11684975.18899536.27877196.19365692.44970227.00466156.1709303-.05612946.33674963-.16884613.4605631l-1.73320007 1.81353508c-.24114228.24823387-.62788392.24823387-.86902619 0l-3.36776733-3.52449921-1.34710694 2.0637814c-.13144683.21328754-.37129211.32457911-.61054992.2833399-.23926544-.04127116-.43232727-.22721496-.49146271-.4733725l-2.15560913-8.60666512c-.05488587-.22005959.00575256-.45411049.1593399-.6150105.15359497-.1609.37713623-.22456364.5874405-.16728873l8.22545623 2.28799366c.23516846.06190674.41281891.26398207.45224.51445199.03941344.25043797-.06691743.50148287-.27069093.63906404l-1.97224426 1.37776024zm-2.26514435 1.23711248l3.46520234 3.62710212.87023162-.89694488-3.46520233-3.62777294c-.12976837-.13457847-.19451904-.32330137-.17619324-.51355756.01832581-.19022425.11777497-.36163371.27059937-.46637684l1.46330261-1.03887038-5.89011383-1.62097895 1.54862976 6.16534209.97734833-1.5316646c.10112762-.1594306.26529694-.26289598.44721985-.28190243h.06051636c.16056823.00057498.314476.06724132.42845916.18562437z"/>
      <path fill="rgb(255,255,255)" fill-rule="evenodd" d="M31.39277316 38.57988687c-1.27720642.55505233-2.63554383.87787454-4.01651001.95460311v-5.76502465c.90538025.02213693 1.80888367.09698082 2.70631409.2242442.33488464.04280445.6407547-.2032253.6874771-.55297599.04671479-.34971874-.18295287-.67413813-.51621246-.7291131-.95449066-.1304258-1.91516113-.20530164-2.87757873-.2242442V27.3602337h6.12249756c-.03074646 1.0052018-.12474823 2.00714537-.2814026 2.99937806-.04663085.34930348.1813965.67378676.5138321.73118944.33244324.05743463.6479721-.17316636.71102905-.5195949.16239167-1.0625406.25640107-2.13527122.2814026-3.2109726h4.28580474c-.06365967 1.44365992-.36183166 2.86540652-.88172913 4.20419554-.12693786.32569714.02085877.6976167.3310318.83299376.07343293.03309359.1524353.0505348.23238373.05130145.2508545.0002875.4765091-.15962226.56946564-.4035118 1.67700958-4.35222227 1.18141937-9.29185575-1.3227768-13.18444129-2.50421142-3.89261748-6.6905899-6.23079457-11.17397308-6.2408568h-.44055939c-4.803833.21220146-8.58614349 3.40288985-9.87333679 5.01562735-.01779938.01734538-.03440094.0355213-.04980469.05446387-.01878356.0035138-.03401947.01833564-.03855133.03804485-4.095726 5.21862905-4.08049774 12.74451377.0363083 17.94493496l.04296874.05066258c3.73407746 4.73953865 9.98277283 6.37920462 15.41123963 4.0439344.31333923-.13275768.46452331-.50627442.33768463-.83423955-.12683869-.32799708-.48366547-.48624577-.7970047-.35345615zm-5.24076843-24.62022499v5.70988997c-1.61032868-.04191002-3.21231842-.25650726-4.78083802-.64040567 1.1068573-2.8264353 2.8273468-4.74263719 4.78083802-5.0694843zm1.22425842 5.70992192c1.59832-.04507245 3.18816376-.25963774 4.74513244-.64043762-1.10806274-2.80110402-2.81040954-4.72359879-4.74513244-5.06060397v5.70104159zm-7.2093811-1.00405184c.53972625-1.47387858 1.34046936-2.82784082 2.36016082-3.99071633-1.2577591.48228476-3.44567108 2.11744668-4.60568237 3.20158117.73558044.30119638 1.48498535.56457152 2.24552154.78913516zm13.1914749.03989758c.77407838-.23334813 1.53618623-.50822298 2.28330232-.82347455l-.03025818.00316241c-1.29125977-1.41826474-2.87432099-2.50987404-4.62893677-3.1919342 1.03205109 1.16428104 1.83887482 2.52680417 2.37589264 4.01224634zm-18.84012603 7.37335394h4.2864151c.02481842-2.09457505.33350373-4.1748713.91683197-6.17863064-.90931701-.27701506-1.8026123-.60862177-2.67545318-.9932549-1.51978302 2.06592163-2.40159607 4.56780977-2.52779389 7.17188554zm24.49119568 0h-4.28580475c-.03629303-2.0938084-.3557663-4.17167694-.94890594-6.17166693.92029571-.2768234 1.8239975-.61082588 2.70631408-1.0002186 1.5247345 2.06311058 2.40732575 4.56662784 2.52839661 7.17188553zm-12.85742187 0h-6.12310029c.03831482-1.98414596.34767151-3.952384.91864777-5.84481982 1.70542145.43270827 3.45015717.6733076 5.20445252.71770923v5.12711059zm6.39179992-5.81948853c-1.6943283.42111273-3.42650604.65318312-5.1675415.692346v5.12714253h6.08618927c-.04081726-1.97564896-.3501358-3.93513444-.91864777-5.81948853zM20.9415021 33.18163885c1.70812988-.42609594 3.45490265-.65966768 5.21050263-.69678617v-5.13094381h-6.12310029c.04111481 1.97778917.34833527 3.93967043.91259766 5.82772998zm-6.39240646-5.8213732h4.25555038c.03804016 2.09642777.35955048 4.1766282.95495606 6.17866258-.90732575.27698312-1.7986145.60862177-2.66940308.99322295-1.52928162-2.06148146-2.41636276-4.5651265-2.54110336-7.17188553zm11.60290909 12.1165661c-1.95349122-.3268471-3.67398072-2.24301704-4.78083802-5.06312751 1.56832123-.38597475 3.17030335-.6027122 4.78083802-.64676246v5.70988997zm-8.2357483-3.91976955c.73563385-.3088948 1.4858017-.578467 2.24759675-.80763053.5383911 1.4672982 1.3359909 2.81535087 2.35108184 3.9736265-1.7433548-.67471312-3.31630706-1.75763375-4.59867859-3.16599597z"/>
    </g>
  </g>
</svg>
