<svg xmlns="http://www.w3.org/2000/svg" width="18.431" height="13.973" viewBox="0 0 18.431 13.973">
  <g>
    <path fill="rgb(255,68,68)" fill-rule="evenodd" d="M7.64062847 13.51795612l-.01250744-.00265854c-.64433472-.13695762-1.30406454-.47736267-1.96008834-1.0107904-.78773419-.6410444-1.57956623-1.57024354-2.35353164-2.76183794-.95358648-1.46876114-1.5286159-2.7925372-1.70897365-3.93533076-.1405128-.89096925-.0440116-1.66678973.28681894-2.3081893.1609765-.30847713.43557694-.54225979.76575329-.65191172l.89491204-.30797188c.386923-.1340309.81070317.06075144.9609019.4417356l.86371183 2.16911493c.14713199.37284447-.01707764.79619681-.37717281.972371l-.8308285.40308599c-.01822006.00873175-.02729441.02951607-.0213148.0487579l.0006954.00226937.03529398.11757331c.11280157.37715347.2529014.8463444.925916 1.88307258.67299668 1.03684916 1.04479949 1.3553646 1.34326765 1.61124364l.09367563.08106212c.01516809.01333267.03784591.01353549.05323782.00045867l.00186876-.00159954.70467044-.59388555c.3071125-.25757217.76066203-.23579607 1.0416881.05007084l1.63079262 1.67098621c.28704966.29238876.2925095.75904373.01234726 1.05803643l-.64574382.69164744c-.23462071.2571315-.56002637.41284936-.9090772.43387673-.26697507.01476161-.53472583-.00583454-.79631346-.06118713z"/>
    <path fill="rgb(255,68,68)" fill-rule="evenodd" d="M12.50786633 7.4543505c.00921882.11350341.05719139.22455329.14396782.31136225.19417114.1941635.509442.19416147.70361407-.00004685l4.8305044-4.83050917c.19415206-.19408766.19416376-.50941799 5e-8-.70357976-.19417114-.1941635-.509442-.19416148-.70361407.00004684l-4.34785767 4.34785365-2.8463968-4.5551484 2.32765043.5373834c.25846758.05967227.51674233-.10169618.57641289-.36015633.05967055-.25846016-.10172536-.51671775-.36019294-.57639002L9.18999168.7843481c-.17622688-.0406854-.35237205.02137872-.46554.14696735-.06844167.0673857-.11929806.15461673-.14255667.25536029l-.82072414 3.5549273c-.06521748.28248635.11118885.56475553.39367521.629973.2824938.0652192.56478584-.11115054.63000332-.3936369l.5869298-2.5422583 3.13608713 5.01866964z"/>
  </g>
</svg>
