<svg xmlns="http://www.w3.org/2000/svg" width="16.37" height="11.993" viewBox="0 0 16.37 11.993">
  <g>
    <path fill="rgb(0,140,255)" fill-rule="evenodd" d="M7.64062847 11.5376024l-.01250744-.00265854c-.64433472-.13695763-1.30407723-.47730297-1.96007565-1.0108501-.78775957-.640925-1.57957892-1.57018384-2.35353164-2.76183794-.95359917-1.46870145-1.5286159-2.7925372-1.70898634-3.93527106-.1405128-.89096925-.0440116-1.66678973.28660321-2.30717437l.00021573-.00101492c.1609765-.30847714.43556425-.5422001.7657406-.65185203l.89492473-.30803158c.386923-.1340309.81070317.06075143.9609146.4416759L5.3776127 3.1698221c.14713199.37284447-.01706495.79613711-.37714743.9722516l-.8308412.40314569c-.01822005.00873174-.0272944.02951606-.02132748.0488176l.0006954.00226937.03531936.1174539c.11278888.37721318.2529014.8463444.9259033 1.88313228.67300938 1.03678947 1.0447868 1.3554243 1.34326766 1.61124365l.09368832.08100242c.0151554.01339237.03783322.01359518.05322513.00051837l.00186876-.00159954.70467044-.59388555c.3071125-.25757217.76066203-.23579607 1.0417008.05001114l1.63077992 1.6710459c.28706235.29232907.2925095.75904374.01234726 1.05803643l-.6457565.69170715c-.23460803.2570718-.5600137.41278966-.90737796.43417552l-.00168657-.0003585c-.26697506.01476162-.53472582-.00583453-.79631345-.06118712z"/>
    <path fill="rgb(0,140,255)" fill-rule="evenodd" d="M16.16405494 4.38842004c-.00000532-.27457897-.22293983-.4975136-.4975188-.49751908l-6.0900726.00000369 1.84493465-1.8449336c.20504548-.20504538.205024-.53790433.00001639-.74291205-.20500221-.20500233-.53786116-.205024-.74290665.00002137L8.09871547 3.88287138c-.073024.07302395-.12001809.16223769-.14101466.25612872-.04663807.16233481-.00597754.34481382.12202477.4728162L10.722722 7.2548142c.18757163.18757174.4921133.187588.67967964.00002177.1876095-.1876094.1875934-.49215106.00002177-.6797228l-1.6891535-1.68915444 5.95325516-.00000912c.27458436.00001087.49754057-.22294522.49752986-.49752958z"/>
  </g>
</svg>
