<svg xmlns="http://www.w3.org/2000/svg" width="16.37" height="11.993" viewBox="0 0 16.37 11.993">
  <g>
    <path fill="rgb(52,232,199)" fill-rule="evenodd" d="M7.64062847 11.5375997l-.01250744-.00265854c-.64433472-.13695762-1.30407723-.47730297-1.96007565-1.0108501-.78775957-.640925-1.57957892-1.57018384-2.35353164-2.76183794-.95359917-1.46870144-1.5286159-2.7925372-1.70898634-3.93527106-.1405128-.89096925-.0440116-1.66678973.28660321-2.30717437l.00021573-.00101492c.1609765-.30847714.43556425-.5422001.7657406-.65185203l.89492473-.30803158c.386923-.1340309.81070317.06075144.9609146.4416759L5.3776127 3.1698194c.14713199.37284447-.01706495.79613711-.37714743.9722516l-.8308412.40314569c-.01822005.00873175-.0272944.02951607-.02132748.0488176l.0006954.00226938.03531936.1174539c.11278888.37721317.2529014.8463444.9259033 1.88313228.67300938 1.03678946 1.0447868 1.3554243 1.34326766 1.61124364l.09368832.08100242c.0151554.01339237.03783322.01359519.05322513.00051837l.00186876-.00159954.70467044-.59388555c.3071125-.25757217.76066203-.23579607 1.0417008.05001114l1.63077992 1.67104591c.28706235.29232906.2925095.75904373.01234726 1.05803643l-.6457565.69170714c-.23460803.2570718-.5600137.41278966-.90737796.43417552l-.00168657-.00035849c-.26697506.01476161-.53472582-.00583454-.79631345-.06118713z"/>
    <path fill="rgb(52,232,199)" fill-rule="evenodd" d="M7.93057123 4.38842004c.00000532-.27457897.22293983-.4975136.4975188-.49751908l6.0900726.00000369-1.84493464-1.8449336c-.2050455-.20504538-.205024-.53790433-.0000164-.74291205.20500222-.20500233.53786117-.205024.74290665.00002137l2.57979247 2.57979101c.07302398.07302395.12001808.16223769.14101466.25612872.04663806.16233481.00597753.34481382-.12202477.4728162L13.37190416 7.2548142c-.18757163.18757174-.4921133.187588-.67967963.00002177-.1876095-.1876094-.1875934-.49215106-.00002177-.6797228l1.6891535-1.68915444-5.95325516-.00000912c-.27458436.00001087-.49754058-.22294522-.49752987-.49752958z"/>
  </g>
</svg>
