<svg xmlns="http://www.w3.org/2000/svg" xmlns:xlink="http://www.w3.org/1999/xlink" width="40" height="40" viewBox="0 0 40 40">
  <defs>
    <path id="path-2" fill-rule="evenodd" d="M26.26879883 26.0265503h-4.16535187c-.29364777 0-.56507873.1564331-.71224976.41052245l-1.70018768 2.93536377h-1.07421875l-1.70018387-2.93536377c-.14717102-.25408935-.41860199-.41052246-.71225357-.41052246h-4.93869781C10.01436234 26.0265503 9 25.012146 9 23.76086426V12.8932495c0-1.25128174 1.01436234-2.265625 2.26565552-2.26568603h15.00296783l.01680756.00006103h2.44890976C29.98563385 10.62762451 31 11.64196777 31 12.89324951v10.86761475c0 1.25134277-1.01436615 2.26568603-2.26565933 2.26568603h-2.46554184z"/>
    <mask id="mask-3" x="0" y="0" maskContentUnits="userSpaceOnUse" maskUnits="userSpaceOnUse">
      <rect width="40" height="40" x="0" y="0" fill="black"/>
      <use fill="white" xlink:href="#path-2"/>
    </mask>
  </defs>
  <g>
    <g opacity=".2">
      <ellipse cx="20" cy="20" fill="rgb(140,132,243)" rx="20" ry="20"/>
    </g>
    <g>
      <use fill-opacity="0" stroke="rgb(140,132,243)" stroke-linecap="butt" stroke-linejoin="miter" stroke-width="2" mask="url(#mask-3)" xlink:href="#path-2"/>
      <path fill="rgb(140,132,243)" fill-rule="evenodd" d="M15.298875 20.43768799h-.00189062c-.38139063.00214844-.930875.00416797-1.27282032.00382422v-4.25622657c0-.18334765-.1486289-.33197656-.33197656-.33197656-.18334766 0-.33197656.1486289-.33197656.33197656v4.58437891c0 .16173438.11653125.29992188.27594531.32720703.09453125.01624219 1.55379297.00541406 1.6645664.00476953.18334766-.00103125.33116016-.15051953.33012891-.33386718-.00107422-.18266016-.14948828-.33008594-.33197656-.33008594z"/>
      <path fill="rgb(140,132,243)" fill-rule="evenodd" d="M17.32944922 15.85330908c-.18334766 0-.33197656.1486289-.33197656.33197656v4.5882461c0 .18334765.1486289.33197656.33197656.33197656.18334765 0 .33197656-.1486289.33197656-.33197656v-4.5882461c0-.18334765-.1486289-.33197656-.33197656-.33197656z"/>
      <path fill="rgb(140,132,243)" fill-rule="evenodd" d="M26.30785547 20.4206294h-1.58365625v-1.6091797h1.44241797c.18339062 0 .33197656-.1486289.33197656-.33197656 0-.18334765-.1486289-.33197656-.33197656-.33197656h-1.44241797v-1.60922265h1.58365625c.18339062 0 .33197656-.14862891.33197656-.33197657 0-.18334765-.1486289-.33197656-.33197656-.33197656h-1.91563281c-.18339063 0-.33197657.1486289-.33197657.33197656v4.54635157c0 .18334765.14862891.33197656.33197657.33197656h1.9156328c.18339063 0 .33197657-.1486289.33197657-.33197656 0-.18339063-.1486289-.33201954-.33197656-.33201954z"/>
      <path fill="rgb(140,132,243)" fill-rule="evenodd" d="M22.59840625 15.87866064c-.1738086-.05783593-.36192578.03635157-.41971875.21041797l-1.28588281 3.87058203-1.34788672-3.8832578c-.06011328-.17325-.24934766-.26485938-.42251172-.20478907-.17320703.06011328-.26485937.24930469-.20478906.42251172l1.56951953 4.5215586c.06166016.17367968.22635937.28982421.41039453.28982421h.00292188c.18528125-.0012461.34980859-.11992578.41013671-.2975586l1.49810547-4.50961327c.05792188-.1739375-.0363086-.36183985-.21028906-.41967579z"/>
    </g>
  </g>
</svg>
