<?xml version="1.0" encoding="utf-8"?>
<!-- Generator: Adobe Illustrator 23.1.0, SVG Export Plug-In . SVG Version: 6.00 Build 0)  -->
<svg version="1.1" id="Layer_1" xmlns="http://www.w3.org/2000/svg" xmlns:xlink="http://www.w3.org/1999/xlink" x="0px" y="0px"
	 viewBox="0 0 48 52.9" style="enable-background:new 0 0 48 52.9;" xml:space="preserve">
<style type="text/css">
	.st0{opacity:0.3;}
	.st1{fill-rule:evenodd;clip-rule:evenodd;}
	.st2{fill-rule:evenodd;clip-rule:evenodd;fill:#34E8C7;}
	.st3{fill:#FFFFFF;}
	.st4{fill:none;stroke:#FFFFFF;stroke-width:2;}
	.st5{fill:url(#ellipse-5_1_);}
	.st6{clip-path:url(#SVGID_2_);}
	.st7{fill:#282833;}
	.st8{fill:#7342A8;}
	.st9{fill:#00A99D;}
	.st10{fill:#F0BEB4;}
	.st11{fill:#361260;}
	.st12{fill:#DD998E;}
	.st13{fill:#C69691;}
	.st14{fill:#02C9B5;}
</style>
<g class="st0">
	<path class="st1" d="M42,35.9c-3.3-1.5-8.6-2.4-14.5-2.4S16.4,34.3,13,35.9c-3.3,1.5-2,4.8,0,6.5c0.5,0.5,7.3,5.7,7.3,5.7
		c0.3,0.1,0.7,0.2,1.2,0.2s0.9-0.1,1.2-0.2l18.8-5.7c1.2-0.4,2-0.9,2.6-1.3C46,39.3,45.3,37.4,42,35.9z"/>
</g>
<g>
	<g>
		<path id="path-2" class="st2" d="M36,12.3c-3.3-4.8-8.6-7.6-14.5-7.6S10.4,7.5,7,12.3c-3.3,4.8-4,10.8-2,16.2
			c0.5,1.5,1.5,3.5,5.5,9s9.8,10.2,9.8,10.2c0.3,0.3,0.7,0.5,1.2,0.5c0.4,0,0.9-0.2,1.2-0.5c0,0,5.8-5.2,9.8-10.2s5-7.5,5.5-9
			C40,23.1,39.3,17.1,36,12.3z"/>
	</g>
	<g>
		<g>
			<path class="st3" d="M21.5,49.2c-0.7,0-1.4-0.3-1.9-0.8c-0.7-0.6-6.1-5.1-10-10.4c-4.1-5.7-5.1-7.8-5.6-9.2
				c-2.1-5.7-1.3-12.1,2.2-17.1c3.5-5.1,9.1-8,15.3-8s11.8,2.9,15.3,8l0,0c3.5,5.1,4.3,11.5,2.2,17.1c-0.5,1.4-1.5,4.1-5.7,9.3
				c-3.9,4.8-9.3,9.8-9.9,10.3C22.9,48.9,22.2,49.2,21.5,49.2z M21.5,5.7C16,5.7,11,8.3,7.9,12.8c-3.1,4.6-3.9,10.3-2,15.3
				c0.5,1.5,1.6,3.5,5.4,8.8c3.9,5.3,9.6,10,9.7,10l0.1,0.1c0.2,0.2,0.6,0.2,0.8,0H22c0.1-0.1,5.8-5.2,9.7-10.1s4.8-7.4,5.3-8.7
				c1.9-5.1,1.2-10.8-1.9-15.3l0,0C32,8.3,27,5.7,21.5,5.7z"/>
		</g>
	</g>
</g>
<path class="st4" d="M36,12.3c-3.3-4.8-8.6-7.6-14.5-7.6S10.4,7.5,7,12.3c-3.3,4.8-4,10.8-2,16.2c0.5,1.5,1.5,3.5,5.5,9
	s9.8,10.2,9.8,10.2c0.3,0.3,0.7,0.5,1.2,0.5c0.4,0,0.9-0.2,1.2-0.5c0,0,5.8-5.2,9.8-10.2s5-7.5,5.5-9C40,23.1,39.3,17.1,36,12.3
	L36,12.3z"/>
<ellipse class="st3" cx="21.5" cy="21.5" rx="10.7" ry="10.7"/>
<radialGradient id="ellipse-5_1_" cx="18.3394" cy="476.8938" r="12.234" gradientTransform="matrix(1 0 0 1 3.0219 -455.1791)" gradientUnits="userSpaceOnUse">
	<stop  offset="0.72" style="stop-color:#121212;stop-opacity:0"/>
	<stop  offset="0.89" style="stop-color:#121212;stop-opacity:0.15"/>
	<stop  offset="1" style="stop-color:#121212;stop-opacity:0.3"/>
</radialGradient>
<ellipse id="ellipse-5" class="st5" cx="21.4" cy="21.5" rx="10.7" ry="10.7"/>
<g>
	<defs>
		<circle id="SVGID_1_" cx="21.5" cy="22" r="9.8"/>
	</defs>
	<clipPath id="SVGID_2_">
		<use xlink:href="#SVGID_1_"  style="overflow:visible;"/>
	</clipPath>
	<g class="st6">
		<path class="st7" d="M18.6,21.7c0,0,0-0.1,0-0.1c0,0,0-0.1,0-0.1c-0.1,0-0.4-1.9-0.2-1.7c0-0.1,0-0.2,0-0.2c0-0.1,0-0.2,0-0.3
			c0,0,0-0.1,0-0.1c0,0,0,0,0,0c0-0.1,0-0.1,0-0.2c0-0.1,0-0.2,0.1-0.2c0,0,0,0,0,0c0,0,0-0.1,0-0.1c0,0,0,0,0,0c0,0,0-0.1,0-0.1
			c0-0.1,0.1-0.1,0.1-0.2c0-0.1,0.1-0.1,0.1-0.2c0-0.1,0.1-0.1,0.1-0.2c0.1-0.1,0.2-0.2,0.3-0.3c0.1,0,0.1-0.1,0.2-0.1
			c0.1,0,0.1-0.1,0.2-0.1c0.1-0.1,0.2-0.2,0.4-0.2c0.1-0.1,0.2-0.1,0.4-0.2c0.1-0.1,0.2-0.2,0.3-0.2c0.1-0.1,0.2-0.2,0.3-0.3
			c0.1-0.1,0.2-0.2,0.2-0.3c0-0.1,0.7-0.1,0.9,0c0,0,0.1,0.1,0.1,0.1c0,0,0,0,0,0c0,0,0.1,0.1,0.1,0.1c0.1,0.1,0.2,0.1,0.3,0.2
			c0.3,0.2,0.7,0.4,1,0.7c0,0,0,0,0,0c0,0,0,0,0.1,0.1c0,0,0.1,0.1,0.1,0.1c0.1,0.1,0.2,0.2,0.3,0.3c0,0.1,0.1,0.1,0.1,0.2
			c0,0.1,0.1,0.1,0.1,0.2c0,0.1,0.1,0.1,0.1,0.2l0.1,0.2c0,0.1,0,0.1,0.1,0.2c0,0.1,0,0.1,0,0.2l0,0.2c0,0.1,0,0.1,0,0.2
			c0,0.2,0,0.4,0,0.6c0.2-0.3-0.1,1.7-0.2,1.7c0,0.1-0.1,0.2-0.1,0.4c0,0,0,0,0,0l0,0l0,0l0,0l0,0c0,0,0,0.1,0,0.1
			c0,0.1,0,0.1-0.1,0.2c-0.1,0.2-0.9,0.6-1.1,0.8c0,0.1,0.1,0.9,0.1,1l0.2,0.5l0.5-0.2l0.2-0.6c0,0,0-0.1,0.1-0.1
			c0.1,0,0.1,0,0.4,0.7c0.6,0.1,1.2,0.2,1.3,0.2c1-4.1,0.1-7.1-1-8.6c-0.7-0.9-1.5-1.4-2.4-1.4c-0.4,0-0.7,0.1-1.1,0.3
			c0,0,0,0-0.1,0c-1.2-0.5-2.4-0.1-3.3,1.2c-1.4,2-1.8,5.6-1,8.6l0.5-0.1l0.2-1.6c0,0,0-0.1,0.1-0.1c0,0,0.1,0,0.1,0.1l0.4,1.6
			l1.3,0.3l0.5-1.6C20,22.9,18.6,21.9,18.6,21.7z"/>
		<path class="st8" d="M29.4,31.4c0-0.2-0.1-0.5-0.1-0.7c0-0.1-0.1-0.2-0.1-0.4c0-0.1-0.1-0.2-0.1-0.4c-0.1-0.2-0.2-0.5-0.3-0.7
			c-0.1-0.2-0.3-0.4-0.4-0.6c-0.1-0.2-0.3-0.4-0.5-0.6c-0.2-0.2-0.4-0.3-0.5-0.5c-0.2-0.2-0.4-0.3-0.6-0.5c-0.5-0.4-1.1-0.7-1.7-1
			c0,0.1,0,0.2-0.1,0.4c-0.1,0.3-0.2,0.7-0.4,1.1c-0.2,0.4-0.6,0.9-1.1,1.3c-0.3,0.2-0.5,0.3-0.9,0.4c-0.1,0-0.2,0-0.2,0.1
			c-0.1,0-0.2,0-0.2,0l-0.3,0l-0.2,0c-0.3,0-0.7-0.1-1-0.2c-0.3-0.1-0.6-0.3-0.8-0.5c-0.3-0.2-0.5-0.4-0.6-0.6
			c-0.2-0.2-0.3-0.4-0.4-0.7c-0.1-0.1-0.1-0.2-0.2-0.3c0-0.1-0.1-0.2-0.1-0.3c0-0.1-0.1-0.2-0.1-0.3c0-0.1,0-0.2-0.1-0.2
			c0-0.1,0-0.2-0.1-0.3c0,0,0-0.1,0-0.1c-0.6,0.3-1.2,0.6-1.8,1c-0.2,0.1-0.4,0.3-0.6,0.5c-0.2,0.2-0.4,0.3-0.5,0.5
			c-0.2,0.2-0.3,0.4-0.5,0.6c-0.2,0.2-0.3,0.4-0.4,0.6c-0.1,0.2-0.2,0.4-0.3,0.7c0,0.1-0.1,0.2-0.1,0.4c0,0.1-0.1,0.2-0.1,0.4
			c-0.1,0.2-0.1,0.5-0.1,0.7c0,0.1,0,0.2,0,0.4l0,0.3l7.9,0l7.9,0l0-0.3C29.4,31.7,29.4,31.5,29.4,31.4z"/>
		<path class="st9" d="M18.3,26.5c0,0.1,0,0.1,0.1,0.2c0,0.1,0.1,0.2,0.1,0.3c0,0.1,0.1,0.2,0.1,0.3c0,0.1,0.1,0.2,0.2,0.3
			c0.1,0.2,0.3,0.4,0.4,0.6c0.2,0.2,0.4,0.4,0.6,0.6c0.2,0.2,0.5,0.3,0.8,0.4c0.3,0.1,0.6,0.2,0.9,0.2l0.2,0l0.2,0
			c0.1,0,0.2,0,0.2,0c0.1,0,0.1,0,0.2-0.1c0.3-0.1,0.6-0.2,0.8-0.4c0.5-0.3,0.8-0.8,1-1.2c0.2-0.4,0.4-0.8,0.4-1.1
			c0-0.1,0.1-0.2,0.1-0.3c0-0.1,0-0.1,0-0.1c-0.1,0-0.2-0.1-0.3-0.1c0,0.1,0,0.2-0.1,0.3c-0.1,0.2-0.2,0.6-0.4,1
			c-0.2,0.4-0.5,0.8-1,1.2c-0.2,0.2-0.5,0.3-0.8,0.4c-0.1,0-0.1,0-0.2,0.1c-0.1,0-0.1,0-0.2,0l-0.2,0l-0.2,0c-0.3,0-0.6-0.1-0.9-0.2
			c-0.3-0.1-0.5-0.3-0.8-0.4c-0.2-0.2-0.4-0.4-0.6-0.6c-0.2-0.2-0.3-0.4-0.4-0.6c-0.1-0.1-0.1-0.2-0.1-0.3c0-0.1-0.1-0.2-0.1-0.3
			c0-0.1-0.1-0.2-0.1-0.2c0-0.1,0-0.1-0.1-0.2c0-0.1,0-0.2-0.1-0.3c0,0,0,0,0,0c-0.1,0-0.2,0.1-0.3,0.1c0,0,0,0,0,0.1
			C18.3,26.2,18.3,26.3,18.3,26.5z"/>
		<path class="st10" d="M18.7,26.2c0,0.1,0,0.1,0.1,0.2c0,0.1,0.1,0.1,0.1,0.2c0,0.1,0.1,0.2,0.1,0.3c0,0.1,0.1,0.2,0.1,0.3
			c0.1,0.2,0.2,0.4,0.4,0.6c0.2,0.2,0.3,0.4,0.6,0.5c0.2,0.2,0.4,0.3,0.7,0.4c0.3,0.1,0.5,0.1,0.8,0.1l0.2,0l0.2,0
			c0.1,0,0.1,0,0.2,0c0.1,0,0.1,0,0.2-0.1c0.3-0.1,0.5-0.2,0.7-0.4c0.4-0.3,0.7-0.7,0.9-1.1c0.2-0.4,0.3-0.7,0.4-1
			c0-0.1,0.1-0.2,0.1-0.3c0,0,0,0,0,0c-0.2-0.1-0.3-0.1-0.5-0.2l-0.3-0.2l0,0l0,0l0,0l0,0c0,0,0,0,0,0c0,0,0,0,0,0c0,0,0,0,0,0
			c0,0,0,0,0,0c0,0,0,0,0-0.1c0-0.1,0-0.1,0-0.2c0-0.3,0-0.5-0.1-0.8c0-0.1,0-0.2,0-0.3c0,0,0,0,0,0l0-0.9c-0.2,0.2-0.5,0.4-0.8,0.6
			c-0.2,0.1-0.3,0.2-0.5,0.2c-0.1,0-0.2,0-0.3,0.1c-0.1,0-0.2,0-0.3,0c-0.4,0-0.7-0.1-1-0.2c-0.3-0.1-0.6-0.3-0.8-0.5
			c0,0,0,0-0.1-0.1l0,1.1c0,0,0,0,0,0c0,0,0,0.1,0,0.1c0,0.3,0,0.5-0.1,0.8c0,0.1,0,0.1,0,0.2c0,0,0,0.1-0.1,0.1c0,0,0,0,0,0l0,0
			l0,0L19,25.7c-0.1,0.1-0.3,0.1-0.4,0.2c0,0,0,0,0,0C18.6,26,18.7,26.1,18.7,26.2z"/>
		<g>
			<path class="st11" d="M18.6,25.8c0.2,0.7,0.5,1.5,1,2c0.3,0.3,0.6,0.5,0.9,0.7c0.3,0.2,0.7,0.3,1.1,0.3c0.4,0,0.7-0.1,1.1-0.2
				c0.3-0.1,0.6-0.4,0.9-0.7c0.3-0.3,0.5-0.6,0.6-0.9c0.2-0.3,0.3-0.7,0.4-1.1l0,0c0,0,0-0.1,0.1,0c0,0,0,0,0,0.1
				c-0.1,0.8-0.4,1.5-0.9,2.1c-0.3,0.3-0.6,0.6-1,0.7c-0.4,0.2-0.8,0.2-1.2,0.2c-0.4,0-0.8-0.1-1.2-0.3c-0.4-0.2-0.7-0.4-0.9-0.7
				c-0.5-0.6-0.8-1.4-1-2.1C18.5,25.8,18.5,25.8,18.6,25.8C18.6,25.8,18.6,25.8,18.6,25.8z"/>
		</g>
		<g>
			<path class="st11" d="M18.2,26c0.1,0.4,0.2,0.8,0.4,1.2c0.2,0.4,0.4,0.7,0.7,1c0.3,0.3,0.6,0.6,1,0.8c0.4,0.2,0.8,0.3,1.2,0.3
				c0.4,0,0.8-0.1,1.2-0.2c0.4-0.2,0.7-0.4,1-0.7c0.3-0.3,0.5-0.7,0.7-1.1c0.2-0.4,0.3-0.8,0.4-1.2l0,0c0,0,0-0.1,0.1,0
				c0,0,0.1,0,0,0.1c-0.1,0.9-0.5,1.7-1,2.4c-0.3,0.3-0.7,0.6-1.1,0.8c-0.4,0.2-0.9,0.3-1.3,0.3c-0.5,0-0.9-0.1-1.3-0.3
				c-0.4-0.2-0.8-0.5-1-0.8c-0.3-0.3-0.5-0.7-0.7-1.1c-0.2-0.4-0.3-0.8-0.4-1.3C18.1,26,18.1,26,18.2,26C18.2,26,18.2,26,18.2,26z"
				/>
		</g>
		<path class="st12" d="M19.7,23.2c0,0,0.5,0.7,1.9,0.7c1.4,0,1.8-0.8,1.8-0.8l0.1,1.2c0,0-1.2,0.7-3.8,0.1L19.7,23.2z"/>
		<path class="st10" d="M18.2,20.7C18.2,20.7,18.2,20.8,18.2,20.7C18.3,20.8,18.3,20.8,18.2,20.7c0.1,0.5,0.2,1,0.5,1.5
			c0.1,0.2,0.2,0.3,0.3,0.5c0.2,0.2,0.4,0.5,0.7,0.7c0.3,0.2,0.5,0.4,0.8,0.5c0.3,0.1,0.6,0.2,1,0.2c0.1,0,0.2,0,0.3,0
			c0.1,0,0.2,0,0.2-0.1c0.2,0,0.3-0.1,0.5-0.2c0.3-0.2,0.6-0.4,0.8-0.6c0.5-0.4,0.9-1,1.1-1.4c0-0.1,0.1-0.1,0.1-0.2
			c0,0,0-0.1,0-0.1l0,0c0,0,0,0,0,0l0,0l0,0c0-0.1,0.1-0.2,0.1-0.3c0-0.1,0.1-0.2,0.1-0.3c0-0.1,0-0.2,0-0.3c0-0.2,0.1-0.3,0.1-0.4
			c0,0,0-0.1,0-0.1l0-0.4c0-0.2,0-0.3,0-0.5c0-0.2,0-0.3,0-0.4c0-0.1,0-0.1,0-0.2c0,0,0,0,0,0l0-0.2c0-0.1,0-0.1,0-0.2
			c0-0.1,0-0.1-0.1-0.2l-0.1-0.2c0-0.1-0.1-0.1-0.1-0.2c0-0.1-0.1-0.1-0.1-0.2c0-0.1-0.1-0.1-0.1-0.2c-0.1-0.1-0.2-0.2-0.3-0.3
			c-0.1-0.1-2-1.8-3.9-0.6c-0.4,0.3-1.1,0.7-1.4,1.2c-0.1,0.1-0.1,0.1-0.1,0.2c0,0.1-0.1,0.1-0.1,0.2c0,0.1-0.1,0.1-0.1,0.2
			c0,0.1-0.1,0.1-0.1,0.2c0,0.1-0.1,0.1-0.1,0.2c0,0.1,0,0.1-0.1,0.2c0,0.1-0.1,0.3-0.1,0.4c0,0.3,0,0.6,0,1
			C18.2,20,18.2,20.3,18.2,20.7z"/>
		<path class="st10" d="M17.9,19.9c0.1,0,0.2,0.1,0.3,0.2c0,0,0,0,0,0l0,0c-0.1-0.3-0.3-0.5-0.5-0.5c-0.2,0-0.4,0.2-0.4,0.6
			c0,0.7,0.3,1,0.6,1.1c0.2,0.1,0.3,0.1,0.5,0c0,0,0,0,0,0c0,0,0-0.1,0-0.1c0-0.1,0-0.3-0.1-0.3c0-0.1-0.1-0.3-0.1-0.4c0,0,0,0,0,0
			c0,0,0-0.1,0-0.1c-0.1,0.1-0.2,0.2-0.2,0.3c0,0,0,0,0,0c0,0,0,0,0,0c0,0,0,0,0,0c0-0.2,0.1-0.3,0.2-0.4C18,20,17.9,20,17.9,19.9
			c-0.1,0-0.3,0.1-0.3,0.1c0,0,0,0-0.1,0c0,0,0,0,0-0.1C17.6,19.9,17.7,19.8,17.9,19.9z M18,21c0.1,0,0.1,0.1,0.1,0.1
			c0,0.1-0.1,0.1-0.1,0.1c-0.1,0-0.1-0.1-0.1-0.1C17.9,21,18,21,18,21z"/>
		<g>
			<path class="st13" d="M21.9,21.3h-0.5c-0.2,0-0.3-0.1-0.3-0.3v-2.3c0,0,0-0.1,0.1-0.1s0.1,0,0.1,0.1V21c0,0.1,0,0.2,0.2,0.2h0.5
				C22,21.2,22,21.2,21.9,21.3C22,21.3,22,21.3,21.9,21.3z"/>
		</g>
		<g>
			<path class="st7" d="M23.2,19.5c0,0.2-0.1,0.3-0.3,0.3c-0.2,0-0.3-0.1-0.3-0.3s0.1-0.3,0.3-0.3C23,19.2,23.2,19.4,23.2,19.5z"/>
		</g>
		<g>
			<path class="st7" d="M19.6,19.5c0,0.2,0.1,0.3,0.3,0.3c0.2,0,0.3-0.1,0.3-0.3s-0.1-0.3-0.3-0.3C19.8,19.2,19.6,19.4,19.6,19.5z"
				/>
		</g>
		<g>
			<path class="st7" d="M22.5,18.2c0.2,0,0.5,0,0.7,0c0.2,0,0.5,0,0.7,0.1c0,0,0.1,0,0.1,0.1c0,0,0,0.1-0.1,0.1c-0.2,0-0.5,0-0.7,0
				c-0.2,0-0.5,0-0.7-0.1C22.4,18.4,22.4,18.3,22.5,18.2C22.4,18.2,22.4,18.2,22.5,18.2z"/>
		</g>
		<g>
			<path class="st7" d="M20.5,18.4c-0.2,0-0.5,0.1-0.7,0.1c-0.2,0-0.5,0-0.7,0c0,0-0.1,0-0.1-0.1c0,0,0-0.1,0.1-0.1
				c0.2,0,0.5-0.1,0.7-0.1c0.2,0,0.5,0,0.7,0C20.5,18.2,20.5,18.3,20.5,18.4C20.5,18.3,20.5,18.4,20.5,18.4z"/>
		</g>
		<path class="st13" d="M22.2,21.8C22.2,21.7,22.2,21.7,22.2,21.8c-0.3,0.3-1.2,0.3-1.5,0l0-0.1c0,0,0,0,0-0.1c0,0,0,0,0,0l0,0.1
			c0,0,0,0,0,0c0,0,0,0,0,0l0,0.1c0,0,0,0,0,0.1c0,0,0,0,0,0c0,0,0,0,0,0l0-0.1c0.2,0.2,0.5,0.3,0.8,0.3c0.3,0,0.6-0.1,0.7-0.3
			C22.2,21.9,22.2,21.8,22.2,21.8z"/>
		<g>
			<path class="st10" d="M25.3,19.6c-0.2,0-0.4,0.1-0.5,0.4c0.1-0.1,0.1-0.1,0.2-0.1c0.1,0,0.3,0,0.4,0.1c0,0,0,0,0,0.1
				c0,0,0,0-0.1,0c-0.1-0.1-0.2-0.1-0.3-0.1c-0.1,0-0.2,0.1-0.2,0.2c0,0,0.1,0.1,0.1,0.1c0.1,0.1,0.1,0.2,0.1,0.3c0,0,0,0,0,0
				c0,0,0,0,0,0c0,0,0,0,0,0c0-0.1,0-0.2-0.1-0.2c0,0-0.1-0.1-0.1-0.1c0,0.1,0,0.1-0.1,0.2l0,0.1c0,0,0,0,0,0c0,0,0,0.2-0.1,0.5
				c0,0.1,0,0.2,0,0.2c0,0,0,0,0,0.1c0.1,0.1,0.3,0.1,0.4,0c0.3-0.1,0.6-0.5,0.6-1.1C25.7,19.8,25.5,19.6,25.3,19.6z M24.9,21.2
				c-0.1,0-0.1-0.1-0.1-0.1c0-0.1,0.1-0.1,0.1-0.1C25,21,25,21,25,21.1C25,21.2,25,21.2,24.9,21.2z"/>
			<g>
				<path class="st12" d="M25.4,19.9c-0.1-0.1-0.2-0.1-0.4-0.1c-0.1,0-0.2,0.1-0.3,0.3c0,0,0,0-0.1,0c0,0,0,0,0,0c0,0,0,0,0,0
					c0,0,0,0,0,0c0,0.1-0.1,0.2-0.1,0.3c0,0,0,0,0,0c0,0,0,0,0,0c0,0,0,0,0,0c0-0.1,0.1-0.2,0.1-0.3c0,0,0.1,0,0.1,0.1
					c0.1,0.1,0.1,0.1,0.1,0.2c0,0,0,0,0,0c0,0,0,0,0,0c0,0,0,0,0,0c0-0.1,0-0.2-0.1-0.3c0,0-0.1-0.1-0.1-0.1
					c0.1-0.1,0.2-0.2,0.3-0.2C25.2,19.9,25.3,19.9,25.4,19.9C25.4,20,25.4,20,25.4,19.9C25.4,20,25.4,20,25.4,19.9z"/>
				<path class="st8" d="M24.9,21c-0.1,0-0.1,0.1-0.1,0.1c0,0.1,0.1,0.1,0.1,0.1c0.1,0,0.1-0.1,0.1-0.1C25,21,25,21,24.9,21z"/>
			</g>
		</g>
		<g>
			<path class="st12" d="M18.3,20.5c0-0.1-0.1-0.2-0.1-0.3c0,0,0,0,0,0c0,0,0,0,0,0c0,0,0,0,0,0c0,0,0,0,0,0c0,0,0,0-0.1,0
				c-0.1-0.2-0.2-0.2-0.3-0.3c-0.1,0-0.3,0-0.4,0.1c0,0,0,0,0,0.1c0,0,0,0,0.1,0c0.1-0.1,0.2-0.1,0.3-0.1c0.1,0,0.2,0.1,0.3,0.2
				c-0.1,0.1-0.2,0.2-0.2,0.4c0,0,0,0,0,0c0,0,0,0,0,0c0,0,0,0,0,0c0-0.1,0.1-0.2,0.2-0.3C18.2,20.3,18.2,20.4,18.3,20.5
				C18.2,20.5,18.2,20.5,18.3,20.5C18.3,20.5,18.3,20.5,18.3,20.5C18.3,20.5,18.3,20.5,18.3,20.5z"/>
			<g>
				<circle class="st8" cx="18" cy="21.1" r="0.1"/>
			</g>
		</g>
		<path class="st7" d="M21.9,15.3c0,0-1.4,0.8-0.9,1.9c0,0-0.5-0.2-0.6-0.8c-0.1-0.6,0.3-0.9,0.3-0.9s-1,0.5-0.5,1.5
			c0,0-0.8-0.3-0.5-1.2L21.9,15.3z"/>
		<path class="st7" d="M19.3,16.6c0,0-0.3,0.5,0.1,0.8c0,0-0.2,0-0.3-0.1C18.9,17,19,16.8,19,16.8s-0.2,0.3,0.1,0.6
			c0,0-0.3,0-0.4-0.3L19.3,16.6z"/>
		<path class="st7" d="M18.7,17.3c0,0-0.3,0.5,0.1,0.8c0,0-0.2,0-0.3-0.1c-0.1-0.2-0.1-0.3-0.1-0.3s-0.2,0.3,0.1,0.6
			c0,0-0.3,0-0.4-0.3L18.7,17.3z"/>
		<path class="st7" d="M22.1,15.5c0,0-0.5,0.7,0.1,0.8c0.6,0.1,1.1,0,1.4,0.6c0.3,0.6,0.8,0.8,1.5,0.7c0.7,0-0.1-0.9-0.1-0.9
			L22.1,15.5z"/>
		<g>
			<path class="st9" d="M24.9,16c0,0,1,0.1,1,0.4c0,0.3-0.7,1.2-0.9,0.8C24.8,16.9,24.1,16.4,24.9,16z"/>
			<path class="st9" d="M25,16c0,0-0.4-0.9-0.7-0.8c-0.3,0.1-1,1-0.5,1.1C24.2,16.4,24.8,17,25,16z"/>
			<path class="st14" d="M25.2,15.9L25.2,15.9c0.1,0.1,0.1,0.2,0.1,0.3l-0.5,0.6c-0.1,0.1-0.1,0.1-0.2,0l-0.1-0.1
				c-0.1-0.1-0.1-0.2,0-0.2l0.6-0.6C25,15.8,25.1,15.8,25.2,15.9z"/>
		</g>
	</g>
</g>
<g>
	<g>
		<path class="st3" d="M21.4,32.7c-6.2,0-11.2-5-11.2-11.2s5-11.2,11.2-11.2s11.2,5,11.2,11.2S27.6,32.7,21.4,32.7z M21.4,11.2
			c-5.6,0-10.2,4.6-10.2,10.2s4.6,10.2,10.2,10.2S31.6,27,31.6,21.4C31.7,15.8,27.1,11.2,21.4,11.2z"/>
	</g>
</g>
</svg>
