<?xml version="1.0" encoding="utf-8"?>
<!-- Generator: Adobe Illustrator 23.1.0, SVG Export Plug-In . SVG Version: 6.00 Build 0)  -->
<svg version="1.1" id="Layer_1" xmlns="http://www.w3.org/2000/svg" xmlns:xlink="http://www.w3.org/1999/xlink" x="0px" y="0px"
	 viewBox="0 0 48 52.9" style="enable-background:new 0 0 48 52.9;" xml:space="preserve">
<style type="text/css">
	.st0{opacity:0.3;}
	.st1{fill-rule:evenodd;clip-rule:evenodd;}
	.st2{fill-rule:evenodd;clip-rule:evenodd;fill:#FDBA45;}
	.st3{fill:#FFFFFF;}
	.st4{fill:none;stroke:#FFFFFF;stroke-width:2;}
	.st5{fill:url(#ellipse-5_1_);}
	.st6{clip-path:url(#SVGID_2_);}
	.st7{fill-rule:evenodd;clip-rule:evenodd;fill:#F0BEB4;}
	.st8{fill-rule:evenodd;clip-rule:evenodd;fill:#E0ADA6;}
	.st9{fill-rule:evenodd;clip-rule:evenodd;fill:#008CFF;}
	.st10{fill-rule:evenodd;clip-rule:evenodd;fill:#39222F;}
	.st11{fill-rule:evenodd;clip-rule:evenodd;fill:#37212E;}
</style>
<g>
	<g class="st0">
		<path class="st1" d="M42,35.9c-3.3-1.5-8.6-2.4-14.5-2.4S16.4,34.3,13,35.9c-3.3,1.5-2,4.8,0,6.5c0.5,0.5,7.3,5.7,7.3,5.7
			c0.3,0.1,0.7,0.2,1.2,0.2s0.9-0.1,1.2-0.2l18.8-5.7c1.2-0.4,2-0.9,2.6-1.3C46,39.3,45.3,37.4,42,35.9z"/>
	</g>
	<g>
		<g>
			<path id="path-2" class="st2" d="M36,12.3c-3.3-4.8-8.6-7.6-14.5-7.6S10.4,7.5,7,12.3c-3.3,4.8-4,10.8-2,16.2
				c0.5,1.5,1.5,3.5,5.5,9s9.8,10.2,9.8,10.2c0.3,0.3,0.7,0.5,1.2,0.5c0.4,0,0.9-0.2,1.2-0.5c0,0,5.8-5.2,9.8-10.2s5-7.5,5.5-9
				C40,23.1,39.3,17.1,36,12.3z"/>
		</g>
		<g>
			<g>
				<path class="st3" d="M21.5,49.2c-0.7,0-1.4-0.3-1.9-0.8c-0.7-0.6-6.1-5.1-10-10.4c-4.1-5.7-5.1-7.8-5.6-9.2
					c-2.1-5.7-1.3-12.1,2.2-17.1c3.5-5.1,9.1-8,15.3-8s11.8,2.9,15.3,8l0,0c3.5,5.1,4.3,11.5,2.2,17.1c-0.5,1.4-1.5,4.1-5.7,9.3
					c-3.9,4.8-9.3,9.8-9.9,10.3C22.9,48.9,22.2,49.2,21.5,49.2z M21.5,5.7C16,5.7,11,8.3,7.9,12.8c-3.1,4.6-3.9,10.3-2,15.3
					c0.5,1.5,1.6,3.5,5.4,8.8c3.9,5.3,9.6,10,9.7,10l0.1,0.1c0.2,0.2,0.6,0.2,0.8,0H22c0.1-0.1,5.8-5.2,9.7-10.1s4.8-7.4,5.3-8.7
					c1.9-5.1,1.2-10.8-1.9-15.3l0,0C32,8.3,27,5.7,21.5,5.7z"/>
			</g>
		</g>
	</g>
	<path class="st4" d="M36,12.3c-3.3-4.8-8.6-7.6-14.5-7.6S10.4,7.5,7,12.3c-3.3,4.8-4,10.8-2,16.2c0.5,1.5,1.5,3.5,5.5,9
		s9.8,10.2,9.8,10.2c0.3,0.3,0.7,0.5,1.2,0.5c0.4,0,0.9-0.2,1.2-0.5c0,0,5.8-5.2,9.8-10.2s5-7.5,5.5-9C40,23.1,39.3,17.1,36,12.3
		L36,12.3z"/>
	<ellipse class="st3" cx="21.5" cy="21.5" rx="10.7" ry="10.7"/>
	
		<radialGradient id="ellipse-5_1_" cx="18.3394" cy="476.7938" r="12.234" gradientTransform="matrix(1 0 0 1 3.0219 -455.1791)" gradientUnits="userSpaceOnUse">
		<stop  offset="0.72" style="stop-color:#121212;stop-opacity:0"/>
		<stop  offset="0.89" style="stop-color:#121212;stop-opacity:0.15"/>
		<stop  offset="1" style="stop-color:#121212;stop-opacity:0.3"/>
	</radialGradient>
	<ellipse id="ellipse-5" class="st5" cx="21.4" cy="21.4" rx="10.7" ry="10.7"/>
	<g>
		<defs>
			<ellipse id="SVGID_1_" cx="21.5" cy="21.5" rx="10.7" ry="10.7"/>
		</defs>
		<clipPath id="SVGID_2_">
			<use xlink:href="#SVGID_1_"  style="overflow:visible;"/>
		</clipPath>
		<g class="st6">
			<path class="st7" d="M27.8,29.6c-0.3,0-0.6,0.2-0.7,0.6c-0.3,1.6-0.6,4.8-0.5,6.4h3.2c-0.5-2.3-1-5.3-1.3-6.4
				C28.4,29.8,28.1,29.6,27.8,29.6z"/>
			<path class="st7" d="M15.2,29.6c0.3,0,0.6,0.2,0.7,0.6c0.3,1.6,0.6,4.8,0.5,6.4h-3.2c0.5-2.3,1-5.3,1.3-6.4
				C14.6,29.8,14.9,29.6,15.2,29.6z"/>
			<path class="st7" d="M23.3,25.4c-0.1-1.1-0.2-3.1-0.2-3.1h-2.9l-0.2,3c0,0.5-0.3,0.9-0.7,1.1l-3.7,1.8l1.1,7.9H27l0.9-7.8
				L24,26.5C23.6,26.3,23.3,25.9,23.3,25.4z"/>
			<path class="st8" d="M21.1,25.7c0.9,0.2,1.6-0.3,2.1-1l-0.1-2.3c0,0,0-0.1-0.1-0.1h-2.9c0,0-0.1,0-0.1,0.1l0,2.4
				C20.4,25.2,20.6,25.6,21.1,25.7z"/>
			<path class="st9" d="M21.6,29c2,0,2.6-2.6,2.6-2.6l3.7,1.9l0,0c0.1,0.1,0.2,0.3,0.3,0.5c0.1,0.2,0.2,0.5,0.3,0.8
				c0.1,0.5,0.4,1.5,0.7,2.8h-1.6l-0.4,4.3H16l-0.4-4.3h-1.7c0.3-1.3,0.6-2.3,0.7-2.8c0.1-0.3,0.2-0.6,0.3-0.8
				c0.1-0.3,0.3-0.5,0.4-0.5l0,0l3.7-2C18.9,26.3,19.5,29,21.6,29z"/>
			<path class="st7" d="M25,19.4c0.2,0.1,0.3,0.3,0.3,0.6c0.1,0.6-0.1,1.3-0.5,1.8c-0.1,0.1-0.1,0.2-0.2,0.2
				c-0.7,0.3-0.4-1.6-0.3-1.9C24.3,19.7,24.6,19.2,25,19.4z"/>
			<path class="st7" d="M25,20.1c0-0.1,0-0.1-0.1-0.1s-0.1-0.1-0.1-0.1c-0.1,0-0.1,0.1-0.2,0.2c-0.1,0.2-0.1,0.4-0.1,0.7h0.1
				c0,0,0,0.1,0.1,0.1c0.1,0.2-0.1,0.5-0.3,0.5"/>
			<path class="st7" d="M18.1,19.4c-0.2,0.1-0.3,0.3-0.3,0.6c-0.1,0.6,0.1,1.3,0.5,1.8c0.1,0.1,0.1,0.2,0.2,0.2
				c0.7,0.3,0.4-1.6,0.3-1.9C18.9,19.7,18.6,19.2,18.1,19.4z"/>
			<path class="st7" d="M18.1,20.1c0-0.1,0-0.1,0.1-0.1s0.1-0.1,0.1-0.1c0.1,0,0.1,0.1,0.2,0.2c0.1,0.2,0.1,0.4,0.1,0.7h-0.1
				c0,0,0,0.1-0.1,0.1c-0.1,0.2,0.1,0.5,0.3,0.5"/>
			<path class="st7" d="M18.6,19.2c0-0.5,0.1-1,0.2-1.5c0.2-0.7,0.6-1.4,1.3-1.8c0.7-0.4,1.6-0.5,2.5-0.3c0.6,0.1,1.2,0.5,1.5,1
				c0.4,0.6,0.4,1.4,0.5,2.1c0.1,1,0,2-0.2,2.9c-0.2,0.8-0.5,1.5-1.1,2.1c-0.4,0.5-1,0.8-1.6,0.9c-0.1,0-0.2,0-0.3,0
				c-0.7-0.1-1.3-0.5-1.7-1.1c-0.6-0.8-1-1.9-1.1-2.9C18.6,20.1,18.6,19.7,18.6,19.2z"/>
			<path class="st10" d="M25.1,18.6c0-0.5-0.1-1.6-0.2-2.1c-0.2-0.8-0.7-1.5-1.4-2c-0.6-0.4-1.2-0.6-1.9-0.6s-1.3,0.1-1.9,0.6
				c-0.7,0.5-1.2,1.2-1.4,2c-0.1,0.5-0.2,1.6-0.2,2.1c0,0.2,0,0.5,0,0.7l0,0c0.1,0,0.2-0.1,0.3,0c0.1,0,0.2,0.2,0.2,0.4
				c0,0.1,0,0.2,0,0.3c0,0,0,0.2,0,0.4c0,0,0.1-0.7,0.2-1.5c0.1-0.4,0.1-0.9,0.1-1.3c0.1-0.2,0.1-0.5,0.2-0.7s0.3-0.4,0.6-0.5
				c0.4-0.1,0.7,0.1,1,0.3c0.5,0.2,1,0.2,1.5,0c0.3-0.1,0.7-0.4,1-0.3c0.2,0.1,0.5,0.2,0.6,0.5c0.1,0.2,0.2,0.5,0.2,0.7
				c0.1,0.4,0.1,0.8,0.1,1.2c0.1,0.6,0.2,1.1,0.2,1.7c0,0,0.1-0.4,0.1-0.7c0-0.1,0-0.2,0.1-0.4c0.1-0.1,0.1-0.1,0.2-0.1
				s0.1,0.1,0.1-0.1C25.1,19.1,25.1,18.8,25.1,18.6z"/>
			<path class="st10" d="M20,20.4c-0.4,0-0.3-0.6,0.1-0.6S20.4,20.5,20,20.4z"/>
			<path class="st11" d="M19,19.3c0.1,0,0.1-0.1,0.1-0.1c0.1,0,0.1,0,0.2-0.1s0.1,0,0.2-0.1h0.1h0.1c0.1,0,0.2,0,0.3,0h0.2
				c0.1,0,0.1,0,0.2,0s0.1,0,0.2,0.1h0.1c0,0,0,0,0.1,0l0,0c0,0,0,0,0.1,0V19c0,0-0.1,0-0.1-0.1h-0.1c-0.1,0-0.1,0-0.2-0.1
				c-0.1,0-0.2-0.1-0.3-0.1c-0.2,0-0.4,0-0.7,0.1c-0.1,0-0.1,0-0.2,0.1L19.1,19C18.9,19.2,18.9,19.2,19,19.3L19,19.3z"/>
			<path class="st10" d="M23.1,20.4c0.4,0,0.3-0.6-0.1-0.6C22.6,19.9,22.7,20.5,23.1,20.4z"/>
			<path class="st11" d="M24.1,19.2c-0.1,0-0.1-0.1-0.1-0.1S23.9,19,23.8,19c-0.3-0.1-0.7-0.1-1,0c-0.1,0-0.1,0-0.2,0.1h-0.1
				c0,0-0.1,0-0.1,0.1c0,0,0,0,0,0.1c0,0,0,0,0.1,0s0,0,0.1,0h0.1h0.1c0.1,0,0.1,0,0.2-0.1s0.1,0,0.2,0h0.5c0.1,0,0.2,0,0.3,0.1
				c0.1,0,0.1,0,0.2,0.1S24.1,19.3,24.1,19.2L24.1,19.2C24.1,19.3,24.1,19.2,24.1,19.2z"/>
			<g>
				<path class="st10" d="M21.6,22L21.6,22c0.1,0,0.2,0,0.2-0.1s0-0.1-0.1-0.1c-0.1-0.1-0.2-0.1-0.3-0.2c-0.1-0.1-0.1-0.2,0-0.3
					l0.1-1.6c0-0.1,0-0.1-0.1-0.1s-0.1,0-0.1,0.1l-0.1,1.6c0,0.1,0,0.3,0.1,0.5S21.4,21.9,21.6,22z"/>
				<path class="st10" d="M22.2,22.8c0-0.1-0.1-0.1-0.1-0.1c-0.1,0-0.1,0.1-0.2,0.1s-0.2,0-0.2,0.1c-0.2,0-0.3,0-0.5,0h-0.1
					c-0.1,0-0.1,0-0.1-0.1h-0.1c-0.1,0-0.1,0.1-0.1,0.1C20.9,23,21,23,21.1,23s0.2,0.1,0.3,0.1h0.2c0.1,0,0.2,0,0.4-0.1
					s0.2-0.1,0.3-0.1C22.2,22.9,22.3,22.9,22.2,22.8z"/>
			</g>
		</g>
	</g>
	<g>
		<g>
			<path class="st3" d="M21.4,32.7c-6.2,0-11.2-5-11.2-11.2s5-11.2,11.2-11.2s11.2,5,11.2,11.2S27.6,32.7,21.4,32.7z M21.4,11.2
				c-5.6,0-10.2,4.6-10.2,10.2s4.6,10.2,10.2,10.2S31.6,27,31.6,21.4C31.7,15.8,27.1,11.2,21.4,11.2z"/>
		</g>
	</g>
</g>
</svg>
