<?xml version="1.0" encoding="utf-8"?>
<!-- Generator: Adobe Illustrator 23.1.0, SVG Export Plug-In . SVG Version: 6.00 Build 0)  -->
<svg version="1.1" id="Layer_1" xmlns="http://www.w3.org/2000/svg" xmlns:xlink="http://www.w3.org/1999/xlink" x="0px" y="0px"
	 viewBox="0 0 32 32" style="enable-background:new 0 0 32 32;" xml:space="preserve">
<style type="text/css">
	.st0{opacity:0.15;}
	.st1{fill:#34E8C7;}
	.st2{filter:url(#Adobe_OpacityMaskFilter);}
	.st3{fill-rule:evenodd;clip-rule:evenodd;fill:#FFFFFF;}
	.st4{mask:url(#mask-3_1_);}
	.st5{fill-rule:evenodd;clip-rule:evenodd;fill:#34E8C7;}
</style>
<g>
	<g class="st0">
		<ellipse class="st1" cx="16" cy="16" rx="16" ry="16"/>
	</g>
	<defs>
		<filter id="Adobe_OpacityMaskFilter" filterUnits="userSpaceOnUse" x="6.5" y="7.7" width="19" height="17.1">
			<feColorMatrix  type="matrix" values="1 0 0 0 0  0 1 0 0 0  0 0 1 0 0  0 0 0 1 0"/>
		</filter>
	</defs>
	<mask maskUnits="userSpaceOnUse" x="6.5" y="7.7" width="19" height="17.1" id="mask-3_1_">
		<rect class="st2" width="32" height="32"/>
		<g>
			<path id="path-2_1_" class="st3" d="M7.5,10.7c0-1.1,0.9-2,2-2h13c1.1,0,2,0.9,2,2v8c0,1.1-0.9,2-2,2H19l-2.7,2.7l-2.7-2.7H9.5
				c-1.1,0-2-0.9-2-2V10.7z"/>
		</g>
	</mask>
	<g class="st4">
		<g>
			<g>
				<path class="st1" d="M16.3,24.7l-3.1-3.1H9.5c-1.7,0-3-1.3-3-3v-8c0-1.7,1.3-3,3-3h13c1.7,0,3,1.3,3,3v8c0,1.7-1.3,3-3,3h-3.1
					L16.3,24.7z M9.5,9.7c-0.6,0-1,0.4-1,1v8c0,0.6,0.4,1,1,1h4.6l2.2,2.2l2.2-2.2h3.9c0.6,0,1-0.4,1-1v-8c0-0.6-0.4-1-1-1H9.5z"/>
			</g>
		</g>
		<path class="st5" d="M10.8,14.9c0-0.7,0.6-1.3,1.3-1.3s1.3,0.6,1.3,1.3s-0.6,1.3-1.3,1.3S10.8,15.6,10.8,14.9z M14.8,14.9
			c0-0.7,0.6-1.3,1.3-1.3s1.3,0.6,1.3,1.3s-0.6,1.3-1.3,1.3S14.8,15.6,14.8,14.9z M18.8,14.9c0-0.7,0.6-1.3,1.3-1.3s1.3,0.6,1.3,1.3
			s-0.6,1.3-1.3,1.3S18.8,15.6,18.8,14.9z"/>
	</g>
</g>
</svg>
