<svg xmlns="http://www.w3.org/2000/svg" xmlns:xlink="http://www.w3.org/1999/xlink" width="40" height="40" viewBox="0 0 40 40">
  <defs>
    <rect id="rect-2" width="24" height="24" x="8.25" y="8.215"/>
    <mask id="mask-3" maskContentUnits="userSpaceOnUse" maskUnits="userSpaceOnUse">
      <rect width="40" height="40" x="0" y="0" fill="black"/>
      <use fill="white" xlink:href="#rect-2"/>
    </mask>
  </defs>
  <g>
    <g opacity=".2">
      <path fill="rgb(140,132,243)" fill-rule="evenodd" d="M20 0c11.03830049 0 20 8.96169951 20 20s-8.96169951 20-20 20S0 31.03830049 0 20 8.96169951 0 20 0z"/>
    </g>
    <g>
      <use fill="none" xlink:href="#rect-2"/>
      <g mask="url(#mask-3)">
        <path fill="rgb(140,132,243)" fill-rule="evenodd" d="M13.35466671 15.00677776c0 2.068223 1.68244457 3.75066662 3.75066662 3.75066662 2.06822204 0 3.75066566-1.68244362 3.75066566-3.75066662 0-2.06822204-1.68244362-3.75088882-3.75066566-3.75088882-2.06822205 0-3.75066662 1.68266678-3.75066662 3.75088882zm.88888836 9.6e-7c0-1.57800007 1.2840004-2.86200047 2.86177826-2.86200047 1.57799911 0 2.86177635 1.2840004 2.86177635 2.86200047 0 1.02241516-.54545021 1.96716499-1.43088722 2.47837066-.88543701.51120758-1.97634125.51120758-2.86177826 0-.88543701-.51120567-1.43088913-1.4559555-1.43088913-2.47837066z"/>
        <path fill="rgb(140,132,243)" fill-rule="evenodd" d="M21.4944439 15.00611115c0 1.64222335 1.33622169 2.97777748 2.97777747 2.97777748 1.64244462 0 2.97777749-1.33555413 2.97777749-2.97777748 0-1.64222146-1.33555413-2.97777749-2.97777749-2.97777749-1.64222145 0-2.97777748 1.33555603-2.97777748 2.97777749zm.8888893.00133323c0-1.15366173.93522835-2.08888912 2.08888817-2.08888912 1.15330697.0008583 2.08803177.93558311 2.08889008 2.08888912 0 1.15366173-.93522835 2.08888817-2.08889008 2.08888817-1.15365982 0-2.08888816-.93522644-2.08888816-2.08888817z"/>
        <path fill="rgb(140,132,243)" fill-rule="evenodd" d="M24.91666667 27.48388889h-.8888889c0-3.65688889-2.9751111-6.632-6.63177777-6.632-3.65666667 0-6.63111111 2.97511111-6.63111111 6.632H9.876c.00209455-3.57721135 2.52298678-6.65819037 6.0289727-7.36847777 3.50598592-.7102874 7.02725294 1.14659385 8.42147174 4.44092221.39167049.92621281.59241743 1.92193579.59022223 2.92755556z"/>
        <path fill="rgb(140,132,243)" fill-rule="evenodd" d="M31.45 27.48388889h-.88888889c0-3.65688889-2.97511111-6.632-6.63177778-6.632-1.14901756-.00045222-2.27843664.29765806-3.27755555.86511111l-.44-.77222222c2.328065-1.32540312 5.18550778-1.31193667 7.50097702.03535032 2.31546925 1.347287 3.7391457 3.82484749 3.7372452 6.50376079z"/>
      </g>
    </g>
  </g>
</svg>
