<svg xmlns="http://www.w3.org/2000/svg" xmlns:xlink="http://www.w3.org/1999/xlink" width="256" height="169.234" viewBox="0 0 256 169.234">
  <defs>
    <linearGradient id="linearGradient-3" x1="72.844" x2="187.206" y1="121.95" y2="41.305" gradientUnits="userSpaceOnUse">
      <stop offset="0" stop-color="rgb(0,221,251)"/>
      <stop offset="1" stop-color="rgb(105,0,255)"/>
    </linearGradient>
    <ellipse id="ellipse-5" cx="128" cy="72" rx="32" ry="32"/>
    <mask id="mask-6" x="0" y="-12.617" maskContentUnits="userSpaceOnUse" maskUnits="userSpaceOnUse">
      <rect width="256" height="169.234" x="0" y="-12.617" fill="black"/>
      <use fill="white" xlink:href="#ellipse-5"/>
    </mask>
    <linearGradient id="linearGradient-8" x1="98.92" x2="119.56" y1="4.28" y2="20.76" gradientUnits="userSpaceOnUse">
      <stop offset="0" stop-color="rgb(24,185,180)"/>
      <stop offset="1" stop-color="rgb(0,255,3)"/>
    </linearGradient>
    <linearGradient id="linearGradient-10" x1="18.64" x2="30.48" y1="129.52" y2="115.92" gradientUnits="userSpaceOnUse">
      <stop offset="0" stop-color="rgb(249,73,126)"/>
      <stop offset="1" stop-color="rgb(255,133,56)"/>
    </linearGradient>
    <linearGradient id="linearGradient-12" x1="204.04" x2="219.88" y1="129.36" y2="114.48" gradientUnits="userSpaceOnUse">
      <stop offset="0" stop-color="rgb(67,255,244)"/>
      <stop offset="1" stop-color="rgb(127,0,255)"/>
    </linearGradient>
    <linearGradient id="linearGradient-20" x1="109.4" x2="100.04" y1="11" y2="10.7" gradientUnits="userSpaceOnUse">
      <stop offset="0" stop-color="rgb(255,255,255)"/>
      <stop offset="1" stop-color="rgb(255,255,255)" stop-opacity="0"/>
    </linearGradient>
    <linearGradient id="linearGradient-22" x1="26.4" x2="17.04" y1="122" y2="121.6" gradientUnits="userSpaceOnUse">
      <stop offset="0" stop-color="rgb(255,255,255)"/>
      <stop offset="1" stop-color="rgb(255,255,255)" stop-opacity="0"/>
    </linearGradient>
    <linearGradient id="linearGradient-24" x1="213.95" x2="203.42" y1="122" y2="121.548" gradientUnits="userSpaceOnUse">
      <stop offset="0" stop-color="rgb(255,255,255)"/>
      <stop offset="1" stop-color="rgb(255,255,255)" stop-opacity="0"/>
    </linearGradient>
  </defs>
  <g transform="translate(0 12.6169335)">
    <g>
      <g opacity=".05">
        <path fill="rgb(0,146,255)" fill-rule="evenodd" d="M208.01214103 62.45392788c-.85930867-3.45566037-4.42898456-5.63902406-7.97454886-4.87756899l-37.82386981 8.1010066c2.98887755-1.40796139 4.3727801-4.78512786 3.2204351-7.8588954-1.15234501-3.07376754-4.4762474-4.87136077-7.73494626-4.18312134l-.7122179.1562295c.44933012-.20871686.92248129-.36722625 1.4105226-.47253623l19.2706113-4.13995271c3.26482644-.69937128 5.41924832-3.67482851 5.0076682-6.91605613-.4115801-3.24122762-3.25819839-5.71687479-6.61658706-5.75431386l10.6524089-2.28362242c2.34448618-.4464284 4.22951036-2.0955219 4.92505963-4.3086364.69554927-2.21311452.0923945-4.64270232-1.57588068-6.34785744-1.66827518-1.70515512-4.13968469-2.41809984-6.45712626-1.8627322L61.56980068 47.87020473c-3.5471314.76054108-5.7282315 4.1799773-4.87162344 7.6375246.85660806 3.4575473 4.42654423 5.64390288 7.97367565 4.88336187l12.84694153-2.75366068c3.54758495-.7604024 7.11778044 1.42642003 7.97425483 4.88440459.85647439 3.45798456-1.32510176 6.87766286-4.8726867 7.63806526l-25.68238688 5.51083608c-3.54726512.76097826-5.728106 4.18088134-4.87104445 7.63856733.85706155 3.45768598 4.42747377 5.64379953 7.97473888 4.88282127l12.13617598-2.6021813c-3.0005425 1.4012292-4.39472685 4.784651-3.24114578 7.86564802 1.15358108 3.08099702 4.48815067 4.87997747 7.75207829 4.1822001l-26.39364002 5.8283782c-2.29459174.49198376-4.11925804 2.13982928-4.78666476 4.32280908-.66740672 2.1829798-.0761589 4.5694473 1.55102614 6.26044329 1.62718503 1.69099599 4.04309914 2.42961793 6.33769086 1.93763409l37.82348967-8.11151105c-2.9993791 1.40221128-4.3922104 4.78534161-3.23825907 7.86559894 1.15395134 3.08025732 4.48792745 4.87865007 7.75131798 4.18116793l89.91873684-19.27863734c3.42803898-.74006 5.59694673-3.9747042 4.9266674-7.3474845-.67027935-3.3727803-3.94328032-5.69382554-7.4346118-5.27224726 3.05590147-1.35149353 4.51731023-4.74631247 3.38480282-7.86281916-1.1325074-3.1165067-4.49258853-4.9465765-7.78236212-4.23866729l26.38542847-5.8308887c1.70460401-.36409853 3.17619306-1.37381161 4.0905655-2.80669221.91437246-1.4328806 1.19650708-3.17136562.7842476-4.83245432l.00492693.00150631z"/>
      </g>
    </g>
    <g>
      <g opacity=".7">
        <ellipse cx="128.132" cy="72.027" fill="url(#linearGradient-3)" rx="37.868" ry="38.402"/>
      </g>
      <g opacity=".4">
        <path fill="rgb(90,77,255)" fill-rule="evenodd" d="M90 71.9729004c0-21.20951081 16.95368958-38.40219499 37.86836243-38.40219499 20.9146881 0 37.86836242 17.19268418 37.86836242 38.40219498 0 21.20951843-16.95367431 38.4022026-37.86836242 38.4022026C106.95368958 110.375103 90 93.18241883 90 71.9729004zm72.72485352-7.03028108c-3.30834961-16.86272812-17.9022522-29.00718307-34.85648346-29.00617218-9.42972565-.02649307-18.47782898 3.77451325-25.12677765 10.55546952-11.98843384 12.15747451-13.83869171 31.2099266-4.41919709 45.50544357 9.419487 14.2954979 27.4852066 19.85247421 43.14868927 13.2724266 15.66346741-6.5800476 24.56211853-23.46443557 21.25376893-40.3271675z"/>
      </g>
      <use fill-opacity="0" stroke="rgb(255,255,255)" stroke-dasharray="4 4 4 4" stroke-linecap="butt" stroke-linejoin="miter" stroke-width="2" mask="url(#mask-6)" opacity=".8" xlink:href="#ellipse-5"/>
    </g>
    <g opacity=".7">
      <path fill="url(#linearGradient-8)" fill-rule="evenodd" d="M102 3h6c2.75957512 0 5 2.24042488 5 5v6c0 2.75957512-2.24042488 5-5 5h-6c-2.75957512 0-5-2.24042488-5-5V8c0-2.75957512 2.24042488-5 5-5z"/>
    </g>
    <g opacity=".7">
      <path fill="url(#linearGradient-10)" fill-rule="evenodd" d="M19 114h6c2.75957512 0 5 2.24042488 5 5v6c0 2.75957512-2.24042488 5-5 5h-6c-2.75957512 0-5-2.24042488-5-5v-6c0-2.75957512 2.24042488-5 5-5z"/>
    </g>
    <g opacity=".7">
      <path fill="url(#linearGradient-12)" fill-rule="evenodd" d="M206 114h6c2.75957512 0 5 2.24042488 5 5v6c0 2.75957512-2.24042488 5-5 5h-6c-2.75957512 0-5-2.24042488-5-5v-6c0-2.75957512 2.24042488-5 5-5z"/>
    </g>
    <ellipse cx="226.5" cy="14.5" fill="rgb(52,232,199)" rx="1.5" ry="1.5"/>
    <ellipse cx="6.5" cy="74.5" fill="rgb(253,186,69)" rx="1.5" ry="1.5"/>
    <path fill="rgb(255,68,71)" fill-rule="evenodd" d="M108.5 137c-.82846875 0-1.5-.67153125-1.5-1.5s.67153125-1.5 1.5-1.5 1.5.67153125 1.5 1.5-.67153125 1.5-1.5 1.5z"/>
    <path fill="rgb(0,140,255)" fill-rule="evenodd" d="M248.5 78c-.82846875 0-1.5-.67153125-1.5-1.5s.67153125-1.5 1.5-1.5 1.5.67153125 1.5 1.5-.67153125 1.5-1.5 1.5z"/>
    <path fill="rgb(140,132,243)" fill-rule="evenodd" d="M28.5 14c-.82846875 0-1.5-.67153125-1.5-1.5s.67153125-1.5 1.5-1.5 1.5.67153125 1.5 1.5-.67153125 1.5-1.5 1.5z"/>
    <g opacity=".9">
      <path fill="rgb(255,255,255)" fill-rule="evenodd" d="M137 58h-18c-2.75957489 0-5 2.24042511-5 5v18c0 2.75957489 2.24042511 5 5 5h18c2.75958252 0 5-2.24042511 5-5V63c0-2.75957489-2.24041748-5-5-5zm-15.82888031 9.92695618c.28366852 1.42641449 1.53542328 2.45381164 2.98976898 2.4539032.80863953.00037384 1.58423615-.32086182 2.15579987-.89289094 1.02837372-1.02837371 1.18711853-2.6399765.37914276-3.8492279-.80797577-1.2092514-2.35762787-1.6793747-3.70128632-1.12286377-1.34365081.55651855-2.10708618 1.98467255-1.82342529 3.4110794zm2.98976898-2.67165375c-.99071502-.0000763-1.84352112.69969177-2.03688812 1.6713562-.19335938.9716568.32657623 1.94460297 1.24183655 2.32382202.91526794.37921906 1.9709549.0590973 2.52145385-.7645874.5505066-.82369232.44249726-1.92154694-.25795745-2.62217712-.389328-.3896637-.91761017-.6085434-1.46844483-.6084137zm12.23910523 2.2681961h-4.67463684c-.2684784 0-.4861145-.2176361-.4861145-.48610687 0-.2684784.2176361-.4861145.4861145-.4861145h4.67463684c.26846313 0 .4861145.2176361.4861145.4861145 0 .26847077-.21765137.48610688-.4861145.48610688zm-17.2861023 10.44342042h3.99972534l6.0940857-.058136v-3.43350219c0-1.9216919-1.56333924-3.48522186-3.4852295-3.48522186h-3.12335968c-1.92169189 0-3.48522186 1.56352997-3.48522186 3.48522186v3.49163819zm12.61146546-5.72969819h4.67463684c.26846313 0 .4861145-.2176361.4861145-.48610687 0-.2684784-.21765137-.4861145-.4861145-.4861145h-4.67463684c-.2684784 0-.4861145.2176361-.4861145.4861145 0 .26847077.2176361.48610687.4861145.48610687zm-11.63924408 4.75747681h3.02263641l5.12672424-.04880524v-2.47061157c-.00160217-1.38722229-1.1257782-2.51139068-2.51300049-2.51300049h-3.12335968c-1.38722229.0016098-2.51139068 1.1257782-2.51300048 2.5130005v2.5194168zm11.63924408-.04375458h4.67463684c.26846313 0 .4861145-.2176361.4861145-.48610687 0-.2684784-.21765137-.4861145-.4861145-.4861145h-4.67463684c-.2684784 0-.4861145.2176361-.4861145.4861145 0 .26847076.2176361.48610687.4861145.48610687z"/>
    </g>
    <path fill="url(#linearGradient-20)" fill-rule="evenodd" d="M101 9c0-.55191517.44808197-1 1-1h6c.55191803 0 1 .44808483 1 1s-.44808197 1-1 1h-6c-.55191803 0-1-.44808483-1-1zm0 4c0-.55191517.44808197-1 1-1h6c.55191803 0 1 .44808483 1 1s-.44808197 1-1 1h-6c-.55191803 0-1-.44808483-1-1z"/>
    <path fill="url(#linearGradient-22)" fill-rule="evenodd" d="M21.7550087 125.54702759c-2.0708561 0-3.7550087-1.69307709-3.7550087-3.7735138C18 119.6930771 19.6847744 118 21.7550087 118s3.7550087 1.69307709 3.7550087 3.7735138c0 .93328857-.33892632 1.78862762-.89964676 2.44812774.0044403.0037613.00878524.00770569.01302528.01182556l1.30061913 1.32163239c.07418632.07453918.09638214.1866455.05623626.28403473-.04014778.09739685-.13472938.16088867-.23962974.16086578-.0687294.0000534-.13464737-.02740479-.18318749-.07630157l-1.30082702-1.32184601c-.00284005-.0029602-.00559807-.00596619-.00827218-.00901795-.66354942.59329224-1.5372219.95419312-2.49332618.95419312zm0-6.28583527c-1.37820435 0-2.5 1.12732697-2.5 2.51232147 0 1.38499451 1.12179565 2.51232148 2.5 2.51232148 1.37820434 0 2.5-1.12732697 2.5-2.51232148 0-1.3849945-1.121315-2.51232147-2.5-2.51232147z"/>
    <path fill="url(#linearGradient-24)" fill-rule="evenodd" d="M204.5 122c0 2.4932022 2.01829529 4.52218628 4.5 4.52218628 2.48171997 0 4.50001526-2.02898407 4.50001526-4.52218628 0-2.49319458-2.01904297-4.52217865-4.50001526-4.52217865-2.48095703 0-4.5 2.02898407-4.5 4.52217865zm1.5039978 0c0-1.65978241 1.34436035-3.01076508 2.9960022-3.01076508 1.65222168 0 2.9960022 1.35098267 2.9960022 3.01076508S210.65164185 125.01076508 209 125.01076508c-1.65164185 0-2.9960022-1.35098267-2.9960022-3.01076508z"/>
  </g>
</svg>
