<?xml version="1.0" encoding="utf-8"?>
<!-- Generator: Adobe Illustrator 23.1.0, SVG Export Plug-In . SVG Version: 6.00 Build 0)  -->
<svg version="1.1" id="Layer_1" xmlns="http://www.w3.org/2000/svg" xmlns:xlink="http://www.w3.org/1999/xlink" x="0px" y="0px"
	 viewBox="0 0 282.3 144" style="enable-background:new 0 0 282.3 144;" xml:space="preserve">
<style type="text/css">
	.st0{opacity:5.000000e-02;}
	.st1{fill-rule:evenodd;clip-rule:evenodd;fill:#0092FF;}
	.st2{fill-rule:evenodd;clip-rule:evenodd;fill:#4FCD7B;}
	.st3{fill-rule:evenodd;clip-rule:evenodd;fill:#F8CF45;}
	.st4{fill-rule:evenodd;clip-rule:evenodd;fill:#55BEFD;}
	.st5{fill-rule:evenodd;clip-rule:evenodd;fill:#00C6FB;}
	.st6{fill:url(#SVGID_1_);}
	.st7{opacity:0.4;}
	.st8{fill-rule:evenodd;clip-rule:evenodd;fill:#FFCE00;}
	.st9{opacity:0.8;fill-rule:evenodd;clip-rule:evenodd;fill:#FFFFFF;}
	.st10{fill-rule:evenodd;clip-rule:evenodd;fill:url(#SVGID_2_);}
	.st11{fill-rule:evenodd;clip-rule:evenodd;fill:url(#SVGID_3_);}
	.st12{fill-rule:evenodd;clip-rule:evenodd;fill:url(#SVGID_4_);}
	.st13{fill-rule:evenodd;clip-rule:evenodd;fill:url(#SVGID_5_);}
	.st14{fill:none;}
	.st15{fill-rule:evenodd;clip-rule:evenodd;fill:url(#SVGID_6_);}
	.st16{fill-rule:evenodd;clip-rule:evenodd;fill:#FFFFFF;}
	.st17{fill-rule:evenodd;clip-rule:evenodd;fill:url(#SVGID_7_);}
	.st18{fill-rule:evenodd;clip-rule:evenodd;fill:url(#SVGID_8_);}
	.st19{fill-rule:evenodd;clip-rule:evenodd;fill:url(#SVGID_9_);}
	.st20{fill-rule:evenodd;clip-rule:evenodd;fill:url(#SVGID_10_);}
	.st21{fill-rule:evenodd;clip-rule:evenodd;fill:url(#SVGID_11_);}
	.st22{fill-rule:evenodd;clip-rule:evenodd;fill:url(#SVGID_12_);}
	.st23{fill-rule:evenodd;clip-rule:evenodd;fill:url(#SVGID_13_);}
	.st24{fill-rule:evenodd;clip-rule:evenodd;fill:url(#SVGID_14_);}
	.st25{opacity:0.9;}
</style>
<g class="st0">
	<path class="st1" d="M236.9,57.4c-1-4.2-5.2-6.8-9.4-5.9L182.6,62c3.6-1.8,5.2-5.9,3.9-9.7s-5.2-5.9-9.1-5l-0.8,0.2
		c0.5-0.3,1.1-0.5,1.7-0.6l22.9-5.3c3.9-0.9,6.5-4.6,6-8.5c-0.4-4-3.8-7-7.8-7l12.6-2.9c2.8-0.6,5-2.6,5.9-5.3s0.2-5.7-1.8-7.7
		s-4.9-2.9-7.6-2.2L63.7,41.5c-4.2,1-6.8,5.2-5.9,9.4s5.2,6.8,9.4,5.9l15.2-3.5c4.2-1,8.4,1.7,9.4,5.9s-1.7,8.4-5.9,9.4l-30.5,7.1
		c-4.2,1-6.8,5.2-5.9,9.4c1,4.2,5.2,6.8,9.4,5.9l14.4-3.3c-3.6,1.8-5.3,5.9-3.9,9.7s5.2,5.9,9.1,5l-31.3,7.5
		c-2.7,0.6-4.9,2.7-5.7,5.4c-0.8,2.7-0.2,5.6,1.8,7.6s4.8,2.9,7.5,2.3l44.9-10.4c-3.6,1.8-5.3,5.9-3.9,9.7c1.3,3.8,5.2,5.9,9.1,5
		l106.7-24.8c4.1-1,6.7-4.9,5.9-9.1c-0.7-4.1-4.6-6.9-8.7-6.4c3.6-1.7,5.4-5.9,4.1-9.7s-5.3-6-9.2-5.1l31.3-7.5
		c2-0.5,3.8-1.7,4.9-3.5C237,61.6,237.3,59.4,236.9,57.4L236.9,57.4L236.9,57.4z"/>
</g>
<path class="st2" d="M250,140.5l3.5,3.5l3.5-3.5l-3.5-3.5L250,140.5z M253.5,142.9l-2.3-2.3l2.3-2.3l2.3,2.3L253.5,142.9z"/>
<path class="st3" d="M0,127.1c0,1.7,1.4,3.1,3.1,3.1c0.8,0,1.6-0.3,2.2-0.9s0.9-1.4,0.9-2.2c0-1.7-1.4-3.1-3.1-3.1S0,125.4,0,127.1z
	 M0.8,127.1c0-1.3,1-2.3,2.3-2.3c1.3,0,2.3,1,2.3,2.3c0,1.3-1,2.3-2.3,2.3S0.8,128.4,0.8,127.1z"/>
<path class="st4" d="M276,3.1c0,1.7,1.4,3.1,3.1,3.1c1.7,0,3.1-1.4,3.1-3.1c0-1.7-1.4-3.1-3.1-3.1C277.4,0,276,1.4,276,3.1z
	 M276.8,3.1c0-1.3,1-2.3,2.3-2.3c0.6,0,1.2,0.2,1.6,0.7c0.4,0.4,0.7,1,0.7,1.6c0,1.3-1,2.3-2.3,2.3C277.9,5.4,276.8,4.4,276.8,3.1z"
	/>
<path class="st5" d="M29,11.9h6.8L32.4,6L29,11.9z M34.3,11h-3.9l2-3.4L34.3,11z"/>
<linearGradient id="SVGID_1_" gradientUnits="userSpaceOnUse" x1="-4.9071" y1="12.9933" x2="98.9039" y2="60.6453" gradientTransform="matrix(0.848 -0.5299 -0.5299 -0.848 121.6484 125.5797)">
	<stop  offset="0" style="stop-color:#FFAE46"/>
	<stop  offset="0.19" style="stop-color:#FF9755"/>
	<stop  offset="0.74" style="stop-color:#FF5A7D"/>
	<stop  offset="1" style="stop-color:#FF428D"/>
</linearGradient>
<ellipse class="st6" cx="139" cy="74" rx="37.8" ry="37.8"/>
<g class="st7">
	<path class="st8" d="M106.8,94.1c-11.1-17.8-5.7-41.2,12.1-52.4s41.2-5.7,52.4,12.1s5.7,41.2-12.1,52.4S117.9,111.9,106.8,94.1z
		 M165,49.6c-11.7-12.4-30.4-14.8-44.9-5.8c-8,5-13.7,13-15.8,22.2c-3.8,16.6,4.6,33.5,20.1,40.5c15.5,7,33.8,2,43.7-11.8
		C177.9,80.9,176.6,62,165,49.6z"/>
</g>
<path class="st9" d="M132.9,46.3L132.9,46.3c0.4-0.1,0.7-0.5,0.6-0.9l-0.6-3.2c0-0.2-0.2-0.4-0.3-0.5c-0.2-0.1-0.4-0.1-0.6-0.1
	l-0.2,0c-0.2,0-0.4,0.2-0.5,0.3s-0.1,0.4-0.1,0.6l0.8,3.1C132.1,46.2,132.5,46.4,132.9,46.3z M141.7,45.8L141.7,45.8
	c-0.4,0-0.7-0.4-0.7-0.8l0.2-3.2c0-0.2,0.1-0.4,0.3-0.5c0.2-0.1,0.4-0.2,0.6-0.2l0.2,0c0.2,0,0.4,0.1,0.5,0.3
	c0.1,0.2,0.2,0.4,0.2,0.6l-0.4,3.2C142.5,45.5,142.1,45.8,141.7,45.8z M150.3,48L150.3,48c0.2,0.1,0.4,0.1,0.6,0
	c0.2-0.1,0.3-0.2,0.4-0.4l1.4-2.9c0.1-0.2,0.1-0.4,0-0.6s-0.2-0.3-0.4-0.4l-0.2-0.1c-0.2-0.1-0.4-0.1-0.6,0
	c-0.2,0.1-0.3,0.2-0.4,0.4l-1.2,3C149.8,47.4,149.9,47.8,150.3,48z M157.8,52.7L157.8,52.7c-0.3-0.3-0.4-0.7-0.1-1.1l2.1-2.5
	c0.1-0.2,0.3-0.3,0.5-0.3c0.2,0,0.4,0,0.6,0.2c0,0,0.1,0.1,0.2,0.1c0.1,0.1,0.2,0.3,0.2,0.5c0,0.2-0.1,0.4-0.2,0.5l-2.2,2.4
	C158.6,53,158.1,53,157.8,52.7z M164.5,59.9l2.8-1.6l0,0c0.2-0.1,0.3-0.3,0.4-0.5c0.1-0.2,0-0.4-0.1-0.6c-0.2-0.3-0.3-0.6-0.5-0.8
	l0,0l-4,2.5l0.4,0.7C163.7,60,164.1,60.1,164.5,59.9z M170.8,67.8l-3.2,0.6c-0.4,0.1-0.8-0.2-0.9-0.6l0,0c-0.1-0.4,0.2-0.8,0.5-0.9
	l3.1-0.8c0.2,0,0.4,0,0.6,0.1c0.2,0.1,0.3,0.3,0.3,0.5c0,0.1,0,0.1,0,0.2c0,0.2,0,0.4-0.1,0.6C171.1,67.7,171,67.8,170.8,67.8z
	 M167.9,77.5l3.2,0.4c0.4,0,0.8-0.3,0.8-0.7l0-0.2c0-0.2,0-0.4-0.2-0.6c-0.1-0.2-0.3-0.2-0.5-0.3l-3.2-0.2c-0.4,0-0.8,0.3-0.8,0.7
	l0,0C167.2,77.1,167.5,77.5,167.9,77.5z M168.3,87.6l-2.9-1.4c-0.4-0.2-0.5-0.6-0.4-1l0,0c0.2-0.4,0.6-0.6,1-0.4l3,1.2
	c0.2,0.1,0.3,0.2,0.4,0.4c0.1,0.2,0.1,0.4,0,0.6l-0.1,0.2c-0.1,0.2-0.2,0.3-0.4,0.4C168.7,87.7,168.5,87.7,168.3,87.6z M162.7,96
	l-2.4-2.2c-0.3-0.3-0.3-0.7,0-1l0,0c0.3-0.3,0.7-0.3,1-0.1l2.5,2.1c0.2,0.1,0.2,0.3,0.3,0.5c0,0.2,0,0.4-0.2,0.5l-0.1,0.2
	c-0.1,0.1-0.3,0.2-0.5,0.2C163,96.2,162.8,96.1,162.7,96z"/>
<path class="st9" d="M156.5,101.2c-15.1,9.4-35.1,4.8-44.5-10.3s-4.8-35.1,10.3-44.5c0.8-0.5,1.8-0.2,2.2,0.5
	c0.5,0.8,0.2,1.8-0.5,2.2c-13.6,8.5-17.7,26.5-9.2,40s26.5,17.7,40,9.2c0.8-0.5,1.8-0.2,2.2,0.5C157.5,99.7,157.3,100.7,156.5,101.2
	L156.5,101.2z"/>
<linearGradient id="SVGID_2_" gradientUnits="userSpaceOnUse" x1="221.9999" y1="54.044" x2="239.9999" y2="54.044" gradientTransform="matrix(1 0 0 -1 1.120000e-06 146.044)">
	<stop  offset="0" style="stop-color:#4772E5"/>
	<stop  offset="0.45" style="stop-color:#5888FF"/>
	<stop  offset="1" style="stop-color:#5966FF"/>
</linearGradient>
<path class="st10" d="M228,83h6c3.3,0,6,2.7,6,6v6c0,3.3-2.7,6-6,6h-6c-3.3,0-6-2.7-6-6v-6C222,85.7,224.7,83,228,83z"/>
<g>
	
		<linearGradient id="SVGID_3_" gradientUnits="userSpaceOnUse" x1="208.0014" y1="111.1455" x2="227.3214" y2="110.8655" gradientTransform="matrix(1 0 0 -1 1.120000e-06 146.044)">
		<stop  offset="0" style="stop-color:#FF0004"/>
		<stop  offset="1" style="stop-color:#E43683"/>
	</linearGradient>
	<path class="st11" d="M213,28h4c2.8,0,5,2.2,5,5v4c0,2.8-2.2,5-5,5h-4c-2.8,0-5-2.2-5-5v-4C208,30.2,210.2,28,213,28z"/>
</g>
<g>
	
		<linearGradient id="SVGID_4_" gradientUnits="userSpaceOnUse" x1="120.9999" y1="135.0441" x2="138.9999" y2="135.0441" gradientTransform="matrix(1 0 0 -1 1.120000e-06 146.044)">
		<stop  offset="0" style="stop-color:#FFF050"/>
		<stop  offset="0.41" style="stop-color:#FFD84C"/>
		<stop  offset="1" style="stop-color:#FFAE46"/>
	</linearGradient>
	<path class="st12" d="M127,2h6c3.3,0,6,2.7,6,6v6c0,3.3-2.7,6-6,6h-6c-3.3,0-6-2.7-6-6V8C121,4.7,123.7,2,127,2z"/>
</g>
<g>
	
		<linearGradient id="SVGID_5_" gradientUnits="userSpaceOnUse" x1="47.9999" y1="35.044" x2="65.9999" y2="35.044" gradientTransform="matrix(1 0 0 -1 1.120000e-06 146.044)">
		<stop  offset="0" style="stop-color:#F62C84"/>
		<stop  offset="0.23" style="stop-color:#E1309C"/>
		<stop  offset="0.72" style="stop-color:#AB38D9"/>
		<stop  offset="1" style="stop-color:#8A3EFF"/>
	</linearGradient>
	<path class="st13" d="M53,102h8c2.8,0,5,2.2,5,5v8c0,2.8-2.2,5-5,5h-8c-2.8,0-5-2.2-5-5v-8C48,104.2,50.2,102,53,102z"/>
</g>
<rect x="228" y="86.3" class="st14" width="5.5" height="12"/>
<linearGradient id="SVGID_6_" gradientUnits="userSpaceOnUse" x1="216.8733" y1="54.0188" x2="228.3383" y2="53.7788" gradientTransform="matrix(1 0 0 -1 1.120000e-06 146.044)">
	<stop  offset="0" style="stop-color:#FFFFFF;stop-opacity:0"/>
	<stop  offset="1" style="stop-color:#FFFFFF;stop-opacity:0.8"/>
</linearGradient>
<path class="st15" d="M229.3,98.3h2.4v-6.1h1.7l0.2-2h-1.9v-1.2c0-0.5,0.1-0.7,0.6-0.7h1.3v-2.1h-1.7c-1.8,0-2.6,0.8-2.6,2.3v1.6
	H228v2.1h1.3L229.3,98.3L229.3,98.3z"/>
<g>
	<rect x="125" y="6.3" class="st14" width="10" height="9.3"/>
</g>
<path class="st16" d="M134.9,13.5L134.9,13.5C134.9,13.5,134.9,13.5,134.9,13.5c-0.1-0.1-0.3-0.1-0.3-0.1h0c-0.5-0.2-1-0.5-1.3-0.9
	c-0.2-0.2-0.3-0.5-0.4-0.8v0c0-0.1,0-0.3,0-0.3c0.1-0.1,0.3-0.2,0.4-0.3h0c0.2-0.1,0.4-0.2,0.6-0.3c0,0,0,0,0,0c0,0,0.1-0.1,0.1-0.1
	c0,0,0,0,0,0c0-0.1,0-0.1,0-0.2c0-0.1-0.1-0.2-0.2-0.2c-0.1-0.1-0.2-0.1-0.4,0h0c-0.1,0-0.2,0.1-0.3,0.1c0,0,0,0,0,0
	c-0.1,0-0.2,0-0.4,0c0,0,0,0,0-0.1c0-0.2,0-0.4,0-0.7c0-0.4,0-0.7,0-1.1v0c-0.1-0.6-0.5-1.2-1-1.5c-0.4-0.3-0.8-0.4-1.3-0.4
	c-0.2,0-0.3,0-0.5,0c-0.6,0-1.2,0.2-1.7,0.5c-0.4,0.3-0.7,0.7-0.8,1.1c-0.2,0.4-0.2,0.9-0.1,1.3c0,0.3,0,0.6,0,0.9c0,0,0,0,0,0
	c-0.1,0-0.3,0-0.4,0c-0.1,0-0.2-0.1-0.3-0.1c0,0,0,0,0,0c-0.1,0-0.2,0-0.3,0.1c0,0,0,0,0,0s0,0,0,0c-0.1,0-0.2,0.1-0.2,0.3
	c0,0,0,0,0,0h0c0,0.1,0.1,0.1,0.1,0.2c0,0,0.1,0.1,0.1,0.1c0,0,0,0,0,0c0.2,0.1,0.5,0.2,0.7,0.3c0.1,0.1,0.3,0.2,0.3,0.3
	c0,0.2,0,0.3-0.1,0.5c-0.2,0.5-0.6,0.9-1,1.2c-0.2,0.2-0.5,0.3-0.8,0.3c0,0,0,0,0,0c-0.1,0-0.2,0-0.3,0.2c0,0,0,0,0,0
	c0,0.1,0,0.2,0,0.2c0,0,0.1,0.1,0.1,0.1h0c0.2,0.1,0.5,0.2,0.7,0.2h0c0.2,0,0.3,0.1,0.4,0.1c0,0,0,0.1,0,0.1c0,0.1,0.1,0.3,0.1,0.4
	c0,0,0.1,0.1,0.1,0.1c0.1,0,0.1,0,0.2,0h0c0.4-0.1,0.8-0.1,1.1,0c0.4,0.1,0.7,0.3,1,0.6v0c0.2,0.1,0.5,0.3,0.8,0.3
	c0.2,0,0.5,0,0.7,0h0c0.2,0,0.4-0.1,0.6-0.2c0,0,0,0,0,0c0.4-0.2,0.7-0.5,1.1-0.6c0.1,0,0.3,0,0.4-0.1h0c0.3,0,0.6,0,0.9,0
	c0,0,0,0,0,0c0,0,0.1,0,0.1-0.1c0,0,0,0,0-0.1c0,0,0,0,0,0c0,0,0,0,0,0c0.1-0.2,0.1-0.3,0.2-0.4c0.1,0,0.1-0.1,0.2-0.1h0
	c0.3,0,0.5-0.1,0.7-0.2c0,0,0,0,0,0c0.1,0,0.2-0.1,0.3-0.2v0c0,0,0-0.1,0-0.2S134.9,13.5,134.9,13.5L134.9,13.5L134.9,13.5z"/>
<rect x="51" y="105" class="st14" width="12" height="12"/>
<linearGradient id="SVGID_7_" gradientUnits="userSpaceOnUse" x1="50.9999" y1="35.044" x2="62.9999" y2="35.044" gradientTransform="matrix(1 0 0 -1 1.120000e-06 146.044)">
	<stop  offset="0" style="stop-color:#FFFFFF;stop-opacity:0"/>
	<stop  offset="1" style="stop-color:#FFFFFF"/>
</linearGradient>
<path class="st17" d="M54.5,105c0.6,0,0.8,0,2.5,0c1.6,0,1.8,0,2.5,0s1.1,0.1,1.5,0.3c0.4,0.2,0.8,0.4,1.1,0.7
	c0.3,0.3,0.5,0.7,0.7,1.1c0.1,0.4,0.2,0.8,0.3,1.5s0,0.8,0,2.5s0,1.8,0,2.5c0,0.6-0.1,1.1-0.3,1.5c-0.3,0.8-0.9,1.4-1.8,1.8
	c-0.4,0.1-0.8,0.2-1.5,0.3c-0.6,0-0.8,0-2.5,0s-1.8,0-2.5,0c-0.6,0-1.1-0.1-1.5-0.3c-0.8-0.3-1.4-0.9-1.8-1.8
	c-0.1-0.4-0.2-0.8-0.3-1.5s0-0.8,0-2.5s0-1.8,0-2.5c0-0.6,0.1-1.1,0.3-1.5c0.2-0.4,0.4-0.8,0.7-1.1c0.3-0.3,0.7-0.5,1.1-0.7
	C53.5,105.2,53.9,105.1,54.5,105z M59.4,106.1c-0.6,0-0.8,0-2.4,0c-1.6,0-1.8,0-2.4,0c-0.6,0-0.9,0.1-1.1,0.2
	c-0.3,0.1-0.5,0.2-0.7,0.4c-0.2,0.2-0.4,0.4-0.4,0.7c-0.1,0.2-0.2,0.5-0.2,1.1c0,0.6,0,0.8,0,2.4c0,1.6,0,1.8,0,2.4
	c0,0.6,0.1,0.9,0.2,1.1c0.1,0.3,0.2,0.5,0.4,0.7c0.2,0.2,0.4,0.4,0.7,0.4c0.2,0.1,0.5,0.2,1.1,0.2c0.6,0,0.8,0,2.4,0s1.8,0,2.4,0
	c0.6,0,0.9-0.1,1.1-0.2c0.5-0.2,0.9-0.6,1.1-1.1c0.1-0.2,0.2-0.5,0.2-1.1c0-0.6,0-0.8,0-2.4s0-1.8,0-2.4c0-0.6-0.1-0.9-0.2-1.1
	c-0.1-0.3-0.2-0.5-0.4-0.7c-0.2-0.2-0.4-0.4-0.7-0.4C60.3,106.2,60,106.1,59.4,106.1z"/>
<linearGradient id="SVGID_8_" gradientUnits="userSpaceOnUse" x1="53.9185" y1="35.0434" x2="60.0812" y2="35.0434" gradientTransform="matrix(1 0 0 -1 1.120000e-06 146.044)">
	<stop  offset="0" style="stop-color:#FFFFFF;stop-opacity:0"/>
	<stop  offset="1" style="stop-color:#FFFFFF"/>
</linearGradient>
<path class="st18" d="M54.2,109.8c0.5-1.2,1.6-1.9,2.8-1.9c0.8,0,1.6,0.3,2.2,0.9s0.9,1.4,0.9,2.2c0,1.2-0.8,2.4-1.9,2.8
	c-1.2,0.5-2.5,0.2-3.4-0.7C53.9,112.3,53.7,111,54.2,109.8z M55,111c0,1.1,0.9,2,2,2c1.1,0,2-0.9,2-2c0-1.1-0.9-2-2-2
	C55.9,109,55,109.9,55,111z"/>
<linearGradient id="SVGID_9_" gradientUnits="userSpaceOnUse" x1="59.4249" y1="38.246" x2="60.9229" y2="38.246" gradientTransform="matrix(1 0 0 -1 1.120000e-06 146.044)">
	<stop  offset="0" style="stop-color:#FFFFFF;stop-opacity:0"/>
	<stop  offset="1" style="stop-color:#FFFFFF"/>
</linearGradient>
<path class="st19" d="M60.9,107.8c0,0.3-0.2,0.6-0.4,0.7s-0.6,0.1-0.8-0.2c-0.2-0.2-0.3-0.5-0.2-0.8c0.1-0.3,0.4-0.4,0.7-0.4
	C60.6,107.1,60.9,107.4,60.9,107.8"/>
<rect x="211" y="32.2" class="st14" width="8" height="5.6"/>
<path class="st16" d="M218.1,32.4c0.3,0.1,0.6,0.4,0.7,0.7C219,33.7,219,35,219,35s0,1.3-0.2,1.9c-0.1,0.3-0.4,0.6-0.7,0.7
	c-0.6,0.2-3.1,0.2-3.1,0.2s-2.5,0-3.1-0.2c-0.3-0.1-0.6-0.4-0.7-0.7C211,36.3,211,35,211,35s0-1.3,0.2-1.9c0.1-0.3,0.4-0.6,0.7-0.7
	c0.6-0.2,3.1-0.2,3.1-0.2S217.5,32.2,218.1,32.4z M214.2,33.8v2.4l2.1-1.2L214.2,33.8z"/>
<g>
	<g>
		
			<linearGradient id="SVGID_10_" gradientUnits="userSpaceOnUse" x1="151.9999" y1="11.8786" x2="167.9999" y2="11.8786" gradientTransform="matrix(1 0 0 -1 1.120000e-06 146.044)">
			<stop  offset="0" style="stop-color:#00C6FB"/>
			<stop  offset="1" style="stop-color:#B2FB70"/>
		</linearGradient>
		<path class="st20" d="M157,126.2h6c2.8,0,5,2.2,5,5v6c0,2.8-2.2,5-5,5h-6c-2.8,0-5-2.2-5-5v-6C152,128.4,154.2,126.2,157,126.2z"
			/>
	</g>
	
		<linearGradient id="SVGID_11_" gradientUnits="userSpaceOnUse" x1="148.5999" y1="11.8786" x2="160.8999" y2="11.8786" gradientTransform="matrix(1 0 0 -1 1.120000e-06 146.044)">
		<stop  offset="0" style="stop-color:#FFFFFF;stop-opacity:0"/>
		<stop  offset="1" style="stop-color:#FFFFFF;stop-opacity:0.6"/>
	</linearGradient>
	<path class="st21" d="M160.1,129.2c2.7,0,4.8,2.1,4.9,4.7c0,0,0,0.1,0,0.1c0,2.7-2.2,4.9-4.9,4.9c-0.8,0-1.6-0.2-2.4-0.6l-2.7,0.9
		l0.9-2.6c-0.5-0.8-0.7-1.6-0.7-2.5c0-0.1,0-0.1,0-0.2C155.3,131.2,157.5,129.2,160.1,129.2z M157.8,137.5c0.7,0.4,1.5,0.7,2.3,0.7
		c2.3,0,4.1-1.8,4.1-4.1c0-0.1,0-0.2,0-0.3c-0.2-2.1-1.9-3.8-4.1-3.8c-2.1,0-3.9,1.6-4.1,3.7c0,0.1,0,0.3,0,0.4
		c0,0.9,0.3,1.7,0.8,2.4l-0.5,1.5L157.8,137.5z"/>
	
		<linearGradient id="SVGID_12_" gradientUnits="userSpaceOnUse" x1="185.1873" y1="11.1372" x2="160.9553" y2="11.9352" gradientTransform="matrix(1 0 0 -1 1.120000e-06 146.044)">
		<stop  offset="0" style="stop-color:#FFFFFF;stop-opacity:0"/>
		<stop  offset="1" style="stop-color:#FFFFFF;stop-opacity:0.6"/>
	</linearGradient>
	<path class="st22" d="M162.3,135c-0.1-0.1-0.7-0.3-0.8-0.4c-0.1,0-0.2-0.1-0.3,0.1s-0.3,0.4-0.4,0.5c-0.1,0.1-0.1,0.1-0.3,0
		c-0.1-0.1-0.5-0.2-1-0.6c-0.3-0.2-0.5-0.5-0.7-0.8c-0.1-0.1,0-0.2,0.1-0.2s0.1-0.1,0.2-0.2c0,0,0,0,0-0.1c0,0,0.1-0.1,0.1-0.1
		c0-0.1,0-0.1,0-0.2c0-0.1-0.3-0.6-0.4-0.9c-0.1-0.2-0.2-0.2-0.3-0.2s-0.2,0-0.2,0c-0.1,0-0.2,0.1-0.3,0.2c-0.1,0.1-0.4,0.4-0.4,1
		c0,0.1,0,0.3,0.1,0.4c0.1,0.3,0.2,0.6,0.4,0.8c0.1,0.1,0.8,1.3,2.1,1.8c1.2,0.5,1.2,0.3,1.4,0.3s0.7-0.3,0.8-0.6s0.1-0.5,0.1-0.6
		S162.5,135.1,162.3,135L162.3,135z"/>
</g>
<g>
	<g>
		
			<linearGradient id="SVGID_13_" gradientUnits="userSpaceOnUse" x1="45.1599" y1="97.0441" x2="63.4999" y2="97.0441" gradientTransform="matrix(1 0 0 -1 1.120000e-06 146.044)">
			<stop  offset="0" style="stop-color:#2DE4BF"/>
			<stop  offset="1" style="stop-color:#008CFF"/>
		</linearGradient>
		<path class="st23" d="M54.5,42h4c2.8,0,5,2.2,5,5v4c0,2.8-2.2,5-5,5h-4c-2.8,0-5-2.2-5-5v-4C49.5,44.2,51.7,42,54.5,42z"/>
	</g>
	
		<linearGradient id="SVGID_14_" gradientUnits="userSpaceOnUse" x1="52.4999" y1="97.0441" x2="60.4999" y2="97.0441" gradientTransform="matrix(1 0 0 -1 1.120000e-06 146.044)">
		<stop  offset="0" style="stop-color:#FFFFFF;stop-opacity:0"/>
		<stop  offset="1" style="stop-color:#FFFFFF"/>
	</linearGradient>
	<path class="st24" d="M52.5,51.5c0.8,0.5,1.6,0.7,2.5,0.7c3,0,4.8-2.6,4.7-4.9c0.3-0.2,0.6-0.5,0.8-0.8c-0.3,0.1-0.6,0.2-0.9,0.3
		c0.3-0.2,0.6-0.5,0.7-0.9c-0.3,0.2-0.7,0.3-1,0.4c-0.5-0.5-1.3-0.7-2-0.3c-0.7,0.4-1,1.1-0.8,1.8c-1.3-0.1-2.6-0.7-3.4-1.7
		c-0.4,0.8-0.2,1.7,0.5,2.2c-0.3,0-0.5-0.1-0.7-0.2c0,0.8,0.5,1.5,1.3,1.6c-0.2,0.1-0.5,0.1-0.7,0c0.2,0.7,0.8,1.1,1.5,1.1
		C54.2,51.4,53.4,51.6,52.5,51.5z"/>
</g>
<g class="st25">
	<g>
		<g>
			<path class="st16" d="M136.7,83.1c0,1.8-1.5,3.3-3.3,3.3h-4.1c-1.8,0-3.3-1.5-3.3-3.3V79c0-1.8,1.5-3.3,3.3-3.3h4.1
				c1.8,0,3.3,1.5,3.3,3.3V83.1z"/>
		</g>
	</g>
	<g>
		<g>
			<path class="st16" d="M136.7,69.9c0,1.8-1.5,3.3-3.3,3.3h-4.1c-1.8,0-3.3-1.5-3.3-3.3v-4.1c0-1.8,1.5-3.3,3.3-3.3h4.1
				c1.8,0,3.3,1.5,3.3,3.3V69.9z"/>
		</g>
	</g>
	<g>
		<g>
			<path class="st16" d="M149.3,86.6H141c-1.4,0-2.6-1.2-2.6-2.7v-2.4c0-0.9,0.2-1.7,0.5-2.5c0.3-0.8,0.8-1.5,1.4-2
				c0.1-0.1,0.2-0.2,0.4-0.3c0.6-0.6,1.5-1.4,1.5-2.1v-0.3c0-1-0.8-1.9-1.3-2.4c-1.6-1.6-2.4-3.1-2.4-4.5V65c0-1.5,1.2-2.7,2.6-2.7
				h8.2c1.4,0,2.6,1.2,2.6,2.7v2.4c0,1.5-0.8,2.9-2.4,4.5c-0.5,0.5-1.3,1.4-1.3,2.4v0.3c0,0.7,0.9,1.5,1.5,2.1
				c0.1,0.1,0.3,0.2,0.4,0.3c0.6,0.6,1.1,1.3,1.4,2c0.3,0.8,0.5,1.7,0.5,2.5v2.4C151.8,85.4,150.7,86.6,149.3,86.6z M148.7,68.5
				h-7.1c-0.1,0-0.2,0.1-0.2,0.2c0,0.1,0,0.2,0,0.3c1.1,1.3,2.2,1.8,3.2,2v9.6l-3.5,1.3c-0.2,0.1-0.4,0.3-0.4,0.6v0.7
				c0,0.3,0.3,0.6,0.6,0.6h7.8c0.3,0,0.6-0.3,0.6-0.6v-0.7c0-0.3-0.2-0.5-0.4-0.6l-3.7-1.4V71c1.6-0.2,2.8-1.3,3.4-2
				c0.1-0.1,0.1-0.2,0-0.3C148.9,68.6,148.8,68.5,148.7,68.5z"/>
		</g>
	</g>
</g>
</svg>
