<svg xmlns="http://www.w3.org/2000/svg" xmlns:xlink="http://www.w3.org/1999/xlink" width="56" height="55.309" viewBox="0 0 56 55.309">
  <defs>
    <rect id="rect-2" width="32" height="32" x="12" y="11.654"/>
    <mask id="mask-3" maskContentUnits="userSpaceOnUse" maskUnits="userSpaceOnUse">
      <rect width="56" height="55.309" x="0" y="0" fill="black"/>
      <use fill="white" xlink:href="#rect-2"/>
    </mask>
  </defs>
  <g>
    <path fill="rgb(219,228,255)" fill-rule="evenodd" d="M27.65432099 0h.69135802C43.60851426 0 56 12.39148574 56 27.65432099c2.3e-7 15.26283483-12.39148533 27.65432076-27.65432058 27.65432099H27.654321C12.39148574 55.30864198 0 42.91715623 0 27.65432098-2.3e-7 12.39148616 12.39148533 2.4e-7 27.65432058 0z"/>
    <g>
      <use fill="none" xlink:href="#rect-2"/>
      <g mask="url(#mask-3)">
        <path fill="rgb(71,114,229)" fill-rule="evenodd" d="M17.87051773 26.39565277h4.22133446c1.86674309-.00212097 3.37950706-1.51488495 3.38162803-3.38162804v-4.22133445c-.00212097-1.86674118-1.51488494-3.37950611-3.38162803-3.381629h-4.22133446c-1.86674118.00212289-3.37950611 1.51488782-3.38162899 3.381629v4.22133445c.00212288 1.8667431 1.51488781 3.37950707 3.381629 3.38162804zm-2.19644356-7.6029625c.00146962-1.21245193.98399163-2.1949749 2.19644356-2.19644355h4.22133446c1.21245384.00146866 2.1949749.98399162 2.19644356 2.19644356v4.22133445c-.00146866 1.21245385-.98398972 2.1949749-2.19644356 2.19644356h-4.22133446c-1.21245193-.00146866-2.19497394-.98398971-2.19644356-2.19644356v-4.22133445z"/>
        <path fill="rgb(71,114,229)" fill-rule="evenodd" d="M17.87051773 39.93431854h4.22133446c1.86674309-.00212097 3.37950706-1.51488495 3.38162803-3.38162613V32.3316536c-.00195694-1.86685752-1.5147705-3.3798027-3.38162803-3.38192558h-4.22133446c-1.86685753.00212288-3.37966919 1.51506806-3.38162899 3.38192558v4.22103882c.00212288 1.86674118 1.51488781 3.37950516 3.381629 3.38162613zm-2.19644356-7.60266495c.00130654-1.21256828.98387528-2.19526863 2.19644356-2.1967392h4.22133446c1.21256828.00147057 2.19513893.98417092 2.19644356 2.1967392v4.22103882c-.00146866 1.21245194-.98398972 2.194973-2.19644356 2.19644547h-4.22133446c-1.21245193-.00147247-2.19497394-.98399353-2.19644356-2.19644547V32.3316536z"/>
        <path fill="rgb(71,114,229)" fill-rule="evenodd" d="M29.8752594 40.065876h8.414814c1.44918441 0 2.62844467-1.22933196 2.62844467-2.73984908v-2.4225235c.00218963-.88531494-.17395783-1.76200867-.51792527-2.57777405-.3270607-.77941895-.80633926-1.4857483-1.4097786-2.077631-.11585235-.11496162-.24059295-.2317028-.37274169-.35555458-.64029312-.60059356-1.51733017-1.42281532-1.51733017-2.10755539v-.26133346c0-1.0177784.82577896-1.9792595 1.31822205-2.4619255 1.68207168-1.64859391 2.49955368-3.17185212 2.49955368-4.6562977v-2.42251777c0-1.51081467-1.17926026-2.74014854-2.62844468-2.74014854h-8.414814c-1.44948005 0-2.62844466 1.22903633-2.62844466 2.74014854v2.42222214c0 1.48592567.817482 3.00770378 2.49955559 4.65629577.49244499.48266602 1.31822395 1.44414902 1.31822395 2.46192551v.26133347c0 .68533325-.87703705 1.50696373-1.51733399 2.10755539-.13214874.12503814-.25688934.24177932-.37303733.35555648-.60325241.59197426-1.08241845 1.29828644-1.40948105 2.0776291-.34396935.81576919-.520113 1.6924591-.51792717 2.57777786v2.42251968c0 1.51081467 1.17896461 2.74014664 2.62844467 2.74014664zm-1.48444557-22.08296203c0-.8802967.66577911-1.59644508 1.48444557-1.59644508H38.288002c.81866455 0 1.48444367.71614837 1.48444367 1.59644508v2.42251778c0 1.1611843-.70429993 2.41718483-2.15615082 3.83940696-.75822067.74281502-1.66162872 1.9158516-1.66162872 3.27881623v.26133346c0 1.18044281 1.04177856 2.15703583 1.8788147 2.94192505.1282959.11940766.24859237.232296.35555648.33688736 1.00681305.98696518 1.58429337 2.38755417 1.58429337 3.83940888v2.42251968c0 .8802948-.6657753 1.59644318-1.48444367 1.59644318h-8.414814c-.81866645 0-1.48444366-.71614838-1.48444366-1.59644318v-2.42251968c0-1.45303727.57688904-2.8524437 1.58429718-3.83940888.10814667-.10459137.22844315-.21836853.35555458-.33688736.83733368-.78488922 1.87911034-1.76148224 1.87911034-2.94192505v-.26133346c0-1.3641491-.90340614-2.5360012-1.66162872-3.27881623-1.45096207-1.42251777-2.15614891-2.67822265-2.15614891-3.83940696v-2.42251778z"/>
        <path fill="rgb(71,114,229)" fill-rule="evenodd" d="M30.44177778 21.58469136h7.29392592c.10876017-.00005584.20740143.063799.25187572.16305027.0444743.09925126.02647913.21537065-.04594979.29650528-1.05155556 1.18044445-4.18725926 3.9602963-7.70607407 0-.07218872-.08125616-.08999828-.19730103-.04549896-.29646546.04449933-.09916444.14303002-.16300245.25172118-.1630901z"/>
        <rect width=".572" height="10.524" x="33.797" y="23.593" fill="rgb(71,114,229)" rx="0" ry="0"/>
        <path fill="rgb(71,114,229)" fill-rule="evenodd" d="M33.86666667 33.73965432l-3.9525926 1.45748148c-.24444155.09020099-.40679683.32315066-.40681481.5837037v.71762964c0 .34364384.27857838.62222222.62222222.62222222h7.96444445c.34364384 0 .62222222-.27857838.62222222-.62222222v-.68977778c.00000984-.25988321-.16149918-.4923995-.40503704-.58311111l-4.01274074-1.48562963c-.1392215-.05179907-.29241123-.05190421-.4317037-.0002963z"/>
      </g>
    </g>
  </g>
</svg>
