<svg id="Layer_1" data-name="Layer 1" xmlns="http://www.w3.org/2000/svg" xmlns:xlink="http://www.w3.org/1999/xlink" viewBox="0 0 220 180"><defs><style>.cls-1,.cls-10{fill:#008cff;}.cls-1,.cls-10,.cls-11,.cls-29,.cls-30,.cls-31,.cls-9{fill-rule:evenodd;}.cls-1{opacity:0.05;}.cls-2{opacity:0.8;}.cls-3{fill:url(#linear-gradient);}.cls-4{fill:url(#linear-gradient-2);}.cls-5,.cls-7{opacity:0.7;}.cls-5{fill:url(#linear-gradient-3);}.cls-6{fill:url(#linear-gradient-4);}.cls-7{fill:url(#linear-gradient-5);}.cls-8{fill:url(#linear-gradient-6);}.cls-9{fill:#02ccaa;}.cls-11{fill:#ea3940;}.cls-12{fill:url(#linear-gradient-7);}.cls-13{fill:url(#linear-gradient-8);}.cls-14{fill:url(#linear-gradient-9);}.cls-15{fill:url(#linear-gradient-10);}.cls-16{fill:url(#linear-gradient-11);}.cls-17{fill:url(#linear-gradient-12);}.cls-18{fill:url(#linear-gradient-13);}.cls-19{fill:url(#linear-gradient-14);}.cls-20{fill:url(#linear-gradient-15);}.cls-21{fill:url(#linear-gradient-16);}.cls-22{fill:url(#linear-gradient-17);}.cls-23{fill:url(#linear-gradient-18);}.cls-24{fill:url(#linear-gradient-19);}.cls-25{fill:url(#linear-gradient-20);}.cls-26{fill:url(#linear-gradient-21);}.cls-27{fill:url(#linear-gradient-22);}.cls-28{fill:url(#linear-gradient-23);}.cls-29{fill:url(#linear-gradient-24);}.cls-30{fill:url(#linear-gradient-25);}.cls-31{fill:url(#linear-gradient-26);}</style><linearGradient id="linear-gradient" x1="89.45" y1="144.71" x2="102.84" y2="144.71" gradientUnits="userSpaceOnUse"><stop offset="0" stop-color="#00c6fb"/><stop offset="1" stop-color="#b2fb70"/></linearGradient><linearGradient id="linear-gradient-2" x1="92.98" y1="144.71" x2="99.31" y2="144.71" gradientUnits="userSpaceOnUse"><stop offset="0" stop-color="#fff" stop-opacity="0"/><stop offset="1" stop-color="#fff" stop-opacity="0.6"/></linearGradient><linearGradient id="linear-gradient-3" x1="164.93" y1="67.3" x2="178.1" y2="67.3" gradientUnits="userSpaceOnUse"><stop offset="0" stop-color="#58a0ff"/><stop offset="0.45" stop-color="#5888ff"/><stop offset="1" stop-color="#5966ff"/></linearGradient><linearGradient id="linear-gradient-4" x1="167.98" y1="67.31" x2="174.98" y2="67.31" xlink:href="#linear-gradient-2"/><linearGradient id="linear-gradient-5" x1="58.1" y1="52.34" x2="71.59" y2="52.34" gradientUnits="userSpaceOnUse"><stop offset="0" stop-color="#fff050"/><stop offset="0.41" stop-color="#ffd84c"/><stop offset="1" stop-color="#ffae46"/></linearGradient><linearGradient id="linear-gradient-6" x1="61.55" y1="52.38" x2="68.17" y2="52.38" xlink:href="#linear-gradient-2"/><linearGradient id="linear-gradient-7" x1="131.62" y1="106.8" x2="137.86" y2="106.8" gradientUnits="userSpaceOnUse"><stop offset="0" stop-color="#ff9494"/><stop offset="1" stop-color="#e42376"/></linearGradient><linearGradient id="linear-gradient-8" x1="136.98" y1="97.93" x2="143.78" y2="97.93" xlink:href="#linear-gradient-7"/><linearGradient id="linear-gradient-9" x1="139.45" y1="87.73" x2="146.5" y2="87.73" xlink:href="#linear-gradient-7"/><linearGradient id="linear-gradient-10" x1="144.63" y1="87.74" x2="144.64" y2="87.74" xlink:href="#linear-gradient-7"/><linearGradient id="linear-gradient-11" x1="138.87" y1="77.12" x2="145.85" y2="77.12" xlink:href="#linear-gradient-7"/><linearGradient id="linear-gradient-12" x1="135.38" y1="67.81" x2="141.94" y2="67.81" xlink:href="#linear-gradient-7"/><linearGradient id="linear-gradient-13" x1="140" y1="66.47" x2="140" y2="66.47" xlink:href="#linear-gradient-7"/><linearGradient id="linear-gradient-14" x1="128.83" y1="59.18" x2="134.76" y2="59.18" xlink:href="#linear-gradient-7"/><linearGradient id="linear-gradient-15" x1="132.58" y1="58.1" x2="132.85" y2="58.1" xlink:href="#linear-gradient-7"/><linearGradient id="linear-gradient-16" x1="132.92" y1="57.88" x2="132.93" y2="57.88" xlink:href="#linear-gradient-7"/><linearGradient id="linear-gradient-17" x1="132.75" y1="57.88" x2="132.76" y2="57.88" xlink:href="#linear-gradient-7"/><linearGradient id="linear-gradient-18" x1="120.4" y1="53.56" x2="125.42" y2="53.56" xlink:href="#linear-gradient-7"/><linearGradient id="linear-gradient-19" x1="123.42" y1="52.01" x2="123.43" y2="52.01" xlink:href="#linear-gradient-7"/><linearGradient id="linear-gradient-20" x1="99.92" y1="51.61" x2="104.32" y2="51.61" xlink:href="#linear-gradient-7"/><linearGradient id="linear-gradient-21" x1="101.7" y1="50.03" x2="101.7" y2="50.03" xlink:href="#linear-gradient-7"/><linearGradient id="linear-gradient-22" x1="110.73" y1="50.95" x2="114.69" y2="50.95" xlink:href="#linear-gradient-7"/><linearGradient id="linear-gradient-23" x1="73.5" y1="86.77" x2="130.38" y2="86.77" xlink:href="#linear-gradient-7"/><linearGradient id="linear-gradient-24" x1="117.04" y1="67.09" x2="81.81" y2="119.15" xlink:href="#linear-gradient-7"/><linearGradient id="linear-gradient-25" x1="108.22" y1="61.12" x2="72.99" y2="113.18" xlink:href="#linear-gradient-7"/><linearGradient id="linear-gradient-26" x1="126.19" y1="73.29" x2="90.96" y2="125.34" xlink:href="#linear-gradient-7"/></defs><title>dal-image-no-data-show</title><path class="cls-1" d="M194.48,44.47a7.82,7.82,0,0,0-10.67-2.86L144,64.61a7.81,7.81,0,0,0-9.24-12.47l-.75.44a8.15,8.15,0,0,1,1.43-1.06l20.3-11.73a7.81,7.81,0,0,0-6.18-14.24l11.22-6.48a7.81,7.81,0,1,0-7.82-13.52L24.36,79.77A7.81,7.81,0,1,0,32.18,93.3l13.53-7.81A7.81,7.81,0,0,1,53.52,99L26.47,114.64a7.82,7.82,0,0,0,7.81,13.54l12.79-7.39a7.82,7.82,0,0,0,9.24,12.48L28.56,149.52a7.81,7.81,0,1,0,7.81,13.53l39.85-23a7.81,7.81,0,0,0,9.24,12.47l94.72-54.69A7.81,7.81,0,0,0,173,84a7.81,7.81,0,0,0-9.12-12.58l27.73-16.25a7.81,7.81,0,0,0,2.86-10.67Z"/><g class="cls-2"><rect class="cls-3" x="89.45" y="138.01" width="13.39" height="13.39" rx="6.7"/><polygon class="cls-4" points="96.14 141.7 92.98 144 94.19 147.71 98.1 147.71 99.31 144 96.14 141.7"/></g><g class="cls-2"><rect class="cls-5" x="164.93" y="60.71" width="13.17" height="13.17" rx="6.59"/><polygon class="cls-6" points="173.23 64.28 169.73 64.28 167.98 67.31 169.73 70.33 173.23 70.33 174.98 67.31 173.23 64.28"/></g><g class="cls-2"><rect class="cls-7" x="58.1" y="45.6" width="13.49" height="13.49" rx="6.75"/><polygon class="cls-8" points="64.86 49.24 65.64 51.64 68.17 51.64 66.13 53.13 66.91 55.53 64.86 54.04 62.82 55.53 63.6 53.13 61.55 51.64 64.08 51.64 64.86 49.24"/></g><path class="cls-9" d="M189.69,23.11,195.55,29l5.87-5.87-5.87-5.86Zm5.86,4.33-4.31-4.33,4.31-4.28,4.3,4.3Z"/><path class="cls-9" d="M2.5,115.78l5.86,5.86,5.87-5.86-5.87-5.86Zm5.86,4.31-4.31-4.31,4.31-4.31,4.3,4.31Z"/><path class="cls-10" d="M66.25,174.38a4.14,4.14,0,1,0,4.14-4.14A4.14,4.14,0,0,0,66.25,174.38Zm1.11,0a3,3,0,1,1,3,3A3,3,0,0,1,67.36,174.37Z"/><path class="cls-10" d="M100.31,5.62a4.14,4.14,0,0,0,4.14,4.14,4.15,4.15,0,0,0,4.15-4.14,4.15,4.15,0,0,0-8.29,0Zm1.33-1.16a3.05,3.05,0,1,1,.67,3.32A3,3,0,0,1,101.64,4.46Z"/><path class="cls-10" d="M209.22,87.34a4.14,4.14,0,1,0,4.14-4.14A4.14,4.14,0,0,0,209.22,87.34Zm1.32-1.17a3,3,0,1,1,.65,3.32A3,3,0,0,1,210.54,86.17Z"/><path class="cls-11" d="M170.71,163.74h8.93L175.17,156Zm7-1.1H172.6l2.58-4.45Z"/><path class="cls-11" d="M34.74,33.17h8.93l-4.48-7.73Zm7-1.09H36.64l2.57-4.46Z"/><polygon points="145.09 107.67 145.28 107.85 145.29 107.84 145.09 107.67"/><path d="M145.35,107.77Z"/><path class="cls-12" d="M136,109.76a1.74,1.74,0,0,1-1.21-.48l-2.58-2.41a1.74,1.74,0,0,1-.12-2.44l.14-.13a1.74,1.74,0,0,1,2.32-.06l2.71,2.27a1.73,1.73,0,0,1,.62,1.21,1.8,1.8,0,0,1-.42,1.29l-.17.18a1.72,1.72,0,0,1-1.23.57Z"/><path class="cls-13" d="M142,100.43a1.83,1.83,0,0,1-.76-.17L138,98.77a1.75,1.75,0,0,1-.87-2.27l.18-.31a1.74,1.74,0,0,1,2.1-.64l3.28,1.33a1.77,1.77,0,0,1,1,1,1.8,1.8,0,0,1,0,1.35l-.09.22a1.76,1.76,0,0,1-1,.93A1.61,1.61,0,0,1,142,100.43Z"/><path class="cls-14" d="M144.73,89.71h-.2L141,89.27a1.78,1.78,0,0,1-1.53-1.57l0,0,0-.32a1.76,1.76,0,0,1,1.87-1.59l3.53.25a1.78,1.78,0,0,1,1.21.61,1.76,1.76,0,0,1,.41,1.3l0,.23A1.75,1.75,0,0,1,144.73,89.71Z"/><path class="cls-15" d="M144.63,87.74h0Z"/><path class="cls-16" d="M140.61,79.32a1.77,1.77,0,0,1-.42-3.49l3.43-.85a1.74,1.74,0,0,1,2.14,1.31l.05.23a1.75,1.75,0,0,1-.25,1.34,1.77,1.77,0,0,1-1.13.75l-3.48.67A1.27,1.27,0,0,1,140.61,79.32Z"/><path class="cls-17" d="M137.74,70.46a1.73,1.73,0,0,1-2.07-.71,1.75,1.75,0,0,1,.48-2.42l2.94-2a1.74,1.74,0,0,1,2.45.5l.13.2a1.79,1.79,0,0,1,.22,1.35,1.77,1.77,0,0,1-.8,1.09l-3,1.82A1.77,1.77,0,0,1,137.74,70.46Z"/><polygon class="cls-18" points="140 66.47 140 66.47 140 66.47 140 66.47"/><path class="cls-19" d="M130.59,62.3a1.77,1.77,0,0,1-1.17-.45l-.13-.13a1.76,1.76,0,0,1-.06-2.32l2.27-2.71a1.75,1.75,0,0,1,2.5-.2l.19.17a1.75,1.75,0,0,1,.1,2.49l-2.41,2.59A1.74,1.74,0,0,1,130.59,62.3Z"/><polygon class="cls-20" points="132.83 57.95 132.58 58.25 132.85 57.97 132.83 57.95"/><polygon class="cls-21" points="132.92 57.88 132.92 57.89 132.93 57.88 132.92 57.88"/><polygon class="cls-22" points="132.75 57.88 132.75 57.88 132.76 57.88 132.75 57.88"/><path class="cls-23" d="M122.18,57a1.79,1.79,0,0,1-.72-.15l-.32-.2a1.74,1.74,0,0,1-.61-2.07l1.32-3.29a1.72,1.72,0,0,1,1-1,1.75,1.75,0,0,1,1.35,0l.21.09a1.79,1.79,0,0,1,1,1,1.83,1.83,0,0,1,0,1.36l-1.49,3.21a1.77,1.77,0,0,1-1,.92A1.88,1.88,0,0,1,122.18,57Z"/><polygon class="cls-24" points="123.42 52.01 123.42 52.01 123.43 52.01 123.42 52.01"/><path class="cls-25" d="M102.53,55.1a1.77,1.77,0,0,1-1.7-1.33L100,50.34a1.8,1.8,0,0,1,.2-1.34,1.76,1.76,0,0,1,1.11-.79l.22-.05a1.75,1.75,0,0,1,2.11,1.37l.67,3.47a1.74,1.74,0,0,1-1.18,2l-.18,0A1.74,1.74,0,0,1,102.53,55.1Z"/><polygon class="cls-26" points="101.7 50.02 101.7 50.02 101.7 50.03 101.7 50.02"/><path class="cls-27" d="M112.51,54.47h-.17a1.76,1.76,0,0,1-1.61-1.86l.25-3.54a1.76,1.76,0,0,1,.61-1.21,1.78,1.78,0,0,1,1.29-.41l.23,0a1.75,1.75,0,0,1,1.57,2l-.43,3.51A1.74,1.74,0,0,1,112.51,54.47Z"/><path class="cls-28" d="M109.9,120.56A36.34,36.34,0,0,1,90.58,53.4,2.71,2.71,0,1,1,93.46,58a30.92,30.92,0,0,0,32.77,52.45,2.69,2.69,0,0,1,2-.35,2.72,2.72,0,0,1,1.69,1.21,2.72,2.72,0,0,1-.86,3.74A36.19,36.19,0,0,1,109.9,120.56Z"/><path class="cls-29" d="M106.19,97.48a4.74,4.74,0,0,1-4.75,4.74H95.52a4.75,4.75,0,0,1-4.75-4.74V91.55a4.76,4.76,0,0,1,4.75-4.75h5.92a4.75,4.75,0,0,1,4.75,4.75Z"/><path class="cls-30" d="M106.19,78.47a4.75,4.75,0,0,1-4.75,4.75H95.52a4.76,4.76,0,0,1-4.75-4.75V72.54a4.75,4.75,0,0,1,4.75-4.74h5.92a4.74,4.74,0,0,1,4.75,4.74Z"/><path class="cls-31" d="M124.19,102.41H112.37a3.78,3.78,0,0,1-3.69-3.85v-3.4a9.4,9.4,0,0,1,.73-3.62,8.9,8.9,0,0,1,2-2.91l.52-.5c.9-.85,2.13-2,2.13-3V84.8a5.49,5.49,0,0,0-1.85-3.46c-2.36-2.31-3.51-4.45-3.51-6.53v-3.4a3.78,3.78,0,0,1,3.69-3.85h11.82a3.78,3.78,0,0,1,3.69,3.85v3.4c0,2.08-1.15,4.22-3.51,6.53a5.49,5.49,0,0,0-1.85,3.46v.37c0,1,1.23,2.11,2.13,3,.18.17.36.33.52.5a8.9,8.9,0,0,1,2,2.91,9.4,9.4,0,0,1,.73,3.62v3.4A3.78,3.78,0,0,1,124.19,102.41Zm-.78-25.95H113.17a.4.4,0,0,0-.36.23.41.41,0,0,0,.07.42,7.7,7.7,0,0,0,4.56,2.82V93.72l-5,1.85a.87.87,0,0,0-.57.82v1a.87.87,0,0,0,.87.87h11.18a.87.87,0,0,0,.87-.87v-1a.88.88,0,0,0-.56-.82l-5.34-2V80a8.31,8.31,0,0,0,4.82-2.84.4.4,0,0,0,.06-.42A.38.38,0,0,0,123.41,76.46Z"/></svg>