<svg xmlns="http://www.w3.org/2000/svg" width="18.792" height="24" viewBox="0 0 18.792 24">
  <g>
    <path fill="rgb(255,74,77)" fill-rule="evenodd" d="M11.40161133 1.44873047h-4.0111084v.67492676H5.94177246v-.76940918C5.94177246.60754395 6.5489502 0 7.2952881 0h4.20153808c.7463379 0 1.35351563.60754395 1.35339356 1.35424805v.76940918h-1.4486084v-.67492676z"/>
    <path fill="rgb(255,74,77)" fill-rule="evenodd" d="M16.19555664 7.86328125H2.5966797c-.37268067 0-.66601563.3178711-.63598633.68939209l1.13696289 14.05813599c.0633545.78479004.7178955 1.38922119 1.50439453 1.38922119h9.58789063c.78649902 0 1.44104004-.60443115 1.50439453-1.3894043l1.13696289-14.05795288c.03015137-.371521-.2631836-.68939209-.63574219-.68939209zM9.4041748 22.50183105c.40014649 0 .72436524-.32427978.72436524-.72418212v-11.5411377c0-.40008545-.3244629-.72436523-.72436524-.72436523-.4000244 0-.72436523.32427978-.72436523.72436523v11.5411377c0 .39990234.32434082.72418212.72436523.72418212zm4.9786377-12.22265625l-.68029785 11.5409546c-.02246094.38488769-.34179688.68170165-.72229004.68170165-.01428223 0-.0288086-.0003662-.0432129-.00109863-.39941405-.0236206-.70410155-.36639404-.68041991-.76574707l.6800537-11.5411377c.0234375-.39935302.36511231-.70404052.76550294-.68041992.39941406.0234375.70410156.36639405.68066406.76574707zM5.88952637 22.50054932c-.0152588.00091552-.03039551.00146484-.04541016.00146484-.37976074 0-.6986084-.29571533-.72216797-.6798706l-.71252441-11.5409546c-.02453613-.39935302.27929687-.74304199.6784668-.76757812.39782714-.02416992.74304199.27886963.76757812.67840576l.71228027 11.5409546c.0246582.39935302-.27905273.74285888-.67822265.76757812z"/>
    <path fill="rgb(255,74,77)" fill-rule="evenodd" d="M18.70039775 5.62793876l-.47570861-1.42602661c-.12542732-.37591586-.47735627-.62951737-.87377996-.62951737H1.44104163c-.3962404 0-.74835264.25360151-.87359714.62951737L.09173588 5.62793923C0 5.90296404.11938465 6.18348168.3422244 6.32337463c.0908204.05694569.19830349.0911865.31640658.0911865h17.47487165c.11810309 0 .22576945-.03424081.31640657-.09136978.22283976-.13989249.34222441-.42041059.25048854-.69525212v-4.7e-7z"/>
  </g>
</svg>
