<svg id="Layer_1" data-name="Layer 1" xmlns="http://www.w3.org/2000/svg" xmlns:xlink="http://www.w3.org/1999/xlink" viewBox="0 0 280 175"><defs><style>.cls-1{opacity:0.05;}.cls-2{fill:#008cff;}.cls-10,.cls-12,.cls-15,.cls-16,.cls-17,.cls-18,.cls-2,.cls-3,.cls-4,.cls-5,.cls-6,.cls-8{fill-rule:evenodd;}.cls-3{fill:#02ccaa;}.cls-4{fill:#662d91;}.cls-5{fill:#fbb03b;}.cls-6{fill:#fff;}.cls-7{fill:#c0ffe1;}.cls-8{fill:#e6f3fc;}.cls-9{opacity:0.2;}.cls-11{fill:#d9aeff;}.cls-12{fill:#b3b3b3;}.cls-13{fill:#ffeacf;}.cls-14{fill:#ffd4d9;}.cls-15{fill:#e87072;}.cls-16{fill:url(#linear-gradient);}.cls-17{fill:url(#linear-gradient-2);}.cls-18{fill:#0063f2;}</style><linearGradient id="linear-gradient" x1="103.22" y1="-291.21" x2="133.1" y2="-291.21" gradientTransform="matrix(1, 0, 0, -1, 0, -223)" gradientUnits="userSpaceOnUse"><stop offset="0" stop-color="#005bea"/><stop offset="1" stop-color="#00c6fb"/></linearGradient><linearGradient id="linear-gradient-2" x1="109.24" y1="-342.09" x2="160.94" y2="-342.09" xlink:href="#linear-gradient"/></defs><title>delete-illust</title><g class="cls-1"><path class="cls-2" d="M225,47.47a7.85,7.85,0,0,0-10.73-2.87l-40.1,23.14a7.86,7.86,0,0,0-9.3-12.55l-.75.44a8.35,8.35,0,0,1,1.44-1.06L186,42.77a7.86,7.86,0,0,0-6.22-14.33l11.29-6.52a7.86,7.86,0,1,0-7.86-13.61L53.83,83A7.86,7.86,0,0,0,61.69,96.6l13.62-7.86a7.86,7.86,0,1,1,7.86,13.62L56,118.08a7.86,7.86,0,0,0,7.86,13.62l12.87-7.43A7.86,7.86,0,0,0,86,136.82L58.06,153.17a7.86,7.86,0,0,0,7.86,13.62L106,143.64a7.86,7.86,0,0,0,9.29,12.55l95.32-55a7.86,7.86,0,0,0-7.23-13.94,7.86,7.86,0,0,0-9.18-12.66l27.91-16.35A7.87,7.87,0,0,0,225,47.47Z"/></g><path class="cls-3" d="M241.18,13.48l5.9,5.91,5.9-5.91-5.9-5.89Zm5.9,4.36-4.34-4.36,4.34-4.31,4.33,4.33Z"/><path class="cls-3" d="M9.83,118.73l5.9,5.89,5.9-5.89-5.9-5.9Zm5.9,4.33-4.34-4.33,4.34-4.34,4.33,4.34Z"/><path class="cls-3" d="M226,148.12l4.67,4.67,4.68-4.67-4.68-4.68Zm4.67,3.11-3.11-3.11,3.11-3.12,3.12,3.12Z"/><path class="cls-4" d="M94,162.69a4.17,4.17,0,1,0,4.16-4.17A4.16,4.16,0,0,0,94,162.69Zm1.12,0a3.06,3.06,0,1,1,3.06,3A3,3,0,0,1,95.1,162.68Z"/><path class="cls-4" d="M122.25,13.88a4.17,4.17,0,1,0,4.17-4.16A4.17,4.17,0,0,0,122.25,13.88Zm1.34-1.16a3.06,3.06,0,0,1,2.83-1.9,3.06,3.06,0,0,1,3.07,3.06,3.07,3.07,0,1,1-5.9-1.16Z"/><path class="cls-2" d="M261.84,90.61A4.17,4.17,0,1,0,266,86.45,4.17,4.17,0,0,0,261.84,90.61Zm1.32-1.18a3.07,3.07,0,1,1,.66,3.35A3.06,3.06,0,0,1,263.16,89.43Z"/><path class="cls-5" d="M25.3,23.69h9l-4.5-7.79Zm7.08-1.11H27.2l2.59-4.48Z"/><path class="cls-5" d="M148.56,127.72h7.72l-3.86-6.7Zm6.09-1H150.2l2.22-3.86Z"/><path class="cls-6" d="M124.48,85.1,141,80.37a4.19,4.19,0,1,1,2.31,8.06l-16.52,4.74a4.2,4.2,0,0,1-2.31-8.07Z"/><circle class="cls-7" cx="126.16" cy="88.98" r="2.44"/><path class="cls-8" d="M130.07,85.64,139.43,83a.78.78,0,0,1,.95.53.76.76,0,0,1-.53.94l-9.35,2.69a.77.77,0,0,1-.43-1.48Z"/><path class="cls-8" d="M130.83,88.27l5.94-1.7a.76.76,0,1,1,.42,1.47l-5.94,1.7a.76.76,0,0,1-.95-.52A.77.77,0,0,1,130.83,88.27Z"/><g class="cls-9"><path id="path-15" class="cls-10" d="M125.89,90.37l26.44-2.31a4.65,4.65,0,1,1,.81,9.26L126.7,99.63a4.65,4.65,0,1,1-.81-9.26Z"/></g><path class="cls-6" d="M124.89,91.37l26.44-2.31a4.65,4.65,0,1,1,.81,9.26l-26.44,2.31a4.65,4.65,0,1,1-.81-9.26Z"/><circle class="cls-11" cx="125.89" cy="95.94" r="2.7"/><path class="cls-8" d="M131.13,96.16l6.82-.6a.85.85,0,1,1,.15,1.69l-6.83.6a.86.86,0,0,1-.92-.77A.85.85,0,0,1,131.13,96.16Z"/><path class="cls-8" d="M131.5,93l11.93-1a.85.85,0,0,1,.91.77.84.84,0,0,1-.77.92l-11.92,1.05A.85.85,0,1,1,131.5,93Z"/><path class="cls-12" d="M152.67,93.62l.39-.47a.43.43,0,0,0,.11-.32.47.47,0,0,0-.16-.31.45.45,0,0,0-.63.06L152,93l-.47-.39a.45.45,0,1,0-.57.69l.46.39-.39.47a.45.45,0,0,0,.69.58l.39-.47.47.39a.45.45,0,0,0,.74-.38.43.43,0,0,0-.16-.3Z"/><g class="cls-9"><path id="path-21" class="cls-10" d="M131,76.25a4.18,4.18,0,0,1,5.17-2.87l16.48,4.72a4.19,4.19,0,0,1-2.3,8.05l-16.48-4.72A4.19,4.19,0,0,1,131,76.25Z"/></g><path class="cls-6" d="M130,77.25a4.18,4.18,0,0,1,5.17-2.87l16.48,4.72a4.19,4.19,0,0,1-2.3,8.05l-16.48-4.72A4.19,4.19,0,0,1,130,77.25Z"/><circle class="cls-13" cx="133.95" cy="78.41" r="2.44"/><path class="cls-8" d="M138.7,78.76l9.35,2.69a.76.76,0,0,1-.42,1.47l-9.36-2.68a.77.77,0,0,1,.43-1.48Z"/><g class="cls-9"><path class="cls-10" d="M142.75,55.79H187a7.75,7.75,0,1,1,0,15.49H142.75a7.75,7.75,0,1,1,0-15.49Z"/></g><path class="cls-6" d="M141.75,56.79H186a7.75,7.75,0,1,1,0,15.49H141.75a7.75,7.75,0,1,1,0-15.49Z"/><circle class="cls-14" cx="142.75" cy="64.57" r="4.5"/><path class="cls-8" d="M151.22,61h18a1.41,1.41,0,1,1,0,2.82h-18a1.41,1.41,0,1,1,0-2.82Z"/><path class="cls-8" d="M151.42,65.66h11.41a1.42,1.42,0,1,1,0,2.83H151.42a1.42,1.42,0,1,1,0-2.83Z"/><path class="cls-15" d="M187.19,64.6l1.21-1.13a1.22,1.22,0,1,0-1.66-1.78l-1.21,1.13-1.13-1.21a1.22,1.22,0,0,0-1.78,1.66l1.13,1.21-1.21,1.13a1.22,1.22,0,1,0,1.66,1.78l1.21-1.13,1.12,1.21a1.22,1.22,0,1,0,1.78-1.66l-1.12-1.21Z"/><path class="cls-16" d="M121.81,45.28l-5.48,12.26-3.26-1.46a3.22,3.22,0,0,0-4.25,1.62L104,68.56a3.21,3.21,0,0,0,1.63,4.25l3.26,1.46-5.35,12a3.23,3.23,0,0,0,1.63,4.25l5.13,2.29a3.22,3.22,0,0,0,4.25-1.62l18.31-40.93A3.23,3.23,0,0,0,131.2,46l-5.13-2.29a3.22,3.22,0,0,0-4.26,1.62Z"/><path class="cls-17" d="M153.13,143.28H117a3.41,3.41,0,0,1-3.41-3.07l-4.38-41.52a3.44,3.44,0,0,1,3.42-3.79H157.5a3.44,3.44,0,0,1,3.42,3.79l-4.38,41.52a3.41,3.41,0,0,1-3.41,3.07Z"/><path class="cls-18" d="M146.89,133.87h-.24a2.66,2.66,0,0,1-1.78-.94,2.62,2.62,0,0,1-.59-1.92l2-22a2.63,2.63,0,1,1,5.24.48l-2,22A2.63,2.63,0,0,1,146.89,133.87Z"/><path class="cls-18" d="M125.3,133.87a2.64,2.64,0,0,1-2.62-2.39l-2-22a2.63,2.63,0,1,1,5.23-.48l2,22a2.62,2.62,0,0,1-.6,1.92,2.66,2.66,0,0,1-1.78.94Z"/><path class="cls-18" d="M136.1,134.17a2.62,2.62,0,0,1-2.63-2.62V108.94a2.63,2.63,0,1,1,5.25,0v22.61A2.62,2.62,0,0,1,136.1,134.17Z"/></svg>