<svg id="Layer_1" data-name="Layer 1" xmlns="http://www.w3.org/2000/svg" xmlns:xlink="http://www.w3.org/1999/xlink" viewBox="0 0 220 185"><defs><style>.cls-1{fill:#fff;}.cls-2{mask:url(#mask);}.cls-3{opacity:0.05;}.cls-4{fill:#008cff;}.cls-4,.cls-5,.cls-6,.cls-7{fill-rule:evenodd;}.cls-5{fill:#02ccaa;}.cls-6{fill:#ea3940;}.cls-7{fill:url(#linear-gradient);}.cls-8{fill:#e87094;}</style><mask id="mask" x="0" y="-36.93" width="220" height="239.42" maskUnits="userSpaceOnUse"><g id="mask-2"><rect y="-17.5" width="220" height="220"/><rect id="rect-1" class="cls-1" y="-36.93" width="220" height="220"/></g></mask><linearGradient id="linear-gradient" x1="70" y1="114.49" x2="140.97" y2="114.49" gradientTransform="matrix(1, 0, 0, -1, 0, 204.43)" gradientUnits="userSpaceOnUse"><stop offset="0" stop-color="#005bea"/><stop offset="1" stop-color="#00c6fb"/></linearGradient></defs><title>delete member</title><g class="cls-2"><g class="cls-3"><path class="cls-4" d="M195,46.68a7.86,7.86,0,0,0-10.73-2.87L144.17,67a7.86,7.86,0,0,0-9.3-12.54l-.75.44a7.91,7.91,0,0,1,1.44-1.07L156,42a7.86,7.86,0,0,0-6.22-14.33l11.29-6.52a7.86,7.86,0,1,0-7.86-13.61L23.83,82.2a7.86,7.86,0,0,0,7.86,13.62L45.31,88a7.86,7.86,0,1,1,7.86,13.61L26,117.3a7.86,7.86,0,0,0,7.86,13.61l12.87-7.42A7.86,7.86,0,0,0,56,136L28.06,152.39A7.86,7.86,0,0,0,35.92,166L76,142.86a7.86,7.86,0,0,0,9.3,12.55l95.31-55a7.86,7.86,0,0,0-7.23-13.95,7.86,7.86,0,0,0-9.18-12.65l27.91-16.35A7.89,7.89,0,0,0,195,46.68Z"/></g><path class="cls-5" d="M190.18,25.2l5.9,5.91L202,25.2l-5.9-5.9Zm5.9,4.36-4.34-4.36,4.34-4.32,4.33,4.34Z"/><path class="cls-5" d="M1.83,118.44l5.9,5.9,5.9-5.9-5.9-5.89Zm5.9,4.34-4.34-4.34,4.34-4.34,4.33,4.34Z"/><path class="cls-5" d="M162,125.83l4.67,4.67,4.68-4.67-4.68-4.67Zm4.67,3.11-3.11-3.11,3.11-3.11,3.12,3.11Z"/><path class="cls-4" d="M66,177.4a4.17,4.17,0,1,0,4.16-4.17A4.17,4.17,0,0,0,66,177.4Zm1.12,0a3.06,3.06,0,1,1,3.06,3A3.06,3.06,0,0,1,67.1,177.4Z"/><path class="cls-4" d="M100.25,7.6a4.17,4.17,0,1,0,4.17-4.17A4.18,4.18,0,0,0,100.25,7.6Zm1.34-1.17a3.07,3.07,0,1,1,4,4,3.07,3.07,0,0,1-4-4Z"/><path class="cls-4" d="M209.84,89.83A4.17,4.17,0,1,0,214,85.66,4.16,4.16,0,0,0,209.84,89.83Zm1.32-1.18a3.07,3.07,0,1,1,.66,3.34A3.07,3.07,0,0,1,211.16,88.65Z"/><path class="cls-6" d="M126.81,160.66h9l-4.49-7.79Zm7.08-1.1h-5.17l2.59-4.49Z"/><path class="cls-6" d="M38.3,48.4h9l-4.5-7.78Zm7.08-1.1H40.21l2.58-4.48Z"/><path class="cls-7" d="M115.71,94.2h.05A25.24,25.24,0,0,1,141,119.4v16.08H70V119.4A25.23,25.23,0,0,1,94.48,94.2a21.68,21.68,0,0,1-11-18.86V65.25A20.87,20.87,0,0,1,104.29,44.4h26.83v7.94a19.1,19.1,0,0,1-4.46,12.26h0c0,.48,0,1,0,1.45v9.29A21.7,21.7,0,0,1,115.71,94.2ZM112,62.49a10.17,10.17,0,0,0,10.1-9.12h-17a12.71,12.71,0,0,0-12.17,9.12Zm-19.59,9H112a19.08,19.08,0,0,0,5.76-.89v4.77a12.68,12.68,0,1,1-25.36,0ZM79,126.51h53v-7.1a16.25,16.25,0,0,0-16.23-16.24H95.21A16.26,16.26,0,0,0,79,119.41Z"/><circle class="cls-8" cx="134.41" cy="125.01" r="15.59"/><rect class="cls-1" x="126.34" y="122.65" width="16.14" height="4.72"/></g></svg>