<svg xmlns="http://www.w3.org/2000/svg" xmlns:xlink="http://www.w3.org/1999/xlink" width="56" height="56.346" viewBox="0 0 56 56.346">
  <defs>
    <rect id="rect-2" width="36" height="36" x="10" y="10.173"/>
    <mask id="mask-3" maskContentUnits="userSpaceOnUse" maskUnits="userSpaceOnUse">
      <rect width="56" height="56.346" x="0" y="0" fill="black"/>
      <use fill="white" xlink:href="#rect-2"/>
    </mask>
  </defs>
  <g>
    <path fill="rgb(255,236,241)" fill-rule="evenodd" d="M28 0c15.45362069 0 28 12.54637931 28 28v.34567901c0 15.45362069-12.54637931 28-28 28s-28-12.54637931-28-28V28C0 12.54637931 12.54637931 0 28 0z"/>
    <g>
      <use fill="none" xlink:href="#rect-2"/>
      <g mask="url(#mask-3)">
        <path fill="rgb(232,112,148)" fill-rule="evenodd" d="M23.9513321 34.2641716h8.0973358c2.49499894 0 4.52499772-2.02999878 4.52499772-4.52466583V25.7788391c0-2.49499893-2.02999878-4.52499962-4.52499771-4.52499962h-8.09733582c-2.49499893 0-4.52499962 2.03000069-4.52499962 4.52499962v3.96033478c0 2.49499893 2.03000069 4.52499771 4.52499962 4.52499771zm-3.19166566-8.48533249c.00183678-1.76194572 1.42971993-3.18982887 3.19166565-3.19166565h8.09733582c1.76194763.00183678 3.18982696 1.42971993 3.19166565 3.19166565v3.96066666c-.00183869 1.76194763-1.42971802 3.18983078-3.19166565 3.19166946h-8.09733582c-1.76194572-.00183868-3.18982887-1.42972183-3.19166565-3.19166946V25.7788391z"/>
        <path fill="rgb(232,112,148)" fill-rule="evenodd" d="M21.7373333 18.0441742v4.54299926h12.5253315V18.0441742c0-3.4533348-2.8093319-6.26266765-6.2626648-6.26266765-3.4533329 0-6.2626667 2.80933285-6.2626667 6.26266765zm11.19199943-.00000191v3.2096672h-9.85866546v-3.2096672c0-2.71799946 2.21133423-4.92933274 4.92933273-4.92933274 2.71800041 0 4.92933273 2.21133328 4.92933273 4.92933274z"/>
        <path fill="rgb(232,112,148)" fill-rule="evenodd" d="M17.96666718 45.10617447h20.06666564c2.74766541 0 4.9833336-2.23566818 4.9833336-4.98333359 0-2.7476654-2.23566819-4.98333359-4.9833336-4.98333359H17.96666718c-2.74766732 0-4.9833336 2.23566819-4.9833336 4.9833336 0 2.7476654 2.23566628 4.98333358 4.9833336 4.98333358zm-3.65000058-4.98333359c0-2.01584244 1.634161-3.65000152 3.65000058-3.65000152h20.06666564c2.01583863 0 3.65000153 1.63415908 3.65000153 3.65000152 0 2.01583862-1.6341629 3.64999771-3.65000153 3.64999771H17.96666718c-2.01583958 0-3.65000058-1.63415909-3.65000058-3.6499977z"/>
        <path fill="rgb(232,112,148)" fill-rule="evenodd" d="M22.77866667 38.14650617L21.368 40.00283951v.02966666l2.24233333-.297v1.01L21.368 40.47817284v.02966667l1.42566667 1.782-.93566667.53466666-.891-2.079h-.02966667l-.96533333 2.094-.84666667-.53466666 1.411-1.81166667v-.02966667l-2.198.282v-1.01l2.183.28233334v-.02966667l-1.396-1.81166667.906-.52L20.952 39.72083951h.02966667l.906-2.079.891.50466666z"/>
        <path fill="rgb(232,112,148)" fill-rule="evenodd" d="M29.901 38.14650617l-1.411 1.85633334v.02966666l2.24266667-.297v1.01L28.49 40.47817284v.02966667l1.42566667 1.782L28.98 42.82450617l-.891-2.079h-.02966667l-.96533333 2.094-.84633333-.53466666 1.41066666-1.81166667v-.02966667l-2.198.282v-1.01l2.18333334.28233334v-.02966667l-1.396-1.81166667.906-.52.92066666 2.06433334H28.104l.906-2.079.891.50466666z"/>
        <path fill="rgb(232,112,148)" fill-rule="evenodd" d="M37.023 38.14650617l-1.41066667 1.85633334v.02966666l2.24233334-.297v1.01l-2.24233334-.26733333v.02966667l1.42566667 1.782-.93566667.53466666-.891-2.079h-.02966666l-.96533334 2.094L33.37 42.30483951l1.41066667-1.81166667v-.02966667l-2.198.282v-1.01l2.183.28233334v-.02966667L33.37 38.17650617l.90566667-.52.92066666 2.06433334h.03l.90566667-2.079.891.50466666z"/>
      </g>
    </g>
  </g>
</svg>
