<svg xmlns="http://www.w3.org/2000/svg" xmlns:xlink="http://www.w3.org/1999/xlink" width="56" height="55.309" viewBox="0 0 56 55.309">
  <defs>
    <rect id="rect-2" width="36" height="36" x="10" y="9.654"/>
    <mask id="mask-3" maskContentUnits="userSpaceOnUse" maskUnits="userSpaceOnUse">
      <rect width="56" height="55.309" x="0" y="0" fill="black"/>
      <use fill="white" xlink:href="#rect-2"/>
    </mask>
  </defs>
  <g>
    <path fill="rgb(255,236,241)" fill-rule="evenodd" d="M27.65432099 0h.69135802C43.60851426 0 56 12.39148574 56 27.65432099c2.3e-7 15.26283483-12.39148533 27.65432076-27.65432058 27.65432099H27.654321C12.39148574 55.30864198 0 42.91715623 0 27.65432098-2.3e-7 12.39148616 12.39148533 2.4e-7 27.65432058 0z"/>
    <g>
      <use fill="none" xlink:href="#rect-2"/>
      <g mask="url(#mask-3)">
        <path fill="rgb(232,112,148)" fill-rule="evenodd" d="M20.5490017 43.90765476h14.90266609c.8645935-.00037002 1.56544876-.7010727 1.56600189-1.5656662V12.96665382c0-.86524582-.70142365-1.5666666-1.56666947-1.5666666H20.5490017c-.86524772 0-1.56666755.70142078-1.56666755 1.5666666v29.37600232c.00091934.8645935.70207023 1.56499862 1.56666755 1.56499862zm-.2333355-30.94000053c0-.1288662.1044674-.23333264.23333359-.23333264l14.902668-.0010004c.12886428 0 .23332977.10446644.23332977.23333359v29.37600136c0 .12886428-.10446549.23333358-.23332977.23333358h-14.902668c-.1288662 0-.2333336-.1044693-.2333336-.23333358V12.96765423z"/>
        <ellipse cx="28" cy="39.754" fill="rgb(232,112,148)" rx="1.324" ry="1.324"/>
        <g>
          <path fill="rgb(232,112,148)" fill-rule="evenodd" d="M21.66666603 23.98765564c0 3.49233246 2.8409996 6.33333206 6.33333397 6.33333206 3.49233246 0 6.33333206-2.8409996 6.33333206-6.33333206 0-3.49233437-2.8409996-6.33333397-6.33333206-6.33333397-3.49233437 0-6.33333397 2.8409996-6.33333397 6.33333397zM23 23.98765374c0-2.75699998 2.24300003-5 5-5s5 2.24300002 5 5c0 2.75699996-2.24300003 5-5 5s-5-2.24300004-5-5z"/>
          <path fill="rgb(232,112,148)" fill-rule="evenodd" d="M28.6333332 21.65432167c.0311165-.0768528.04674912-.15909195.04599953-.24200058h.00066758c.00134658-.16479492-.06251908-.32343674-.17766762-.44133377-.056324-.05688858-.12325287-.1021862-.1969986-.1333332-.07782745-.03281785-.16154098-.04937935-.24600029-.048666-.08509636-.00060464-.16944313.01594734-.2480011.048666-.07491302.03062057-.14292145.07596015-.19999885.1333332-.17596436.1813221-.22731781.4498825-.13066674.68333435.03002167.07379913.07444.1408825.13066674.19733238.0572586.0571537.12521934.10246086.19999885.1333332.07847595.03302957.16286278.0497017.2480011.0489998.08449745.00076866.16824532-.01591301.2460003-.0489998.0736122-.03139304.1404953-.07666015.19699859-.1333332.05634498-.05641937.10087967-.12350464.13100052-.19733238zm-2.1289997 1.58566666H27.625l-.00099945 2.48333358h-1.25733376v.74199868h3.37766648v-.74199868h-1.14433289v-3.22533416H26.5043335v.74200058z"/>
        </g>
        <rect width="16.7" height="1.333" x="19.65" y="35.804" fill="rgb(232,112,148)" rx="0" ry="0"/>
      </g>
    </g>
  </g>
</svg>
