<svg xmlns="http://www.w3.org/2000/svg" width="32" height="32.25" viewBox="0 0 32 32.25">
  <g>
    <g opacity=".2">
      <ellipse cx="16" cy="16.125" fill="rgb(255,68,68)" rx="16" ry="16.125"/>
    </g>
    <path fill="rgb(255,68,68)" fill-rule="evenodd" d="M23.51691055 8.60525131c-.57128524-.57232857-1.4264717-.64573955-1.90660095-.16352272-.08229065.08485222-.1491623.18339539-.19761848.29120922l-.00521851-.00521946c-.48020744.95729065-1.1035328 1.83578873-1.84849739 2.60522366-.59880447.59494495-1.29254341 1.08597088-2.05272675 1.45291233.37917519.19989872.72620392.45556736 1.02949524.75846577.32321549.32442188.59096527.69971752.79256058 1.11090755.36716461-.77364445.86277771-1.47947597 1.46578598-2.0875187.75783157-.73977279 1.62444878-1.35916995 2.56973648-1.836668l-.00417518-.00487137c.11945152-.05023861.22847938-.12233353.32147789-.21257878.48256301-.48117351.40915298-1.3356638-.1642189-1.9083395zm-5.41363144 5.3729248c-.68958854-.69014644-1.62438774-1.0791769-2.6000042-1.08203029-.87885474-.00880146-1.72467803.33448887-2.34880637.95330048-1.92956353 1.93234634-2.80562592 2.55477428-3.74431324 2.70820713-.45666314.04706955-.88948536.22706985-1.24485684.51770591-.58937597.5914631.4401188 2.51267624 2.4065609 4.48190117 1.59242916 1.59382058 3.16224289 2.56834412 4.01499462 2.56834412.17382336.01125526.34475327-.04865074.47351933-.1659565.29328441-.32561111.45088005-.7510929.44046592-1.1891899 0-.80648042.72854424-1.81927491 2.60243988-3.69560624 1.40556908-1.4081688 1.40556908-3.68850517 0-5.09667587zm-.77829551.67009354c-.05749703.107584-.15555.18777657-.27240181.2227869-.11685372.0350094-.24284554.0219431-.35002709-.0363016-.8412714-.44750119-1.87586975-.29535008-2.55268764.3754053-.0925951.09174061-.21757412.14335728-.34791947.14369107-.1774187.00116539-.33913421-.10150719-.41355514-.26256657-.07442188-.16105938-.04780388-.35075664.06807041-.48511314.00417519-.00521946.03479195-.03479195.03966331-.04105473.96369458-.96135044 2.44219685-1.18061256 3.64341546-.54031944.22299003.12132645.3055191.40037155.18439865.62347221h.00104332zm-6.24550915 6.40068055c1.46996117 1.47170066 3.01855183 2.30740356 3.4590187 1.86624145.44046689-.4411621-.39384555-1.99149322-1.86380672-3.4631939-1.46996116-1.47170066-3.01785564-2.30809974-3.45867061-1.8665905-.44081402.44151116.39349746 1.99184228 1.86345863 3.46354295zm.86979961-1.55485344c.13116646.12003326.26233197.23936843.39280129.37018585.45406532.45212936.86791229.9429264 1.2368555 1.4668312-.5126047.39036942-1.23948478.3195324-1.66707325-.16246414-.42758941-.48199653-.4112749-1.21213722.03741646-1.67455291z"/>
  </g>
</svg>
