<svg xmlns="http://www.w3.org/2000/svg" width="16" height="16.661" viewBox="0 0 16 16.661">
  <path fill="rgb(0,218,135)" fill-rule="evenodd" d="M7.64099121 11.11621094L4.74630737 8.6602478c-.15118408-.1282959-.37774658-.1097412-.50601196.04144287-.1282959.15118409-.10974121.37774659.04144287.50604248l3.48397827 2.95581055.0043335.00369263.22998047.19509888 3.71826172-3.15460206c.15118408-.1282959.16973877-.3548584.04147338-.50604248-.1282959-.15118408-.3548584-.16973877-.50604248-.04144287L8.3590088 11.11627197V.3590088C8.35900879.16073609 8.1982727 0 8 0c-.1982727 0-.35900879.16073608-.35900879.35900879v10.75720215zm7.0007019 5.54510498C15.39151002 16.6604309 15.999115 16.0527954 16 15.30300903v-1.9986267c-.00088501-.74978638-.60848999-1.35742188-1.35830688-1.3583069h-2.07022095c-.7498169.00088502-1.35742188.60852052-1.3583374 1.3583069-.00039673.35327148-.28649903.63961791-.63974.6402893H5.42715455c-.35345459-.00039673-.63989258-.28683472-.6402893-.6402893-.00088502-.75-.60882569-1.35772706-1.3588562-1.3583069H1.35830687C.60852051 11.94696046.00088501 12.55459596 0 13.30438234v1.9986267c.00088501.74978638.6085205 1.35742188 1.35830688 1.35830689h13.28338624zM.71801759 13.30438232c.00039673-.35345459.28683471-.63989257.6402893-.6402893h2.07025147c.35345459.00039673.63989258.28683471.6402893.6402893.00088502.74960328.60818482 1.35714722 1.35775757 1.35830689h5.14624024c.7498169-.00088501 1.35742187-.60849 1.35830688-1.35830689.00039673-.3536682.28717041-.64019775.64083863-.6402893h2.06970215c.35345459.00039673.63989257.28683471.6402893.6402893v1.99862671c-.00039673.3534546-.28683471.63989258-.6402893.64028931H1.35830688c-.35345459-.00039673-.63989257-.28683472-.6402893-.6402893v-1.99862672z"/>
</svg>
