<svg xmlns="http://www.w3.org/2000/svg" xmlns:xlink="http://www.w3.org/1999/xlink" width="130.987" height="113.331" viewBox="0 0 130.987 113.331">
  <defs>
    <linearGradient id="linearGradient-5" x1="32.46" x2="105.117" y1="25.584" y2="25.584" gradientUnits="userSpaceOnUse">
      <stop offset="0" stop-color="rgb(0,91,234)"/>
      <stop offset="1" stop-color="rgb(0,198,251)"/>
    </linearGradient>
    <linearGradient id="linearGradient-7" x1="31.324" x2="106.254" y1="62.921" y2="62.921" gradientUnits="userSpaceOnUse">
      <stop offset="0" stop-color="rgb(0,91,234)"/>
      <stop offset="1" stop-color="rgb(0,198,251)"/>
    </linearGradient>
    <path id="path-8" fill-rule="evenodd" d="M102.87058211 41.58499679V21.07407086c0-.95852166-.77703389-1.73555555-1.73555555-1.73555555H36.24928582c-.95805519.0011224-1.73443315.77750037-1.73555556 1.73555555V41.5911079l6.84648148 5.27185185 1.17537037.90240741 6.42074074 4.94388889 4.64037037 3.57092593 9.93666667 7.64907407.66611111.51333333c.57398815.44095945 1.36120722.4799137 1.97592593.09777778 1.59990518-.99310852 3.62300889-.99941315 5.22907407-.0162963.61466574.37449297 1.39669445.3307313 1.96574074-.11l.90240741-.70074074 9.6087037-7.43722222 4.61185186-3.57092592 6.40037037-4.94592593.10388889-.07944445 7.87314814-6.09481481z"/>
    <filter id="filter-9" width="200%" height="200%" x="-50%" y="-50%" color-interpolation-filters="sRGB" filterUnits="userSpaceOnUse">
      <feOffset dx="0" dy="-3" in="SourceAlpha" result="shadow-1-feOffset-shadow"/>
      <feGaussianBlur in="shadow-1-feOffset-shadow" result="shadow-1-feGaussianBlur-shadow" stdDeviation="1.205"/>
      <feColorMatrix in="shadow-1-feGaussianBlur-shadow" result="shadow-1-feColorMatrix-shadow" type="matrix" values="0 0 0 0 0  0 0 0 0 0  0 0 0 0 0  0 0 0 0.1 0"/>
    </filter>
    <linearGradient id="linearGradient-13" x1="74.937" x2="54.803" y1="49.692" y2="167.985" gradientUnits="userSpaceOnUse">
      <stop offset="0" stop-color="rgb(0,91,234)"/>
      <stop offset="1" stop-color="rgb(0,198,251)"/>
    </linearGradient>
    <linearGradient id="linearGradient-15" x1="13.483" x2="24.178" y1="51.901" y2="51.901" gradientUnits="userSpaceOnUse">
      <stop offset="0" stop-color="rgb(0,91,234)"/>
      <stop offset="1" stop-color="rgb(0,198,251)"/>
    </linearGradient>
    <linearGradient id="linearGradient-17" x1="17.15" x2="29.474" y1="59.91" y2="59.91" gradientUnits="userSpaceOnUse">
      <stop offset="0" stop-color="rgb(0,91,234)"/>
      <stop offset="1" stop-color="rgb(0,198,251)"/>
    </linearGradient>
    <linearGradient id="linearGradient-19" x1="10.733" x2="24.178" y1="66.433" y2="66.433" gradientUnits="userSpaceOnUse">
      <stop offset="0" stop-color="rgb(0,91,234)"/>
      <stop offset="1" stop-color="rgb(0,198,251)"/>
    </linearGradient>
  </defs>
  <g>
    <path fill="rgb(2,204,170)" fill-rule="evenodd" d="M10 10.9965477l3.99516678 3.9965477L18 10.9965477 13.99516678 7 10 10.9965477zm3.99516678 2.94009972L11.0550661 10.9965477l2.94010067-2.94010067 2.9387188 2.94010067-2.9387188 2.94009972z"/>
    <path fill="rgb(102,45,145)" fill-rule="evenodd" d="M28.55555534 106.16574097c0 2.30067444 1.86506653 4.16574096 4.16574288 4.16574096 1.10482025 0 2.16439438-.43888855 2.94562149-1.22011566.78122711-.78122711 1.22011947-1.84080505 1.22011947-2.9456253 0-2.30067444-1.86506652-4.16574097-4.16574096-4.16574097-2.30067635 0-4.16574288 1.86506653-4.16574288 4.16574097zm1.1203785-.00341797c-.00374413-1.686203 1.35916328-3.05670166 3.04536438-3.06232453 1.6891899-.00000763 3.06012726 1.36637116 3.06573868 3.05555726-.00000763 1.68621063-1.36596299 3.05367279-3.0521698 3.05553436-1.68620873.0018692-3.05518914-1.36256409-3.05893326-3.0487671z"/>
    <path fill="rgb(251,176,59)" fill-rule="evenodd" d="M119.1090215 28.67224156l6.57147965 6.1280072 2.02047673-8.75570898-8.59195637 2.62770178zm5.9316982 4.02733992l-3.78407596-3.52870981 4.94840193-1.5131924-1.16432597 5.04190221z"/>
    <g>
      <path fill="url(#linearGradient-5)" fill-rule="evenodd" d="M32.46039693 38.66999679l34.23444444-25.39981481c1.39983339-1.03713768 3.3149732-1.03050803 4.7075926.0162963l33.715 25.38351851H32.46039693z"/>
      <path fill="url(#linearGradient-7)" fill-rule="evenodd" d="M33.32373026 38.33795975h70.93037037c1.10383005 0 2 .89616995 2 2v45.16592593c0 1.10383005-.89616995 2-2 2H33.32373026c-1.10383005 0-2-.89616995-2-2V40.33795975c0-1.10383005.89616995-2 2-2z"/>
      <g>
        <use fill="black" stroke="black" stroke-opacity="0" stroke-width="0" filter="url(#filter-9)" xlink:href="#path-8"/>
        <use fill="rgb(255,255,255)" xlink:href="#path-8"/>
      </g>
      <path fill="rgb(240,248,255)" fill-rule="evenodd" d="M93.2170636 44.1985153c.47218358 0 .92502775.1875742 1.25891196.52145842.3338842.3338842.5214584.78672838.5214584 1.25891196v1.70703704l-.10388888.07944444H43.15280434c-.3926957.00034776-.77446309-.12929557-1.08574075-.3687037-.43817635-.33717225-.6948405-.85878006-.69462962-1.41166667 0-.47218358.1875742-.92502775.5214584-1.25891196.33388422-.33388421.78672839-.52145841 1.25891197-.52145841l50.06425925-.00611111z"/>
      <path fill="rgb(240,248,255)" fill-rule="evenodd" d="M84.38650804 55.9074042h-.01222222c-.31163302.24213523-.69517028.37332648-1.08981482.37277778H54.2057673c-.39259502-.00026202-.77417162-.12984056-1.08574074-.3687037h-.01222222c-.6050057-.4649412-.84647422-1.26371445-.60035146-1.9859511.24612277-.72223665.92510851-1.20733882 1.68812923-1.20608595H83.2946562c.76025971.00180042 1.43569246.48562816 1.68202886 1.2048753.2463364.71924715.0093459 1.51557257-.59017701 1.98308767z"/>
      <path fill="url(#linearGradient-13)" fill-rule="evenodd" d="M103.62224878 84.19573753l-31.16666667-19.0462963-1.01851852-.62537037c-1.60606491-.98311727-3.62916802-.9768123-5.22907407.0162963l-1.01851852.63555556-30.6737037 19.01981481 29.02166667-20.26648148 2.5524074-1.78037037c1.7650294-1.3139419 4.18311876-1.3139419 5.94814815 0l2.24074074 1.56851852 29.34351852 20.47833333z"/>
      <path fill="url(#linearGradient-15)" fill-rule="evenodd" d="M14.16169322 51.22221901H23.499471c.37438236 0 .67833334.30395098.67833334.67833334 0 .37438235-.30395098.67833333-.67833334.67833333h-9.33777778c-.37438235 0-.67833333-.30395098-.67833333-.67833333 0-.37438236.30395098-.67833334.67833333-.67833334z"/>
      <path fill="url(#linearGradient-17)" fill-rule="evenodd" d="M17.8283599 59.23184864h10.9674074c.37438236 0 .67833333.30395098.67833333.67833334 0 .37438235-.30395097.67833333-.67833333.67833333H17.8283599c-.37438237 0-.67833334-.30395098-.67833334-.67833333 0-.37438236.30395097-.67833334.67833333-.67833334z"/>
      <path fill="url(#linearGradient-19)" fill-rule="evenodd" d="M11.41169322 65.75444123H23.499471c.37438236 0 .67833334.30395098.67833334.67833334s-.30395098.67833333-.67833334.67833333H11.41169322c-.37438235 0-.67833333-.30395097-.67833333-.67833333 0-.37438236.30395098-.67833334.67833333-.67833334z"/>
      <path fill="rgb(2,204,170)" fill-rule="evenodd" d="M66.44317673 40.77192394L59 33.3287472l2.21510067-2.21510067 5.22807606 5.22885906L77.78489933 25 80 27.21431767 66.44317673 40.77192394z"/>
    </g>
  </g>
</svg>
