<svg xmlns="http://www.w3.org/2000/svg" width="32" height="32" viewBox="0 0 32 32">
  <g>
    <g opacity=".15">
      <ellipse cx="16" cy="16" fill="rgb(52,232,199)" rx="16" ry="16"/>
    </g>
    <g>
      <path fill="rgb(52,232,199)" fill-rule="evenodd" d="M9.7495842 9.81414795c-.20182419.02929687-.40782929.0012207-.5944519-.08099365-.35898972-.15716553-.60652543-.4942627-.64896012-.8838501-.0424347-.3895874.1267128-.77209473.44345093-1.00286865-.05761719-.4940796.22521591-.96490479.68849945-1.14611817.46327972-.18115234.9904747-.0270996 1.28333664.375.48870468-.057312.95552063.21875 1.14072418.67462158.18520355.45587159.04319763.97924805-.34701157 1.27905274.06192017.49377441-.21735.96716309-.67952346 1.15179443-.46217728.18457032-.99071503.03393555-1.28606415-.36663818zM9.42274857 8.2946167c-.11594773.0449829-.20907593.13452148-.25863266.2485962-.0755806.17279052-.04024888.37402343.08966827.51074218.12991714.13671875.329113.18225097.5055275.11553955.00703048-.00335693.012928-.00598145.01874923-.00854492.07883072-.03387451.1681366-.03393555.24697495 0 .07883453.0338745.14025879.09875488.16986084.17926025.09548187.23968506.36671448.35717774.60686111.26281738.24014282-.09429931.3589058-.36499023.26571656-.60559082l-.0029297-.00744629c-.05966949-.15655517.01475526-.33233642.16871262-.3984375.23396683-.10144043.34373856-.37145996.2469368-.60742187-.09680557-.23596191-.3645935-.35107422-.60240555-.25897217-.16072464.06292725-.34199524-.01641846-.40488433-.17712402-.06019593-.1571045-.19999695-.2699585-.3663025-.29559326-.16630172-.02563477-.33359146.03985595-.43832015.17150879-.1047287.13171386-.13082886.30944824-.06838227.46569824.03020859.07720947.02851868.16326904-.00470352.23919677-.0332222.07592774-.0952568.13555909-.1724472.16577149z"/>
      <path fill="rgb(52,232,199)" fill-rule="evenodd" d="M20.90610504 10.74121094c-.44783401-.21679688-.69294739-.70855713-.59651947-1.19665528-.38848495-.31933593-.50922012-.86218261-.29284668-1.31604004.21637726-.45379638.71417236-.70178222 1.20675278-.60107421.32561874-.37615967.86405945-.48516846 1.31033707-.26531983.4462738.21990967.68793487.71325684.58810043 1.20062256.371624.3223877.48243332.85308838.27083969 1.29724121-.21159363.4440918-.69356155.69244385-1.1780243.6069336-.32307815.37835693-.86080932.49108886-1.30863952.27429199zm.30516052-2.46234131c-.23220825-.11444092-.5132141-.01898193-.62765884.21325683-.1132164.23040772-.02024078.50909424.20867157.62536622.00714874.00299072.01308823.00549316.0188675.00811767.07652282.0345459.13591003.0984497.16477966.17730713.02887344.07885742.02479934.16601563-.01130295.24182129l-.0048027.00964355c-.11434174.2322998-.01873017.51324463.21355438.62762452.23228073.11431884.51327514.01873779.62761688-.21356202l.00082016-.00183105c.0731964-.15368652.25596618-.22052002.4110527-.15026856.2335968.1090088.51139069.00872803.6214943-.22436523.1101036-.23309326.01110076-.51135254-.22149277-.62249756-.15481186-.07629394-.21846771-.26361084-.14218903-.418396.0740242-.15026855.06227493-.32855224-.0308113-.46777343-.09309007-.1392212-.25337983-.21820069-.42049027-.20721436-.16711045.01104737-.31565094.11035157-.38967514.26055908-.0762825.1548462-.26362229.21850586-.41843415.14221192z"/>
      <path fill="rgb(52,232,199)" fill-rule="evenodd" d="M22.759861 15.99993896l.08351516-.66796875c.44187927-.1385498.71635437-.57904052.64607239-1.0368042-.07028199-.45770263-.4642601-.79559326-.92736054-.79522705h-.35855484c.08521652-.28405761.05124283-.59057617-.0941124-.84912109-.14535522-.25848389-.38959503-.44677734-.67658996-.52160644-.12576294-.48144532-.56064606-.81732178-1.0582428-.81732178s-.93248367.33587646-1.0582428.81732178c-.19168853.05072021-.36598968.15258789-.5042572.29467773-.13826751-.14208984-.31256866-.24395752-.5042572-.29467773-.03439331-.12988282-.09253693-.25231934-.1714859-.36102295.11745453-.07354737.21968842-.16894532.3011322-.28100586.48953629.04772949.95077515-.23699951 1.12741852-.69604492.17664337-.45904541.02527618-.97955323-.36999512-1.27227784.06121445-.49353027-.21804428-.96630859-.67984771-1.15093994-.46179963-.18463135-.99002457-.03466797-1.28593445.36505127-.49886704-.06243896-.97605515.22320557-1.15662766.69244385-.1805725.46917725-.01801681 1.00109863.39401245 1.28918457-.03156662.27185059.03956604.5456543.19945145.76776123-.23413086.14801025-.40364075.37908936-.47453308.64685059-.19171524.05072021-.3660469.15252685-.5043335.29467773-.13827514-.14215088-.31261062-.24401855-.5043373-.29467773-.03731156-.14135743-.10264207-.27374268-.19210816-.38934327.13552093-.21392822.19277572-.46820068.16202926-.71954345.3901291-.29980469.5320778-.82318116.3468895-1.2789917-.1851921-.45581055-.6519394-.73187256-1.1405983-.67462158-.2929039-.40216065-.82020569-.55621338-1.28352737-.37487793-.46332169.18127441-.7460785.65222168-.68827057 1.14642334-.40612793.29608154-.55833054.83068847-.36901856 1.29626464.18930817.46557618.67144394.74230957 1.1689415.67095948.00418091.00567627.00886536.01098633.01316452.01660156-.06042099.0947876-.10566711.19848633-.13410186.30725098-.19156647.05072021-.36574936.15252685-.50390625.29455566-.13826752-.14208984-.31256867-.24395752-.5042572-.29467773-.12576295-.48144532-.56064606-.81732178-1.0582428-.81732178-.49760056 0-.93248368.33587646-1.0582428.81732178-.29306412.07684326-.54115296.27178955-.68518448.53833007-.14403153.26654053-.1711235.58087159-.07481384.86816407-.39866257.11297607-.6758728.47424316-.68179322.8885498-.0059166.41436768.26085663.78338623.65612793.90771484l1.22121048 9.76953125c.01968384.15625.15255738.2734375.31003952.2734375h10.625c.1576004 0 .29053498-.1173706.31007767-.27374267l.17625046-1.41015625.53833008-4.30639649.42311477-3.38470459zm-5.8509636-6.61224365c-.11428452.0489502-.20442963.14129639-.2505989.2567749-.09490586.23846436.0193138.50891114.25640487.6071167.0078125.00256348.01402283.00463868.02023697.00695801.07865143.02856445.1425438.08758545.1773529.1636963.03481293.07611083.0376358.16296386.0078392.24121093l-.00370788.00927734c-.09310913.23956299.02400589.50939942.26255798.60498047.2385521.09558106.50958634-.0187378.6076355-.25628662.06074143-.15960693.23806381-.24084473.3984375-.1828003.23973847.08496094.50343323-.0369873.59399796-.2746582.09056473-.2376709-.02510453-.50415039-.26055908-.6003418-.07696534-.03076171-.1385498-.09088134-.1711998-.16705322-.03265381-.07617187-.03369522-.16223144-.00290299-.23919677.09614182-.24035645-.02077865-.5131836-.26115036-.60931397-.24037552-.09613037-.51317596.02081299-.60931778.26116944-.03077698.07696533-.09087372.1385498-.16706466.1712036-.07618714.03265382-.16222763.03369142-.23918534.00286866-.11543655-.04614258-.24449539-.0446167-.35877609.00439453zm-4.34632492 1.32556153c-.00374603.18951416.1070671.3626709.28076553.43865966.11211396.04956055.23923493.05285645.35379029.00927735.00710678-.00341797.01300811-.00604248.01882553-.00860596.07823944-.03363037.16682815-.03393555.24527359-.00073242.07844543.03320312.13994598.09692383.17027282.17651367l.00090027.0022583c.02262879.05700684.05633927.10894776.09917832.15283203.15522003.15924073.40099716.18756104.58833694.067688.1873436-.11987306.26466751-.3548584.18510056-.56256104-.00160218-.00390625-.0030861-.00799561-.00445175-.01171875-.05662537-.15570069.01813507-.32855225.17039108-.3939209.2334671-.10180664.34280777-.37145996.24612808-.6071167-.09667969-.2355957-.36393356-.35076904-.60159683-.25921631-.16072464.06286621-.34199524-.01641846-.40488434-.17718506-.05996704-.15740967-.19981766-.27056885-.36631393-.29638672-.16649628-.02575683-.33401871.03979492-.43880082.17175293-.1047821.13189697-.13070297.30993653-.06789398.46624756.0302124.07720947.0285225.163208-.0046997.23913574-.0332222.07598877-.09525681.13562012-.17244721.16577149-.17656326.0690918-.29412842.23773193-.29787445.42730713zm-2.03173828 1.69293212c0 .17260743-.13991165.3125-.3125.3125-.18496704-.00024414-.35273361.10845948-.42811966.27734375-.07538223.16894532-.04425049.36639405.0794487.50390625h2.25937271c.07769012-.08551025.12067413-.19696044.12054825-.3125-.00027847-.25878906-.20998383-.46844482-.46875-.46875-.17258835 0-.3125-.13989257-.3125-.3125 0-.25891113-.20986557-.46875-.46875-.46875s-.46875.20983887-.46875.46875zm5.9375.3125c.17258835 0 .3125-.13989257.3125-.3125 0-.25891113.20986557-.46875.46875-.46875s.46875.20983887.46875.46875c0 .17260743.13991165.3125.3125.3125.25876617.00030518.46847153.20996094.46875.46875.00013733.11553956-.0428505.22698975-.12054825.3125h-2.25937271c-.12369919-.1375122-.15483093-.33496093-.0794487-.50390625.07538605-.16888427.24315262-.27758789.42811966-.27734375zm3.125 0c.17258835 0 .3125-.13989257.3125-.3125 0-.25891113.20986557-.46875.46875-.46875s.46875.20983887.46875.46875c0 .17260743.13991165.3125.3125.3125.18497848-.00024414.35276031.10845948.42812729.27734375.07537079.16894532.04418564.36639405-.07957077.50390625h-2.25972748c-.12369919-.1375122-.15483093-.33496093-.0794487-.50390625.07538605-.16888427.24315262-.27758789.42811966-.27734375zm-6.25 0c.17258835 0 .3125-.13989257.3125-.3125-.00010681-.07543945.01808166-.14978027.05300903-.21661376.24601364.08557128.51453018.08026123.75695038-.01501465.01769638-.00695801.03453445-.01507569.05164337-.02282715.04934311.0756836.07570267.1640625.07589722.25445556 0 .17260743.13991165.3125.3125.3125.25876617.00030518.46847153.20996094.46875.46875.00012207.11553956-.0428772.22698975-.1205864.3125h-2.25933456c-.12369919-.1375122-.15483093-.33496093-.0794487-.50390625.07538605-.16888427.24315262-.27758789.42811966-.27734375zm-3.90624619 1.40625h13.125c.17258835 0 .3125.13989258.3125.3125 0 .17260743-.13991165.3125-.3125.3125h-13.125c-.17258835 0-.3125-.13989257-.3125-.3125 0-.17260742.13991165-.3125.3125-.3125zm1.58140183 1.25h-1.2274208l1.171875 9.375h.6414833l-.5859375-9.375zm1.21218872 9.375l-.5859375-9.375h1.23945236l.11003876 3.52087403c-.1800003.63085937-.15641022 1.30236816.06742477 1.91906738-.00419998.02215576-.00599289.0447998-.00535202.06738281l.12085724 3.86767578h-.94648361zm1.35363388-6.98046875c.31359863-.38183593.7128334-.68426513 1.16527176-.8828125v-1.51171875h-1.24007797l.0748062 2.39453125zm3.04027557-1.08166503v-1.31286622h-1.25v1.31286622c.41244889-.08380127.83755112-.08380127 1.25 0zm1.79027176 1.08166503c-.31359863-.38183593-.7128334-.68426513-1.16527176-.8828125v-1.51171875H18.489666l-.07480622 2.39453125zm.53089523 3.02111817l-.12374877 3.95935058h.9464836l.5859375-9.375h-1.23945235l-.10777283 3.4486084c-.00064469.0187378-.00298691.03735352-.00699234.05566407.18274689.6270752.1637001 1.29571533-.0544548 1.91137695zm1.44898606 3.95935058h.6414833s.47946549-3.82385253.48410416-3.8395996l.60964585-4.9104004.078125-.625h-1.22742081l-.5859375 9.375zm-4.39515305-2.5c-1.3807106 0-2.5-1.11926269-2.5-2.5 0-1.3807373 1.1192894-2.5 2.5-2.5s2.5 1.1192627 2.5 2.5c-.00154876 1.38006592-1.11993026 2.49847413-2.5 2.5zm1.25 2.5v-2.13671875c.39229584-.1722412.74518204-.4229126 1.03691483-.73669433l-.0898056 2.87341308H17.249588zm-3.53687668-2.87335205c.29171372.31378174.64458466.56445313 1.03687668.7366333v2.13671875h-.94710922l-.08976746-2.87335205zm1.66187668.93548584v1.93786621h1.25v-1.9378662c-.41244888.0838623-.83755111.0838623-1.25 0z"/>
    </g>
  </g>
</svg>
