<svg xmlns="http://www.w3.org/2000/svg" width="11.167" height="14.169" viewBox="0 0 11.167 14.169">
  <g>
    <path fill="rgb(212,211,219)" fill-rule="evenodd" d="M.22901436 8.57567083c.00003228-.30352205.2464881-.549978.55001015-.55001046l9.58930492-.00003506c.30360836.00005386.55004274.2464881.55001046.55001015.00005398.12821273-.04396752.24612142-.11754173.33972116-.0255929.05649432-.06163013.10944965-.10807932.15589887L7.77095177 11.9930242c-.20735434.20735446-.54401123.20737614-.75143043-.00004294-.20733288-.20733277-.2073114-.54398966.00004295-.75134412l2.11598969-2.11599088-8.35652916.00003472c-.30359758-.00006465-.55003195-.2464989-.55001046-.55001015z"/>
    <path fill="rgb(212,211,219)" fill-rule="evenodd" d="M10.93815513 5.59346389c-.00003228.30352204-.2464881.549978-.55001015.55001045l-9.58930492.00003507C.4952317 6.14345554.24879732 5.8970213.2488296 5.59349926c-.00005398-.12821274.04396753-.24612143.11754173-.33972117.0255929-.05649432.06163013-.10944965.10807932-.15589886L3.39621772 2.1761105c.20735435-.20735446.54401123-.20737613.75143043.00004295.20733288.20733276.2073114.54398965-.00004295.75134411L2.03161551 5.04348845l8.35652916-.00003471c.30359758.00006465.55003195.24649889.55001046.55001015z"/>
  </g>
</svg>
