<svg xmlns="http://www.w3.org/2000/svg" xmlns:xlink="http://www.w3.org/1999/xlink" width="56" height="56" viewBox="0 0 56 56">
  <defs>
    <rect id="rect-1" width="56" height="56" x="0" y="0"/>
    <mask id="mask-2" maskContentUnits="userSpaceOnUse" maskUnits="userSpaceOnUse">
      <rect width="56" height="56" x="0" y="0" fill="black"/>
      <use fill="white" xlink:href="#rect-1"/>
    </mask>
    <path id="path-4" fill-rule="evenodd" d="M28 1.14074075C13.17597103 1.14074075 1.14074075 13.17597103 1.14074075 28c0 14.82402802 12.03523028 26.85925674 26.85925925 26.85925674 14.82402802 0 26.85925674-12.03522872 26.85925674-26.85925674C54.85925674 13.17597103 42.82402802 1.14074075 28 1.14074075z"/>
    <mask id="mask-5" maskContentUnits="userSpaceOnUse" maskUnits="userSpaceOnUse">
      <rect width="56" height="56" x="0" y="0" fill="black"/>
      <use fill="white" xlink:href="#path-4"/>
    </mask>
    <path id="path-15" fill-rule="evenodd" d="M20.77185185 40.8494074c.01503704-.06533333.03214815-.12288888.04925926-.18096296-.05548148.07311112-.112.14466667-.16592592.22037037-.67851376.96400316-1.1974463 2.03093125-1.5368889 3.15985186-.22244444.74718518-.36918518 1.52081481-.36296296 2.28822222.00622223.7674074.1622963 1.53688889.6045926 2.1082963.21588142.28449471.50168102.50831152.82962963.6497037.18096296.0725926.36659259.18511111.54185185.22814815l.52318518.1374074.56155556.06377778c.1877037.01348148.37903704 0 .57037037 0 .19133333 0 .37955555-.0394074.57037037-.05651852.19089965-.02151466.38008893-.0561647.56622222-.1037037.1895875-.03677682.3766344-.08561684.56-.14622222.1845926-.05703704.37125926-.10837037.5517037-.18251852.3659027-.13371338.72467439-.28618702 1.0748889-.45681482.35051851-.17162963.69585185-.35518518 1.03133333-.55637037.1037037-.06066666.20377777-.126.3054074-.18977777-.43999611-.04087489-.8773001-.10683404-1.30977777-.19755556 0 0-.29348148-.06377778-.5822963-.1285926-.19237037-.04874073-.378-.12029629-.56518518-.17888888-.37903704-.10681482-.7305926-.28051852-1.07903704-.44385185-.17837037-.07155556-.33496296-.18614815-.49725926-.28362963-.15555556-.1037037-.32822222-.18874074-.46666667-.31422222-.28725926-.24007408-.57296296-.46666667-.7954074-.75185186-.25407408-.25355555-.41792593-.56674074-.60511112-.84466666-.0757037-.14985185-.14-.30281482-.2074074-.45007408l-.09748149-.21985185c-.02177777-.07674074-.04355555-.15244444-.0642963-.22762963-.042-.14933333-.08348147-.29607407-.1234074-.43918518 0 0-.02903704-.2208889-.05703704-.4308889-.05185185-.27896296-.02437037-.54703703-.0254074-.79696296.0170633-.43140824.08458481-.85933451.20118518-1.27503703z"/>
    <path id="path-16" fill-rule="evenodd" d="M48.48407407 54.76488889c-.07490332-.64609477-.19024067-1.28685783-.34533333-1.91851852-.07881481-.31525926-.1597037-.63-.266-.93696296-.09177778-.31111111-.2074074-.61444445-.32822222-.91725926-.1094074-.30592593-.25925926-.59422222-.39044445-.89237037-.1482963-.2882963-.294-.57918519-.4562963-.86022222-.32418503-.5641432-.68570647-1.10599232-1.08214814-1.62192593-.39599625-.5180317-.82427892-1.01056543-1.2822963-1.47466667-.4563392-.4673486-.93624818-.911087-1.43785185-1.32948148-.50555555-.41481481-1.02251852-.81666667-1.5622963-1.18792592-1.89933333-1.32637037-3.96874074-2.40333334-6.0817037-3.3848889.91467193 1.08250396 1.6308677 2.31811719 2.11555556 3.64985186.27377777.76896296.46666666 1.57474074.50555555 2.40644444.02334969.42074986-.00696817.84276056-.09022222 1.25585185-.08866667.41481482-.24162963.83377778-.504 1.1925926-.13058175.1835634-.28508188.34887504-.4594074.49155555-.08147647.06943767-.1681495.13253563-.25925927.18874074l-.06274074.04148149c-.0451111.02955555-.05185185.03007407-.08088889.04718518l-.14051851.0757037c-.3798155.19395878-.7857008.33193184-1.20503704.40962963-.83637037.15555556-1.6882963.09385186-2.4945926-.08451851-.80146787-.18622191-1.57921066-.4628068-2.31829629-.82444445-.36866667-.1762963-.72592593-.3697037-1.0805926-.5765926 0 0-.2634074-.15555555-.51851851-.322l-.25614815-.17059258-.12651852-.08866667-.03266666-.02333333h-.25925926c-.31111112.2214074-.62222223.42155555-.94474074.6102963-.35.2074074-.7108889.39718518-1.078.57451851-.37027244.17766307-.74927272.33653168-1.13555556.476-.1902963.07622222-.38888889.13066667-.58592593.18977778-.1959377.06455153-.39580217.11650936-.59837037.15555555-.20098373.04983225-.4050298.0863804-.61081481.10940741-.2074074.01762963-.41014815.06585185-.62222222.05807408-.21207408-.00777778-.41844445.01296296-.62792593 0l-.62481481-.08296297c-.21103704-.05185185-.4225926-.11407407-.6325926-.17318518-.21-.05911111-.37074074-.16125926-.5574074-.24162963-.40508997-.18492667-.7560494-.47054981-1.01940741-.82962963-.25543126-.35106054-.43710858-.7502215-.53407408-1.17340741-.09638754-.40884716-.14167177-.82807462-.13481481-1.24807407.00881481-.82962963.1762963-1.64266667.42518518-2.41785186.25615895-.77251965.59553506-1.51490489 1.01214815-2.21407407.20576046-.34911402.43080012-.6865004.67407408-1.0105926.11666666-.15555555.24007407-.308.36659259-.45785184-2.14148148.99659259-4.24044445 2.08651851-6.16207407 3.4382963-1.06993596.74258523-2.06717435 1.5847864-2.97837038 2.51533333-.45170504.46476943-.87456817.95672445-1.26622222 1.4731111-.3927427.5141001-.75096074 1.053679-1.0722963 1.6151852-.3180193.56219747-.59678293 1.14571265-.83429629 1.74637036-.11977778.30022222-.23281481.60251852-.32511111.9125926-.1037037.3054074-.18355556.6191111-.26288889.93333333-.15302927.62841798-.26714722 1.26567756-.3417037 1.90814815-.0337037.322-.05185186.64555555-.08140741.96755555l-.01866667.7165926 20.58518519-.0388889 20.58518518.03733334-.01866666-.72022222c-.02540741-.32511111-.0445926-.65022223-.07985186-.97377778z"/>
    <path id="path-17" fill-rule="evenodd" d="M35.35155556 43.76296296c-.13481482.60718519-.45577778 1.21748148-.87525926 1.792l-.35414815.41481482c-.11925926.14-.27377778.24577778-.4117037.37281481-.27066667.266-.61807408.43296297-.94422223.64348148-.16903703.09385186-.3531111.15918519-.53096296.24111112-.18148148.07259259-.35725926.16955555-.55066667.21259259-.38162963.098-.75651852.24422222-1.162.28725926-.39977778.0617037-.80888889.14155555-1.19622222.14362963l-.08348148.00414814c.07674074.04822223.15192592.098.2297037.14414815 0 0 .50555556.30125926 1.03392593.55896297.69791505.34681783 1.43307696.61297914 2.19125926.79333333.75185185.17162963 1.5291111.2297037 2.2711111.09437037.36875937-.06764664.72644238-.18576928 1.06296297-.35103704l.12444445-.06481481c.01776131-.00803825.03507097-.01703927.05185185-.02696297l.06325926-.03992592c.08019673-.04628566.15603728-.0997385.22659259-.1597037.13703398-.10934801.25907082-.23626633.36296296-.37748149.21674074-.28466666.35311111-.6331111.43762963-.99555555.07966418-.371231.11258634-.75096811.098-1.13037037-.02177778-.76948148-.19444444-1.54051852-.4397037-2.28148148-.38584978-1.15949674-.95059396-2.25154544-1.67377778-3.2365926.00291176.01003471.00637379.0199015.01037037.02955556.1190556.41163749.19448292.83465612.22503704 1.26207407.01244444.24837037.00466667.51851852-.00725926.79644445-.04822222.27637037-.05911111.57659259-.1597037.87318518z"/>
  </defs>
  <g>
    <use fill="none" xlink:href="#rect-1"/>
    <g mask="url(#mask-2)">
      <ellipse cx="28" cy="28" fill="rgb(250,251,255)" rx="26.859" ry="26.859"/>
      <g>
        <use fill="none" xlink:href="#path-4"/>
        <g mask="url(#mask-5)">
          <path fill="rgb(240,190,180)" fill-rule="evenodd" d="M37.37325926 24.19614815c-.14103704-.1457037-.43918519-.2462963-.73681482-.15814815-.25614814.07518519-.47496296.27792593-.64866666.58281481.371107.17113181.59803368.55360642.57037037.96133334-.0032878.05167987-.04621576.09188225-.098.09177778h-.0082963c-.02587318-.00159857-.05004413-.01343659-.06716927-.03289697-.01712514-.01946038-.02579395-.04494029-.02408999-.07080674.02166842-.32999594-.16457703-.63854256-.46666666-.7731111-.00985186.02229629-.0197037.04562962-.02903704.06844444-.12081482.91155555-.25925926 1.81896296-.42155556 2.63718518.31422223.21.72281482.23333333 1.14074074.04718519.07512183-.03481558.14771847-.07483903.21725926-.11977778-.1486986-.0584648-.30689172-.0890488-.46666666-.09022222-.0515031-.00374383-.09137594-.04662027-.09137594-.09825926 0-.051639.03987283-.09451544.09137594-.09825926.2264595.00134764.44960001.0545608.6522963.15555555.57659259-.44955555 1.1174074-1.32118518 1.21229629-2.70148148.056-.81562963-.41481482-1.34814815-.88925926-1.4394074-.51851852-.09851852-.98518519.29659259-1.27711111 1.05674073.14470049-.16941367.33378478-.29511073.546-.36296296.38785185-.11355555.756.028.93333333.2074074.0334087.0394357.03066238.09798497-.00629106.13412025-.03695344.03613528-.0955495.03757027-.13422746.00328717l.00155556-.00051852z"/>
          <path fill="rgb(203,140,132)" fill-rule="evenodd" d="M35.57037037 25.61481481c-.00637532.00071063-.01280986.00071063-.01918518 0-.02552724-.00512498-.04796576-.02019757-.06236334-.04189123s-.01957062-.04822495-.0143774-.0737384c.23333333-1.16096296.73162962-1.5374074 1.10859259-1.64837037.38837037-.11459259.756.02851852.93333333.20740741.0334087.0394357.03066238.09798496-.00629106.13412024-.03695344.03613528-.0955495.03757027-.13422746.00328717-.14103704-.14518519-.43866666-.2462963-.73681481-.15814815-.45940741.13481482-.80422223.66733333-.9717037 1.49851852-.0092095.04614222-.04991247.07922699-.09696297.07881481z"/>
          <path fill="rgb(203,140,132)" fill-rule="evenodd" d="M36.45911111 25.67392593h-.00725926c-.02587318-.00159857-.05004413-.01343659-.06716927-.03289697-.01712514-.01946038-.02579395-.04494029-.02408999-.07080674.02876206-.43713387-.30135212-.81523515-.73837037-.8457037-.05375354-.00360714-.0945157-.04992778-.09125926-.1037037-.00042505-.02657997.01082679-.05200948.03078328-.0695712.0199565-.01756171.0466102-.02548909.07292043-.02168806.54471934.036859.95673994.50780598.92088889 1.05259259-.00324516.05108567-.04526073.09106823-.09644445.09177778z"/>
          <path fill="rgb(40,40,51)" fill-rule="evenodd" d="M36.33674074 30.15548148c-.75328155-.00254324-1.389709-.55936198-1.4922963-1.30562963-.00705625-.05381003.03073445-.10319297.08451852-.11044444.05357455-.00618936.10241775.0311883.11044445.08451852.09351846.69497783.7176239 1.19313599 1.41604275 1.13027898.69841884-.06285702 1.22354818-.66444519 1.1914743-1.36495297-.03207387-.70050779-.60998016-1.2515917-1.31122076-1.25036305-.0515031-.00374382-.09137593-.04662027-.09137593-.09825926 0-.051639.03987283-.09451544.09137593-.09825926.54490247-.01010944 1.05279562.27480689 1.32820701.74509346.2754114.47028656.2754114 1.05263763 0 1.5229242-.2754114.47028656-.78330454.75520289-1.328207.74509345h.00103703z"/>
          <path fill="rgb(240,190,180)" fill-rule="evenodd" d="M18.46807407 24.19614815c.14155556-.1457037.43918519-.2462963.73681482-.15814815.25614815.07518519.47496296.27792593.64866667.58281481-.12416428.0577182-.23503427.1405176-.32562963.24318519-.17421618.19703672-.26201931.45577573-.2437037.71814815.00328778.05167987.04621575.09188225.098.09177778h.00622221c.02587318-.00159857.05004414-.01343659.06716928-.03289697.01712513-.01946038.02579395-.04494029.02408998-.07080674-.02210037-.32936944.16300038-.63773281.46407408-.7731111.01037037.02229629.0197037.04562962.02955555.06844444.1202963.91155555.25925926 1.81896296.42103704 2.63718518-.31422222.21-.72281481.23333333-1.14074074.04718519-.07512183-.03481558-.14771847-.07483903-.21725926-.11977778.1486986-.0584648.30689173-.0890488.46666667-.09022222.0515031-.00374383.09137593-.04662027.09137593-.09825926 0-.051639-.03987283-.09451544-.09137593-.09825926-.2264595.00134764-.44960002.0545608-.6522963.15555555-.57503704-.45162963-1.1174074-1.32118518-1.21074074-2.70355555-.056-.81562963.41481481-1.34814815.88925926-1.43940741.51592593-.09851852.98518518.2965926 1.27711111 1.05674074-.14451575-.16962194-.33366425-.29536169-.546-.36296296-.38785185-.11355556-.756.028-.93333333.2074074-.02759672.024461-.03922185.06228602-.03012663.0980239.00909521.03573787.03738769.06340395.0733202.07169689.03593253.00829293.07348784-.00417601.09732495-.03231338l.00051851.00155556z"/>
          <path fill="rgb(203,140,132)" fill-rule="evenodd" d="M20.27407407 25.61481481c.00637382.00073728.01281138.00073728.01918519 0 .02559644-.00499662.04812341-.02004138.06254475-.04177083.01442134-.02172945.01953436-.04833144.01419599-.0738588-.23333333-1.16096296-.73162963-1.5374074-1.1085926-1.64837037-.38837036-.11459259-.756.02851852-.93333333.20740741-.02759671.024461-.03922184.06228602-.03012663.0980239.00909522.03573787.0373877.06340395.07332022.07169688.03593252.00829294.07348783-.004176.09732493-.03231337.14155556-.14518519.43866667-.2462963.73681482-.15814815.4594074.13481482.80422222.66733333.9717037 1.49851852.0092095.04614222.04991246.07922699.09696296.07881481z"/>
          <path fill="rgb(203,140,132)" fill-rule="evenodd" d="M19.38222222 25.67392593h.00622222c.02587318-.00159857.05004414-.01343659.06716928-.03289697.01712513-.01946038.02579395-.04494029.02408998-.07080674-.0137853-.21063553.05672104-.4181125.19599057-.57673583.13926953-.15862332.33587942-.25538277.54652795-.26896787.05375355-.00360714.0945157-.04992778.09125926-.1037037.00060645-.02663815-.01059274-.05218208-.03059553-.06978454-.0200028-.01760246-.04676332-.02546307-.07310817-.02147472-.26226094.01691099-.5070317.13742129-.68035879.33496749-.17332709.1975462-.2609812.4559107-.24364121.71814362.00350341.05088148.04544714.09057017.09644444.09125926z"/>
          <path fill="rgb(40,40,51)" fill-rule="evenodd" d="M19.5045926 30.15548148c.75454962-.0007684 1.3928677-.5580794 1.4954074-1.30562963.00705625-.05381003-.03073445-.10319297-.08451852-.11044444-.05357455-.00618936-.10241774.0311883-.11044444.08451852-.09351847.69497783-.7176239 1.19313599-1.41604275 1.13027898-.69841885-.06285702-1.22354819-.66444519-1.19147431-1.36495297.03207388-.70050779.60998016-1.2515917 1.31122076-1.25036305.0515031-.00374382.09137594-.04662027.09137594-.09825926 0-.051639-.03987284-.09451544-.09137594-.09825926-.54490246-.01010944-1.05279561.27480689-1.32820701.74509346-.2754114.47028656-.2754114 1.05263763 0 1.5229242.2754114.47028656.78330455.75520289 1.32820701.74509345h-.00414815z"/>
          <path fill="rgb(240,190,180)" fill-rule="evenodd" d="M21.08814815 43.2542963c.03992592.1291111.08088889.25925926.12237037.3951111l.06274074.20325927.09385185.19548148c.06533333.13066666.12548148.26703704.19548148.4002963.17837037.24422222.3277037.52162962.56466667.74355555.42051852.48896296 1.00074074.87162963 1.62762963 1.19777778.3245926.14725926.6497037.30696296 1.008.40392592.17681481.05185186.35.11925926.53148148.16385186l.55274074.11666666c.7547783.14705887 1.52136863.2251584 2.2902963.23333334l.29037037.01192592.07259259.00311111h.05911111l.14777778-.00674074.58903704-.02696296c.40185185 0 .76377777-.07414815 1.13296296-.12703704.37177778-.0337037.72592593-.17007407 1.08007407-.25925926.182-.03785185.34066667-.12703703.50866667-.19237037.16385185-.07362963.33496296-.1317037.48948148-.2157037.29555556-.1902963.61496296-.33962963.8622963-.57037037.126-.11096296.27066666-.2017037.37903703-.32511111l.3277037-.36296297c.38733334-.5071111.69533334-1.04792592.82962964-1.5991111.1037037-.26548149.112-.54133334.16851852-.79385186.02074074-.25666667.03888889-.504.03681481-.73474074-.01170942-.40089591-.06576282-.7994311-.16125926-1.18896296-.04822222-.1597037-.09125926-.3022963-.12859259-.42674074-.03733333-.12444445-.09281482-.22037037-.12548148-.30385186-.07155556-.16385185-.1094074-.25148148-.1094074-.25148148L34.41407406 39.858l-.90325926-.40651852c-.05504292-.02125396-.1066001-.05061534-.15296296-.08711111-.04798076-.04291272-.08724011-.0946717-.11562963-.15244444-.0438078-.08551937-.07756357-.17582472-.10059259-.26911112-.04436439-.16737871-.077793-.33746626-.10007407-.50918518-.09125926-.66992593-.11666667-1.33311111-.13844445-1.99681482-.03266667-1.16355555-.02177778-2.324-.0082963-3.4834074-.39023799.37812371-.8073542.72748237-1.24807407 1.04533333-.53631589.38066496-1.11187196.70277472-1.71681481.96081482-.15555556.07051851-.32044445.11355555-.48118519.17214814l-.24422222.08192593-.26237037.056c-.36296296.09333333-.68392593.1062963-1.01266667.13118518-.75237037-.01192592-1.40414815-.19185185-2.04244444-.44022222-.60496012-.258215-1.18051593-.58049843-1.71681482-.96133333-.37343756-.2685873-.7303097-.55948744-1.06866666-.87111111.01296296 1.15266666.02385185 2.30688889-.01140741 3.46318518-.02385185.66007408-.05185185 1.31962963-.15555556 1.988-.0268434.17445994-.06953869.34610884-.12755555.51281482-.01702294.04756615-.0381907.09354528-.06325926.1374074-.03370273.06014924-.07899555.11302023-.13325926.15555556l-.02488889.01762963-.0362963.01918519-.00674074.0031111-.014.00674075-.05651852.02488889-.112.05185185-.89807407.40496296-.04718519.02177778c-.00933333.02748148-.03785185.11303704-.0871111.25666667-.09231752.2460722-.16513472.49902529-.21777778.75651851-.09293164.38915361-.14009067.78783015-.14051852 1.18792593.0114074.23125926-.00414815.4785926.05444444.73111111.02177778.12288889.04303704.25355556.0642963.38681482z"/>
          <g>
            <use fill="rgb(255,255,255)" xlink:href="#path-15"/>
            <use fill-opacity="0" stroke="rgb(255,255,255)" stroke-dasharray="0 0 0 0" stroke-linecap="butt" stroke-linejoin="miter" stroke-width=".5" xlink:href="#path-15"/>
          </g>
          <g>
            <use fill="rgb(242,166,28)" xlink:href="#path-16"/>
            <use fill-opacity="0" stroke="rgb(242,166,28)" stroke-dasharray="0 0 0 0" stroke-linecap="butt" stroke-linejoin="miter" stroke-width=".5" xlink:href="#path-16"/>
          </g>
          <g>
            <use fill="rgb(255,255,255)" xlink:href="#path-17"/>
            <use fill-opacity="0" stroke="rgb(255,255,255)" stroke-dasharray="0 0 0 0" stroke-linecap="butt" stroke-linejoin="miter" stroke-width=".5" xlink:href="#path-17"/>
          </g>
          <g opacity=".5">
            <path fill="rgb(160,160,160)" fill-rule="evenodd" d="M22.95481481 35.18407407s2.30740741 3.5865926 4.8102963 3.5865926 5.1182963-3.88474074 5.1182963-3.88474074v-2.13007408S30.98925926 35.18407407 28 35.18407407c-2.98925926 0-5.04777778-2.4137037-5.04777778-2.4137037l.0025926 2.4137037z"/>
          </g>
          <g opacity=".3">
            <path fill="rgb(160,160,160)" fill-rule="evenodd" d="M18.59822083 45.30244446c-.03250695.70787048-.03021813 1.39628982.02715873 2.03561783-.1230526-.5479622-.1482048-1.21751023-.02715873-2.03561783zm.02715873 2.03561783c.20711136 2.30775833 1.13199997 3.97584915 3.72899056 3.61001205 3.3164444-.46718597 5.53414917-3.33200073 5.53414917-3.33200073s-3.2267418 2.349411-6.05111313 2.1902237c0 0-2.6450882.05636214-3.2120266-2.46823502z"/>
          </g>
          <g opacity=".3">
            <path fill="rgb(160,160,160)" fill-rule="evenodd" d="M37.4888916 45.30244446c.03252411.70820999.0302391 1.39695358-.02717972 2.03654098-.56721496 2.52365876-3.21200943 2.46731186-3.21200943 2.46731186-2.82384872.1591835-6.05059051-2.1902237-6.05059051-2.1902237s2.21770477 2.86481477 5.53414917 3.33200074c2.59664154.3657875 3.52131271-1.30181122 3.72845077-3.6090889.12319565-.54813385.1483841-1.21797561.02717972-2.03654098z"/>
          </g>
          <path fill="rgb(40,40,51)" fill-rule="evenodd" d="M21.42051852 40.06022222s-.03111111.09177778-.09125926.26392593c-.09210684.24171445-.16492706.4903435-.21777778.74355555-.0929285.38211834-.14009903.7739296-.14051852 1.16718519.01140741.2265926-.00414815.46977778.05444445.71814815.02022222.12444444.04148148.25303703.06274074.3837037 0 0 .06014815.18977778.12237037.38785185l.06274074.20014815.09385185.19185185c.06533333.1285926.12548148.26237037.19548148.39303704.17837037.24007407.3277037.51281481.56466667.7305926.42051852.48014814 1.00074074.85607407 1.62762963 1.17651851.3245926.14466667.6497037.30125926 1.008.39666667.17681481.05185185.35.1177037.53148148.16074074l.55274074.1145926c.75505356.14465421 1.52155094.22135601 2.2902963.22918518l.29037037.01244444.07259259.0025926h.05911111l.14777778-.00674075.5905926-.02488889c.40185184 0 .76377777-.0731111 1.13296295-.12548148.37177778-.03318518.72592593-.16696296 1.08007408-.25251852.182-.03681481.34066667-.12496296.50866667-.18874074.16385185-.07259259.33496296-.12962963.48948148-.21207407.29555555-.18666667.61496296-.3334074.8622963-.56103704.126-.10888889.27066666-.19807407.37903703-.3194074l.3277037-.35570371c.38733334-.4982963.69533334-1.02925926.82962963-1.5705926.1037037-.25925925.112-.53148147.16851852-.77777777.02074074-.252.0388889-.49466667.03681482-.72177778-.01170554-.39389265-.06576994-.78538155-.16125926-1.1677037-.04822222-.15555556-.09125926-.29711111-.1285926-.41948148-.03733333-.12237037-.09281481-.21622223-.12548148-.29814815l-.10837037-.2494074-.00777777-.01762964c-.01550966-.03516228-.01622543-.07508491-.00198618-.11078056.01423924-.03569565.0422368-.06416433.07768988-.07899722.0711725-.02998528.15346653-.00075516.18977778.06740741l.13222222.25925926c.04044444.08503704.1037037.18562963.15244444.31111111.04874074.12548148.10007408.27585185.1597037.44177778.11976914.40550679.19556331.82272239.22607408 1.24444444.01244445.24422223.00466667.50711112-.00725926.78192593-.04718518.2717037-.05807407.56622222-.15866666.85607407-.13481482.5962963-.45577778 1.1957037-.87525926 1.76296297L34.12214815 46.004c-.11925926.13792593-.27377778.24162963-.4117037.36607407-.27066667.25925926-.61807408.42518519-.94422223.6325926-.16903703.09177777-.3531111.15555555-.53096296.23644444-.18148148.07155556-.35725926.16696296-.55066667.2074074-.38162963.09644445-.75651852.24007408-1.162.28207408-.39977778.06066667-.80888889.13896297-1.19622222.14155556l-.59007407.0305926-.14777778.00725925c-.03111111 0-.03474074.00311111-.08866667.00311111l-.07518518-.0025926-.30177778-.00985184c-.80267511-.01351993-1.60243941-.10029991-2.38933333-.25925926l-.5822963-.12651852c-.19237037-.0477037-.378-.11822222-.56518519-.17577778-.37903703-.1037037-.73059259-.27585185-1.07903703-.43607407-.17837037-.07-.33496297-.18303704-.49725926-.27844445-.15555556-.1037037-.32822222-.18562963-.46666667-.3111111-.28725926-.23592593-.57296296-.46044445-.7954074-.7388889-.25407408-.24888889-.41792593-.55637037-.60511112-.82962963-.0757037-.14725926-.14-.2971111-.2074074-.4422963l-.09748149-.2157037c-.02177777-.0757037-.04355555-.14985185-.0642963-.22348148-.042-.14674074-.08348147-.29088889-.1234074-.4314074 0 0-.02903704-.21725927-.05703704-.42362964-.05185185-.27377777-.02437037-.53718518-.0254074-.78244444.01923775-.42347468.08886432-.84314884.2074074-1.25014815.08192593-.35.19911111-.58592592.266-.75651852l.1037037-.25925926c.0312913-.07466755.11668409-.11044021.19185186-.08037037.07257221.02830258.10970497.1089861.084.18251852z"/>
          <path fill="rgb(240,190,180)" fill-rule="evenodd" d="M35.2742958 25.45925903c0 1.5750332-1.27681731 2.85185242-2.85185241 2.85185242-1.57432175-.00171661-2.8501358-1.27752876-2.85185051-2.85185242 0-1.5750351 1.27681732-2.85185241 2.85185051-2.85185241 1.5750351 0 2.85185242 1.27681732 2.85185242 2.85185241zm-2.83422088-.60562896c0-.48682976-.39465332-.88148117-.88148308-.88148117v-.0020752c-.2341423 0-.45866585.0931549-.62403679.25891304-.16536903.16576004-.2579956.39050102-.25744438.62464333 0 .48682785.39465332.88148117.88148117.88148117.48682976 0 .88148308-.39465332.88148308-.88148117z"/>
          <path fill="rgb(240,190,180)" fill-rule="evenodd" d="M24.44031143 22.83700752c1.06048012.43937874 1.75182343 1.4743538 1.75161362 2.62225151-.0019989 1.56618882-1.27114487 2.83533478-2.83733368 2.83733368-1.14789772.00020981-2.18287277-.6911335-2.62225151-1.75161361-.43937874-1.06047821-.19661713-2.28121567.61507034-3.09290123.81168556-.81168747 2.03242302-1.05444909 3.09290123-.61507035zm.48539162 2.01662255c0-.48682976-.39465141-.88148117-.88148117-.88148117v-.0020752c-.2341423 0-.45866585.0931549-.6240368.25891304-.16536902.16576004-.2579956.39050102-.25744437.62464333 0 .48682785.39465332.88148117.88148117.88148117.48682976 0 .88148117-.39465332.88148117-.88148117z"/>
          <path fill="rgb(240,190,180)" fill-rule="evenodd" d="M23.13733292 33.22096157c.42378807.3962593.87422561.76301956 1.34814834 1.09770584.50559998.34999085 1.04684067.64546585 1.61466599.88148117.57036972.22296143 1.21437072.37073899 1.78681564.38162995l.49362946-.03318787c.17162895-.00362778.30022049-.05548096.45214843-.07881546l.21985245-.0440712.22244263-.07311249c.14673996-.05185318.2986679-.0876274.4402237-.15192413.56798743-.23601532 1.10939788-.53149032 1.61518478-.88148117.47499084-.33438492.9264717-.70097351 1.35125732-1.09718704.2074089-.18718338.39770508-.37799835.57348251-.57036972.1840744-.1866684.3453331-.38162995.50140763-.56777954.28339004-.33878327.54738998-.6933241.79074096-1.06192303.1151123-.1612587.20377732-.3225193.28933335-.46977806.0817871-.13269997.1555481-.27018166.22089004-.41170311l.16333008-.33859253c.03940964-.10370445.0720749-.187706.09903717-.25926018.05185318-.1405201.08296204-.21466636.08296204-.21518516l-.04718018-.01348114c.73888397-2.57651902 1.22888565-7.93903733 1.22888565-9.4209633 0-.03837012-.00259018-.07570457-.00310898-.1135559-.4837799-.06170273-1.37355804-.0679264-2.6242218-.0689621-.28259277 0-.49000168-.35622215-.75289154-.8068161-.11096191-.19029617-.30125809-.51851844-.42777634-.63881492-.04303741.13014793-.0907402.35985183-.12496566.52525901-.11925507.57037163-.19081116.91622353-.46251679.91622353 0 0-.52111053-.00311088-1.08370209-.00985145-.24007415-.0031128-.2986679-.1400013-.77777862-2.44948197-.12340736-.59214783-.2774086-1.33311176-.39718628-1.79822254-.11251831.4625187-.26288795 1.1863699-.38422012 1.76711178-.51385308 2.46711158-.54237175 2.46711158-.7611866 2.46711158 0 0-.51851845-.00363159-1.02977753-.00415039-4.14814758 0-7.65592575.1866684-8.5208149.36607552.02955628 1.66548157.51177788 6.77340698 1.22785187 9.26903725l-.0471859.01348114c.00622368.01607513.03422356.08762932.08296395.21466636.02748108.07207299.06170273.1612606.10370254.26651955l.1628151.33392525c.06487846.14045906.13812065.27690124.21933365.40859222.08555603.14674187.17370414.30800057.28881454.46925926.2436924.36835862.5076809.72288037.79074097 1.06192685.15555572.18614578.31733322.38111114.50192642.56777572.17422104.19289017.3660736.38318634.57192612.57088852zm7.39614868-12.10896206c-.08159256.01306343-.14683342.07480622-.1643715.15555573v.0015564c-.02252197.1068096.04492379.21190452.15140725.23592567 0 0 .21985245.04925918.5511856.09385109.4039135.04991531.81007958.07950782 1.21696282.08866691.44281387.01399994.88718414.00674057 1.2205925-.01399994.33340836-.0207405.4592781-.03652.55636978-.04874038.09709168-.01222039.1709137-.09318352.17413712-.19098854.00322723-.09780693-.06509781-.18345642-.16117478-.20204926 0 0-.22088623-.0451107-.55170059-.08607292-.33081436-.04096413-.77415085-.07726097-1.21644592-.09592629-.44229508-.01866722-.88666725-.01607513-1.2200737.00622178-.33340836.0222969-.47529793.04293632-.55688858.05599975zm-8.80755615.12288857s.22037124-.04251862.5517044-.08607483c.33133316-.0435543.77362824-.08036995 1.21644402-.09592438.44281578-.01555634.88718605-.01503754 1.2205925.00622177.33340644.0212593.55636978.05599976.55636978.05599976.0949707.01483154.16598701.09508323.16915512.19115257.0031681.09607124-.06240463.18082619-.15619087.20188522-.09378815.02105713-.21985245.04925919-.55118561.0938511-.4039116.04993438-.81007958.0795269-1.21696282.0886669-.44333457.01399995-.88718605.00518418-1.2205925-.01399993-.33340835-.01918602-.55637168-.04874039-.55637168-.04874039-.09709168-.01222229-.1709118-.09318542-.17413712-.19099045-.00322533-.09780502.06509972-.18345642.16117478-.20204734zm10.69651794.97585296c1.7916298.00000191 3.24422073 1.45205117 3.2448883 3.24368096.00066758 1.79162979-1.45084 3.24476051-3.24246978 3.24609565-1.7916298.00133706-3.2453022-1.44962883-3.24730683-3.24125862.0005722-1.792202 1.45268822-3.24524498 3.24488831-3.24696159v-.0015564zm-10.30461884.26319695c-1.20728302.50024223-1.99433136 1.67850113-1.99412155 2.98532104.002285 1.78333855 1.44754982 3.22837067 3.23088837 3.23036957 1.30681992 0 2.48495293-.78723526 2.98500252-1.9946003.50004959-1.20736312.22353363-2.59706687-.70060158-3.52105522-.9241352-.92398643-2.31388283-1.20027923-3.52116776-.7000351zm4.91773034-.06149292c-.10853386 0-.19651795.08798408-.19651795.19651794v5.3210373c0 .53562927.3458519.8954811.86074066.8954811h1.41296387c.10853386 0 .19651794-.08798408.19651794-.19651794s-.08798408-.19651794-.19651794-.19651794h-1.41400146c-.42103577 0-.46666527-.35103798-.46666527-.50244522V22.608963c0-.10853386-.087986-.19651794-.19651985-.19651794zm3.03125953 7.81718445c-.3458519.3914814-1.01785087.64037132-1.84436989.68392563-.07933235.00362968-.1607399.00622177-.24474144.00622177-.75236892 0-1.66392517-.17473984-2.2094059-.67407227-.0552597-.04650116-.08055877-.11956406-.06588935-.190279.01466942-.07071496.06694412-.12768746.13613891-.14837075.0691948-.02068329.14415932-.00174713.19523049.0493164.42570495.38992501 1.27814865.61236954 2.16792679.56570245.7114067-.03733254 1.29629707-.24370385 1.57111167-.55118561.07186509-.080019.1947899-.08717919.2754593-.01604271.0806694.07113647.08894348.19399261.01853942.27530289v-.0005188z"/>
          <g opacity=".5">
            <path fill="rgb(160,160,160)" fill-rule="evenodd" d="M24.04422222 19.7285926c.07777778 0 5.06955556.46407407 5.06955556.46407407l.80474074-1.25014815L30.674 20.19266667l1.7474074-.13637037.46096297-.48844445.70518519.62481482 1.2771111-.49362963-.90585185-.18614815-1.24444444-1.49125926-.41481481 1.35955556-1.38548149.05185185-.99555555-4.5557037-.94888889 4.39288888-4.9254074.45837037z"/>
          </g>
          <path fill="rgb(191,125,115)" fill-rule="evenodd" d="M28 29c-1 0-1.16096296-.53437037-1.16096296-1.07v-5.31948148C26.83903704 22.5019843 27 22 27.5 22.5V28c0 .43244444 1.22548148.36488889 1.61274074.43244444C29.5 28.5 29.5 29 29 29h-1z"/>
          <path fill="rgb(191,125,115)" fill-rule="evenodd" d="M28 31c-1 0-1.68622222-.2534074-2.2317037-.75274074-.05525817-.04650081-.08055815-.11956397-.06588894-.19027892.01466922-.07071496.06694368-.12768596.13613878-.14837.06919509-.02068404.14415999-.00174788.19523164.04931559.42518518.38992592 1.27607407.61392592 2.16792592.5657037.71140741-.03733333 1.2962963-.2437037 1.57111111-.55118519.03419464-.03939897.08278687-.06340489.13485603-.06662265.05206917-.00321775.1032474.01462258.14203286.04951154.03905818.03451585.06280403.08313473.06601304.1351596.00320901.05202487-.01438173.10319348-.04890193.14224781C29.72096296 30.6237037 29 31 28 31z"/>
          <path fill="rgb(40,40,51)" fill-rule="evenodd" d="M30.53348148 21.11511111s.22348148-.0337037.55688889-.056c.3334074-.0222963.77777778-.02488889 1.22007407-.00622222.4422963.01866667.88562963.05496296 1.21644445.09592592.33081481.04096297.5517037.08607408.5517037.08607408.09607611.01859176.1644003.10424282.16117453.20204807-.00322577.09780525-.07704513.1787682-.17413749.19098897-.09709236.01222076-.22296296.028-.55637037.04874074-.3334074.02074074-.77777778.028-1.2205926.014-.40688311-.00915895-.81304927-.0387518-1.21696296-.08866667-.33133333-.0445926-.55118518-.09385185-.55118518-.09385185-.0937871-.021058-.15936034-.10581386-.1561918-.20188373.00316852-.09606988.07418394-.17632083.16915476-.1911533z"/>
          <path fill="rgb(40,40,51)" fill-rule="evenodd" d="M25.28244444 21.50814815s-.21985185.04925926-.55118518.09385185c-.40391172.04993488-.81007889.0795278-1.21696296.08866667-.44333334.014-.88718519.00518518-1.2205926-.014-.3334074-.01918519-.55637037-.04874074-.55637037-.04874074-.09709235-.01222077-.17091172-.09318372-.17413749-.19098897-.00322576-.09780525.06509842-.18345631.16117453-.20204807.09607611-.01859176.22037037-.04251852.5517037-.08607408.33133334-.04355555.77362963-.08037037 1.21644445-.09592592.44281481-.01555556.88718518-.01503704 1.2205926.00622222.3334074.02125926.55637036.056.55637036.056.09497082.01483248.16598624.09508343.16915477.1911533.00316853.09606988-.0624047.18082573-.1561918.20188374z"/>
          <path fill="rgb(40,40,51)" fill-rule="evenodd" d="M32.44162963 24.85362963c0 .48682878-.3946527.88148148-.88148148.88148148s-.88148148-.3946527-.88148148-.88148148.3946527-.88148148.88148148-.88148148.88148148.3946527.88148148.88148148z"/>
          <path fill="rgb(40,40,51)" fill-rule="evenodd" d="M24.92777778 24.85362963c0 .48682878-.3946527.88148148-.88148148.88148148s-.88148149-.3946527-.88148149-.88148148.3946527-.88148148.88148149-.88148148c.48682878 0 .88148148.3946527.88148148.88148148z"/>
          <path fill="rgb(40,40,51)" fill-rule="evenodd" d="M29.42399025 26.69882965c.50228882 1.21277046 1.68578339 2.0034523 2.99845314 2.0032444 1.79026413-.0022831 3.24123001-1.4525547 3.24437332-3.24281502.00083542-1.31267166-.78927994-2.49654388-2.00180817-2.99941444-1.21252822-.50287056-2.60859298-.22566795-3.537014.70230675-.92842102.9279766-1.2062931 2.32390785-.70400429 3.53667831zm.14660263-1.2416439c0-1.5750351 1.27681732-2.85185242 2.85185051-2.85185242v.00207329c1.57351685.0017128 2.8489952 1.27626419 2.85185242 2.84977913 0 1.57503318-1.27681732 2.8518505-2.85185242 2.8518505-1.57503319 0-2.85185051-1.27681732-2.85185051-2.8518505z"/>
          <path fill="rgb(40,40,51)" fill-rule="evenodd" d="M20.36922073 26.6933136c.50021363 1.20734787 1.67850495 1.99445343 2.98537064 1.99424362 1.78313827-.002285 3.22808456-1.4472351 3.23036957-3.23037147.0002098-1.3068676-.78689194-2.48515702-1.99423981-2.98537064-1.20734787-.50021362-2.59713745-.22382546-3.5212307.7002697-.92409515.92409324-1.20048332 2.31388283-.7002697 3.52122879zm.14700127-1.23509216c.0002861-1.5673008 1.27106857-2.83761979 2.83837128-2.83733178v-.0015564c1.5671978.00200272 2.83676147 1.27272607 2.83733177 2.83992577-.0002861 1.5673027-1.27106667 2.83761978-2.83836937 2.83733368-1.5673027-.0002861-2.83761978-1.27106857-2.83733368-2.83837127z"/>
          <path fill="rgb(40,40,51)" fill-rule="evenodd" d="M30.79325867 11.29696274c.18977928.06066704.37644577.12755585.55896377.20222282 2.42718506.99711132 5.7783699 4.17459345 5.62281418 8.11844492l-.00881195.2297039-.22607422-.0445919c-.42985535-.08503723-1.3818512-.0933342-2.78548431-.0933342-.28259278-.0005188-.48999787-.35622215-.75288773-.80681419-.11096191-.19029617-.30125809-.51696205-.42777633-.63881493-.04303742.13014794-.09074402.35985184-.12548066.52525902-.1182251.57088852-.19029998.91622353-.461483.91622353-.3458519-.0020752-.70726013-.00518608-1.0821495-.00985337-.23799897-.00362968-.29659272-.13999939-.77777863-2.44948196-.12340546-.59214783-.27740478-1.33155441-.39718246-1.79822159-.11252022.4619999-.26288987 1.18637085-.38422394 1.76659394-.51436997 2.47022056-.55585098 2.47125816-.76325989 2.46762847-4.6951847-.03681564-9.06059074.18251801-9.68281364.39614869l-.25926018.0891838v-.2753334c-.00207329-3.56222153 1.76503753-6.34873963 5.2505188-8.2854066-.97485733-1.40123557-.94294358-3.26925372.07921028-4.63637017 1.02215195-1.36711645 2.80485344-1.9261241 4.42461204-1.38744116 1.61976242.53868341 2.71260071 2.05400848 2.71240044 3.76099586.0020256.684762-.17512321 1.35814095-.51385307 1.95325852z"/>
          <path fill="rgb(40,40,51)" fill-rule="evenodd" d="M35.38473246 25.21957267l.8938487-1.74373226c.05228316-.1019947.17753722-.14235418.27953193-.09007101.10199471.05228316.14235418.17753722.09007102.27953193l-.8938487 1.74373226c-.05228317.1019947-.17753723.14235417-.27953194.09007101-.1019947-.05228316-.14235417-.17753722-.09007101-.27953193z"/>
          <path fill="rgb(40,40,51)" fill-rule="evenodd" d="M19.27811555 23.3887882c.10199468-.05228322.22724876-.01192382.27953198.09007086l.89384968 1.74373175c.05228322.10199468.01192382.22724876-.09007086.27953198-.10199468.05228322-.22724876.01192383-.27953198-.09007085l-.89384968-1.74373176c-.05228322-.10199468-.01192382-.22724876.09007086-.27953198z"/>
        </g>
      </g>
    </g>
  </g>
</svg>
