<svg xmlns="http://www.w3.org/2000/svg" xmlns:xlink="http://www.w3.org/1999/xlink" width="48" height="48" viewBox="0 0 48 48">
  <defs>
    <rect id="rect-1" width="48" height="48" x="0" y="0"/>
    <mask id="mask-2" maskContentUnits="userSpaceOnUse" maskUnits="userSpaceOnUse">
      <rect width="48" height="48" x="0" y="0" fill="black"/>
      <use fill="white" xlink:href="#rect-1"/>
    </mask>
    <path id="path-4" fill-rule="evenodd" d="M24 .9777832C11.29368973.9777832.97777748 11.29370117.97777748 24S11.29368973 47.0222168 24 47.0222168c12.70630836 0 23.02222633-10.31591797 23.02222633-23.0222168S36.70630836.9777832 24 .9777832z"/>
    <mask id="mask-5" maskContentUnits="userSpaceOnUse" maskUnits="userSpaceOnUse">
      <rect width="48" height="48" x="0" y="0" fill="black"/>
      <use fill="white" xlink:href="#path-4"/>
    </mask>
  </defs>
  <g>
    <use fill="none" xlink:href="#rect-1"/>
    <g mask="url(#mask-2)">
      <g opacity=".1">
        <ellipse cx="24" cy="24" fill="rgb(0,255,230)" rx="23.022" ry="23.022"/>
      </g>
      <g>
        <use fill="none" xlink:href="#path-4"/>
        <g mask="url(#mask-5)">
          <path fill="rgb(40,40,51)" fill-rule="evenodd" d="M17.12933333 23.30044444c-.02266666-.10888888-.04444444-.21377777-.06533333-.316-.02133333-.08133333-.04088889-.16133333-.06-.24088888-.17777778.104-.828-4.548-.46266667-3.95911112 0-.184.00666667-.36888888.01911111-.55288888.016-.26222223.04444445-.52444445.08444445-.78533334.00977778-.07066666.02-.14133333.03155555-.20977778.00311112-.01688888.004-.03333333.00711112-.04977777.02133333-.13733334.05244444-.2728889.08622222-.40755556.04444444-.192.09688889-.37733333.1551111-.55422222.00666668-.02.01066668-.04088889.01777779-.06088889.02-.06622222.04844444-.12933333.07155555-.19422222v-.00222222c.03511111-.1.06711111-.20133334.11022222-.29866667.06277294-.16448854.13626392-.32468403.22-.47955556.07581705-.1587268.16208053-.31224908.25822223-.45955555.08913258-.15115686.1880082-.2963526.296-.43466667.20766123-.28086633.44095942-.54183893.69688889-.77955555.13333333-.11422223.25155555-.23422223.396-.34311112.13333333-.0991111.26044444-.20222222.408-.29555555.28755555-.196.57022222-.36577778.85466666-.53733333.28444445-.17155556.568-.33866667.84444445-.51422223.27644444-.17555555.54977777-.352.8071111-.5471111.2597911-.18812906.50331448-.39775542.728-.62666667.22245269-.2228482.41556708-.47316508.57466667-.7448889.08133334-.13333333 1.61022223-.34044444 2.1008889.07911112.07777777.06488889.1551111.13022222.236.19155555l.00666666.00533334c.10533333.07955555.21377778.1551111.32355556.22977777.22666666.1448889.48888888.28933334.78.45022223.74977777.41288889 1.6471111.91066666 2.44444444 1.71422222l.052.052c.04444444.04444444.08577778.08888889.12844444.13644444.06222223.06666667.12577778.13333334.18755556.19911111.20844444.26311112.41822222.52444445.58977778.816.09301069.14075145.1761722.28776912.24888889.44.0816267.14775628.15420473.30033343.21733333.4568889.06266667.15733333.12977778.3111111.18755556.47066666l.14933333.48444444c.056.15955556.07911111.32755556.12044444.4888889.0408327.16335095.07287868.32877351.096.49555555l.07111111.49911111c.01555556.13066667.02355556.26222222.03333334.39377778.05555555.48133333.084.94844444.09288889 1.39377778.36755555-.67022223-.23555556 3.95155555-.39511111 3.87333333-.06666667.29377778-.14177778.57777778-.22577778.84444444-.00266667.01422223-.00533334.02755556-.00844445.04177778l-.01955555.09866667-.0048889.02488889-.00933332.03377777-.016.05066667s-.03155556.10133333-.064.20533333c-.04102416.14197233-.09135534.28108829-.15066667.41644445-.22533333.55644444-2.14133333 1.44577778-2.53333333 1.86266667 0 .34622222.17777777 2.00933333.17777777 2.35555555l.43911111 1.076 1.1888889-.41466667L30.12888888 28c.0221867-.07581473.08808118-.13063894.16666667-.13866667.1191111 0 .192 0 .89644444 1.56577778 1.49155556.15333333 2.70755556.36666667 3.12488889.44444445 2.26977778-9.516.31466667-16.65955556-2.284-20.18266667-1.576-2.13688889-3.58888889-3.31377778-5.668-3.31377778-.86755556 0-1.744.20177778-2.60488889.59866667-.04070754.0195058-.08785637.02047794-.12933333.00266666-2.912-1.22133333-5.67022223-.2351111-7.75022223 2.73644445-3.30266666 4.71822222-4.2471111 13.12088889-2.26 20.03333333L14.90533334 29.58l.36222222-3.80533333c.00590661-.08355538.0712893-.150629.15466666-.15866667.08348617-.00586505.15831306.05125472.17466667.13333333l.896 3.76177778 3.01822222.82 1.272-3.66444444c-.34933333-.35911111-3.57288889-2.8888889-3.65377778-3.36622223z"/>
          <path fill="rgb(115,66,168)" fill-rule="evenodd" d="M42.40666667 46.108c-.06717797-.57809802-.17004094-1.15148859-.308-1.71688889-.07111111-.28177778-.14133334-.564-.2368889-.83866667-.08266666-.27866666-.18533333-.55066666-.29288888-.82088888-.21478255-.5404495-.4672555-1.0651477-.75555556-1.57022223-.28907806-.50524447-.61157332-.99062062-.96533333-1.45288889-.35113973-.4644826-.73083607-.90667001-1.13688889-1.324-.40773829-.41861566-.83628-.81645189-1.284-1.192-.45022222-.37333333-.91333333-.73244444-1.39466667-1.06666666-1.26088888-.88133334-2.6031111-1.64133334-3.98266666-2.33466667-.02266667.15777778-.07511111.47777778-.18177778.92844445-.2111708.90662304-.52644902 1.78579292-.93955556 2.62-.52 1.0271111-1.30133333 2.19022222-2.49333333 3.06977777-.61045372.45242725-1.29252362.79917115-2.01777778 1.02577778-.18666666.05022222-.37244444.10844445-.56222222.15155556-.19155555.03555555-.38088889.0791111-.57777778.10755555L24.6888889 41.76l-.56755556.02266667c-.78902682-.00954445-1.57090969-.15089926-2.31333333-.41822223-.73244444-.2591111-1.38622222-.66222222-1.97333333-1.09688888-.58711111-.43466667-1.06666667-.96311112-1.49955556-1.47066667-.40533333-.52977778-.75866667-1.05244445-1.02533333-1.56755556-.13481015-.24202102-.25617939-.4912879-.36355556-.74666666-.10177778-.244-.20666666-.47111111-.27466666-.696-.068-.2248889-.15111112-.428-.20622223-.62444445-.0551111-.19644444-.0991111-.37866666-.14177777-.54266666-.0888889-.32711112-.11644445-.58266667-.15555556-.75777778-.01288889-.06844445-.02222222-.12044445-.03022222-.16311111-1.44533334.71822222-2.8528889 1.50355555-4.16844445 2.4271111-.48177777.33466667-.94488889.69377779-1.39466666 1.06666667-.44855172.3754031-.8776998.77339973-1.28577778 1.19244445-.40742067.4170577-.7884554.85909956-1.14088889 1.32355555-.35355982.46241111-.67604602.94777363-.96533333 1.4528889-.288133.50531565-.54059986 1.0301497-.75555556 1.57066666-.10755555.27022222-.21022222.54177778-.29288889.82088889-.09555555.27422222-.16622222.55688889-.23733333.83866667-.13764012.56529562-.24035286 1.13852771-.30755556 1.71644444-.03066666.28933333-.04844444.57777778-.07333333.87022222l-.01644444.644 18.496-.03377778 18.49688888.03466667L42.48 46.97777778c-.02488889-.28977778-.04311111-.58044445-.07333333-.86977778z"/>
          <path fill="rgb(0,169,157)" fill-rule="evenodd" d="M16.62488889 34.54844444c.048.15555556.10088889.32755556.15822222.51466667.05733333.18711111.14577778.38266667.22577778.59511111.08.21244445.18666667.43022222.29422222.6608889.11108249.24309314.23435005.48043143.36933333.7111111.26666667.4888889.61955556.9808889 1.0168889 1.4768889.42177777.47066666.8871111.95955555 1.444 1.36622221.55688888.40666667 1.16844444.77555556 1.84933333 1.00933334.68146354.23762763 1.39700672.36296401 2.11866666.3711111l.568-.01822221.53733334-.056c.17777777-.02533334.35555555-.06444445.53555555-.096.17777778-.03911112.34933334-.09155556.52311111-.136.67408096-.20522557 1.30896341-.52206587 1.87822223-.93733334 1.11377777-.80666666 1.89688888-1.8791111 2.41822222-2.86044444.4231915-.79810019.76063058-1.63879278 1.00666666-2.508.0888889-.31511111.14711112-.56622222.18311112-.73733334.02355555-.12266666.0391111-.20222222.04444444-.23822222 0 0-.29288889-.14533333-.588-.2871111-.02533333.16044444-.06844444.4-.13955556.70444444-.18914248.81294848-.47129838 1.60140422-.84088888 2.34977777-.46533334.92133334-1.16444445 1.96755556-2.23555556 2.75822223-.54854131.4067264-1.16130798.71874316-1.81288889.9231111-.16755555.04444445-.33466667.09733334-.50533333.136-.17066667.03866667-.34222222.07111112-.51733334.09733334l-.5311111.05866667-.50844445.02044444c-.70950016-.00834512-1.41257995-.13559054-2.08-.37644444-.65866667-.2328889-1.24444445-.59555556-1.77288889-.98622223-.52844444-.39066666-.95866667-.86577777-1.34488889-1.32177777-.36266667-.476-.67955555-.94533334-.91777778-1.40755556-.12047899-.21736278-.22908287-.44109864-.32533333-.67022222-.08888889-.21866667-.18488889-.42266667-.24622222-.62444445-.06133334-.20177777-.13333334-.38355555-.18444445-.56-.0511111-.17644444-.08888889-.34-.12666666-.48666666-.08222223-.29377778-.10133334-.52266667-.13333334-.67955556 0-.00977778-.0031111-.01644444-.00444444-.02533333 0 0-.29866667.14133333-.59466667.28666667.00933334.04.02666667.11555555.0528889.23022222.04533332.16977778.08488888.43466666.18577777.74266666z"/>
          <path fill="rgb(240,190,180)" fill-rule="evenodd" d="M17.42844444 33.92088889s.064.208.14177778.45911111c.05466667.16577778.13022222.34177778.20177778.53333333.0777858.20086884.16559988.39770883.26311111.58977778.09958318.21548666.2099449.42582662.33066667.63022222.23955555.43644445.55422222.87511111.90977778 1.31733334.37866666.42088889.79244444.8551111 1.28888888 1.21777777.49644445.36266667 1.04222223.69155556 1.64844445.89955556.60683771.21094454 1.24380971.32230958 1.88622222.32977778l.508-.01644445.47822222-.04977777c.15911111-.02222223.31866667-.05733334.47733334-.08533334.15866666-.028.3111111-.08177778.46622222-.12133333.60062336-.18203254 1.16630893-.4638987 1.67333333-.83377778.9928889-.71777778 1.69377778-1.67288889 2.16-2.54888889.37925797-.71238231.68155586-1.4631359.90177778-2.23955555.07866667-.28177778.13333333-.5048889.16711111-.65777778.00711111-.03466667.01288889-.064.01866667-.08888889 0 0-.55066667-.26133333-1.10444445-.51377778l-.808-.364-.10088889-.04444444-.02533333-.01111111-.01288889-.00577778L28.892 32.31377778c.00355556.00266666-.05422222-.02977778-.03244444-.01777778-.01644445-.01288889-.02666667-.01777778-.048-.03688889-.02699614-.02582656-.05154519-.05409516-.07333334-.08444444-.01334557-.02139362-.02551186-.04350066-.03644444-.06622223-.01986578-.03934652-.0369448-.08003914-.05111111-.12177777-.048004-.15002673-.08367807-.30372255-.10666667-.45955556-.08888889-.60133333-.11511111-1.19422222-.136-1.78844444-.00755556-.2528889-.00577778-.50533334-.00888889-.75866667-.02397512-.02802293-.03803514-.06317296-.04-.1l-.06177778-2.204c-.55541677.51849759-1.1751584.96347476-1.844 1.324-.35520254.19219328-.72839566.34909218-1.11422222.46844444-.18844444.072-.4.10844445-.608.15022223-.21377778.05288889-.40355555.05555555-.59911111.07155555-.84666667.0408889-1.65866667-.17777778-2.384-.51244444-.72533333-.33466667-1.37244444-.78444445-1.94488889-1.27022222-.04977778-.04177778-.09511111-.08622223-.14355555-.1288889l-.03377778 2.62844445c-.00161892.03323856-.0127234.06531817-.032.09244445 0 .08 0 .16-.00266667.24-.02088889.59422222-.04444444 1.18755555-.136 1.78844444-.0229886.155833-.05866268.30952883-.10666667.45955556-.02870427.09350094-.07619212.1801587-.13955555.25466666-.0278204.02635359-.05888537.04905491-.09244445.06755556l-.05377777.02533333-.10133334.04444445-.808.364s-.4591111.20844444-.91688889.42444444c.00666667.02711111.01377778.05644444.02177778.08888889.04177778.152.08044445.38755555.17022222.664z"/>
          <path fill="rgb(54,18,96)" fill-rule="evenodd" d="M17.20222222 33.02488889c.36177778 1.74577778 1.13644445 3.41333333 2.33066667 4.70844444.59955555.64 1.29155555 1.19555556 2.07333333 1.57733334.77682192.3884088 1.63371168.58977029 2.50222222.588.87111112-.00755556 1.74711112-.14711111 2.53822223-.50355556.79733333-.34088889 1.4991111-.88311111 2.08888889-1.52933333.58977777-.64622222 1.05822222-1.41022222 1.42222222-2.21866667.37309736-.8089536.64880576-1.65935289.82133333-2.53333333v-.00933334c.02000967-.06358516.08390392-.10262277.14961331-.09140956.0657094.0112132.11304123.06923137.11083114.135854-.26444445 1.816-.94444445 3.59333334-2.1568889 5.0248889-.60836536.7215853-1.3715825 1.29673262-2.23288888 1.68266666-.85955556.39555556-1.8088889.55511112-2.74133334.57066667-.94891363-.0043201-1.88352719-.23161738-2.72844444-.66355555-.83578846-.42566457-1.58169155-1.0084438-2.19688889-1.71644445-1.23066667-1.4-1.98177778-3.16622222-2.24311111-4.97777778-.00306814-.06723504.04445384-.12621465.11080296-.13751774.06634911-.01130309.13071906.02861487.15008593.0930733h.00133333z"/>
          <path fill="rgb(54,18,96)" fill-rule="evenodd" d="M16.37866667 33.54488889c.19133576.9791747.5102002 1.92904406.94844444 2.82533333.42550753.89457582.98182797 1.72081802 1.65066667 2.45155556.67022222.7191111 1.4471111 1.34177778 2.324 1.77066666.87205532.43651653 1.83412853.66299413 2.80933333.66133334.97777778-.0088889 1.96-.16622222 2.848-.56666667.89511111-.38311111 1.68266667-.992 2.34044445-1.71777778.65777777-.72577777 1.18355555-1.58222222 1.59155555-2.48888889.41891009-.90437141.72491435-1.85686564.91111111-2.836V33.636c.01936687-.06445843.08373682-.10437639.15008593-.0930733.06634912.01130309.1138711.0702827.11080296.13751774-.30666667 2.02266667-1.05955555 4.00755556-2.41555555 5.6-.67775937.80244515-1.52751906 1.44196754-2.48622223 1.87111112-.956.44-2.01288889.61688888-3.0511111.63377777-1.05466667.00444445-2.10177779-.26666666-3.03511112-.73688889-.93089329-.47413126-1.76185288-1.1229648-2.44755555-1.9111111-.68026315-.77884815-1.23996074-1.65524828-1.66044445-2.6-.41133196-.9409685-.69761969-1.93176909-.85155555-2.94711112-.01064017-.07231029.03891716-.13970826.1111111-.1511111.07088205-.0114146.13807552.03534577.152.10577777z"/>
          <path fill="rgb(221,153,142)" fill-rule="evenodd" d="M19.69333333 26.91377778S20.82755556 28.52 24.072 28.48222222c3.24444444-.03777778 4.22222222-1.81555555 4.22222222-1.81555555l.11866667 2.7111111s-2.84444445 1.63866667-8.836.21911112l.11644444-2.68311111z"/>
          <path fill="rgb(240,190,180)" fill-rule="evenodd" d="M16.37777778 21.12177778c.00577778.02977778.0111111.05688889.01688889.08888889.00577777.032.01244444.06266666.01777777.09333333.192.95511111.53822223 2.14088889 1.16266667 3.296.2400309.3878337.50348253.76067342.78888889 1.11644444.46169331.57823422.97865671 1.11008283 1.54355556 1.588.58533333.4928889 1.24222222.94266667 1.9631111 1.27155556.7208889.32888889 1.51111112.52711111 2.28222223.48622222.20755555-.0151111.42488889-.0191111.60266667-.06844444.1871111-.03911111.37422222-.06577778.56355555-.13777778.38052587-.11534237.74869305-.26808783 1.09911111-.456.69423215-.3692087 1.33679778-.82826953 1.91111111-1.36533333 1.12222223-1.04444445 2.008-2.22222223 2.50222223-3.34311111.0653302-.13374298.1213161-.27185142.16755555-.41333334.02444445-.06844444.048-.13644444.07155556-.2031111l.01777777-.04977779c0-.00444444.0088889-.02577777.00666667-.016l.00666667-.02666666.02622222-.10533334c.07022222-.2791111.13688889-.544.19911111-.79288889.06222222-.24888888.12666667-.48088888.16977778-.69733333.04311111-.21644444.07733333-.41511111.11066667-.59422222.08444444-.45466667.14577777-.78488889.17777777-.96755556 0 0 .0128889-.13333333.02444445-.27155555l.04044444-.94266667c-.00444444-.35244444.00844445-.70533333-.00977778-1.05688889-.01822222-.35155555-.02755555-.7031111-.07644444-1.05022222-.02044444-.16622222-.03511111-.33288889-.06-.49777778 0-.0151111-.004-.03022222-.00622222-.04444444l-.0888889-.49333334c-.02622221-.17288888-.07377777-.34-.11555555-.50844444-.04177777-.16844444-.0751111-.34-.13777777-.50133333l-.168-.4888889c-.064-.16044444-.13822223-.31555555-.20666667-.47333333-.06950333-.15695423-.14876963-.30940085-.23733333-.45644444-.07890815-.15219865-.16892993-.29837262-.26933334-.43733333-.18444444-.28933334-.40977778-.54711111-.63155555-.80666667-.24311111-.24088889-4.636-4.24355556-9.11111111-1.39466667-1.03733334.66044445-2.53333334 1.70133334-3.16533334 2.79422223-.11514641.13515392-.22073546.27816693-.316.428-.1031341.1449454-.19609761.29686501-.27822222.45466666-.09091705.15353693-.17110832.31317695-.24.47777778-.07842516.16102554-.1458391.32718459-.20177778.49733333-.06560513.16720572-.12067585.33835541-.16488889.51244445-.05275669.1719934-.0959341.3467803-.12933333.52355555-.07196907.322275-.12406724.64866782-.156.97733334-.04280339.7513195-.01154153 1.50502802.09333333 2.25022222.00044445.02755555.00933334.75777778.20444445 1.80488889z"/>
          <path fill="rgb(240,190,180)" fill-rule="evenodd" d="M16.18222046 19.67645264c-.21110916-.3546753-.46177673-.50845337-.67110825-.57022095-.35111236-.1040039-.68133545.02487183-.83866882.18798828-.02643204.02163696-.03811264.05654907-.03004837.0897522.00806427.03320312.03444672.05883789.06786346.06594848.03342057.0071106.06796265-.0055542.08885193-.03259277.12666703-.13067627.39599991-.22042847.66266632-.14178467.2297783.06802368.42666626.25024414.5826683.52490235-.33318328.15356445-.5377922.49606323-.51511382.86221313.00327682.04666138.04212951.0827942.08889007.08267212h.00577927c.04841614-.00357056.08502197-.0453186.08222198-.09378052-.01805877-.29537964.14792252-.57131958.4173317-.69378662.0438919.0977478.08174133.1980896.11333466.30044556.00266647.01956177.00444412.04266357.0071106.06399536.04444503.33380127.10311126.6578064.16844558.9777832.02755356.18133545.06755447.44445801.1191101.77911377.0102234.08355713.02400208.17288208.04000092.2666626-.00222397.00756836-.00533295.01467896-.00799942.02224731-.28711319.21066285-.67066955.23599244-1.06133652.06176758-.63155365-.28134155-1.34399795-1.1262207-1.44844436-2.65335083-.04933167-.73910522.39511108-1.22711181.83955765-1.31155395.52310943-.10043335.98533248.32089233 1.23733139 1.12091064l.04444503-.01379394c.00266648.03466797.00400162.0697937.0071106.10446167zm-.03289032 2.32086181c0-.14727783-.11938858-.2666626-.26666641-.2666626h-.00088883c-.14692688.00048829-.26577759.11975098-.26577759.2666626 0 .14727784.1193924.2666626.26666642.2666626.14727783 0 .2666664-.11938476.2666664-.2666626z"/>
          <path fill="rgb(198,150,145)" fill-rule="evenodd" d="M25.00088889 22.57155556h-1.27066667c-.46266666 0-.77333333-.32311112-.77333333-.80444445v-5.448c.01097508-.08910633.08666477-.1560454.17644444-.1560454.08977968 0 .16546936.06693907.17644445.1560454v5.448c0 .136.04133333.45111111.42044444.45111111h1.27066667c.08993908.01010292.1579327.08616193.1579327.17666667 0 .09050473-.06799362.16656375-.1579327.17666667z"/>
          <path fill="rgb(40,40,51)" fill-rule="evenodd" d="M27.86311111 18.27955556c0 .36818983-.29847683.66666666-.66666667.66666666-.36818983 0-.66666666-.29847683-.66666666-.66666666 0-.36818984.29847683-.66666667.66666666-.66666667.36818984 0 .66666667.29847683.66666667.66666667z"/>
          <path fill="rgb(40,40,51)" fill-rule="evenodd" d="M19.652 18.27955556c0 .36818983.29847683.66666666.66666667.66666666.36818983 0 .66666666-.29847683.66666666-.66666666 0-.36818984-.29847683-.66666667-.66666666-.66666667-.36818984 0-.66666667.29847683-.66666667.66666667z"/>
          <path fill="rgb(40,40,51)" fill-rule="evenodd" d="M26.27644444 15.252c.53333334-.076 1.06666667-.07644444 1.5968889-.056.53285093.0168837 1.06382331.07168896 1.58888888.164.08906854.01362153.15386167.09172435.15079944.18177642-.00306222.09005206-.07301132.16357296-.16279944.17111247-.53012771.05677097-1.0636418.07548555-1.59644444.056-.53333334-.01555556-1.06133334-.05155556-1.5888889-.164-.08905705-.01353743-.15391386-.09154528-.15096571-.1815771.00294814-.09003183.07276937-.16362957.16252127-.17131179z"/>
          <path fill="rgb(40,40,51)" fill-rule="evenodd" d="M21.55866667 15.60488889c-.528.11244444-1.05822223.14844444-1.5888889.164-.53280262.0195069-1.06631823.00079227-1.59644444-.056-.08978812-.0075395-.15973721-.08106041-.16279944-.17111247-.00306222-.09005207.0617309-.16815489.15079944-.18177642.52506246-.09233342 1.05603644-.14713884 1.5888889-.164.53066666-.02044444 1.06222221-.02 1.59644444.056.08978812.0075395.15973721.08106041.16279944.17111247.00306222.09005207-.0617309.16815489-.15079944.18177642z"/>
          <path fill="rgb(198,150,145)" fill-rule="evenodd" d="M25.67644444 23.58133333c-.03333333-.09155555-.0991111-.112-.14666666-.04755555-.59066667.81066666-2.55555556.80622222-3.29377778-.004l.06888889-.22222222c.01499145-.04661937.00830478-.09750326-.01822222-.13866667-.02533334-.02933333-.05733334-.01333333-.072.03466667l-.108.34577777c-.0078744.01614079-.01384058.03314441-.01777778.05066667-.00476892.01673622-.0081873.0338281-.01022222.05111111l-.09955556.31955556c-.01518683.04654768-.00866019.09745549.01777778.13866666.00642302.00865805.01634964.01402819.02711111.01466667.01822222 0 .03555556-.01777778.04444444-.04933333l.0608889-.19511111c.4.44044444 1.1111111.66044444 1.80622222.66044444.704 0 1.39066666-.22533333 1.71777777-.67377778.04936234-.08690098.0578208-.1911677.02311111-.28488889z"/>
          <path fill="rgb(240,190,180)" fill-rule="evenodd" d="M31.80622482 19.43154907c.2626648-.6817627.68399811-1.037323 1.14710999-.9484253.4244461.07998658.84933472.56042481.79911041 1.29244996-.10533142 1.52752686-.81777573 2.37243652-1.44933319 2.65377808-.38000107.16842651-.75288773.14663696-1.03688812-.04846192.00755691-.03909301.01688766-.07998657.02266693-.11776733.03022385-.2062378.0577774-.39556885.0826683-.56622315.09910965-.68310546.15304184-1.05456543.15555191-1.07333374.00251389-.0187683.00099945-.03787231-.00444412-.05599975l.01600266-.21911621c.03778457-.13442993.08577728-.2657776.14355468-.3928833.27032853.12228393.43582535.40005493.41466523.69598388-.00279236.04864502.03407287.0904541.0826683.09378052h.00577545c.04676438.00012207.08561707-.03601074.08889008-.08267212.02442169-.36602783-.1791153-.70932007-.51200104-.8635559.15600204-.2737732.35289001-.45599366.5826683-.52352906.26755524-.08044434.5355568.01153564.66222382.14175415.02072525.0275879.05552292.04064941.08927918.03359985.03375244-.00708007.06036758-.03305053.06828308-.06661987.00791168-.03356933-.00430298-.06866455-.03134156-.09008789-.15866851-.1626587-.48844528-.29244995-.8382225-.18798828-.18998718.06100464-.35926056.17364502-.48888779.32531738zm-.14178085 2.5626831c0 .14727784.1193924.2666626.26666641.2666626l.00222397-.00042724c.1462326-.0012207.26420593-.11999512.26444244-.26623535 0-.14727783-.11938858-.2666626-.2666664-.2666626-.14727403 0-.26666642.11938477-.26666642.2666626z"/>
          <path fill="rgb(221,153,142)" fill-rule="evenodd" d="M33.13466667 19.29422222c-.15866667-.1631111-.4888889-.2911111-.83822223-.18844444-.22222222.06533333-.48888888.23288889-.70755555.63244444-.04718906-.01110421-.09519634-.01838705-.14355556-.02177778-.02358154-.00262733-.04718044.0047876-.06502144.0204302-.01784101.01564259-.02827784.0380694-.02875633.06179203-.00281002.0483075.03353723.0899883.08177777.09377777.02548023.00176836.05084904.00488383.076.00933334-.09444552.22013159-.16449292.44994669-.20888889.68533333-.00927939.04780618.02163556.0941786.06933334.104.00561173.00063493.01127716.00063493.01688889 0 .04207903-.0002019.07825124-.02988167.08666666-.07111111.04381927-.22939306.11360158-.4530543.208-.66666667.27117974.12177926.43799416.39938964.41822223.696-.00281002.0483075.03353723.0899883.08177777.09377778h.00577778c.04676126.0001147.08561573-.03601996.08888889-.08266667.01652387-.23572087-.06225373-.46821087-.21866667-.64533333-.0820583-.09299551-.18255533-.16791424-.2951111-.22.156-.27511111.35555555-.45422222.58488888-.52222222.26666667-.07866667.53333333.012.66222222.14222222.02072603.0275642.05552529.04065237.08927896.03357823.03375367-.00707414.06036925-.0330337.0682834-.06660035.00791414-.03356665-.00430166-.06868165-.03134013-.09008899l-.0008889.00222222z"/>
          <path fill="rgb(115,66,168)" fill-rule="evenodd" d="M31.93333333 21.73066667c-.14727593 0-.26666666.11939073-.26666666.26666666 0 .14727594.11939073.26666667.26666666.26666667.14727594 0 .26666667-.11939073.26666667-.26666667 0-.14727593-.11939073-.26666666-.26666667-.26666666z"/>
          <path fill="rgb(221,153,142)" fill-rule="evenodd" d="M16.50577778 20.58711111c-.04460235-.23533584-.114643-.4651288-.2088889-.68533333.02514734-.00447377.05051744-.0075894.076-.00933334.04909199-.00159549.0875955-.0426858.086-.09177777-.00159548-.04909198-.0426858-.0875955-.09177777-.086h-.00622222c-.04839963.00328545-.09642784.01072016-.14355556.02222222-.21777777-.4-.48577777-.56711111-.7071111-.63244445-.34977779-.104-.68044445.0248889-.83911112.188-.02703848.02140735-.03925427.05652234-.03134013.090089.00791414.03356664.03452973.0595262.0682834.06660035.03375367.00707414.06855293-.00601403.08927895-.03357823.12711111-.13022223.39511111-.22222223.66311111-.14177778.23022223.068.42844445.2471111.5848889.52222222-.3334334.1546473-.53779057.49806618-.51466667.86488889.00327315.0466467.04212762.08278136.08888889.08266667h.00577777c.04841799-.0035603.08502313-.04530994.08222223-.09377778-.01824645-.29554454.14776426-.57169866.41733333-.69422222.09441316.2135683.16405223.43724842.20755555.66666666.00841542.04122944.04458764.0709092.08666667.07111111.00576146.00061405.01157187.00061405.01733333 0 .02338932-.00469273.04391078-.01858985.05694988-.03856642.0130391-.01997657.01750139-.04435583.01238346-.0676558z"/>
          <ellipse cx="15.882" cy="21.996" fill="rgb(115,66,168)" rx=".265" ry=".265"/>
          <path fill="rgb(40,40,51)" fill-rule="evenodd" d="M25.00533295 8.5333252s-3.20000077 1.8666687-2.04444504 4.444458c0 0-1.2444458-.4888916-1.46666718-1.8666687-.1793518-1.11199951.39400864-1.78973388.62190247-2.00982666l2.88920975-.56796264zm-2.9486084.57965087L19.805336 9.555542c-.66666794 2.17779541 1.19999695 2.88891602 1.19999695 2.88891602-.93672943-1.83599854.55887222-3.00863648 1.0513916-3.33148194zm-.00000382 0l.05940247-.01168823c.05447388-.0526123.08921051-.07907104.08921051-.07907104s-.05692673.03063965-.14861298.09075927z"/>
          <path fill="rgb(40,40,51)" fill-rule="evenodd" d="M18.90444183 11.36132813s-.71110916 1.17199707.11955643 1.80621337c0 0-.48888779.06045533-.806221-.3484497-.25598527-.32983399-.18863297-.65100098-.15302277-.76281739l-.01720429.0142212c.01928711-.0357666.03244782-.05581665.03244782-.05581665s-.00671006.0147705-.01524353.04156494l.83968734-.69491578zm-.85689163.70916748c-.10350036.19198608-.38345718.83703613.24666977 1.26861572 0 0-.73244476.09823608-.90044403-.72756958l.65377426-.54104614z"/>
          <path fill="rgb(40,40,51)" fill-rule="evenodd" d="M17.4822197 13.00576782s-.71110917 1.17199707.11955642 1.80621338c0 0-.48888778.06045532-.806221-.3484497-.25598527-.32983399-.18863297-.65100098-.15302277-.76281739l-.01720429.0142212c.01928711-.0357666.03244782-.05581666.03244782-.05581666s-.00671005.01477051-.01524353.04156494l.83968735-.69491577zm-.85689164.70916748c-.10350036.19198609-.38345718.83703614.24666977 1.26861573 0 0-.73244476.09823608-.90044403-.72756958l.65377426-.54104615z"/>
          <path fill="rgb(40,40,51)" fill-rule="evenodd" d="M25.49422222 8.97777778s-1.15555555 1.64444444.22222222 1.95555555c1.37777778.31111111 2.59333334-.06488889 3.20755556 1.32311111.61422222 1.388 1.90355556 1.788 3.59244444 1.74355556 1.6888889-.04444444-.3111111-2.22222222-.3111111-2.22222222l-6.71111112-2.8z"/>
          <path fill="rgb(0,169,157)" fill-rule="evenodd" d="M32.052 10.13333333s2.35822222.31555556 2.26666667 1.04044445c-.09155556.72488889-1.652 2.73066666-2.09644445 1.836-.44444444-.89466667-2.17066666-2.0048889-.17022222-2.87644445z"/>
          <path fill="rgb(0,169,157)" fill-rule="evenodd" d="M32.17777778 10.12444444s-.89822222-2.20355555-1.5768889-1.93288888c-.67866666.27066666-2.22844444 2.28355555-1.24977777 2.492.97866667.20844444 2.48355556 1.59644444 2.82666667-.55911112z"/>
          <path fill="rgb(2,201,181)" fill-rule="evenodd" d="M32.58266667 9.72844444l.15244444.13333334c.07481374.06533829.12003772.15814495.1253945.25732909.00535678.09918414-.0296086.1963217-.09695005.26933757l-1.25866667 1.36933334c-.12006045.13067214-.3162101.15719904-.46666667.0631111l-.20088889-.12577777c-.09383919-.05860537-.15637588-.15627715-.17033185-.26602966-.01395598-.10975252.0221462-.21996708.09833185-.30019256l1.30711111-1.37777778c.1365023-.14310152.36156812-.15310009.51022223-.02266667z"/>
        </g>
      </g>
    </g>
  </g>
</svg>
