<svg xmlns="http://www.w3.org/2000/svg" xmlns:xlink="http://www.w3.org/1999/xlink" width="144" height="30.216" viewBox="0 0 144 30.216">
  <defs>
    <rect id="rect-1" width="144" height="30.216" x="0" y="0"/>
    <mask id="mask-2" maskContentUnits="userSpaceOnUse" maskUnits="userSpaceOnUse">
      <rect width="144" height="30.216" x="0" y="0" fill="black"/>
      <use fill="white" xlink:href="#rect-1"/>
    </mask>
  </defs>
  <g>
    <use fill="none" xlink:href="#rect-1"/>
    <g mask="url(#mask-2)">
      <path fill="rgb(0,140,255)" fill-rule="evenodd" d="M36.29712787 10.44668852v4.5881705h6.39454426c.49825574 0 .89264262.39438688.89264262.89264262 0 .49825574-.39438688.87186885-.89264262.87186885h-6.39454426v5.54313443c0 .5190295-.43593443.93450492-.95496394.93450492-.5190295 0-.93419016-.41516066-.93419016-.93450492V9.63682623c0-.51871475.41516066-.95496393.93419016-.95496393h8.07596066c.49825574 0 .89264262.39470163.89264262.89264262 0 .49857049-.39438688.8721836-.89264262.8721836h-7.12099672z"/>
      <path fill="rgb(0,140,255)" fill-rule="evenodd" d="M53.44618988 22.3425064v-5.87520217c0-2.03456879-1.30812073-4.08991241-4.33919525-4.09022903-1.47399902 0-2.61592865.33206558-3.59165955.74722671-.35284424.14541626-.53981018.43593216-.53981018.7890892 0 .456707.35315705.7890854.76831818.7890854.08277893 0 .18665314-.02077104.26974487-.04154588.76831818-.24928665 1.59863281-.49856948 2.76133728-.49856948 1.86869812 0 2.78211212.72676849 2.78211212 2.57468795v.1661911h-2.51205444c-3.2385025 0-4.77481842 1.41167069-4.77481842 3.36314774 0 1.95147324 1.5778656 3.11417389 3.38391876 3.11417389 1.95147705 0 3.15572357-.80954743 3.9029541-1.57786179v.53980637c0 .51934051.41516114.93450165.93418885.93450165.5190277 0 .95496368-.41547394.95496368-.93450165zm-1.88946533-3.92341231v1.74373626c-.70568085.80986405-1.90992737 1.55709076-3.19727326 1.55709076-1.68173217 0-2.20075988-.76831436-2.20075988-1.66095733 0-1.1831627 1.18347168-1.6398697 3.13494873-1.6398697h2.2630844z"/>
      <path fill="rgb(0,140,255)" fill-rule="evenodd" d="M72.5259541 16.36343607v5.97906885c0 .5190295-.43593443.93450492-.95496394.93450492-.5190295 0-.93419016-.41516066-.93419016-.93450492v-5.60514099c0-1.74405245-.53980328-2.6159213-2.11766557-2.6159213-1.5778623 0-2.42927213 1.05883278-2.98953443 1.99302294v6.2283541c0 .51902951-.43593443.93450492-.95496393.93450492-.51902951 0-.93419017-.41516066-.93419017-.93450492v-5.60545574c0-1.74405245-.53980328-2.6159213-2.11766557-2.6159213-1.5778623 0-2.42895738 1.05883278-2.98953443 1.99302294v6.2283541c0 .51902951-.43593442.93450492-.95496393.93450492s-.93419017-.41516066-.93419017-.93450492v-8.90659672c0-.5190295.41516066-.95496393.93419017-.95496393.5190295 0 .95496393.43593442.95496393.95496393v.85109508c.58135082-.80954754 1.55708853-1.90992787 3.5293377-1.90992787 1.66095738 0 2.74056394 1.0588328 3.17649837 2.13843935.47748196-.78908853 1.53631475-2.13843935 3.82017049-2.13843935 2.4494164 0 3.46670164 2.13843935 3.46670164 3.9860459z"/>
      <path fill="rgb(0,140,255)" fill-rule="evenodd" d="M76.824234 10.42591476c.58135224 0 1.0588379-.47748184 1.0588379-1.05883216v-.08278084c0-.58135033-.47748566-1.05883217-1.0588379-1.05883217h-.12464141c-.5813446 0-1.05883026.47748184-1.05883026 1.05883217v.08278084c0 .58135032.47779846 1.05883216 1.05883026 1.05883216h.12464142zm.87187196 11.91659165v-8.90628433c0-.53980255-.41516114-.95496369-.95496369-.95496369-.5190277 0-.93418884.41516114-.93418884.95496369v8.90628433c0 .51934051.41516113.93450165.93418884.93450165.53980255 0 .95496369-.41547394.95496369-.93450165z"/>
      <path fill="rgb(0,140,255)" fill-rule="evenodd" d="M83.11459672 8.86882623v13.47367869c0 .5190295-.41516065.93450492-.95496393.93450492-.51902951 0-.93419017-.41516066-.93419017-.93450492V8.86882623c0-.53980328.41516066-.95496393.93419017-.95496393.53980328 0 .95496393.41516065.95496393.95496393z"/>
      <path fill="rgb(0,140,255)" fill-rule="evenodd" d="M95.42620328 13.7890623l-5.66777705 13.61940983c-.16619016.37361312-.43593443.64367213-.87186885.64367213-.49825574 0-.89264263-.41516065-.89264263-.9134164 0-.10386884.02077377-.22851147.06232132-.33238032l1.34935082-3.4670164-3.90295082-9.5087213c-.04154755-.10386886-.08309509-.2489705-.08309509-.39438689 0-.5190295.41516066-.95496393.93419017-.95496393.39438688 0 .72645246.24928524.87186885.58135082l3.19727213 7.93054426 3.25959344-7.88899672c.16587541-.37361312.4567082-.62289836.87186886-.62289836.5190295 0 .93450491.43593442.93450491.95496393 0 .12464262-.02108852.2489705-.06263606.35283935z"/>
      <path fill="rgb(0,140,255)" fill-rule="evenodd" d="M107.3849705 9.57450492c0 .49857049-.39407214.8721836-.89264263.8721836h-4.21455738v11.8958164c0 .5190295-.43593442.93450492-.95496393.93450492-.51871476 0-.93419017-.41516066-.93419017-.93450492v-11.8958164H96.1536c-.4985705 0-.8721836-.37361311-.8721836-.8721836 0-.49825574.3736131-.89264262.8721836-.89264262h10.33872787c.4985705 0 .89264262.39470163.89264262.89264262z"/>
      <path fill="rgb(0,140,255)" fill-rule="evenodd" d="M110.20925903 10.42591476c.5813446 0 1.05882264-.47748184 1.05882264-1.05883216v-.08278084c0-.58135033-.47747803-1.05883217-1.05882264-1.05883217h-.12432861c-.58135986 0-1.0588379.47748184-1.0588379 1.05883217v.08278084c0 .58135032.47747804 1.05883216 1.0588379 1.05883216h.12432861zm.87187195 11.91659165v-8.90628433c0-.53980255-.41516113-.95496369-.95497131-.95496369-.51934815 0-.93418884.41516114-.93418884.95496369v8.90628433c0 .51934051.41516113.93450165.93418884.93450165.53981018 0 .95497131-.41547394.95497131-.93450165z"/>
      <path fill="rgb(0,140,255)" fill-rule="evenodd" d="M130.32676721 16.36343607v5.97906885c0 .5190295-.43624918.93450492-.95496393.93450492-.51902951 0-.93450492-.41516066-.93450492-.93450492v-5.60514099c0-1.74405245-.53980328-2.6159213-2.11766557-2.6159213-1.57754754 0-2.42895738 1.05883278-2.98953443 1.99302294v6.2283541c0 .51902951-.43593443.93450492-.95496393.93450492-.51902951 0-.93419017-.41516066-.93419017-.93450492v-5.60545574c0-1.74405245-.54011803-2.6159213-2.11766557-2.6159213-1.5778623 0-2.42927213 1.05883278-2.98953443 1.99302294v6.2283541c0 .51902951-.43624918.93450492-.95496393.93450492-.51902951 0-.93450492-.41516066-.93450492-.93450492v-8.90659672c0-.5190295.41516066-.95496393.93450492-.95496393.51871475 0 .95496393.43593442.95496393.95496393v.85109508c.58103607-.80954754 1.55677377-1.90992787 3.5293377-1.90992787 1.66095738 0 2.74024919 1.0588328 3.17649837 2.13843935.47748197-.78908853 1.536-2.13843935 3.81985574-2.13843935 2.4500459 0 3.46733114 2.13843935 3.46733114 3.9860459z"/>
      <path fill="rgb(0,140,255)" fill-rule="evenodd" d="M15.58536148 2.10035515c.83441544.75887108.88634873 2.03771782.11582947 2.8563919-.77051544.818676-2.07139588.86714745-2.9058075.10827637-.83441543-.75887298-.88634872-2.03771782-.11582946-2.85639381.77020263-.818676 2.07139587-.86714745 2.9058075-.10827446zm-1.33675766 4.4147396c5.39551544 0 9.81969452 4.1412201 10.12532044 9.34410477h2.74465942C26.84726715 9.97833442 22.43409729 5.1364727 16.67063522 4.0596981c-.10984802 1.10730553-1.17718124 1.97697068-2.47994613 1.97697068-1.29489899 0-2.35813904-.85896492-2.4786911-1.95682717C6.00424767 5.1984787 1.64805222 10.01704788 1.37862206 15.85888671h2.7446556c.30562592-5.20257186 4.7294941-9.34379195 10.12532616-9.34379195zm3.2605362 16.90859223c-.13345337.07396698-.30121995.02486801-.3748703-.10953522l-2.60207368-5.55635452c-.26250457.06641388-.5410614.07806015-.81835937.0072403-.53980255-.13786316-.94709778-.60086441-1.10478973-1.14790726L7.0004444 14.92312241c-.50297546-.12841797-.6131401-.54232026-.58040619-.719841.1164589-.6323433.70064354-.5926819 1.2033062-.46520615l5.38890457 1.50609588c.19073868-.38840484.95748139-.75289154 1.45070267-.67231369l2.71758652-2.6873703c.37361145-.36920547.97227478-.37518692 1.33707428-.01416397.24487686.24267578.3226242.58890534.23449325.90177155-.04312133.1542282-.12621689.29964447-.24928665.42113876l-2.71475601 2.6845398c.03934479.22819519.03336716.46866989-.03399277.70819473-.11488342.40886688-.37927627.73715591-.7148056.95339203l2.5781517 5.50662231c.07365418.13439941.02518082.30373764-.10827637.37770462zm-3.54003907-6.56483078c-.37612915-.09599686-.59708786-.47937012-.49164581-.853611.10512924-.37424468.49762726-.60118102.8737564-.50518035.37613297.09600067.59709168.47937012.49164582.853611-.10544205.3748741-.49762344.60118102-.8737564.50518035zm-9.86187553-.50832367c-.00031471.02769852-.00220299.05508042-.00220299.08277893 0 5.36750412 4.38357925 9.74951172 9.83260346 9.91129303v2.6826477c-2.59451676-.06043243-5.00112916-.87438583-7.00013161-2.22657012.30562591-.3795929.48944282-.85833359.48944282-1.38019562 0-1.23005676-1.01382255-2.22688293-2.26465606-2.22688293-.54358101 0-1.04246521.1885376-1.43276024.50265884-1.48784256-2.05439758-2.36600685-4.55952835-2.36600685-7.2629509 0-.02769851.00188827-.05508041.00220298-.08277893h2.74150849zm20.62080192 7.40018463c-.38777923-.28170776-.86903762-.45104217-1.39247131-.45104217-1.27790451 0-2.31375885.99619674-2.31344604 2.22468185 0 .4988823.17248535.9577942.46080017 1.32889176-2.01348114 1.34085083-4.4342537 2.13749313-7.0394745 2.17557907v-2.68201828c5.50315858-.10198212 9.94874574-4.50822449 9.94874574-9.91349793 0-.02769851-.00188446-.05508041-.00220108-.08277893h2.74150848c.0003128.02769852.00220108.05508042.00220108.08277893 0 2.72734452-.8935852 5.2529335-2.40566254 7.3174057zm-20.80682182.42774582c.65468979-.71417618 1.76073456-.75666809 2.46987534-.0944252.70914268.66224289.75320625 1.77804566.09851837 2.49222183-.65468788.71417618-1.76073456.7566681-2.46987534.0944252-.70914078-.66192627-.75320625-1.77804565-.09851837-2.49222183zm18.0347805.10764694c-.6550026.71417618-.6106224 1.83029557.09851837 2.49222565.70914078.66223908 1.81518555.61974716 2.46987534-.09442901.65468979-.71417618.6106224-1.83029557-.09851837-2.49222184-.70914078-.66224289-1.81487274-.6200676-2.46987534.0944252z"/>
      <path fill="rgb(0,140,255)" fill-rule="evenodd" d="M141.91191101 22.46746445c.29052734-.1661911.53981018-.43593598.53981018-.76831436 0-.47748185-.39439392-.80986405-.83032226-.80986405-.14541626 0-.24897767.02045822-.37361145.08309555-.76800538.3943863-1.5570984.64367294-2.80288697.64367294-2.24230957 0-3.42547607-1.20425033-3.63320923-3.07262802h7.03822327c.58102417 0 .95465088-.41547775.95465088-.93450546 0-2.76102447-1.74343872-5.23152923-4.94102478-5.23152923-3.44624329 0-4.96177673 2.69901657-4.96177673 5.5015869 0 3.48810578 1.99302673 5.50190354 5.37693786 5.50190354 1.8060608 0 2.71948242-.3947029 3.63320923-.91341781zm-.97573852-5.46035767h-6.1244812c.12464904-2.15921402 1.72328185-3.03108215 3.05184936-3.03108215 1.3289032 0 2.94830322.87186813 3.07263184 3.03108215z"/>
    </g>
  </g>
</svg>
