<svg xmlns="http://www.w3.org/2000/svg" width="12" height="11.645" viewBox="0 0 12 11.645">
  <g>
    <path fill="rgb(189,189,189)" fill-rule="evenodd" d="M1.57894737 10.02631579l.19736842.39473684.39473684.19736842-.39473684.19736842-.19736842.39473685-.19736842-.39473685-.39473684-.19736842.39473684-.19736842.19736842-.39473684z"/>
    <path fill="rgb(189,189,189)" fill-rule="evenodd" d="M9.9868421 0l.19736843.39473684.39473684.19736842-.39473684.19736842-.19736842.39473685-.19736843-.39473685-.39473684-.19736842.39473684-.19736842L9.98684211 0z"/>
    <path fill="rgb(189,189,189)" fill-rule="evenodd" d="M11.52631579 9.47368421l.15789474.31578947L12 9.94736842l-.31578947.15789474-.15789474.35526316-.15789474-.31578948-.31578947-.15789473.31578947-.15789474c0-.03947369.15789474-.35526316.15789474-.35526316z"/>
    <path fill="rgb(189,189,189)" fill-rule="evenodd" d="M3.67105277 10.2631496c-.71054077-.75-1.10528565-1.6184082-1.2631836-2.09210205-.03945922-.23684693 0-.4342041.11843873-.55264283.19735717-.1184082.4342041-.1184082.59210205.03948975.55264282.51315308 1.97369384 1.6184082 3.4342041 1.6184082 1.46054077 0 2.5657959-1.10525512 3-1.57894897.11843872-.15789795.35525513-.19735718.55264282-.1184082.19735718.07894897.3157959.3157959.27630615.51315307-.07894897.4342041-.27630615 1.30264282-.78945923 2.05264282-.27633667.4342041-.6315918.78945923-1.02633667 1.02630616-.47366333.3157959-1.02630615.47369384-1.6184082.47369384-.71054077 0-1.34210205-.11843872-1.9342041-.39474487-.47369385-.23684692-.9473877-.55264282-1.34210205-.98684692zm2.92105102-.27630616c-.75 0-1.53945922-.23684692-2.40786743-.71051025l-.6315918-.35528564.4342041.55264282c.35525513.4342041.75.75 1.1842041.98684692.5131836.27630615 1.10528565.39474488 1.6973877.39474488h.07894898c.5526123 0 1.02630615-.15789795 1.42105102-.47369385.3157959-.23684693.59210206-.59210205.82894898-1.02630615l.23684692-.47369385-.43423462.27630615c-.03945922.03948975-.1184082.07894897-.15789795.11843872-.71051025.47366333-1.5.71051025-2.25.71051025z"/>
    <path fill="rgb(189,189,189)" fill-rule="evenodd" d="M3.78947368 1.97368421c.15789474-.27631579.19736843-.63157895.11842106-.82894737-.07894737-.19736842-.2763158-.4736842-.59210527-.63157895-.27631579-.11842105-.59210526-.15789473-.86842105-.03947368-.35526316.11842105-.67105263.47368421-.90789474.9868421C1.30263158 1.93421054 1.22368421 2.48684212 1.2631579 3v.07894737H.23684211c-.11842106 0-.19736843.07894737-.23684211.19736842 0 .07894737 0 .2368421.07894737.2368421C.75 3.59210526.9868421 3.86842105.9868421 4.5394737c0 .86842105 0 1.06578947-.07894737 1.69736842 0 .03947368 0 .11842105-.03947369.15789473-.03947368.2368421-.11842105.59210527 0 .78947369.07894737.07894736.15789474.15789473.2763158.15789473.15789473.03947369.31578947 0 .43421052-.11842105.27631579-.19736842.43421052-.71052632.43421052-1.42105263V4.34210526c.03947369-.5131579.59210527-.86842105 1.10526316-.86842105.2763158 0 .35526316-.15789474.35526316-.2368421.03947368-.07894737 0-.15789474-.03947368-.15789474-.11842106-.03947369-.82894737 0-1.22368421 0h-.03947369v-.03947369s-.15789474-.39473684-.03947368-.94736842c.07894737-.31578947.2368421-.4736842.39473684-.4736842.07894737 0 .15789474.07894736.19736842.15789473.07894737.27631579.19736842.59210526.47368421.5131579.35526316 0 .5131579-.15789474.59210526-.31578948z"/>
    <path fill="rgb(189,189,189)" fill-rule="evenodd" d="M3.2368421 4.93421053C3.59210527 6.4736842 4.53947369 6.75 5.0131579 6.90789473c.03947368 0 .07894736 0 .07894736.0394737.39473685.11842104 1.2631579 0 1.61842106-.47368422.4736842-.63157895.5131579-1.38157895.5131579-1.85526316v-.19736842c0-.35526316 0-.94736842-.0394737-1.34210526 0-.19736842-.15789473-.35526316-.35526315-.31578948-.19736842 0-.35526316.15789474-.35526316.35526316v.90789474c0 .59210526-.35526316 1.2631579-1.30263158 1.30263158h-.07894737c-.67105263 0-1.06578947-.43421053-1.10526315-1.2631579-.03947369-.27631579 0-1.10526315 0-1.14473684 0-.03947368-.03947369-.07894737-.07894737-.07894737h-.03947369c-.39473684 0-.5131579.19736842-.67105263.55263158-.07894737.31578948-.03947368 1.18421053.03947369 1.53947369z"/>
    <path fill="rgb(189,189,189)" fill-rule="evenodd" d="M8.0131579 7.02631579h.07894736c.2763158 0 .55263158-.27631579.67105263-.63157895.19736843-.55263158.47368422-1.30263158.90789474-1.5.15789474-.07894737.31578948-.07894737.47368421 0 .2763158.11842105.2763158.31578948.31578948.59210527 0 .2368421.03947368.4736842.15789473.86842105.11842106.31578947.43421053.43421052.71052632.43421052.27631579 0 .5131579-.11842105.55263158-.31578947C12 6.07894737 11.76315789 5.44736842 11.4868421 4.7763158L11.25 4.06578947c-.15789474-.5131579-.47368421-.71052631-.71052632-.78947368-.35526315-.11842105-.71052631-.07894737-.90789473.03947368-.31578948.19736842-.5131579.55263158-.63157895.75-.03947368.03947369-.07894737.03947369-.11842105.03947369-.03947369 0-.07894737-.03947369-.07894737-.07894737 0-.19736842 0-.71052632-.15789474-.94736842C8.56578947 3 8.44736842 2.92105263 8.25 2.92105263c-.31578947-.03947368-.59210526.19736842-.63157895.5131579h-.07894737.07894737C7.57894737 3.78947368 7.5 4.46052632 7.5 5.52631579c-.03947368.86842105.15789474 1.46052632.5131579 1.5z"/>
  </g>
</svg>
