<svg xmlns="http://www.w3.org/2000/svg" width="32" height="32" viewBox="0 0 32 32">
  <g>
    <g opacity=".15">
      <ellipse cx="16" cy="16" fill="rgb(52,232,199)" rx="16" ry="16"/>
    </g>
    <g>
      <path fill="rgb(52,232,199)" fill-rule="evenodd" d="M24.62503485 14.99916365c.27265124 1.0917201.4549763 2.25257875.50013939 3.29969333.04572066 1.18316142-.06802342 2.0250906-.3183719 2.59381099-.25034848.59213827-.63730136.9099526-1.09227767 1.04711458-.43267354.11374407-.93281293.04572066-1.45637022-.15946474-.88764985-.36465012-1.9119041-1.13744075-2.91274046-2.07081126C18.63953164 19.0270421 17.31976582 18.68580987 16 18.68580987c-1.31976582 0-2.63953164.34123223-3.345414 1.02369668-1.00083635.9333705-2.0250906 1.70616114-2.91274045 2.07081126-.52355729.22748816-1.02369668.27320881-1.45637022.15946474q-.71703374-.2051854-1.09227767-1.02369668c-.25034848-.59213828-.36409256-1.43406747-.3183719-2.59492613.04516309-1.04711458.22748815-2.2068581.50069696-3.29969333.24979091-1.04711458.61444104-2.0250906 1.02369668-2.77669362 1.5846111-2.80680234 3.3041539-2.37078338 5.39336493-1.84220797.6601617.1583496 1.36548648.34123222 2.0936716.40925564h.22748815c.7281851-.06802342 1.4335099-.25090605 2.09367159-.40925564 2.07081126-.54641762 3.8003903-.97909117 5.39336493 1.81990521.40981321.75048787.75104544 1.72957904 1.02425425 2.77669362zm-1.13799833 6.14441037c.22748815-.06913856.40925565-.25090605.54586005-.56983552.2051854-.47727906.29606914-1.18316142.25034848-2.230276-.04516309-1.00027878-.22748815-2.09311402-.47783663-3.1402286-.25034848-1.00139392-.56872038-1.88792863-.95567327-2.57150822-1.24114859-2.23250628-2.68302202-1.8723167-4.43769166-1.43295233-.70532478.1817675-1.4335099.36353499-2.25257876.4315584h-.3417898c-.79620852-.06802341-1.52439364-.2497909-2.22971842-.4315584-1.72957904-.4549763-3.18594926-.81962643-4.43769166 1.43295233-.38695289.68357959-.70532479 1.5935322-.95567327 2.57150822-.2732088 1.04711458-.43267354 2.16225258-.47783663 3.1402286-.04572066 1.04711458.04516309 1.75299694.22748815 2.18567048.1366044.31781433.3183719.49958182.54586005.56872038.25034848.09032618.56927795.02230276.9333705-.11374408.7733482-.2966267 1.70671871-1.02481182 2.63953165-1.88904377.88764984-.81962642 2.41204349-1.25229997 3.9369947-1.25229997 1.52439364 0 3.04934486.43267355 3.91413437 1.29802063.90995261.86423195 1.84332312 1.5701143 2.63953165 1.88792863.36409255.13716198.68302202.18288264.9333705.11485922z"/>
      <path fill="rgb(52,232,199)" fill-rule="evenodd" d="M13.08670198 13.47477c.31892947.02230276.59213828.1817675.81962643.38583775.22748815.22860329.38695288.56983552.38695288.9333705 0 .36465013-.1366044.68246446-.38695288.9333705-.2051854.22748816-.50069696.363535-.81962643.3869529-.02230276.31781432-.1817675.59102313-.38639532.81851129-.22804572.22860329-.56927795.38695288-.9333705.38695288-.36409256 0-.68246446-.13604683-.93281294-.38695288-.22748815-.20407026-.36409255-.50069697-.38695288-.8185113-.34123223-.0234179-.61444104-.15946473-.8419292-.38695288-.22748814-.22748815-.38695288-.56872038-.38695288-.9333705 0-.363535.1366044-.68246446.38695289-.93337051l.02286033-.02230276c.22748815-.2051854.50069696-.34123223.81906886-.36353499.02286033-.31892946.1817675-.61444103.38695288-.81962643.22748815-.22748815.56872038-.38695288.93281294-.38695288.36409255 0 .68302202.13604683.9333705.38695288l.02230276.02230276c.2051854.2051854.3417898.50069697.36409256.79732367zm-.09032618 1.79760246c.1366044 0 .25034848-.04572066.34123223-.13604684.09088375-.09144132.1366044-.2051854.1366044-.34123223 0-.13716197-.04572065-.25090605-.1366044-.34234736-.09088375-.09032618-.20462782-.13604684-.34123223-.13604684h-.3183719c-.25034848 0-.43267354-.20518539-.43267354-.43267354v-.31781433c0-.11374408-.04516309-.2286033-.11374408-.31892947l-.02286033-.0234179c-.09088374-.09032617-.20462782-.13604683-.34123222-.13604683s-.25034848.04572066-.34123223.13604683c-.09088375.09144132-.1366044.2051854-.1366044.34234737v.31781433c0 .25090605-.20462783.43267354-.43267355.43267354h-.3183719c-.11374407 0-.22748815.04572066-.3183719.11374408l-.02286032.02230276c-.09088375.09144131-.1366044.20518539-.1366044.34234736 0 .13604684.0680234.24979091.1366044.31781433q.1366044.13716198.34123222.13716198h.3183719c.25034848 0 .43267355.20407025.43267355.4315584v.31892947c0 .13716197.04572065.25090605.1366044.34123223q.1366044.13716197.34123223.13716197.20462782 0 .34123222-.13716197c.09144132-.09032618.13660441-.20407026.13660441-.34123223V15.705046c0-.25090605.20462782-.43267354.43267354-.43267354h.3183719z"/>
      <ellipse cx="19.96" cy="13.179" fill="rgb(52,232,199)" rx=".796" ry=".796"/>
      <ellipse cx="19.96" cy="16.41" fill="rgb(52,232,199)" rx=".796" ry=".796"/>
      <ellipse cx="18.344" cy="14.794" fill="rgb(52,232,199)" rx=".796" ry=".796"/>
      <ellipse cx="21.575" cy="14.794" fill="rgb(52,232,199)" rx=".796" ry=".796"/>
    </g>
  </g>
</svg>
