<svg xmlns="http://www.w3.org/2000/svg" width="32" height="32" viewBox="0 0 32 32">
  <g>
    <g opacity=".15">
      <ellipse cx="16" cy="16" fill="rgb(52,232,199)" rx="16" ry="16"/>
    </g>
    <path fill="rgb(52,232,199)" fill-rule="evenodd" d="M8.5 11c0-.55175781.44824219-1 1-1s1 .44824219 1 1-.44824219 1-1 1-1-.44824219-1-1zm4 0c0-.55175781.44824219-1 1-1h9c.55175781 0 1 .44824219 1 1s-.44824219 1-1 1h-9c-.55175781 0-1-.44824219-1-1zm-4 5c0-.55175781.44824219-1 1-1s1 .44824219 1 1-.44824219 1-1 1-1-.44824219-1-1zm4 0c0-.55175781.44824219-1 1-1h9c.55175781 0 1 .44824219 1 1s-.44824219 1-1 1h-9c-.55175781 0-1-.44824219-1-1zm-4 5c0-.55175781.44824219-1 1-1s1 .44824219 1 1-.44824219 1-1 1-1-.44824219-1-1zm4 0c0-.55175781.44824219-1 1-1h9c.55175781 0 1 .44824219 1 1s-.44824219 1-1 1h-9c-.55175781 0-1-.44824219-1-1z"/>
  </g>
</svg>
