<svg xmlns="http://www.w3.org/2000/svg" xmlns:xlink="http://www.w3.org/1999/xlink" width="40" height="40" viewBox="0 0 40 40">
  <defs>
    <rect id="rect-2" width="20" height="20" x="10" y="10"/>
    <mask id="mask-3" maskContentUnits="userSpaceOnUse" maskUnits="userSpaceOnUse">
      <rect width="40" height="40" x="0" y="0" fill="black"/>
      <use fill="white" xlink:href="#rect-2"/>
    </mask>
  </defs>
  <g>
    <g opacity=".2">
      <ellipse cx="20" cy="20" fill="rgb(253,186,69)" rx="20" ry="20"/>
    </g>
    <g>
      <use fill="none" xlink:href="#rect-2"/>
      <g mask="url(#mask-3)">
        <path fill="rgb(253,186,69)" fill-rule="evenodd" d="M25.2658081 17.30541992C28.03573609 18.07299805 30 20.61999512 30 23.53515625c0 1.16363525-.309906 2.29522705-.89874268 3.28948975l.87051392 3.14715576-3.14712524-.87054444C25.8303833 29.69006348 24.6987915 30 23.53515625 30c-2.91534424 0-5.4624939-1.9644165-6.2298584-4.73449707-1.25549316-.05419922-2.47192383-.41333008-3.55026245-1.0510254l-3.72695923 1.03076173 1.0308838-3.72680664C10.3652954 20.34533692 10 19.00909424 10 17.63671875 10 13.42578125 13.42575073 10 17.63671875 10c4.09988403 0 7.45498657 3.24768066 7.62908936 7.30541992zM11.7088318 23.5645752l2.23114013-.6171875.22003174.14068603c1.03744507.6630249 2.23953247 1.01348877 3.47671509 1.01348877 3.5647583 0 6.46484375-2.90008545 6.46484375-6.46484375S21.20147705 11.171875 17.63671875 11.171875 11.171875 14.07196045 11.171875 17.63671875c0 1.23718262.35049438 2.43945313 1.01348877 3.47668457l.14068603.22009277-.61721801 2.2310791zm16.58233642 4.7265625l-1.65557861-.45806885-.22109985.14385986c-.85708619.55682373-1.85287476.85119629-2.8793335.85119629-2.29125977 0-4.30465698-1.48150635-5.01800537-3.60583496 3.50860596-.40454102 6.30065918-3.1965332 6.70532226-6.70532227 2.12417603.71350098 3.60565186 2.72692871 3.60565186 5.01818848 0 1.02642822-.29434204 2.0222168-.85113525 2.87927246l-.14389038.22113037.45806884 1.65557862z"/>
        <path fill="rgb(253,186,69)" fill-rule="evenodd" d="M17.05078125 20.5859375h1.171875v1.171875h-1.171875v-1.171875z"/>
        <path fill="rgb(253,186,69)" fill-rule="evenodd" d="M18.42712402 16.72436523c.24597168-.22503662.38146973-.53222656.38146973-.86499023 0-.64624023-.52566528-1.171875-1.171875-1.171875s-1.171875.52563477-1.171875 1.171875h-1.171875c0-1.29241943 1.05133057-2.34375 2.34375-2.34375s2.34375 1.05133057 2.34375 2.34375c0 .65600586-.27786255 1.28631592-.76217651 1.72961426l-.99563599.91125488v.91381836h-1.171875v-1.42993164l1.37634277-1.25976563z"/>
      </g>
    </g>
  </g>
</svg>
