<svg xmlns="http://www.w3.org/2000/svg" width="307.16" height="233.797" viewBox="0 0 307.16 233.797">
  <defs>
    <linearGradient id="linearGradient-19" x1="163.159" x2="111.871" y1="140.514" y2="140.796" gradientUnits="userSpaceOnUse">
      <stop offset="0" stop-color="rgb(52,232,199)"/>
      <stop offset="1" stop-color="rgb(223,255,182)"/>
    </linearGradient>
    <linearGradient id="linearGradient-21" x1="185.31" x2="180.823" y1="25.009" y2="25.249" gradientUnits="userSpaceOnUse">
      <stop offset="0" stop-color="rgb(52,232,199)"/>
      <stop offset="1" stop-color="rgb(223,255,182)"/>
    </linearGradient>
    <linearGradient id="linearGradient-23" x1="202.847" x2="163.569" y1="42.01" y2="42.168" gradientUnits="userSpaceOnUse">
      <stop offset="0" stop-color="rgb(52,232,199)"/>
      <stop offset="1" stop-color="rgb(223,255,182)"/>
    </linearGradient>
    <linearGradient id="linearGradient-25" x1="253.905" x2="113.35" y1="87.936" y2="88.804" gradientUnits="userSpaceOnUse">
      <stop offset="0" stop-color="rgb(52,232,199)"/>
      <stop offset="1" stop-color="rgb(223,255,182)"/>
    </linearGradient>
    <linearGradient id="linearGradient-27" x1="138.219" x2="227.854" y1="83.041" y2="83.041" gradientUnits="userSpaceOnUse">
      <stop offset="0" stop-color="rgb(55,74,86)"/>
      <stop offset="1" stop-color="rgb(11,47,69)"/>
    </linearGradient>
    <linearGradient id="linearGradient-31" x1="157.184" x2="172.765" y1="84.491" y2="84.491" gradientUnits="userSpaceOnUse">
      <stop offset="0" stop-color="rgb(55,74,86)"/>
      <stop offset="1" stop-color="rgb(11,47,69)"/>
    </linearGradient>
    <linearGradient id="linearGradient-38" x1="192.125" x2="207.707" y1="84.491" y2="84.491" gradientUnits="userSpaceOnUse">
      <stop offset="0" stop-color="rgb(55,74,86)"/>
      <stop offset="1" stop-color="rgb(11,47,69)"/>
    </linearGradient>
    <linearGradient id="linearGradient-43" x1="188.91" x2="176.936" y1="11.066" y2="11.163" gradientUnits="userSpaceOnUse">
      <stop offset="0" stop-color="rgb(52,232,199)"/>
      <stop offset="1" stop-color="rgb(223,255,182)"/>
    </linearGradient>
    <linearGradient id="linearGradient-51" x1="233.153" x2="139.483" y1="162.401" y2="162.987" gradientUnits="userSpaceOnUse">
      <stop offset="0" stop-color="rgb(52,232,199)"/>
      <stop offset="1" stop-color="rgb(223,255,182)"/>
    </linearGradient>
    <linearGradient id="linearGradient-54" x1="231.638" x2="203.409" y1="158.271" y2="158.699" gradientUnits="userSpaceOnUse">
      <stop offset="0" stop-color="rgb(52,232,199)"/>
      <stop offset="1" stop-color="rgb(223,255,182)"/>
    </linearGradient>
    <radialGradient id="radialGradient-58" cx="185.604" cy="207.441" r="47.826" gradientUnits="userSpaceOnUse">
      <stop offset="0" stop-color="rgb(42,211,232)"/>
      <stop offset="1" stop-color="rgb(152,225,58)" stop-opacity="0"/>
    </radialGradient>
    <linearGradient id="linearGradient-72" x1="32.447" x2="42.011" y1="82.471" y2="82.471" gradientUnits="userSpaceOnUse">
      <stop offset="0" stop-color="rgb(55,74,86)"/>
      <stop offset="1" stop-color="rgb(11,47,69)"/>
    </linearGradient>
  </defs>
  <g>
    <g opacity=".8">
      <path fill="none" d="M98.30368286 160.04504395l2.4709015 1.93280029c.40821838.3682251.5158081.96582031.2616272 1.45324707l-2.5726471 4.44689941c-.28189087.51748657-.90638733.74224854-1.45347596.52316284l-2.9069519-1.16256713c-.5468216.39102172-1.131073.7269287-1.74416351 1.00271606l-.43604279 3.09539795c-.08045196.58700561-.58474731 1.02276611-1.17731476 1.01727295h-5.13076782c-.60295868.01205444-1.11751556-.43341065-1.19184875-1.03179932l-.43604279-3.08087158c-.61523437-.27160645-1.19989777-.60772705-1.74417114-1.00271606l-2.90694428 1.16256713c-.5508194.20318604-1.16757202-.0249939-1.45347595-.5376892l-2.55812073-4.3597107c-.28920746-.51608276-.1667099-1.16522217.2906952-1.54043579l2.47090911-1.91827392c-.01979828-.33880616-.01979828-.6784668 0-1.01727295-.02004242-.33392334-.02004242-.66879273 0-1.00271607l-2.45637512-1.9328003c-.47449493-.3649292-.59957886-1.02774047-.29069519-1.54043578l2.55812073-4.3597107c.2985382-.49765014.9061966-.71636962 1.45347595-.52316284l2.90694427 1.16256714c.5486908-.38812256 1.13264466-.72384643 1.74417115-1.00271606l.43604278-3.09539795c.08715058-.58926392.59611511-1.02368164 1.19184876-1.01727295h5.15983581c.59501648.00189209 1.09749604.44226074 1.17731476 1.03179931l.43604279 3.08087159c.61523437.27160644 1.19989013.60772705 1.74417114 1.00271606l2.9069519-1.16256714c.55081177-.20318603 1.16757202.0249939 1.45347596.53768921l2.55810546 4.3597107c.2892151.51608276.16671753 1.16519165-.29069519 1.54043579l-2.47090149 1.91827392c.02339173.33868408.02339173.67855835 0 1.01727295v1.00271607zm-14.5346527-1.03152466c-.01597596 2.45825195 1.95990753 4.46621704 4.41847228 4.49023437 1.18980408.00772095 2.33374787-.45843506 3.1791687-1.29553222.84542084-.83709717 1.32276154-1.97628785 1.32659913-3.16589356-.00011444-2.45831299-1.9890976-4.45327759-4.44776917-4.46121216-2.45867157-.00793457-4.46048736 1.97418213-4.47647095 4.43240357z"/>
    </g>
    <g opacity=".2">
      <path fill="rgb(152,225,58)" fill-rule="evenodd" d="M245.769888 164.18678646h41.9684802c2.26837075 0 4.11 1.84162925 4.11 4.11v8.24518225c0 2.26837075-1.84162925 4.11-4.11 4.11H245.769888c-2.26837076 0-4.11-1.84162925-4.11-4.11v-8.24518225c0-2.26837075 1.84162924-4.11 4.11-4.11z"/>
    </g>
    <ellipse cx="250.962" cy="172.427" fill="rgb(2,204,170)" rx="4.782" ry="4.781"/>
    <path fill="rgb(2,204,170)" fill-rule="evenodd" d="M259.41554158 168.24131942h20.59281492c.41393627 0 .75.33606373.75.75v1.50820188c0 .41393627-.33606373.75-.75.75h-20.59281492c-.41393626 0-.75-.33606373-.75-.75v-1.50820188c0-.41393627.33606374-.75.75-.75z"/>
    <path fill="rgb(2,204,170)" fill-rule="evenodd" d="M259.41554158 173.60376624h13.64520602c.41393627 0 .75.33606374.75.75v1.50820188c0 .41393627-.33606373.75-.75.75h-13.64520602c-.41393626 0-.75-.33606373-.75-.75v-1.50820188c0-.41393626.33606374-.75.75-.75z"/>
    <g opacity=".6">
      <g opacity=".2">
        <path fill="rgb(152,225,58)" fill-rule="evenodd" d="M49.33278692 103.1089344h34.99180181c2.26837075 0 4.11 1.84162925 4.11 4.11v5.9490668c0 2.26837076-1.84162925 4.11-4.11 4.11h-34.9918018c-2.26837076 0-4.11-1.84162924-4.11-4.11v-5.9490668c0-2.26837075 1.84162924-4.11 4.11-4.11z"/>
      </g>
      <ellipse cx="53.231" cy="110.186" fill="rgb(2,204,170)" rx="4.113" ry="4.113"/>
      <path fill="rgb(255,255,255)" fill-rule="evenodd" d="M60.6092768 106.58217231h17.52598338c.41393627 0 .75.33606374.75.75v1.08676297c0 .41393627-.33606373.75-.75.75H60.6092768c-.41393626 0-.75-.33606373-.75-.75v-1.08676297c0-.41393626.33606374-.75.75-.75z"/>
      <path fill="rgb(255,255,255)" fill-rule="evenodd" d="M60.6092768 111.20346795h11.53766776c.41393626 0 .75.33606373.75.75v1.08676297c0 .41393626-.33606374.75-.75.75H60.6092768c-.41393626 0-.75-.33606374-.75-.75v-1.08676297c0-.41393627.33606374-.75.75-.75z"/>
    </g>
    <ellipse cx="288.534" cy="71.339" fill="rgb(2,204,170)" rx="1.977" ry="1.976"/>
    <path fill="rgb(2,204,170)" fill-rule="evenodd" d="M293.9951029 71.41423192l12.1619825 5.16245735c.55376406.235059.81251215.87548324.57745315 1.4292473l-.69269085 1.63187673c-.235059.55376407-.87548324.81251215-1.4292473.57745316l-12.1619825-5.16245735c-.55376407-.235059-.81251216-.87548324-.57745316-1.4292473l.69269085-1.63187674c.23505897-.55376405.87548321-.81251214 1.42924728-.57745316z"/>
    <ellipse cx="286.078" cy="77.211" fill="rgb(2,204,170)" rx="1.977" ry="1.976"/>
    <path fill="rgb(2,204,170)" fill-rule="evenodd" d="M291.5276653 77.29318387l12.16198251 5.16245735c.55376407.235059.81251215.87548323.57745316 1.4292473l-.69269086 1.63187673c-.23505899.55376407-.87548323.81251215-1.4292473.57745316l-12.1619825-5.16245735c-.55376407-.235059-.81251215-.87548324-.57745316-1.4292473l.69269085-1.63187674c.23505898-.55376405.87548321-.81251214 1.42924728-.57745316z"/>
    <g opacity=".8">
      <path fill="rgb(140,132,243)" fill-rule="evenodd" d="M250.3807245 5.81295776c0 3.21040345 2.6029663 5.8129425 5.8139038 5.8129425 3.21090698 0 5.8139038-2.60253905 5.8139038-5.8129425C262.0085321 2.60253906 259.40553529 0 256.1946283 0c-3.2109375 0-5.8139038 2.60253906-5.8139038 5.81295776zm1.87667846-1.59361267c.65744018-1.59466552 2.21212768-2.63526916 3.93722534-2.63531494v-.05812073c1.13452148-.00003051 2.22216797.45256043 3.02166748 1.25738526.79949951.80482483 1.24475098 1.89533996 1.23699951 3.02966308.01177979 1.72479248-1.01831055 3.28630066-2.60870361 3.95452881-1.59039307.6682129-3.42687988.31112671-4.6508789-.90432739-1.22399903-1.2154541-1.5937195-3.04914856-.93630982-4.64381409z"/>
    </g>
    <path fill="rgb(255,209,46)" fill-rule="evenodd" d="M9.93242127 50.93598938c0 3.21040344 2.60297012 5.8129425 5.8139 5.8129425 3.21092605 0 5.81389617-2.60253906 5.81389617-5.8129425 0-3.21040344-2.60297012-5.81295776-5.81389618-5.81295776-3.21092987 0-5.8139 2.60255432-5.8139 5.81295776zm1.569767.03871155c-.0053444-2.34971619 1.89403915-4.25961304 4.244133-4.26763916 1.13198852-.00386048 2.21893691.44303894 3.02074432 1.24198913.80180358.7989502 1.25247573 1.8841858 1.25247192 3.01600647-.00001526 2.34971619-1.90374374 4.25527954-4.25385284 4.25794983-2.3501091.00267029-4.25815583-1.89857483-4.2634964-4.24830627z"/>
    <g opacity=".7">
      <path fill="rgb(0,140,255)" fill-rule="evenodd" d="M15.06318909 216.43069458c0 3.21038818 2.60297012 5.81295776 5.8139 5.81295776 3.21092605 0 5.81389617-2.60256958 5.81389617-5.81295776 0-3.2104187-2.60297012-5.81295776-5.81389618-5.81295776-3.21092987 0-5.81389999 2.60253906-5.81389999 5.81295776zm1.55590439.00524902c.01309585-2.34207153 1.91552353-4.2338562 4.25799179-4.2341919v-.02905273c1.1473236-.00033569 2.24624634.46221924 3.04789352 1.28286744.80164719.8206787 1.23819733 1.93002319 1.21078873 3.07684326-.03997421 2.34173584-1.96398926 4.21157837-4.30630493 4.1850586-2.34231949-.0265503-4.22346878-1.93948365-4.21036911-4.28152467z"/>
    </g>
    <g opacity=".7">
      <path fill="rgb(0,53,186)" fill-rule="evenodd" d="M244.59590393 227.98391724c0 3.21038818 2.60296631 5.81295776 5.81390381 5.81295776 3.2109375 0 5.81390381-2.60256958 5.81390381-5.81295776 0-3.2104187-2.6029663-5.81295777-5.8139038-5.81295777-3.2109375 0-5.81390382 2.60253907-5.81390382 5.81295777zm1.87802124-1.58248902c.65829468-1.5928955 2.21209717-2.63189697 3.93588257-2.63189697v.02905273c2.33508301-.00012207 4.23477173 1.87982178 4.25869751 4.2144165.00585938 1.72348023-1.02798462 3.2805481-2.61886596 3.94418336-1.59088135.66366577-3.4249878.302948-4.6459961-.91366577-1.22097778-1.2166443-1.5880127-3.04919434-.92971802-4.64208985z"/>
    </g>
    <path fill="url(#linearGradient-19)" fill-rule="evenodd" d="M131.93708548 127.318148c17.15100105 4.69395752 21.19166063 3.37151129 24.25849217 7.97827455 1.33396766 1.96195079 1.95942225 4.31983758 1.7732391 6.68489305-.2532945 2.19234831-1.23014092 4.23776634-2.77613662 5.81295049-5.81389866 5.6821591-22.04921068-1.26431673-31.29330955-8.87928187-2.02032979-1.65669088-7.4417903-6.103598-6.3516843-9.25712364.59040361-1.1680179 1.64572115-2.03323715 2.90694934-2.3833097 4.3313545-1.97640317 8.89526495-.6684893 11.48244986.04359713z"/>
    <rect width="3.648" height="23.949" x="181.224" y="12.076" fill="url(#linearGradient-21)" rx="0" ry="0"/>
    <path fill="url(#linearGradient-23)" fill-rule="evenodd" d="M171.4821029 33.51165955h23.1328384c2.42842611 0 4.4 1.97157389 4.4 4.4v6.93856344c0 2.4284261-1.97157389 4.4-4.4 4.4h-23.1328384c-2.42842611 0-4.4-1.9715739-4.4-4.4v-6.93856344c0-2.42842611 1.97157389-4.4 4.4-4.4z"/>
    <path fill="url(#linearGradient-25)" fill-rule="evenodd" d="M171.18090145 41.03943043h23.74977604c12.00401688 0 23.51638048 4.76779944 32.00450222 13.25453686 8.48812173 8.48673743 13.25669887 19.9972235 13.25669887 31.99928266v16.20359948c-.02402422 14.0171497-11.38728961 25.3720622-25.40673715 25.38806125H151.355507c-14.04780811 0-25.43580665-11.3861413-25.43580665-25.43165838V86.29324995c0-12.00205916 4.76857714-23.51254523 13.25669888-31.99928266 8.48812173-8.48673742 20.00048533-13.25453686 32.00450221-13.25453686z"/>
    <path fill="url(#linearGradient-27)" fill-rule="evenodd" d="M222.21239697 99.0962734c-1.51540477.7423589-3.18163054 1.12527968-4.86914013 1.11899297H148.7683221c-1.6921824.0064348-3.3631644-.37643612-4.88367488-1.11899297-3.55891582-1.62461424-5.66586125-5.35664418-5.21797405-9.24259127v-.27611515c1.75870435-12.73036156 13.2992932-22.52518313 27.44160169-23.25180194 5.98831562-.3051799 12.26732618-.46503604 18.82249692-.43597129 0 0 7.68888098 0 14.85451109.43597129 14.20044748.7266188 25.8282448 10.47784325 27.61601864 23.25180194v.27611515c.45262125 3.87886174-1.64137369 7.60873173-5.18890455 9.24259127z"/>
    <ellipse cx="164.975" cy="84.491" fill="rgb(41,41,41)" rx="12.936" ry="12.934"/>
    <ellipse cx="164.975" cy="84.491" fill="rgb(238,253,255)" rx="9.288" ry="9.286"/>
    <ellipse cx="164.975" cy="84.491" fill="url(#linearGradient-31)" rx="7.791" ry="7.789"/>
    <path fill="rgb(238,253,255)" fill-rule="evenodd" d="M169.97451748 82.47123501c0 1.60520195-1.30148555 2.90647524-2.90694933 2.90647524-1.60546378 0-2.90694933-1.30127329-2.90694933-2.90647524 0-1.60520195 1.30148555-2.90647524 2.90694933-2.90647524 1.60546378 0 2.90694933 1.30127329 2.90694933 2.90647524z"/>
    <ellipse cx="163.826" cy="90.464" fill="rgb(238,253,255)" rx="1.148" ry="1.148"/>
    <path fill="rgb(238,253,255)" fill-rule="evenodd" d="M161.0065788 88.73468916c0 .32104039-.26029712.58129505-.58138987.58129505-.32109276 0-.58138987-.26025466-.58138987-.58129505 0-.3210404.26029711-.58129505.58138987-.58129505.15419418 0 .30207296.06124341.41110471.17025738.10903175.10901397.17028515.25686864.17028515.41103767z"/>
    <ellipse cx="199.916" cy="84.491" fill="rgb(41,41,41)" rx="12.936" ry="12.934"/>
    <ellipse cx="199.916" cy="84.491" fill="rgb(238,253,255)" rx="9.288" ry="9.286"/>
    <ellipse cx="199.916" cy="84.491" fill="url(#linearGradient-38)" rx="7.791" ry="7.789"/>
    <path fill="rgb(238,253,255)" fill-rule="evenodd" d="M204.9015137 82.47123501c0 1.60520195-1.30148555 2.90647524-2.90694933 2.90647524-1.60546379 0-2.90694933-1.30127329-2.90694933-2.90647524 0-1.60520195 1.30148554-2.90647524 2.90694933-2.90647524 1.60546378 0 2.90694933 1.30127329 2.90694933 2.90647524z"/>
    <ellipse cx="198.753" cy="90.464" fill="rgb(238,253,255)" rx="1.148" ry="1.148"/>
    <path fill="rgb(238,253,255)" fill-rule="evenodd" d="M195.88997077 88.73468916c0 .15416903-.0612534.3020237-.17028515.41103767-.10903175.10901397-.25691054.17025738-.41110472.17025738-.32109273-3e-8-.58138981-.26025468-.58138981-.58129505s.26029708-.58129502.58138982-.58129505c.15419417 0 .30207296.06124341.41110471.17025738.10903175.10901397.17028515.25686864.17028515.41103767z"/>
    <path fill="url(#linearGradient-43)" fill-rule="evenodd" d="M187.7359779 10.47784325c.00588285 1.89396216-1.13067102 3.6047054-2.87906367 4.33357261-1.74839264.7288672-3.76380445.3321105-5.10534436-1.00504503-1.34153991-1.33715553-1.74462818-3.35099482-1.02108384-5.10136095.72354435-1.75036613 2.43102322-2.89205026 4.32530344-2.8920594 2.57913115-.00001243 4.6721787 2.08619469 4.68018843 4.66489277z"/>
    <path fill="rgb(255,255,255)" fill-rule="evenodd" d="M186.29703798 8.71942573c0 .80260097-.65074278 1.45323762-1.45347467 1.45323762-.8027319 0-1.45347466-.65063665-1.45347466-1.45323762 0-.80260098.65074277-1.45323762 1.45347466-1.45323762.8027319 0 1.45347467.65063664 1.45347467 1.45323762z"/>
    <path fill="rgb(255,255,255)" fill-rule="evenodd" d="M201.07887513 49.3374176c0-.89831543.72943115-1.6276245 1.62789917-1.6276245.89845275 0 1.6278839.72930907 1.6278839 1.6276245s-.72943115 1.62762451-1.6278839 1.62762451c-.89846802 0-1.62789917-.72930908-1.62789917-1.6276245zm19.09864807 9.94013977c0 2.17985535-1.7150879 4.79568482-3.76449585 5.01367188-1.93386841.20570373-3.28533936-1.52963257-4.75056458-3.41105652-.08750915-.11236572-.17544555-.2252655-.26391601-.33830261-1.56976319-2.00546265-4.94181824-7.09179688-3.5900879-8.54502869 1.77323914-1.90374756 12.22372437 2.13624573 12.36906434 7.28071594z"/>
    <path fill="rgb(255,255,255)" fill-rule="evenodd" d="M223.08448177 86.30778233c-.52325088.3633094-4.15693755-7.03367009-13.90975255-13.45698037-3.43020022-2.25251832-6.81679619-3.86561208-6.61330973-4.35971287.20348645-.49410079 4.01159007.40690654 7.06388687 1.8310794 9.72374552 4.53410139 14.06963477 15.54964255 13.4591754 15.98561384z"/>
    <path fill="rgb(255,255,255)" fill-rule="evenodd" d="M195.88997132 37.9004364c.56684875 1.06086731.63952636 1.72935486.75579834 1.72935486.20681762-.63952637.17059326-1.33283997-.10173035-1.94734192-.1920166-.47291565-.46224976-.91014099-.79942322-1.29338074-1.11740112-1.16799926-3.54374695-1.10488891-7.48257446-1.00245666-.56983948.01481628-1.1713562.03045654-1.80513.0433197-.63974 0-1.36460877.00378418-2.02990723.00726318-.7611084.00396729-1.4442749.00753785-1.83285523.00456238-.2219696-.01203918-.33776855-.01724243-.33776855-.01182556 0 .0065918.12451172.01019287.33776855.01182556.96809388.0525055 3.9558258.2352295 8.16505432.2352295l.01174927-.00001526c.28691101-.00056458 3.57966614-.0070343 4.53762818 1.32246398.21084594.28897095.40496826.58981324.58139038.90100098z"/>
    <path fill="rgb(14,49,70)" fill-rule="evenodd" d="M197.02368101 105.76663408c-.15329013 1.23985624-1.15334948 2.20339263-2.3982332 2.31064782l-17.1364663 1.65669089c-1.24252774.12927399-2.40613588-.62815985-2.79067137-1.81654703-.15867046-.53347516-.28008558-1.07732618-.36336866-1.62762614-.02052774-.15438508.02176513-.31054925.11739792-.43348565.09563279-.12293639.23660605-.20236166.39131821-.22047128l21.61316828-2.09266217c.15423526-.0094906.30590416.0428005.42150765.14532376.11550917.09829609.18412991.24079285.18895171.39237416.02926337.56219819.01468453 1.12582136-.04360424 1.68575564z"/>
    <path fill="rgb(145,172,191)" fill-rule="evenodd" d="M197.02368101 105.76663408c-.55658943 5.37194746-4.79572806 9.62245563-10.1669485 10.19421666-5.37122043.57176104-10.41040833-2.69107856-12.08574863-7.82543934.45835953 1.07025845 1.55970153 1.71800103 2.71799762 1.59856139l17.13646631-1.6566909c1.24488372-.10725518 2.24494307-1.07079157 2.3982332-2.3106478z"/>
    <path fill="url(#linearGradient-51)" fill-rule="evenodd" d="M224.01470555 144.23383392v.45050366c-.04311725 1.0235556-.22902023 2.03607242-.55232037 3.00820188-4.70925792 14.40158482-7.54353352 21.9874852-11.4969846 28.13468035-.6831331 1.06086346-1.45347467 2.0781298-2.180212 3.08086375-1.01743227 1.33697861-2.12207302 2.6303601-3.35752648 3.9673387-2.31328222 2.23367229-5.12982333 3.8784634-8.21213186 4.79568416-3.89410868 1.21542067-7.97782945 1.70794838-12.04930498 1.45323762h-.45057715c-4.0714092.2524179-8.15471541-.24005983-12.04930498-1.45323762-3.08230853-.91722075-5.89884964-2.56201187-8.21213186-4.79568415-7.52899877-8.1817278-10.42141335-14.98287988-17.03472308-35.18288281-.30847247-.91045832-.48945078-1.85921689-.53778563-2.81928099-.02178903-.39207176-.02178903-.7850507 0-1.17712247.21271385-2.55955318 1.23029974-4.98609971 2.90694933-6.93194346 3.02248646-3.69566761 7.55079217-5.83131251 12.32546517-5.81295048l22.92129548-.08719426 22.3689751-.07266188c4.87456984-.06066625 9.51795275 2.07387427 12.6452296 5.81295049 1.4233113 1.6598689 2.38563746 3.66438813 2.79067135 5.81295048 0 .29064753.08720848.58129505.11627798.87194257.02906949.29064753.05813898.58129505.05813898.94460446z"/>
    <path fill="none" d="M185.90459982 130.90764493l-22.92129548.08719426c-4.77328448-.01211796-9.29904249 2.1223254-12.32546517 5.81295048-1.6794684 1.94977295-2.69723675 4.38184258-2.90694933 6.94647583.16900646-2.62646375 1.18951744-5.1263079 2.90694933-7.12086434 3.1220857-3.74586034 7.76888866-5.88197303 12.6452296-5.81295049l22.60153105.08719426z"/>
    <path fill="url(#linearGradient-54)" fill-rule="evenodd" d="M208.68054783 164.6518225c-.33429917-17.75856374-2.74706712-21.27539878.79941107-25.50432026 1.50471628-1.83885519 3.59129397-3.110076 5.91564189-3.6040293 2.17779408-.37181413 4.41741976-.008829 6.36621903 1.03179871 7.12202586 4.02546821 4.99995285 21.49338442.31976443 32.52345797-1.01743227 2.39784207-3.76449939 8.85021711-7.10749112 8.71942573-1.26054164-.24186596-2.37091464-.98024831-3.08136629-2.04906505-3.12497053-3.67669118-3.16857477-8.4287782-3.21217901-11.1172678z"/>
    <g opacity=".2">
      <path fill="rgb(14,49,70)" fill-rule="evenodd" d="M211.95086583 175.84175218c-.6831331 1.06086347-1.45347467 2.0781298-2.180212 3.08086376-.2470907-.2470504-.4651119-.50863317-.66859835-.74115119-3.12497053-3.6621588-3.16857477-8.41424583-3.212179-11.08820305-.33429918-17.78762848-2.74706713-21.28993115.8139458-25.51885263.7751446-.94322221 1.70386128-1.74896135 2.74706712-2.3833097-3.50287394 4.2143891-1.10464074 7.7602889-.77034157 25.4752555 0 2.6884896.08720848 7.44057662 3.21217901 11.10273543l.05813899.07266188z"/>
    </g>
    <path fill="rgb(255,255,255)" fill-rule="evenodd" d="M222.05250794 149.85787964c-.17749024-2.07492066-.57208252-4.1255188-1.17730713-6.11813355-.33717346-1.3121643-.70211792-2.3836975-.99769592-3.25158691-.53265381-1.56399536-.84010315-2.46673584-.35403443-2.92468262.47814942-.44995117 1.39176941-.17880249 1.67440796-.09494018l.02615357.00775146c3.35752868 1.07540894 4.36042785 7.3824463 4.25868225 11.32070923-.08721924 2.41238403-.68313599 5.11541748-1.56976319 5.23165894-.26190185.03030395-.52474975-.04855347-.7267456-.21798706-1.06103516-.87191773-1.13369751-2.49954224-1.13369751-3.95278931zm2.2383728 6.74301147c-.00772095.38198853-.3156128.68981934-.69769287.69754029-.38528442 0-.69766235-.31228638-.69766235-.69754029-.0039978-.18621826.06820678-.3659668.19992065-.49768066.13174439-.13168335.31152344-.20388794.4977417-.19989014.38531494 0 .69769287.3123169.69769287.6975708z"/>
    <g opacity=".5">
      <ellipse cx="184.873" cy="206.243" fill="url(#radialGradient-58)" rx="36.555" ry="14.968"/>
    </g>
    <path fill="rgb(52,232,199)" fill-rule="evenodd" d="M138.71027742 1.35151099H17.01084366c-5.75618247-.17462194-11.15145837 2.7960503-14.08115101 7.75316875C0 14.06179818 0 20.2200773 2.92969265 25.17719575c2.92969264 4.95711845 8.32496854 7.9277907 14.081151 7.75316875h85.27535865c.11424653.6855955.35054285 1.34514845.69766784 1.94733841 5.95924613 10.98647642 33.31363934 18.07827601 33.31363934 18.07827601-5.2615783-3.58949692-7.07842163-13.39885087-7.70341573-20.02561442h10.17432266c8.681714-.06365273 15.69496894-7.10168666 15.72659588-15.78216057-.02391432-8.70868219-7.07465787-15.76476718-15.78473487-15.79669294z"/>
    <g>
      <path fill="rgb(41,41,41)" fill-rule="evenodd" d="M32.17058442 23.21093877h-2.79067136V17.3979883h-5.69762069v5.81295048h-2.8052061V9.17266335h2.8052061v6.01640375h5.6976207V9.17266335h2.79067135v14.03827542z"/>
      <path fill="rgb(41,41,41)" fill-rule="evenodd" d="M40.3827234 22.45526123c.07266997.26158142.17441558.50863648.26161956.75567627l2.7906723.029068c-.1550064-.41476441-.27176666-.84281922-.34883117-1.27883912-.0763092-.48051452-.1103592-.96679687-.10174561-1.45324707v-4.28704834c.05799103-1.0293274-.3729477-2.02572632-1.16278076-2.68849182-.86203766-.65748596-1.92510987-.99638367-3.00868988-.95913696-1.13939667-.05265808-2.26255036.2857666-3.1831131.95913696-.75128174.54466248-1.15999603 1.44477844-1.07556915 2.36877441h2.6598587c-.01659393-.34329223.11585999-.67703247.3633728-.91552734.6770401-.4543457 1.57015992-.4190979 2.2092743.08718872.27887725.32070923.41990661.73849487.3924408 1.1625824v.82835388h-1.55521394c-1.201622-.08587646-2.4002533.2035675-3.4302063.82833862-.77639007.53901673-1.22109985 1.43927002-1.17731475 2.38331604-.04376221.853714.27259063 1.68664551.87208557 2.29611206.70129394.58763123 1.60121154.88409424 2.5145111.82835389.60030366.0190277 1.19099427-.15408326 1.68603516-.49411011.46864319-.32427979.8565216-.75187683 1.13370514-1.24978638.03786469.26928711.09124756.53616333.15988922.79928589zm-.97383118-1.4822998c-.399292.23991394-.85681916.36558532-1.32266236.36331176-.33847809.02728272-.67371368-.08270263-.93022156-.30519104-.23003387-.21308899-.35713195-.51490783-.3488388-.82833862-.01062775-.41065979.15306854-.80662537.45057678-1.0899353.3833847-.31378174.8719635-.46968079 1.36627197-.43595886h1.55521393v1.4532318c-.16526031.35263062-.4339447.64660645-.77033996.84288026z"/>
      <path fill="rgb(41,41,41)" fill-rule="evenodd" d="M48.69659137 19.3453267l.1889517.95913683.20348646-.95913683 1.7151001-6.52503692h2.90694934l-3.53194344 10.390649h-2.54358066l-3.53194344-10.390649h2.90694933l1.68603061 6.52503692z"/>
      <path fill="rgb(41,41,41)" fill-rule="evenodd" d="M55.84768921 21.94662476c.9306717.97999572 2.23965454 1.50985717 3.59008026 1.4532318.78199005-.00227355 1.55812836-.13487243 2.29649353-.39237975.59996796-.1933136 1.164505-.4828949 1.67149353-.85740662l-.77033996-1.74388123c-.42340088.24533082-.87164307.4450531-1.33719635.5958252-.50118256.1398468-1.0205536.20353699-1.54067993.18891907-.62380982.03184509-1.22995758-.21270752-1.65696717-.66848755-.41995239-.45767212-.66226959-1.05047608-.68312835-1.67121887h6.20633697v-1.52590943c.06490326-1.24975586-.35116577-2.47695923-1.16278076-3.42964172-.8569107-.8730011-2.04891205-1.33383179-3.27031708-1.26431274-1.29823303-.04852295-2.5504837.48426818-3.41566467 1.4532318-.8681488 1.07450867-1.31739807 2.42720032-1.26452637 3.80749512v.40690613c-.04512024 1.3433838.4344635 2.65159607 1.33719635 3.64762879zm2.19474793-6.55409241c.28016662-.39376831.73776245-.62252808 1.22091675-.61036682.46253204-.05169678.9218521.12120056 1.23545074.46504211.3028183.42184448.45160675.93484497.42150879 1.45323181v.24705506h-3.44473267c.04209137-.56063843.23825836-1.09875489.56685639-1.55496216z"/>
      <path fill="rgb(41,41,41)" fill-rule="evenodd" d="M72.95508057 20.1882019h4.91274261l.94476319 2.96461487h2.87787628L76.89399964 9.17266846h-2.9069519L69.1033731 23.2109375h2.9069519l.94475556-3.0227356zm4.21508026-2.19438171h-3.51741028l1.78777313-5.49324036 1.72963715 5.49324036z"/>
      <path fill="rgb(41,41,41)" fill-rule="evenodd" d="M98.66705567 19.83943176c.27845764-.75328064.4163971-1.55122375.40696716-2.35424804v-2.4995575c.06382752-1.5867157-.52435303-3.13046265-1.62788391-4.27252197-1.11126709-1.129776-2.64575195-1.74136353-4.22961426-1.6857605-1.57553863-.04840088-3.09738922.57502747-4.18601227 1.7148285-1.08370208 1.1418457-1.6647644 2.670166-1.61335754 4.24345397v2.48503113c-.05369568 1.57798767.52741241 3.11166382 1.61335754 4.25798035 1.09968567 1.12760925 2.62664795 1.73512268 4.20054627 1.67123413.38511658.00280761.7696228-.03125 1.14824676-.10173035.3653717-.06289673.7250824-.15522766 1.07556153-.27612305l2.5145111 2.39784241 1.83139039-1.45323181-2.31103516-2.2525177c.51126099-.5419159.91125488-1.17883301 1.17732239-1.87467957zm-3.1976471-7.54231262c.56053162.78182983.8467102 1.7270813.81394959 2.68849182v2.52862549c.03926086.97125244-.2472229 1.9277649-.81394959 2.71755981-.55232239.66114808-1.36950683 1.04328919-2.23108673 1.04328919s-1.67877197-.38214111-2.23108673-1.04328919c-.56157684-.79164123-.84290314-1.74798584-.79940796-2.71755981v-2.52862549c-.0448532-.96070862.23690796-1.90830993.79940796-2.68849182.51648712-.69451904 1.34461975-1.08673096 2.20928192-1.04632568.87625885-.0372467 1.71613312.35281372 2.25289154 1.04632568z"/>
      <path fill="rgb(41,41,41)" fill-rule="evenodd" d="M107.7076628 21.71410402c-.2938237.51379833-.71409136.94400219-1.22091872 1.24978436-.51679776.29688945-1.10464854.44759583-1.70056536.43597128-.96650616.05249873-1.90553294-.33158593-2.5581154-1.04633109-.6990027-.9397944-1.0298821-2.1028526-.9302238-3.26978464v-6.26345415h2.79067136v6.30705128c-.05866888.58520552.07942071 1.173269.39243816 1.67122326.2714112.3356791.68821598.51969276 1.1191755.4941008.39864946.01036575.7949641-.06393112 1.16277973-.21798565.31235478-.1419716.5827191-.36223254.78487632-.63942456v-7.61496513h2.8052061v10.390649h-2.3982332l-.24709069-1.49683476z"/>
      <path fill="rgb(41,41,41)" fill-rule="evenodd" d="M113.46342713 21.94662476c.93066406.97999572 2.23963928 1.50985717 3.59007263 1.4532318.75927734.01010133 1.51516724-.1027832 2.23835754-.33424377.59695435-.18978882 1.15725708-.47973633 1.6569519-.85740661l-.75579833-1.74389649c-.42340088.24534607-.87164307.44506836-1.33720398.59584046-.48062134.11320495-.97492981.15724182-1.46800232.13078308-.62380982.03184509-1.22996521-.21270752-1.65696716-.66848755-.41783143-.46029663-.66423035-1.05052185-.69766236-1.67121887h6.19180298v-1.52590943c.07095337-1.25059509-.34585571-2.4799652-1.16278076-3.42964172-.8502655-.8739624-2.03842163-1.33535767-3.25578308-1.26431274-1.30052185-.06114197-2.5579834.47386169-3.41566467 1.4532318-.8681488 1.07450867-1.31739808 2.42720032-1.26452637 3.80749512v.40690613c-.04512024 1.3433838.4344635 2.65159607 1.33720398 3.64762879zm2.10752868-6.55409241c.28305054-.39813233.74720765-.6274414 1.23545838-.61036682.46252441-.05169678.92184448.12120056 1.23544311.46504211.29766846.42372132.44128418.93656922.40698243 1.45323181v.24705506h-3.4302063c.0441742-.55786133.23468017-1.09420777.55232238-1.55496216z"/>
      <path fill="rgb(41,41,41)" fill-rule="evenodd" d="M128.31793356 15.23266423h-1.03196701c-.35750757-.0148806-.71145038.07611842-1.01743227.26158277-.27907434.16708444-.49402634.42293795-.61045936.72661881v7.01913771h-2.8052061V12.82028978h2.60171965l.13081272 1.54043188c.20382826-.49810478.52851854-.93761377.94475853-1.2788491.38014016-.3003979.85274676-.4596198 1.3371967-.45050367h.39243815l.36336867.08719426-.30522968 2.51410108z"/>
      <path fill="rgb(41,41,41)" fill-rule="evenodd" d="M133.75392881 18.8512259l.11627797.56676268 1.97672555-6.5976988h3.0232273l-4.21507653 11.93108087c-.2676155.70613107-.6783376 1.34932581-1.20638397 1.8892089-.6216457.5495879-1.4402974.82242729-2.26742048.75568357-.21742097.02287526-.43664262.02287526-.6540636 0l-.74127208-.15985614.39243816-2.0781298h.56685512c.38297004.02459537.76133499-.09459607 1.0610365-.33424465.25819503-.2364098.45732543-.53007924.58138987-.8574102l.31976443-.79928069-3.6772909-10.34705186h2.90694933l1.81684333 6.03093613z"/>
    </g>
    <g opacity=".2">
      <path fill="rgb(0,218,135)" fill-rule="evenodd" d="M32.0364384 74.2313777h41.9684802c2.26837076 0 4.11 1.84162925 4.11 4.11v8.24518225c0 2.26837075-1.84162924 4.11-4.11 4.11H32.0364384c-2.26837075 0-4.11-1.84162925-4.11-4.11V78.3413777c0-2.26837075 1.84162925-4.11 4.11-4.11z"/>
    </g>
    <ellipse cx="37.229" cy="82.471" fill="url(#linearGradient-72)" rx="4.782" ry="4.781"/>
    <path fill="rgb(2,204,170)" fill-rule="evenodd" d="M45.68209199 78.28591066H66.2749069c.41393627 0 .75.33606373.75.75v1.50820188c0 .41393627-.33606373.75-.75.75H45.68209199c-.41393627 0-.75-.33606373-.75-.75v-1.50820188c0-.41393627.33606373-.75.75-.75z"/>
    <path fill="rgb(2,204,170)" fill-rule="evenodd" d="M45.68209199 83.64835748H59.327298c.41393627 0 .75.33606374.75.75v1.50820188c0 .41393627-.33606373.75-.75.75H45.682092c-.41393627 0-.75-.33606373-.75-.75v-1.50820188c0-.41393626.33606373-.75.75-.75z"/>
  </g>
</svg>
