<svg xmlns="http://www.w3.org/2000/svg" width="32" height="32" viewBox="0 0 32 32">
  <g>
    <g opacity=".2">
      <ellipse cx="16" cy="16" fill="rgb(0,140,255)" rx="16" ry="16"/>
    </g>
    <path fill="rgb(0,140,255)" fill-rule="evenodd" d="M24.96126747 10.947649c.00336838-.0710926-.01739693-.1412363-.05892372-.19903755-.02399826-.04924583-.05919647-.09218597-.10277367-.12538338-2.5539112-1.92117119-6.20064354-2.93691253-8.74564933-.55771446-2.5450058-2.37919807-6.19173813-1.36345673-8.74564982.55771446-.04410505.03310108-.07988167.07603264-.10448599.12538338-.0418477.0576601-.06275606.12787819-.05926609.19903755.04149151 2.0437746.01713991 4.08727074-.00721407 6.13093186-.01385116 1.16234016-.0277028 2.32473182-.02944183 3.48726081-.00057888.0502472.01007175.09999085.03117466.14559556-.0422721.11124038-.0162015.23689842.06683493.32213974.08303642.0852394.2079687.1145935.32027721.07525062 2.69608116-1.06575775 5.74501705-1.30179405 8.20335007.41623116.06201267.12217712.18740749.1991539.32442093.1991539.13701248 0 .2624092-.07697678.32442092-.1991539 2.45798874-1.71802521 5.507267-1.48198891 8.20335007-.41623116.1123085.03934288.23723984.00998879.32027626-.07525062.08303643-.08524132.10910797-.21089936.0668354-.32213974.02110291-.04560471.03175355-.09534836.03117371-.14559556-.0023346-1.14990425-.01634216-2.2996788-.03035164-3.44939804l-.0000019-.00019073c-.02505303-2.05622006-.05010224-4.11227131-.0083561-6.1686039zm-8.90905952 9.99537087c-2.46004582-1.71905136-5.54461003-1.6145668-8.28385592-.63376618.00311041-1.07483291.01570559-2.14962387.02830076-3.22441673.02346993-2.00280571.04693985-4.00561905.00904036-6.00872135 2.33637571-1.7050066 5.69088983-2.71252537 7.98752737-.33709622.14861488.12886238.36935997.12886238.51797485 0 2.2952671-2.37542915 5.65252304-1.36791038 7.98752785.33709622-.03788567 2.00224304-.01444054 4.00419712.00900269 6.00623798l.0000019.0001011.00000382.000288.0000019.00009918.00000382.00028801.0000019.00009918.00000382.00028801.00000191.00009919.00000381.0002861.00000191.00010109.00000382.000288.0000019.00009919.00000382.0002861.0000019.0001011c.01259614 1.07489394.02519036 2.1498146.02830125 3.22481727-2.73924637-.98114205-5.82381058-1.0856266-8.28385544.63342476zm-3.94546032-9.15194607c.68224334-.25525093 1.44479274-.1749363 2.05888843.21685123.13992691.07166386.31147003.02098656.38998986-.11521244.07851982-.136199.036417-.31004524-.09571648-.39522743-.7491436-.47294044-1.67426872-.5747776-2.50834942-.27611732-.35353947.1233282-.20177746.69474697.1551876.5703907v-.00068474zm-3.19761467 2.15207004c.02522182.07949162.0866375.14231778.16553688.16933823.07889843.02702046.16593551.01503372.23459339-.03230762.43468952-.29509068.92270088-.50267601 1.43676758-.61115742.06960392-.01083565.13147068-.05036831.17054462-.10897923.03907395-.05861091.05177117-.13092422.03500176-.19933986.00585556-.02482033.00895786-.05021096.00924968-.0757103v-1.67554378c.00223923-.07986355-.0299263-.15684224-.08832073-.21136952-.05839443-.05452728-.137393-.08135128-.21691513-.07365513-.02727413-.0072012-.05537987-.01077175-.0835886-.01062011-.59388637-.00349617-1.17328072.18331241-1.6532774.53305053-.08500862.0619526-.13212776.16331196-.12469768.26823712-.01045036.02752304-.01713371.05633163-.0198698.08564472-.04624749.55771541-.04864598 1.1164589-.04864598 1.67554378-.0052452.119977.06969357.22889042.1836214.2668686zm13.76406193-1.07911872c-1.70329285-.9622984-3.7820511-1.23670292-5.46513176-.08119011v.00068473c-.13376427.09251881-.31720353.05908299-.40972138-.07468128-.09251976-.13376522-.05908394-.31720352.07468033-.40972233 1.84957313-1.27061843 4.16402435-1.03492546 6.05128288.03117466.32647515.18464852.07844925.71975422-.25111007.53373433zM10.37707615 11.7143364c-.36463738.0286169-.7165289.1470127-1.02430534.34463214v.0006857c-.03460026.44226646-.04213715.88556194-.04419232 1.3295412.33537579-.19317913.69459248-.3416338 1.06849766-.44158172V11.7143364zm3.69161034 1.72282028c-.58949662-.39790154-1.318923-.53014088-2.01058484-.36450196v.00068474c-.36690044.0784502-.52311515-.49159813-.1551876-.57073307.84319305-.20588398 1.73401832-.05240917 2.45970344.42376805.3134575.20794391.0215826.72009658-.293931.51078224zm2.91738605.23637867c-.12584877.09526634-.15426064.272789-.06443024.40257358.0898304.12978554.26598359.16571903.39947129.08148766 1.68308067-1.15585518 3.761837-.88110829 5.46513176.08084774.32955741.18636226.57758522-.3490858.25110817-.53339195-1.88725663-1.06507206-4.20170784-1.30042267-6.05128098-.03048993v-.0010271zm-2.33192158 1.12570762c-1.94720745-1.10960674-4.23425197-.68001556-6.0276432.5419569-.31071758.21137047-.01918411.72386551.293931.51043988 1.6186762-1.10241223 3.66762925-1.55153084 5.4397812-.5419569.13967895.07107925.3105564.0203638.38884353-.115407.07828713-.13576984.03657723-.30906677-.09491253-.39434718v-.0006857zm8.01904393.82458401c-1.70329285-.96229935-3.7820511-1.23704624-5.46513176-.08119106v.00068474c-.13385964.0925188-.31737519.05900669-.40989304-.07485295-.09251976-.13385868-.05900764-.31737423.07485199-.40989303 1.84957313-1.27027607 4.16402435-1.0345831 6.05128097.03151703.32647515.1846485.07845116.71975421-.25110816.53373527zM8.62650776 16.72109985c1.79339123-1.22197246 4.08043575-1.65156364 6.0276432-.54195594v.00068473c.13148976.08528138.17319966.25857735.09491253.39434815-.07828712.13576889-.24916458.18648529-.38884353.11540603-1.77215195-1.00991725-3.821105-.56045532-5.4397812.54195786-.31311511.21342468-.60464858-.29907036-.293931-.51044083zm8.69460583.19664002c1.68308067-1.15585518 3.7618389-.88110733 5.46513176.0808487.32955932.1863613.57758522-.34874345.25110817-.53373528-1.88725663-1.06575775-4.20170594-1.3017931-6.0516224-.03117562-.13385963.09261513-.16729545.27620697-.07468223.4100647.09261322.13385964.27620506.16729546.4100647.07468224v-.00068474zm-2.66696263.6409626c-1.94720745-1.1096077-4.23425197-.67967415-6.0276432.54229927-.31071758.21137047-.01918411.7238655.293931.51043892 1.6186762-1.10241318 3.66762925-1.55187416 5.4397812-.54229927.13967895.07107925.3105564.02036285.38884353-.11540604.07828713-.1357708.03657723-.30906677-.09491253-.39434814v-.00068474zm2.44668484.24973678c1.84923172-1.27061843 4.16402435-1.03492546 6.0516243.03117371l-.00137139.00102806c.32647706.18464852.07810784.72009659-.2500801.53270722-1.70329285-.96229935-3.78205109-1.23670197-5.46513176-.08119011-.1335106.08839225-.31319237.05381584-.40436364-.0778141-.09117126-.13162804-.06036758-.31199647.06932259-.40590478zm-1.12639332 4.70324135c2.05237866-2.46826744 5.9611845-2.0386753 8.75489903-.8978939.49296951.20143509.06748771.88076591-.42136956.6807003-2.52821731-1.03321266-6.30067825-1.49192238-7.9628601 1.090765-.0875454.11660576-.22485733.18522072-.37066937.18522072-.14581108 0-.28312397-.06861496-.3706684-.18522072-1.66252614-2.58234596-5.43464185-2.12260628-7.96286107-1.090765-.48988485.19937897-.91468048-.47926521-.42136955-.6807003 2.7940588-1.1407814 6.70252037-1.56866074 8.75489902.8978939z"/>
  </g>
</svg>
