<svg xmlns="http://www.w3.org/2000/svg" xmlns:xlink="http://www.w3.org/1999/xlink" width="40" height="40.258" viewBox="0 0 40 40.258">
  <defs>
    <rect id="rect-2" width="24" height="24" x="8" y="8.495"/>
    <mask id="mask-3" maskContentUnits="userSpaceOnUse" maskUnits="userSpaceOnUse">
      <rect width="40" height="40.258" x="0" y="0" fill="black"/>
      <use fill="white" xlink:href="#rect-2"/>
    </mask>
  </defs>
  <g transform="translate(0 .2575)">
    <g opacity=".2">
      <path fill="rgb(140,132,243)" fill-rule="evenodd" d="M20.12076116-.2575C31.09241176-.2575 40 8.65008825 40 19.62173884v.24152232c2.3e-7 10.97165017-8.90758783 19.8792386-19.87923842 19.87923884h-4.2e-7C9.14911057 39.7425.24152232 30.83491175.24152232 19.86326116v-.24152232C.2415221 8.65008867 9.14911015-.25749976 20.12076074-.2575z"/>
    </g>
    <g>
      <use fill="none" xlink:href="#rect-2"/>
      <g mask="url(#mask-3)">
        <path fill="rgb(140,132,243)" fill-rule="evenodd" d="M13.24777794 19.32722282h2.06333351c1.99866676 0 3.62511063-1.62644386 3.62555504-3.62555503v-2.0628891c0-1.99911118-1.62555504-3.625556-3.62555504-3.625556h-2.06333351c-1.99911118 0-3.625556 1.625556-3.625556 3.625556v2.0628891c0 1.99911117 1.62644482 3.62555503 3.625556 3.62555503zm-2.73666668-5.68844509c.00159264-1.51075935 1.22590733-2.73507404 2.73666668-2.73666668h2.06333351c1.51058579.00183678 2.73463058 1.2260809 2.73622131 2.73666668v2.0628891c-.00159073 1.51058674-1.22563552 2.7348299-2.73622131 2.73666668h-2.06333351c-1.51075935-.00159263-2.73507404-1.22590828-2.73666668-2.73666668v-2.0628891z"/>
        <path fill="rgb(140,132,243)" fill-rule="evenodd" d="M24.68888855 19.32722282h2.06333351c1.99911118 0 3.62555504-1.62644386 3.62511253-3.62555503v-2.0628891c0-1.99911118-1.62555694-3.625556-3.62555694-3.625556h-2.0628891c-1.99911118 0-3.62555504 1.625556-3.62555504 3.625556v2.0628891c0 1.99911117 1.62555504 3.62555503 3.62555504 3.62555503zm-2.73622131-5.68844509c.00159263-1.51058578 1.22563743-2.7348299 2.73622131-2.73666668h2.06333542c1.51075744.00159264 2.73507309 1.22590733 2.73666572 2.73666668v2.0628891c-.00159263 1.51093197-1.22617912 2.73531819-2.73711204 2.73666668h-2.0628891c-1.51058388-.00183678-2.73462868-1.22607994-2.73622131-2.73666668v-2.0628891z"/>
        <path fill="rgb(140,132,243)" fill-rule="evenodd" d="M13.24777794 30.97677612h2.06333351c1.99866676 0 3.62511063-1.62644386 3.62555504-3.62555504v-2.0628891c0-1.99911117-1.62555504-3.62555503-3.62555504-3.62555503h-2.06333351c-1.99911118 0-3.625556 1.62555504-3.625556 3.62555504v2.0628891c0 1.99911117 1.625556 3.62555503 3.625556 3.62555503zm-2.73666668-5.68844223c.00159264-1.51075935 1.22590733-2.735075 2.73666668-2.73666763h2.06333351c1.51058579.00183678 2.73463058 1.22607994 2.73622131 2.73666763v2.0628891c-.00159073 1.51058579-1.22563552 2.73482895-2.73622131 2.73666573h-2.06333351c-1.51075935-.00159264-2.73507404-1.22590828-2.73666668-2.73666573v-2.0628891z"/>
        <path fill="rgb(140,132,243)" fill-rule="evenodd" d="M24.68888855 30.97677612h2.06333351c1.99911118 0 3.62555504-1.62644386 3.62511253-3.62555504v-2.0628891c0-1.99911117-1.62555694-3.62555503-3.62555694-3.62555503h-2.0628891c-1.99911118 0-3.62555504 1.62555504-3.62555504 3.62555504v2.0628891c0 1.99911117 1.62555504 3.62555503 3.62555504 3.62555503zm-2.73622131-5.68844223c.00159263-1.51058769 1.22563743-2.73483085 2.73622131-2.73666763h2.06333542c1.51075744.00159264 2.73507309 1.22590828 2.73666572 2.73666763v2.0628891c-.00159263 1.51093102-1.22617912 2.73531723-2.73711204 2.73666573h-2.0628891c-1.51058388-.00183678-2.73462868-1.22607994-2.73622131-2.73666573v-2.0628891z"/>
      </g>
    </g>
  </g>
</svg>
