<svg id="Layer_1" data-name="Layer 1" xmlns="http://www.w3.org/2000/svg" xmlns:xlink="http://www.w3.org/1999/xlink" viewBox="0 0 280 175"><defs><style>.cls-1,.cls-31{fill:#fff;}.cls-2{opacity:0.05;}.cls-3{fill:#0092ff;}.cls-11,.cls-12,.cls-13,.cls-14,.cls-23,.cls-24,.cls-25,.cls-26,.cls-28,.cls-29,.cls-3,.cls-31,.cls-4,.cls-5,.cls-6,.cls-7{fill-rule:evenodd;}.cls-4{fill:#4fcd7b;}.cls-5{fill:#e87094;}.cls-6{fill:#f8cf45;}.cls-7{fill:#5cc3d0;}.cls-8{opacity:0.7;}.cls-9{fill:url(#linear-gradient);}.cls-10{opacity:0.4;}.cls-11{fill:#4772e5;}.cls-12{fill:url(#linear-gradient-2);}.cls-13{fill:url(#linear-gradient-3);}.cls-14{fill:url(#linear-gradient-4);}.cls-15{fill:url(#linear-gradient-5);}.cls-16{fill:url(#linear-gradient-6);}.cls-17{fill:url(#linear-gradient-7);}.cls-18{fill:url(#linear-gradient-8);}.cls-19{fill:url(#linear-gradient-9);}.cls-20{fill:url(#linear-gradient-10);}.cls-21{fill:url(#linear-gradient-11);}.cls-22{fill:url(#linear-gradient-12);}.cls-23{fill:url(#linear-gradient-13);}.cls-24{fill:url(#linear-gradient-14);}.cls-25{fill:url(#linear-gradient-15);}.cls-26{fill:url(#linear-gradient-16);}.cls-27{mask:url(#mask);}.cls-28{fill:url(#linear-gradient-17);}.cls-29{fill:url(#linear-gradient-18);}.cls-30{opacity:0.8;}.cls-32,.cls-34{opacity:0;}.cls-33{fill:none;stroke:#000;stroke-width:0.5px;}</style><linearGradient id="linear-gradient" x1="78.79" y1="83.73" x2="178" y2="83.73" gradientTransform="matrix(1, 0, 0, -1, 0, 175)" gradientUnits="userSpaceOnUse"><stop offset="0" stop-color="#2de4bf"/><stop offset="1" stop-color="#008cff"/></linearGradient><linearGradient id="linear-gradient-2" x1="66" y1="28.18" x2="88" y2="28.18" gradientTransform="matrix(1, 0, 0, -1, 0, 175)" gradientUnits="userSpaceOnUse"><stop offset="0" stop-color="#00c6fb"/><stop offset="1" stop-color="#b2fb70"/></linearGradient><linearGradient id="linear-gradient-3" x1="65.39" y1="91.93" x2="85.08" y2="-16.16" gradientTransform="matrix(1, 0, 0, -1, 0, 175)" gradientUnits="userSpaceOnUse"><stop offset="0" stop-color="#fff" stop-opacity="0"/><stop offset="1" stop-color="#fff"/></linearGradient><linearGradient id="linear-gradient-4" x1="69.85" y1="92.61" x2="81.84" y2="-15.44" xlink:href="#linear-gradient-3"/><linearGradient id="linear-gradient-5" x1="79.52" y1="32.97" x2="83.28" y2="29.49" xlink:href="#linear-gradient-3"/><linearGradient id="linear-gradient-6" x1="72.1" y1="32.51" x2="85.53" y2="29.04" xlink:href="#linear-gradient-3"/><linearGradient id="linear-gradient-7" x1="80.35" y1="29.76" x2="84.2" y2="26.29" xlink:href="#linear-gradient-3"/><linearGradient id="linear-gradient-8" x1="70.41" y1="29.76" x2="74.26" y2="26.29" xlink:href="#linear-gradient-3"/><linearGradient id="linear-gradient-9" x1="76.62" y1="48.49" x2="77.26" y2="22.74" xlink:href="#linear-gradient-3"/><linearGradient id="linear-gradient-10" x1="76.62" y1="38.92" x2="77.25" y2="13.25" xlink:href="#linear-gradient-3"/><linearGradient id="linear-gradient-11" x1="79.45" y1="26.53" x2="83.62" y2="23.05" xlink:href="#linear-gradient-3"/><linearGradient id="linear-gradient-12" x1="71.94" y1="26.13" x2="85.79" y2="22.65" xlink:href="#linear-gradient-3"/><linearGradient id="linear-gradient-13" x1="95.99" y1="153.58" x2="127.39" y2="152.81" gradientTransform="matrix(1, 0, 0, -1, 0, 175)" gradientUnits="userSpaceOnUse"><stop offset="0" stop-color="#ff004d"/><stop offset="1" stop-color="#ffae46"/></linearGradient><linearGradient id="linear-gradient-14" x1="107.82" y1="154.24" x2="120.17" y2="154.24" xlink:href="#linear-gradient-3"/><linearGradient id="linear-gradient-15" x1="111.14" y1="147.73" x2="116.86" y2="147.73" xlink:href="#linear-gradient-3"/><linearGradient id="linear-gradient-16" x1="218" y1="49.18" x2="240" y2="49.18" gradientTransform="matrix(1, 0, 0, -1, 0, 175)" gradientUnits="userSpaceOnUse"><stop offset="0" stop-color="#4772e5"/><stop offset="0.45" stop-color="#5888ff"/><stop offset="1" stop-color="#5966ff"/></linearGradient><mask id="mask" x="-1" y="6.25" width="282" height="170" maskUnits="userSpaceOnUse"><g id="mask-50"><rect x="-1" y="6.25" width="282" height="170"/><rect id="rect-49" class="cls-1" x="222.21" y="118.93" width="13.59" height="13.78"/></g></mask><linearGradient id="linear-gradient-17" x1="223.35" y1="50.19" x2="232.88" y2="50.19" xlink:href="#linear-gradient-3"/><linearGradient id="linear-gradient-18" x1="217.72" y1="49.35" x2="235.79" y2="49.08" xlink:href="#linear-gradient-3"/></defs><title>internet-sch-illust</title><g class="cls-2"><path class="cls-3" d="M217.94,81.7a6.77,6.77,0,0,0-8-4.88l-37.82,8.1a6.22,6.22,0,0,0,3.22-7.85,6.79,6.79,0,0,0-7.74-4.19l-.71.16a6.32,6.32,0,0,1,1.41-.47l19.27-4.14a6.29,6.29,0,0,0,5-6.92A6.7,6.7,0,0,0,186,55.76l10.65-2.29A6.27,6.27,0,0,0,200,42.82,6.85,6.85,0,0,0,193.53,41L71.5,67.12a6.26,6.26,0,0,0-4.87,7.63,6.77,6.77,0,0,0,8,4.89l12.85-2.76a6.76,6.76,0,0,1,8,4.89,6.26,6.26,0,0,1-4.87,7.64L64.87,94.92A6.26,6.26,0,0,0,60,102.56a6.77,6.77,0,0,0,8,4.88l12.14-2.6a6.21,6.21,0,0,0-3.24,7.86,6.78,6.78,0,0,0,7.75,4.18l-26.39,5.83A6.28,6.28,0,0,0,55,133.3a6.82,6.82,0,0,0,6.34,1.93l37.82-8.11A6.23,6.23,0,0,0,95.91,135a6.79,6.79,0,0,0,7.76,4.18l89.91-19.28a6.27,6.27,0,0,0,4.93-7.35,6.74,6.74,0,0,0-7.43-5.27,6.23,6.23,0,0,0,3.38-7.86,6.78,6.78,0,0,0-7.78-4.24l26.38-5.83a6.44,6.44,0,0,0,4.09-2.81,6.17,6.17,0,0,0,.79-4.83Z"/></g><path class="cls-4" d="M207.73,169.17l3,2.87,3-2.87-3-2.87Zm3,1.91-2-1.91,2-1.91,2,1.91Z"/><path class="cls-4" d="M227.55,10.26l3,2.87,3-2.87-3-2.87Zm3,1.91-2-1.91,2-1.91,2,1.91Z"/><path class="cls-5" d="M10.53,7.7l3,2.87,3-2.87-3-2.87Zm3,1.92-2-1.92,2-1.91,2,1.91Z"/><path class="cls-6" d="M15.24,163.05a2.61,2.61,0,0,0,2.66,2.56,2.71,2.71,0,0,0,1.88-.75,2.51,2.51,0,0,0,.78-1.81,2.66,2.66,0,0,0-5.32,0Zm.71,0a2,2,0,1,1,1.95,1.87A1.91,1.91,0,0,1,16,163.05Z"/><path class="cls-5" d="M270.73,63.79h5.74L273.59,59Zm4.53-.68H272l1.65-2.75Z"/><path class="cls-7" d="M52.9,87.67h5.74l-2.87-4.78ZM57.43,87H54.12l1.65-2.75Z"/><g class="cls-8"><ellipse id="ellipse-8" cx="140.13" cy="91.27" rx="37.87" ry="38.4"/><ellipse class="cls-9" cx="140.13" cy="91.27" rx="37.87" ry="38.4"/></g><g class="cls-10"><path class="cls-11" d="M102,91.22c0-21.21,17-38.4,37.87-38.4S177.74,70,177.74,91.22s-17,38.4-37.87,38.4S102,112.43,102,91.22Zm72.72-7a35.66,35.66,0,0,0-34.85-29,35.09,35.09,0,0,0-25.13,10.56,36.41,36.41,0,0,0-4.42,45.5,35.26,35.26,0,0,0,43.15,13.28A36.15,36.15,0,0,0,174.72,84.19Z"/></g><path class="cls-12" d="M71,136.25H83a5,5,0,0,1,5,5v11.14a5,5,0,0,1-5,5H71a5,5,0,0,1-5-5V141.25A5,5,0,0,1,71,136.25Z"/><path class="cls-13" d="M70.7,148.11a6.45,6.45,0,0,0,6.3,5.23,6.15,6.15,0,0,0,2.5-.51,6.56,6.56,0,0,0,3.43-8.55,6.39,6.39,0,0,0-8.43-3.47A6.54,6.54,0,0,0,70.7,148.11Zm.28-1.29a6,6,0,1,1,6,6.1A6.07,6.07,0,0,1,71,146.82Z"/><path class="cls-14" d="M75.44,152.81a2.67,2.67,0,0,0,1.56.53,2.72,2.72,0,0,0,1.57-.53,4.56,4.56,0,0,0,1.23-1.42,9.88,9.88,0,0,0,0-9.14,4.35,4.35,0,0,0-1.24-1.42,2.52,2.52,0,0,0-3.12,0,4.35,4.35,0,0,0-1.24,1.42,9.88,9.88,0,0,0,0,9.14A4.46,4.46,0,0,0,75.44,152.81Zm-.89-10.35a2.59,2.59,0,0,1,4.9,0,9.58,9.58,0,0,1,0,8.72,2.59,2.59,0,0,1-4.9,0,9.58,9.58,0,0,1,0-8.72Z"/><rect class="cls-15" x="79.89" y="143.3" width="2.46" height="0.42"/><rect class="cls-16" x="71.67" y="143.3" width="8.78" height="0.42"/><rect class="cls-17" x="80.71" y="146.49" width="2.52" height="0.42"/><rect class="cls-18" x="70.77" y="146.49" width="2.52" height="0.42"/><rect class="cls-19" x="76.8" y="140.4" width="0.41" height="3.11"/><rect class="cls-20" x="76.79" y="149.93" width="0.41" height="3.1"/><rect class="cls-21" x="79.79" y="149.68" width="2.73" height="0.42"/><rect class="cls-22" x="71.49" y="149.68" width="9.05" height="0.42"/><path class="cls-23" d="M109,12.25h10a5,5,0,0,1,5,5v9.22a5,5,0,0,1-5,5H109a5,5,0,0,1-5-5V17.25A5,5,0,0,1,109,12.25Z"/><path class="cls-24" d="M109.91,26.51h8.18a2.12,2.12,0,0,0,1.36-3.71l-.07-.05a2.18,2.18,0,0,1-.69-1.6v-.54c0-.05,0-.09,0-.13a5.56,5.56,0,0,0-1.54-4.3,4.49,4.49,0,0,0-3-1.18H114a4.73,4.73,0,0,0-4.69,4.75v1.4a2.15,2.15,0,0,1-.69,1.59l-.07.06a2.13,2.13,0,0,0-.73,1.6A2.1,2.1,0,0,0,109.91,26.51Zm.27-6.76A3.86,3.86,0,0,1,114,15.88h.16a3.63,3.63,0,0,1,2.39.95,4.74,4.74,0,0,1,1.26,3.66v.05a.15.15,0,0,1,0,.07v.54a3.08,3.08,0,0,0,1,2.27h0l0,0h0a1.23,1.23,0,0,1-.79,2.16h-8.18a1.23,1.23,0,0,1-.79-2.16h0l0,0h0l0,0a3,3,0,0,0,1-2.26Z"/><path class="cls-25" d="M114,28.72a2.88,2.88,0,0,1-2.86-2.9H112a2,2,0,1,0,4,0h.87a2.88,2.88,0,0,1-2.86,2.9Z"/><path class="cls-26" d="M223,115.25h12a5,5,0,0,1,5,5v11.14a5,5,0,0,1-5,5H223a5,5,0,0,1-5-5V120.25A5,5,0,0,1,223,115.25Z"/><g class="cls-27"><path class="cls-28" d="M232.24,127.07h-4v-3.89a.62.62,0,0,1,.62-.62.61.61,0,0,1,.61.62v2.64h2.73a.61.61,0,0,1,.53.31.62.62,0,0,1,0,.62.6.6,0,0,1-.53.32Z"/><path class="cls-29" d="M222.72,128.46a6.81,6.81,0,0,0,6.28,4.25,6.7,6.7,0,0,0,4.8-2,6.94,6.94,0,0,0,0-9.74,6.72,6.72,0,0,0-9.6,0A7,7,0,0,0,222.72,128.46Zm.72-2.64a5.56,5.56,0,1,1,5.56,5.64A5.6,5.6,0,0,1,223.44,125.82Z"/></g><g class="cls-30"><path class="cls-31" d="M133,63.52h0a.76.76,0,0,0,.58-.87L133,59.47a.8.8,0,0,0-.32-.48.72.72,0,0,0-.57-.1l-.21,0a.7.7,0,0,0-.47.33.74.74,0,0,0-.09.58l.79,3.13A.74.74,0,0,0,133,63.52Zm8.87-.56h0a.75.75,0,0,1-.68-.79l.23-3.22a.71.71,0,0,1,.26-.52.78.78,0,0,1,.55-.18l.2,0a.73.73,0,0,1,.51.28.76.76,0,0,1,.16.56l-.39,3.2A.75.75,0,0,1,141.88,63Zm8.58,2.2h0a.71.71,0,0,0,.57,0,.73.73,0,0,0,.42-.39l1.36-2.93a.73.73,0,0,0,0-.58.72.72,0,0,0-.4-.42l-.19-.08a.71.71,0,0,0-.57,0,.72.72,0,0,0-.41.41l-1.2,3A.75.75,0,0,0,150.46,65.16ZM158,69.92v0a.75.75,0,0,1-.08-1l2.07-2.47a.76.76,0,0,1,.52-.27.74.74,0,0,1,.55.18l.15.14a.78.78,0,0,1,.25.53.73.73,0,0,1-.2.54L159,69.88A.74.74,0,0,1,158,69.92Zm6.67,7.16,2.83-1.57h0a.7.7,0,0,0,.36-.46.76.76,0,0,0-.08-.57c-.16-.28-.33-.56-.5-.83l0-.05-4,2.51.43.69A.75.75,0,0,0,164.62,77.08ZM170.91,85l-3.17.62a.75.75,0,0,1-.87-.57v0a.76.76,0,0,1,.55-.89l3.13-.78a.74.74,0,0,1,.58.09.7.7,0,0,1,.33.47,1.29,1.29,0,0,1,.05.21.75.75,0,0,1-.59.88Zm-2.85,9.72,3.2.39a.75.75,0,0,0,.83-.66l0-.2a.76.76,0,0,0-.69-.82l-3.22-.23a.76.76,0,0,0-.8.68v0A.74.74,0,0,0,168.06,94.72Zm.42,10.1-2.93-1.36a.74.74,0,0,1-.36-1h0a.74.74,0,0,1,1-.39l3,1.2a.75.75,0,0,1,.41.41.73.73,0,0,1,0,.58l-.08.18a.72.72,0,0,1-.43.39A.73.73,0,0,1,168.48,104.82Zm-5.64,8.38-2.37-2.2a.75.75,0,0,1,0-1h0a.74.74,0,0,1,1-.08l2.47,2.07a.76.76,0,0,1,.27.52.74.74,0,0,1-.19.55l-.14.16a.77.77,0,0,1-.52.24A.72.72,0,0,1,162.84,113.2Z"/><path class="cls-31" d="M156.64,118.36a32.31,32.31,0,0,1-34.24-54.8,1.63,1.63,0,0,1,1.72,2.76,29.06,29.06,0,1,0,30.8,49.28,1.63,1.63,0,0,1,1.72,2.76Z"/></g><path class="cls-31" d="M139.52,77.8c-2.06.29-3.87,2.44-5,5.62a24.15,24.15,0,0,0,5,.59Zm1,0V84a24.15,24.15,0,0,0,5-.59C144.35,80.24,142.54,78.09,140.48,77.8Zm-3.83.39-.12,0-.3.09-.37.1-.3.11-.35.13-.3.11-.34.15-.3.13-.33.17a2.64,2.64,0,0,0-.29.15l-.32.17-.29.17-.31.19-.27.18-.3.21-.27.2-.29.22-.26.21-.28.25-.25.22-.27.26c-.07.08-.15.15-.23.23l0,0a16.92,16.92,0,0,0,3.3,1.27A11.82,11.82,0,0,1,136.65,78.19Zm13.08,3.73,0,0c-.08-.08-.16-.15-.23-.23l-.27-.26-.25-.22-.28-.25-.25-.2-.3-.23-.26-.19-.31-.22-.27-.18L147,79.7l-.28-.17-.33-.18-.29-.14-.33-.17-.3-.13-.34-.15-.3-.11-.35-.13-.31-.1-.36-.11-.3-.09-.12,0a11.92,11.92,0,0,1,3.08,5A16.31,16.31,0,0,0,149.73,81.92Zm-23.2,8.85h5.77a25.07,25.07,0,0,1,1-6.67,17.15,17.15,0,0,1-3.65-1.45A13.41,13.41,0,0,0,126.53,90.77Zm23.85-8.12a17.15,17.15,0,0,1-3.65,1.45,25.07,25.07,0,0,1,1,6.67h5.77A13.41,13.41,0,0,0,150.38,82.65Zm-16.17,1.69a24.94,24.94,0,0,0,5.31.63v5.8h-6.26A24.51,24.51,0,0,1,134.21,84.34Zm6.27,6.43h6.26a24.51,24.51,0,0,0-1-6.43,24.94,24.94,0,0,1-5.31.63Zm-10.86,9.08a16.67,16.67,0,0,1,3.65-1.46,25.06,25.06,0,0,1-1-6.66h-5.77A13.44,13.44,0,0,0,129.62,99.85Zm9.9-8.12h-6.26a24.44,24.44,0,0,0,1,6.42,26.3,26.3,0,0,1,5.31-.63Zm1,5.79a26.3,26.3,0,0,1,5.31.63,24.44,24.44,0,0,0,1-6.42h-6.26Zm13-5.79H147.7a25.06,25.06,0,0,1-1,6.66,16.67,16.67,0,0,1,3.65,1.46A13.44,13.44,0,0,0,153.47,91.73Zm-13.95,13V98.48a25.58,25.58,0,0,0-5,.59C135.65,102.25,137.46,104.4,139.52,104.69Zm1,0c2.06-.29,3.87-2.44,5-5.62a25.58,25.58,0,0,0-5-.59Zm-9.67-3.58-.27-.26-.23-.23,0,0a15.74,15.74,0,0,1,3.3-1.27,12,12,0,0,0,3.08,5l-.12,0-.3-.09-.36-.11-.31-.1-.35-.13-.3-.12-.34-.14-.3-.14-.33-.16-.29-.15-.33-.18-.28-.16-.31-.2-.27-.18-.31-.21-.26-.19-.3-.24-.25-.2-.28-.25Zm13,3.08.37-.11.3-.1.35-.13.3-.12.34-.15.3-.13.33-.16.29-.15.32-.18.29-.17.31-.19.27-.18.3-.21.27-.19.29-.23.26-.21.28-.24.24-.22.28-.26.23-.24,0,0a16.31,16.31,0,0,0-3.3-1.27,11.88,11.88,0,0,1-3.08,5l.12,0Z"/><circle class="cls-32" cx="140" cy="91.25" r="16"/><circle class="cls-33" cx="140" cy="91.25" r="16"/><g class="cls-34"><circle cx="140" cy="91.25" r="16"/></g><path class="cls-1" d="M140,107.75a16.5,16.5,0,1,1,16.5-16.5A16.52,16.52,0,0,1,140,107.75Zm0-32a15.5,15.5,0,1,0,15.5,15.5A15.51,15.51,0,0,0,140,75.75Z"/></svg>