<svg xmlns="http://www.w3.org/2000/svg" xmlns:xlink="http://www.w3.org/1999/xlink" width="56" height="56" viewBox="0 0 56 56">
  <defs>
    <rect id="rect-2" width="32" height="31.823" x="12" y="12.089"/>
    <rect id="rect-5" width="20" height="20" x="18" y="18"/>
    <mask id="mask-6" maskContentUnits="userSpaceOnUse" maskUnits="userSpaceOnUse">
      <rect width="56" height="56" x="0" y="0" fill="black"/>
      <use fill="white" xlink:href="#rect-5"/>
    </mask>
  </defs>
  <g>
    <path fill="rgb(219,228,255)" fill-rule="evenodd" d="M28 0c15.45362069 0 28 12.54637931 28 28S43.45362069 56 28 56 0 43.45362069 0 28 12.54637931 0 28 0z"/>
    <g>
      <g transform="rotate(-32.000011 28.00000003 28.0000003)">
        <path fill="rgb(71,114,229)" fill-rule="evenodd" d="M32.35362625 14.843544h.01301193c.18725586.06821728.39480591-.02491378.4683342-.21015071l.56840897-1.48506737c.03543854-.09242916.03217315-.1952324-.0090599-.28522587-.04122926-.08999347-.11695481-.15959835-.21009827-.1931181l-.10007096-.03402423c-.09352112-.03248024-.19618988-.02582932-.28474045.01844406-.08854675.04427433-.1554718.12242126-.18559646.21672535l-.48835373 1.51308727c-.0617218.18969631.03971481.39390278.22816467.4593296zm3.84876633 2.08049584l-.00800324-.00500297c-.1592369-.12154007-.19293594-.34768105-.07605743-.51036835l.93367386-1.28692436c.05816269-.08006478.1461029-.13335038.24399948-.14784623.09789276-.01449585.19750214.0110178.27637482.07079125l.08005523.06104374c.07820511.06059265.12874222.15010357.14022827.2483673.01148224.0982647-.0170555.19701577-.07918167.2740078l-1.00072097 1.23688984c-.12603379.15469742-.35234452.18087769-.51036835.05904198zm3.00916672 3.15727043v.00600434c.05454635.08163261.13936233.13818168.23569488.15714645.09632874.01896667.19625092-.00121117.27767181-.05607414l1.33095551-.86862374c.08232498-.05473518.13926697-.14019394.15807724-.23724937.01880646-.09705353-.00208664-.1975975-.05800247-.2791233l-.05804444-.08305932c-.0567398-.08095932-.14372253-.13562393-.24128341-.1516323-.09755707-.01600838-.19744873.00799178-.27708817.06657218l-1.28392029.93667221c-.16176986.1187439-.19910049.3449421-.08406066.509367zm1.88635253 3.94283295v-.01200867c-.05710983-.1912403.04851532-.3931675.23817063-.45532799l1.51108932-.4933548c.09420395-.03092765.19689942-.02256202.2848587.02320672.0879593.04576683.15374375.12507057.18247605.2199688.0090065.03202247.01901245.06404685.02902222.10007285.02758407.09503746.01575851.1971798-.03281021.2834034-.04857254.0862217-.1297989.1492672-.22537613.17492485l-1.53610611.41329765c-.19460297.05268479-.39549637-.06045532-.45132447-.25418281zm.91966248 4.72839928l1.5881424.08205795v.00300217c.09963989.00488853.19702148-.03074837.26996994-.09879876.07295227-.06804847.11526489-.16271972.11730957-.2624607C44 28.31822967 44 28.1601162 44 28.00300406v-.02802085h-2.33067703v.40028762c-.0051651.19928742.149189.36650277.34825134.37727166zm.55740356 4.95155906l-1.48506927-.57041168c-.18615341-.07152176-.28121567-.27853012-.21415329-.4663353l.00500488-.01300811c.066288-.18820954.27041245-.28938294.46033097-.22816468l1.51208496.49135208c.09428787.03009797.17237854.09707642.2164917.18567658.04411316.08860016.05048751.19128418.0176773.28466034-.01100921.03302383-.02201461.06504822-.03402328.10007477-.03389359.0927658-.10372543.16797638-.1937294.20864486-.09000015.0406723-.19259262.04338074-.28461457.00751114zm-3.72668457 3.31137848l1.23488999 1.00072098c.15976715.12640762.39172745.09954071.51837158-.06004334l.06104279-.08005905c.06004715-.0787735.08572769-.17845916.0712204-.27643585-.01451111-.0979805-.06797791-.1859436-.14827347-.24393845l-1.28492356-.93567276c-.1622963-.11765289-.38881683-.08433914-.51036834.07505417v.00800705c-.12339783.15810013-.09759522.3858757.05804061.51236725zm-2.45976257 4.33011246l-.86762619-1.33195877c-.10577392-.16671753-.06168747-.38714981.10007477-.50035858h.00600433c.16474915-.11394883.39030075-.0757637.50836563.08605957l.93567276 1.28492355c.05820465.07985687.08187867.17975616.0656929.27723694-.01618194.09748459-.07086563.18437576-.15175628.24113846l-.08306122.05703735c-.0828514.05420685-.18408203.07265854-.2807312.0511818-.09665299-.02147675-.18053818-.08106995-.2326355-.16526032zm-4.54526901 2.02745819l-.41129494-1.53610611c-.05098343-.19249344.06028366-.39064789.25118065-.44732285h.01200867c.19121551-.05638885.39258575.04961777.45432663.2391739l.49235534 1.51208495c.03061295.09407807.02209092.19651413-.02365493.28423691-.04574204.08772278-.12485886.15335083-.21952057.1820984l-.10007477.0290222c-.09532166.02678681-.19742203.01395036-.28314972-.03560256-.08572388-.0495491-.14780998-.13161469-.17217636-.22758484z"/>
        <path fill="rgb(71,114,229)" fill-rule="evenodd" d="M27.9114358 43.91143604c-8.77330547 0-15.91143574-7.13712954-15.91143574-15.91143574s7.13712955-15.91143575 15.91143575-15.91143575c.44214557 0 .80057538.3584298.80057538.80057538 0 .44214558-.3584298.80057539-.80057538.80057539-7.89067112 0-14.31028498 6.41861313-14.31028498 14.31028498 0 7.89167184 6.41861314 14.31028498 14.31028498 14.31028498.44214557 0 .80057538.3584298.80057538.80057538 0 .44214557-.3584298.80057538-.80057538.80057538z"/>
      </g>
      <g>
        <use fill="none" xlink:href="#rect-5"/>
        <g mask="url(#mask-6)">
          <path fill="rgb(71,114,229)" fill-rule="evenodd" d="M19.54517174 29.77904892c.81497955 4.0229187 4.3501892 6.91553116 8.45482826 6.91798782 1.15393448.00209046 2.29642487-.22868728 3.35907364-.6785202 4.3634262-1.8724556 6.39525223-6.91753006 4.54745865-11.29145813-1.84779358-4.37392807-6.88131523-6.4342022-11.26560593-4.61113357-3.78005218 1.5997734-5.91073608 5.64020538-5.09575462 9.66312408zm.38075447-1.71164131c0-4.45222283 3.62203598-8.0740738 8.07407379-8.0740738s8.0740738 3.6220379 8.0740738 8.0740738S32.4520378 36.14147949 28 36.14147949s-8.0740738-3.62184906-8.0740738-8.07407188z"/>
          <path fill="rgb(71,114,229)" fill-rule="evenodd" d="M25.90166664 35.98944473c.66166687.46944428 1.36759377.70759201 2.09833336.70759201.7307415 0 1.43666649-.23814773 2.09833336-.707592.62388801-.44314957 1.18296242-1.07388688 1.66092491-1.87425996.96463013-1.61981582 1.49629593-3.76759147 1.49629593-6.04777526 0-2.2801857-.5316658-4.42815018-1.49703598-6.0479641-.47722244-.80000115-1.0357399-1.43092537-1.66018486-1.87407494-.66166687-.46962928-1.36759186-.707592-2.09833336-.707592-.7307396 0-1.43666649.23796272-2.09907341.707592-.62444496.44314957-1.18296432 1.07370377-1.66018486 1.87407494-.96463013 1.61981392-1.49703789 3.7677784-1.49703789 6.0479641 0 2.28018379.5316658 4.42795944 1.49703789 6.04777526.4779625.80037308 1.0370369 1.43111039 1.66092491 1.87425995zm-1.18296432-13.6855545C25.60685158 20.81388855 26.77222062 19.99333382 28 19.99333382c1.22777748 0 2.39314651.8214817 3.28129578 2.3105564.914814 1.53499986 1.41870117 3.58203507 1.41870117 5.76351739 0 2.18148231-.50388718 4.22888756-1.41870117 5.76333427C30.3931465 35.32073975 29.22777748 36.1414795 28 36.1414795c-1.22777939 0-2.39240837-.82073974-3.28129768-2.3107376-.914814-1.53444672-1.41870308-3.58166695-1.41870308-5.76333428 0-2.18166542.50388908-4.22851753 1.41870308-5.76351738z"/>
          <rect width="3.294" height=".556" x="31.873" y="23.416" fill="rgb(71,114,229)" rx="0" ry="0"/>
          <rect width="11.772" height=".556" x="20.852" y="23.416" fill="rgb(71,114,229)" rx="0" ry="0"/>
          <path fill="rgb(71,114,229)" fill-rule="evenodd" d="M23.02222222 27.63333333h-3.37407407v.55555556h16.7037037v-.55555556H23.02222222z"/>
          <path fill="rgb(71,114,229)" fill-rule="evenodd" d="M28.29166667 23.6924074l-.0138889-4.11259259-.55555555.00203704.01296297 3.8337037h-.01296297v12.8688889h.55555556V23.69259258l.01388889-.00018518z"/>
          <rect width="3.655" height=".556" x="31.736" y="31.851" fill="rgb(71,114,229)" rx="0" ry="0"/>
          <rect width="12.135" height=".556" x="20.609" y="31.851" fill="rgb(71,114,229)" rx="0" ry="0"/>
        </g>
      </g>
    </g>
  </g>
</svg>
