<svg id="Layer_1" data-name="Layer 1" xmlns="http://www.w3.org/2000/svg" xmlns:xlink="http://www.w3.org/1999/xlink" viewBox="0 0 220 185"><defs><style>.cls-1,.cls-12,.cls-15{fill:#008cff;}.cls-1{fill-opacity:0.05;}.cls-1,.cls-10,.cls-11,.cls-12,.cls-13,.cls-16,.cls-2,.cls-3,.cls-4,.cls-5,.cls-6,.cls-7,.cls-8,.cls-9{fill-rule:evenodd;}.cls-2{fill:url(#linear-gradient);}.cls-3{fill:url(#linear-gradient-2);}.cls-4{fill:#fff;}.cls-5{fill:#f0f8ff;}.cls-6{fill:url(#linear-gradient-3);}.cls-7{fill:url(#linear-gradient-4);}.cls-8{fill:url(#linear-gradient-5);}.cls-9{fill:url(#linear-gradient-6);}.cls-10,.cls-17{fill:#02ccaa;}.cls-11{fill:#662d91;}.cls-13{fill:#fbb03b;}.cls-14{opacity:0.1;}.cls-16{fill:#00a99d;}</style><linearGradient id="linear-gradient" x1="73.6" y1="117.64" x2="146.25" y2="117.64" gradientTransform="matrix(1, 0, 0, -1, 0, 186)" gradientUnits="userSpaceOnUse"><stop offset="0" stop-color="#005bea"/><stop offset="1" stop-color="#00c6fb"/></linearGradient><linearGradient id="linear-gradient-2" x1="72.46" y1="80.3" x2="147.39" y2="80.3" xlink:href="#linear-gradient"/><linearGradient id="linear-gradient-3" x1="116.08" y1="93.53" x2="95.94" y2="-24.77" xlink:href="#linear-gradient"/><linearGradient id="linear-gradient-4" x1="54.62" y1="91.32" x2="65.31" y2="91.32" xlink:href="#linear-gradient"/><linearGradient id="linear-gradient-5" x1="58.29" y1="83.31" x2="70.61" y2="83.31" xlink:href="#linear-gradient"/><linearGradient id="linear-gradient-6" x1="51.87" y1="76.79" x2="65.31" y2="76.79" xlink:href="#linear-gradient"/></defs><title>invite</title><path class="cls-1" d="M194.93,47a7.85,7.85,0,0,0-10.74-2.87L144.1,67.23a7.86,7.86,0,0,0-9.3-12.54l-.76.44a7.42,7.42,0,0,1,1.44-1.06L155.9,42.26a7.86,7.86,0,0,0-6.21-14.33L161,21.42A7.87,7.87,0,1,0,153.11,7.8L23.76,82.48A7.86,7.86,0,1,0,31.62,96.1l13.62-7.86a7.86,7.86,0,1,1,7.86,13.62L25.88,117.58a7.86,7.86,0,1,0,7.86,13.61l12.86-7.42a7.86,7.86,0,0,0,9.3,12.55L28,152.67a7.86,7.86,0,0,0,7.86,13.62l40.09-23.15a7.86,7.86,0,0,0,9.3,12.55l95.31-55a7.86,7.86,0,0,0-7.22-14,7.86,7.86,0,0,0-9.19-12.65L192,57.71A7.85,7.85,0,0,0,194.92,47Z"/><path class="cls-2" d="M73.6,81.45l34.23-25.4a3.93,3.93,0,0,1,4.71,0l33.71,25.38Z"/><path class="cls-3" d="M74.54,81.12h70.77a2.08,2.08,0,0,1,2.08,2.08v45a2.08,2.08,0,0,1-2.08,2.08H74.54a2.08,2.08,0,0,1-2.08-2.08v-45A2.08,2.08,0,0,1,74.54,81.12Z"/><path class="cls-4" d="M144,84.37V63.86a1.74,1.74,0,0,0-1.74-1.74H77.38a1.74,1.74,0,0,0-1.73,1.74V84.37l6.85,5.27,1.17.91,6.42,4.94,4.64,3.57,9.94,7.65.66.51a1.75,1.75,0,0,0,2,.1,5,5,0,0,1,5.23,0,1.75,1.75,0,0,0,2-.11l.9-.71L125,99.06l4.61-3.57,6.4-4.95.1-.08Z"/><path class="cls-5" d="M84.28,70h50.07a1.79,1.79,0,0,1,0,3.57H84.28a1.79,1.79,0,0,1,0-3.57Z"/><path class="cls-5" d="M84.28,78.46h50.07a1.79,1.79,0,0,1,0,3.57H84.28a1.79,1.79,0,0,1,0-3.57Z"/><path class="cls-5" d="M134.35,87a1.8,1.8,0,0,1,1.26.52,1.75,1.75,0,0,1,.52,1.26v1.71l-.1.08H84.29a1.78,1.78,0,0,1-1.26-3A1.75,1.75,0,0,1,84.29,87Z"/><path class="cls-5" d="M125.52,98.69h0a1.79,1.79,0,0,1-1.09.37H95.34a1.76,1.76,0,0,1-1.08-.37h0a1.78,1.78,0,0,1,1.09-3.19h29.1a1.78,1.78,0,0,1,1.09,3.19Z"/><path class="cls-6" d="M144.76,127l-31.17-19-1-.62a5,5,0,0,0-5.23,0l-1,.64L75.65,127l29-20.27,2.56-1.78a5,5,0,0,1,5.94,0l2.24,1.57Z"/><path class="cls-7" d="M55.3,94h9.33a.68.68,0,0,1,0,1.36H55.3a.68.68,0,0,1,0-1.36Z"/><path class="cls-8" d="M59,102h11a.68.68,0,0,1,0,1.36H59A.68.68,0,0,1,59,102Z"/><path class="cls-9" d="M52.55,108.54H64.63a.68.68,0,1,1,0,1.35H52.55a.68.68,0,1,1,0-1.35Z"/><path class="cls-10" d="M190.11,25.48,196,31.39l5.91-5.91L196,19.58ZM196,29.84l-4.34-4.36L196,21.16l4.34,4.34Z"/><path class="cls-10" d="M1.76,118.72l5.89,5.9,5.91-5.9-5.91-5.89Zm5.89,4.34-4.34-4.34,4.34-4.33L12,118.72Z"/><path class="cls-10" d="M191.3,174.61l4.68,4.68,4.67-4.68L196,169.94Zm4.68,3.12-3.12-3.12L196,171.5l3.11,3.11Z"/><path class="cls-11" d="M65.9,177.68a4.17,4.17,0,1,0,4.17-4.17A4.17,4.17,0,0,0,65.9,177.68Zm1.12,0a3.06,3.06,0,1,1,3.06,3A3.07,3.07,0,0,1,67,177.68Z"/><path class="cls-11" d="M100.18,7.88a4.17,4.17,0,1,0,4.17-4.16A4.17,4.17,0,0,0,100.18,7.88Zm1.33-1.17a3.06,3.06,0,0,1,2.83-1.89,3.06,3.06,0,0,1,3.07,3.05,3.07,3.07,0,1,1-5.9-1.16Z"/><path class="cls-12" d="M209.76,90.11a4.17,4.17,0,1,0,4.17-4.17A4.16,4.16,0,0,0,209.76,90.11Zm1.33-1.18a3.06,3.06,0,0,1,5-1,3.1,3.1,0,0,1,.89,2.17,3.06,3.06,0,1,1-5.89-1.18Z"/><path class="cls-13" d="M129.13,160.16h9l-4.49-7.79Zm7.08-1.1H131l2.59-4.49Z"/><path class="cls-13" d="M38.22,48.68h9L42.7,40.9Zm7.08-1.1H40.13l2.59-4.48Z"/><g class="cls-14"><path class="cls-12" d="M55.54,55.71H81.41a6.32,6.32,0,0,1,0,12.63H55.54a6.32,6.32,0,1,1,0-12.63Z"/></g><circle class="cls-15" cx="56.35" cy="62.02" r="3.67"/><path class="cls-4" d="M63.41,58.81H78.05a1.16,1.16,0,0,1,0,2.31H63.41a1.16,1.16,0,0,1,0-2.31Z"/><path class="cls-4" d="M63.41,62.93h9.31a1.15,1.15,0,1,1,0,2.3H63.41a1.15,1.15,0,1,1,0-2.3Z"/><g class="cls-14"><path class="cls-16" d="M142.52,92.78h25.87a6.32,6.32,0,0,1,0,12.63H142.52a6.32,6.32,0,1,1,0-12.63Z"/></g><circle class="cls-17" cx="143.33" cy="99.1" r="3.67"/><path class="cls-4" d="M150.39,95.89H165a1.15,1.15,0,1,1,0,2.3H150.39a1.15,1.15,0,1,1,0-2.3Z"/><path class="cls-4" d="M150.39,100h9.31a1.15,1.15,0,0,1,0,2.3h-9.31a1.15,1.15,0,1,1,0-2.3Z"/></svg>