<svg id="Layer_1" data-name="Layer 1" xmlns="http://www.w3.org/2000/svg" xmlns:xlink="http://www.w3.org/1999/xlink" viewBox="0 0 130 113"><defs><style>.cls-1{fill:#02ccaa;}.cls-1,.cls-10,.cls-11,.cls-12,.cls-13,.cls-2,.cls-3,.cls-4,.cls-5,.cls-7,.cls-8,.cls-9{fill-rule:evenodd;}.cls-2{fill:#662d91;}.cls-3{fill:#fbb03b;}.cls-4{fill:url(#linear-gradient);}.cls-5{fill:url(#linear-gradient-2);}.cls-6{opacity:0.2;}.cls-8{fill:#fff;}.cls-9{fill:#f0f8ff;}.cls-10{fill:url(#linear-gradient-3);}.cls-11{fill:url(#linear-gradient-4);}.cls-12{fill:url(#linear-gradient-5);}.cls-13{fill:url(#linear-gradient-6);}</style><linearGradient id="linear-gradient" x1="28.61" y1="89.58" x2="101.27" y2="89.58" gradientTransform="matrix(1, 0, 0, -1, 0, 113)" gradientUnits="userSpaceOnUse"><stop offset="0" stop-color="#005bea"/><stop offset="1" stop-color="#00c6fb"/></linearGradient><linearGradient id="linear-gradient-2" x1="27.47" y1="52.24" x2="102.4" y2="52.24" xlink:href="#linear-gradient"/><linearGradient id="linear-gradient-3" x1="71.09" y1="65.47" x2="50.96" y2="-52.82" xlink:href="#linear-gradient"/><linearGradient id="linear-gradient-4" x1="9.63" y1="63.27" x2="20.33" y2="63.27" xlink:href="#linear-gradient"/><linearGradient id="linear-gradient-5" x1="13.3" y1="55.26" x2="25.62" y2="55.26" xlink:href="#linear-gradient"/><linearGradient id="linear-gradient-6" x1="6.88" y1="48.73" x2="20.33" y2="48.73" xlink:href="#linear-gradient"/></defs><title>invite sent - success</title><path class="cls-1" d="M6.15,8.83l4,4,4-4-4-4Zm4,2.94L7.2,8.83l2.94-2.94,2.94,2.94Z"/><path class="cls-2" d="M24.71,104a4.17,4.17,0,1,0,4.16-4.17A4.17,4.17,0,0,0,24.71,104Zm1.12,0a3.06,3.06,0,1,1,3.05,3A3.05,3.05,0,0,1,25.83,104Z"/><path class="cls-3" d="M115.26,26.51l6.57,6.12,2-8.75Zm5.93,4L117.41,27l4.94-1.52Z"/><path class="cls-4" d="M28.61,36.5,62.84,11.1a4,4,0,0,1,4.71,0L101.27,36.5Z"/><path class="cls-5" d="M29.47,36.17H100.4a2,2,0,0,1,2,2V83.34a2,2,0,0,1-2,2H29.47a2,2,0,0,1-2-2V38.17A2,2,0,0,1,29.47,36.17Z"/><g class="cls-6"><path id="path-8" class="cls-7" d="M99,37.42V16.91a1.74,1.74,0,0,0-1.74-1.74H32.4a1.74,1.74,0,0,0-1.74,1.74V37.43l6.85,5.27,1.18.9,6.42,4.94,4.64,3.57,9.93,7.65.67.52a1.72,1.72,0,0,0,2,.09,5,5,0,0,1,5.23,0,1.75,1.75,0,0,0,2-.11l.9-.7L80,52.11l4.61-3.57L91,43.59l.11-.08Z"/></g><path class="cls-8" d="M99,39.42V18.91a1.74,1.74,0,0,0-1.74-1.74H32.4a1.74,1.74,0,0,0-1.74,1.74V39.43l6.85,5.27,1.18.9,6.42,4.94,4.64,3.57,9.93,7.65.67.52a1.72,1.72,0,0,0,2,.09,5,5,0,0,1,5.23,0,1.75,1.75,0,0,0,2-.11l.9-.7L80,54.11l4.61-3.57L91,45.59l.11-.08Z"/><path class="cls-9" d="M89.37,42a1.78,1.78,0,0,1,1.78,1.78v1.71L91,45.6H39.3a1.76,1.76,0,0,1-1.08-.37A1.78,1.78,0,0,1,38,42.56,1.81,1.81,0,0,1,39.3,42Z"/><path class="cls-9" d="M80.54,53.74h0a1.77,1.77,0,0,1-1.09.37H50.36a1.83,1.83,0,0,1-1.09-.36h0a1.79,1.79,0,0,1,1.09-3.2H79.44a1.81,1.81,0,0,1,1.69,1.21A1.79,1.79,0,0,1,80.54,53.74Z"/><path class="cls-10" d="M99.77,82,68.61,63l-1-.62a5,5,0,0,0-5.23,0l-1,.64L30.67,82l29-20.27L62.24,60a5,5,0,0,1,5.95,0l2.24,1.57Z"/><path class="cls-11" d="M10.31,49.06h9.34a.68.68,0,1,1,0,1.35H10.31a.68.68,0,1,1,0-1.35Z"/><path class="cls-12" d="M14,57.07H25a.68.68,0,0,1,0,1.35H14a.68.68,0,1,1,0-1.35Z"/><path class="cls-13" d="M7.56,63.59H19.65a.68.68,0,0,1,0,1.36H7.56a.68.68,0,0,1,0-1.36Z"/><path class="cls-1" d="M62.59,38.61l-7.44-7.45L57.36,29l5.23,5.23L73.93,22.83l2.22,2.22Z"/></svg>