<svg id="Layer_1" data-name="Layer 1" xmlns="http://www.w3.org/2000/svg" xmlns:xlink="http://www.w3.org/1999/xlink" viewBox="0 0 130 113"><defs><style>.cls-1,.cls-9{fill:#fff;}.cls-2{fill:#02ccaa;}.cls-11,.cls-12,.cls-13,.cls-14,.cls-15,.cls-16,.cls-2,.cls-3,.cls-4,.cls-5,.cls-6,.cls-8,.cls-9{fill-rule:evenodd;}.cls-3{fill:#662d91;}.cls-4{fill:#fbb03b;}.cls-5{fill:url(#linear-gradient);}.cls-6{fill:url(#linear-gradient-2);}.cls-7{opacity:0.2;}.cls-10{mask:url(#mask);}.cls-11{fill:#008cff;}.cls-12{fill:#f0f8ff;}.cls-13{fill:url(#linear-gradient-3);}.cls-14{fill:url(#linear-gradient-4);}.cls-15{fill:url(#linear-gradient-5);}.cls-16{fill:url(#linear-gradient-6);}</style><linearGradient id="linear-gradient" x1="31.83" y1="85.79" x2="104.49" y2="85.79" gradientTransform="matrix(1, 0, 0, -1, 0, 113)" gradientUnits="userSpaceOnUse"><stop offset="0" stop-color="#005bea"/><stop offset="1" stop-color="#00c6fb"/></linearGradient><linearGradient id="linear-gradient-2" x1="30.7" y1="48.45" x2="105.63" y2="48.45" xlink:href="#linear-gradient"/><mask id="mask" x="-18.37" y="-5.54" width="166.8" height="144.31" maskUnits="userSpaceOnUse"><g id="mask-11"><rect x="-18.37" y="-5.54" width="166.8" height="144.31"/><rect id="rect-10" class="cls-1" x="57.69" y="26.04" width="21.65" height="21.65"/></g></mask><linearGradient id="linear-gradient-3" x1="74.31" y1="61.67" x2="54.18" y2="-56.62" xlink:href="#linear-gradient"/><linearGradient id="linear-gradient-4" x1="12.86" y1="59.47" x2="23.55" y2="59.47" xlink:href="#linear-gradient"/><linearGradient id="linear-gradient-5" x1="16.52" y1="51.46" x2="28.85" y2="51.46" xlink:href="#linear-gradient"/><linearGradient id="linear-gradient-6" x1="10.11" y1="44.94" x2="23.55" y2="44.94" xlink:href="#linear-gradient"/></defs><title>invite send</title><path class="cls-2" d="M1.93,5.73l5.89,5.89,5.91-5.89L7.82-.17Zm5.89,4.34L3.48,5.73,7.82,1.39l4.34,4.34Z"/><path class="cls-3" d="M18.93,109a4.17,4.17,0,1,0,4.16-4.17A4.17,4.17,0,0,0,18.93,109Zm1.12,0a3.06,3.06,0,1,1,3.06,3A3.06,3.06,0,0,1,20.05,109Z"/><path class="cls-4" d="M119.48,28.51l6.57,6.12,2-8.75Zm5.93,4L121.63,29l5-1.52Z"/><path class="cls-5" d="M31.83,40.3,66.07,14.9a3.92,3.92,0,0,1,4.7,0L104.49,40.3Z"/><path class="cls-6" d="M32.7,40h70.93a2,2,0,0,1,2,2V87.14a2,2,0,0,1-2,2H32.7a2,2,0,0,1-2-2V42A2,2,0,0,1,32.7,40Z"/><g class="cls-7"><path id="path-8" class="cls-8" d="M102.24,41.22V20.71A1.73,1.73,0,0,0,100.51,19H35.62a1.73,1.73,0,0,0-1.73,1.74V41.22l6.84,5.27,1.18.91,6.42,4.94L53,55.91l9.94,7.65.66.51a1.73,1.73,0,0,0,2,.1,5,5,0,0,1,5.23,0,1.74,1.74,0,0,0,2-.11l.9-.71,9.61-7.43,4.61-3.57,6.41-5,.1-.08Z"/></g><path class="cls-9" d="M102.24,43.22V22.71A1.73,1.73,0,0,0,100.51,21H35.62a1.73,1.73,0,0,0-1.73,1.74V43.22l6.84,5.27,1.18.91,6.42,4.94L53,57.91l9.94,7.65.66.51a1.73,1.73,0,0,0,2,.1,5,5,0,0,1,5.23,0,1.74,1.74,0,0,0,2-.11l.9-.71,9.61-7.43,4.61-3.57,6.41-5,.1-.08Z"/><g class="cls-10"><path class="cls-11" d="M63.5,33.57a4.39,4.39,0,1,0,8.78,0V31.36a3.13,3.13,0,0,0,1-2.29v-2H67.68a4.2,4.2,0,0,0-4.18,4.18Zm6.63-2.41H64.56a3.12,3.12,0,0,1,3.12-3h4.54v.92A2.09,2.09,0,0,1,70.13,31.16Zm1.1,2.42V32a3.15,3.15,0,0,1-1.1.2H64.56v1.36a3.34,3.34,0,0,0,6.67,0ZM60.48,46.63h9.21V45.57H61.54V43.49a4.13,4.13,0,0,1,4.13-4.13H70.3a4.12,4.12,0,0,1,3.06,1.36l.78-.71A5.17,5.17,0,0,0,70.3,38.3H65.67a5.19,5.19,0,0,0-5.19,5.19Zm12.1-5.18h.93v2.49H76v.93H73.51v2.5h-.93v-2.5h-2.5v-.93h2.5Z"/></g><path class="cls-12" d="M83.76,57.54h0a1.82,1.82,0,0,1-1.09.37H53.58a1.77,1.77,0,0,1-1.09-.37h0a1.76,1.76,0,0,1-.6-2,1.77,1.77,0,0,1,1.69-1.21h29.1a1.78,1.78,0,0,1,1.09,3.19Z"/><path class="cls-13" d="M103,85.83l-31.16-19-1-.62a5,5,0,0,0-5.23,0l-1,.64-30.67,19,29-20.27,2.55-1.78a5,5,0,0,1,6,0l2.24,1.57Z"/><path class="cls-14" d="M13.53,52.85h9.34a.68.68,0,0,1,0,1.36H13.53a.68.68,0,0,1,0-1.36Z"/><path class="cls-15" d="M17.2,60.86h11a.68.68,0,1,1,0,1.36h-11a.68.68,0,1,1,0-1.36Z"/><path class="cls-16" d="M10.78,67.39H22.87a.68.68,0,1,1,0,1.35H10.78a.68.68,0,0,1,0-1.35Z"/></svg>