<svg xmlns="http://www.w3.org/2000/svg" xmlns:xlink="http://www.w3.org/1999/xlink" width="40" height="40" viewBox="0 0 40 40">
  <defs>
    <rect id="rect-1" width="40" height="40" x="0" y="0"/>
    <mask id="mask-2" maskContentUnits="userSpaceOnUse" maskUnits="userSpaceOnUse">
      <rect width="40" height="40" x="0" y="0" fill="black"/>
      <use fill="white" xlink:href="#rect-1"/>
    </mask>
  </defs>
  <g>
    <use fill="none" xlink:href="#rect-1"/>
    <g mask="url(#mask-2)">
      <g opacity=".2">
        <ellipse cx="20" cy="20" fill="rgb(189,189,189)" rx="20" ry="20"/>
      </g>
      <path fill="rgb(189,189,189)" fill-rule="evenodd" d="M20 32.70000076c-.5 0-.79999924-.20000076-1.10000038-.5L12 24.10000038c-.70000076-.80000114-1.20000076-1.60000038-1.5-2.5C9.39999962 18.5 9.79999924 15 11.6999998 12.3000002 13.59999944 9.6000004 16.59999848 8 20 8c3.39999962 0 6.40000057 1.60000038 8.29999828 4.39999962 1.90000153 2.70000076 2.40000153 6.20000076 1.20000077 9.30000114q-.45000077 1.19999695-1.5 2.39999962l-6.90000058 8.10000038c-.29999923.29999924-.69999885.5-1.09999847.5zm0-23.60000038C17 9.10000038 14.3000002 10.5 12.60000038 13c-1.6999998 2.40000057-2 5.5-1 8.29999924.3000002.70000076.69999981 1.40000152 1.3000002 2.10000229L19.79999923 31.5c0 .10000038.10000229.10000038.20000076.10000038.10000038 0 .10000038 0 .20000076-.10000038l6.90000058-8.09999847c.59999847-.70000077 1-1.40000153 1.29999923-2.1000023 1.09999848-2.79999923.70000077-5.89999866-1-8.29999923C25.70000077 10.5 23 9.10000038 20 9.10000038zm3.60000038 13.60000038h-7.39999962V20c0-1.60000038 1.20000077-2.79999924 2.70000077-2.89999962C18.10000038 16.70000076 17.5 15.89999962 17.5 15c0-1.3000002 1-2.3000002 2.30000114-2.3000002.89999962 0 1.79999924.6000004 2.10000039 1.39999963.29999923.80000019.19999885 1.80000019-.5 2.50000095-.20000077.19999886-.40000153.39999962-.70000077.5 1.60000038 0 2.89999962 1.29999924 2.89999962 2.89999962v2.70000076zm-3.70000076-9.00000095c-.69999886 0-1.29999924.60000038-1.29999924 1.30000019 0 .5.29999924 1 .79999924 1.20000076.5.19999886 1 .09999848 1.40000152-.30000114C21.20000076 15.5 21.30000114 15 21.10000038 14.5S20.5 13.6999998 19.89999962 13.6999998zM22.69999886 20v1.70000076h-5.39999962V20c0-1 .79999923-1.89999962 1.89999962-1.89999962h1.60000038c1 0 1.89999962.79999924 1.89999962 1.89999962z"/>
    </g>
  </g>
</svg>
