<svg xmlns="http://www.w3.org/2000/svg" xmlns:xlink="http://www.w3.org/1999/xlink" width="1675.668" height="1278" viewBox="0 0 1675.668 1278">
  <defs>
    <rect id="rect-1" width="720" height="900" x="720" y="378"/>
    <mask id="mask-2" maskContentUnits="userSpaceOnUse" maskUnits="userSpaceOnUse">
      <rect width="1675.668" height="1278" x="0" y="0" fill="black"/>
      <use fill="white" xlink:href="#rect-1"/>
    </mask>
    <rect id="rect-7" width="720" height="900" x="0" y="378"/>
    <mask id="mask-8" maskContentUnits="userSpaceOnUse" maskUnits="userSpaceOnUse">
      <rect width="1675.668" height="1278" x="0" y="0" fill="black"/>
      <use fill="white" xlink:href="#rect-7"/>
    </mask>
  </defs>
  <g>
    <g>
      <g>
        <use fill="none" xlink:href="#rect-1"/>
        <g mask="url(#mask-2)"/>
      </g>
      <g>
        <g opacity=".05">
          <path fill="rgb(0,140,255)" fill-rule="evenodd" d="M1570.4323531 511.92276241l-87.80875915 197.68378868s-155.98720782 136.55240357-204.79938829-45.88601975C1229.0120252 481.282108 1142.6897475 499.2350693 1024.7645118 531.59673474c-117.92523572 32.36166545-254.4785705-183.20157705 13.53966268-343.779842C1306.32240766 27.23862778 1427.8034542 4.14016258 1427.8034542 4.14016258l142.6288989 507.78259983z"/>
        </g>
        <path fill="rgb(255,69,125)" fill-rule="evenodd" d="M1306 875.02514648l11.99743652 12.03039551L1330 875.0251465l-12.00256348-12.025177L1306 875.02514648zm11.99743652 8.01852417l-8-8.01852417 8-8.01327514 8.00524903 8.01327514-8.00524903 8.01852417z"/>
        <path fill="rgb(253,186,69)" fill-rule="evenodd" d="M865.14523601 1217.76899158l17.8354716-16.05913923-23.08319618-7.66207752 5.24772458 23.72121675zm12.05932097-14.88588544l-10.27257776 9.24947543-3.00804255-13.66992936 13.28062031 4.42045393z"/>
        <path fill="rgb(112,101,255)" fill-rule="evenodd" d="M1106.04317251 452.86869387l-20.13827253-24.86865456-11.81290737 30.20073734 31.9511799-5.33208278zm-18.97909362-17.09579054l11.59888107 14.32340168-18.41154433 3.05131771 6.81266326-17.37471939z"/>
      </g>
    </g>
    <g>
      <use fill="none" xlink:href="#rect-7"/>
      <g mask="url(#mask-8)">
        <path fill="rgb(0,255,103)" fill-rule="evenodd" d="M127.00000763 853.03704834c0 8.85702515 7.16344452 16.03704834 15.99999237 16.03704834 8.83477783-.0043335 15.99568176-7.18182373 16-16.03704834C159 844.18002319 151.83656311 837 143 837c-8.83654785 0-15.99999237 7.1800232-15.99999237 16.03704834zm4.30319977-.0131836c-.01437378-6.49145507 5.22035217-11.76751708 11.6967926-11.78915405 3.11933899-.010437 6.1144867 1.22427368 8.3238678 3.431427 2.2093811 2.20715333 3.45121765 5.20510865 3.45120239 8.33166504-.00004578 6.4914856-5.24647522 11.75585938-11.72294617 11.76306153-6.4764862.00717163-11.73452758-5.24554444-11.74891662-11.73699951z"/>
        <ellipse cx="187" cy="457" fill="rgb(255,133,56)" rx="8" ry="8"/>
        <ellipse cx="143" cy="1202" fill="rgb(0,140,255)" rx="8" ry="8"/>
        <g opacity=".05">
          <path fill="rgb(0,140,255)" fill-rule="evenodd" d="M-105.40570534 1219.13969993s52.57222904-135.36482524 81.3217144-182.92255184c28.74948535-47.5577266 144.42104413-126.37469552 189.56951058 42.41528361 45.14846645 168.78997914 125.05875072 152.1621402 234.22607906 122.19654129 109.16732834-29.96559891 235.52943634 169.45554372-12.60114462 318.08204457-248.13058097 148.62650085-360.587624 170.02210334-360.587624 170.02210334l-131.92853542-469.79342097z"/>
        </g>
      </g>
    </g>
  </g>
</svg>
