<svg xmlns="http://www.w3.org/2000/svg" xmlns:xlink="http://www.w3.org/1999/xlink" width="768" height="1024.203" viewBox="0 0 768 1024.203">
  <defs>
    <rect id="rect-1" width="768" height="1024.203" x="0" y="0"/>
    <mask id="mask-2" maskContentUnits="userSpaceOnUse" maskUnits="userSpaceOnUse">
      <rect width="768" height="1024.203" x="0" y="0" fill="black"/>
      <use fill="white" xlink:href="#rect-1"/>
    </mask>
  </defs>
  <g>
    <use fill="none" xlink:href="#rect-1"/>
    <g mask="url(#mask-2)">
      <g transform="rotate(-21.000008 385.73029057 572.91130852)">
        <g opacity=".1">
          <path fill="rgb(0,140,255)" fill-rule="evenodd" d="M984.49576907 333.9422707L818.42421833 500.42451913s-211.43368729 77.84586616-189.90589367-126.40318861c21.52779361-204.24905477-73.04072834-219.66407777-205.28288911-232.76684733-132.24216078-13.10276955-186.83049458-285.17792553 147.61915621-343.75501293 334.4496508-58.57708741 466.69181157-34.68380176 466.69181157-34.68380176l-53.05063426 571.12660222z"/>
        </g>
        <g opacity=".1">
          <path fill="rgb(0,140,255)" fill-rule="evenodd" d="M-188.32294198 827.01629047S-95.27737344 690.0312153-51.17384414 644.54484695c44.1035293-45.48636837 192.7292874-103.39576683 199.62889428 95.85234695 6.89960687 199.24811379 99.8886168 201.29013263 228.7800139 196.01978169 128.89139712-5.27035094 218.12283084 248.89419226-95.46194976 350.38662632s-443.93396131 96.39011954-443.93396131 96.39011954l-26.16209495-556.17743098z"/>
        </g>
      </g>
      <g>
        <path fill="rgb(255,69,125)" fill-rule="evenodd" d="M125.40820313 770.9489746l13.30273437 13.33862306 13.30664063-13.33862305-13.30664063-13.33300781-13.30273438 13.3330078zm13.30078124 8.890625l-8.86914062-8.890625 8.86914063-8.88476562 8.87695312 8.88476563-8.87695313 8.890625z"/>
        <path fill="rgb(0,255,103)" fill-rule="evenodd" d="M87.03125 309.80541992c0 5.35656738 4.33203125 9.69885254 9.67578125 9.69885254 5.34375-.00268555 9.67382813-4.34338379 9.67773438-9.69885254 0-5.35644531-4.33398438-9.69873047-9.67773438-9.69873047S87.03125 304.44897461 87.03125 309.80541992zm2.6015625-.00793457c-.0078125-3.92590332 3.15820313-7.11669922 7.07421875-7.12976074 1.88671875-.00634766 3.69921875.74035644 5.03515625 2.07519531 1.3359375 1.33483887 2.0859375 3.14794922 2.0859375 5.03881836 0 3.92578125-3.171875 7.10961914-7.08984375 7.1138916-3.91601563.00439453-7.09570313-3.17236328-7.10546875-7.09814453z"/>
        <path fill="rgb(253,186,69)" fill-rule="evenodd" d="M392.44540691 186.87733565l14.99787826-13.50415736-19.41018231-6.44312275 4.41230405 19.94728011zm10.14089997-12.51766291l-8.6376051 7.77733867-2.52893399-11.49530668 11.1665391 3.717968z"/>
        <path fill="rgb(112,101,255)" fill-rule="evenodd" d="M620.81455147 756.83272378l-16.74583893-20.67935484-9.82393866 25.1129249 26.56977759-4.43357006zm-15.7826773-14.21625535l9.64508207 11.91066481-15.31082459 2.53666954 5.66574252-14.44733435z"/>
        <ellipse cx="660.024" cy="310.461" fill="rgb(255,133,56)" rx="3.784" ry="3.784"/>
        <ellipse cx="401.368" cy="922.216" fill="rgb(0,140,255)" rx="3.784" ry="3.784"/>
      </g>
    </g>
  </g>
</svg>
