<svg xmlns="http://www.w3.org/2000/svg" xmlns:xlink="http://www.w3.org/1999/xlink" width="41.5" height="41.221" viewBox="0 0 41.5 41.221">
  <defs>
    <rect id="rect-2" width="24" height="24" x="8.75" y="8.611"/>
    <mask id="mask-3" maskContentUnits="userSpaceOnUse" maskUnits="userSpaceOnUse">
      <rect width="41.5" height="41.221" x="0" y="0" fill="black"/>
      <use fill="white" xlink:href="#rect-2"/>
    </mask>
  </defs>
  <g>
    <path fill="rgb(227,252,255)" fill-rule="evenodd" d="M20.6105655 0h.278869C32.26471526 0 41.5 9.23528474 41.5 20.6105655c0 11.37528076-9.23528474 20.6105655-20.6105655 20.6105655h-.278869C9.23528474 41.221131 0 31.98584626 0 20.6105655 0 9.23528474 9.23528474 0 20.6105655 0z"/>
    <g>
      <use fill="none" xlink:href="#rect-2"/>
      <g mask="url(#mask-3)">
        <path fill="rgb(92,195,208)" fill-rule="evenodd" d="M26.41062546 31.99650383H15.0893755c-.69937516 0-1.2689066-.54234505-1.2689066-1.20843697V10.43353462c0-.66656208.56953144-1.20890617 1.2689066-1.20890617h11.32124996c.69937515 0 1.26843643.5423441 1.26843643 1.20890617v20.35406304c.0004692.66656112-.56859207 1.20890617-1.26843643 1.20890617zM14.9923439 30.78478432c.02435017.02770042.06024075.0424385.0970316.0398426h11.32124996c.03680038.0026703.07272339-.01208114.09703064-.0398426V10.43869019c-.0237465-.02830124-.05974198-.04332924-.09656143-.04031277H15.0893755c-.03693009-.00285626-.07299805.01212787-.0970316.04031277v20.34609413z"/>
        <rect width="12.687" height="1.172" x="14.406" y="26.133" fill="rgb(92,195,208)" rx="0" ry="0"/>
        <path fill="rgb(92,195,208)" fill-rule="evenodd" d="M24.08140625 18.27103425h-6.6628125c-.15533009 0-.28125-.12591991-.28125-.28125s.12591991-.28125.28125-.28125h6.6628125c.15533009 0 .28125.12591991.28125.28125s-.12591991.28125-.28125.28125z"/>
        <path fill="rgb(92,195,208)" fill-rule="evenodd" d="M24.08140625 19.69322175h-6.6628125c-.15533009 0-.28125-.12591991-.28125-.28125s.12591991-.28125.28125-.28125h6.6628125c.15533009 0 .28125.12591991.28125.28125s-.12591991.28125-.28125.28125z"/>
        <path fill="rgb(92,195,208)" fill-rule="evenodd" d="M20.03890625 22.314003c-.15533009 0-.28125-.12591991-.28125-.28125v-6.66328125c0-.15533009.12591991-.28125.28125-.28125s.28125.12591991.28125.28125V22.032753c0 .15533009-.12591991.28125-.28125.28125z"/>
        <path fill="rgb(92,195,208)" fill-rule="evenodd" d="M21.46109375 22.314003c-.15533009 0-.28125-.12591991-.28125-.28125v-6.66328125c0-.15533009.12591991-.28125.28125-.28125s.28125.12591991.28125.28125V22.032753c0 .15533009-.12591991.28125-.28125.28125z"/>
        <path fill="rgb(92,195,208)" fill-rule="evenodd" d="M22.05593681 20.92603493c.50727272-.0007763.91823387-.41194535.91875077-.91921997v-2.61140633c-.0005169-.50727272-.41147805-.91844368-.91875077-.91921806H19.4440632c-.50727463.00077438-.91823387.41194534-.91875077.91921806v2.61140633c.0005169.50727462.41147614.91844368.91875077.91921997h2.61187362z"/>
        <path fill="rgb(227,252,255)" fill-rule="evenodd" d="M21.63053097 20.20127078h-1.76106194c-.34203-.00052254-.61912095-.27775488-.61946903-.61978509V17.8207398c.00034808-.3420302.27743904-.61926254.61946903-.61978508h1.76106194c.34203.00052254.61912095.27775487.61946903.61978508v1.7607459c-.00034808.3420302-.27743904.61926254-.61946903.61978508z"/>
      </g>
    </g>
  </g>
</svg>
