<svg xmlns="http://www.w3.org/2000/svg" xmlns:xlink="http://www.w3.org/1999/xlink" width="32" height="32" viewBox="0 0 32 32">
  <defs>
    <rect id="rect-2" width="16" height="16" x="8" y="8"/>
    <mask id="mask-3" maskContentUnits="userSpaceOnUse" maskUnits="userSpaceOnUse">
      <rect width="32" height="32" x="0" y="0" fill="black"/>
      <use fill="white" xlink:href="#rect-2"/>
    </mask>
  </defs>
  <g>
    <g opacity=".15">
      <ellipse cx="16" cy="16" fill="rgb(52,232,199)" rx="16" ry="16"/>
    </g>
    <g>
      <use fill="none" xlink:href="#rect-2"/>
      <g mask="url(#mask-3)">
        <path fill="rgb(52,232,199)" fill-rule="evenodd" d="M23.36572266 8.00292969c.16162109-.01660157.3227539.03515625.44384765.14257812C23.93066406 8.25390625 24 8.4091797 24 8.57128906v12c0 1.26074219-1.28173828 2.28613281-2.8569336 2.28613281-1.57568359 0-2.85742187-1.02539062-2.85742187-2.2861328 0-1.2607422 1.28173828-2.28515626 2.85742188-2.28515626.60302734-.00390625 1.19580078.15722656 1.71386718.46679688v-6.68652344l-9.14257812 1.01953125v8.62792969C13.71435547 22.97460938 12.43261719 24 10.85693359 24 9.2817383 24 8 22.97460937 8 21.71386719c0-1.25976563 1.28173828-2.28515625 2.8569336-2.28515625.60351562-.00292969 1.19628906.15917969 1.71435546.46875V9.71386719c0-.29101563.21923828-.53515625.50878907-.56738282L23.36572265 8.0029297zm-9.6513672 3.93066406l9.14306641-1.01660156V9.20996094l-9.1430664 1.01855468v1.70507813zm7.42871095 9.78125c-.92919922 0-1.71435547-.5234375-1.71435547-1.14355469 0-.61914062.78515625-1.14257812 1.71435547-1.14257812.92919922 0 1.71435547.5234375 1.71435547 1.14257812 0 .62011719-.78515626 1.14355469-1.71435547 1.14355469zm-12-.00097656c0 .62011719.78515625 1.14355469 1.71435547 1.14355469.92919921 0 1.71435546-.5234375 1.71435546-1.1435547 0-.61914062-.78515625-1.14257812-1.71435547-1.14257812-.92919921 0-1.71435546.5234375-1.71435546 1.14257813z"/>
      </g>
    </g>
  </g>
</svg>
