<svg xmlns="http://www.w3.org/2000/svg" width="40" height="40" viewBox="0 0 40 40">
  <g>
    <g opacity=".2">
      <ellipse cx="20" cy="20" fill="rgb(52,232,199)" rx="20" ry="20"/>
    </g>
    <path fill="rgb(52,232,199)" fill-rule="evenodd" d="M29.03178406 14.0102539l-.49720764.49725342c-.40626526.40625-.94644928.63000489-1.52104569.63000489-.57459259 0-1.11468887-.22375489-1.5209999-.63000489-.40626527-.40625-.62999726-.94647216-.62999726-1.52099609 0-.57452393.223732-1.1147461.62999725-1.52105713l.4972496-.49725342L23.0215149 8 8 23.02154541l2.96821976 2.96820068.4972496-.49725341c.40626526-.40625.9464531-.63000489 1.52104569-.63000489.5745964 0 1.11468887.22375489 1.5209999.63000489.40626526.40625.63000107.94647216.63000107 1.52099609 0 .57452393-.2237358 1.1147461-.63000107 1.52105713l-.4972496.49725342L16.97848511 32 32 16.97845459l-2.96821594-2.96820068zm-13.0813179 14.9727173c.3861122-.57861329.59353256-1.25811768.59353256-1.96948243 0-.95025635-.37003327-1.8435669-1.04198456-2.51550293-.67190552-.67193604-1.56529617-1.04199219-2.51549911-1.04199219-.7113762 0-1.39087677.2074585-1.96945572.5935669L9.9889984 23.0215454 23.0215149 9.98901367l1.02801514 1.02807617c-.3861084.57855225-.59353256 1.25805664-.59353256 1.96942139 0 .95025635.37003326 1.84362793 1.04198456 2.51550293.67190933.67199707 1.56529617 1.04199219 2.51549911 1.04199219.71137619 0 1.39087677-.20739746 1.96945572-.59350586l1.02806091 1.02801514-13.03251648 13.0324707-1.02801513-1.02801514zm3.07195282-12.99804688l.99450302-.99450684.99847793.99847412-.99450302.99450684-.99847793-.99847412zm2.99118423 1.00305175l-.99450302.99450684.99847794.99847412.99450302-.99450683-.99847794-.99847413zm1.99712372 1.99694825l-.99450302.99450683.99847793.99847412.99450302-.99450683-.99847793-.99847412z"/>
  </g>
</svg>
