<svg xmlns="http://www.w3.org/2000/svg" width="226" height="186.597" viewBox="0 0 226 186.597">
  <defs>
    <linearGradient id="linearGradient-3" x1="119.534" x2="147.254" y1="80.48" y2="97.76" gradientUnits="userSpaceOnUse">
      <stop offset="0" stop-color="rgb(42,211,232)"/>
      <stop offset="1" stop-color="rgb(52,232,199)"/>
    </linearGradient>
    <linearGradient id="linearGradient-6" x1="117.764" x2="154.891" y1="66.949" y2="87.972" gradientUnits="userSpaceOnUse">
      <stop offset="0" stop-color="rgb(52,232,199)"/>
      <stop offset="1" stop-color="rgb(42,211,232)"/>
    </linearGradient>
    <linearGradient id="linearGradient-8" x1="101.16" x2="111.24" y1="77.284" y2="78.332" gradientUnits="userSpaceOnUse">
      <stop offset="0" stop-color="rgb(42,211,232)"/>
      <stop offset="1" stop-color="rgb(52,232,199)"/>
    </linearGradient>
    <linearGradient id="linearGradient-10" x1="105.12" x2="112.68" y1="84.757" y2="85.805" gradientUnits="userSpaceOnUse">
      <stop offset="0" stop-color="rgb(42,211,232)"/>
      <stop offset="1" stop-color="rgb(52,232,199)"/>
    </linearGradient>
    <linearGradient id="linearGradient-12" x1="105.08" x2="110.12" y1="92.876" y2="93.924" gradientUnits="userSpaceOnUse">
      <stop offset="0" stop-color="rgb(42,211,232)"/>
      <stop offset="1" stop-color="rgb(52,232,199)"/>
    </linearGradient>
    <linearGradient id="linearGradient-14" x1=".24" x2="10.9" y1="92.86" y2="92.86" gradientUnits="userSpaceOnUse">
      <stop offset="0" stop-color="rgb(0,91,234)"/>
      <stop offset="1" stop-color="rgb(0,198,251)"/>
    </linearGradient>
    <linearGradient id="linearGradient-16" x1="106.805" x2="114.05" y1="177.581" y2="177.581" gradientUnits="userSpaceOnUse">
      <stop offset="0" stop-color="rgb(246,148,83)"/>
      <stop offset=".5" stop-color="rgb(243,117,33)"/>
      <stop offset="1" stop-color="rgb(212,98,42)"/>
    </linearGradient>
    <linearGradient id="linearGradient-19" x1="100.04" x2="108.16" y1="4.27" y2="4.27" gradientUnits="userSpaceOnUse">
      <stop offset="0" stop-color="rgb(255,231,163)"/>
      <stop offset=".5" stop-color="rgb(255,202,5)"/>
      <stop offset="1" stop-color="rgb(250,172,24)"/>
    </linearGradient>
    <linearGradient id="linearGradient-21" x1="54.101" x2="128.182" y1="160.67" y2="63.49" gradientUnits="userSpaceOnUse">
      <stop offset="0" stop-color="rgb(0,140,255)"/>
      <stop offset="1" stop-color="rgb(195,96,255)"/>
    </linearGradient>
    <linearGradient id="linearGradient-23" x1="47.481" x2="76.592" y1="115.872" y2="65.129" gradientUnits="userSpaceOnUse">
      <stop offset="0" stop-color="rgb(0,140,255)"/>
      <stop offset="1" stop-color="rgb(195,96,255)"/>
    </linearGradient>
    <linearGradient id="linearGradient-25" x1="59.13" x2="82.802" y1="110.176" y2="69.646" gradientUnits="userSpaceOnUse">
      <stop offset="0" stop-color="rgb(0,140,255)"/>
      <stop offset="1" stop-color="rgb(195,96,255)"/>
    </linearGradient>
    <linearGradient id="linearGradient-31" x1="205.091" x2="191.84" y1="170.714" y2="154.405" gradientUnits="userSpaceOnUse">
      <stop offset="0" stop-color="rgb(0,198,251)"/>
      <stop offset="1" stop-color="rgb(217,224,33)"/>
    </linearGradient>
    <linearGradient id="linearGradient-33" x1="192.284" x2="197.386" y1="160.365" y2="163.68" gradientUnits="userSpaceOnUse">
      <stop offset="0" stop-color="rgb(0,198,251)"/>
      <stop offset="1" stop-color="rgb(217,224,33)"/>
    </linearGradient>
    <linearGradient id="linearGradient-41" x1="178.802" x2="191.703" y1="26.043" y2="26.043" gradientUnits="userSpaceOnUse">
      <stop offset="0" stop-color="rgb(0,91,234)"/>
      <stop offset="1" stop-color="rgb(0,198,251)"/>
    </linearGradient>
    <linearGradient id="linearGradient-43" x1="25.03" x2="59.81" y1="153.065" y2="138.465" gradientUnits="userSpaceOnUse">
      <stop offset="0" stop-color="rgb(52,232,199)"/>
      <stop offset="1" stop-color="rgb(0,140,255)"/>
    </linearGradient>
  </defs>
  <g transform="translate(0 3.08868467)">
    <g opacity=".07">
      <path fill="rgb(140,132,243)" fill-rule="evenodd" d="M42.8328821 101.50691296c3.19623512-10.4127227 9.95498917-18.47750097 18.59863563-26.3802604 8.64364647-7.90275942 11.2169171-15.56965832 16.40426755-32.5056692 5.18735044-16.93601089 22.1079525-26.2705841 32.81028396-27.08760233 10.70233145-.81701823 21.7574294 4.3810493 27.71557471 13.37221906 7.12885588 10.73160788 12.56052926 20.58552327 25.16183226 34.58931821 12.601303 14.00379495 20.01385608 15.03455487 27.6353305 28.99937964 3.76992583 6.90565735 3.41927862 15.65767123-.1778024 22.64069837-3.59708102 6.98302714-10.11164673 12.16984438-17.4655159 14.94773693-11.15574889 4.20865965-26.31063234 4.65607485-46.27152683 8.44397098-19.96089448 3.78789613-32.20745582 14.41506315-48.26475494 13.61457027-16.05729913-.80049288-25.56038728-9.59541088-31.77611475-18.79421365-6.21572748-9.19880278-7.67862325-21.26932402-4.37020979-31.84014788z"/>
    </g>
    <g>
      <path fill="url(#linearGradient-3)" fill-rule="evenodd" d="M122.09375 68h38c1.65574507 0 3 1.34425493 3 3v26c0 1.65574507-1.34425493 3-3 3h-38c-1.65574507 0-3-1.34425493-3-3V71c0-1.65574507 1.34425493-3 3-3z"/>
      <g opacity=".2">
        <path fill="rgb(18,18,18)" fill-rule="evenodd" d="M158.95027442 68.58723958c3.75189126 0 5.43933484 4.70023175 2.54418252 7.08660579l-16.93991687 13.9629883c-1.87097076 1.54217656-4.57875893 1.51974907-6.42392833-.05320676l-14.3011529-12.19133684c-3.5377175-3.01580623-1.4050128-8.80505049 3.24370018-8.80505049h31.8771154z"/>
      </g>
      <path fill="url(#linearGradient-6)" fill-rule="evenodd" d="M160.05625617 68c2.72670661 0 3.94626587 3.42145437 1.83432327 5.1461652l-18.06074071 14.7492433c-1.86463308 1.52274636-4.54966398 1.5005443-6.38886118-.05282836l-13.05091654-11.02270988C120.82988864 73.81297438 122.9562261 68 127.61629585 68h32.43996032z"/>
      <path fill="url(#linearGradient-8)" fill-rule="evenodd" d="M101.97021484 76.52766927h14.05957032c.53547615 0 .97021484.4347387.97021484.97021484 0 .53547615-.4347387.97021485-.97021484.97021485h-14.05957032c-.53547615 0-.97021484-.4347387-.97021484-.97021485 0-.53547614.4347387-.97021484.97021484-.97021484z"/>
      <path fill="url(#linearGradient-10)" fill-rule="evenodd" d="M105.97021484 84h10.05957032C116.5652613 84 117 84.4347387 117 84.97021484c0 .53547615-.4347387.97021485-.97021484.97021485h-10.05957032c-.53547615 0-.97021484-.4347387-.97021484-.97021485S105.4347387 84 105.97021484 84z"/>
      <path fill="url(#linearGradient-12)" fill-rule="evenodd" d="M105.97021484 92.11914062h6.05957032c.53547615 0 .97021484.4347387.97021484.97021485s-.4347387.97021484-.97021484.97021484h-6.05957032c-.53547615 0-.97021484-.4347387-.97021484-.97021484 0-.53547615.4347387-.97021485.97021484-.97021485z"/>
    </g>
    <path fill="url(#linearGradient-14)" fill-rule="evenodd" d="M.23999786 92.88999176l5.32999993 5.3199997 5.32999992-5.3199997-5.32999992-5.33000183-5.32999993 5.33000183zm5.32999993 3.91000366l-3.91999996-3.91000366 3.91999996-3.91999817 3.90999984 3.91999817-3.90999984 3.91000366z"/>
    <path fill="url(#linearGradient-16)" fill-rule="evenodd" d="M106.79985046 178.8896637c.58667756 1.40841674 1.9644165 2.3243866 3.49014283 2.32032776 2.07820892-.00550843 3.76000976-1.69177247 3.76000213-3.76998902-.00000763-1.52574158-.91962433-2.90104675-2.32959747-3.48397827-1.40998077-.58293152-3.03231049-.25854492-4.10973358.82173157-1.07741547 1.08029175-1.39749146 2.70347595-.8108139 4.11190796zm.9136963-2.5081482c.4328537-1.03971863 1.45024108-1.71556091 2.57645416-1.71151733.73464965 0 1.43920898.2918396 1.95868682.81130981.51947022.51948548.81130982 1.2240448.81130982 1.95869446.00404358 1.12620545-.67179108 2.14360047-1.7115097 2.57644653-1.03971863.43286133-2.23786927.1956482-3.03422547-.600708-.79636383-.7963562-1.03356934-1.99450684-.60071564-3.03422547z"/>
    <path fill="rgb(2,204,170)" fill-rule="evenodd" d="M218.50602722 83.4303894c.58293152 1.4099884 1.9582367 2.3296051 3.48397827 2.3296051.99894715.00265504 1.95788575-.39231109 2.66519165-1.09773254.70729065-.70542907 1.10481263-1.66331482 1.10479737-2.66226196.00405883-1.52572632-.91191101-2.9034729-2.32032776-3.49015045-1.408432-.58667755-3.03161621-.2666092-4.11190796.8108139-1.08027649 1.0774231-1.40466309 2.69975281-.82173157 4.10972595zm.713974-1.4504013c0-1.5298233 1.24017334-2.76999664 2.77000427-2.76999664.73464966 0 1.43920899.2918396 1.9586792.81131744.51948548.51947021.81130982 1.22402954.81130982 1.9586792 0 1.52983093-1.24015808 2.77000427-2.76998902 2.77000427-1.52983093 0-2.77000427-1.24017334-2.77000427-2.77000427z"/>
    <path fill="url(#linearGradient-19)" fill-rule="evenodd" d="M100.04000092 7.78999329h8.12000274l-4.06000519-7-4.05999755 7zm6.3999939-1h-4.66999818l2.33999634-4 2.33000183 4z"/>
    <g>
      <g>
        <path fill="url(#linearGradient-21)" fill-rule="evenodd" d="M133.8166504 98.9887085c-.01232911 2.15301513 1.03581237 4.17417907 2.8027191 5.4045105 2.83317567 1.96161651 4.51716614 5.19389343 4.50126649 8.63985061l-.01852417 4.14978027-20.8125534-.09274292c-1.05337525 5.17518616-5.61904908 8.89970398-10.91677094 8.87580872-5.29732514-.02389526-9.82893372-3.7888794-10.83603669-8.9727478l-21.22080993-.09455872.01852417-4.14978409c.03505706-3.42598724 1.74254608-6.61851501 4.57266998-8.54959106 1.7743454-1.21383667 2.83882141-3.22218323 2.84729004-5.37197876l.08359527-20.16647339c.05435944-12.16426086 9.01181794-22.45285416 21.05278016-24.18133163l.00614166-2.22199631c.00332641-.8683548.35191345-1.6997223.9688797-2.3107872.61697388-.6110611 1.45165253-.95163346 2.3199997-.9466095 1.80384826.00799942 3.2605133 1.4752121 3.25549316 3.279068l-.01158142 2.14155578c12.31207275 1.54719162 21.5316925 12.04184341 21.4800415 24.45064163l-.09312439 20.11738587z"/>
        <path fill="url(#linearGradient-23)" fill-rule="evenodd" d="M64.06958062 97.73913893c-.62950103-.00888938-1.18742863-.4074091-1.4-1-6.06576147-15.3584109 1.42061088-32.73126424 16.75-38.87.77043722-.30651802 1.64348194.0695628 1.94999997.84.30651803.77043723-.06956276 1.64348195-.83999997 1.95-13.80374684 5.52683498-20.54097741 21.17401945-15.07 35 .1635508.37565793.16632004.80186762.00766444 1.17961906-.1586556.37775143-.46492634.67416433-.84766444.82038094-.17580028.06452518-.36310236.09176911-.55.08z" transform="rotate(-11.000004 69.13995889 77.65676448)"/>
        <path fill="url(#linearGradient-25)" fill-rule="evenodd" d="M72.79958062 95.69913893c-.60118358.00345795-1.14714368-.3500414-1.39-.9-4.8612831-12.19439023 1.07858563-26.02125871 13.27-30.89.77043722-.30651803 1.64348195.06956278 1.94999999.84.30651804.77043722-.06956276 1.64348195-.83999998 1.95-10.63172441 4.25263715-15.81606633 16.30768586-11.59 26.95.1472198.3685422.14133269.78058787-.01635602 1.14477368-.1576887.36418581-.45414812.65041668-.82364399.79522632-.17678589.07586057-.36765438.1133526-.56.11z" transform="rotate(-11.000004 76.74219809 79.65260889)"/>
      </g>
      <g>
        <g opacity=".3">
          <path fill="rgb(255,255,255)" fill-rule="evenodd" d="M133.8166504 98.9887085c-.01232911 2.15301513 1.03581237 4.17417907 2.8027191 5.4045105 2.83317567 1.96161651 4.51716614 5.19389343 4.50126649 8.63985061l-.01852417 4.14978027-20.8125534-.09274292c-1.05337525 5.17518616-5.61904908 8.89970398-10.91677094 8.87580872-5.29732514-.02389526-9.82893372-3.7888794-10.83603669-8.9727478l-21.22080993-.09455872.01852417-4.14978409c.03505706-3.42598724 1.74254608-6.61851501 4.57266998-8.54959106 1.7743454-1.21383667 2.83882141-3.22218323 2.84729004-5.37197876l.08359527-20.16647339c.05435944-12.16426086 9.01181794-22.45285416 21.05278016-24.18133163l.00614166-2.22199631c.00332641-.8683548.35191345-1.6997223.9688797-2.3107872.61697388-.6110611 1.45165253-.95163346 2.3199997-.9466095 1.80384826.00799942 3.2605133 1.4752121 3.25549316 3.279068l-.01158142 2.14155578c12.31207275 1.54719162 21.5316925 12.04184341 21.4800415 24.45064163l-.09312439 20.11738587z"/>
        </g>
        <g opacity=".3">
          <path fill="rgb(255,255,255)" fill-rule="evenodd" d="M67.99463686 98.337643c-.61963149.11138845-1.24334955-.17335168-1.5650871-.71449448-8.88484025-13.91883117-4.8509116-32.40096372 9.02550684-41.35189991.6977957-.44789282 1.62655974-.24530652 2.07445257.45248917s.24530654 1.62655973-.45248913 2.07445258C64.58145729 66.85736174 60.9536333 83.5025878 68.96221578 96.03063389c.23222484.33754907.31626788.75539968.23260563 1.15648368-.08366226.401084-.32774766.75049019-.67555433.96705028-.16025834.09688396-.33892076.15936628-.52463022.18347516z"/>
        </g>
        <g opacity=".3">
          <path fill="rgb(255,255,255)" fill-rule="evenodd" d="M75.93384102 96.1566059c-.58947833.1181057-1.19285848-.12472473-1.53618992-.61823985-7.09876774-11.0427679-3.90632303-25.74897847 7.1321006-32.85449956.69779569-.44789282 1.62655974-.24530653 2.07445258.45248916.44789284.69779569.24530655 1.62655974-.45248913 2.07445259-9.62494784 6.20313355-12.41382618 19.02591632-6.23475467 28.66632928.21483616.33368016.28767925.73927871.2023777 1.12686183-.08530157.38758312-.32169875.72512226-.65677494.9377745-.15906295.10819914-.33927083.18142177-.52872222.21483206z"/>
        </g>
      </g>
    </g>
    <g opacity=".6">
      <g opacity=".2">
        <path fill="rgb(34,181,115)" fill-rule="evenodd" d="M194.9902621 163.96952179h-7.32280664c-.65194541-.0056693-1.1774576-.53579125-1.17743295-1.1877613v-14.45970282c0-.65027825.52715469-1.17743294 1.17743295-1.17743294h9.99785165c.65027826 0 1.17743295.52715469 1.17743295 1.17743294v11.6297324c.00396372.30534504-.11515949.59943048-.3305075.81594038l-2.66471666 2.79898533c-.21597507.24939723-.5274141.39573606-.8572538.402806z"/>
      </g>
      <g opacity=".8">
        <path fill="url(#linearGradient-31)" fill-rule="evenodd" d="M197.66530711 167.10934297h-7.333135c-.65027825 0-1.17743294-.52715468-1.17743294-1.17743294v-14.45970281c0-.65027826.52715469-1.17743295 1.17743295-1.17743295h9.99785166c.65027825 0 1.17743294.52715469 1.17743294 1.17743295v11.64006076c.00066331.29968513-.11397964.58814159-.32017913.80561201l-2.67504502 2.79898533c-.21385778.24503502-.52172623.38770576-.84692546.39247765z"/>
        <path fill="url(#linearGradient-33)" fill-rule="evenodd" d="M201.50745672 163.1329247c-.0053366.2985122-.11914782.58487592-.32017913.80561201l-2.67504502 2.79898533c-.19623025.265568-.51861483.4071027-.84692546.37182093v-3.09850774c-.00279682-.24190066.09206318-.47471038.2631242-.64577141.17106103-.17106103.40387075-.26592102.64577141-.2631242l2.933254.03098508z"/>
        <g opacity=".9">
          <path fill="rgb(255,255,255)" fill-rule="evenodd" d="M190.68250048 152.7425954h2.36686595c.1876511 0 .34.15234888.34.34v.125612c0 .18765111-.1523489.34-.34.34h-2.36686595c-.18765111 0-.34-.15234889-.34-.34v-.125612c0-.18765112.15234889-.34.34-.34z"/>
        </g>
        <g opacity=".9">
          <path fill="rgb(255,255,255)" fill-rule="evenodd" d="M190.68250048 154.67399855h3.83349295c.1876511 0 .34.1523489.34.34v.12561202c0 .1876511-.1523489.34-.34.34h-3.83349295c-.18765111 0-.34-.1523489-.34-.34v-.12561202c0-.1876511.15234889-.34.34-.34z"/>
        </g>
        <g opacity=".9">
          <path fill="rgb(255,255,255)" fill-rule="evenodd" d="M190.68250048 156.60540171h6.4259111c.1876511 0 .34.1523489.34.34v.12561202c0 .1876511-.1523489.34-.34.34h-6.4259111c-.18765111 0-.34-.1523489-.34-.34v-.12561202c0-.1876511.15234889-.34.34-.34z"/>
        </g>
        <g opacity=".9">
          <path fill="rgb(255,255,255)" fill-rule="evenodd" d="M190.68250048 158.53680488h8.0681202c.1876511 0 .34.15234889.34.34v.125612c0 .18765112-.1523489.34-.34.34h-8.0681202c-.18765111 0-.34-.15234888-.34-.34v-.125612c0-.18765111.15234889-.34.34-.34z"/>
        </g>
        <g opacity=".9">
          <ellipse cx="191.179" cy="164.703" fill="rgb(255,255,255)" rx=".692" ry=".692"/>
        </g>
      </g>
    </g>
    <g opacity=".7">
      <ellipse cx="183.831" cy="26.629" fill="none" stroke="rgb(199,239,255)" stroke-dasharray="0 0 0 0" stroke-linecap="butt" stroke-linejoin="miter" stroke-width="2.5" rx="6.566" ry="6.566"/>
      <path fill="none" stroke="url(#linearGradient-41)" stroke-dasharray="0 0 0 0" stroke-linecap="round" stroke-linejoin="miter" stroke-width="2.5" d="M180.07730643 21.23402064c2.98802409-2.05552962 7.0766322-1.29959349 9.13216182 1.6884306 2.05552961 2.9880241 1.29959348 7.0766322-1.6884306 9.13216182"/>
    </g>
    <g opacity=".8">
      <g opacity=".8">
        <ellipse cx="44.31" cy="144.965" fill="url(#linearGradient-43)" rx="7.82" ry="7.82"/>
      </g>
      <path fill="none" stroke="rgb(233,236,255)" stroke-dasharray="0 0 0 0" stroke-linecap="round" stroke-linejoin="miter" stroke-width="1.5" d="M40.72999786 144.81462473l2.09 2.09c.21846758.21739043.57153243.21739043.79 0l4.29-4.28"/>
    </g>
    <g>
      <g opacity=".2">
        <path fill="rgb(41,41,41)" fill-rule="evenodd" d="M25.33750587 27.14462473h20.44078646c2.7537708 0 4.98948331 2.2357125 4.98948331 4.98948331 0 2.7537708-2.2357125 4.98948331-4.9894833 4.98948331H25.33750586c-2.7537708 0-4.98948331-2.2357125-4.98948331-4.9894833 0-2.75377081 2.2357125-4.98948332 4.9894833-4.98948332z"/>
      </g>
      <path fill="rgb(255,255,255)" fill-rule="evenodd" d="M23.75725895 28.72487165h20.44078647c2.7537708 0 4.9894833 2.2357125 4.9894833 4.9894833s-2.2357125 4.98948332-4.9894833 4.98948332H23.75725895c-2.7537708 0-4.9894833-2.23571251-4.9894833-4.98948331s2.2357125-4.98948331 4.9894833-4.98948331z"/>
      <ellipse cx="24.401" cy="33.714" fill="rgb(2,204,170)" rx="2.897" ry="2.897"/>
      <path fill="rgb(230,243,252)" fill-rule="evenodd" d="M29.97882274 31.17937553h11.56916324c.50234109 0 .91017832.40783723.91017832.91017833s-.40783723.91017832-.91017832.91017832H29.97882274c-.5023411 0-.91017833-.40783723-.91017833-.91017832 0-.5023411.40783723-.91017833.91017833-.91017833z"/>
      <path fill="rgb(230,243,252)" fill-rule="evenodd" d="M29.97882274 34.42897773h7.3538546c.50234109 0 .91017832.40783723.91017832.91017832 0 .5023411-.40783723.91017833-.91017833.91017833h-7.3538546c-.50234109 0-.91017832-.40783723-.91017832-.91017833 0-.50234109.40783723-.91017832.91017833-.91017832z"/>
    </g>
    <g>
      <g opacity=".2">
        <path fill="rgb(41,41,41)" fill-rule="evenodd" d="M20.41729553 44.14462473h15.33058985c2.0653281 0 3.74211248 1.67678438 3.74211248 3.74211248 3e-8 2.06532805-1.67678432 3.74211246-3.74211242 3.74211249h-15.3305899c-2.06532811 0-3.7421125-1.67678438-3.7421125-3.74211249 0-2.0653281 1.67678439-3.74211248 3.7421125-3.74211248z"/>
      </g>
      <path fill="rgb(255,255,255)" fill-rule="evenodd" d="M19.23211035 45.32980992H34.5627002c2.0653281 0 3.74211248 1.67678438 3.74211248 3.74211248 3e-8 2.06532805-1.67678433 3.74211245-3.74211243 3.74211248h-15.3305899c-2.0653281 0-3.74211249-1.67678438-3.74211249-3.74211248s1.67678438-3.74211248 3.74211249-3.74211248z"/>
      <ellipse cx="19.715" cy="49.072" fill="rgb(71,114,229)" rx="2.173" ry="2.173"/>
      <path fill="rgb(230,243,252)" fill-rule="evenodd" d="M23.89828319 47.17068783h8.67687242c.37675582 0 .68263375.30587793.68263375.68263375s-.30587793.68263374-.68263375.68263374H23.8982832c-.37675582 0-.68263375-.30587792-.68263375-.68263374 0-.37675582.30587793-.68263375.68263375-.68263375z"/>
      <path fill="rgb(230,243,252)" fill-rule="evenodd" d="M23.89828319 49.60788948h5.51539094c.37675582 0 .68263375.30587792.68263375.68263374 0 .37675582-.30587793.68263375-.68263375.68263375H23.8982832c-.37675582 0-.68263375-.30587793-.68263375-.68263375s.30587793-.68263374.68263375-.68263374z"/>
    </g>
  </g>
</svg>
