<svg xmlns="http://www.w3.org/2000/svg" width="56" height="56" viewBox="0 0 56 56">
  <g>
    <ellipse cx="28" cy="28" fill="rgb(140,132,243)" rx="28" ry="28"/>
    <path fill="rgb(255,255,255)" fill-rule="evenodd" d="M22.85457611 22.00476074c.66075134 1.85272217.1403656 3.92102051-1.3184967 5.24041748 1.46378326.6482544 2.4086914 2.09753418 2.4112854 3.6984253v3.85028076c0 .64483642-.2562027 1.26324463-.71222687 1.71917724-.4560318.45593262-1.07450867.7119751-1.71935272.711792h-6.48420716c-.64484024.0001831-1.26332092-.25585938-1.7193489-.711792-.45602799-.45593261-.71223069-1.07434082-.71223069-1.71917724v-3.85028076c.00291062-1.60083008.94771195-3.04992676 2.4112854-3.6984253-.12036132-.10888672-.23509979-.22381592-.34376525-.34436035-1.31956482-1.45874023-1.63045884-3.56872558-.78770447-5.34606933.84275436-1.77728272 2.67317962-2.87194825 4.6377182-2.7734375 1.9645462.09851074 3.67630005 1.37072753 4.33704376 3.2234497zm18.11384583-1.91229248H29.6210556c-.64543152 0-1.26437378.2565918-1.72047424.71325684-.45610046.45672607-.7119217 1.07598877-.71110535 1.7213745v1.62109376c0 .64489746.25617981 1.2633667.71219635 1.71936035.45600891.45599365 1.07448578.71221924 1.71938324.71221924h11.34736634c.64489746 0 1.26337432-.25622559 1.71938324-.71221924.45601654-.45599365.71219635-1.07446289.71219635-1.71936035V22.5270996c.0006485-.6453247-.25522614-1.26452637-.71128083-1.7211914-.45606994-.45660401-1.07492065-.71325684-1.72029876-.71343995zm-22.69166565.31427002c1.79056549 0 3.2421112 1.45153809 3.2421112 3.24212647 0 1.79052734-1.45154571 3.24206543-3.2421112 3.24206543-1.7905655 0-3.24210358-1.45153809-3.24210358-3.24206543 0-1.78936768 1.44966888-3.24041748 3.23902893-3.24212647h.00307465zm23.50218963 3.73840332c0 .21496582-.08539581.42108154-.23739624.57312012-.15200805.15197754-.35816955.23736572-.57313537.23736572H29.62104797c-.21496582 0-.42111969-.08538818-.57312774-.23736572-.15200043-.15203858-.23739624-.3581543-.23739624-.57312012v-1.61798096c0-.21496582.08539581-.42114257.23739624-.57312011.15200805-.15203858.35816192-.23742676.57312774-.23742676h11.34736634c.21496582 0 .42112732.08538818.57313537.23742676.15200043.15197754.23739624.3581543.23739624.57312011v1.61798096zM21.5188675 35.60748291c.44750214-.00030518.8101883-.36297607.81052399-.81048584l-.00307465-3.85339355c0-.64489747-.2561798-1.2633667-.71219635-1.71936036-.4560089-.45605468-1.07448578-.71221923-1.71938324-.71221923h-3.24210357c-.64489746 0-1.26337815.25616455-1.71938706.71221923-.4560089.45599366-.71219253 1.0744629-.71219253 1.71936036v3.85339355c.0003395.44750977.36302566.81018066.8105278.81048584h6.48728561zm8.10218811-6.08203125h11.34736634c.64489746 0 1.26337432.25616455 1.71938324.71221924.45601654.45599365.71219635 1.07446289.71219635 1.71936035v1.62103271c-.00034333 1.3427124-1.0888977 2.43096924-2.4315796 2.43096924H29.6210556c-.64483642.0001831-1.26332092-.25585937-1.71935272-.71179199-.45602417-.45587158-.71222687-1.07434082-.71222687-1.71917725v-1.62103271c0-.64489746.25617981-1.2633667.71219635-1.71936035.45600891-.45605469 1.07448578-.71221924 1.71938324-.71221924zM41.77894592 33.578125c-.00034332.44750977-.36302948.81018066-.81053161.81054688H29.62104797c-.44750213-.00036622-.81018829-.36303711-.81052398-.81054688v-1.62103271c0-.21496583.08539581-.42114258.23739624-.57312012.15200805-.15203858.35816192-.23742676.57312774-.23742676h11.34736634c.21496582 0 .42112732.08538818.57313537.23742676.15200043.15197754.23739624.3581543.23739624.57312012V33.578125z"/>
  </g>
</svg>
