<?xml version="1.0" encoding="utf-8"?>
<!-- Generator: Adobe Illustrator 23.1.0, SVG Export Plug-In . SVG Version: 6.00 Build 0)  -->
<svg version="1.1" id="Layer_1" xmlns="http://www.w3.org/2000/svg" xmlns:xlink="http://www.w3.org/1999/xlink" x="0px" y="0px"
	 viewBox="0 0 32 32" style="enable-background:new 0 0 32 32;" xml:space="preserve">
<style type="text/css">
	.st0{opacity:0.15;}
	.st1{fill:#34E8C7;}
	.st2{fill-rule:evenodd;clip-rule:evenodd;fill:#34E8C7;}
</style>
<g>
	<g class="st0">
		<ellipse class="st1" cx="16" cy="16" rx="16" ry="16"/>
	</g>
	<g>
		<g>
			<path class="st1" d="M14.2,25.5c-0.4,0-0.8-0.3-0.8-0.7L13,22.6c-0.4-0.2-0.9-0.4-1.2-0.7l-2.1,0.8c-0.4,0.2-0.9,0-1.1-0.4
				l-1.8-3.1c-0.2-0.4-0.1-0.8,0.2-1.1l1.8-1.4l0,0c-0.1-0.5-0.1-1,0-1.4l-1.7-1.4c-0.3-0.3-0.4-0.7-0.2-1.1l1.8-3.1
				c0.2-0.4,0.6-0.5,1-0.4l2.1,0.8l0,0c0.4-0.3,0.8-0.5,1.2-0.7l0,0l0.3-2.2c0.1-0.4,0.4-0.7,0.8-0.7h3.6c0.4,0,0.8,0.3,0.8,0.7
				L19,9.4c0.4,0.2,0.9,0.4,1.2,0.7l0,0l2.1-0.8c0.4-0.2,0.9,0,1.1,0.4l1.8,3.1c0.2,0.4,0.1,0.8-0.2,1.1l-1.8,1.4c0,0.2,0,0.5,0,0.7
				c0,0.2,0,0.5,0,0.7l1.7,1.4c0.3,0.3,0.4,0.7,0.2,1.1l-1.8,3.2c-0.2,0.3-0.4,0.4-0.7,0.4c-0.2,0-0.2,0-0.3-0.1l-2.1-0.8l0,0
				c-0.4,0.3-0.8,0.5-1.2,0.7l0,0l-0.3,2.2c-0.1,0.4-0.5,0.7-0.8,0.7H14.2C14.2,25.5,14.2,25.5,14.2,25.5z M14.2,24.5
				C14.2,24.5,14.2,24.5,14.2,24.5L14.2,24.5C14.2,24.5,14.2,24.5,14.2,24.5z M11.9,20.7l0.4,0.3c0.3,0.2,0.7,0.5,1.1,0.6l0.5,0.2
				l0.4,2.6h3.4l0.4-2.6l0.5-0.2c0.4-0.2,0.7-0.4,1.1-0.6l0.4-0.3l2.4,1l1.7-2.9l-2.1-1.6l0.1-0.6c0-0.2,0-0.4,0-0.6
				c0-0.2,0-0.4,0-0.6l-0.1-0.6l2.1-1.6l-1.7-2.9l-2.4,1l-0.4-0.3c-0.3-0.2-0.7-0.4-1.1-0.6l-0.5-0.2l-0.4-2.6h-3.4l-0.4,2.6
				l-0.5,0.2c-0.4,0.2-0.7,0.4-1.1,0.6l-0.4,0.3l-2.4-1l-1.7,2.9l2.1,1.6l-0.1,0.6c0,0.4,0,0.8,0,1.2l0.1,0.6l-2.1,1.6l1.7,2.9
				L11.9,20.7z M17.8,24.5C17.8,24.5,17.8,24.5,17.8,24.5L17.8,24.5C17.8,24.5,17.8,24.5,17.8,24.5z M22.4,21.8
				C22.4,21.8,22.4,21.8,22.4,21.8L22.4,21.8z M9.5,21.8L9.5,21.8C9.6,21.8,9.5,21.8,9.5,21.8z M22.5,10.2
				C22.5,10.2,22.5,10.2,22.5,10.2L22.5,10.2z M9.6,10.2L9.6,10.2C9.6,10.2,9.6,10.2,9.6,10.2z M14.2,7.5L14.2,7.5
				C14.2,7.5,14.2,7.5,14.2,7.5z M17.8,7.5C17.8,7.5,17.8,7.5,17.8,7.5L17.8,7.5z"/>
		</g>
		<g>
			<path class="st2" d="M16.9,16.5h-1.7c-1.1,0-1.9,0.9-1.9,1.9v1.2h5.5v-1.2C18.8,17.4,17.9,16.5,16.9,16.5z"/>
			<path class="st2" d="M17.6,14v0.8c0,0.9-0.7,1.6-1.6,1.6c-0.9,0-1.6-0.7-1.6-1.6v-0.8c0-0.8,0.7-1.5,1.5-1.5H18v0.7
				C18,13.5,17.8,13.8,17.6,14z"/>
		</g>
	</g>
</g>
</svg>
