<svg xmlns="http://www.w3.org/2000/svg" xmlns:xlink="http://www.w3.org/1999/xlink" width="32" height="32" viewBox="0 0 32 32">
  <defs>
    <rect id="rect-2" width="16" height="16" x="8" y="8"/>
    <mask id="mask-3" maskContentUnits="userSpaceOnUse" maskUnits="userSpaceOnUse">
      <rect width="32" height="32" x="0" y="0" fill="black"/>
      <use fill="white" xlink:href="#rect-2"/>
    </mask>
  </defs>
  <g>
    <g opacity=".15">
      <ellipse cx="16" cy="16" fill="rgb(52,232,199)" rx="16" ry="16"/>
    </g>
    <g>
      <use fill="none" xlink:href="#rect-2"/>
      <g mask="url(#mask-3)">
        <path fill="rgb(52,232,199)" fill-rule="evenodd" d="M22.2055664 11.1328125c.50146485 0 .9428711.19726563 1.26220704.53222656C23.80224609 11.984375 24 12.42578125 24 12.92773438v7.57421874c0 .48632813-.21289063.94238282-.53222656 1.26171876-.31933594.33496093-.76074219.53222656-1.26220703.53222656H9.79443359c-.48632812 0-.94287109-.21289063-1.26220703-.53222656C8.19775391 21.44433594 8 21.00390624 8 20.50195311v-7.57421874c0-.4873047.21289063-.94335938.53222656-1.26269532.31933594-.33496093.76074219-.53222656 1.26220703-.53222656h2.50976563v-.03027344c0-.38085937.15185547-.73046875.41064453-.98828125.25830078-.25878906.60839844-.41113281 1.00390625-.41113281h4.5625c.3803711 0 .72998047.15234375.98876953.41113281.25830078.24316407.41064453.60742188.41064453.98828125v.03027344h2.52490235zm.98828126 9.36914063h.01513672v-7.57421876c0-.2734375-.10644532-.51757812-.28857422-.7001953-.1826172-.18164063-.42626953-.28808595-.69970703-.28808595h-2.93554688c-.22802734 0-.41064453-.18261718-.41064453-.4111328v-.44140626c0-.16699218-.06054688-.31933593-.16699219-.42578125-.1069336-.10644531-.25878906-.16699218-.42626953-.16699218h-4.54736328c-.16748047 0-.31933594.06054687-.42578125.16699218-.10644531.10644532-.16748047.25878907-.16748047.42578125v.44140625c0 .22851563-.18261719.41113282-.41064453.41113282h-2.9350586c-.27392578 0-.51708984.1064453-.69970703.28808593-.18261718.18261719-.2890625.42675782-.2890625.70019532v7.57421874c0 .2734375.10644532.51660157.2890625.69921876.1826172.18261718.42578125.2890625.69970703.2890625h12.41064454c.2734375 0 .51708984-.10644532.69921875-.2890625.18261718-.1826172.2890625-.42578126.2890625-.69921876z"/>
        <path fill="rgb(52,232,199)" fill-rule="evenodd" d="M13.3540039 14.06835938C14.02294923 13.39941405 14.96582032 12.9736328 16 12.9736328c1.03466797 0 1.97753906.42578125 2.64648438 1.09472657.66943359.66992187 1.09521484 1.61230468 1.09521484 2.64648437s-.41064453 1.96191406-1.09521485 2.64648438c-.6689453.6689453-1.6118164 1.09472656-2.64648437 1.09472656-1.03417969 0-1.96191406-.41015625-2.6459961-1.09472656-.66943359-.66894532-1.09521484-1.6123047-1.09521484-2.64648438 0-1.03417969.41064453-1.96191406 1.09521485-2.64648438zM16 19.64941406c.80615234 0 1.53613281-.33398437 2.06884766-.8515625.53222656-.53222656.86669922-1.26171875.8515625-2.06835937 0-.80566406-.31933594-1.53613281-.8515625-2.06835938-.53271485-.51660156-1.26269532-.8515625-2.06884766-.8515625-.80566406 0-1.53613281.31933594-2.06835938.8515625-.51708984.53222657-.8515625 1.26269532-.8515625 2.06835938 0 .80664062.31933594 1.53613281.8515625 2.06835937.53222657.51757813 1.26269532.8515625 2.06835938.8515625z"/>
        <ellipse cx="21.414" cy="13.703" fill="rgb(52,232,199)" rx=".745" ry=".745"/>
      </g>
    </g>
  </g>
</svg>
