<svg xmlns="http://www.w3.org/2000/svg" xmlns:xlink="http://www.w3.org/1999/xlink" width="58.065" height="58.065" viewBox="0 0 58.065 58.065">
  <defs>
    <rect id="rect-1" width="58.065" height="58.065" x="0" y="0"/>
    <mask id="mask-2" maskContentUnits="userSpaceOnUse" maskUnits="userSpaceOnUse">
      <rect width="58.065" height="58.065" x="0" y="0" fill="black"/>
      <use fill="white" xlink:href="#rect-1"/>
    </mask>
  </defs>
  <g>
    <use fill="none" xlink:href="#rect-1"/>
    <g mask="url(#mask-2)">
      <path fill="rgb(72,72,72)" fill-rule="evenodd" d="M27.03003337 20.02224694h4.00444939v32.0355951c0 1.10572109-.89650362 2.0022247-2.0022247 2.0022247-1.10572107 0-2.00222469-.89650361-2.00222469-2.0022247v-32.0355951z"/>
      <path fill="rgb(253,186,69)" fill-rule="evenodd" d="M41.04560623 12.01334816c0 6.63481327-5.3785349 12.01334817-12.01334817 12.01334817-6.63481326 0-12.01334816-5.3785349-12.01334816-12.01334817C17.0189099 5.3785349 22.3974448 0 29.03225806 0c6.63481327 0 12.01334817 5.3785349 12.01334817 12.01334816z"/>
      <path fill="rgb(255,212,138)" fill-rule="evenodd" d="M26.87335929 6.92944939c0 1.61549852-1.30950148 2.925-2.925 2.925-1.61549853 0-2.925-1.30950148-2.925-2.925 0-1.61549853 1.30950147-2.925 2.925-2.925 1.61549852 0 2.925 1.30950147 2.925 2.925z"/>
    </g>
  </g>
</svg>
