<svg xmlns="http://www.w3.org/2000/svg" xmlns:xlink="http://www.w3.org/1999/xlink" width="56" height="55.309" viewBox="0 0 56 55.309">
  <defs>
    <rect id="rect-2" width="36" height="36" x="10" y="9.654"/>
    <mask id="mask-3" maskContentUnits="userSpaceOnUse" maskUnits="userSpaceOnUse">
      <rect width="56" height="55.309" x="0" y="0" fill="black"/>
      <use fill="white" xlink:href="#rect-2"/>
    </mask>
    <path id="path-5" fill-rule="evenodd" d="M28.143 27.09898765c-2.48266667.08066667-4.51933333-1.956-4.43866667-4.43866666.07333334-2.252 1.9-4.08 4.15333334-4.153 2.48233333-.081 4.51933333 1.956 4.43833333 4.43833333-.073 2.25233333-1.901 4.08-4.153 4.15333333z"/>
    <mask id="mask-6" x="0" y="0" maskContentUnits="userSpaceOnUse" maskUnits="userSpaceOnUse">
      <rect width="56" height="55.309" x="0" y="0" fill="black"/>
      <use fill="white" xlink:href="#path-5"/>
    </mask>
  </defs>
  <g>
    <path fill="rgb(219,228,255)" fill-rule="evenodd" d="M27.65432099 0h.69135802C43.60851426 0 56 12.39148574 56 27.65432099c2.3e-7 15.26283483-12.39148533 27.65432076-27.65432058 27.65432099H27.654321C12.39148574 55.30864198 0 42.91715623 0 27.65432098-2.3e-7 12.39148616 12.39148533 2.4e-7 27.65432058 0z"/>
    <g>
      <use fill="none" xlink:href="#rect-2"/>
      <g mask="url(#mask-3)">
        <path fill="rgb(71,114,229)" fill-rule="evenodd" d="M27.2140007 40.24932003c.1960125.23051071.48341751.3632431.7859993.36299896.30291367.00044632.59070587-.1322937.78700066-.36299896l8.83333492-10.37633133.01033401-.01166916c.77199936-.89500046 1.34233094-1.83100128 1.69433213-2.78133392 1.39333343-3.68166447.86566543-7.84266567-1.4066658-11.13099766C35.63733386 12.64765453 32.02200031 10.7543211 28 10.7543211c-4.02199936 0-7.63733292 1.89333343-9.91799927 5.19466686-2.27200031 3.28966713-2.79866695 7.44600105-1.40933418 11.12299824.3540001.95433426.92466736 1.89366913 1.69600105 2.78766632l8.8453331 10.38966751zm-8.03566742-23.54233265C21.20666695 13.77132034 24.42200088 12.08765411 28 12.08765411c3.57800102 0 6.79300022 1.68366623 8.81966877 4.6186676 2.02399826 2.92866517 2.49333572 6.63066483 1.25566483 9.90333176v.0043335c-.29533387.79999828-.7816658 1.59500027-1.44599915 2.36666775-.008667.00933456-.01666641.019001-.02466583.02866745L28 39.11565304 19.38033485 28.9933195l-.00300026-.00333023c-.66800117-.77433395-1.15699958-1.57600403-1.45700073-2.38333416v-.0043335c-1.23566627-3.26766777-.76533317-6.96700096 1.25799942-9.89533424z"/>
        <use fill-opacity="0" stroke="rgb(71,114,229)" stroke-linecap="butt" stroke-linejoin="miter" stroke-width="2" mask="url(#mask-6)" xlink:href="#path-5"/>
        <path fill="rgb(71,114,229)" fill-rule="evenodd" d="M28.35966667 44.55432099c-2.831 0-5.5-.284-7.51633334-.8-2.353-.6-3.54633333-1.45166667-3.54633333-2.526 0-.79266667.65133333-1.46666667 1.93633333-2.00266667 1.023-.427 2.459-.77466667 4.15266667-1.00566667.36487612-.04970562.70096103.20579055.75066666.57066667.04970562.36487612-.20579054.70096103-.57066666.75066667-1.58066667.21533333-2.9.53333333-3.81933333.91466666-.92666667.38666667-1.11633334.70766667-1.11633334.77233334 0 .116.45266667.7 2.54333334 1.23333333 1.91133333.48866667 4.46333333.758 7.186.758 2.72266666 0 5.27366666-.268 7.186-.75666667C37.63633333 41.92965432 38.089 41.34465432 38.089 41.22965432c0-.076-.23333333-.44766667-1.376-.87466667-1.10366667-.41266666-2.65566667-.73333333-4.48833333-.924-.2387123-.0225922-.44690365-.17163748-.54522639-.39033043-.09832273-.21869296-.07162887-.4733409.0699078-.66689022.14153667-.19354932.37611046-.29618107.61431859-.26877935 1.943.20333334 3.60866666.54933334 4.81633333 1 1.488.55633334 2.24233333 1.271 2.24233333 2.12366667 0 1.07433333-1.193 1.92433333-3.54633333 2.526-2.016.51566667-4.68533333.79966667-7.51633333.79966667z"/>
      </g>
    </g>
  </g>
</svg>
