<?xml version="1.0" encoding="utf-8"?>
<!-- Generator: Adobe Illustrator 23.1.0, SVG Export Plug-In . SVG Version: 6.00 Build 0)  -->
<svg version="1.1" id="Layer_1" xmlns="http://www.w3.org/2000/svg" xmlns:xlink="http://www.w3.org/1999/xlink" x="0px" y="0px"
	 viewBox="0 0 32 32" style="enable-background:new 0 0 32 32;" xml:space="preserve">
<style type="text/css">
	.st0{opacity:0.15;}
	.st1{fill:#34E8C7;}
	.st2{fill-rule:evenodd;clip-rule:evenodd;fill:#34E8C7;}
</style>
<g>
	<g class="st0">
		<ellipse class="st1" cx="16" cy="16" rx="16" ry="16"/>
	</g>
	<g>
		<path class="st2" d="M8.9,23.1C10.8,25,13.3,26,16,26s5.2-1,7.1-2.9C25,21.2,26,18.7,26,16s-1-5.2-2.9-7.1C21.2,7,18.7,6,16,6
			s-5.2,1-7.1,2.9C7,10.8,6,13.3,6,16S7,21.2,8.9,23.1z M7,16c0-5,4-9,9-9s9,4,9,9s-4,9-9,9S7,21,7,16z"/>
		<g>
			<path class="st2" d="M12.9,17c0,1.4,0.7,2.1,2.1,2.1c0,0.5,0.1,1,0.1,1.4c0.1,0.5,0.5,0.8,0.8,0.5c0.9-0.5,1.7-1.1,2.5-1.7
				c0.4-0.3,0.4-1.4,0.4-1.6c-0.1-0.4,0.1-0.6,0.3-0.9c1.3-1.4,2-3.2,2-5.1c0-0.6-0.2-0.9-0.8-0.9c-1.8,0-3.5,0.5-4.9,1.7
				c-0.5,0.4-0.9,0.6-1.6,0.5c-0.6-0.1-1.1,0.1-1.4,0.6c-0.5,0.7-0.9,1.4-1.4,2c-0.3,0.5-0.1,1,0.5,1.1C12,16.9,12.5,16.9,12.9,17z
				 M20.3,11.6c0,0,0.1,0,0.1,0c0,1.9-0.5,3.5-1.8,4.8c-0.3,0.3-0.5,0.7-0.4,1.2c0,0.2,0.1,0.4,0,0.7c0,0.2-0.1,0.5-0.3,0.7
				c-0.6,0.5-1.3,0.9-2,1.4c-0.1-0.6-0.1-1.1-0.1-1.7c0-0.5-0.2-0.6-0.6-0.4c-0.4,0.1-0.8,0.1-1.1-0.3s-0.4-0.7-0.2-1.1
				c0.1-0.5,0.1-0.6-0.4-0.6c-0.5,0-1.1-0.1-1.7-0.1c0.5-0.7,0.9-1.4,1.4-2c0.1-0.2,0.7-0.3,1-0.3c0.7,0,1.1-0.1,1.6-0.6
				c1.2-1.2,2.7-1.7,4.4-1.7C20.1,11.6,20.2,11.6,20.3,11.6z"/>
			<ellipse class="st1" cx="17.7" cy="14.3" rx="0.8" ry="0.8"/>
			<path class="st2" d="M11.7,20.3c-0.1-0.1-0.1-0.2,0-0.3l1.1-1.1c0.1-0.1,0.2-0.1,0.3,0s0.1,0.2,0,0.3L12,20.3
				C11.9,20.4,11.8,20.4,11.7,20.3z"/>
			<path class="st2" d="M12.9,20.4c-0.1-0.1-0.1-0.2,0-0.3l0.5-0.5c0.1-0.1,0.2-0.1,0.3,0s0.1,0.2,0,0.3l-0.5,0.5
				C13.1,20.4,13,20.4,12.9,20.4z"/>
			<path class="st2" d="M11.7,19.1c-0.1-0.1-0.1-0.2,0-0.3l0.5-0.5c0.1-0.1,0.2-0.1,0.3,0s0.1,0.2,0,0.3L12,19.1
				C11.9,19.2,11.8,19.2,11.7,19.1z"/>
		</g>
	</g>
</g>
</svg>
