<?xml version="1.0" encoding="utf-8"?>
<!-- Generator: Adobe Illustrator 23.1.0, SVG Export Plug-In . SVG Version: 6.00 Build 0)  -->
<svg version="1.1" id="Layer_1" xmlns="http://www.w3.org/2000/svg" xmlns:xlink="http://www.w3.org/1999/xlink" x="0px" y="0px"
	 viewBox="0 0 64 64" style="enable-background:new 0 0 64 64;" xml:space="preserve">
<style type="text/css">
	.st0{filter:url(#Adobe_OpacityMaskFilter);}
	.st1{fill:#FFFFFF;}
	.st2{mask:url(#mask-2_1_);}
	.st3{fill-rule:evenodd;clip-rule:evenodd;fill:#FFECF1;}
	.st4{fill:#DF6187;}
	.st5{fill-rule:evenodd;clip-rule:evenodd;fill:#DF6187;}
</style>
<g>
	<defs>
		<filter id="Adobe_OpacityMaskFilter" filterUnits="userSpaceOnUse" x="3" y="3" width="58" height="58">
			<feColorMatrix  type="matrix" values="1 0 0 0 0  0 1 0 0 0  0 0 1 0 0  0 0 0 1 0"/>
		</filter>
	</defs>
	<mask maskUnits="userSpaceOnUse" x="3" y="3" width="58" height="58" id="mask-2_1_">
		<rect class="st0" width="64" height="64"/>
		<g>
			<rect id="rect-1_1_" class="st1" width="64" height="64"/>
		</g>
	</mask>
	<g class="st2">
		<path class="st3" d="M3,32C3,16,16,3,32,3c16,0,29,13,29,29c0,16-13,29-29,29C16,61,3,48,3,32z"/>
		<g>
			<g>
				<path class="st4" d="M32,49c-9.4,0-17-7.6-17-17s7.6-17,17-17s17,7.6,17,17S41.4,49,32,49z M32,17.5c-8,0-14.5,6.5-14.5,14.5
					c0,8,6.5,14.5,14.5,14.5c8,0,14.5-6.5,14.5-14.5C46.5,24,40,17.5,32,17.5z"/>
			</g>
			<path class="st5" d="M30.9,37.2c0,0-0.9,0-1.5-0.3c0,0-0.7-0.3-1.1-0.9c0,0-0.4-0.6-0.4-1.3c0,0,0-0.7,0.4-1.2
				c0,0,0.4-0.5,0.9-0.8v-0.1c0,0-0.4-0.3-0.7-0.7c0,0-0.3-0.4-0.3-1c0,0,0-0.6,0.3-1.2c0,0,0.3-0.5,1-0.8c0,0,0.6-0.3,1.4-0.3
				c0,0,0.8,0,1.4,0.3c0,0,0.6,0.3,1,0.8c0,0,0.4,0.5,0.4,1.2c0,0,0,0.5-0.3,1c0,0-0.3,0.4-0.7,0.7v0.1c0,0,0.5,0.3,0.9,0.8
				c0,0,0.4,0.5,0.4,1.2c0,0,0,0.7-0.4,1.3c0,0-0.4,0.6-1.1,0.9C32.4,36.9,31.7,37.2,30.9,37.2z M24.7,30.9l-1.2,0.9l-0.8-1.2
				l2.4-1.7h1.2V37h-1.6C24.7,37,24.7,30.9,24.7,30.9z M30.9,32.1c0,0,0.5,0,0.8-0.3c0,0,0.3-0.3,0.3-0.7c0,0,0-0.5-0.3-0.7
				c0,0-0.3-0.3-0.8-0.3c0,0-0.5,0-0.9,0.3c0,0-0.3,0.3-0.3,0.7c0,0,0,0.5,0.3,0.7C30,31.8,30.4,32.1,30.9,32.1z M38.6,34.5h2v-1.4
				h-2v-2h-1.4v2h-2v1.4h2v2h1.4V34.5z M30.9,35.8c0,0,0.6,0,1-0.3c0,0,0.4-0.3,0.4-0.9c0,0,0-0.5-0.4-0.8c0,0-0.4-0.3-1-0.3
				c0,0-0.6,0-1,0.3c0,0-0.4,0.3-0.4,0.8c0,0,0,0.5,0.4,0.9C29.9,35.5,30.3,35.8,30.9,35.8z"/>
		</g>
	</g>
</g>
</svg>
