<svg xmlns="http://www.w3.org/2000/svg" xmlns:xlink="http://www.w3.org/1999/xlink" width="290" height="290" viewBox="0 0 290 290">
  <defs>
    <path id="path-1" fill-rule="evenodd" d="M36 20h218c8.8306404 0 16 7.1693596 16 16v218c0 8.8306404-7.1693596 16-16 16H36c-8.8306404 0-16-7.1693596-16-16V36c0-8.8306404 7.1693596-16 16-16z"/>
    <filter id="filter-2" width="200%" height="200%" x="-50%" y="-50%" color-interpolation-filters="sRGB" filterUnits="userSpaceOnUse">
      <feOffset dx="0" dy="0" in="SourceAlpha" result="shadow-1-feOffset-shadow"/>
      <feGaussianBlur in="shadow-1-feOffset-shadow" result="shadow-1-feGaussianBlur-shadow" stdDeviation="12.048"/>
      <feColorMatrix in="shadow-1-feGaussianBlur-shadow" result="shadow-1-feColorMatrix-shadow" type="matrix" values="0 0 0 0 0.39215686274509803  0 0 0 0 0.39215686274509803  0 0 0 0 0.39215686274509803  0 0 0 0.2 0"/>
    </filter>
  </defs>
  <g>
    <g>
      <use fill="black" stroke="black" stroke-opacity="0" stroke-width="0" filter="url(#filter-2)" xlink:href="#path-1"/>
      <use fill="rgb(255,255,255)" xlink:href="#path-1"/>
    </g>
    <g>
      <path fill="rgb(66,66,66)" fill-rule="evenodd" d="M205.95370483 149.00344849v8.03245544h-24.10760498v24.40907288h7.72076416v-7.97113037h16.1722107v-7.8842926h8.1755371v7.69522094h8.03247071v24.39375305H230v15.9831543h-7.86895752v-7.62365723h-8.02224731v7.66455078h-8.17553711v-7.5828247h-8.02224732v7.5112915h-8.1755371v-7.55725098h-7.9966736v7.81274414h-16.36639403V197.8522644h-7.93026734v-8.13467407h15.6867981v-16.38171387h-7.76675415v-8.18063354h7.74630737v-7.91494751h-15.96783447l.10586548-8.11932373h15.91308593v-8.31860352h-7.79742431v-7.89961242h7.92004394v-7.93026734h24.52661133v15.90742493l16.11090088.13615417v7.98738099h-7.96603394zm7.96603394 0h.1072998l-.1072998.11752319v-.1175232zm0-7.98736573l.1072998.00090027-.1072998-.12263489v.12173462zm-48.55755615-8.11332702h-.11242676l.11242676-.1175232v.1175232zm-8.11566162 16.21821594h-.11096192l.11242676-.1124115-.00146484.1124115zm8.11566162 24.21490478v.1175232l-.11242676-.1175232h.11242676zm.01022339 40.55065918v.11242676l-.1175232-.11242676h.1175232zm16.42260742-72.88999939v7.78720093h15.90652466v-7.78720093h-15.90652466zm-.06130982 48.80282593h7.95071411v-8.24195862h24.00540162v15.93716431H181.7337036v-7.69520569z"/>
      <path fill="rgb(66,66,66)" fill-rule="evenodd" d="M116.42141724 60.0178833H60.13796997v56.27832031h56.28344727v-56.2783203zm-8.1857605 8.2572937v40.04989624H68.1857605V68.275177h40.04989624z"/>
      <path fill="rgb(66,66,66)" fill-rule="evenodd" d="M116.45205688 229.96679688V173.6833496H60.17883301v56.28344727h56.27322387zm-48.19476318-8.2215271v-40.05500794h40.04989624v40.05500794H68.2572937z"/>
      <path fill="rgb(66,66,66)" fill-rule="evenodd" d="M230 60.0127716h-56.29367065v56.27833558H230V60.0127716zm-48.1487732 8.2215271h40.05499268v40.05500794h-40.05499267V68.23429871z"/>
      <path fill="rgb(66,66,66)" fill-rule="evenodd" d="M157.2684021 84.12548828v.1124115h-.1175232l.1175232-.1124115zm-32.6152649 40.42289734V92.41854858h32.6152649v-8.1806488h7.77697754v16.02915955h-15.77877808v16.09046936h-8.1755371v-7.54704285h-8.17553712v15.73789978h-8.26239013zm0 0h-.12774658l.12774659.1072998v-.1072998z"/>
      <path fill="rgb(66,66,66)" fill-rule="evenodd" d="M132.8031311 157.11767578v.1124115h-7.99157714l-.00003052-.10731506-.12261963.1072998h.12261963l.00003052 24.36309815h7.98135375v7.71566772h16.4430542v-7.89450073h16.01382447l-.00003052-7.95071411h.11242676l-.11242676-.12774659v.12774659h-16.09555054v-8.22151184H132.8031311v-8.01202393h.11242676l-.11242676-.1124115zm7.89959717 16.57077026v7.77697754h-7.78720093v-7.77697754h7.78720093z"/>
      <path fill="rgb(66,66,66)" fill-rule="evenodd" d="M214.02703857 132.94874573h-7.94049072V125.054245h15.8400879v7.74121093h8.07333373v24.07183838h-15.9729309v-7.74632263h7.79742431v-8.22662354h-7.79742432v-7.94560241zm0 7.94560241v.1226349l-.1072998-.1226349h.1072998zm0 8.22662354v-.1175232l-.1072998.1175232h.1072998z"/>
      <path fill="rgb(66,66,66)" fill-rule="evenodd" d="M149.02645874 205.9102478h.11242676l-.00003052 8.10403443h-8.1040039v-.11242676l-.12261963.11242676h.12261962v15.9013977h8.2317505v-7.914917l15.98828124-.0000305v.11752319l.11242676-.1175232h-.11242676v-7.99667358h.1175232l-.1175232-.1175232v.1175232h-8.20111084v-8.09378052h-7.91491699l.00003052-.12265015-.11242676.12261963z"/>
      <path fill="rgb(66,66,66)" fill-rule="evenodd" d="M84.02584816 149.35091165v15.70724314h-7.82807303v-7.59302645h-8.17553319v7.60835557h-7.85362157v-15.72257226h23.85722779z"/>
      <path fill="rgb(66,66,66)" fill-rule="evenodd" d="M141.24435425 84.12548828V60.0587616h7.66455078v16.07003784h8.23687744c.00021362 2.65106201.0085144 5.31661987.0248413 7.99668884h-15.92626952zm15.92626953 0h.09265137l-.09194947.1124115-.0007019-.1124115zm-.0248413-7.9967041h.11752318l-.11752319-.1124115v.1124115z"/>
      <path fill="rgb(66,66,66)" fill-rule="evenodd" d="M60 140.63374939v-15.65614606h15.8656441v15.65614606H60z"/>
      <path fill="rgb(66,66,66)" fill-rule="evenodd" d="M165.0402832 60.14051819h-7.79742431v15.87586975l-.1175232-.00001526.1175232.1124115v-.1124115l7.79742431.00001526V60.14051819z"/>
      <path fill="rgb(66,66,66)" fill-rule="evenodd" d="M132.57318617 83.99774322h-7.61346528V68.15764767h7.61346528v15.84009555z"/>
      <path fill="rgb(66,66,66)" fill-rule="evenodd" d="M92.37002563 132.90786743h-.11242675l.11242675-.1124115-.00003051.1124115zm16.11599732 0H92.36999512v7.98136902h16.11602783v.12774658l.09197998-.12774658h-.09197998v-7.98136902zm0 0h.12261963l-.12261963-.1124115v.1124115z"/>
      <path fill="rgb(66,66,66)" fill-rule="evenodd" d="M132.63449097 213.89163208h.12774658l-.12774658-.1072998v.1072998zm0 0v16.09558105h-7.56747437v-16.09558105h7.56747437z"/>
      <path fill="rgb(66,66,66)" fill-rule="evenodd" d="M157.39614882 108.67763404h7.63390411v7.70033032h-7.63390411v-7.70033032z"/>
      <path fill="rgb(66,66,66)" fill-rule="evenodd" d="M116.41119385 157.09211731h.1532898l-.1532898-.1072998v.1072998zm-.00003052 0v7.99668884h-7.56747437v-7.99668884h7.56747437z"/>
      <path fill="rgb(66,66,66)" fill-rule="evenodd" d="M116.57980347 149.12097168h.11523437c-.05297851 2.62202454-.1043396 5.2456665-.15411377 7.8709259l-.12463379-.00196838.12261963.1072998.00201416-.10533142 8.14797974.12893677v.10925293l.12261963-.10731506-.12261963-.00193787v-7.99986267h.11242676l-.11242676-.1124115v.1124115h-7.99383545l.0022583-.1124115-.1175232.1124115z"/>
      <path fill="rgb(66,66,66)" fill-rule="evenodd" d="M108.57800293 141.00675964h-.11242676l.11242676-.11752319v.1175232zm8.00180054 0h-8.00180054v8.00180054h8.00180054v.1124115l.11752319-.1124115h-.1175232v-8.00180054zm0 0h.11242675l-.11242675-.1124115v.1124115z"/>
      <path fill="rgb(66,66,66)" fill-rule="evenodd" d="M125.04660034 197.99533081v7.78207398h7.75653076v.11752319l.11242676-.1175232h-.11242676v-7.78207397h-7.75653076z"/>
      <path fill="rgb(66,66,66)" fill-rule="evenodd" d="M132.90020752 205.77230835l-.00210571.12261963h-.11032105l.11242676-.12261963zm8.01202393.12261963h-8.01409913l-.13400268 7.87106323-.12451172-.00210571.12261963.11242676.00189209-.11032105c2.71444702.04620361 5.43048096.08917236 8.1481018.12893677v.1142273l.12261963-.11239625-.12261962-.00180053v-8.00003052zm0 .00003052h.12261962l-.12261962-.11242676v.11242676z"/>
      <path fill="rgb(66,66,66)" fill-rule="evenodd" d="M84.48062134 124.99293518v7.80252075h7.77697754v.1124115l.11242675-.1124115h-.11242675v-7.80252075h-7.77697754z"/>
      <path fill="rgb(66,66,66)" fill-rule="evenodd" d="M165.35195923 222.11825562v-.1175232l-.1175232.1175232h.1175232zm0 0h7.77697754v7.79742431h-7.77697754v-7.79742431z"/>
      <path fill="rgb(66,66,66)" fill-rule="evenodd" d="M181.76434743 222.14892499h7.5674779v7.75653711h-7.5674779v-7.75653711z"/>
      <path fill="rgb(66,66,66)" fill-rule="evenodd" d="M205.677782 222.3430939v7.63390412h-7.61857498v-7.63390412h7.61857499z"/>
      <path fill="rgb(66,66,66)" fill-rule="evenodd" d="M221.90110568 222.28688711v7.59813616h-7.66456237v-7.59813616h7.66456237z"/>
      <path fill="rgb(66,66,66)" fill-rule="evenodd" d="M149.02644672 165.34429845v-8.22663027h8.22152056v8.22663027h-8.22152056z"/>
      <path fill="rgb(66,66,66)" fill-rule="evenodd" d="M100.21340387 76.27697407v23.83167924H76.32551784V76.27697407h23.88788603z"/>
      <path fill="rgb(66,66,66)" fill-rule="evenodd" d="M100.1009903 213.7843326H76.31529841v-23.95942196h23.78569187v23.95942195z"/>
      <path fill="rgb(66,66,66)" fill-rule="evenodd" d="M189.81724762 100.1035436V76.28208378h23.83167925v23.82145982h-23.83167925z"/>
      <path fill="rgb(66,66,66)" fill-rule="evenodd" d="M116.69221296 141.00675809v-.11241358h-.12774271l.1277427.11241358z"/>
      <path fill="rgb(66,66,66)" fill-rule="evenodd" d="M157.24796728 149.0085612h-.11241358v.11241358l.11241358-.11241358z"/>
      <path fill="rgb(66,66,66)" fill-rule="evenodd" d="M108.58821568 132.8976511v-.11241357h-.122633l.122633.11241358z"/>
      <path fill="rgb(66,66,66)" fill-rule="evenodd" d="M132.91553663 157.23008176v-.11241358h-.11241358l.11241358.11241358z"/>
      <path fill="rgb(66,66,66)" fill-rule="evenodd" d="M124.80131994 149.12097478v-.11241358h-.11241358l.11241358.11241358z"/>
      <path fill="rgb(66,66,66)" fill-rule="evenodd" d="M165.36218397 132.78523753h-.11241358v.11752329l.11241358-.1175233z"/>
      <path fill="rgb(66,66,66)" fill-rule="evenodd" d="M140.87135236 125.02870041v15.68680431h-7.95581573v16.40216346h7.92515748v-8.10910698h16.29485959v-16.22332367h8.11421669v-7.75653712h-24.37841803z"/>
      <path fill="rgb(66,66,66)" fill-rule="evenodd" d="M124.52028598 124.53816842v.11241358h.12774271l-.1277427-.11241358z"/>
    </g>
    <g>
      <path fill="none" stroke="rgb(0,140,255)" stroke-linecap="butt" stroke-linejoin="miter" stroke-width="2" d="M220 40.625h26c2.209139 0 4 1.790861 4 4v26"/>
      <path fill="none" stroke="rgb(0,140,255)" stroke-linecap="butt" stroke-linejoin="miter" stroke-width="2" d="M220 249.375h26c2.209139 0 4-1.790861 4-4v-26"/>
      <path fill="none" stroke="rgb(0,140,255)" stroke-linecap="butt" stroke-linejoin="miter" stroke-width="2" d="M70 40.625H44c-2.209139 0-4 1.790861-4 4v26"/>
      <path fill="none" stroke="rgb(0,140,255)" stroke-linecap="butt" stroke-linejoin="miter" stroke-width="2" d="M70 249.375H44c-2.209139 0-4-1.790861-4-4v-26"/>
    </g>
  </g>
</svg>
