<?xml version="1.0" encoding="utf-8"?>
<!-- Generator: Adobe Illustrator 23.1.0, SVG Export Plug-In . SVG Version: 6.00 Build 0)  -->
<svg version="1.1" id="Layer_1" xmlns="http://www.w3.org/2000/svg" xmlns:xlink="http://www.w3.org/1999/xlink" x="0px" y="0px"
	 viewBox="0 0 64 64" style="enable-background:new 0 0 64 64;" xml:space="preserve">
<style type="text/css">
	.st0{filter:url(#Adobe_OpacityMaskFilter);}
	.st1{fill:#FFFFFF;}
	.st2{mask:url(#mask-2_1_);}
	.st3{fill-rule:evenodd;clip-rule:evenodd;fill:#DBE4FF;}
	.st4{fill-rule:evenodd;clip-rule:evenodd;fill:#4772E5;}
</style>
<g>
	<defs>
		<filter id="Adobe_OpacityMaskFilter" filterUnits="userSpaceOnUse" x="3" y="3" width="58" height="58">
			<feColorMatrix  type="matrix" values="1 0 0 0 0  0 1 0 0 0  0 0 1 0 0  0 0 0 1 0"/>
		</filter>
	</defs>
	<mask maskUnits="userSpaceOnUse" x="3" y="3" width="58" height="58" id="mask-2_1_">
		<rect class="st0" width="64" height="64"/>
		<g>
			<rect id="rect-1_1_" class="st1" width="64" height="64"/>
		</g>
	</mask>
	<g class="st2">
		<path class="st3" d="M3,32C3,16,16,3,32,3s29,13,29,29S48,61,32,61S3,48,3,32z"/>
		<path class="st4" d="M29.9,48.1c0.2,0.1,0.5,0.1,0.7,0.1l0,0c0.9,0,1.7-0.6,1.8-1.5c0.2-0.9-0.3-1.7-1.1-2.1
			c-6.4-2.6-10.6-8.8-10.6-15.8v-5.1L31,19.5l10.3,4.3v5.1c0,1,0.8,1.9,1.9,1.9s1.9-0.8,1.9-1.9v-5.6c0-1.2-0.7-2.3-1.8-2.8L32.2,16
			c-0.7-0.3-1.6-0.3-2.3,0l-11.1,4.6C17.7,21,17,22.1,17,23.3v5.6C17,37.3,22.1,44.9,29.9,48.1z M26.7,35.7c0,4.5,3.6,8.1,8.1,8.1
			c1.7,0,3.3-0.5,4.5-1.4l5.1,5.1c0.3,0.3,0.7,0.5,1.1,0.5v0c0.6,0,1.2-0.4,1.4-1c0.2-0.6,0.1-1.2-0.3-1.7l-5.1-5.1
			c0.9-1.3,1.4-2.8,1.4-4.5c0-4.5-3.6-8.1-8.1-8.1S26.7,31.3,26.7,35.7z M29.8,35.7c0-2.8,2.2-5,5-5c2.8,0,5,2.2,5,5
			c0,2.8-2.2,5-5,5C32,40.7,29.8,38.5,29.8,35.7z"/>
	</g>
</g>
</svg>
