<svg xmlns="http://www.w3.org/2000/svg" width="56" height="56" viewBox="0 0 56 56">
  <g>
    <ellipse cx="28" cy="28" fill="rgb(140,132,243)" rx="28" ry="28"/>
    <g>
      <path fill="rgb(255,255,255)" fill-rule="evenodd" d="M15.09375 20.34374605c0 .30206299-.24481201.546875-.546875.546875-.30206299 0-.546875-.24481201-.546875-.546875v-5.796875c0-.30206299.24481201-.546875.546875-.546875h5.796875c.30206299 0 .546875.24481201.546875.546875 0 .30206299-.24481201.546875-.546875.546875h-5.25v5.25zm26.359375-6.34375H35.65625c-.30206299 0-.546875.24481201-.546875.546875 0 .30206299.24481201.546875.546875.546875h5.25v5.25c0 .30206299.24481201.546875.546875.546875.30206299 0 .546875-.24481201.546875-.546875v-5.796875c0-.30206299-.24481201-.546875-.546875-.546875zm-20.5625 27.453125c0-.30206299-.24481201-.546875-.546875-.546875h-5.25v-5.25c0-.30206299-.24481201-.546875-.546875-.546875-.30206299 0-.546875.24481201-.546875.546875v5.796875c0 .30206299.24481201.546875.546875.546875h5.796875c.30206299 0 .546875-.24481201.546875-.546875zm20.5625-6.34375c-.30206299 0-.546875.24481201-.546875.546875v5.25h-5.25c-.30206299 0-.546875.24481201-.546875.546875 0 .30206299.24481201.546875.546875.546875h5.796875c.30206299 0 .546875-.24481201.546875-.546875v-5.796875c0-.30206299-.24481201-.546875-.546875-.546875z"/>
      <g>
        <path fill="rgb(255,255,255)" fill-rule="evenodd" d="M22.03408813 33.46874605h-.9943161c-.2746048 0-.49716186.22253418-.49716186.49713135v.99432373c0 .27459717.22255707.49719238.49716186.49719238h.9943161c.2746048 0 .49716187-.22259521.49716187-.49719238v-.99432373c0-.27459717-.22255707-.49713135-.49716187-.49713135z"/>
        <path fill="rgb(255,255,255)" fill-rule="evenodd" d="M33.96591187 22.53124605h.9943161c.2746048 0 .49716186-.22259521.49716186-.49719238v-.99432373c0-.27459717-.22255707-.49713135-.49716186-.49713135h-.9943161c-.2746048 0-.49716187.22253418-.49716187.49713135v.99432373c0 .27459717.22255707.49719238.49716187.49719238z"/>
        <path fill="rgb(255,255,255)" fill-rule="evenodd" d="M22.2329483 29.49151216c-.23065948 0-.41761017-.22253418-.41761017-.49719238 0-.27459717.18695069-.49713135.41761017-.49713135h5.84659577c.23066711 0 .41761017.22253418.41761017.49713135v2.9829712c0 .27459716-.18694306.49719237-.41761017.49719237-.23066712 0-.4176178-.22259521-.4176178-.49719238v-2.4857788H22.2329483z"/>
        <path fill="rgb(255,255,255)" fill-rule="evenodd" d="M37.44602203 31.97722994v4.97161865c0 .27459717-.22255706.49713135-.49716186.49713135h-4.97158814c-.2746048 0-.49716186-.22253418-.49716186-.49713135v-4.97161865c0-.27459717.22255707-.49713135.49716186-.49713135h4.97158814c.2746048 0 .49716186.22253418.49716186.49713135zm-4.97158813 4.4744873h3.97727203v-3.97729492H32.4744339v3.97729492z"/>
        <path fill="rgb(255,255,255)" fill-rule="evenodd" d="M24.02272797 27.5028647c.2746048 0 .49716186-.22253418.49716186-.49719238 0-.27459717-.22255707-.49713135-.49716186-.49713135h-4.97158814c-.2746048 0-.49716186.22253418-.49716186.49713135 0 .2746582.22255706.49719238.49716186.49719238h4.97158814z"/>
        <path fill="rgb(255,255,255)" fill-rule="evenodd" d="M36.94886017 18.55395113c.2746048 0 .49716186.22253418.49716186.49713135v4.97161865c0 .27459717-.22255706.49713135-.49716186.49713135h-4.97158814c-.2746048 0-.49716186-.22253418-.49716186-.49713135v-4.97161865c0-.27459717.22255707-.49713135.49716186-.49713135h4.97158814zm-4.47442627 4.97161865h3.97727203v-3.97729492H32.4744339v3.97729492z"/>
        <path fill="rgb(255,255,255)" fill-rule="evenodd" d="M25.51420593 19.05108248c0-.27459717.22255707-.49713135.49716187-.49713135.27459717 0 .49715423.22253418.49715423.49713135v4.4744873h3.4801178c.27459717 0 .49715424.22253418.49715424.49713135v2.4857788h1.49147796c.2746048 0 .49716187.22259522.49716187.49719239 0 .27459717-.22255707.49713135-.49716187.49713135h-1.9886322c-.2746048 0-.49716186-.22253418-.49716186-.49713135v-2.48583984H26.0113678c-.2746048 0-.49716187-.22253418-.49716187-.49713135v-4.97161865z"/>
        <path fill="rgb(255,255,255)" fill-rule="evenodd" d="M19.05113983 18.55395113h4.97158814c.2746048 0 .49716186.22253418.49716186.49713135v4.97161865c0 .27459717-.22255707.49713135-.49716186.49713135h-4.97158814c-.2746048 0-.49716186-.22253418-.49716186-.49713135v-4.97161865c0-.27459717.22255706-.49713135.49716186-.49713135zm.49715424 4.97161865h3.97727203v-3.97729492h-3.97727203v3.97729492z"/>
        <path fill="rgb(255,255,255)" fill-rule="evenodd" d="M36.94886017 28.49718843h-4.97158814c-.2746048 0-.49716186.22253418-.49716186.49713135 0 .2746582.22255707.49719238.49716186.49719238h4.97158814c.2746048 0 .49716186-.22253418.49716186-.49719238 0-.27459717-.22255706-.49713135-.49716186-.49713135z"/>
        <path fill="rgb(255,255,255)" fill-rule="evenodd" d="M19.05113983 37.44597994c-.2746048 0-.49716186-.22253418-.49716186-.49713135v-4.97161865c0-.27459717.22255706-.49713135.49716186-.49713135h4.97158814c.2746048 0 .49716186.22253418.49716186.49713135v4.97161865c0 .27459717-.22255707.49713135-.49716186.49713135h-4.97158814zm4.47442627-4.97155762h-3.97727203v3.97729492h3.97727203v-3.97729492z"/>
        <path fill="rgb(255,255,255)" fill-rule="evenodd" d="M26.0113678 33.46874605H28c.2746048 0 .49716187.22253418.49716187.49713135 0 .2746582-.22255707.49719238-.49716187.49719238h-1.49147797v2.4857788c0 .27459718-.22255706.4971924-.49715423.4971924-.2746048 0-.49716187-.22259522-.49716187-.4971924V33.9658774c0-.27459717.22255707-.49713135.49716187-.49713135z"/>
        <path fill="rgb(255,255,255)" fill-rule="evenodd" d="M28 36.4516562h1.49147797v-5.46875c0-.27459716.22254943-.49713134.49715423-.49713134s.49716187.22253418.49716187.49713135v5.96594238c0 .27459717-.22255707.49713135-.49716187.49713135H28c-.2746048 0-.49716187-.22253418-.49716187-.49713135 0-.27459717.22255707-.49719238.49716187-.49719238z"/>
        <path fill="rgb(255,255,255)" fill-rule="evenodd" d="M19.05113983 29.49151216c.27440643 0 .49715424-.22277832.49715424-.49719238 0-.27435303-.2227478-.49713135-.49715424-.49713135-.27441406 0-.49716186.22277832-.49716186.49713135 0 .27441406.2227478.49719238.49716186.49719238z"/>
        <path fill="rgb(255,255,255)" fill-rule="evenodd" d="M30.48579407 22.03405367c0 .27459717-.22255707.49719238-.49716187.49719238H28c-.2746048 0-.49716187-.22259521-.49716187-.49719238S27.7253952 21.53692232 28 21.53692232h1.49147797v-2.48583984c0-.27459717.22254943-.49713135.49715423-.49713135s.49716187.22253418.49716187.49713135v2.98297119z"/>
      </g>
    </g>
  </g>
</svg>
