<svg xmlns="http://www.w3.org/2000/svg" width="20" height="20" viewBox="0 0 20 20">
  <path fill="rgb(189,189,189)" fill-rule="evenodd" d="M9.38752174 18.86757278C4.21038151 18.86757278 0 14.63487816 0 9.4337864 0 4.2326951 4.21193743 0 9.38752174 0c5.1755848 0 9.38752175 4.2326951 9.38752175 9.4337864 0 2.33321952-.84731293 4.4715557-2.24910927 6.12031268.01109695.00941849.02195358.01927471.03255081.02956581l3.25155068 3.30408574c.18546676.1863308.24095535.4665985.14058876.7100811-.1003666.24348259-.3368206.40221786-.59907341.40216827-.1718216.00012398-.33661652-.0685196-.45796585-.19076157l-3.25206852-3.30460548c-.00710106-.00739288-.01399327-.01490974-.02067757-.02254677-1.65887928 1.48323822-3.8430605 2.3854866-6.23331738 2.3854866zm0-17.56769084c-4.46036958 0-8.0909028 3.64842605-8.0909028 8.13077735 0 4.4823513 3.63053322 8.1307764 8.0909028 8.1307764 4.46036911 0 8.09090424-3.6484251 8.09090424-8.1307764s-3.62897873-8.13077735-8.09090424-8.13077735z"/>
</svg>
