<svg xmlns="http://www.w3.org/2000/svg" width="20" height="20.51" viewBox="0 0 20 20.51">
  <path fill="rgb(0,140,255)" fill-rule="evenodd" d="M8.13545227 20.51037598h3.73291016c.69067382.00476074 1.27770996-.50354004 1.37173462-1.18780518l.2822876-1.9697876c.29647827-.14898681.58332061-.31643676.8588333-.50134277l1.86025239.7460022.0053711.0020752c.16108703.06292724.33252715.0951538.50546264.09506225.49828338.00186157.95819092-.26727295 1.20063781-.7026062l1.8656311-3.23074341.00578309-.01034546c.33000183-.59451294.18235779-1.34039307-.34924316-1.76437378l-1.57052613-1.2291565c.01280976-.17645263.01901245-.34054565.01901245-.50131225 0-.1607666-.0062027-.32858276-.01901245-.5017395l1.57260132-1.22875977c.53211975-.42681884.6780243-1.17559814.3451004-1.77096557l-1.86521148-3.22744751c-.33229828-.60217285-1.04853821-.8621521-1.70568848-.6199646l-1.86769104.74972534c-.2765274-.18521118-.56463623-.35250855-.86255646-.50091553l-.281456-1.96151733c-.09256744-.68618775-.67972564-1.19732666-1.3721466-1.1944275H8.1346283c-.69067765-.00476073-1.27771378.50357056-1.37173844 1.1878357l-.28228378 1.97018433c-.2964859.14883423-.58332825.31613159-.85883331.50091552l-1.85984421-.74725341-.00619888-.00247193c-.63399888-.24508667-1.38124085.0227356-1.70526886.6091919L.18896484 6.73638916c-.3481636.59841919-.2037735 1.36172485.33890534 1.7916565L2.09840393 9.7546997c-.01281357.17773437-.01942444.34344482-.01942444.5005188 0 .15704345.00661087.32278442.01942444.50131225l-1.5734253 1.22998047c-.53117751.42733765-.67633437 1.17565918-.34345245 1.77056885l1.86438752 3.2274475c.33229446.59927369 1.04812622.85925294 1.70485687.61788941l1.86852264-.74972534c.27654267.1850586.5646515.35223389.86255265.5005188l.281044 1.96109009c.09217072.68682861.67956925 1.19869995 1.37256241 1.19607544zm-2.14707947-4.6607666l-.23103714-.16531373-2.3681984.95059205c-.21987533.07769775-.37403487-.03308106-.43975066-.15292359l-1.86355973-3.22372436c-.08720779-.164917-.05496978-.35379029.07811356-.45916748l2.0168953-1.57675171-.02934647-.28433228c-.05296326-.45309448-.05296326-.91082764 0-1.3638916l.02934646-.2843628-2.01234817-1.57507324c-.13777924-.10894775-.17488861-.3024292-.0872078-.45462036L2.9493866 4.03466797l.0062027-.01159668c.07439422-.13638306.27318954-.20455933.4265213-.146698l2.37646484.95428467.23020935-.16531372c.36912918-.26696778.7638321-.49664307 1.1783142-.68566895l.2591362-.11654663.3624611-2.5302124v-.00949097c.02731323-.16906738.17472076-.29232788.345932-.28930664h3.73291016c.17332459-.00354004.32222748.12234497.34758759.29385376l.3616333 2.53186035.259552.11611939c.41468811.18771362.80932617.41690063 1.17790222.684021l.23061371.16531372 2.36820221-.95059205c.20664978-.07272338.37197113.02316285.43933868.15374756l1.86397553 3.22372437c.08637237.16491699.05413818.35379028-.07894135.459198l-2.01854705 1.5779724.03099823.2855835c.02529144.22561646.03839874.4524231.03926086.67947388-.00115967.22753906-.01426697.45489502-.03926086.68109131l-.03017426.28475952 2.01399994 1.5734253c.13481903.1107788.17132568.30200195.086792.45465087l-1.86645509 3.23199463-.00619507.01074219c-.0608673.1062622-.17427825.17150879-.29675292.17068481-.0440979.00009156-.08782197-.00805664-.1289444-.02398681l-2.37729645-.95471192-.23020172.16531372c-.36952972.26693726-.76432037.49700928-1.1787262.68692017l-.25831604.11694336-.36245727 2.52856445v.00952149c-.0286026.16833496-.1760254.2904663-.34676361.28723144H8.13545227c-.17366028.00326538-.32261658-.12319946-.34757996-.29510498l-.36328887-2.53186035-.25831223-.11694336c-.41464615-.18780517-.80927658-.41696167-1.1778984-.684021zm4.0118866-1.83337403c-2.07715607 0-3.76101685-1.6838684-3.76101685-3.76101684s1.68386078-3.76101685 3.76101685-3.76101685c2.07714844 0 3.76100922 1.6838684 3.76100922 3.76101685-.00318146 2.07583618-1.68518067 3.7578125-3.76100922 3.76101684zm-2.72777176-3.76101684c0-1.50653077 1.22126389-2.7277832 2.72777176-2.7277832 1.50546265.00250243 2.7252655 1.22229003 2.72776794 2.7277832 0 1.50650024-1.2212677 2.72775268-2.72776794 2.72775268-1.50650787 0-2.72777176-1.22125244-2.72777176-2.72775268z"/>
</svg>
