<svg xmlns="http://www.w3.org/2000/svg" xmlns:xlink="http://www.w3.org/1999/xlink" width="24" height="24" viewBox="0 0 24 24">
  <defs>
    <rect id="rect-1" width="24" height="24" x="0" y="0"/>
    <mask id="mask-2" maskContentUnits="userSpaceOnUse" maskUnits="userSpaceOnUse">
      <rect width="24" height="24" x="0" y="0" fill="black"/>
      <use fill="white" xlink:href="#rect-1"/>
    </mask>
  </defs>
  <g>
    <use fill="none" xlink:href="#rect-1"/>
    <g mask="url(#mask-2)">
      <path fill="rgb(71,114,229)" fill-rule="evenodd" d="M11.99995355 4.99985933c7.18009662 0 11.72216892 6.4411006 11.9111719 6.7161212.12900163.18600273.1160164.43500614-.02901649.60699272-.23100471.27300453-5.72104263 6.67712069-11.88215541 6.67712069-6.16111279 0-11.6511981-6.40411616-11.8822017-6.67712069-.15698684-.18698692-.15698684-.45999145 0-.64599419.2310036-.27300453 5.72108891-6.67711973 11.8822017-6.67711973zM1.17179958 12c1.19298756 1.29002047 5.88909185 6.00009394 10.82815397 6.00009394 4.98106098 0 9.70411968-4.77808953 10.85416889-6.02709437-.99601555-1.27000427-5.07509613-5.9730935-10.8541689-5.9730935-4.94604635 0-9.63713526 4.70908975-10.82815396 6.00009393z"/>
      <path fill="rgb(71,114,229)" fill-rule="evenodd" d="M7.99990606 11.99995232c0-2.20601845 1.7940278-4.00004626 4.00004626-4.00004626 2.2060194 0 4.0000472 1.7940278 4.0000472 4.00004626 0 2.2060194-1.7940278 4.0000472-4.0000472 4.0000472-2.20601845 0-4.00004626-1.7940278-4.00004626-4.0000472zM8.99990654 12c0 1.65401077 1.34603691 3.00004768 3.00004673 3.00004768C13.65396309 15.00004768 15 13.65401078 15 12c0-1.65400982-1.34603691-3.00004673-3.00004673-3.00004673-1.65400982 0-3.00004673 1.34603691-3.00004673 3.00004673z"/>
    </g>
  </g>
</svg>
