<svg xmlns="http://www.w3.org/2000/svg" xmlns:xlink="http://www.w3.org/1999/xlink" width="32" height="32" viewBox="0 0 32 32">
  <defs>
    <rect id="rect-2" width="20" height="20" x="6" y="6"/>
    <mask id="mask-3" maskContentUnits="userSpaceOnUse" maskUnits="userSpaceOnUse">
      <rect width="32" height="32" x="0" y="0" fill="black"/>
      <use fill="white" xlink:href="#rect-2"/>
    </mask>
  </defs>
  <g>
    <g opacity=".15">
      <ellipse cx="16" cy="16" fill="rgb(52,232,199)" rx="16" ry="16"/>
    </g>
    <g>
      <use fill="none" xlink:href="#rect-2"/>
      <g mask="url(#mask-3)">
        <path fill="rgb(52,232,199)" fill-rule="evenodd" d="M19.53515625 13.03125c-.484375 0-.95703125.0625-1.40625.17578125-.0546875-3.078125-2.57421875-5.56640625-5.6640625-5.56640625-3.125 0-5.6640625 2.5390625-5.6640625 5.6640625s2.5390625 5.6640625 5.6640625 5.6640625h1.4140625c.03515625.7734375.22265625 1.51171875.55859375 2.19140625.24609375.5078125.13671875 1.109375-.2734375 1.53125-.2890625.2734375-.37109375.69140625-.21484375 1.0625.15234375.3671875.5078125.6015625.8984375.6015625h4.6875c3.125 0 5.6640625-2.5390625 5.6640625-5.6640625S22.66015625 13.03125 19.53515625 13.03125zm-5.640625 5.15625h-1.4296875c-2.69140625 0-4.8828125-2.19140625-4.8828125-4.8828125S9.7734375 8.421875 12.46484375 8.421875s4.8828125 2.19140625 4.8828125 4.8828125v.16796875c-1.890625.79296875-3.26171875 2.5859375-3.453125 4.71484375zm.953125 5.390625h4.6875c2.69140625 0 4.87890625-2.19140625 4.87890625-4.8828125S22.22265625 13.8125 19.53125 13.8125s-4.8828125 2.19140625-4.8828125 4.8828125c0 .75390625.1640625 1.46875.48828125 2.125.39453125.8125.2265625 1.76171875-.421875 2.42578125l-.01171875.01171875c-.07421875.0703125-.05078125.16015625-.03515625.1953125.03125.078125.1015625.125.1796875.125z"/>
        <path fill="rgb(52,232,199)" fill-rule="evenodd" d="M13.58984375 10.59375c.55078125 0 1.109375.25 1.53125.6796875s.6640625 1 .6640625 1.5625c0 1.078125-.84375 2.046875-2.8125 3.23828125-.1484375.09375-.3203125.140625-.5078125.140625s-.359375-.046875-.5078125-.140625c-1.97265625-1.19140625-2.8125-2.16015625-2.8125-3.23828125 0-.5625.2421875-1.1328125.6640625-1.5625.421875-.43359375.98046875-.6796875 1.53125-.6796875.40625 0 .7890625.1015625 1.125.296875.3359375-.1953125.71875-.296875 1.125-.296875zM12.5625 15.41015625l.00390625-.00390625c1.6875-1.01953125 2.4375-1.8125 2.4375-2.5703125 0-.75-.6875-1.4609375-1.4140625-1.4609375-.3359375 0-.640625.1015625-.88671875.29296875l-.23828125.1875-.23828125-.1875C11.98046875 11.4765625 11.671875 11.375 11.33984375 11.375c-.7265625 0-1.4140625.7109375-1.4140625 1.4609375 0 .7578125.75390625 1.55078125 2.4375 2.5703125l.00390625.00390625c.0234375.015625.05859375.0234375.09765625.0234375s.07421875-.0078125.09765625-.0234375z"/>
        <ellipse cx="17.66" cy="18.694" fill="rgb(52,232,199)" rx=".754" ry=".754" transform="rotate(-67.500024 17.6599341 18.69439236)"/>
        <ellipse cx="19.535" cy="18.695" fill="rgb(52,232,199)" rx=".754" ry=".754"/>
        <ellipse cx="21.411" cy="18.695" fill="rgb(52,232,199)" rx=".754" ry=".754" transform="rotate(-9.213003 21.41058373 18.69529296)"/>
      </g>
    </g>
  </g>
</svg>
