<svg xmlns="http://www.w3.org/2000/svg" width="40" height="40" viewBox="0 0 40 40">
  <g>
    <ellipse cx="20" cy="20" fill="rgb(140,132,243)" rx="20" ry="20"/>
    <path fill="rgb(255,255,255)" fill-rule="evenodd" d="M16.3246994 15.71766758c.47196388 1.3233633.10025788 2.80072498-.94178295 3.74316692 1.0455618.46301842 1.72049236 1.49822617 1.7223463 2.64171982v2.75022125c0 .460598-.18300247.90232468-.50873565 1.22797776-.32573319.32564926-.76750755.5085411-1.22810555.50842476h-4.6315794c-.46059894.00011634-.90237235-.1827755-1.2281065-.50842476C9.18300248 25.75510025 9 25.31337357 9 24.85277557v-2.75022125c.00207806-1.1434269.67693806-2.1785221 1.7223463-2.64171982-.08597278-.07777404-.16792774-.15987587-.24554729-.24598694-.94254684-1.0419464-1.16461277-2.54907798-.56264591-3.81859684.60196686-1.26951885 1.90941524-2.05140304 3.3126583-1.98104572 1.40324307.07035637 2.62592603.97909737 3.097888 2.30246258zm12.9384575-1.3658905h-8.10526277c-.46101951 0-.90312576.18328952-1.22891044.5094862-.32578278.32619571-.5085144.76853275-.50793076 1.22955322v1.15789413c0 .46063996.18298722.90241242.50870896 1.22813225.32571983.32572174.7674923.50871086 1.22813224.50871086h8.10526276c.46063995 0 .90241242-.18298912 1.22813416-.50871086C30.81701088 18.15112305 31 17.70935058 31 17.24871063V16.0908165c.0004654-.46098423-.18230247-.90325356-.50806046-1.22942448-.32575988-.32617092-.76779937-.5094986-1.22878265-.50961494zm-16.20832921.2244625c1.27897549 0 2.31578922 1.0368147 2.31578922 2.31578923 0 1.27897644-1.03681373 2.31579017-2.31578922 2.31579017s-2.31578922-1.03681373-2.31578922-2.31579017c-9.6e-7-1.27811813 1.03547573-2.3145771 2.3135929-2.31578922h.00219632zm16.78727818 2.67027379c0 .15354728-.06099701.30080413-.16957093.40937805-.10857391.10857391-.25583076.16957092-.40937805.16957092h-8.10526276c-.15354538 0-.30080413-.060997-.40937805-.16957092-.108572-.10857392-.16956901-.25583077-.16956901-.40937805V16.0908165c0-.15354729.060997-.30080414.16956901-.40937805.10857392-.10857392.25583267-.16956997.40937805-.16956997h8.10526276c.15354729 0 .30080414.06099605.40937805.16956997.10857392.10857391.16957093.25583076.16957093.40937805v1.15569687zm-14.471488 8.18740463c.31964302-.00024223.57870483-.25930405.57894706-.57894707l-.0021963-2.7524166c0-.46063805-.18298817-.90241052-.50870896-1.22813226-.32572174-.32571983-.7674942-.50870895-1.2281332-.50870895h-2.31578923c-.460639 0-.90241146.18298912-1.2281332.50870895-.32572078.32572174-.50870895.7674942-.50870895 1.22813225v2.75241661c.00024223.31964302.25930404.57870484.57894707.57894707h4.6337757zm5.78727626-4.34430122h8.10526276c.46063995 0 .90241242.18298912 1.22813416.50870895C30.81701279 21.92404747 31 22.36581993 31 22.82645798v1.15789604c-.00024223.95905876-.77778244 1.73640251-1.7368431 1.73640251h-8.10526277c-.46059799.00011635-.90237236-.18277359-1.22810554-.50842476-.32573319-.32565117-.50873566-.76737976-.50873566-1.22797775v-1.15789604c0-.46063805.18298912-.90241051.50870896-1.22813225.32572174-.32571983.7674942-.50870895 1.22813224-.50870895zm8.68421174 2.89473724c-.00024415.31964493-.25930405.57870674-.57894898.57894897h-8.10526276c-.31964302-.00024223-.57870483-.25930404-.57894706-.57894897v-1.15789414c0-.15354537.060997-.30080413.16956901-.40937805.10857392-.108572.25583267-.16956901.40937805-.16956901h8.10526276c.15354729 0 .30080414.060997.40937805.16956901.10857392.10857392.16957093.25583268.16957093.40937805v1.15789414z"/>
  </g>
</svg>
