<svg xmlns="http://www.w3.org/2000/svg" xmlns:xlink="http://www.w3.org/1999/xlink" width="40" height="40" viewBox="0 0 40 40">
  <defs>
    <rect id="rect-2" width="22" height="22" x="9" y="9"/>
    <mask id="mask-3" maskContentUnits="userSpaceOnUse" maskUnits="userSpaceOnUse">
      <rect width="40" height="40" x="0" y="0" fill="black"/>
      <use fill="white" xlink:href="#rect-2"/>
    </mask>
  </defs>
  <g>
    <ellipse cx="20" cy="20" fill="rgb(255,65,68)" rx="20" ry="20"/>
    <g>
      <use fill="none" xlink:href="#rect-2"/>
      <g mask="url(#mask-3)">
        <path fill="rgb(255,255,255)" fill-rule="evenodd" d="M30.63960361 22.37754822l-1.2038002-.69371033c-1.29848098-.7482605-1.29965591-2.61891174 0-3.36767578l1.2038002-.69371033c.30876923-.17808532.41455079-.57218933.23628617-.88035583l-2.59359741-4.48402405c-.17810059-.30799866-.57331086-.41390991-.88224793-.23599243l-1.20379639.69371032c-1.29831409.74809266-2.9217081-.18580627-2.9217081-1.68383789V9.64453125c0-.3560028-.28909493-.64453125-.64579392-.64453125h-5.18736267c-.35653114 0-.645792.28852844-.645792.64453125v1.38742065c0 1.496521-1.6218815 2.43276978-2.92170716 1.6838379l-1.2037983-.69371033c-.30860137-.17791748-.7038126-.07234192-.88224601.23599243l-2.59359741 4.48402405c-.17826557.3081665-.07248307.70243835.23628616.88035583l1.20379734.69371033c1.29848099.7482605 1.29965782 2.61891174 0 3.36767578l-1.2036295.69371033c-.30893707.17808532-.41471957.57218933-.236454.88035583l2.59359741 4.48402405c.17809677.30799866.57330894.41407776.88224602.23599243l1.2037983-.69371032c1.29814338-.7482605 2.92170714.18563842 2.92170714 1.68383789v1.38742065c0 .3560028.28909302.64453125.64579201.64453125h5.18719483c.35669899 0 .645792-.28852844.645792-.64453125V28.9680481c0-1.4961853 1.62188149-2.43293763 2.92187786-1.6838379l1.2037964.69371033c.30860137.17791748.70381164.07234192.88208007-.23599243l2.59376526-4.48402405c.17826462-.3081665.07248306-.7022705-.23628617-.88035583zm-3.15311813 4.16175842l-.64444733-.3714447c-2.15953731-1.24458313-4.85908603.30917358-4.85908603 2.80018616v.7428894h-3.89577675v-.7428894c0-2.48883057-2.69786453-4.04577637-4.85908413-2.80018616l-.64444733.3714447-1.9479723-3.36767578.64444733-.3714447c2.15936852-1.24424744 2.1615553-4.3547821.00016785-5.60037232l-.64461517-.3714447 1.9479723-3.36767578.64444732.3714447c2.15953732 1.24458313 4.85908413-.30917358 4.85908413-2.80018616v-.7428894h3.89577675v.7428894c0 2.48883057 2.6976986 4.04577637 4.85908603 2.80018616l.64444733-.3714447 1.94797135 3.36767578-.64444733.3714447c-2.1593666 1.24424744-2.16155243 4.3547821-.00016785 5.60037232l.64461518.3714447-1.94797135 3.36767578z"/>
        <path fill="rgb(255,255,255)" fill-rule="evenodd" d="M20.03514862 15.48828125c-2.4925232 0-4.52021122 2.02389526-4.52021122 4.51171875s2.02768803 4.51171875 4.52021122 4.51171875c2.49235535 0 4.52004242-2.02389526 4.52004242-4.51171875s-2.02768707-4.51171875-4.52004242-4.51171875zm0 7.734375c-1.78030205 0-3.22862625-1.44566345-3.22862625-3.22265625s1.4483242-3.22265625 3.22862625-3.22265625c1.7801342 0 3.2284584 1.44566345 3.2284584 3.22265625s-1.4483242 3.22265625-3.2284584 3.22265625z"/>
      </g>
    </g>
  </g>
</svg>
