<svg xmlns="http://www.w3.org/2000/svg" xmlns:xlink="http://www.w3.org/1999/xlink" width="40" height="40" viewBox="0 0 40 40">
  <defs>
    <rect id="rect-2" width="23" height="23" x="8.5" y="8.5"/>
    <mask id="mask-3" maskContentUnits="userSpaceOnUse" maskUnits="userSpaceOnUse">
      <rect width="40" height="40" x="0" y="0" fill="black"/>
      <use fill="white" xlink:href="#rect-2"/>
    </mask>
  </defs>
  <g>
    <ellipse cx="20" cy="20" fill="rgb(253,186,69)" rx="20" ry="20"/>
    <g>
      <use fill="none" xlink:href="#rect-2"/>
      <g mask="url(#mask-3)">
        <path fill="rgb(255,255,255)" fill-rule="evenodd" d="M12.12037086 29.88339806H27.8796301c.8895607-.00105477 1.61043167-.72192574 1.61148834-1.61149025v-2.37113c-.00105667-.8895626-.72192764-1.61043357-1.61148834-1.61149024h-2.45610333c-.8895626.00105667-1.61043357.72192764-1.61148834 1.61149025-.0004692.41909408-.3399086.75881767-.75900268.75963974h-6.10543442c-.41934204-.00046921-.75916863-.3402977-.75963783-.75963974-.00105668-.88981247-.72231675-1.61078644-1.61213017-1.61149025h-2.45546246c-.8895645.00105667-1.61043548.72192764-1.6114912 1.61149025v2.37112999c.00105572.88956451.7219267 1.61043548 1.6114912 1.61149025zm-.75963974-3.98262024c.00046921-.41934395.34029675-.75917054.7596388-.75963974h2.4561014c.419343.0004692.75917054.34029579.75963975.75963974.00105476.88931465.72153664 1.61008262 1.61085129 1.61149025h6.10543632c.8895626-.00105667 1.61043358-.72192765 1.61149025-1.61149025.0004692-.4195919.3406849-.7595234.7602787-.75963974h2.45546246c.41934204.0004692.75916672.34029579.75963974.75963974v2.37112808c-.00047302.41934395-.3402977.75917053-.75963974.75963974H12.1203699c-.41934204-.0004692-.75916958-.3402958-.75963879-.75963974v-2.37112808z"/>
        <path fill="rgb(255,255,255)" fill-rule="evenodd" d="M20 24.65047222c-.2352324 0-.42592593-.19069353-.42592593-.42592592V10.54252778c0-.2352324.19069354-.42592593.42592593-.42592593.2352324 0 .42592593.19069353.42592593.42592593V24.2245463c0 .23523239-.19069354.42592592-.42592593.42592592z"/>
        <path fill="rgb(255,255,255)" fill-rule="evenodd" d="M20 24.78314815l-4.41131481-3.74261111c-.1793647-.15219536-.2013898-.4209779-.04919445-.6003426.15219536-.1793647.4209779-.2013898.6003426-.04919444L20 23.6661574 23.86016667 20.391c.1793647-.15219536.44814723-.13017026.60034259.04919444.15219536.1793647.13017025.44814724-.04919445.6003426L20 24.78314814z"/>
      </g>
    </g>
  </g>
</svg>
