<svg xmlns="http://www.w3.org/2000/svg" width="60" height="30" viewBox="0 0 60 30">
  <g>
    <path fill="rgb(18,18,18)" fill-rule="evenodd" d="M14.999 0h30.002s.3682 0 .736.0180669c0 0 .3677.018067.7342.0541574 0 0 .3664.0360907.7306.0901167 0 0 .3642.054027.7254.125861 0 0 .3611.071833.7183.161299 0 0 .3571.089467.7095.196351 0 0 .3523.106884.699.230928 0 0 .3467.12404.6869.26495 0 0 .3401.14091.673.29833 0 0 .3328.15743.6576.331 0 0 .3247.17357.6405.36287 0 0 .3158.18929.622.39386 0 0 .3061.20456.6019.4239 0 0 .2957.21934.5804.45293 0 0 .2846.23358.5574.48085 0 0 .2728.24727.5332.50764 0 0 .2604.26035.5076.53318 0 0 .2473.27282.4809.55744 0 0 .2336.28463.4529.58038 0 0 .2193.29574.4239.60189 0 0 .2046.30615.3939.62197 0 0 .1893.31582.3628.64055 0 0 .1736.32473.331.65758 0 0 .1575.33285.2984.67303 0 0 .1409.34018.2649.68686 0 0 .1241.34671.2309.69901 0 0 .1069.3524.1964.7095 0 0 .0895.3572.1613.7183 0 0 .0718.3612.1259.7254 0 0 .054.3642.0901.7306 0 0 .0361.3665.0541.7342 0 0 .0181.3678.0181.736v.002s0 .3682-.0181.736c0 0-.018.3677-.0541.7342 0 0-.0361.3664-.0901.7306 0 0-.0541.3642-.1259.7254 0 0-.0718.3611-.1613.7183 0 0-.0895.3571-.1964.7095 0 0-.1068.3523-.2309.699 0 0-.124.3467-.2649.6869 0 0-.1409.3401-.2984.673 0 0-.1574.3328-.331.6576 0 0-.1735.3247-.3628.6405 0 0-.1893.3158-.3939.622 0 0-.2046.3061-.4239.6019 0 0-.2193.2957-.4529.5804 0 0-.2336.2846-.4809.5574 0 0-.2472.2728-.5076.5332 0 0-.2604.2604-.5332.5076 0 0-.2728.2473-.5574.4809 0 0-.2847.2336-.5804.4529 0 0-.2958.2193-.6019.4239 0 0-.3062.2046-.622.3939 0 0-.3158.1893-.6405.3628 0 0-.3248.1736-.6576.331 0 0-.3329.1575-.673.2984 0 0-.3402.1409-.6869.2649 0 0-.3467.1241-.699.2309 0 0-.3524.1069-.7095.1964 0 0-.3572.0895-.7183.1613 0 0-.3612.0718-.7254.1259 0 0-.3642.054-.7306.0901 0 0-.3665.0361-.7342.0541 0 0-.3678.0181-.736.0181H14.999s-.3682 0-.736-.0181c0 0-.3677-.018-.7342-.0541 0 0-.3664-.0361-.7306-.0901 0 0-.3642-.0541-.7254-.1259 0 0-.3611-.0718-.7183-.1613 0 0-.3571-.0895-.7095-.1964 0 0-.3523-.1068-.69901-.2309 0 0-.34668-.124-.68686-.2649 0 0-.34018-.1409-.67303-.2984 0 0-.33285-.1574-.65758-.331 0 0-.32473-.1735-.64055-.3628 0 0-.31582-.1893-.62197-.3939 0 0-.30615-.2046-.60189-.4239 0 0-.29575-.2193-.58038-.4529 0 0-.28462-.2336-.55744-.4809 0 0-.27283-.2472-.53318-.5076 0 0-.26037-.2604-.50764-.5332 0 0-.24727-.2728-.48085-.5574 0 0-.23359-.2847-.45293-.5804 0 0-.21934-.2958-.4239-.6019 0 0-.20457-.3062-.39386-.622 0 0-.1893-.3158-.36287-.6405 0 0-.17357-.3248-.331-.6576 0 0-.15742-.3329-.29833-.673 0 0-.14091-.3402-.26495-.6869 0 0-.124044-.3467-.230928-.699 0 0-.106884-.3524-.196351-.7095 0 0-.089466-.3572-.161299-.7183 0 0-.071834-.3612-.125861-.7254 0 0-.054026-.3642-.0901167-.7306 0 0-.0360904-.3665-.0541574-.7342 0 0-.0180669-.3678-.0180669-.736v-.002s0-.3682.0180669-.736c0 0 .018067-.3677.0541574-.7342 0 0 .0360907-.3664.0901167-.7306 0 0 .054027-.3642.125861-.7254 0 0 .071833-.3611.161299-.7183 0 0 .089467-.3571.196351-.7095 0 0 .106884-.3523.230928-.69901 0 0 .12404-.34668.26495-.68686 0 0 .14091-.34018.29833-.67303 0 0 .15743-.33285.331-.65758 0 0 .17357-.32473.36287-.64055 0 0 .18929-.31582.39386-.62197 0 0 .20456-.30615.4239-.60189 0 0 .21934-.29575.45293-.58038 0 0 .23358-.28462.48085-.55744 0 0 .24727-.27283.50764-.53318 0 0 .26035-.26037.53318-.50764 0 0 .27282-.24727.55744-.48085 0 0 .28463-.23359.58038-.45293 0 0 .29574-.21934.60189-.4239 0 0 .30615-.20457.62197-.39386 0 0 .31582-.1893.64055-.36287 0 0 .32473-.17357.65758-.331 0 0 .33285-.15742.67303-.29833 0 0 .34018-.14091.68686-.26495 0 0 .34671-.124044.69901-.230928 0 0 .3524-.106884.7095-.196351 0 0 .3572-.089466.7183-.161299 0 0 .3612-.071834.7254-.125861 0 0 .3642-.054026.7306-.0901167 0 0 .3665-.0360904.7342-.0541574 0 0 .3678-.0180669.736-.0180669z"/>
    <path fill="rgb(0,53,186)" fill-rule="evenodd" d="M1.875 15C1.875 7.75126 7.75126 1.875 15 1.875c7.2487 0 13.125 5.87626 13.125 13.125 0 7.2487-5.8763 13.125-13.125 13.125-7.24874 0-13.125-5.8763-13.125-13.125z"/>
    <path fill="rgb(255,255,255)" fill-rule="evenodd" d="M10.62501 15.00001c0-2.41625 1.95875-4.375 4.375-4.375s4.375 1.95875 4.375 4.375-1.95875 4.375-4.375 4.375-4.375-1.95875-4.375-4.375z"/>
  </g>
</svg>
