<svg xmlns="http://www.w3.org/2000/svg" xmlns:xlink="http://www.w3.org/1999/xlink" width="41" height="40.445" viewBox="0 0 41 40.445">
  <defs>
    <rect id="rect-2" width="24" height="24" x="8.5" y="8.222"/>
    <mask id="mask-3" maskContentUnits="userSpaceOnUse" maskUnits="userSpaceOnUse">
      <rect width="41" height="40.445" x="0" y="0" fill="black"/>
      <use fill="white" xlink:href="#rect-2"/>
    </mask>
  </defs>
  <g>
    <g opacity=".2">
      <path fill="rgb(189,189,189)" fill-rule="evenodd" d="M20.2225 0h.555C31.93860158 0 41 9.06139842 41 20.2225S31.93860158 40.445 20.7775 40.445h-.555C9.06139842 40.445 0 31.38360158 0 20.2225S9.06139842 0 20.2225 0z"/>
    </g>
    <g>
      <use fill="none" xlink:href="#rect-2"/>
      <g mask="url(#mask-3)">
        <path fill="rgb(189,189,189)" fill-rule="evenodd" d="M26.41111111 23.43605556c-.24545978 0-.44444444-.19898467-.44444444-.44444445s.19898466-.44444444.44444444-.44444444c.102 0 .998-.00244445 1.09377778-.00533334.99982355-.05961844 1.91013822-.59591955 2.44688889-1.44155555.54933333-.86666667.63022222-1.94466667.22222222-2.9588889-.29317467-.7197991-.86928778-1.28747555-1.59333333-1.57C27.814 16.27183334 27.0251111 16.2465 26.302 16.49827779c-.14799667.05140889-.31172067.028036-.43942067-.06273067-.1277-.09076667-.2035931-.23770911-.20369044-.39438044 0-2.72133334-2.214-4.93533334-4.93533333-4.93533334-2.25043267-.00113533-4.21640178 1.52083156-4.77911112 3.69977778-.03912244.15247289-.13849355.282518-.27533266.36032267-.13683911.07780466-.29941045.09669644-.45044511.052344-.68133334-.20155556-1.41644445-.15333334-2.12555556.13955555-.66771467.27855578-1.19629667.8125789-1.468 1.48311111-.38688889.95866667-.32688889 1.9448889.16844445 2.77777778.09189733.15446311.10290844.34397622.02951822.5080429-.07339.16406666-.22200622.28217555-.39840711.31662377-.49788534.09798689-.857158.53412044-.858 1.04155555v.2888889c.00048977.42726533.34673466.77351022.774.774h3.09422222c.24545978 0 .44444444.19898466.44444444.44444444s-.19898466.44444444-.44444444.44444444h-3.09422222c-.918242-.00098044-1.66227645-.7453131-1.6628889-1.66355555v-.2888889c.00087-.76972021.45319-1.46733688 1.15555556-1.78222221-.1881071-.41069156-.3021571-.851394-.33688889-1.30177778-.05-.63222222.052-1.26866667.30333334-1.89155556.36159844-.89181222 1.064862-1.60195733 1.9531111-1.97222222.79622223-.32866667 1.62444445-.41244444 2.41377779-.24666667.83528377-2.64697533 3.42207044-4.33702533 6.18163244-4.03870466 2.759562.29832089 4.92540333 2.50215089 5.17570089 5.26648244.77666667-.15844444 1.58955556-.08244444 2.37955556.22622222.952098.37231778 1.70932688 1.11958311 2.09422222 2.06666667.5171111 1.28311111.40933333 2.65622222-.29533334 3.76711111-.6905511 1.087496-1.86159044 1.77694067-3.14755555 1.85311111-.14377778.00422222-1.13422222.00533334-1.14377778.00533334z"/>
        <path fill="rgb(189,189,189)" fill-rule="evenodd" d="M16.92733333 26.11627778c-.23280328-.00032702-.42590504-.18024513-.44266666-.41244445-.184-2.55155555 1.74244444-4.77777777 4.294-4.96088889 1.26206709-.09205187 2.50678316.33669259 3.44444444 1.18644445.11777856.10650484.16979078.26775349.13644416.42300513-.03334662.15525165-.14698594.28091987-.29811112.32966667-.15112518.0487468-.3167767.01316638-.43455526-.09333847-.75684165-.68947487-1.76444868-1.03643768-2.78533333-.9591111-2.06177778.14844444-3.61911112 1.94844444-3.47044445 4.01044444.01756835.24477044-.16656895.45745847-.41133333.4751111-.0108889.0008889-.02155556.00111112-.03244445.00111112z"/>
        <path fill="rgb(189,189,189)" fill-rule="evenodd" d="M16.83133333 27.10227778c-.14189562.00010422-.27683615-.06144617-.36977777-.16866667L14.62 24.80916667c-.16077623-.18550631-.14072853-.46622378.04477778-.627.1855063-.16077623.46622377-.14072854.627.04477777l1.57933333 1.82222223 1.82222222-1.57955556c.11970405-.1062511.28729323-.13993117.43875167-.08817506.15145845.05175612.26338948.18095334.2930376.3382408.0296481.15728746-.02756662.31836804-.14978927.42171204l-2.12444444 1.84133333c-.08859082.07712558-.20209626.11959146-.31955556.11955556z"/>
        <path fill="rgb(189,189,189)" fill-rule="evenodd" d="M20.748 30.22805556c-1.12002693-.00094862-2.20170844-.40803985-3.04444444-1.14577778-.18489267-.1615126-.20384594-.44232956-.04233334-.62722222.1615126-.18489267.44232956-.20384594.62722222-.04233334.67933294.59816106 1.55374331.92761582 2.4588889.92644445.11355555 0 .22777777-.0048889.34244444-.01533334 2.06299921-.1844587 3.58589596-2.00632354 3.40155555-4.06933333-.01584024-.15909584.05499358-.31443955.18549589-.40680594.1305023-.09236638.30055959-.10751957.44533706-.03968239.14477748.06783718.2419615.20820943.25450039.36759944.1094934 1.22556919-.27236242 2.44443722-1.06156062 3.3884578-.7891982.94402057-1.9210893 1.53586147-3.1466616 1.64531998 0 0-.2108889.01866667-.42044445.01866667z"/>
        <path fill="rgb(189,189,189)" fill-rule="evenodd" d="M26.59466553 26.63161087l-1.61044312-1.79488945-1.79533386 1.61044502c-.18268394.16396714-.46369934.14879418-.62766647-.03388977-.16396714-.18268203-.14879418-.46369934.03388977-.62766647l2.09266662-1.8777771c.20093155-.18022537.50990105-.16351318.69022179.03733444l1.87755394 2.09266663c.11716843.13052368.14661026.31774902.07516098.47793579-.07142258.16012192-.23030281.26328659-.40561867.26339722h-.0002079c-.12600517-.00014687-.24603653-.05377388-.33022308-.14755631z"/>
      </g>
    </g>
  </g>
</svg>
