<?xml version="1.0" encoding="utf-8"?>
<!-- Generator: Adobe Illustrator 23.0.5, SVG Export Plug-In . SVG Version: 6.00 Build 0)  -->
<svg version="1.1" id="Layer_1" xmlns="http://www.w3.org/2000/svg" xmlns:xlink="http://www.w3.org/1999/xlink" x="0px" y="0px"
	 viewBox="0 0 56.3 20.2" style="enable-background:new 0 0 56.3 20.2;" xml:space="preserve">
<style type="text/css">
	.st0{fill-rule:evenodd;clip-rule:evenodd;fill:#FFF3DF;}
	.st1{enable-background:new    ;}
	.st2{fill:#FDBA45;}
</style>
<g>
	<path class="st0" d="M10.8,0.4h34.6c5.3,0,9.7,4.3,9.7,9.7s-4.3,9.7-9.7,9.7H10.8c-5.3,0-9.7-4.3-9.7-9.7S5.5,0.4,10.8,0.4z"/>
	<g class="st1">
		<path class="st2" d="M11.7,10.7v2.5h-1.5V6.1H13c0.5,0,1,0.1,1.4,0.3s0.7,0.5,0.9,0.8c0.2,0.4,0.3,0.8,0.3,1.2
			c0,0.7-0.2,1.2-0.7,1.6c-0.5,0.4-1.1,0.6-2,0.6H11.7z M11.7,9.5H13c0.4,0,0.7-0.1,0.9-0.3s0.3-0.4,0.3-0.8c0-0.3-0.1-0.6-0.3-0.8
			s-0.5-0.3-0.8-0.3h-1.3V9.5z"/>
		<path class="st2" d="M19,13.3c-0.8,0-1.4-0.2-1.9-0.7s-0.7-1.1-0.7-1.9v-0.1c0-0.5,0.1-1,0.3-1.4c0.2-0.4,0.5-0.7,0.9-1
			c0.4-0.2,0.8-0.3,1.3-0.3c0.7,0,1.3,0.2,1.7,0.7s0.6,1.1,0.6,1.9V11h-3.4c0,0.3,0.2,0.6,0.4,0.8s0.5,0.3,0.9,0.3
			c0.5,0,1-0.2,1.3-0.6l0.7,0.8c-0.2,0.3-0.5,0.5-0.9,0.7C19.8,13.2,19.4,13.3,19,13.3z M18.8,8.9c-0.3,0-0.5,0.1-0.7,0.3
			C18,9.4,17.9,9.7,17.8,10h2V9.9c0-0.3-0.1-0.6-0.3-0.7C19.4,9,19.1,8.9,18.8,8.9z"/>
		<path class="st2" d="M23.3,7.9l0,0.6c0.4-0.5,0.9-0.7,1.5-0.7c0.6,0,1,0.2,1.3,0.5s0.4,0.8,0.4,1.5v3.4h-1.4V9.8
			c0-0.3-0.1-0.5-0.2-0.7C24.8,9,24.5,9,24.2,9c-0.4,0-0.7,0.2-0.9,0.5v3.7h-1.4V7.9H23.3z"/>
		<path class="st2" d="M27.3,10.5c0-0.8,0.2-1.5,0.6-2s0.9-0.7,1.5-0.7c0.5,0,0.9,0.2,1.3,0.6V5.7h1.4v7.5h-1.3l-0.1-0.6
			c-0.4,0.4-0.8,0.7-1.4,0.7c-0.6,0-1.1-0.2-1.5-0.7C27.5,12.1,27.3,11.4,27.3,10.5z M28.8,10.6c0,0.5,0.1,0.9,0.3,1.1
			c0.2,0.3,0.4,0.4,0.8,0.4c0.4,0,0.7-0.2,0.9-0.6V9.5C30.5,9.1,30.2,9,29.8,9C29.1,9,28.8,9.5,28.8,10.6z"/>
		<path class="st2" d="M33.2,6.5c0-0.2,0.1-0.4,0.2-0.5s0.3-0.2,0.6-0.2c0.2,0,0.4,0.1,0.6,0.2c0.1,0.1,0.2,0.3,0.2,0.5
			c0,0.2-0.1,0.4-0.2,0.5c-0.1,0.1-0.3,0.2-0.6,0.2c-0.2,0-0.4-0.1-0.6-0.2C33.3,6.9,33.2,6.7,33.2,6.5z M34.7,13.2h-1.4V7.9h1.4
			V13.2z"/>
		<path class="st2" d="M37.2,7.9l0,0.6c0.4-0.5,0.9-0.7,1.5-0.7c0.6,0,1,0.2,1.3,0.5s0.4,0.8,0.4,1.5v3.4H39V9.8
			c0-0.3-0.1-0.5-0.2-0.7C38.6,9,38.4,9,38.1,9c-0.4,0-0.7,0.2-0.9,0.5v3.7h-1.4V7.9H37.2z"/>
		<path class="st2" d="M41.2,10.5c0-0.8,0.2-1.5,0.6-2s0.9-0.7,1.6-0.7c0.6,0,1,0.2,1.4,0.6l0.1-0.5h1.3V13c0,0.5-0.1,0.9-0.3,1.2
			s-0.5,0.6-0.9,0.8s-0.8,0.3-1.3,0.3c-0.4,0-0.8-0.1-1.1-0.2c-0.4-0.2-0.6-0.4-0.8-0.6l0.6-0.9c0.4,0.4,0.8,0.6,1.3,0.6
			c0.4,0,0.7-0.1,0.9-0.3c0.2-0.2,0.3-0.5,0.3-0.9v-0.3c-0.3,0.4-0.8,0.6-1.3,0.6c-0.6,0-1.1-0.2-1.5-0.7
			C41.4,12,41.2,11.4,41.2,10.5L41.2,10.5z M42.7,10.6c0,0.5,0.1,0.9,0.3,1.1c0.2,0.3,0.5,0.4,0.8,0.4c0.4,0,0.7-0.2,0.9-0.5V9.4
			C44.5,9.1,44.2,9,43.7,9c-0.3,0-0.6,0.1-0.8,0.4C42.8,9.6,42.7,10.1,42.7,10.6z"/>
	</g>
</g>
</svg>
