<svg xmlns="http://www.w3.org/2000/svg" xmlns:xlink="http://www.w3.org/1999/xlink" width="56" height="56.346" viewBox="0 0 56 56.346">
  <defs>
    <rect id="rect-2" width="36" height="36" x="10" y="10.173"/>
    <mask id="mask-3" maskContentUnits="userSpaceOnUse" maskUnits="userSpaceOnUse">
      <rect width="56" height="56.346" x="0" y="0" fill="black"/>
      <use fill="white" xlink:href="#rect-2"/>
    </mask>
  </defs>
  <g>
    <path fill="rgb(255,238,227)" fill-rule="evenodd" d="M28 0c15.45362069 0 28 12.54637931 28 28v.34567901c0 15.45362069-12.54637931 28-28 28s-28-12.54637931-28-28V28C0 12.54637931 12.54637931 0 28 0z"/>
    <g>
      <use fill="none" xlink:href="#rect-2"/>
      <g mask="url(#mask-3)">
        <path fill="rgb(255,133,56)" fill-rule="evenodd" d="M20.77600098 41.1468401c2.22366523 1.24033355 4.70800018 1.89433288 7.20433235 1.89433288 2.5360012 0 5.07133293-.67699814 7.33199882-1.95733261 2.22361374-1.25590897 4.09020615-3.0581398 5.42333603-5.23633194 1.3939972-2.29100037 2.1309967-4.949337 2.1309967-7.68733692 0-3.97099877-1.5463333-7.70100021-4.35266494-10.50533295C35.7076683 14.85050583 31.97066498 13.30617237 28 13.30617237c-3.97066689 0-7.70366669 1.54333305-10.51166725 4.34899998-2.37033272 2.3686657-3.83799935 5.36966705-4.2446661 8.67833328-.36837006 3.0426054.20531654 6.12499142 1.64366627 8.83133602l-1.67099953 5.40799713c-.20273686.65982056-.02049065 1.37762451.4724512 1.86081696.49294187.48318863 1.21424294.65106201 1.86988164.43518448l5.21733475-1.72200012zm.40899849-1.30166626l-.25966645-.15166474-5.78499984 1.90933228c-.18197442.05961227-.38200093.01290893-.5187645-.12112046-.13676357-.13402938-.18749428-.33307266-.1315689-.51621246l1.8386669-5.95066833-.13999938-.24966431c-1.39500046-2.48867035-1.97100067-5.42533493-1.6220007-8.26900196.37033367-3.01033402 1.70633412-5.741333 3.86399937-7.89599991C20.98666763 16.0461731 24.38199997 14.63950634 28 14.63950634s7.01766586 1.40466595 9.5719986 3.95699978c2.55433654 2.55233383 3.96099853 5.9489994 3.96099853 9.5636673 0 2.49400234-.66999817 4.9120016-1.93666458 6.99400234-1.21479416 1.98426819-2.91562271 3.62590027-4.94166565 4.76966476-2.06033325 1.16699982-4.36800003 1.7840004-6.67433357 1.7840004-2.35933304.00033188-4.70899964-.644001-6.79533386-1.86266708z"/>
        <rect width="9.916" height="1.5" x="21.67" y="29.801" fill="rgb(255,133,56)" rx="0" ry="0"/>
        <ellipse cx="33.512" cy="30.494" fill="rgb(255,133,56)" rx=".818" ry=".818"/>
        <rect width="9.916" height="1.5" x="24.413" y="24.967" fill="rgb(255,133,56)" rx="0" ry="0" transform="matrix(-1 0 0 1 58.743 0)"/>
        <ellipse cx="22.488" cy="25.661" fill="rgb(255,133,56)" rx=".818" ry=".818" transform="matrix(-1 0 0 1 44.976 0)"/>
      </g>
    </g>
  </g>
</svg>
