<?xml version="1.0" encoding="utf-8"?>
<!-- Generator: Adobe Illustrator 23.1.0, SVG Export Plug-In . SVG Version: 6.00 Build 0)  -->
<svg version="1.1" xmlns="http://www.w3.org/2000/svg" xmlns:xlink="http://www.w3.org/1999/xlink" x="0px" y="0px"
	 viewBox="0 0 836.9 688.5" style="enable-background:new 0 0 836.9 688.5;" xml:space="preserve">
<style type="text/css">
	.st0{opacity:5.000000e-02;fill-rule:evenodd;clip-rule:evenodd;fill:#008CFF;}
	.st1{fill-rule:evenodd;clip-rule:evenodd;fill:#02CCAA;}
	.st2{fill-rule:evenodd;clip-rule:evenodd;fill:#008CFF;}
	.st3{fill-rule:evenodd;clip-rule:evenodd;fill:#EA3940;}
	.st4{fill:none;stroke:url(#SVGID_1_);stroke-width:60;}
</style>
<g id="Layer_1">
	<g id="Layer_11">
		<path class="st0" d="M740.3,170.8c-8.2-14.2-26.4-19.1-40.7-10.9l-151.8,87.6c11-10.3,12.5-27.3,3.5-39.4
			c-9-12.1-25.6-15.6-38.7-8.1l-2.9,1.7c1.7-1.5,3.5-2.9,5.4-4l77.3-44.6c13.1-7.6,18.4-23.8,12.4-37.6c-6-13.9-21.5-21-36-16.6
			l42.8-24.7c14.2-8.2,19.1-26.4,10.9-40.7c-8.2-14.2-26.4-19.1-40.7-10.9L92.2,305.3c-14.2,8.2-19.1,26.4-10.9,40.7
			c8.2,14.2,26.4,19.1,40.7,10.9l51.6-29.8c14.2-8.2,32.4-3.3,40.7,10.9c8.2,14.2,3.3,32.4-10.9,40.7l-103.1,59.5
			c-9.3,5.3-15,15.1-15.1,25.8c0,10.7,5.7,20.6,14.9,25.9c9.3,5.3,20.7,5.3,29.9-0.1l48.7-28.1c-11.1,10.3-12.6,27.3-3.6,39.5
			c9,12.2,25.7,15.6,38.8,8.1L108.2,571c-9.3,5.3-15,15.1-15.1,25.8c0,10.7,5.7,20.6,14.9,25.9c9.3,5.3,20.7,5.3,29.9-0.1
			l151.8-87.6c-11,10.3-12.6,27.3-3.6,39.5c9,12.1,25.7,15.6,38.8,8.1l360.9-208.3c13.7-8,18.8-25.3,11.5-39.4
			c-7.3-14.1-24.4-20-38.8-13.4c11.3-10.2,13.2-27.3,4.2-39.6c-9-12.3-25.8-15.9-39-8.3l105.7-61.9c6.8-3.9,11.8-10.4,13.9-18.1
			C745.3,185.8,744.2,177.6,740.3,170.8L740.3,170.8z"/>
	</g>
</g>
<g id="Layer_10">
	<path class="st1" d="M744.4,111.8l-22.3-22.3l22.3-22.3l22.3,22.3L744.4,111.8z M727.9,89.5l16.4,16.4l16.4-16.4l-16.4-16.4
		L727.9,89.5z"/>
</g>
<g id="Layer_9">
	<path class="st1" d="M31.2,464.8L8.9,442.5l22.3-22.3l22.3,22.3L31.2,464.8z M14.8,442.5l16.4,16.4l16.4-16.4l-16.4-16.4
		L14.8,442.5z"/>
</g>
<g id="Layer_8">
	<path class="st1" d="M633.2,488.2l-17.7-17.7l17.7-17.7l17.7,17.7L633.2,488.2z M621.4,470.5l11.8,11.8l11.8-11.8l-11.8-11.8
		L621.4,470.5z"/>
</g>
<g id="Layer_7">
	<path class="st2" d="M267.5,681.5c-8.7,0-15.8-7.1-15.8-15.8c0-8.7,7.1-15.8,15.8-15.8c8.7,0,15.8,7.1,15.8,15.8
		C283.3,674.4,276.2,681.5,267.5,681.5z M267.5,654.1c-6.4,0-11.6,5.2-11.6,11.6c0,6.4,5.2,11.6,11.6,11.6c6.4,0,11.6-5.2,11.6-11.6
		C279.1,659.3,273.9,654.1,267.5,654.1z"/>
</g>
<g id="Layer_6">
	<path class="st2" d="M397.3,38.6c-8.7,0-15.8-7.1-15.8-15.8c0-8.7,7.1-15.8,15.8-15.8c8.7,0,15.8,7.1,15.8,15.8
		C413.1,31.5,406,38.6,397.3,38.6z M397.3,11.2c-6.4,0-11.6,5.2-11.6,11.6c0,6.4,5.2,11.6,11.6,11.6c6.4,0,11.6-5.2,11.6-11.6
		C408.9,16.4,403.7,11.2,397.3,11.2L397.3,11.2z"/>
</g>
<g id="Layer_5">
	<path class="st2" d="M812.2,349.9c-8.7,0-15.8-7.1-15.8-15.8c0-8.7,7.1-15.8,15.8-15.8c8.7,0,15.8,7.1,15.8,15.8
		C828,342.9,820.9,349.9,812.2,349.9z M812.2,322.5c-6.4,0-11.6,5.2-11.6,11.6s5.2,11.6,11.6,11.6s11.6-5.2,11.6-11.6
		C823.8,327.7,818.6,322.5,812.2,322.5z"/>
</g>
<g id="Layer_4">
	<path class="st3" d="M516.1,602.3h-34l17-29.5L516.1,602.3z M489.3,598.2h19.6l-9.8-17L489.3,598.2z"/>
</g>
<g id="Layer_3">
	<path class="st3" d="M181,177.3h-34l17-29.5L181,177.3z M154.2,173.1h19.6l-9.8-17L154.2,173.1z"/>
</g>
<g id="tick">
	
		<linearGradient id="SVGID_1_" gradientUnits="userSpaceOnUse" x1="172.8773" y1="-322.0245" x2="608.4915" y2="29.7207" gradientTransform="matrix(1 0 0 -1 0 182)">
		<stop  offset="0" style="stop-color:#005BEA"/>
		<stop  offset="1" style="stop-color:#00C6FB"/>
	</linearGradient>
	<path class="st4" d="M252.1,315.1L366.4,436l218.4-189"/>
</g>
</svg>
