<svg xmlns="http://www.w3.org/2000/svg" width="40" height="40" viewBox="0 0 40 40">
  <g>
    <g opacity=".2">
      <ellipse cx="20" cy="20" fill="rgb(0,140,255)" rx="20" ry="20"/>
    </g>
    <path fill="rgb(0,140,255)" fill-rule="evenodd" d="M29.88920738 22.12166458l.70318476-.00003757-.00000927 4.19770473-21.24363009-.00000596-.0000123-4.19768315.70321983-.0000025c.5745782-.00003221 1.11477813-.22382171 1.52102801-.63007136.40624988-.40624965.63003968-.94644945.63002905-1.5209845-.000043-.57456742-.22373-1.11469182-.6300282-1.52099025-.4062982-.40629843-.94648721-.63005047-1.52102226-.63006142l-.70321983.0000025-.00001231-4.19768315 21.24365167-.00001562.0000231 4.1977371-.70319826-.00001908c-.57459978.00005379-1.11475655.22380013-1.52102801.63007136-.40627146.40627123-.63003968.94644945-.63002905 1.5209845.00002411.5745917.22373 1.11469182.6300282 1.52099025.4062982.40629843.94646833.63007475 1.52102496.63006412zm-17.32168589.36443792c-.50301097.5030107-1.13016427.83682165-1.81228239.97289981l-.00004356 1.4538761 18.43077234-.0000056-.00003196-1.45386532c-.68213692-.13609743-1.30929003-.46990334-1.81230612-.97291971-.67189475-.67189513-1.04197215-1.56526816-1.0419503-2.51550764-.00001053-.95027184.37002421-1.8436123 1.04193553-2.51552323.50303256-.50303227 1.13018585-.83684323 1.81230397-.97292139l.00004357-1.4538761-18.43075077-.00001597.00003196 1.45386532c.68213693.13609742 1.30926845.46992491 1.81228724.97294398.67189475.67189513 1.04199104 1.56524389 1.04192603 2.51552652.00005638.95023138-.37000264 1.84359071-1.04193554 2.51552323zm6.6501834-5.0796577l1.30000841-.00000772-.00002204 1.64681561 1.64681291-.00002381-.00000845 1.30000841-1.64676976-.00001934-.00002474 1.64681291-1.30000841.00000773.00002473-1.64681292-1.6468156.00002112.00000845-1.30000841 1.64681291-.00002382-.00001842-1.64676976z"/>
  </g>
</svg>
