<?xml version="1.0" encoding="utf-8"?>
<!-- Generator: Adobe Illustrator 23.1.0, SVG Export Plug-In . SVG Version: 6.00 Build 0)  -->
<svg version="1.1" id="Layer_1" xmlns="http://www.w3.org/2000/svg" xmlns:xlink="http://www.w3.org/1999/xlink" x="0px" y="0px"
	 viewBox="0 0 32 32" style="enable-background:new 0 0 32 32;" xml:space="preserve">
<style type="text/css">
	.st0{opacity:0.15;fill:#34E8C7;}
	.st1{fill:#34E8C7;}
</style>
<ellipse class="st0" cx="16" cy="16" rx="16" ry="16"/>
<g>
	<g>
		<path class="st1" d="M22.3,8.7c0.2,0,0.5,0.1,0.7,0.3c0.2,0.2,0.3,0.5,0.3,0.7c0,0.3-0.1,0.5-0.3,0.7l-3,2.9
			c-0.4,0.4-0.5,0.9-0.3,1.4l2.1,6.4c0.2,0.5,0,1-0.3,1.4L21,23l-3.2-5.2c-0.3-0.4-0.7-0.6-1.1-0.6c-0.3,0-0.7,0.1-0.9,0.4l-2.5,2.4
			c-0.3,0.3-0.5,0.7-0.4,1.2l0.2,1.5l-0.8,0.8l-0.7-2.1c-0.1-0.4-0.4-0.7-0.8-0.8l-2.1-0.7l0.8-0.8l1.5,0.2c0.1,0,0.1,0,0.2,0
			c0.4,0,0.7-0.1,1-0.4l2.4-2.5c0.6-0.6,0.5-1.6-0.3-2.1L9,11l0.4-0.4c0.3-0.3,0.6-0.4,0.9-0.4c0.1,0,0.3,0,0.4,0.1l6.4,2.1
			c0.1,0,0.3,0.1,0.4,0.1c0.4,0,0.7-0.1,1-0.4l2.9-3C21.7,8.8,22,8.7,22.3,8.7C22.3,8.7,22.3,8.7,22.3,8.7 M22.3,7.7L22.3,7.7
			C22.3,7.7,22.2,7.7,22.3,7.7c-0.6,0-1.1,0.2-1.5,0.6l-2.9,3c-0.1,0.1-0.2,0.1-0.2,0.1c0,0-0.1,0-0.1,0l-6.4-2.1
			c-0.2-0.1-0.5-0.1-0.7-0.1c-0.6,0-1.2,0.2-1.7,0.7l-0.4,0.4l-0.9,0.9l1.1,0.7l5.2,3.2c0.1,0.1,0.1,0.2,0.2,0.2
			c0,0.1,0,0.2-0.1,0.3l-2.4,2.5c-0.1,0.1-0.2,0.1-0.2,0.1c0,0,0,0-0.1,0l-1.5-0.2l-0.5-0.1l-0.4,0.4L8,19l-1.1,1.1l1.5,0.5l2.1,0.7
			c0.1,0,0.2,0.1,0.2,0.2l0.7,2.1l0.5,1.5L13,24l0.8-0.8l0.4-0.4l-0.1-0.5l-0.2-1.5c0-0.1,0-0.2,0.1-0.3l2.5-2.4
			c0.1-0.1,0.2-0.1,0.2-0.1c0.1,0,0.2,0,0.3,0.2l3.2,5.2l0.7,1.1l0.9-0.9l0.4-0.4c0.6-0.6,0.8-1.5,0.6-2.4l-2.1-6.4
			c0-0.1,0-0.3,0.1-0.3l3-2.9c0.4-0.4,0.6-0.9,0.6-1.5c0-0.6-0.2-1.1-0.6-1.5C23.3,7.9,22.8,7.7,22.3,7.7L22.3,7.7z"/>
	</g>
</g>
</svg>
