<svg xmlns="http://www.w3.org/2000/svg" width="32" height="32" viewBox="0 0 32 32">
  <g>
    <g opacity=".15">
      <ellipse cx="16" cy="16" fill="rgb(52,232,199)" rx="16" ry="16"/>
    </g>
    <path fill="rgb(52,232,199)" fill-rule="evenodd" d="M12.58105469 7.44628906c-.6665039-.390625-1.5053711.09082032-1.5053711.86328125v11.53808594c0 .7734375.8388672 1.25390625 1.5053711.86328125l9.8491211-5.76953125c.65917968-.38574219.65917968-1.33886719 0-1.72558594l-9.8491211-5.76953125zm.68066406 2.06347657c-.3334961-.1953125-.75292969.04492187-.75292969.43164062v8.2734375c0 .38671875.4194336.62695313.75292969.43164063l7.06201172-4.13671876c.33007812-.19335937.33007812-.66992187 0-.86328124l-7.06201172-4.13671876zm7.65283203 13.18359374c-.20605469-.58203124-.76220703-1-1.41455078-1-.65234375 0-1.2084961.41796876-1.41455078 1H11.5c-.2758789 0-.5.22363282-.5.5 0 .2763672.2241211.5.5.5h6.58544922c.20605469.58203126.76220703 1 1.41455078 1 .65234375 0 1.2084961-.41796874 1.41455078-1H22.5c.2758789 0 .5-.2236328.5-.5 0-.27636718-.2241211-.5-.5-.5h-1.58544922z"/>
  </g>
</svg>
