<svg xmlns="http://www.w3.org/2000/svg" xmlns:xlink="http://www.w3.org/1999/xlink" width="220" height="181.15" viewBox="0 0 220 181.15">
  <defs>
    <ellipse id="ellipse-10" cx="107.5" cy="83.5" rx="38.5" ry="38.5"/>
    <linearGradient id="linearGradient-11" x1="138.3" x2="30.5" y1="101.21" y2="68.1" gradientUnits="userSpaceOnUse">
      <stop offset="0" stop-color="rgb(0,140,255)"/>
      <stop offset="1" stop-color="rgb(0,77,196)"/>
    </linearGradient>
    <mask id="mask-12" x="0" y="0" maskContentUnits="userSpaceOnUse" maskUnits="userSpaceOnUse">
      <rect width="220" height="181.15" x="0" y="0" fill="black"/>
      <use fill="white" xlink:href="#ellipse-10"/>
    </mask>
    <linearGradient id="linearGradient-14" x1="89.156" x2="150.915" y1="79.218" y2="94.6" gradientUnits="userSpaceOnUse">
      <stop offset="0" stop-color="rgb(0,91,234)"/>
      <stop offset="1" stop-color="rgb(0,198,251)"/>
    </linearGradient>
    <linearGradient id="linearGradient-16" x1="90.865" x2="147.023" y1="43.296" y2="79.694" gradientUnits="userSpaceOnUse">
      <stop offset="0" stop-color="rgb(0,91,234)"/>
      <stop offset="1" stop-color="rgb(0,198,251)"/>
    </linearGradient>
  </defs>
  <g transform="translate(0 2.3e-7)">
    <path fill="rgb(240,248,255)" fill-rule="evenodd" d="M196.44425612 43.98342345c-2.20997666-3.8203122-7.09778134-5.12687961-10.91920904-2.9188324l-40.77457627 23.52881357c2.95125715-2.77794557 3.35661199-7.32491352.9432882-10.5811028-2.41332378-3.25618928-6.88156577-4.19109228-10.39790214-2.1755827l-.76647834.44745762c.44471407-.41409297.93461374-.7768272 1.46045198-1.08135593l20.76949152-12.00263653c3.51947888-2.03107017 4.95533636-6.37925662 3.33746047-10.10678331-1.61787588-3.7275267-5.77468092-5.6483036-9.66194258-4.46459146l11.4826742-6.62900188c2.54703005-1.39176462 4.1398997-4.05442891 4.16173866-6.95682342.02183895-2.90239451-1.53078239-5.58872693-4.05658067-7.01866184-2.52579828-1.42993492-5.6281219-1.37891522-8.10553463.1333007L22.37288136 80.10319747c-3.82355776 2.20752688-5.13360965 7.09668699-2.9260828 10.92024477 2.20752685 3.82355778 7.09668694 5.13360972 10.92024475 2.9260829l13.84839925-7.99416195c3.82412986-2.20752687 8.71375374-.89701122 10.9212806 2.92711864 2.20752687 3.82412986.89701122 8.71375373-2.92711864 10.9212806l-27.68229755 15.98832392c-3.82355783 2.20809889-5.13314605 7.09772275-2.92504716 10.92128058 2.20809889 3.82355783 7.09772275 5.13314605 10.92128058 2.92504716l13.081921-7.55291908c-2.9670875 2.77415766-3.38209676 7.33237115-.96479746 10.59675823 2.4172993 3.26438709 6.89833566 4.1970478 10.41733984 2.16821352l-28.39077213 16.62843692c-2.47340826 1.42801947-3.99709242 4.06711149-3.99709537 6.92315562-.00000296 2.85604412 1.52367572 5.4951393 3.99708103 6.9231639 2.4734053 1.4280246 5.52076811 1.4280277 7.99417633.00000814l40.77043311-23.54124292c-2.9653991 2.77490712-3.37895037 7.33227692-.96148482 10.59564353 2.41746554 3.26336661 6.89761002 4.19554124 10.41609876 2.16725666l96.92636535-55.95913371c3.69340226-2.13945725 5.05456118-6.80305626 3.09186837-10.59335104-1.96269281-3.79029478-6.55682595-5.37012073-10.43555952-3.58856986 3.04848716-2.73490008 3.53702343-7.33134094 1.13151023-10.64592367-2.4055132-3.31458272-6.92694274-4.27510923-10.4721882-2.2246978l28.38041431-16.62843692c1.83793183-1.05918748 3.1793781-2.80560632 3.72880856-4.8545079.54943046-2.04890157.26176618-4.23218033-.79961835-6.06884426h.0062147z"/>
    <path fill="rgb(2,204,170)" fill-rule="evenodd" d="M191.54293823 22.13257599l5.99302674 6.00753403 6.00753784-6.00753403-6.00753784-5.99510384-5.99302674 5.99510384zm5.99302674 4.43107223l-4.41035462-4.43107223 4.41035462-4.38757134 4.40829467 4.40828514-4.40829467 4.41035843z"/>
    <path fill="rgb(2,204,170)" fill-rule="evenodd" d="M0 116.95630646l5.99303198 5.99510193 6.0075326-5.99510193-6.0075326-5.99510193L0 116.95630646zm5.99303198 4.41035461l-4.41035783-4.41036224 4.41035783-4.41035462 4.40828657 4.41035462-4.40828657 4.41036224z"/>
    <path fill="rgb(2,204,170)" fill-rule="evenodd" d="M162.92430115 124.4698639l4.75009155 4.75216674 4.75216675-4.75216675-4.75216675-4.75009155-4.75009155 4.75009155zm4.75009155 3.16741943l-3.16741943-3.16741944 3.16741943-3.16535187 3.16949463 3.16535187-3.16949463 3.16741944z"/>
    <path fill="rgb(0,140,255)" fill-rule="evenodd" d="M65.23145294 176.91355896c0 2.3396759 1.89667511 4.23634338 4.23634339 4.23634338 1.12355041 0 2.20108032-.44631958 2.99555206-1.24078369.79447174-.79447937 1.24079895-1.87200928 1.24079895-2.99555969 0-2.33966064-1.89667511-4.23634338-4.23635101-4.23634338-2.33966828 0-4.23634339 1.89668274-4.23634339 4.23634338zm1.13936615-.003479c-.00380707-1.71479798 1.38220215-3.10852051 3.09697724-3.1142273 1.71782684-.00001526 3.1119995 1.38952637 3.1177063 3.10734558-.00000763 1.71478272-1.38911439 3.10542298-3.10390473 3.10731507-1.71479034.00190734-3.10697174-1.38565064-3.1107788-3.10043335z"/>
    <path fill="rgb(0,140,255)" fill-rule="evenodd" d="M100.08964539 4.23358322c-.00152588 2.33912945 1.89307403 4.23681736 4.23220062 4.23910522 1.12443542.00165081 2.20335388-.4440155 2.9988327-1.23872232.79548645-.79470778 1.24221039-1.87318754 1.24165344-2.99762392 0-2.3391298-1.89583587-4.23558219-4.23496246-4.2363422-2.33912659-.0007636-4.23619843 1.89445353-4.2377243 4.23358322zm1.3537979-1.18506026c.4806366-1.16640842 1.61684419-1.92819953 2.87839509-1.929883.82662964-.00385762 1.62072754.32181858 2.20661163.90497732.58587647.58315897.91524506 1.3757298.91523743 2.20236706.00418854 1.26154995-.75230408 2.40128804-1.91645813 2.88735485-1.16416168.4860673-2.50650787.222651-3.40063477-.66732502-.89413452-.8899765-1.16379547-2.23108291-.68315124-3.39749121z"/>
    <path fill="rgb(0,140,255)" fill-rule="evenodd" d="M211.52731323 87.85705566c0 2.3396759 1.89668274 4.23635102 4.23634339 4.23635102 2.33920288-.00114441 4.23521423-1.89714814 4.23634338-4.23635102 0-2.33966827-1.89666748-4.23634338-4.23634338-4.23634338-2.33966065 0-4.23634339 1.89667511-4.23634339 4.23634338zm1.34858704-1.20028686c.48582458-1.16466522 1.62582397-1.92160797 2.88775635-1.9174118.82591247-.00000763 1.61785888.32879638 2.20089721.91377258.58303833.58498382.90919495 1.3780136.90644837 2.20392608 0 1.26193238-.76074219 2.39941407-1.92701721 2.88136292-1.16627503.48194122-2.50805665.21330261-3.39889527-.68050385-.89083862-.89380645-1.15501404-2.2364807-.66918945-3.40114593z"/>
    <path fill="rgb(234,57,64)" fill-rule="evenodd" d="M127.09453583 159.88531494h9.13767242l-4.56987-7.91337585-4.56780242 7.91337585zm7.20488739-1.11865234h-5.26176453l2.6308899-4.55743408 2.63087463 4.55743408z"/>
    <path fill="rgb(234,57,64)" fill-rule="evenodd" d="M37.0809784 45.7276802h9.1355934L41.6384163 37.8122368l-4.5574379 7.91544342zm7.20282745-1.12071609h-5.26177216l2.63088608-4.5574379 2.63088608 4.5574379z"/>
    <use fill-opacity="0" stroke="url(#linearGradient-11)" stroke-linecap="butt" stroke-linejoin="miter" stroke-width="16" mask="url(#mask-12)" xlink:href="#ellipse-10"/>
    <path fill="url(#linearGradient-14)" fill-rule="evenodd" d="M108.00508475 89.97419558c-2.14821093 0-3.83032015 1.72354049-3.83032015 3.92354049s1.68210922 3.92768361 3.83032015 3.92768361c2.18549905 0 3.83239171-1.68625235 3.83239171-3.92146892 0-2.23521658-1.64689266-3.92975518-3.83239171-3.92975518z"/>
    <path fill="url(#linearGradient-16)" fill-rule="evenodd" d="M104.54971751 72.30790556l.43709982 15.01883239h6.03653484l.43917137-15.0188324c.02686423-.93426459-.32543901-1.83964707-.97670748-2.51003606-.65126847-.670389-1.54608058-1.0487358-2.48073131-1.04890932-.934652-.00042002-1.8296072.37781033-2.48067576 1.04839534-.65106857.67058501-1.00270872 1.57631797-.97469148 2.51055005z"/>
  </g>
</svg>
