<svg xmlns="http://www.w3.org/2000/svg" xmlns:xlink="http://www.w3.org/1999/xlink" width="40" height="40" viewBox="0 0 40 40">
  <defs>
    <rect id="rect-2" width="22" height="22" x="9" y="9"/>
    <mask id="mask-3" maskContentUnits="userSpaceOnUse" maskUnits="userSpaceOnUse">
      <rect width="40" height="40" x="0" y="0" fill="black"/>
      <use fill="white" xlink:href="#rect-2"/>
    </mask>
  </defs>
  <g>
    <ellipse cx="20" cy="20" fill="rgb(205,232,255)" rx="20" ry="20"/>
    <g>
      <use fill="none" xlink:href="#rect-2"/>
      <g mask="url(#mask-3)">
        <path fill="rgb(0,140,255)" fill-rule="evenodd" d="M12.8865242 28.72824097h14.2269535c1.72984505-.001894 3.13162232-1.40386391 3.1332798-3.13370896V16.5384369c-.00189399-1.7296772-1.4036026-3.1313858-3.1332798-3.13328075H12.8865242c-1.7296791.00189495-3.13138676 1.40360355-3.1332817 3.13328075v9.05609512c.00165748 1.72984505 1.4034357 3.13181496 3.1332817 3.13370896zM10.698555 16.53843689c.00189304-1.20759678.98037147-2.18607521 2.1879692-2.18796825h14.2269535c1.20759583.00189304 2.18607522.98037147 2.1879673 2.18796825v9.05609512c-.00165557 1.20776367-.98020362 2.18650437-2.1879673 2.18839646H12.8865242c-1.20776463-.0018921-2.18631268-.98063279-2.1879692-2.18839646V16.5384369z"/>
        <path fill="rgb(0,140,255)" fill-rule="evenodd" d="M24.47691406 14.15625c-.26104084 0-.47265625-.21161541-.47265625-.47265625v-1.93917969c0-.26104084.21161541-.47265625.47265625-.47265625s.47265625.21161541.47265625.47265625v1.93917969c0 .26104084-.2116154.47265625-.47265625.47265625z"/>
        <path fill="rgb(0,140,255)" fill-rule="evenodd" d="M15.52308594 14.15625c-.26104084 0-.47265625-.21161541-.47265625-.47265625v-1.93917969c0-.26104084.2116154-.47265625.47265625-.47265625.26104084 0 .47265625.21161541.47265625.47265625v1.93917969c0 .26104084-.21161541.47265625-.47265625.47265625z"/>
        <path fill="rgb(0,140,255)" fill-rule="evenodd" d="M15.9471875 21.75613281h-2.78308594c-.29663731 0-.53710937-.24047206-.53710937-.53710937 0-.29663732.24047206-.53710938.53710937-.53710938h2.78308594c.29663732 0 .53710937.24047206.53710937.53710938 0 .29663731-.24047205.53710937-.53710937.53710937z"/>
        <path fill="rgb(0,140,255)" fill-rule="evenodd" d="M21.39132813 21.75613281h-2.78265625c-.29663732 0-.53710938-.24047206-.53710938-.53710937 0-.29663732.24047206-.53710938.53710938-.53710938h2.78265625c.29663731 0 .53710937.24047206.53710937.53710938 0 .29663731-.24047206.53710937-.53710938.53710937z"/>
        <path fill="rgb(0,140,255)" fill-rule="evenodd" d="M26.83589844 21.75613281H24.0528125c-.29663732 0-.53710938-.24047206-.53710938-.53710937 0-.29663732.24047206-.53710938.53710938-.53710938h2.78308594c.29663731 0 .53710937.24047206.53710937.53710938 0 .29663731-.24047206.53710937-.53710937.53710937z"/>
        <path fill="rgb(0,140,255)" fill-rule="evenodd" d="M15.9471875 25.121875h-2.78308594c-.29663731 0-.53710937-.24047206-.53710937-.53710938 0-.29663731.24047206-.53710937.53710937-.53710937h2.78308594c.29663732 0 .53710937.24047206.53710937.53710937 0 .29663732-.24047205.53710938-.53710937.53710938z"/>
        <path fill="rgb(0,140,255)" fill-rule="evenodd" d="M21.39132813 25.121875h-2.78265625c-.29663732 0-.53710938-.24047206-.53710938-.53710938 0-.29663731.24047206-.53710937.53710938-.53710937h2.78265625c.29663731 0 .53710937.24047206.53710937.53710937 0 .29663732-.24047206.53710938-.53710938.53710938z"/>
        <path fill="rgb(0,140,255)" fill-rule="evenodd" d="M29.77410156 17.80214844H10.22589844c-.26104084 0-.47265625-.21161541-.47265625-.47265625s.2116154-.47265625.47265625-.47265625h19.54820312c.26104084 0 .47265625.2116154.47265625.47265625 0 .26104084-.2116154.47265625-.47265625.47265625z"/>
      </g>
    </g>
  </g>
</svg>
