<svg xmlns="http://www.w3.org/2000/svg" xmlns:xlink="http://www.w3.org/1999/xlink" width="40" height="40" viewBox="0 0 40 40">
  <defs>
    <rect id="rect-2" width="22" height="22" x="9" y="9"/>
    <mask id="mask-3" maskContentUnits="userSpaceOnUse" maskUnits="userSpaceOnUse">
      <rect width="40" height="40" x="0" y="0" fill="black"/>
      <use fill="white" xlink:href="#rect-2"/>
    </mask>
  </defs>
  <g>
    <ellipse cx="20" cy="20" fill="rgb(219,228,255)" rx="20" ry="20"/>
    <g>
      <use fill="none" xlink:href="#rect-2"/>
      <g mask="url(#mask-3)">
        <path fill="rgb(71,114,229)" fill-rule="evenodd" d="M13.56457043 15.29320335h12.87085819c.36497116 0 .71496963-.14510154.97288132-.40333557.25791168-.25823402.40257644-.6084137.40211868-.97338295V11.40625c0-.75939178-.61560822-1.375-1.375-1.375h-12.8708582c-.75939178 0-1.375.61560822-1.375 1.375v2.51195335c0 .75939179.61560822 1.375 1.375 1.375zm-.34375-3.88695335c0-.18984795.15390205-.34375.34375-.34375h12.87085819c.18984985 0 .34375.15390205.34375.34375v2.51023483c0 .18984795-.15390015.34375-.34375.34375h-12.8708582c-.18984794 0-.34375-.15390205-.34375-.34375V11.40625z"/>
        <path fill="rgb(71,114,229)" fill-rule="evenodd" d="M13.56457043 22.63011742h12.87085819c.75939178 0 1.375-.61560822 1.375-1.375v-2.51023484c0-.75939178-.61560822-1.375-1.375-1.375h-12.8708582c-.75939178 0-1.375.61560822-1.375 1.375v2.51023484c0 .75939178.61560822 1.375 1.375 1.375zm-.34375-3.88523484c0-.18984794.15390205-.34375.34375-.34375h12.87085819c.18984985 0 .34375.15390206.34375.34375v2.51023484c0 .18984794-.15390015.34375-.34375.34375h-12.8708582c-.18984794 0-.34375-.15390206-.34375-.34375v-2.51023484z"/>
        <path fill="rgb(71,114,229)" fill-rule="evenodd" d="M13.56457043 29.96875h12.87085819c.75939178 0 1.375-.61560822 1.375-1.375v-2.51195335c0-.75939179-.61560822-1.375-1.375-1.375h-12.8708582c-.75939178 0-1.375.61560821-1.375 1.375V28.59375c0 .75939178.61560822 1.375 1.375 1.375zm-.34375-3.88695335c0-.18984795.15390205-.34375.34375-.34375h12.87085819c.18984985 0 .34375.15390205.34375.34375V28.59375c0 .18984795-.15390015.34375-.34375.34375h-12.8708582c-.18984794 0-.34375-.15390205-.34375-.34375v-2.51195335z"/>
        <ellipse cx="15.15" cy="12.663" fill="rgb(71,114,229)" rx=".818" ry=".818"/>
        <ellipse cx="15.15" cy="27.337" fill="rgb(71,114,229)" rx=".818" ry=".818"/>
        <ellipse cx="24.822" cy="20" fill="rgb(71,114,229)" rx=".818" ry=".818"/>
      </g>
    </g>
  </g>
</svg>
