<svg xmlns="http://www.w3.org/2000/svg" xmlns:xlink="http://www.w3.org/1999/xlink" width="40" height="40.5" viewBox="0 0 40 40.5">
  <defs>
    <rect id="rect-2" width="28" height="28" x="6" y="5.25"/>
    <mask id="mask-3" maskContentUnits="userSpaceOnUse" maskUnits="userSpaceOnUse">
      <rect width="40" height="40.5" x="0" y="0" fill="black"/>
      <use fill="white" xlink:href="#rect-2"/>
    </mask>
  </defs>
  <g>
    <ellipse cx="20" cy="20.25" fill="rgb(209,250,255)" rx="20" ry="20.25"/>
    <g>
      <use fill="none" xlink:href="#rect-2"/>
      <g mask="url(#mask-3)">
        <path fill="rgb(26,165,207)" fill-rule="evenodd" d="M21.78959274 8.6791687c.01955796.48206997-.15620231.951643-.48748398 1.30239391-.69795227.7341547-1.85424995.77712536-2.60476493.096797-.35857582-.32266427-.5717888-.77636433-.59134674-1.25834561-.01955986-.48198128.15618705-.9514656.4874401-1.30212355.69779969-.73431492 1.8541031-.7775278 2.60476494-.09734392.35860825.32276058.57183266.77655125.59139061 1.25862217zM20 11.3782816c4.83711147 0 8.80468655 3.71273422 9.07812405 8.37757778h2.4609375c-.24281311-5.27242089-4.19945145-9.6135149-9.36632824-10.57874966-.09898377.9925785-1.0554676 1.77242184-2.22359276 1.77242184-1.16812515 0-2.11421776-.77000046-2.22195244-1.7543745-5.1171093 1.00296878-9.0234375 5.32273387-9.26406288 10.56015681H10.921875C11.1953125 15.09375 15.16234398 11.3782816 20 11.3782816zm2.73467636 15.18001365c-.06303215-.0184784-.11608887-.06134033-.14741135-.11907578l-2.33187484-4.98531246c-.24020767.06373215-.49259568.06598854-.7339058.00656128-.48398399-.12359237-.84874916-.53703117-.99039077-1.02921867l-5.0279684-1.51867104c-.45117188-.11484337-.5496092-.48617172-.52062512-.64531326.10445308-.56710815.6283598-.5315628 1.07898521-.41726494l4.83109283 1.35023499c.1711731-.34671975.858593-.67374993 1.30046845-.6015625l2.43632889-2.40625c.32905578-.33095646.86282348-.3365574 1.19874954-.01257897.21295547.21073342.29408836.52079964.21164131.80882836-.04027557.14317703-.11739921.27328682-.22367287.37734413l-2.43359375 2.40625c.03714371.21128464.0266819.42819214-.03062438.63492203-.10155106.3539009-.32966614.6581192-.64093781.85476493l2.30945396 4.93663884c.0658207.1206169.02243615.27173614-.09734535.33906555-.05753517.03168487-.1253357.0391159-.18836975.02063751zm-2.98514557-5.90665531c-.16156769-.0405159-.29974746-.14492226-.38285446-.28927803-.0831089-.14435578-.10401535-.31627846-.05792618-.47634697.09703827-.33678627.44283104-.5367279.78312493-.4528122.16148376.04065323.29956436.14508438.38264846.2893982.08308411.14431572.10406113.31616401.05813218.4762268-.09655571.33716393-.44274521.53733445-.78312493.4528122zm9.64687634 6.17914295c-.36258698-.26374817-.79960251-.40546417-1.24797058-.40468979-1.1484375 0-2.078125.89304733-2.078125 1.99445343.00141906.43251038.14775467.85206604.41562652 1.19164276-1.87257767 1.24505234-4.06513119 1.92228699-6.31367206 1.95015335v-2.40625c4.9339075-.09187317 8.91952991-4.04195022 8.91952991-8.8878107v-.07437516h2.46148682v.07437516c-.00009537 2.36164093-.75590897 4.66127872-2.15687561 6.56250095zM10.9060154 20.19609451v.07437516c0 4.81195354 3.9298439 8.74070262 8.81398582 8.88453197v2.40625c-2.240139-.04858017-4.4188385-.7415886-6.27539158-1.99609375.28311062-.35033417.43753147-.78715134.4375-1.23757935 0-1.10304641-.90890598-1.99663925-2.03054714-1.99663925-.46623325-.0007019-.91863823.15833283-1.28187466.45062256-1.37771415-1.89139938-2.11987495-4.17111492-2.11968803-6.51109218v-.07437516h2.45601559zm.92481613 6.5126791c.41612625-.01593017.82128143.1355629 1.1248722.4206009.63592244.59523391.67516327 1.5911064.08804608 2.2345314-.2810669.30714798-.67340756.48897934-1.08944225.5049057-.4160347.01592636-.8211279-.13537598-1.1248541-.42013932-.63563346-.59536743-.6748638-1.59099578-.08804702-2.2345314.2809105-.307415.67329788-.4894371 1.08942509-.50536728zm15.08057499.6016159c-.5869751.64356996-.54748917 1.6394539.08859253 2.23453141.30358886.28504181.70874405.43653488 1.12487411.4206047.41612625-.01593017.80851364-.19795226 1.08942413-.50537109.58691025-.64338684.54742432-1.6390953-.08859634-2.23398208-.30358887-.28562546-.70906448-.43753434-1.1255951-.42170334-.4165306.015831-.80930328.19807815-1.09033965.5059204h.00164032z"/>
      </g>
    </g>
  </g>
</svg>
