<svg xmlns="http://www.w3.org/2000/svg" xmlns:xlink="http://www.w3.org/1999/xlink" width="40" height="40" viewBox="0 0 40 40">
  <defs>
    <rect id="rect-2" width="26" height="26" x="7" y="7"/>
    <mask id="mask-3" maskContentUnits="userSpaceOnUse" maskUnits="userSpaceOnUse">
      <rect width="40" height="40" x="0" y="0" fill="black"/>
      <use fill="white" xlink:href="#rect-2"/>
    </mask>
    <path id="path-5" fill-rule="evenodd" d="M18.13811302 14.99368668c.00076294-.9881611.80163574-1.7890339 1.78979683-1.78979683.72471619-.00055981 1.37835693.43564224 1.65595436 1.10508632.27759552.66944409.12443733 1.44019795-.38801575 1.95265103-.51245117.51245117-1.28320693.66560936-1.95265007.38801384-.66944503-.27759552-1.10564613-.93123722-1.10508537-1.65595436zm5.11139107 7.18753242h-6.5v-2.16666794c.00138473-1.34544563 1.09173965-2.43580055 2.43718529-2.43718528h1.62562942c1.34544563.00138473 2.43580055 1.09173965 2.43718529 2.43718528v2.16666794z"/>
    <mask id="mask-6" x="0" y="0" maskContentUnits="userSpaceOnUse" maskUnits="userSpaceOnUse">
      <rect width="40" height="40" x="0" y="0" fill="black"/>
      <use fill="white" xlink:href="#path-5"/>
    </mask>
  </defs>
  <g>
    <ellipse cx="20" cy="20" fill="rgb(227,252,255)" rx="20" ry="20"/>
    <g>
      <use fill="none" xlink:href="#rect-2"/>
      <g mask="url(#mask-3)">
        <path fill="rgb(92,195,208)" fill-rule="evenodd" d="M18.94628906 32.22609425c.26262665.30926132.64798355.4873619 1.05371094.48699188.40548325.0004158.79063797-.17749024 1.05320358-.48648453l6.92046738-8.1331253c.66929626-.77593708 1.16796875-1.60011769 1.48179626-2.44664097 1.16543198-3.07429505.72820664-6.55078125-1.16796875-9.29296875C26.38117218 9.59492207 23.3622265 8.012578 20.00050735 8.012578c-3.36171722 0-6.38117122 1.58234406-8.28749942 4.34128857-1.89617157 2.74371147-2.33390618 6.21613311-1.17304707 9.28636741.31636715.85515786.815547 1.68035317 1.48078156 2.45019818l6.92554664 8.13566208zM12.63164043 12.9891405c1.69457055-2.452734 4.37988377-3.859375 7.36835957-3.859375s5.67378998 1.406641 7.36886787 3.859375c1.6869526 2.44054699 2.07644463 5.53109264 1.04203034 8.26820278-.26761627.72464752-.6992569 1.43406296-1.28324127 2.11097718L20.203125 31.50246143c-.05056.0597458-.12485695.09420395-.203125.09420395s-.152565-.03445816-.203125-.09420395l-6.92808628-8.13921833c-.58042908-.67183685-1.01105404-1.38277435-1.28273392-2.11453247-1.0313673-2.7305069-.64136696-5.81902313 1.04558563-8.25957012z"/>
        <use fill-opacity="0" stroke="rgb(92,195,208)" stroke-linecap="butt" stroke-linejoin="miter" stroke-width="2" mask="url(#mask-6)" xlink:href="#path-5"/>
      </g>
    </g>
  </g>
</svg>
