<svg xmlns="http://www.w3.org/2000/svg" xmlns:xlink="http://www.w3.org/1999/xlink" width="40" height="40" viewBox="0 0 40 40">
  <defs>
    <rect id="rect-2" width="24" height="24" x="9" y="8"/>
    <mask id="mask-3" maskContentUnits="userSpaceOnUse" maskUnits="userSpaceOnUse">
      <rect width="40" height="40" x="0" y="0" fill="black"/>
      <use fill="white" xlink:href="#rect-2"/>
    </mask>
  </defs>
  <g>
    <ellipse cx="20" cy="20" fill="rgb(255,236,241)" rx="20" ry="20"/>
    <g>
      <use fill="none" xlink:href="#rect-2"/>
      <g mask="url(#mask-3)">
        <path fill="rgb(232,112,148)" fill-rule="evenodd" d="M20.0625 29.81515625c-5.4121875 0-9.81515625-4.40296875-9.81515625-9.81515625 0-5.4121875 4.40296875-9.81515625 9.81515625-9.81515625 4.22470054-.00469872 7.9773408 2.69734582 9.31265625 6.70546875.09837572.29473884-.06080804.61342115-.35554687.71179687-.29473884.09837573-.61342115-.06080803-.71179688-.35554686-1.18213025-3.54881652-4.50478971-5.94116911-8.2453125-5.93671876-4.79203125 0-8.69015625 3.898125-8.69015625 8.69015625 0 4.79203125 3.898125 8.69015625 8.69015625 8.69015625 3.49439492.00438737 6.65051973-2.08756377 8.00765625-5.30765625.07599015-.18850837.24776255-.32136162.44932104-.3475166.2015585-.02615499.40154997.05845679.5231363.2213269.12158635.1628701.14585438.37866353.06348016.56447095-1.53268396 3.6367001-5.09711642 5.9993167-9.04359375 5.994375z"/>
        <path fill="rgb(232,112,148)" fill-rule="evenodd" d="M30.2475 20.53296875H17.58796875c-.31066017 0-.5625-.25183983-.5625-.5625s.25183983-.5625.5625-.5625H30.2475c.31066017 0 .5625.25183983.5625.5625s-.25183983.5625-.5625.5625z"/>
        <path fill="rgb(232,112,148)" fill-rule="evenodd" d="M29.25421875 18.93921875c-.00182521-.10621418.05318182-.20532565.14428171-.25996624.0910999-.05464059.20443743-.05650013.29728079-.00487751l.92765625.515625.9271875.515625c.09332.0513566.15201782.14872958.1538574.25523188.00183959.1065023-.05346042.20584433-.14495115.26039312l-.9103125.545625-.90984375.545625c-.09104252.05460278-.2042977.05649447-.29711297.00496265-.09281528-.05153181-.1510936-.14866033-.15288703-.2548064L29.27203125 20l-.0178125-1.06078125z"/>
      </g>
    </g>
  </g>
</svg>
