<svg xmlns="http://www.w3.org/2000/svg" xmlns:xlink="http://www.w3.org/1999/xlink" width="56" height="56" viewBox="0 0 56 56">
  <defs>
    <rect id="rect-1" width="56" height="56" x="0" y="0"/>
    <mask id="mask-2" maskContentUnits="userSpaceOnUse" maskUnits="userSpaceOnUse">
      <rect width="56" height="56" x="0" y="0" fill="black"/>
      <use fill="white" xlink:href="#rect-1"/>
    </mask>
    <path id="path-4" fill-rule="evenodd" d="M28 1.14074075C13.17597103 1.14074075 1.14074075 13.17597103 1.14074075 28c0 14.82402802 12.03523028 26.85925674 26.85925925 26.85925674 14.82402802 0 26.85925674-12.03522872 26.85925674-26.85925674C54.85925674 13.17597103 42.82402802 1.14074075 28 1.14074075z"/>
    <mask id="mask-5" maskContentUnits="userSpaceOnUse" maskUnits="userSpaceOnUse">
      <rect width="56" height="56" x="0" y="0" fill="black"/>
      <use fill="white" xlink:href="#path-4"/>
    </mask>
  </defs>
  <g>
    <use fill="none" xlink:href="#rect-1"/>
    <g mask="url(#mask-2)">
      <ellipse cx="28" cy="28" fill="rgb(250,251,255)" rx="26.859" ry="26.859"/>
      <g>
        <use fill="none" xlink:href="#path-4"/>
        <g mask="url(#mask-5)">
          <path fill="rgb(0,169,157)" fill-rule="evenodd" d="M7.68428977 46.2373314l18.56232955-8.17985796H30.65125l17.7444034 8.74602272v20.89082387H6.74048296l.94380682-21.45698864z"/>
          <path fill="rgb(53,44,56)" fill-rule="evenodd" d="M36.94886364 41.04818366V67.7951439h8.54914772c.13125-1.00704545.23863637-1.8828409.29113637-2.5653409C46.09042613 61.44562684 48.16 46.05000184 48.16 46.05000184l-11.21113636-5.00181819z"/>
          <path fill="rgb(53,44,56)" fill-rule="evenodd" d="M19.5140909 40.8817348L7.76125 46.06849616s2.28613636 15.1534091 2.58801136 18.93579546c.0596591.73559659.17480114 1.68954545.32036932 2.79085227h8.84446023V40.8817348z"/>
          <path fill="rgb(60,51,63)" fill-rule="evenodd" d="M44.04829545 67.7951439c-.40448863-7.91079546 2.56534091-20.98568183 3.22159091-21.67534092 1.02852273-.5775 1.588125.64252841 1.588125.64252841S51.85946023 57.69008707 54.25 67.7951439H44.04829545z"/>
          <path fill="rgb(60,51,63)" fill-rule="evenodd" d="M11.95170455 67.7951439c.40448863-7.91079546-2.56534091-20.98568183-3.22159091-21.67534092-1.02852273-.5775-1.588125.64252841-1.588125.64252841S4.14053977 57.69008707 1.75 67.7951439h10.20170455z"/>
          <path fill="rgb(240,190,180)" fill-rule="evenodd" d="M29.01420455 45.88653594c2.62092909-.2383698 4.57110832-2.52722672 4.3903125-5.15275568l-.7159091-10.3759091h-9.10338068l.14974432 10.78099432c.02017452 1.34737777.60113249 2.62535085 1.60308612 3.52641843 1.00195364.90106758 2.33418825 1.34364898 3.67614684 1.22125203z"/>
          <path fill="rgb(240,190,180)" fill-rule="evenodd" d="M23.52079582 41.14184952c.04110527 2.76266098 2.29373932 4.97994613 5.05670357 4.97735595.15153503 0 .30307007-.00656127.4552002-.02087783 2.71389198-.2487793 4.76974487-2.66020203 4.58301162-5.3794632l-.72724533-10.57397652H23.3680687l.15272712 10.9969616zm.42536926-.0065651l-.14676094-10.56443023h8.69173432l.69979858 10.17784118c.17122269 2.48957444-1.71161842 4.69934845-4.19701576 4.9260521-1.28316307.11725998-2.55710983-.3058281-3.5151844-1.16742707-.95807457-.86159896-1.5134964-2.08366394-1.5325718-3.37203598z"/>
          <path fill="rgb(224,173,166)" fill-rule="evenodd" d="M28.13125 40.6979848c2.3034375.04832386 4.1349716-.96170454 5.27982955-2.94835227l-.52261364-7.60474432h-9.52039773l.11454546 8.24488636c1.30832386 1.31071023 2.58980113 2.2646591 4.64863636 2.30821023z"/>
          <path fill="rgb(240,190,180)" fill-rule="evenodd" d="M18.69318182 21.71565526c-.46116477.17897727-.72068182.78272727-.77556818 1.3512784-.13237318 1.48498844.33341903 2.96139296 1.29400568 4.1015625.15511363.18255682.3275284.35795455.54528409.4599716 1.49505682.695625.9384375-3.67440341.79048295-4.35213069-.16465909-.75110795-.91099431-1.93176136-1.85420454-1.56068181z"/>
          <path fill="rgb(240,190,180)" fill-rule="evenodd" d="M19.6351986 27.87843895c.129961.06435776.27261161.09900093.41761398.10142136.16368293-.00000763.32235145-.0564785.4492321-.15988732 1.00167656-.80181694.32096672-4.56749916.31261444-4.60448837-.12647629-.58107948-.54468727-1.3578415-1.16275597-1.69014168-.32623482-.18270874-.71746635-.20857239-1.0649147-.07039833-.6126976.23804092-.89070892.97423363-.95036888 1.58395004-.14386368 1.56022835.3459072 3.1127472 1.35903358 4.3079834.1622734.19150543.36630821.40448761.63954544.5315609zm-.84477235-5.9068451c.08183098-.03267478.1690197-.04986953.25712967-.05071067.12197304.00088692.24169731.03292274.34781266.09306908.43789863.23505592.7815342.8549137.88295555 1.31846427.17897606.83940506.43014145 3.6123581-.11931992 4.05264283l-.00032616.0002594c-.02882194.02282142-.09643936.07636451-.28484344-.01219178-.17599487-.0817318-.326931-.2416191-.4510231-.38778305-.90852356-1.08483505-1.35040474-2.48534202-1.2289772-3.8951416.0417614-.45818329.2434101-.98139381.59659194-1.11860847z"/>
          <path fill="rgb(203,140,132)" fill-rule="evenodd" d="M20.02894886 26.45497344c-.02171433.0000715-.0433547-.00253337-.06443181-.00775568-.66038528-.17883967-1.0535005-.85621154-.88116478-1.51832387.03130719-.12604165.10530194-.23735.20940341-.315.0135012-.00935562.02765695-.01772944.04235796-.02505682-.0214058-.39935544-.08601574-.79521639-.19269887-1.1806534-.01657778-.07480734-.04936555-.14506685-.09605113-.20582387-.00470993.00945516-.01030299.018444-.01670455.0268466-.03238245.06811146-.05430523.14071807-.0650284.21536931-.01992873.09719248-.0901952.1763702-.18433071.20770765-.09413552.03133746-.19783867.01007377-.27204546-.05578125-.0742068-.06585502-.10764347-.16629642-.08771475-.2634889.02118779-.13675312.06600359-.26877804.13244318-.39017045.09992912-.17897987.2855916-.29326846.49039773-.301875.29829546-.0202841.525.22133522.63477273.61926136.14459086.52315934.2188237 1.0632534.22073864 1.60602273.00069124.12551841-.08298413.23586225-.2040341.2690625-.02993387.00796323-.06096706.01098594-.091875.00894886-.02316776.15444435.00849502.312125.08948864.4456534.08522804.15564852.22985737.27014674.4009091.31738637.13773103.03189721.22944315.16226728.21292456.30267529-.01651859.140408-.13598315.24593376-.27735639.24499517z"/>
          <path fill="rgb(240,190,180)" fill-rule="evenodd" d="M38.18857955 21.71565526c.46116477.17897727.72068181.78272727.77556818 1.3512784.1326417 1.48501764-.33318236 2.96152315-1.29400568 4.1015625-.15511364.18255682-.32752841.35795455-.5452841.4599716-1.49505681.695625-.9384375-3.67440341-.79048295-4.35213069.16167614-.75110795.90801136-1.93176136 1.85420455-1.56068181z"/>
          <path fill="rgb(240,190,180)" fill-rule="evenodd" d="M36.37434387 27.819973c.1273346.10383987.28672028.16034125.4510231.1598873.1443596-.00297737.2863083-.03759765.4158249-.10142135.27264022-.12707329.47607803-.34005547.63954543-.5315609 1.01306534-1.19526863 1.50283051-2.74776268 1.3590355-4.3079834-.05548478-.60971641-.3376732-1.34531402-.9503708-1.58395004-.34744643-.13817406-.73867797-.1123104-1.0649147.07039833-.61806869.33230019-1.03627777 1.1090622-1.16275405 1.69014168-.0083542.03698921-.68906403 3.80267143.31261062 4.60448837zm1.1114502-5.80602074c.10552215-.05933953.22436905-.09095002.34542465-.09187508v-.001194c.08855438-.00004387.17634582.01634216.25892258.04832458.35139084.13721466.55303955.66042519.59658813 1.11860657.12250519 1.41054916-.31922912 2.81212616-1.2283783 3.8975296-.1240921.14616394-.27502822.30605126-.4510231.38778305-.18886947.0882187-.25552368.03541756-.28451538.01245308l-.00065613-.0005207c-.55184555-.44028473-.30187225-3.21323777-.1193161-4.05264283.10141755-.46355056.44505692-1.08340835.88295365-1.31846427z"/>
          <path fill="rgb(203,140,132)" fill-rule="evenodd" d="M36.84982955 26.45497344c-.14137324.00093859-.2608378-.10458717-.2773564-.24499517-.01651858-.140408.07519354-.27077808.21292458-.30267529.17086416-.04610447.31586438-.15926488.40210227-.31380682.08094155-.13376857.11259547-.2916161.08948864-.44625-.03090743.00200517-.06193546-.00101704-.091875-.00894886-.12104997-.03320024-.20472534-.14354408-.2040341-.2690625.00191494-.54276933.07614778-1.08286338.22073864-1.60602273.10977273-.39792613.33826705-.62701704.63536932-.61926136.20471263.0089338.39013208.12343765.48980114.3024716.06637448.12120847.11118842.25302605.13244318.38957385.0210356.09774516-.0120355.19925778-.0866109.2658545-.0745754.0665967-.17916787.08801926-.27392039.05610417s-.16506985-.11225176-.18415621-.21039617c-.01024146-.07441868-.0317671-.1468414-.06383523-.21477272-.00776906-.01417179-.0190729-.0260922-.0328125-.03460228.0071591.00894887-.04295454.07636364-.08053977.21298296-.10626936.38449078-.17067736.7793398-.19210227 1.17767045.01485385.0076205.0292017.01618935.04295454.02565341.10383748.0775281.17762086.18862478.20880682.31440341.17233573.66211233-.2207795 1.3394842-.88116477 1.51832387-.02165795.00537038-.04390884.00797634-.0662216.00775568z"/>
          <path fill="rgb(240,190,180)" fill-rule="evenodd" d="M20.00568182 22.78414957c.07150083-1.34623829.27775904-2.68192007.61568182-3.98701704.52738636-2.00394887 1.73488636-3.85397727 3.60102272-4.87414773 2.06181819-1.12636364 4.55795455-1.33994318 6.80948864-.84536932 1.66150568.36451705 3.25201705 1.27491478 4.22863636 2.6846591 1.03985796 1.50400568 1.15022728 3.77403408 1.3059375 5.54829545.23419946 2.62248912.0181005 5.26571647-.63894886 7.8153409-.53693182 2.06838069-1.44255682 4.12423296-2.89764205 5.7225-1.14664772 1.26-2.69181818 2.20738637-4.42431818 2.25213069-.27337417.006504-.54684026-.00825638-.81792613-.04414773-1.91505682-.25355113-3.49900569-1.52071023-4.64147728-2.99965909-1.70744318-2.2115625-2.69838068-5.03701704-3.0378409-7.82488636-.13487611-1.14402716-.16921206-2.29767523-.10261364-3.44769887z"/>
          <path fill="rgb(57,34,47)" fill-rule="evenodd" d="M31.91005682 32.1213939c-.73380682-1.2928125-2.20738637-2.12744319-3.69588068-2.08806819-1.48849432.039375-2.76102273.61210227-3.42980114 1.93951705-.21830534-.0130757-.43383887-.0556205-.64073864-.12647728-1.13053977-.5900284-1.95622159-1.34948863-2.73298295-2.63215909-.77676136-1.28267045-1.14545455-3.57417613-1.27909091-5.21420454-.3800284 1.82616477-.36630682 6.76235795.88892045 9.24715909 1.27491478 2.52357954 2.71985796 4.79957386 5.47014205 5.45522727 2.5009091.5965909 5.25-.4396875 6.9103125-2.40426136 2.98295455-3.53480114 3.29914773-8.15599432 3.37670455-9.32650569.02684659-.41164772.00417613-2.66974431-.42835228-3.03306818-.14079545-.11931818-.23088068 1.78977273-.28696022 2.13519887-.17002841 1.04701704-.81017046 2.45556818-1.34829546 3.36954545-.60434659 1.0243466-1.81244318 2.0146875-2.80397727 2.6780966z"/>
          <path fill="rgb(240,190,180)" fill-rule="evenodd" d="M28.1580966 31.48125185c-.94201705.40269886-1.96517046.81434659-2.34102274.88653409.73619319.47011363 1.80707387.74215909 2.71269887.72008522.37227272-.00954545 1.81900568-.24400568 2.02840909-.80539772.02028409-.05727273-2.05346591-.57451705-2.40008523-.8012216z"/>
          <path fill="rgb(57,34,47)" fill-rule="evenodd" d="M36.51394886 22.38383707c.02083237.08423041.0290752.17108173.02446023.25772728-.01767254-.08473818-.02587627-.17117745-.02446023-.25772728z"/>
          <path fill="rgb(57,34,47)" fill-rule="evenodd" d="M20.27474403 24.51605415c.18434716-1.57917785.28457451-3.14343834.7391758-4.6760807.21980095-.7442913.49623299-1.47067452.82687569-2.1727848 1.99440384.48562622 4.23102379.48204612 6.24213218.15332412.84108353-.1365223 1.66954613-.34184265 2.47704316-.6138916.79764175-.26846695 1.57022857-.48741531 2.3320732-.86804008.04249955 1.15922546.44703294 2.27602386 1.1567917 3.19355201.46772766.60315323 1.0583496 1.11085129 1.4682083 1.75397682.63989259 1.00299263.77496339 2.22810555.88993455 3.39920235-.0607872-.63123703.1386528-1.43953895.29549408-2.04195785.07457351-.28457451.14437484-.68130684.37286758-.87221528.22849274-.19091033.60554123-.2457962.89488983-.19926261 1.09116364-1.97829438.89189911-4.41238594.66221237-6.6871872-.04891967-.48204613-.09903335-.96886444-.26667404-1.431818-.16764068-.46295548-.46832275-.89309693-.9032402-1.11920548-.15631485-.08045101-.33874893-.08918762-.51287842-.09752655-.25585556-.01225281-.49377823-.02364636-.60453415-.26042748-.11693573-.25116539-.06025696-.69383526-.1718216-.98855114-.23059844-.59597683-.54825591-1.1544876-.94261169-1.65732956-3.30570984-4.21372127-10.20230102-4.8890624-13.9846878-1.3125-1.53323937 1.44971562-2.295681 3.40474415-2.65005684 5.46238613-.22909165 1.33039856-.27741432 2.66377831-.3317051 4.00491524l-.00715827-.01610756v.13184548c-.00835228.2070179-.01610756.4134388-.02625084.62045479-.02890396.62030792.08335876 1.24733543.19293976 1.85937309l.01049804.05866623c.05727387.31738853.2505684 1.30653572.2505684 1.30653572s.17122077-.0829258.54409026-.03162003c.23804093.03281212.57093811.22909165.6956253.43670464.12833596.21478843.1266613.47404289.12504578.7242527-.00017929.02778053-.00035858.05545044-.00035858.08293533-.00758934.62672043.06824684 1.25166512.22551155 1.85838127z"/>
          <path fill="rgb(224,173,166)" fill-rule="evenodd" d="M28.4725 29.96949048c-.03044408-.00004888-.06067433-.00508726-.08948864-.01491477-.35139204-.11931818-.88295454-.29829545-1.16036931-.74573864-.26011364-.41761363-.21477273-.92292613-.18196023-1.29161931l.39076704-4.36286932c.00646056-.10078683.06707025-.190143.15832395-.2334152.0912537-.04327221.19879692-.03365359.28092318.02512566s.12591683.15747295.11438924.25780658l-.39076705 4.36346591c-.03400568.37644887-.04951704.70755682.10022727.94798296.15928978.2559375.48741478.38360795.86744319.51306818.12861248.04391519.20662492.1743762.18445037.30845828-.02217454.13408209-.13803578.23248019-.27393901.23264967z"/>
          <path fill="rgb(57,34,47)" fill-rule="evenodd" d="M23.97539773 25.01539957c-.99928978-.11036931-.82985796-1.66389204.17122159-1.55113636 1.00107954.11275568.82926136 1.66389205-.1712216 1.55113636z"/>
          <path fill="rgb(55,33,46)" fill-rule="evenodd" d="M21.4962082 22.86475945c-.09301759-.00102807-.18539048-.0020504-.27407647.0136528-.39076805.06920433-.66221619-.35676194-.38778496-.66579628.1652565-.18553925.28099442-.39016915.50233078-.52321053.20341683-.11213302.4187317-.20118141.64193154-.26548195.42847251-.14072418.87486267-.2194767 1.32562446-.23386383.4634304-.00863457.92613983.04026222 1.37752915.14556885.44804.10320854.97363662.25354958 1.30414772.58644867.20814323.21469688.25014686.54078293.10320854.80122185-.1616745.27681732-.4486351.34423256-.74693108.30366325-.18553924-.02505684-.35497093-.11573791-.5303688-.17539787-.17712975-.06256676-.3578167-.114563-.54110909-.15571022-.09187317-.02028275-.19090843-.0405674-.27681732-.05309677-.01267433-.00184632-.02363586-.0034485-.03287888-.00480462l-.12820053-.01309204c-.17577362-.01490211-.35222435-.02028083-.5285797-.01610756-.17599488.0041752-.35198785.00894928-.52738572.02505684-.04433823.00397873-.08867455.00849915-.13301277.01407814-.0095253.0016842-.02084542.0037384-.03403282.0062046-.09247208.01730157-.18494416.03400613-.27681923.05429078-.18315316.0411644-.35795403.10440254-.54468727.14019966-.0957203.0183487-.19425965.0172596-.29208756.01617623zm1.18704986-.22318078c.00055122-.00030708-.01137543.00137139-.0374279.00595665.02385139-.00335502.03687858-.00564766.0374279-.00595665z"/>
          <path fill="rgb(57,34,47)" fill-rule="evenodd" d="M32.35928977 25.01539957c.99928978-.11036931.82926137-1.66389204-.17181818-1.55113636-1.00107954.11275568-.82926136 1.66389205.17181818 1.55113636z"/>
          <path fill="rgb(55,33,46)" fill-rule="evenodd" d="M35.49974432 22.21261548c-.15869318-.17897727-.2690625-.36571022-.4730966-.50292613-.18792613-.12647728-.42298295-.20284091-.63715908-.27443182-.4385146-.14801779-.89644049-.23063787-1.3590341-.24519887-.45176488-.00853005-.90289738.03774512-1.34352272.1378125-.45818182.10201705-1.00048296.25414773-1.33815341.59659091-.20814341.21469816-.25014818.54078341-.10321023.8012216.16107955.2750284.45161932.34423295.74633523.30366477.18613636-.02505682.35795454-.11275568.5309659-.17539773.17710518-.06264085.35779646-.11463733.54110796-.15571023.091875-.02028409.1843466-.03639204.27681818-.05309659.0924716-.01670454.09306819-.01372159.02088069-.00357954.04653409-.00536932.09366477-.01014205.14019886-.01431819.17577298-.0149106.35222489-.02028767.52857955-.01610795.17539772.00417614.35198863.00894886.52678977.02505682.03402358.00305335.06804716.00642588.10207074.01035025.00949176.00155293.03117605.00486401.06497471.00993384.09306818.01730114.18553978.03400568.27741478.05428977.18255681.04116477.35795454.1055966.5440909.14019887.18613637.03460227.38480114 0 .56676137.02982954.39017045.06920455.6628125-.35795454.3871875-.66579545v-.00238637z"/>
          <path fill="rgb(0,0,0)" fill-rule="evenodd" d="M21.21914673 27.42264366c.72545624.48025704 1.6841774.7015915 2.625.62582398.25375748-.01783562.5054779-.05776024.75230217-.11931801 1.1072731-.2869606 1.94130707-1.0667038 2.34877777-2.19605065.1610794-.45639228.35795402-1.13352394.35795402-1.78977394 0-.9455967-.63059616-1.52786827-1.73011207-1.5964756-.56258583-.03520012-1.12576866-.06264305-1.12576866-.06264305-.87818146-.0453415-1.5964756-.06383514-2.26107788-.05965996-.67355156 0-1.24866486.18315506-1.70804024.536932-.21505356.17051887-.37403107.4016075-.45639229.66341018-.21954536.64789772-.1604824 1.47179031-.07218742 2.0492897.1240902.80838013.56258583 1.4825287 1.2695446 1.94846535zm-.42835236-4.25250053c.31559754-.24281311.70696068-.38480187 1.16514206-.42178917.07815361-.00596619.15213204-.00894928.23028565-.00716019.655056 0 1.36440277.01789856 2.23244285.05965996.56019783.02386284 1.11860848.05965805 1.11860848.05965805.5685501.03579712 1.24508476.25176239 1.24508476 1.08102417-.000597.45579529-.11454582 1.01420402-.329916 1.61079407-.34781265.96468734-1.05536842 1.62929153-1.99261284 1.87150573-1.00585175.25951767-2.16681862.09008599-2.95909119-.43193054-.58167648-.38360786-.9426136-.93545532-1.04343795-1.5958805-.0799427-.52022744-.13542557-1.25642205.05071067-1.8052845.04927254-.16570664.14792443-.31243516.28278351-.42059708z"/>
          <path fill="rgb(0,0,0)" fill-rule="evenodd" d="M32.08068085 27.8981266c.34325409.06594277.69386673.08500862 1.04224395.05667687.68906403-.05548477 1.3560524-.2899437 1.87329484-.67534256.6204872-.44752312 1.01672744-1.14186287 1.08639144-1.90372086.05310059-.50829506.06861115-1.2319603-.12587738-1.79454613-.07305145-.22864723-.20762634-.4327774-.38897705-.59002876-.38599395-.3239479-.8644638-.49994278-1.4377861-.52141952-.5733223-.02147675-1.20451736-.02505684-1.98008347-.01133538-.51605224.00954628-1.05298423.02565384-1.05298423.02565384-1.08281327.03698921-1.7271309.60852242-1.73011399 1.53622055-.00238609.65625.19687462 1.33457375.36511422 1.78977394.41761398 1.13352204 1.25164795 1.87508393 2.34877777 2.08806801zm-2.18411827-3.87605095c.00298309-.7415638.5691471-.95931816 1.09295463-1.00107956.0417614-.00358009.0835228-.00536918.1246872-.00835228.35377884-.01193237.70218849-.01968765 1.04582214-.02565384.76721954-.01431846 1.38707733-.01073837 1.94966126.01073838.44804.01730156.82448959.15153312 1.11801147.39792633.10798264.09573555.18711472.21970177.22849274.35795402.16287231.47309685.14437484 1.11502838.09963226 1.57022858-.05687332.61274338-.37628555 1.17084122-.87579727 1.53025436-.66281128.4939766-1.61974335.6944313-2.4979248.52380753-.90860749-.17659187-1.6018467-.79704666-1.95323945-1.75159073-.15332222-.41403389-.33230018-1.02852249-.33230018-1.60423279z"/>
          <path fill="rgb(0,0,0)" fill-rule="evenodd" d="M29.75755682 23.8198314c-.98556818-.11394887-1.72116477-.09306819-2.81352273.07755681l-.07755682-.5112784c1.12815341-.17897728 1.929375-.19866478 2.953125-.08053978l-.06204545.51426136z"/>
          <path fill="rgb(0,0,0)" fill-rule="evenodd" d="M21.78173295 22.22932003l-2.38039772-.01252841-.07815341 1.86732954.70457386.07755682s.05011364-1.00644886.74335227-1.24926136c.69323864-.2428125 1.06551137-.27741477 1.06551137-.27741477l-.013125-.33886364"/>
          <path fill="rgb(0,0,0)" fill-rule="evenodd" d="M34.41931818 22.44289957l2.38039773.04832387.02982954 1.86911932-.70696022.05965909s-.02386364-1.00704546-.71053978-1.26775569c-.68667613-.26071022-1.05835227-.30306818-1.05835227-.30306818l.02207387-.33826704"/>
        </g>
      </g>
    </g>
  </g>
</svg>
