<svg xmlns="http://www.w3.org/2000/svg" xmlns:xlink="http://www.w3.org/1999/xlink" width="40" height="40" viewBox="0 0 40 40">
  <defs>
    <rect id="rect-2" width="24" height="26" x="8" y="7"/>
    <mask id="mask-3" maskContentUnits="userSpaceOnUse" maskUnits="userSpaceOnUse">
      <rect width="40" height="40" x="0" y="0" fill="black"/>
      <use fill="white" xlink:href="#rect-2"/>
    </mask>
  </defs>
  <g>
    <g opacity=".2">
      <ellipse cx="20" cy="20" fill="rgb(140,132,243)" rx="20" ry="20"/>
    </g>
    <g>
      <use fill="none" xlink:href="#rect-2"/>
      <g mask="url(#mask-3)">
        <path fill="rgb(140,132,243)" fill-rule="evenodd" d="M28.99982643 12.03695297c0-2.20765972-1.79233932-4-4-4-1.55734444 0-2.9080143.89191914-3.56861877 2.1923666-.43633461-.07521724-.82350159-.10373497-1.12997628-.11096096-.12234306-.0074997-.23015594-.0074997-.30140686-.0074997-4.15218639 0-7.52999878 3.37921906-7.52999878 7.5300007v2.25984382c-.00155258 1.01208305-.42872715 1.97684288-1.17703151 2.65827942-.04031277.0314064-.07874966.0628128-.11437512.09375-1.03833675.8933506-1.41128921 2.3383789-.93497944 3.62264824.47630883 1.28426933 1.70132256 2.13664627 3.07107354 2.13688469h2.24985408c.45746422 2.03021621 2.27000046 3.5472145 4.43780327 3.55078125 2.16962624-.00133705 3.98466683-1.51893425 4.44249153-3.55078125h2.24047661c1.36952973.00029945 2.59464264-.85156441 3.0711956-2.13550759.47655297-1.28394317.10391045-2.72883415-.93416404-3.62214851-.03609467-.0314064-.07265663-.06140709-.11109543-.09046936-.75085259-.68174744-1.1796856-1.64832306-1.18124962-2.66250038v-.8831234c0-.06750107-.00281143-.13406372-.00890541-.2029705.0107708-1.2468586-.12858582-2.37418747-.41622353-3.37730599 1.1371994-.70569038 1.89513016-1.9656744 1.89513016-3.40128708zm-7.94208336-.68142128c-.0380764.2214737-.05791664.44914913-.05791664.68142128 0 2.20766068 1.79233933 4 4 4 .35119057 0 .69186974-.04535675 1.01649666-.13052654.23213577.86694431.34334183 1.84401989.3322525 2.92740154v.03281212l.00328064.03234291c.00408745.0397129.00612068.07960892.00609398.11953163v.88500023c.0017128 1.35538674.57921982 2.64621544 1.58859444 3.55078125l.04078102.03328133c.02249908.01734352.04500007.03515625.06937408.05624962.6672554.57343292.90709305 1.5015831.60117913 2.32648658-.30591584.8249054-1.09293938 1.37224389-1.97274018 1.37195015H13.3145132c-.8812437.00073624-1.66959762-.54773521-1.97530555-1.37425422-.30570698-.8265171-.06400204-1.75598336.60561752-2.32887078.02437496-.01921844.04640675-.03843689.07124996-.05718612l.02156258-.01640702.02015686-.01781082c1.00671578-.90410614 1.58241463-2.19299316 1.58390617-3.5460949V17.6408596c0-3.50578212 2.85234452-6.35812568 6.35812378-6.35812568.05953217 0 .14953232.00093746.24656296.00609398h.01874924c.22011375.00500488.48991203.02281475.79260635.0667038zM20.0045128 30.79164124c-1.5182991 0-2.80275917-1.00118447-3.22920227-2.37937546h6.45840644c-.4264431 1.378191-1.71090507 2.37937546-3.22920417 2.37937546z"/>
      </g>
    </g>
  </g>
</svg>
