<svg xmlns="http://www.w3.org/2000/svg" width="64" height="64" viewBox="0 0 64 64">
  <g>
    <path fill="rgb(255,236,241)" fill-rule="evenodd" d="M3 32.5C3 16.2075751 16.2075751 3 32.5 3 48.79232272 3 62 16.2075751 62 32.5 62 48.79232272 48.79232272 62 32.5 62 16.2075751 62 3 48.79232272 3 32.5z"/>
    <g>
      <path fill-opacity="0" fill-rule="evenodd" stroke="rgb(223,97,135)" stroke-linecap="butt" stroke-linejoin="miter" stroke-width="2.5" d="M16 32c0-8.83655835 7.16344165-16 16-16 8.83651402 0 16 7.16344165 16 16 0 8.83651402-7.16348598 16-16 16-8.83655835 0-16-7.16348598-16-16h0z"/>
      <path fill="rgb(223,97,135)" fill-rule="evenodd" d="M30.86047198 37.31803288s-.8777992 0-1.56662792-.32917576c0 0-.68882872-.32917153-1.0728664-.90218181 0 0-.38403768-.57300605-.38403768-1.28012278 0 0 0-.68273412.35965296-1.21307167 0 0 .35965507-.53033755.90828063-.82293728v-.09753043s-.4267083-.29259973-.70711673-.74369275c0 0-.28040843-.4510909-.28040843-.98752516 0 0 0-.6583494.35355837-1.20087825 0 0 .35355836-.54252885.98142845-.8473199 0 0 .62787008-.30479103 1.40813675-.30479103 0 0 .78023284 0 1.40200621.30479104 0 0 .6217755.30479104.98143057.84731989 0 0 .35965085.54252885.35965085 1.20087825 0 0 0 .54862556-.28040632.99362187 0 0-.28041055.4449963-.71930592.73759604v.09753043s.54862344.29259973.914371.82293728c0 0 .36575178.53033755.36575178 1.21307167 0 0 0 .70711673-.38403768 1.28012278 0 0-.38403768.57301028-1.07286428.9021818 0 0-.68883083.32917577-1.56659621.32917577zm-6.2543225-6.44938757l-1.25574017.9143731-.80464927-1.23135756 2.45052384-1.7677897h1.20697284v8.33909665H24.6061495v-6.2543225zm7.10770527.92046982c-.34136706.28650514-.85338277.28650514-.85338277.28650514-.52424295 0-.8656079-.28650514-.8656079-.28650514-.34136706-.28650514-.34136706-.74978735-.34136706-.74978735 0-.4632822.34136706-.74369064.34136706-.74369064.34136495-.28040843.8656079-.28040843.8656079-.28040843.5120157 0 .85338277.28040843.85338277.28040843.34136495.28040843.34136495.74369064.34136495.74369064 0 .4632822-.34136495.74978735-.34136495.74978735zm6.9736284 2.73702685h2.08477417v-1.41423346h-2.08477416v-2.07258074H37.2732497v2.07258074h-2.07258075v1.41423346h2.07258075v2.07258075h1.41423346v-2.07258075zm-6.80904264.98752728c-.39622686.32917153-1.01796853.32917153-1.01796853.32917153-.6217755 0-1.02409907-.32917153-1.02409907-.32917153-.4023257-.32917576-.4023257-.86561002-.4023257-.86561002 0-.51204742.4084203-.84122318.4084203-.84122318.40842028-.32917575 1.01800447-.32917575 1.01800447-.32917575.60954825 0 1.01187394.32917575 1.01187394.32917575.4023257.32917576.4023257.84122318.4023257.84122318 0 .53643426-.3962311.86561002-.3962311.86561002z"/>
    </g>
  </g>
</svg>
