<svg xmlns="http://www.w3.org/2000/svg" width="64" height="64" viewBox="0 0 64 64">
  <g>
    <path fill="rgb(219,228,255)" fill-rule="evenodd" d="M2 31C2 14.98378333 14.98378333 2 31 2s29 12.98378333 29 29-12.98378333 29-29 29S2 47.01621667 2 31z"/>
    <path fill="rgb(71,114,229)" fill-rule="evenodd" d="M29.91539383 48.12069511c.2234993.09130097.4626007.13840485.70409965.13840485l-.00079917.00219727c.89089965.0007019 1.6576004-.62949944 1.8293991-1.50369835.17169953-.87430191-.29970169-1.74769974-1.12469863-2.08399964-6.42001152-2.60240173-10.61455155-8.84490204-10.59781075-15.77140045v-5.09160042l10.32110977-4.28442955 10.32050133 4.28442955v5.08730126c0 1.02879905.83399963 1.86279869 1.8628006 1.86279869 1.02880096 0 1.8628006-.83399964 1.8628006-1.8627987v-5.57970046c.00289917-1.20978165-.72580338-2.30130005-1.84420014-2.76253128L32.192894 15.96574974c-.73429871-.30273533-1.55870057-.30273437-2.29299928 0l-11.0557003 4.5899086c-1.11841392.46121979-1.84708595 1.55273056-1.8441925 2.76254082v5.57970047c-.00227547 8.43709945 5.10323143 16.0359993 12.91539192 19.22279548zm-3.2635994-12.3776989c0 4.46450043 3.63240052 8.09700013 8.09690094 8.09700013 1.68460083 0 3.25080109-.51720047 4.54800034-1.40110016l5.05350113 5.05340195c.29089737.29149818.68589783.45509529 1.0977974.4545002v-.00180054c.62779998-.00019837 1.19369888-.37849999 1.43390273-.958601.24019623-.58010101.10719681-1.24769974-.33680343-1.69159699l-5.06309891-5.0592041c.86109924-1.28630066 1.36370087-2.83189773 1.36370087-4.49259948 0-4.46449852-3.6324997-8.09689904-8.09700013-8.09689904-4.46450042 0-8.09690094 3.63240052-8.09690094 8.09689904zm8.09680176-4.99229812c-2.75710106.00009918-4.99210167 2.23519897-4.99210167 4.99229813 0 2.75720214 2.2350998 4.99230194 4.99220085 4.99230194 2.75719834 0 4.99229813-2.2350998 4.99229813-4.99230194-.00310135-2.7559967-2.23649979-4.98929787-4.9923973-4.99229813z"/>
  </g>
</svg>
