<svg xmlns="http://www.w3.org/2000/svg" xmlns:xlink="http://www.w3.org/1999/xlink" width="40" height="40" viewBox="0 0 40 40">
  <defs>
    <rect id="rect-2" width="26" height="26" x="7" y="7"/>
    <mask id="mask-3" maskContentUnits="userSpaceOnUse" maskUnits="userSpaceOnUse">
      <rect width="40" height="40" x="0" y="0" fill="black"/>
      <use fill="white" xlink:href="#rect-2"/>
    </mask>
  </defs>
  <g>
    <ellipse cx="20" cy="20" fill="rgb(236,235,255)" rx="20" ry="20"/>
    <g>
      <use fill="none" xlink:href="#rect-2"/>
      <g mask="url(#mask-3)">
        <path fill="rgb(140,132,243)" fill-rule="evenodd" d="M14.16320229 30.39492226H25.8367958c1.46325683-.00167847 2.64928054-1.18701744 2.65179825-2.65027428V12.25636673c-.00195885-1.46365261-1.18814469-2.64961052-2.65179825-2.65128899H14.16320229c-1.46325684.00167752-2.64927864 1.18701744-2.65179635 2.65027333v15.4882822c.00195885 1.46365166 1.18814373 2.64961052 2.65179635 2.65128899zm-1.5853901-18.13855553c.00111962-.875041.71035004-1.5840435 1.5853901-1.58488274H25.8367958c.87504196.00083924 1.58427047.70984173 1.585392 1.58488274v15.48828125c-.00112153.87504005-.71035004 1.5840435-1.585392 1.58488274H14.16320229c-.87504006-.00083924-1.58427048-.70984269-1.5853901-1.58488274V12.25636673z"/>
        <rect width="9.241" height="1.066" x="15.379" y="13.474" fill="rgb(140,132,243)" rx="0" ry="0"/>
        <rect width="8.277" height="1.066" x="15.379" y="17.028" fill="rgb(140,132,243)" rx="0" ry="0"/>
        <rect width="4.621" height="1.066" x="15.379" y="20.583" fill="rgb(140,132,243)" rx="0" ry="0"/>
        <path fill="rgb(140,132,243)" fill-rule="evenodd" d="M23.07988281 26.30550781l-1.22535156-1.22535156.50273438-.50273437.72261718.72261718 1.20148438-1.20148437.50273437.50273437-1.70421875 1.70421875z"/>
        <path fill="rgb(140,132,243)" fill-rule="evenodd" d="M20.6100998 26.19804573c.45387458 1.09588623 1.5233116 1.81036186 2.70947074 1.81015587 1.61767388-.00195503 2.9288044-1.31240463 2.93160057-2.9300766.00082207-1.18615913-.71309662-2.2559681-1.80874824-2.71041298-1.09565163-.45444488-2.35717583-.20399475-3.19613457.6345272-.83895874.83852387-1.090065 2.09991837-.6361885 3.19580651zm.48779105-1.12228966c.0004673-1.2265873.9950924-2.22060585 2.2216797-2.22032547 1.22653388.00168038 2.2201042.9961586 2.22066306 2.2226944-.00084114 1.2265873-.9957695 2.22030258-2.22235489 2.21964836-1.2265873-.00065422-2.22045517-.99543-2.21998787-2.22201729z"/>
      </g>
    </g>
  </g>
</svg>
