<svg xmlns="http://www.w3.org/2000/svg" width="40" height="40" viewBox="0 0 40 40">
  <g>
    <path fill="rgb(255,255,255)" fill-rule="evenodd" d="M0 16C0 7.163444 7.163444 0 16 0h8c8.836556 0 16 7.163444 16 16v22c0 1.1045695-.8954305 2-2 2H16C7.163444 40 0 32.836556 0 24v-8z"/>
    <path fill="rgb(0,140,255)" fill-rule="evenodd" d="M21.27685547 6.62729469c.79699707.72486877.84661865 1.94639587.1105957 2.72839355-.73596191.78198242-1.97851562.82827759-2.77557373.10342407-.79699707-.72486877-.84661865-1.94641113-.11065674-2.72839355.73571778-.78199768 1.97857666-.82829285 2.77563477-.10342407zm-1.2769165 4.21690368c5.15374755 0 9.3796997 3.95562745 9.67163085 8.925354h2.62164307c-.25915527-5.61730956-4.47454834-10.24220275-9.97973633-11.27072143-.10491943 1.05767822-1.12445068 1.88838196-2.36883545 1.88838196-1.23687744 0-2.2524414-.82048035-2.36761474-1.86914062-5.45196533 1.06851196-9.61291504 5.67115783-9.8703003 11.25120544h2.62164307c.29193115-4.9694519 4.51757813-8.92507935 9.67156982-8.92507935zm3.11444091 16.1508484c-.1274414.07064819-.28771972.02377319-.35803222-.10461427l-2.48547364-5.30737304c-.25073242.06344604-.5168457.07458496-.78167724.00692749-.515625-.13168335-.90466309-.5739441-1.05529785-1.09646607l-5.35723877-1.61810302c-.48046875-.12265015-.58569336-.51800538-.55444336-.68759156.11126709-.6040039.66925049-.56610107 1.14941406-.44433593l5.1473999 1.43859863c.18218994-.3710022.91455078-.71914673 1.38568115-.6421814l2.5958252-2.56695556c.35687256-.35266114.92871094-.35836792 1.27716064-.0135193.23388672.23181153.3081665.5625.223938.86135865-.0411377.14730835-.12054444.28622437-.23809815.4022522l-2.59307862 2.5642395c.03759766.21798706.03186036.44766235-.0324707.67648315-.10974121.39053345-.36230469.70410157-.6828003.91064454l2.4626465 5.25985717c.07037353.12838745.02404784.29013062-.1034546.36077881zm-3.38140869-6.27062989c-.35925293-.0916748-.5703125-.45788574-.4696045-.81533814.10040284-.3574829.4753418-.57424926.83459474-.48254394.35931396.09170532.57037353.45788574.46960449.81533813-.10070801.35809327-.47528076.57424927-.83459473.48254395zm-9.41992187-.48553467c-.00030518.02645874-.00213623.0526123-.00213623.07907105 0 5.12698364 4.18713379 9.31259155 9.39196777 9.46713256v2.56243897c-2.47821045-.05773926-4.77697754-.83520508-6.68640137-2.12680054.29193115-.36257934.46746826-.81985473.46746826-1.31832885 0-1.17495728-.96838379-2.12710572-2.16314697-2.12710572-.51922607 0-.99572754.18008423-1.36853027.48013306-1.42120362-1.96234131-2.26000977-4.3551941-2.26000977-6.93746948 0-.02645874.00183106-.0526123.0020752-.07907105h2.61871338zm19.6967163 7.068573c-.37042236-.269104-.83013916-.43084717-1.33007812-.43084717-1.22064209 0-2.210083.9515686-2.20977783 2.125 0 .47653198.16473388.91485596.44012451 1.26934815-1.92321777 1.28076171-4.23553467 2.041687-6.72399902 2.07806396v-2.56182861c5.25653076-.09741211 9.50292968-4.30618286 9.50292968-9.46923828 0-.02645874-.00183105-.0526123-.00213623-.07907105h2.61865235c.00030517.02645874.00213623.0526123.00213623.07907105 0 2.60513305-.85357666 5.0175476-2.29785157 6.98950195zm-19.87438964.40853882c.62530517-.68215943 1.68182373-.7227478 2.3591919-.09017945.67736816.63256836.71942138 1.69836426.0941162 2.38052369-.6253662.68218994-1.68188476.72277832-2.3591919.09020996-.67736816-.63226319-.71948241-1.69836426-.0941162-2.3805542zm17.22662353.10284424c-.62567139.68218994-.58325195 1.74829101.09405518 2.3805542.67736816.63256835 1.73388672.59197998 2.3591919-.09020997.6253662-.68215942.58331298-1.7482605-.09405518-2.38052368-.67736817-.63256836-1.73358155-.59228515-2.3591919.09017945z"/>
  </g>
</svg>
