<svg xmlns="http://www.w3.org/2000/svg" xmlns:xlink="http://www.w3.org/1999/xlink" width="720" height="144" viewBox="0 0 720 144">
  <defs>
    <path id="path-1" fill-rule="evenodd" d="M16 0h688c8.8306404 0 16 7.1693596 16 16v112c0 8.8306404-7.1693596 16-16 16H16c-8.8306404 0-16-7.1693596-16-16V16C0 7.1693596 7.1693596 0 16 0z"/>
    <mask id="mask-2" maskContentUnits="userSpaceOnUse" maskUnits="userSpaceOnUse">
      <rect width="720" height="144" x="0" y="0" fill="black"/>
      <use fill="white" xlink:href="#path-1"/>
    </mask>
  </defs>
  <g>
    <use fill="none" xlink:href="#path-1"/>
    <g mask="url(#mask-2)" opacity=".2">
      <path fill="rgb(83,30,234)" fill-rule="evenodd" d="M-46.00001707 32.50003542c0 26.78561401 21.71374512 48.49969482 48.49911499 48.50015259 26.77337646-.02987671 48.47006226-21.72610474 48.5008545-48.5001526 0-26.78582763-21.71420289-48.50003051-48.49993897-48.50003051-26.78570557 0-48.50003052 21.71420288-48.50003052 48.50003052zM2.50025759-3.1884564c-19.71029663 0-35.6887207 15.97842407-35.6887207 35.68873596 0 19.71032715 15.97842407 35.6887207 35.6887207 35.6887207 19.71020508 0 35.68862915-15.97839355 35.68862915-35.6887207C38.16966066 12.80003847 22.20384035-3.1671704 2.50175294-3.1884564H2.5002576zM698.49918947 97.00015749c-26.78540039-.00045777-48.4991455-21.7145691-48.4991455-48.50015259 0-26.7858429 21.71435546-48.50004578 48.5-48.50004578 26.7857666 0 48.5 21.71420288 48.5 48.50004578-.0308838 26.77404785-21.72753907 48.47027588-48.5008545 48.50015259zm.00256348-84.18865967c-19.711792 0-35.69018555 15.97842407-35.69018555 35.6887207 0 19.71032715 15.97839356 35.68875122 35.6887207 35.68875122 19.71020508 0 35.68859864-15.97842407 35.68859864-35.68875122-.01916504-19.70022583-15.98498535-35.66743469-35.6871338-35.6887207zm-304.50177002 159.1885376c0 18.77755737 15.22198486 33.9998169 33.99938965 34.00012207 18.76898193-.02093506 33.9790039-15.23068237 34.00061035-34.00012207 0-18.77770996-15.22235107-34.00003052-33.99993897-34.00003052-18.77764892 0-34.00006103 15.22232056-34.00006103 34.00003052zm34.00024414-25.0187378c-13.81756592 0-25.0189209 11.20135499-25.0189209 25.0189209 0 13.8175354 11.20135498 25.0189209 25.0189209 25.0189209 13.81744385 0 25.01885986-11.2013855 25.01885986-25.0189209-.01348877-13.81048584-11.20605468-25.0039978-25.01782226-25.0189209h-.0010376z"/>
    </g>
  </g>
</svg>
