<svg xmlns="http://www.w3.org/2000/svg" xmlns:xlink="http://www.w3.org/1999/xlink" width="720" height="225" viewBox="0 0 720 225">
  <defs>
    <path id="path-1" fill-rule="evenodd" d="M16 0h688c8.8306404 0 16 7.1693596 16 16v193c0 8.8306404-7.1693596 16-16 16H16c-8.8306404 0-16-7.1693596-16-16V16C0 7.1693596 7.1693596 0 16 0z"/>
    <mask id="mask-2" maskContentUnits="userSpaceOnUse" maskUnits="userSpaceOnUse">
      <rect width="720" height="225" x="0" y="0" fill="black"/>
      <use fill="white" xlink:href="#path-1"/>
    </mask>
  </defs>
  <g>
    <use fill="none" xlink:href="#path-1"/>
    <g mask="url(#mask-2)" opacity=".2">
      <path fill="rgb(83,30,234)" fill-rule="evenodd" d="M-46.00001144 32.50003052c0 26.78561401 21.7137432 48.49969482 48.49912262 48.50015259 26.7733612-.02987671 48.47005462-21.72610474 48.50084686-48.5001526C50.99995804 5.71420289 29.28574753-16 2.5000267-16c-26.78572273 0-48.50003814 21.71420288-48.50003814 48.50003052zM2.50025558-3.1884613c-19.7103157 0-35.6887331 15.97842407-35.6887331 35.68873596s15.9784174 35.6887207 35.6887331 35.6887207c19.71020508 0 35.68862153-15.97840881 35.68862153-35.6887207C38.16965103 12.80003356 22.20381546-3.1671753 2.5017433-3.1884613h-.00148773zM698.49913406 97.00015259C671.71373367 96.99969482 649.99998856 75.28559875 649.99998856 48.5c0-26.7858429 21.71429443-48.50004578 48.50006103-48.50004578 26.78570557 0 48.49987793 21.71420288 48.49987793 48.50004578-.03076172 26.77404785-21.72747803 48.47027588-48.50079346 48.50015259zm.00109864-84.18865967c-19.71032715 0-35.6887207 15.97842407-35.6887207 35.68873596 0 19.7103119 15.97839355 35.68873596 35.6887207 35.68873596 19.71020507 0 35.68859863-15.97842407 35.68859863-35.68873596-.01916504-19.70024109-15.98504639-35.66744995-35.68707275-35.68873596h-.00152588zm-304.50024414 190.1885376c0 18.77755737 15.22201538 33.9998169 33.99938964 34.00012207 18.76898194-.02093506 33.97900391-15.23068238 34.00061036-34.00012207C461.99998856 184.22232056 446.777668 169 428.00001907 169c-18.7776184 0-34.00003051 15.22232056-34.00003051 34.00003052zm34.00021362-25.0187378c-13.81756592 0-25.0189209 11.20135499-25.0189209 25.0189209 0 13.8175354 11.20135498 25.0189209 25.0189209 25.0189209 13.81747436 0 25.01882934-11.2013855 25.01882934-25.0189209-.01348876-13.81048584-11.20602417-25.0039978-25.01779174-25.0189209h-.0010376z"/>
    </g>
  </g>
</svg>
