<svg xmlns="http://www.w3.org/2000/svg" xmlns:xlink="http://www.w3.org/1999/xlink" width="768" height="400.055" viewBox="0 0 768 400.055">
  <defs>
    <linearGradient id="linearGradient-2" x1="-107.52" x2="852.48" y1="116.055" y2="304.055" gradientUnits="userSpaceOnUse">
      <stop offset="0" stop-color="rgb(52,232,199)"/>
      <stop offset="1" stop-color="rgb(140,132,243)"/>
    </linearGradient>
    <path id="path-4" fill-rule="evenodd" d="M16 0h736c8.8306404 0 16 7.1693596 16 16v368c0 8.8306404-7.1693596 16-16 16H16c-8.8306404 0-16-7.1693596-16-16V16C0 7.1693596 7.1693596 0 16 0z"/>
    <mask id="mask-5" maskContentUnits="userSpaceOnUse" maskUnits="userSpaceOnUse">
      <rect width="768" height="400.055" x="0" y="0" fill="black"/>
      <use fill="white" xlink:href="#path-4"/>
    </mask>
  </defs>
  <g>
    <path fill="url(#linearGradient-2)" fill-rule="evenodd" d="M16 .05466238h736c8.8306404 0 16 7.1693596 16 16v368c0 8.8306404-7.1693596 16-16 16H16c-8.8306404 0-16-7.1693596-16-16v-368c0-8.8306404 7.1693596-16 16-16z"/>
    <g>
      <g>
        <path fill="none" d="M16 0h736c8.8306404 0 16 7.1693596 16 16v368c0 8.8306404-7.1693596 16-16 16H16c-8.8306404 0-16-7.1693596-16-16V16C0 7.1693596 7.1693596 0 16 0z"/>
        <g>
          <g opacity=".1">
            <g>
              <use fill="none" xlink:href="#path-4"/>
              <g mask="url(#mask-5)">
                <path fill="rgb(113,67,225)" fill-rule="evenodd" d="M-20.46810913 275.00003052C-69.91531373 274.99917602-110 234.75186157-110 185.10443115c0-49.64788818 40.0857544-89.89541626 89.5335846-89.89541626s89.53337097 40.24752808 89.53337097 89.89541626c-.05682373 49.62597656-40.11004639 89.84020996-89.5350647 89.89559937zm-65.88113403-89.89523316c0-36.53329467 29.49697876-66.1494751 65.883255-66.1494751h.00274658c36.37104798.03945923 65.84477234 29.63485718 65.8802948 66.1494751 0 36.5333252-29.49697876 66.14953614-65.88304138 66.14953614-36.38627624 0-65.883255-29.61621094-65.883255-66.14953614zM772.03100586 300c-40.85064697-.00067139-73.9664917-33.31170654-73.9664917-74.40283203 0-41.0914917 33.11669922-74.40270996 73.96783447-74.40270996C812.88354493 151.194458 846 184.50567627 846 225.59716797 845.953125 266.67053223 812.86328125 299.9541626 772.03100586 300zm-54.42755127-74.40249634c0-30.23712158 24.36883545-54.74920654 54.42926025-54.74920654h.00219727c30.04785156.03268433 54.39746094 24.52755737 54.42675781 54.74920654 0 30.23709107-24.36877441 54.74917603-54.42895508 54.74917603-30.0604248 0-54.42926025-24.51208496-54.42926025-54.74917603zM368.09094239 432.0144043c0 44.84997558 36.23974609 81.20812988 80.94384765 81.2088623 44.68408203-.04992676 80.89526367-36.3782959 80.94665527-81.2088623 0-44.85028076-36.24047851-81.20861817-80.94519043-81.20861817-44.70471191 0-80.9453125 36.3583374-80.9453125 81.20861817zm21.3821411.00048828c0-33.00305176 26.66754151-59.75738526 59.56359864-59.75738526h.00250244c32.88220215.03564454 59.5288086 26.7711792 59.56091309 59.75738526 0 33.00299072-26.66760254 59.75732422-59.56341553 59.75732422-32.89605713 0-59.56359863-26.7543335-59.56359863-59.75732422z"/>
              </g>
            </g>
          </g>
        </g>
      </g>
      <g opacity=".2">
        <ellipse cx="595.968" cy="74.428" fill="rgb(255,255,255)" rx="4.096" ry="4.109"/>
      </g>
      <g opacity=".2">
        <ellipse cx="672.768" cy="348.725" fill="rgb(255,255,255)" rx="5.12" ry="5.137"/>
      </g>
      <g opacity=".2">
        <ellipse cx="397.312" cy="220.309" fill="rgb(255,255,255)" rx="4.096" ry="4.109"/>
      </g>
      <g opacity=".2">
        <ellipse cx="63.488" cy="331.26" fill="rgb(255,255,255)" rx="4.096" ry="4.109"/>
      </g>
      <g opacity=".2">
        <ellipse cx="155.648" cy="84.701" fill="rgb(255,255,255)" rx="6.144" ry="6.164"/>
      </g>
    </g>
  </g>
</svg>
