<svg xmlns="http://www.w3.org/2000/svg" xmlns:xlink="http://www.w3.org/1999/xlink" width="720" height="900" viewBox="0 0 720 900">
  <defs>
    <rect id="rect-1" width="720" height="900" x="0" y="0"/>
    <mask id="mask-2" maskContentUnits="userSpaceOnUse" maskUnits="userSpaceOnUse">
      <rect width="720" height="900" x="0" y="0" fill="black"/>
      <use fill="white" xlink:href="#rect-1"/>
    </mask>
  </defs>
  <g>
    <use fill="none" xlink:href="#rect-1"/>
    <g mask="url(#mask-2)">
      <path fill="rgb(0,255,103)" fill-rule="evenodd" d="M127.00000763 475.03704834c0 8.85702515 7.16344452 16.03704834 15.99999237 16.03704834 8.83477783-.0043335 15.99568176-7.18182373 16-16.03704834C159 466.18002319 151.83656311 459 143 459c-8.83654785 0-15.99999237 7.1800232-15.99999237 16.03704834zm4.30319977-.0131836c-.01437378-6.49145507 5.22035217-11.76751708 11.6967926-11.78915405 3.11933899-.010437 6.1144867 1.22427369 8.3238678 3.431427 2.2093811 2.20715333 3.45121765 5.20510865 3.45120239 8.33166504-.00004578 6.4914856-5.24647522 11.75585938-11.72294617 11.76306153-6.4764862.00717163-11.73452758-5.24554444-11.74891662-11.73699951z"/>
      <ellipse cx="187" cy="79" fill="rgb(255,133,56)" rx="8" ry="8"/>
      <ellipse cx="143" cy="824" fill="rgb(0,140,255)" rx="8" ry="8"/>
      <g opacity=".05">
        <path fill="rgb(0,140,255)" fill-rule="evenodd" d="M-105.40570534 841.13969993S-52.8334763 705.7748747-24.08399094 658.2171481C4.6654944 610.6594215 120.33705319 531.84245257 165.48551964 700.6324317 210.63398609 869.42241084 290.54427036 852.7945719 399.7115987 822.828973c109.16732834-29.96559891 235.52943634 169.45554372-12.60114462 318.08204457-248.13058097 148.62650085-360.587624 170.02210334-360.587624 170.02210334l-131.92853542-469.79342097z"/>
      </g>
    </g>
  </g>
</svg>
