<svg xmlns="http://www.w3.org/2000/svg" xmlns:xlink="http://www.w3.org/1999/xlink" width="80" height="80" viewBox="0 0 80 80">
  <defs>
    <path id="path-2" fill-rule="evenodd" d="M40.00000381.00000134C17.92339706.00000134 0 17.92340222 0 40.00000134s17.92339706 40 40.00000381 40c22.07659913 0 39.99999619-17.92340088 39.99999619-40s-17.92339706-40-39.99999619-40z"/>
    <mask id="mask-3" maskContentUnits="userSpaceOnUse" maskUnits="userSpaceOnUse">
      <rect width="80" height="80" x="0" y="0" fill="black"/>
      <use fill="white" xlink:href="#path-2"/>
    </mask>
    <path id="path-17" fill-rule="evenodd" d="M40.5590737 37.81544402c-.00563772.00075381-.0113507.00075381-.01698841 0-.57451738-.1953668-1.11351352-.41003861-1.4046332-.87722008-.2911197-.46718147-.24015445-1.0980695-.2-1.55289575l.53050192-5.92046333c.00473578-.02788303.03016486-.04740164.05832432-.04476802.02815947.00263362.04952824.026529.04901159.05480663l-.52972973 5.92046333c-.05096525.56988417-.07258687 1.07490347.18378378 1.48571428.27181467.43706564.792278.64247104 1.34749035.83166023.02477966.00875603.03967059.03406612.0352882.05997933-.00438237.0259132-.02676793.0449192-.05304882.04503998v-.0023166z"/>
    <mask id="mask-18" x="0" y="0" maskContentUnits="userSpaceOnUse" maskUnits="userSpaceOnUse">
      <rect width="80" height="80" x="0" y="0" fill="black"/>
      <use fill="white" xlink:href="#path-17"/>
    </mask>
    <path id="path-23" fill-rule="evenodd" d="M37.7606181 41.47104247c.28173327.1483582.57480388.27410744.87644788.37606178.30511716.09918976.6203042.16419546.93976834.1938224.63569.06884313 1.27854701.02466141 1.8988417-.13050194.35224176-.08423799.69333175-.20968446 1.01621622-.37374517.09498069-.04942085.011583-.18455599-.08262549-.14131274-.27925864.13122496-.56844627.24018673-.86486486.32586872-.29518186.08157428-.59700196.13687351-.9019305.16525097-.61942763.05800419-1.24421625.00915993-1.84710425-.14440155-.16679537-.04247104-.33513514-.08262548-.4980695-.13976834-.16737934-.05969262-.33156222-.12799476-.4918919-.2046332-.04864864-.02316603-.09111968.04710424-.04247103.07335907h-.0023166z"/>
    <mask id="mask-24" x="0" y="0" maskContentUnits="userSpaceOnUse" maskUnits="userSpaceOnUse">
      <rect width="80" height="80" x="0" y="0" fill="black"/>
      <use fill="white" xlink:href="#path-23"/>
    </mask>
  </defs>
  <g>
    <ellipse cx="40" cy="40" fill="rgb(250,251,255)" rx="40" ry="40"/>
    <g>
      <use fill="none" xlink:href="#path-2"/>
      <g mask="url(#mask-3)">
        <path fill="rgb(240,190,180)" fill-rule="evenodd" d="M63.38687293 66.57760618c-1.26540812-.0042237-2.3547777.89250357-2.5938224 2.13513513-1.15212355 6.07258688-2.33204633 17.73822394-2.04092663 23.84169884h12.13590733c-1.9027027-8.63938223-3.86100386-19.64864864-4.94208494-23.98301158-.29423598-1.17322899-1.34951206-1.99541451-2.55907336-1.9938224z"/>
        <path fill="rgb(249,201,86)" fill-rule="evenodd" d="M60.14517409 76.67027027C61.13590768 69.1027027 62.71428606 62.2 63.20308915 61.64710425c.48880309-.55289576 1.1984556.63938224 1.73899614 1.8084942.43219178.9588284.7772128 1.9546082 1.03088803 2.97528958.44942085 1.76370656 1.38996139 5.48262548 2.52586872 10.23938224H60.1451741z"/>
        <path fill="rgb(240,190,180)" fill-rule="evenodd" d="M16.61312776 66.57760618c1.26540812-.0042237 2.3547777.89250357 2.59382239 2.13513513 1.15212355 6.07258688 2.33204633 17.73822394 2.04092664 23.84169884H9.11196946c1.9027027-8.63938223 3.86100386-19.64864864 4.94208494-23.98301158.29423598-1.17322899 1.34951206-1.99541451 2.55907336-1.9938224z"/>
        <path fill="rgb(249,201,86)" fill-rule="evenodd" d="M19.8548266 76.67027027C18.864093 69.1027027 17.28571463 62.2 16.79691154 61.64710425c-.48880309-.55289576-1.1984556.63938224-1.73899614 1.8084942-.43219178.9588284-.77721281 1.9546082-1.03088803 2.97528958-.44942085 1.76370656-1.38996139 5.48262548-2.52586873 10.23938224h8.35366796z"/>
        <path fill="rgb(240,190,180)" fill-rule="evenodd" d="M46.59691154 51.08880309c-.34054054-4.0926641-.95135135-11.44864865-.95135135-11.44864865H34.69266444l-.76525097 11.26254826c-.11967966 1.7617659-1.18621802 3.3197339-2.78532818 4.06872587L17.22007756 61.4918919l4.07953668 29.5945946h38.58146718l3.21467182-28.91119691-13.8903475-7.18146719c-1.48471668-.76476376-2.47056682-2.24062052-2.6084942-3.9050193z"/>
        <path fill="rgb(224,173,166)" fill-rule="evenodd" d="M38.67799262 51.9034749c3.14980695.7050193 6.15675676-1.1127413 7.64478765-3.76602316l-.47258688-8.51351352c-.00806682-.10536766-.09586844-.18677758-.2015444-.18687258H34.69266444c-.10635654.00055951-.19426662.08308047-.2015444.18918919l-.3899614 8.67953668c1.26563707 1.65559845 2.5011583 3.13281853 4.57683398 3.5976834z"/>
        <path fill="rgb(249,201,86)" fill-rule="evenodd" d="M49.98996173 54.5081081s-2.21312741 9.80694982-9.78069498 9.80694982c-7.64478764 0-9.88416988-10.0988417-9.88416988-10.0988417L16.49112003 61.4972973l2.96833977 31.21776062h41.43243244l2.85714285-31.0911197-13.75907336-7.11583011z"/>
        <path fill="rgb(240,190,180)" fill-rule="evenodd" d="M53.20463355 28.46795367c.74671814.29034749 1.16679536 1.26795367 1.25405405 2.18918919.2137305 2.4044121-.54061173 4.79473751-2.0957529 6.64092664-.25173745.2957529-.53127413.58069498-.88339768.74517374-2.42239382 1.12664093-1.51969112-5.95135135-1.28108108-7.04942085.26563707-1.2092664 1.47413128-3.12200772 3.0061776-2.52586872z"/>
        <path fill="rgb(240,190,180)" fill-rule="evenodd" d="M53.20463355 31.18301158c-.02501784-.17099903-.0788021-.33652926-.15907336-.48957529-.0833912-.15475343-.23946084-.25676543-.41467182-.27104247-.32200772-.0046332-.5027027.36216216-.58841698.67258687-.22354782.80872457-.33858393 1.64358032-.34208495 2.48262549.06707504-.08648712.19106252-.10331644.27876448-.03783784.08247821.0669289.13945566.16016472.16138996.26409266.23166024.78378379-.3050193 1.70579151-1.1003861 1.8957529"/>
        <path fill="rgb(240,190,180)" fill-rule="evenodd" d="M27.4617764 28.46795367c-.74671814.29034749-1.16679536 1.26795367-1.25405405 2.18918919-.21407772 2.40444992.5403057 4.79490586 2.0957529 6.64092664.25173745.2957529.53127413.58069498.88339768.74517374 2.42239382 1.12664093 1.51969112-5.95135135 1.28030888-7.04942085-.26409266-1.2092664-1.47181467-3.12200772-3.0054054-2.52586872z"/>
        <path fill="rgb(240,190,180)" fill-rule="evenodd" d="M27.46640961 31.18301158c.0246649-.17108137.07846817-.3366701.15907336-.48957529.08328301-.15485279.23941325-.2569044.41467181-.27104247.32200773-.0046332.5027027.36216216.588417.67258687.2231812.8088001.33821055 1.64360675.34208493 2.48262549-.06707504-.08648712-.19106251-.10331644-.27876447-.03783784-.08247821.0669289-.13945566.16016472-.16138997.26409266-.23166023.78378379.3050193 1.70579151 1.0996139 1.8957529"/>
        <path fill="rgb(240,190,180)" fill-rule="evenodd" d="M29.12664127 27.92895753c.10226089-1.87262016.38674531-3.7308207.84942085-5.54826255.72432432-2.78996139 2.36988417-5.36911197 4.9073359-6.7953668 2.80308881-1.57528957 6.192278-1.88262548 9.24555985-1.203861 2.25405406.5011583 4.41003861 1.76061776 5.72972973 3.72277992 1.4054054 2.08494209 1.54440155 5.24555985 1.74980695 7.71274132.30735594 3.64938846.00409914 7.32448505-.8972973 10.87413127-.73976834 2.88030888-1.97451737 5.74362934-3.95598455 7.97297297-1.56138996 1.75752896-3.66177606 3.08262549-6.01389962 3.14980695-.3708389.01049556-.74192104-.00887198-1.1096525-.05791505-2.5992278-.34517375-4.74362935-2.1011583-6.2880309-4.15521236-2.3088803-3.06949807-3.64324324-6.996139-4.09266409-10.87258687-.17837247-1.59326-.2199659-3.19886945-.12432432-4.7992278z"/>
        <path fill="rgb(57,34,47)" fill-rule="evenodd" d="M53.38455633 25.62471042c0-1.77606177-.15907336-6.15366795-.65405406-7.86254826-.8746222-2.97601428-2.74815092-5.55968402-5.3050193-7.31583011-2.21467182-1.51042471-4.61081081-2.08494209-7.12277992-2.04324325-2.51119692-.04015444-4.90733591.53281854-7.12200773 2.04324325-2.55629386 1.75588641-4.42950779 4.3389527-5.3042471 7.31428571-.4949807 1.7088803-.65173745 6.08957529-.65405405 7.86254826 0 .8988417.04247104 1.796139.08185328 2.6934363 0-.01235522.05019305 0 .11737451.02857143.33050194-.14285715.67876448-.20694981.97683398.0061776.48030888.14440155.5953668.82162162.63474904 1.42934363.07722007.38610039.04942085.87335907.08262548 1.23552124 0 0 .07258687.8.14671815 1.6 0 0 .47953668-2.7027027.96061776-5.4054054.29111969-1.64942086.2108108-3.34208495.53050193-4.9915058.18532818-.95366795.37528957-1.92355212.83166023-2.77992278.45637066-.85637066 1.22548262-1.6023166 2.17992278-1.78610039 1.3057915-.25173745 2.54362934.56138996 3.76679537 1.08108108 1.76921315.76252227 3.77441619.76252227 5.54362934 0 1.22316602-.52277992 2.46100386-1.33590733 3.76679537-1.08108108.95444015.18378379 1.72432432.92664093 2.17992278 1.78610039.45559845.85945946.64633204 1.82779923.83166023 2.77992278.28339768 1.46718147.2972973 2.9969112.44555984 4.47876448.21081081 2.11196911.63783784 4.21544401.96447877 6.31351351 0 0 .16293436-1.36679537.32741312-2.73281853.05405406-.45405406.11583012-.92664093.37915058-1.3019305.19437018-.27959723.50911321-.45127525.84942085-.46332047.3969112-.0061776.4007722.1984556.51119691-.21853282.2023166-.76756756.05482626-1.87413127.05328186-2.67027027z"/>
        <g>
          <use fill="rgb(155,103,96)" xlink:href="#path-17"/>
          <use fill-opacity="0" stroke="rgb(155,103,96)" stroke-linecap="butt" stroke-linejoin="miter" stroke-width="6" mask="url(#mask-18)" xlink:href="#path-17"/>
        </g>
        <path fill="rgb(57,34,47)" fill-rule="evenodd" d="M34.4571432 32.36447876c-1.35598456-.14980695-1.12586873-2.25791505.23166023-2.1073359s1.12509653 2.25714285-.23166023 2.1073359z"/>
        <path fill="rgb(55,33,46)" fill-rule="evenodd" d="M30.62548297 28.07876448c.18125328-.08724633.36711274-.16457992.55675676-.23166023.18996139-.06872587.38069498-.13899614.57297297-.1992278.192278-.06023166.39073359-.11196911.58918919-.15444016.1003861-.02162162.2015444-.04092664.3034749-.05714285l.13590734-.02084942c.0023305-.00033282.0044278-.00063707.00631197-.00091429-.00070116.00052046.0012108.00091429.00835984.00091429l.03397684-.0046332.08571428-.01003862c.40655753-.0461807.8164417-.05574286 1.22471043-.02857143.0996139.0061776.2.01544402.2988417.02702703l.07722007.0092664.03397684.00386101h.0054054l.15444016.02316603c.2030888.03397683.4046332.07722007.603861.12972973.22106795.05816061.43866255.12880154.65173745.211583l.07181467.02857144.03938224.01621621s.04247105.01776062.02702703.01081081l.02702703.01158301.06409266.02702703.04015444.01698842.01467182.0061776c.06023166.02548263.12046332.05328186.18069498.07722008l.01621621.0069498L36.50038644 28c.03218688.01337297.06590502.02271042.1003861.02779923.0598919.01389266.12198379-.01187568.15444016-.06409267.03052818-.05425096.0217305-.12212123-.02162162-.16679536-.08278533-.07608958-.1781529-.13722935-.28185328-.18069498-.1003861-.04942085-.2030888-.0942085-.30888031-.13590734-.19316603-.07879923-.39035058-.14736293-.5907336-.2054054-.41046563-.1188888-.83147721-.19776371-1.25714285-.23552124-.83771506-.07659846-1.68232741.01101004-2.48648649.25791506-.23219923.06720154-.45845096.1534664-.67644787.25791506-.20795213.10685868-.40980773.22518764-.6046332.35444015-.04584634.02665483-.06140387.0854278-.03474904.13127413.02665482.04584633.0854278.06140386.13127413.03474904l.0015444.0030888z"/>
        <path fill="rgb(57,34,47)" fill-rule="evenodd" d="M45.83243278 32.36447876c1.35598455-.14980695 1.12586872-2.25791505-.23166024-2.1073359-1.35752895.15057915-1.12509652 2.25714285.23166024 2.1073359z"/>
        <path fill="rgb(55,33,46)" fill-rule="evenodd" d="M49.7606181 27.91274131c-.17528957-.11351351-.35057915-.22393822-.53667953-.31969112-.1927027-.09691197-.39250888-.17900309-.5976834-.24555984-1.20998456-.40030734-2.51046564-.43895135-3.74208494-.11119691-.22639074.06002162-.44915135.1329861-.66718147.21853281-.11505791.04478765-.23166023.0918919-.33976834.14594595-.11758764.04728031-.22603243.11469884-.32046332.1992278-.04335212.04467413-.0521498.1125444-.02162162.16679537.03261544.05202857.09456911.07773977.15444015.06409266.05419846-.01152664.10695985-.02895753.15734132-.05197297.00126023.00033513.00619305-.00057684.01794826-.00439769l.05482625-.02393822.07722008-.03474903c.08108108-.03552124.17142857-.07722008.26023166-.10888031.18803398-.07580618.37978456-.14204247.57451737-.1984556.1953668-.05637066.392278-.1034749.592278-.14131274.1011583-.01930502.2023166-.03552124.3042471-.05019305.0046332 0 .03397684-.003861.0054054 0l.03397684-.003861.06872587-.00849422c.0514803-.0061776.10553436-.011583.16216216-.01621621.40739537-.03706564.81731506-.03706564 1.22471043 0 .39556834.03640463.78677683.11035444 1.16833976.22084942.21930502.06254826.43243244.14285714.64864865.21853282.21074132.07185637.41702471.15617529.61776062.25250965.04584633.02665483.1046193.0110973.13127413-.03474903.02665483-.04584634.0110973-.1046193-.03474903-.13127414l.0061776-.0015444z"/>
        <g>
          <use fill="rgb(155,103,96)" xlink:href="#path-23"/>
          <use fill-opacity="0" stroke="rgb(155,103,96)" stroke-linecap="butt" stroke-linejoin="miter" stroke-width="6" mask="url(#mask-24)" xlink:href="#path-23"/>
        </g>
      </g>
    </g>
  </g>
</svg>
