<svg xmlns="http://www.w3.org/2000/svg" xmlns:xlink="http://www.w3.org/1999/xlink" width="40" height="40" viewBox="0 0 40 40">
  <defs>
    <rect id="rect-2" width="24" height="24" x="8" y="8"/>
    <mask id="mask-3" maskContentUnits="userSpaceOnUse" maskUnits="userSpaceOnUse">
      <rect width="40" height="40" x="0" y="0" fill="black"/>
      <use fill="white" xlink:href="#rect-2"/>
    </mask>
  </defs>
  <g>
    <ellipse cx="20" cy="20" fill="rgb(237,255,235)" rx="20" ry="20"/>
    <g>
      <use fill="none" xlink:href="#rect-2"/>
      <g mask="url(#mask-3)">
        <path fill="rgb(109,190,98)" fill-rule="evenodd" d="M11.6796875 30.83046913h16.640625v-3.48046875c-.00361633-3.17759132-2.57865906-5.75263405-5.75625038-5.75625038h-5.12812424c-3.17795563.00361824-5.75315094 2.57923126-5.75625038 5.75718689v3.47953224zm15.46875-1.171875h-14.296875v-2.30859375c.00284195-2.53070259 2.0536728-4.58153343 4.58437538-4.58437538h5.12812424c2.5310688.00284195 4.58205032 2.054245 4.58437538 4.58531189v2.30765724z"/>
        <path fill="rgb(109,190,98)" fill-rule="evenodd" d="M19.900625 21.224375c-2.68726568-.00309752-4.86524253-2.18023571-4.869375-4.8675v-2.31984375c.00542259-2.68634888 2.18302243-4.86206208 4.869375-4.86515625v1.171875c-2.03989219.001289-3.6938822 1.65339186-3.6975 3.69328125V16.356875c.022805 2.02493149 1.67079948 3.65447057 3.69585938 3.65447057s3.67305437-1.62953908 3.69585937-3.65447057v-2.31984375c0-.0825-.0028125-.16640625-.0084375-.24890625l1.16953125-.07734375c.00703125.1078125.01078125.21796875.01078125.328125V16.35875c-.00515949 2.68525337-2.1808399 4.8607242-4.86609375 4.865625z"/>
        <path fill="rgb(109,190,98)" fill-rule="evenodd" d="M15.03125 14.85499954h7.34109306c1.92720223-.0023241 3.48892594-1.56404876 3.491251-3.49124908V9.171875h-6.20156289c-2.55503845.00154781-4.62664604 2.07105732-4.63078117 4.62609386v1.05703068zm7.34109306-1.171875h-6.16546821c.06558418-1.86147785 1.59252548-3.3372507 3.45515632-3.33937454h5.02968789v1.02000046c-.00129319 1.28041935-1.0389557 2.3180828-2.319376 2.31937408z"/>
      </g>
    </g>
  </g>
</svg>
