<svg xmlns="http://www.w3.org/2000/svg" xmlns:xlink="http://www.w3.org/1999/xlink" width="40.5" height="40" viewBox="0 0 40.5 40">
  <defs>
    <rect id="rect-2" width="27" height="27" x="6.5" y="6.5"/>
    <mask id="mask-3" maskContentUnits="userSpaceOnUse" maskUnits="userSpaceOnUse">
      <rect width="40.5" height="40" x="0" y="0" fill="black"/>
      <use fill="white" xlink:href="#rect-2"/>
    </mask>
  </defs>
  <g>
    <path fill="rgb(236,235,255)" fill-rule="evenodd" d="M20 0h.5c11.03830049 0 20 8.96169951 20 20s-8.96169951 20-20 20H20C8.96169951 40 0 31.03830049 0 20S8.96169951 0 20 0z"/>
    <g>
      <use fill="none" xlink:href="#rect-2"/>
      <g mask="url(#mask-3)">
        <path fill="rgb(140,132,243)" fill-rule="evenodd" d="M22.26125 20.92865234h-2.835v-2.7421875c0-.27668171.22429485-.50097656.50097656-.50097656.27668172 0 .50097657.22429485.50097657.50097656v1.74023438H22.26125c.27668172 0 .50097656.22429485.50097656.50097656 0 .27668172-.22429484.50097656-.50097656.50097656z"/>
        <path fill="rgb(140,132,243)" fill-rule="evenodd" d="M15.19009757 20c0 2.6564362 2.15346623 4.80990243 4.80990243 4.80990243C22.65511012 24.80670738 24.80670738 22.65511013 24.80990243 20c0-2.6564362-2.15346623-4.80990243-4.80990243-4.80990243-2.6564362 0-4.80990243 2.15346623-4.80990243 4.80990243zm1.00195313 0c0-2.10307288 1.70487642-3.8079493 3.8079493-3.8079493 2.10210943.002326 3.80562544 1.70583987 3.8079493 3.8079493 0 2.10307288-1.70487642 3.8079493-3.8079493 3.8079493S16.1920507 22.10307288 16.1920507 20z"/>
        <path fill="rgb(140,132,243)" fill-rule="evenodd" d="M20.22623047 30.48042969c-2.4127203.00247848-4.74337031-.8758516-6.55435547-2.47007813-.15609088-.13640288-.22755472-.34571784-.18747179-.54909794.04008293-.2033801.18562308-.36992709.38179688-.4369043.1961738-.06697722.4131778-.02420924.56926866.11219365 1.60119987 1.40979609 3.66211634 2.18634341 5.79550781 2.18373047 0 0 .4013086 0 .80683594-.03638672 4.86205044-.43520417 8.45087593-4.7292347 8.01615234-9.59132813-.02839627-.31920332.20734942-.60098847.52655274-.62938475.31920332-.02839628.60098848.2073494.62938476.52655272.4904297 5.49175782-3.57855468 10.35914063-9.0703125 10.85009766 0 0-.4593164.04060547-.91335937.04060547z"/>
        <path fill="rgb(140,132,243)" fill-rule="evenodd" d="M32.14208984 21.62738281c-.16495144.0002401-.32220437-.06975663-.43242187-.19248047l-1.98808594-2.21484375-2.21484375 1.98861329c-.23852876.21391864-.60530986.1939682-.8192285-.04456056-.21391866-.23852876-.19396823-.60530985.04456053-.8192285l2.60666016-2.33876954c.26117967-.23351999.66203138-.21182684.89648437.04851563l2.33876954 2.60666015c.15296716.17032378.19145287.4146832.09824287.62377896-.09321.20909576-.30067965.34381404-.52961006.34389682l-.00052735-.00158203z"/>
        <path fill="rgb(140,132,243)" fill-rule="evenodd" d="M10.36753906 20.93919922c-.2996426-.00039368-.54967406-.22894163-.57691406-.52734375-.49095703-5.49333984 3.57802734-10.36072266 9.0703125-10.85326172 2.71752943-.25156794 5.41863109.62781614 7.4671875 2.43105469.24129558.21086059.26596801.57740559.05510742.81870117-.21086059.24129558-.57740559.26596801-.81870117.05510742-2.71912137-2.37378313-6.60832726-2.8559651-9.82481392-1.21807593-3.21648666 1.63788917-5.11409175 5.06681274-4.79368217 8.6620603.01360225.15337926-.03433642.30587333-.13325292.42388072-.0989165.11800738-.24069346.19184406-.39409083.20524038-.01634766.00158203-.03375.00263672-.05115235.00263672z"/>
        <path fill="rgb(140,132,243)" fill-rule="evenodd" d="M10.23939453 22.15789063h-.03533203c-.1685266-.00899377-.32647887-.08493236-.43875-.2109375l-2.33876953-2.60666016c-.21406427-.23925687-.19364163-.60674627.04561524-.82081054.23925687-.21406427.60674626-.19364164.82081054.04561522l1.98808594 2.21484376 2.21484375-1.98861328c.23852876-.21391866.60530986-.19396822.81922851.04456054.21391866.23852877.19396822.60530986-.04456054.81922852l-2.60771485 2.34035156c-.11623644.10460049-.26708513.16246026-.42345703.16242188z"/>
      </g>
    </g>
  </g>
</svg>
