<svg xmlns="http://www.w3.org/2000/svg" xmlns:xlink="http://www.w3.org/1999/xlink" width="40.5" height="40.445" viewBox="0 0 40.5 40.445">
  <defs>
    <rect id="rect-2" width="24" height="24" x="8.25" y="8.222"/>
    <mask id="mask-3" maskContentUnits="userSpaceOnUse" maskUnits="userSpaceOnUse">
      <rect width="40.5" height="40.445" x="0" y="0" fill="black"/>
      <use fill="white" xlink:href="#rect-2"/>
    </mask>
  </defs>
  <g>
    <path fill="rgb(236,235,255)" fill-rule="evenodd" d="M20.2225 0h.055C31.43860158 0 40.5 9.06139842 40.5 20.2225S31.43860158 40.445 20.2775 40.445h-.055C9.06139842 40.445 0 31.38360158 0 20.2225S9.06139842 0 20.2225 0z"/>
    <g>
      <use fill="none" xlink:href="#rect-2"/>
      <g mask="url(#mask-3)">
        <path fill="rgb(140,132,243)" fill-rule="evenodd" d="M25.64999962 29.86894417h.02466774c.51594543-.00045014 1.02957058-.06904412 1.52755642-.20399857h.00333023c.64705276-.17977333 1.19878006-.60422897 1.53844452-1.1835556l.94133377-1.56466675c.40885162-.67667961.2113266-1.5553875-.4477768-1.99200058l-3.74844455-2.49977684c-.6451149-.42675781-1.50990486-.28588486-1.98622322.323555l-1.0917778 1.40355491-.00288773.00377846c-.02380753.03089142-.06669617.03960228-.10066605.02044296l-.20933532-.11533356c-.66599846-.36310959-1.49555588-.8153324-3.18177796-2.50222015-1.68622208-1.68688965-2.1388874-2.5162239-2.50310898-3.18288994l-.11377907-.20755577-.00222206-.00399971c-.01900863-.03404045-.01021576-.07686806.02066803-.10066605l1.40644265-1.09422302c.60897255-.47685814.74907112-1.34172535.32177925-1.98644447l-2.50044537-3.74777794c-.43633842-.65870762-1.31435871-.85638237-1.9908886-.44822216l-1.56555557.94044495c-.57919788.33944797-1.00370311.8908186-1.1837778 1.53755569v.00199986c-.36711121 1.34133338-.23799992 2.84444427.38466644 4.46977806.79888916 2.08444404 2.41533374 4.3524437 4.80444526 6.74199867 1.93888855 1.9386673 3.80622101 3.37488937 5.5502205 4.26866722 1.45222282.74377823 2.83399963 1.12155533 4.10511207 1.12155533zM11.91644478 17.45827866c-.56200028-1.46622277-.6831112-2.80622292-.36022186-3.98400116.12665367-.4529686.42433548-.83901406.83022213-1.07666588l1.5706663-.94333363c.32049752-.19327354.73638535-.09947109.94288922.21266651l2.4982214 3.74533272c.20062828.3066616.13454628.71567726-.15244484.94355583l-1.40133286 1.09088898c-.33574485.25961685-.43182373.72538185-.22622108 1.09666634l.11288834.20600128c.38755607.70977783.87088966 1.5902214 2.6368885 3.3579979 1.76599884 1.7677803 2.6495552 2.24822234 3.3579998 2.63444518l.2064457.11377716c.37151718.20449067.83666229.10738755 1.0953331-.2286644l1.08888816-1.40000152c.22699547-.28709602.63539505-.35386276.94199944-.15399933l3.7482214 2.49955559c.3120346.20672798.4055481.62273598.2120018.94310951l-.9422226 1.56622315-.00222397.0035553c-.23736572.40595245-.62331009.70367812-1.07622146.83022308-.43905163.11865997-.8920889.17763519-1.34688854.17533493-2.58044434 0-5.72933197-1.78466797-9.10711098-5.16244507-2.3111105-2.31133461-3.86799908-4.48822403-4.6277771-6.47022247z"/>
        <path fill="rgb(140,132,243)" fill-rule="evenodd" d="M22.14511111 13.52294444c2.89577778.00333334 5.24222222 2.34977778 5.24555556 5.24555556.0044871.16718616.14130919.30038535.30855555.30038535s.30406845-.1331992.30855556-.30038535c-.00355556-3.23644444-2.62622222-5.85911111-5.86266667-5.86266667-.16718616.00448711-.30038535.1413092-.30038535.30855556s.1331992.30406845.30038535.30855555z"/>
        <path fill="rgb(140,132,243)" fill-rule="evenodd" d="M27.2231102 18.76849937c.00024605.2628231.21317863.47585488.47600174.476223.26294327-.00036812.47597694-.21349907.47622108-.47644425-.00355148-3.32897854-2.7014656-6.02669334-6.0304451-6.03000068-.25893974.00559425-.46593475.21710968-.46593475.4761114 0 .25900174.20699501.47051621.46593475.47611047 2.79711152.00311184 5.0751114 2.28111171 5.07822228 5.07800006zm-5.21373367-5.55411052c0-.07575512.05981636-.13799382.1355133-.1409998 3.1368885.0035553 5.69177628 2.55844498 5.69533158 5.69488907.00205421.05171013-.02436257.1003952-.0688324.12685967-.04447174.02646637-.09986115.02646637-.14433289 0-.04447174-.02646447-.07088661-.07514954-.0688343-.12685967-.00318337-2.98830986-2.42502404-5.4099493-5.41333199-5.41288948-.07569694-.00300503-.1355133-.06524467-.1355133-.1409998z"/>
        <path fill="rgb(140,132,243)" fill-rule="evenodd" d="M21.79244444 15.72694444c1.87361273.00232634 3.3918959 1.5206095 3.39422223 3.39422223-.00301162.1122106.05513117.2172107.15183753.27420343.09670635.05699274.2167297.05699274.31343605 0 .09670635-.05699273.15484915-.16199282.15183753-.27420343-.00269378-2.21428147-1.79705187-4.00863956-4.01133334-4.01133334-.16718615.00448711-.30038534.1413092-.30038534.30855556s.13319919.30406845.30038534.30855555z"/>
        <path fill="rgb(140,132,243)" fill-rule="evenodd" d="M25.01844406 19.12116623c.00024414.2628231.21317673.47585487.47599983.476223.26320458-.0004902.47624588-.2141285.47599984-.47733308-.00318528-2.30643654-1.87245179-4.17520809-4.17888833-4.17777824-.26301193 0-.47622299.21321201-.47622299.47622204 0 .26301002.21321106.47622203.476223.47622203 1.77711105.00200081 3.22466659 1.44866753 3.22688865 3.22644425zm-3.3671112-3.70266628c0-.07781124.06307792-.14088917.1408882-.14088917 2.11711122.00222206 3.8413334 1.7266674 3.84399987 3.8433342.00205422.05170822-.02436256.1003933-.0688324.12685966-.04447174.02646637-.09986114.02646637-.14433288 0-.04446983-.02646637-.07088661-.07515144-.0688343-.12685966-.00244904-1.9661522-1.59584809-3.55935288-3.56200028-3.56155682-.07781029 0-.14088821-.06307793-.14088821-.14088821z"/>
        <path fill="rgb(140,132,243)" fill-rule="evenodd" d="M21.48377778 17.75583333c.85170867.0003661 1.54240718.69007052 1.544 1.54177778.0044871.16718616.1413092.30038535.30855555.30038535.16724637 0 .30406845-.13319919.30855556-.30038535-.00134711-1.19237662-.96762338-2.15865289-2.16-2.16-.16718616.0044871-.30038535.1413092-.30038535.30855556s.13319919.30406844.30038535.30855555l-.00111111.00111111z"/>
        <path fill="rgb(140,132,243)" fill-rule="evenodd" d="M22.85911179 19.29761124c.0003662.26273346.21326446.47563171.47599983.47599792.26290893-.00024414.47597694-.21331215.47622108-.47622108-.0032978-1.2841549-1.04362106-2.32427979-2.32777786-2.32733345-.25893974.00559425-.46593475.21710968-.46593475.47611045 0 .25900269.206995.47051812.46593475.47611237.75875092.0020752 1.37335968.61658287 1.37555695 1.37533379zm-1.51106835-1.85144425c0-.07575607.05981636-.13799476.1355133-.14100075 1.09959794.00280953 1.99030114.89351273 1.99311066 1.99311066.00205231.05171013-.02436256.1003952-.0688343.12686157-.04447174.02646447-.09986115.02646447-.14433289 0-.04446983-.02646637-.0708866-.07515144-.0688324-.12686157-.002079-.94415855-.7669525-1.70903206-1.71111106-1.71111107-.07569695-.00300598-.1355133-.06524467-.1355133-.14099884z"/>
      </g>
    </g>
  </g>
</svg>
