<svg xmlns="http://www.w3.org/2000/svg" width="64" height="64" viewBox="0 0 64 64">
  <g>
    <path fill="rgb(255,243,223)" fill-rule="evenodd" d="M2 32C2 15.43143231 14.9837179 2 31 2c16.01618166 0 29 13.43143231 29 30 0 16.56846378-12.98381834 30-29 30C14.9837179 62 2 48.56846378 2 32z"/>
    <g>
      <path fill-opacity="0" fill-rule="evenodd" stroke="rgb(253,186,69)" stroke-linecap="round" stroke-linejoin="miter" stroke-width="2.5" d="M30.05250529 42.62931166c-.4409.2907-1.0127.2907-1.4537 0-2.76672-1.7767-5.35328-3.8196-7.72282-6.0993-.00605 0-.01211-.006-.01817-.0121-3.2769-3.2644-4.85781058-6.3534-4.85781058-9.51496 0-4.19725 2.71965058-7.77670878 6.66283058-7.77670878 2.66824.04909188 5.14907 1.38187878 6.66287 3.57945878 1.5138-2.19758 3.9946-3.530367 6.6628-3.57945878.519-.00166753 1.0361.06347168 1.5385.19381478 3.0952.793439 5.7326 2.879874 5.6795 7.572254"/>
      <path fill-opacity="0" fill-rule="evenodd" stroke="rgb(253,186,69)" stroke-linecap="butt" stroke-linejoin="miter" stroke-width="2.5" d="M34.56289529 32.33932465h12.4381s.0984 0 .1949.0191955c0 0 .0965.0191955.1874.0568488 0 0 .0909.0376537.1727.0923177 0 0 .0818.054664.1514.124238 0 0 .0696.069575.1243.151385 0 0 .0546.081811.0923.172714 0 0 .0376.090903.0568.187406 0 0 .0192.096502.0192.194895v12.4381s0 .0984-.0192.1949c0 0-.0192.0965-.0568.1874 0 0-.0377.0909-.0923.1727 0 0-.0547.0818-.1243.1514 0 0-.0696.0696-.1514.1243 0 0-.0818.0546-.1727.0923 0 0-.0909.0376-.1874.0568 0 0-.0965.0192-.1949.0192h-12.4381s-.098393 0-.194895-.0192c0 0-.096503-.0192-.187406-.0568 0 0-.090903-.0377-.172714-.0923 0 0-.08181-.0547-.151385-.1243 0 0-.069574-.0696-.124238-.1514 0 0-.054664-.0818-.0923177-.1727 0 0-.0376533-.0909-.0568488-.1874 0 0-.0191955-.0965-.0191955-.1949v-12.4381s0-.098393.0191955-.194895c0 0 .0191955-.096503.0568488-.187406 0 0 .0376537-.090903.0923177-.172714 0 0 .054664-.08181.124238-.151385 0 0 .069575-.069574.151385-.124238 0 0 .081811-.054664.172714-.0923177 0 0 .090903-.0376533.187406-.0568488 0 0 .096502-.0191955.194895-.0191955h0z"/>
      <path fill="rgb(253,186,69)" fill-rule="evenodd" d="M38.71087646 38.03804016c-.6132965 0-1.11046981-.4971695-1.11046981-1.11046982 0-.6132965.4971733-1.11046982 1.11046981-1.11046982.61330033 0 1.11046982.49717331 1.11046982 1.11046982 0 .61330033-.4971695 1.11046982-1.11046982 1.11046982zm4.44187928 0c-.61329651 0-1.11046982-.4971695-1.11046982-1.11046982 0-.6132965.4971733-1.11046982 1.11046982-1.11046982.61330032 0 1.11046982.49717331 1.11046982 1.11046982 0 .61330033-.4971695 1.11046982-1.11046982 1.11046982zm-4.44187928 4.44187927c-.6132965 0-1.11046981-.4971695-1.11046981-1.11046981 0-.61329651.4971733-1.11046982 1.11046981-1.11046982.61330033 0 1.11046982.4971733 1.11046982 1.11046982 0 .61330032-.4971695 1.11046981-1.11046982 1.11046981zm4.44187928 0c-.61329651 0-1.11046982-.4971695-1.11046982-1.11046981 0-.61329651.4971733-1.11046982 1.11046982-1.11046982.61330032 0 1.11046982.4971733 1.11046982 1.11046982 0 .61330032-.4971695 1.11046981-1.11046982 1.11046981z"/>
    </g>
  </g>
</svg>
