<svg xmlns="http://www.w3.org/2000/svg" xmlns:xlink="http://www.w3.org/1999/xlink" width="41" height="40.445" viewBox="0 0 41 40.445">
  <defs>
    <rect id="rect-2" width="24" height="24" x="8.5" y="8.222"/>
    <mask id="mask-3" maskContentUnits="userSpaceOnUse" maskUnits="userSpaceOnUse">
      <rect width="41" height="40.445" x="0" y="0" fill="black"/>
      <use fill="white" xlink:href="#rect-2"/>
    </mask>
  </defs>
  <g>
    <path fill="rgb(236,235,255)" fill-rule="evenodd" d="M20.2225 0h.555C31.93860158 0 41 9.06139842 41 20.2225S31.93860158 40.445 20.7775 40.445h-.555C9.06139842 40.445 0 31.38360158 0 20.2225S9.06139842 0 20.2225 0z"/>
    <g>
      <use fill="none" xlink:href="#rect-2"/>
      <g mask="url(#mask-3)">
        <path fill="rgb(140,132,243)" fill-rule="evenodd" d="M15.5326662 31.05805588h9.93511105c.57639694-.00024605 1.04363251-.46738053 1.04400063-1.04377747V10.43072224c0-.57683087-.46761513-1.04444409-1.04444504-1.04444409h-9.93466663c-.57683087 0-1.04444409.46761322-1.04444409 1.04444409v19.58400058c.00061321.57639695.46804714 1.04333306 1.04444409 1.04333306zm-.15555477-20.62666703c0-.0859108.06964493-.15555572.15555573-.15555572l9.9351101-.00066662c.08591079 0 .15555572.06964493.15555572.15555573v19.58399868c0 .0859108-.06964493.15555572-.15555573.15555572h-9.93511009c-.0859108 0-.15555573-.06964493-.15555573-.15555572V10.43138885z"/>
        <ellipse cx="20.5" cy="28.289" fill="rgb(140,132,243)" rx=".883" ry=".883"/>
        <path fill="rgb(140,132,243)" fill-rule="evenodd" d="M16.27777863 17.7780552c0 2.32822227 1.894001 4.22222327 4.22222137 4.22222327 2.32822418 0 4.22222328-1.894001 4.22222328-4.22222328 0-2.32822227-1.8939991-4.22222233-4.22222328-4.22222233-2.32822037 0-4.22222137 1.89400006-4.22222137 4.22222233zm.8888874 0c0-1.83799935 1.49533272-3.33333302 3.33333397-3.33333302 1.83799934 0 3.33333206 1.49533367 3.33333206 3.33333301S22.33799934 21.11138916 20.5 21.11138916c-1.83800125 0-3.33333397-1.49533463-3.33333397-3.33333397z"/>
        <path fill="rgb(140,132,243)" fill-rule="evenodd" d="M20.92222214 16.22249985c.02074432-.0512352.03116607-.10606194.03066635-.16133309h.00044441c.00089836-.10986328-.04167747-.2156248-.11844444-.29422283-.03754997-.03792476-.08216858-.06812382-.1313324-.08888817-.0518837-.0218792-.10769463-.03291988-.16399956-.03244495-.05673217-.00040245-.11296272.01063156-.1653347.03244495-.04994201.0204134-.0952816.05063916-.1333332.08888817-.11730767.12088108-.15154458.299922-.08711052.45555592.0200138.04920006.0496273.09392166.08711052.13155555.03817367.0381031.08348083.06830788.1333332.08888817.05231667.02202034.10857392.03313446.1653347.03266716.05633164.00051308.11216355-.01060867.16399956-.03266716.04907417-.02092743.09366417-.0511074.1313324-.08888817.03756332-.03761291.06725311-.08233642.08733368-.13155555zm-1.4193325 1.05711174H20.25l-.00066566 1.65555572h-.8382225v.49466515h2.25177764v-.49466515h-.76288795v-2.15022278h-1.3971119v.49466706z"/>
        <rect width="11.133" height=".889" x="14.933" y="25.655" fill="rgb(140,132,243)" rx="0" ry="0"/>
      </g>
    </g>
  </g>
</svg>
