<svg xmlns="http://www.w3.org/2000/svg" width="64" height="64" viewBox="0 0 64 64">
  <g>
    <path fill="rgb(236,235,255)" fill-rule="evenodd" d="M2 32C2 15.43143231 14.9837179 2 31 2c16.01618166 0 29 13.43143231 29 30 0 16.56846378-12.98381834 30-29 30C14.9837179 62 2 48.56846378 2 32z"/>
    <g>
      <path fill-opacity="0" fill-rule="evenodd" stroke="rgb(140,132,243)" stroke-linecap="butt" stroke-linejoin="miter" stroke-width="2.5" d="M21.79174665 31.16402587l9.37223814-9.3722434s.13555233-.1355524.27761401-.26431262c0 0 .14199096-.12868952.29019245-.25031999 0 0 .14820148-.12163047.30215712-.23580973 0 0 .15395578-.11417912.3133348-.22067228 0 0 .159379-.10649315.32376433-.20501014 0 0 .16445604-.0985877.33348565-.18892488 0 0 .1690296-.09033719.3423252-.17230717 0 0 .17329558-.08197.35039399-.15532883 0 0 .17709911-.07335814.35759234-.13794815 0 0 .18049394-.0645893.36388914-.12019624 0 0 .1834652-.05567834.36939892-.10224138 0 0 .18592664-.0465701.37394632-.0839761 0 0 .18801969-.037406.37758086-.06549234 0 0 .18963896-.02814997.38042344-.046952 0 0 .1907067-.01873838.38221242-.02819245 0 0 .19143502-.00938336.38308924-.00935513 0 0 .19172493-.00004248.38315995.0093832 0 0 .19143502.00942568.382269.02814981 0 0 .19076328.01879485.38031033.04698007 0 0 .18961776.02811451.3776304.06551334 0 0 .18800556.03739175.37398173.0839264 0 0 .18591252.04661242.3693714.10222632 0 0 .18338815.0556846.36389839.12022926 0 0 .1805173.06455173.3575698.1379423 0 0 .17713027.07332692.3503573.15533711 0 0 .17329776.08193949.34238823.17225819 0 0 .16902683.09039648.33345747.1889247 0 0 .16443064.0985282.32381254.20501844 0 0 .15931825.10656802.31333322.22070208 0 0 .15394424.11420478.30212558.23579882 0 0 .1481884.12160111.29021083.25032986 0 0 .1420295.12873582.27757484.26428108l.00141422.00141421s.13553826.1355382.26427416.27756763c0 0 .12872883.14202236.25033003.2902107 0 0 .12159412.14818125.23579898.30212544 0 0 .11413415.1540149.22070226.3133331 0 0 .10649032.15938183.20501863.32381242 0 0 .0985283.16443058.18891074.33344322 0 0 .09029758.1690692.1722513.34238105 0 0 .08202444.17324114.15535147.35037137 0 0 .07339773.17705952.13795663.35758386 0 0 .0645589.18052434.12020825.36387711 0 0 .05564936.1834942.10224775.36939256 0 0 .04652768.18596907.08393368.37398875 0 0 .037406.18801968.0654782.377595 0 0 .0282136.18957532.0470227.38035273 0 0 .01866767.1907774.02814296.38226192 0 0 .00940457.1914138.00933391.38311045 0 0 .00007077.19169665-.0093337.38311045 0 0-.00947518.19148452-.02814274.38226194 0 0-.01880899.19077741-.0470225.38035275 0 0-.02807208.18957533-.06547798.37759504 0 0-.0374059.1880197-.08393347.3739888 0 0-.04659828.18589838-.10224753.36939261 0 0-.05564926.1833528-.12020805.36387718 0 0-.0645588.18052438-.13795644.35758394 0 0-.07332692.17713027-.15535126.35037145 0 0-.08195363.1733119-.17225111.34238116 0 0-.0903682.16899854-.18893884.3334716 0 0-.09849993.16440236-.20499017.32378426 0 0-.10656094.15931119-.22068794.31331908 0 0-.1141977.15393718-.23582002.3021468 0 0-.12162233.1482096-.25031572.29019668 0 0-.1287641.1420578-.26431644.2776102l-9.37223813 9.3722434s-.13554526.13554533-.2775747.26428124c0 0-.14202235.12872882-.29020362.25032295 0 0-.14818833.1216012-.30213252.23580605 0 0-.1540149.11413415-.3133331.22070226 0 0-.15938183.10649033-.32381241.20501863 0 0-.16443059.0985283-.33345737.18892488 0 0-.16909042.0903188-.34238812.17225838 0 0-.173227.0820103-.35035723.15533732 0 0-.17705244.07339066-.35756972.13794249 0 0-.1805102.06454476-.36389832.12022947 0 0-.18345884.055614-.36937134.10222653 0 0-.18597615.04653475-.37398169.0839266 0 0-.1880126.03739894-.37763035.06551356 0 0-.18954704.02818533-.3803103.04698028 0 0-.19083398.01872424-.382269.02815003 0 0-.191435.00942578-.38315994.00938341 0 0-.19165422.00002834-.38308924-.00935491 0 0-.19150574-.00945397-.38221244-.02819224 0 0-.19078449-.01880192-.38042346-.04695179 0 0-.1895612-.02808622-.3775809-.06549212 0 0-.1880197-.0374059-.37394637-.0839759 0 0-.18593374-.04656293-.36939898-.10224117 0 0-.18339523-.05560683-.3638892-.12019603 0 0-.18049327-.06458991-.35759243-.13794795 0 0-.17709845-.07335874-.35039408-.15532863 0 0-.17329563-.0819699-.34232529-.17230698 0 0-.1690438-.09035123-.33345747-.18889641 0 0-.16441366-.09854518-.32379273-.20503825 0 0-.15938615-.10650013-.31334906-.22068624 0 0-.15396278-.11418625-.30213605-.23578835 0 0-.14818034-.12160917-.29020673-.25033397 0 0-.14203347-.12873185-.27757173-.26427004l-.00141422-.00141421s-.13554533-.13554526-.26427727-.27757866c0 0-.12872487-.14202632-.25032706-.29019952 0 0-.12160925-.14818027-.23579559-.30214298 0 0-.11418619-.15396286-.22068641-.31334894 0 0-.10649316-.159379-.20503843-.32379262 0 0-.09854528-.16441361-.18891075-.3334715 0 0-.0903584-.16905083-.17231424-.34233227 0 0-.08195584-.17328144-.15531469-.35037985 0 0-.07335106-.17709205-.137934-.3575782 0 0-.06457516-.1804798-.12021745-.36391036 0 0-.05564299-.18342984-.10222017-.3693777 0 0-.04657717-.18593372-.08396903-.37393926 0 0-.03739893-.1880126-.0655277-.37761621 0 0-.02812168-.18961068-.04690956-.38038101 0 0-.01879495-.19076326-.02819953-.3822195 0 0-.00940457-.19145622-.00940463-.38313873 0 0-5e-8-.1916825.00940442-.38313874 0 0 .00940446-.19145623.0281993-.3822195 0 0 .01878778-.19077035.04690936-.38038104 0 0 .02812866-.18960362.06552748-.37761625 0 0 .03739176-.18800557.08396883-.3739393 0 0 .04657707-.18594789.10221996-.36937777 0 0 .05564218-.18343058.12021724-.36391042 0 0 .06458284-.1804862.1379338-.35757828 0 0 .07335875-.17709845.1553145-.35037994 0 0 .08195575-.17328149.17231405-.34233236 0 0 .09036537-.16905794.18891055-.3334716 0 0 .09854518-.16441368.20503825-.32379275 0 0 .10650013-.15938614.22068624-.31334905 0 0 .11418625-.15396278.23578835-.30213605 0 0 .12160917-.14818034.25033397-.29020673 0 0 .12873185-.14203347.26427711-.2775788h0z"/>
      <path fill-opacity="0" fill-rule="evenodd" stroke="rgb(140,132,243)" stroke-linecap="butt" stroke-linejoin="miter" stroke-width="2.5" d="M25.6273235 25.62722809l12.7594626 12.75945544"/>
      <path fill="rgb(140,132,243)" fill-rule="evenodd" d="M34.85062848 24.55188497c-.46978915-.46978888-.46978936-1.23146734-4.7e-7-1.70125649.46978747-.46978773 1.23146734-.46978936 1.70125648-4.7e-7.46978774.46978747.46978795 1.23146875 4.8e-7 1.70125648-.46978888.46978915-1.23146875.46978795-1.70125649 4.8e-7z"/>
    </g>
  </g>
</svg>
