<svg xmlns="http://www.w3.org/2000/svg" width="319" height="180" viewBox="0 0 319 180">
  <defs>
    <linearGradient id="linearGradient-2" x1="379.61" x2="-140.36" y1="219.6" y2="-59.4" gradientUnits="userSpaceOnUse">
      <stop offset="0" stop-color="rgb(0,140,255)"/>
      <stop offset="1" stop-color="rgb(0,53,186)"/>
    </linearGradient>
  </defs>
  <g>
    <rect width="319" height="180" x="0" y="0" fill="url(#linearGradient-2)" rx="0" ry="0"/>
    <g transform="translate(59.5 7.65866856)">
      <path fill="rgb(0,140,255)" fill-rule="evenodd" d="M-20.53272057 144.6826477c-2.34000015-.00003051-4.2369194-1.89698791-4.2369194-4.23698425 0-2.3400116 1.8969593-4.23698425 4.23698044-4.23698425 2.34001923 0 4.23697853 1.89697266 4.23697853 4.23698425-.00267792 2.338974-1.89811897 4.23435974-4.23703957 4.23698426zm.0002308-7.35473632c-1.72204972 0-3.11792947 1.39587402-3.11792947 3.11778259 0 1.72189331 1.39587975 3.1177826 3.11778069 3.1177826 1.72189903 0 3.11777878-1.39588929 3.11777878-3.1177826-.00167847-1.72102356-1.39645958-3.11592102-3.11763-3.1177826z"/>
      <path fill="rgb(0,140,255)" fill-rule="evenodd" d="M84.32245636 8.4739604c-2.33957672-.00180054-4.23490906-1.89952993-4.2337265-4.23911C80.0899124 1.89524044 81.98716736-.00058947 84.32678986 0c2.3395996.0005907 4.2359085 1.89738047 4.2359085 4.23698044-.00267791 2.34022999-1.90007019 4.23614073-4.240242 4.23697996zm.0000763-7.3547399c-1.72148896.00177001-3.1157608 1.3984301-3.11457825 3.11991.00117492 1.72149038 1.39736938 3.11624002 3.1188507 3.1156497 1.72148896-.00058937 3.11670685-1.39628983 3.11670685-3.11777973-.00167846-1.72227002-1.39840698-3.11769999-3.12082672-3.11777997h-.00015259z"/>
      <path fill="rgb(0,140,255)" fill-rule="evenodd" d="M237.67427063 112.75333405l-4.75021362-4.75022126 4.75021362-4.75022888 4.75183105 4.75022888-4.75183105 4.75022126zm-3.16731262-4.75019837l3.1673584 3.16733551 3.1689453-3.1673355-3.1689453-3.16735078-3.1673584 3.16735077z"/>
      <path fill="rgb(0,140,255)" fill-rule="evenodd" d="M165.76295471 93.86024475c-2.33996582-.00003815-4.2368927-1.89698791-4.2368927-4.23699188 0-2.34001923 1.89697266-4.23697662 4.23698425-4.23697662 2.3400116 0 4.236969 1.8969574 4.236969 4.23697662-.0027008 2.33899689-1.89811707 4.23438263-4.23706055 4.23699188zm.00022888-7.35475159c-1.72203064 0-3.11790466 1.39588166-3.11790466 3.1177826s1.39587402 3.11777496 3.1177826 3.11777496c1.7218933 0 3.11776733-1.39587402 3.11776733-3.11777496-.00167847-1.72102356-1.39645386-3.11592102-3.11764527-3.1177826z"/>
      <path fill="rgb(0,140,255)" fill-rule="evenodd" d="M15.99252987 76.48418427L10 70.48841095l5.99252987-5.99572754 5.99897098 5.99572754-5.99897098 5.99577332zm-4.40967941-5.99578858l4.40965938 4.40969086 4.4080906-4.40969086-4.4080906-4.40966034-4.40965938 4.40966034z"/>
      <path fill="rgb(0,140,255)" fill-rule="evenodd" d="M211.66311646 145.50358582l4.5695343 7.91436767h-9.13908387l4.56954957-7.91436767zm-2.62536622 6.79515075h5.26185608l-2.6301422-4.5567627-2.63171388 4.5567627z"/>
      <path fill="rgb(0,140,255)" fill-rule="evenodd" d="M217.53608704 18.14002943l-5.9925232-5.99576902 5.9925232-5.99572993 5.99887085 5.99572993-5.99887085 5.99576902zm-4.4096222-5.99578905l4.40963745 4.40968943 4.4080658-4.40968943-4.4080658-4.40965986-4.40963745 4.40965986z"/>
      <path fill="rgb(0,140,255)" fill-rule="evenodd" d="M-42.90744466 15.74454782l1.2719207-9.05014593 7.20137781 5.62653812-8.47329851 3.4236078zm2.1096585-6.96911121l-.73231094 5.21064005 4.87845789-1.97034935-4.14614694-3.2402907z"/>
    </g>
  </g>
</svg>
