<svg xmlns="http://www.w3.org/2000/svg" xmlns:xlink="http://www.w3.org/1999/xlink" width="40" height="40" viewBox="0 0 40 40">
  <defs>
    <rect id="rect-2" width="24" height="24" x="8" y="8"/>
    <mask id="mask-3" maskContentUnits="userSpaceOnUse" maskUnits="userSpaceOnUse">
      <rect width="40" height="40" x="0" y="0" fill="black"/>
      <use fill="white" xlink:href="#rect-2"/>
    </mask>
  </defs>
  <g>
    <ellipse cx="20" cy="20" fill="rgb(227,252,255)" rx="20" ry="20"/>
    <g>
      <use fill="none" xlink:href="#rect-2"/>
      <g mask="url(#mask-3)">
        <path fill="rgb(92,195,208)" fill-rule="evenodd" d="M15.2417183 29.05812454c1.46251678.7736721 3.09108543 1.1804924 4.74562453 1.18546868 3.58776284-.0224247 6.9096613-1.8957119 8.78531361-4.95421791 1.90673447-3.16402054 1.96243668-7.1095276.14578247-10.32611466C27.10178471 11.74667168 23.69413948 9.75718498 20 9.75640678c-5.16833496-.00036811-9.52748108 3.84925938-10.16625023 8.97796822-.2422657 2.01529312.11342526 4.05733871 1.0228119 5.87203217L9.83656215 27.9073429c-.19459057.63082695-.02074528 1.3175106.45057392 1.77975082s1.16125393.62269783 1.78817558.41587449l3.16640663-1.04484368zm.3285942-1.1015625l-.2156248-.12046814-3.6323433 1.20000077c-.22740841.0750389-.47768402.01671218-.64848805-.15113068-.17080402-.16784287-.23349952-.41706085-.16244983-.64574432l1.15734386-3.74531174-.11062527-.20718765c-.88091945-1.66011048-1.23260974-3.55007554-1.0078125-5.41593934.24320507-2.01667213 1.16042996-3.89208412 2.60296917-5.32218647 3.25937653-3.2581768 8.43733406-3.5725479 12.06694603-.732625 3.62961293 2.83992386 4.5699892 7.94146919 2.19149113 11.88887596-.81794739 1.33654022-1.96347046 2.44221115-3.32812595 3.2123413-2.75527191 1.58769608-6.14408684 1.60266877-8.91328049.03937531z"/>
        <path fill="rgb(92,195,208)" fill-rule="evenodd" d="M19.6320324 20.92343903c-.19921876.476717-.21234322 1.2585926-.21234322 1.2585926l.78843689-.00187492c0-1.19812393.75-1.828125.75-1.828125.90890503-.83484268 1.23374939-1.4606247 1.23374939-1.4606247.21577072-.41428566.3272705-.87493133.32484436-1.34203148.00093841-1.13999939-.65953064-1.80562496-.65953064-1.80562496-.66046906-.66562557-1.80093765-.66562557-1.80093765-.66562557-1.11375046-.00093746-1.83703232.6520319-1.83703232.6520319-.72327996.6529684-.73593712 1.74093723-.73593712 1.74093723h.78703117c.01406288-.77578163.50062561-1.22999954.50062561-1.22999954.48656273-.45421887 1.28343773-.45421887 1.28343773-.45421887.7893734-.00093746 1.23046875.47343731 1.23046875.47343731.44109345.47437478.44109345 1.30171776.44109345 1.30171776.00385856.24793816-.03093338.4949627-.10312462.73218918-.06626892.210392-.16461373.40929604-.29156304.58968735-.1875.26859283-.84375.9145317-.84375.9145317-.65625.6482811-.85546875 1.125-.85546875 1.125zm-.17765618 3.09327888c-.09452057.10511208-.14488792.24261284-.140625.38390732-.00354958.13809395.04846191.27183533.14437485.37125015.09515571.10031128.22874832.14999962.40124893.14999962.14757538.00621986.29124641-.04833412.397501-.15093803.09840392-.0977478.15230369-.2316475.1490612-.37031174.00339126-.14270783-.05025673-.28087807-.1490612-.38390732-.1054039-.10686684-.2513237-.1638031-.40125085-.1565609-.26062393-.0004692-.40124893.1565609-.40124893.1565609z"/>
        <path fill="rgb(92,195,208)" fill-rule="evenodd" d="M20.4453125 22.41734314h-1.26421928l.00421905-.23859406c.00937462-.5479679.0867176-1.0007801.23015595-1.3448429.14343834-.34406281.44296836-.74296761.9074993-1.19999886.42609406-.41859436.703125-.71578217.81843759-.8821888.1129818-.16104889.2007122-.3384056.26015663-.52593803.06503868-.21418381.09666061-.43711472.09375-.66093636 0-.49500084-.12374878-.86859321-.37828064-1.14187622-.25453186-.2732811-.59625054-.3989048-1.05890656-.3989048-.47343826 0-.84093666.12796783-1.125.3914051-.28406334.26343728-.41812515.609375-.42609405 1.0626564l-.00374985.23015595h-1.2576561l.00328064-.23718643c.00937653-.7893753.28125-1.43297005.81328201-1.91203117.53203202-.47906304 1.1948433-.71531296 1.99406243-.71531296.82171821 0 1.48359299.24703121 1.96875.73499966.4851551.4879694.727499 1.15031337.727499 1.96875095.00196267.50456429-.118515 1.00207329-.35109329 1.44984245-.23156166.44625092-.65156173.9450016-1.28296852 1.52578163l-.0079689.0065632c-.44812393.375-.66562462.91593742-.66562462 1.6495304l.00046921.23812485zm-.46171951-.46875h-.31875038l-.00187493-.0009365c.0229683-.38015557.0848446-.69375039.18515778-.93562508.11999893-.28734398.3904686-.6393757.80390548-1.0462494.45093728-.4448452.73734284-.75421905.87281228-.94640731.14006233-.20013619.24910354-.42027474.32343673-.65296936.07901955-.26053047.11743927-.53167725.11390686-.80390549 0-.609375-.16359329-1.09499931-.50250053-1.45921898-.33890534-.36421871-.8128128-.54843712-1.40203095-.54843712-.58921814 0-1.07484436.17249966-1.44281196.515625-.32296944.29953194-.51093865.69140625-.5625 1.16718674h-.32250023c.05156326-.54984283.26437569-.98718643.64640617-1.3326559.44156266-.39890576.99093819-.59249974 1.6800003-.59249974.7017193 0 1.23749925.19593716 1.63593675.59812546.3984375.40218735.59203147.9375.59203147 1.640625.00191498.42936897-.10055923.85277176-.29859352 1.23374939-.20249939.3904686-.59953117.8592186-1.1803131 1.39312553-.499218.4214058-.77484322 1.0162487-.82171822 1.77046776zm-.6956253 2.9845314c.140625.1481247.33281325.22312546.57140731.22312546.21126556.00793076.41645432-.07159996.56718826-.21984291.14182854-.14192581.22027016-.33515549.21749878-.53578186.003973-.20289421-.07293129-.3990345-.21374893-.54515648-.14893341-.154356-.35660362-.23790169-.57093811-.22968674-.24046898 0-.43406296.07921791-.57468796.234375-.1348133.14765358-.20765495.34151078-.2034378.54140473-.00424385.19757843.0701065.38876342.20671844.5315628zm.3435955-.7574997c.0314064-.03327941.08718681-.08015441.22781181-.08015441V24.094532c.13406372 0 .1949997.04781342.23109436.0848446.05722809.05946922.0877037.1397209.08437538.22218703.00339699.07685471-.02609443.15152169-.08109474.20531273-.03421783.03374863-.09609413.08062363-.234375.08062363-.15796852 0-.21328163-.05812454-.23156166-.07734299-.05314636-.05610656-.08123016-.1313877-.0778122-.20859337-.00377464-.0831375.02555466-.16438102.08156205-.2259388z"/>
      </g>
    </g>
  </g>
</svg>
