<svg xmlns="http://www.w3.org/2000/svg" xmlns:xlink="http://www.w3.org/1999/xlink" width="56" height="57.126" viewBox="0 0 56 57.126">
  <defs>
    <rect id="rect-1" width="56" height="56" x="0" y="1.126"/>
    <mask id="mask-2" maskContentUnits="userSpaceOnUse" maskUnits="userSpaceOnUse">
      <rect width="56" height="57.126" x="0" y="0" fill="black"/>
      <use fill="white" xlink:href="#rect-1"/>
    </mask>
    <path id="path-4" fill-rule="evenodd" d="M27.99999976 2.67041373c-13.97977924 0-25.32958603 11.34980679-25.32958603 25.32958603 0 13.9797783 11.34980679 25.32958603 25.32958603 25.32958603 13.9797783 0 25.32958603-11.34980774 25.32958603-25.32958603 0-13.97977924-11.34980774-25.32958603-25.32958603-25.32958603z"/>
    <mask id="mask-5" maskContentUnits="userSpaceOnUse" maskUnits="userSpaceOnUse">
      <rect width="56" height="57.126" x="0" y="0" fill="black"/>
      <use fill="white" xlink:href="#path-4"/>
    </mask>
    <path id="path-19" fill-rule="evenodd" d="M28.35402742 26.61665236c-.00357003.00047735-.00718771.00047735-.01075774 0-.36380718-.123714-.70512091-.2596527-.88946944-.55549054-.18434854-.29583783-.15207532-.69534115-.12664794-.98335517l.33593486-3.74907215c.00299889-.01765665.01910159-.0300166.03693328-.02834889.01783169.00166771.03136324.01679922.03103608.03470573l-.33544587 3.74907215c-.03227322.36087326-.04596489.68067151.11637918.9408132.17212382.2767673.50170184.40683815.85328432.52664024.01569146.00554467.02512099.02157202.0223459.0379813-.0027751.01640926-.01695053.0284446-.03359263.0285211v-.00146697z"/>
    <mask id="mask-20" x="0" y="0" maskContentUnits="userSpaceOnUse" maskUnits="userSpaceOnUse">
      <rect width="56" height="57.126" x="0" y="0" fill="black"/>
      <use fill="white" xlink:href="#path-19"/>
    </mask>
    <path id="path-25" fill-rule="evenodd" d="M26.58193436 28.93152226c.17840468.0939463.36398861.1735757.55500155.23813723.1932123.0628109.39280122.10397508.59509858.12273603.40254412.0435942.80962667.01561659 1.20242187-.082639.22305345-.05334283.43904515-.13278051.6435084-.23667026.06014554-.03129525.00733482-.11686817-.05232173-.08948484-.17683765.08309686-.35996272.15209577-.54766673.206353-.18692086.05165607-.37804532.08667374-.57113816.10464347-.39224613.03673055-.78788706.00580043-1.16965965-.09144079-.10562145-.02689434-.21222086-.05232173-.31539736-.08850685-.10599124-.03779974-.20995835-.08105136-.31148545-.12958186-.03080626-.01466965-.0577006.02982828-.02689435.04645387h-.00146697z"/>
    <mask id="mask-26" x="0" y="0" maskContentUnits="userSpaceOnUse" maskUnits="userSpaceOnUse">
      <rect width="56" height="57.126" x="0" y="0" fill="black"/>
      <use fill="white" xlink:href="#path-25"/>
    </mask>
  </defs>
  <g>
    <use fill="none" xlink:href="#rect-1"/>
    <g mask="url(#mask-2)">
      <ellipse cx="28" cy="28" fill="rgb(250,251,255)" rx="25.33" ry="25.33"/>
      <g>
        <use fill="none" xlink:href="#path-4"/>
        <g mask="url(#mask-5)">
          <path fill="rgb(240,190,180)" fill-rule="evenodd" d="M42.80949513 44.829994c-.8013066-.0026746-1.49113862.56516866-1.6425112 1.35205224-.72957032 3.84540282-1.47674421 11.23254681-1.29239568 15.09750915h7.68493778c-1.2048668-5.47079943-2.44494076-12.44230349-3.12952417-15.18699398-.1863219-.74293512-.85456455-1.2635756-1.62050673-1.2625674z"/>
          <path fill="rgb(249,201,86)" fill-rule="evenodd" d="M40.75672287 51.22106913c.6273718-4.79208387 1.62686358-9.16314895 1.93639308-9.51326447.3095295-.35011551.75890961.4048822 1.10120132 1.14521025.27368097.60716816.49216197 1.23773542.65279918 1.88407135.2845911 1.11684893.88017867 3.47181587 1.59948024 6.48398287h-5.28987382z"/>
          <path fill="rgb(240,190,180)" fill-rule="evenodd" d="M13.19050487 44.829994c.8013066-.0026746 1.49113862.56516866 1.6425112 1.35205224.72957032 3.84540282 1.47674421 11.23254681 1.29239568 15.09750915H8.44047397c1.2048668-5.47079943 2.44494076-12.44230349 3.12952417-15.18699398.1863219-.74293512.85456455-1.2635756 1.62050673-1.2625674z"/>
          <path fill="rgb(249,201,86)" fill-rule="evenodd" d="M15.24327713 51.22106913c-.6273718-4.79208387-1.62686358-9.16314895-1.93639308-9.51326447-.3095295-.35011551-.75890961.4048822-1.10120132 1.14521025-.27368097.60716816-.49216197 1.23773542-.65279918 1.88407135-.2845911 1.11684893-.88017867 3.47181587-1.59948024 6.48398287h5.28987382z"/>
          <path fill="rgb(240,190,180)" fill-rule="evenodd" d="M32.17742577 35.02186968c-.21564377-2.5916372-.6024334-7.24973832-.6024334-7.24973832h-6.93580793l-.48458726 7.13189218c-.0757859 1.11562002-.75116028 2.10218715-1.76378026 2.57647856l-8.81596736 4.12901595 2.5833244 18.74047087h24.43131497l2.03565767-18.30771636-8.79591886-4.5475898c-.94018148-.48427874-1.56446088-1.41884977-1.65180197-2.47281308z"/>
          <path fill="rgb(224,173,166)" fill-rule="evenodd" d="M27.16285229 35.53775218c1.99458266.44644618 3.89870252-.70463193 4.84098269-2.38479521l-.29926075-5.39109436c-.00510824-.06672298-.0607077-.11827498-.1276259-.11833514h-6.93776389c-.06734917.00035431-.12301733.05260986-.1276259.1198021l-.24693902 5.49622681c.80145158 1.0483906 1.58383262 1.98382493 2.89823277 2.2781958z"/>
          <path fill="rgb(249,201,86)" fill-rule="evenodd" d="M34.3260397 37.18710921s-1.40144004 6.21014951-6.19352391 6.21014951c-4.8409827 0-6.25904833-6.39498703-6.25904833-6.39498703l-8.76022272 4.61066927 1.87967045 19.76832397h26.23665923l1.80925615-19.68812991-8.71279087-4.5060258z"/>
          <path fill="rgb(240,190,180)" fill-rule="evenodd" d="M36.36169738 20.6974508c.47285154.18385954.7388611.80291854.79411675 1.3862814.13534263 1.5225691-.34233678 3.03621793-1.32711384 4.2052981-.15941014.18728246-.33642385.36771909-.55940244.47187356-1.53395583.71343371-.96232868-3.76863167-.81123134-4.46397282.16821192-.76575545.93347837-1.9769791 1.90363087-1.59948024z"/>
          <path fill="rgb(240,190,180)" fill-rule="evenodd" d="M36.36169738 22.41673313c-.01584229-.10828337-.04990062-.21310367-.10073156-.31001848-.05280662-.09799602-.1516361-.16259406-.26258664-.17163485-.20390806-.00293392-.31833129.22933545-.37260897.42590868-.14155934.51211647-.21440477 1.04078024-.21662175 1.5720969.04247457-.05476706.12098836-.06542406.17652472-.02396041.05222847.04238203.08830885.10142265.10219852.16723395.14669645.49632297-.19315032 1.08017482-.69680811 1.2004659"/>
          <path fill="rgb(240,190,180)" fill-rule="evenodd" d="M20.0602994 20.6974508c-.47285154.18385954-.7388611.80291854-.79411676 1.3862814-.1355625 1.52259305.342143 3.03632453 1.32711384 4.2052981.15941014.18728246.33642385.36771909.55940245.47187356 1.53395583.71343371.96232868-3.76863167.81074235-4.46397282-.16723395-.76575545-.93201141-1.9769791-1.90314188-1.59948024z"/>
          <path fill="rgb(240,190,180)" fill-rule="evenodd" d="M20.06323333 22.41673313c.01561879-.1083355.04968916-.21319285.10073156-.31001848.0527381-.09805893.15160596-.16268206.26258663-.17163485.20390806-.00293392.31833129.22933545.37260897.42590868.1413272.5121643.21416834 1.04079697.21662175 1.5720969-.04247457-.05476706-.12098836-.06542406-.17652472-.02396041-.05222847.04238203-.08830885.10142265-.10219852.16723395-.14669645.49632297.19315032 1.08017482.69631913 1.2004659"/>
          <path fill="rgb(240,190,180)" fill-rule="evenodd" d="M21.11455785 20.35613707c.06475565-1.18581735.24490247-2.36250361.53788697-3.51337987.45867088-1.76671418 1.50070463-3.3999346 3.1075197-4.30309572 1.77502698-.99753583 3.92119597-1.19215311 5.85465512-.76233253 1.42735641.31735331 2.79261133 1.11489298 3.62829208 2.35741188.88995843 1.320268.9779763 3.3216965 1.10804715 4.88401364.19462997 2.3109375.00259574 4.6381544-.56820423 6.88593114-.46845065 1.8239258-1.2503427 3.63709387-2.5050863 5.04880266-.98873404 1.11293703-2.3187818 1.9520407-3.80823972 1.99458266-.2348299.0066462-.46981382-.00561809-.70267597-.0366741-1.64593411-.21857771-3.0038542-1.33053677-3.9818305-2.63124525-1.46207458-1.9437279-2.3070461-4.43023264-2.5916372-6.88495316-.11295253-1.0089154-.13929114-2.02565099-.0787271-3.03906135z"/>
          <path fill="rgb(57,34,47)" fill-rule="evenodd" d="M36.47563161 18.89699642c0-1.12467274-.10073155-3.89674657-.41417296-4.97887735-.55384546-1.88453026-1.74023814-3.52061239-3.3593486-4.63267373-1.40241801-.95646083-2.91974824-1.32026801-4.5104267-1.29386265-1.59018946-.02542738-3.1075197.33740182-4.5099377 1.29386265-1.61874665 1.1118969-2.80494 2.7475969-3.35885961 4.63169576-.3134414 1.08213078-.412706 3.85616055-.41417297 4.97887735 0 .5691822.02689435 1.13738644.05183275 1.70559067 0-.00782381.03178423 0 .0743262.01809256.20928692-.0904628.42982058-.13104883.61857.0039119.30415063.09144079.37700987.5202834.40194826.90511707.04889882.24449408.03129525.5530456.05232174.78238104 0 0 .04596488.50659173.09290775 1.01318345 0 0 .30366164-1.71145853.60830125-3.42291705.18434854-1.0444787.13349377-2.11634072.33593486-3.16081941.11735716-.60390037.23764825-1.21806948.52664024-1.76035734.288992-.54228786.7760242-1.01465041 1.38041355-1.1310296.82687896-.15941013 1.61072697.3554944 2.3852842.68458342 1.12033593.48285933 2.39011.48285933 3.51044593 0 .77455723-.33104498 1.55840524-.8459495 2.3852842-.68458341.60438936.11637918 1.09191054.58678578 1.38041355 1.13102959.28850301.54424381.40928308 1.15743495.52664024 1.76035734.17945865.92907749.18826044 1.89776301.28214616 2.83613127.13349377 1.3373826.40390422 2.66938632.6107462 3.99796712 0 0 .1031765-.86550902.20733098-1.73052906.03422917-.28752503.07334822-.58678578.24009318-.82443402.1230829-.17705206.32239067-.28576538.53788697-.2933929.2513399-.0039119.25378485.12566996.32371015-.13838364.1281149-.48605422.03471816-1.18677424.03374018-1.69092103z"/>
          <g>
            <use fill="rgb(155,103,96)" xlink:href="#path-19"/>
            <use fill-opacity="0" stroke="rgb(155,103,96)" stroke-linecap="butt" stroke-linejoin="miter" stroke-width="6" mask="url(#mask-20)" xlink:href="#path-19"/>
          </g>
          <path fill="rgb(57,34,47)" fill-rule="evenodd" d="M24.49004305 23.164885c-.85866319-.0948637-.71294472-1.42980135.14669645-1.33444866.85964117.09535269.71245574 1.42931236-.14669645 1.33444866z"/>
          <path fill="rgb(55,33,46)" fill-rule="evenodd" d="M22.06368385 20.45100077c.11477677-.05524784.23247035-.10421854.35256046-.14669645.12029108-.04351994.24107116-.08801786.3628292-.12615894.12175806-.03814108.24742801-.07090328.37309796-.09779763.06356846-.01369167.12762591-.02591637.19217235-.03618512l.08606191-.01320268c.00147577-.00021076.00280386-.00040342.003997-.00057897-.00044401.00032958.00076672.00057897.00529378.00057897l.02151548-.00293393.05427768-.00635685c.25744835-.02924345.51700326-.03529859.7755352-.01809256.06307948.0039119.12664794.00977976.18923842.01711458l.04889882.00586786.02151548.00244494h.00342291l.09779763.01466965c.12860389.02151548.2562298.04889881.38238874.08215.139989.03682962.27777852.08156225.412706.13398276l.0454759.01809256.02493839.01026875s.02689435.01124673.01711458.00684584l.01711459.00733482.04058602.01711458.02542738.01075774.00929077.0039119c.03814108.01613662.07628216.0337402.11442323.04889882l.01026875.0044009.03227322.01369167c.020382.0084683.04173367.01438114.06356846.01760357.03792592.00879739.07724497-.00752015.09779763-.04058602.01933166-.03435386.01376062-.077332-.01369167-.10562144-.05242295-.04818293-.11281348-.08689906-.17848067-.11442322-.06356846-.03129525-.12860389-.05965656-.19559526-.08606192-.12232039-.0498988-.24718547-.09331605-.37407594-.13007085-.25992312-.0752851-.52652435-.12523182-.7960727-.14914138-.5304744-.04850518-1.06531644.00697199-1.57454185.16332204-.14703776.04255468-.29030933.09718101-.42835362.16332204-.13168353.06766716-.2595065.14259775-.38287772.22444556-.02903172.0168789-.03888336.05409627-.02200447.08312799.0168789.02903171.05409627.03888336.08312799.02200446l.00097797.00195596z"/>
          <path fill="rgb(57,34,47)" fill-rule="evenodd" d="M31.6933275 23.164885c.8586632-.0948637.71294473-1.42980135-.14669644-1.33444866-.85964117.09535269-.71245574 1.42931236.14669644 1.33444866z"/>
          <path fill="rgb(55,33,46)" fill-rule="evenodd" d="M34.18081022 20.34586831c-.1110003-.07188125-.22200062-.14180656-.33984676-.20244109-.122027-.0613685-.24855219-.11335185-.37847683-.15549823-.7662102-.25349048-1.5897264-.2779614-2.36963658-.0704143-.14335959.03800808-.28442044.08421208-.42248576.13838365-.07285923.02836131-.14669644.0581896-.21515479.09241876-.07446116.02993977-.1431327.07263186-.20293008.12615894-.02745228.02828944-.03302332.07126758-.01369167.10562145.0206534.03294655.05988492.0492279.09779763.04058601.03432062-.00729912.06773122-.01833705.09963476-.03291135.00079803.00021223.00392169-.00036527.01136555-.00278478l.03471816-.01515864.04889882-.02200446c.05134375-.02249346.10855537-.04889882.164789-.06894733.11907058-.04800348.24049465-.08994693.36380719-.12566996.123714-.03569613.24840598-.0655244.37505391-.08948483.06405745-.0122247.1281149-.02249345.19266133-.03178423.00293393 0 .02151548-.00244494.00342292 0l.02151548-.00244494.04351994-.00537887c.03259938-.0039119.06682855-.00733482.10268751-.01026875.2579789-.02347143.5175563-.02347143.77553521 0 .25048956.02305286.4982183.0698808.73983907.13985061.13887264.03960804.27383337.09046281.41075005.13838365.13344976.0455023.26407658.09889638.39119052.15989912.02903172.0168789.0662491.00702725.08312799-.02200446.01687889-.02903172.00702724-.0662491-.02200447-.08312799l.0039119-.00097798z"/>
          <g>
            <use fill="rgb(155,103,96)" xlink:href="#path-25"/>
            <use fill-opacity="0" stroke="rgb(155,103,96)" stroke-linecap="butt" stroke-linejoin="miter" stroke-width="6" mask="url(#mask-26)" xlink:href="#path-25"/>
          </g>
        </g>
      </g>
    </g>
  </g>
</svg>
