<svg xmlns="http://www.w3.org/2000/svg" xmlns:xlink="http://www.w3.org/1999/xlink" width="40" height="40" viewBox="0 0 40 40">
  <defs>
    <rect id="rect-2" width="24" height="24" x="8" y="8"/>
    <mask id="mask-3" maskContentUnits="userSpaceOnUse" maskUnits="userSpaceOnUse">
      <rect width="40" height="40" x="0" y="0" fill="black"/>
      <use fill="white" xlink:href="#rect-2"/>
    </mask>
  </defs>
  <g>
    <ellipse cx="20" cy="20" fill="rgb(219,228,255)" rx="20" ry="20"/>
    <g>
      <use fill="none" xlink:href="#rect-2"/>
      <g mask="url(#mask-3)">
        <path fill="rgb(71,114,229)" fill-rule="evenodd" d="M16.89359283 30.69781113h14.43187523v-4.96499825c-.00335884-2.75719452-2.23780632-4.99143219-4.99500084-4.99453163h-4.44234275c-2.75711823.00309944-4.9914322 2.2374134-4.99453164 4.99453163v4.96499825zm13.40062523-1.0312481H17.92484283v-3.93375015c.00258255-2.18778992 1.77549172-3.96069908 3.96328164-3.96328163h4.44234275c2.18797303.00232506 3.96116639 1.7753086 3.96375084 3.96328163v3.93375015z"/>
        <path fill="rgb(71,114,229)" fill-rule="evenodd" d="M19.82045746 17.14340973c.40674972 2.0465622 2.20248222 3.52083588 4.28907394 3.52127838 1.1604786.00086403 2.27360535-.46007156 3.09375-1.2810936 1.47543717-1.4754467 1.703228-3.78764343.5440693-5.52263832-1.15915871-1.7349968-3.38245202-2.40961456-5.3102932-1.61131286-1.9278412.7983017-3.02334977 2.84720516-2.61660004 4.8937664zm1.01072311-1.50456333c.31102562-1.56409836 1.68362618-2.69066716 3.27835083-2.69072151.88652611-.0005455 1.73685456.35159397 2.36343766.97875022 1.1277771 1.12750054 1.30202674 2.89465237.41617965 4.22070599-.88584518 1.32605362-2.58506012 1.84167099-4.05844116 1.23151207-1.47337914-.61015701-2.3105545-2.17614746-1.99952698-3.74024677z"/>
        <path fill="rgb(71,114,229)" fill-rule="evenodd" d="M28.69565582 13.6095848c-.10641288.61136533-.63697242 1.05770493-1.25753021 1.05791474v.75c1.11919785-.00025177 2.02640533-.90761852 2.02640533-2.02687454 0-1.11941147-.90746116-2.02687454-2.02687454-2.02687454-.72823143-.00004387-1.4005146.39058494-1.76109314 1.0232811l.65156174.3717184c.30709076-.53924656.95741844-.77963161 1.54140854-.56975841.583992.20987224.93253708.8092289.82612228 1.42059326z"/>
        <path fill="rgb(71,114,229)" fill-rule="evenodd" d="M26.89671875 16.93390625c-1.02027467-.00016796-2.01407715-.32470504-2.8378125-.92671875-.3098129.15456143-.63973087.26500743-.98015625.328125-.72796875.13359375-1.83421875.09796875-2.9671875-.8325l.65625-.796875c1.57265625 1.29140625 3.0271875.27 3.04171875.25921875L24.1625 14.710625l.3103125.30515625c.0515625.0496875 1.33359375 1.25484375 3.37875.77390625l.234375 1.0040625c-.38969652.09230078-.78874137.1393305-1.18921875.14015625z"/>
        <path fill="rgb(219,228,255)" fill-rule="evenodd" d="M9.32703125 30.17515625V25.5753125c.00284166-2.55659077 2.07465923-4.62840834 4.63125-4.63125h4.59375c2.5564077.00309992 4.62794009 2.074842 4.63078125 4.63125v4.59984375H9.32703125z"/>
        <path fill="rgb(71,114,229)" fill-rule="evenodd" d="M8.81140614 30.69078064h14.88656139l.0004692-5.11546707c-.00284194-2.8411808-2.30522537-5.14377403-5.14640426-5.14687538h-4.5937519c-2.8412552.00309944-5.14377404 2.30562019-5.14687443 5.14687538v5.11546707zm13.8553133-1.03125H9.84265709l-.0004692-4.08421707c.00232505-2.2720337 1.84359168-4.11330033 4.11562537-4.11562538h4.59375c2.27185059.00258445 4.11283112 1.8437748 4.11515618 4.11562538v4.08421707z"/>
        <path fill="rgb(219,228,255)" fill-rule="evenodd" d="M16.2546875 19.80171875c-1.90356773.00017575-3.54216258-1.34436887-3.9136512-3.21133602-.37148862-1.86696715.62759842-3.736357 2.38623854-4.46488639 1.75864011-.72852938 3.78700544-.11328355 4.84458644 1.46946487 1.05758099 1.58274843.84981331 3.69216207-.49623628 5.03816379-.74782523.7486737-1.76275292 1.16911483-2.8209375 1.16859375z"/>
        <path fill="rgb(71,114,229)" fill-rule="evenodd" d="M11.83769417 16.68972397c.4186163 2.10795402 2.26787567 3.62672806 4.4169941 3.6276207 1.19566345.00137329 2.34265708-.4734459 3.1875-1.3195305 1.51965331-1.51965713 1.75433158-3.90111922.5605297-5.68816947-1.19379997-1.7870493-3.4836483-2.48205566-5.46934414-1.66003609-1.98569679.82202053-3.114295 2.93216229-2.69567966 5.04011536zm1.00995445-1.5552311c.32330322-1.62543583 1.74976158-2.79615306 3.40703964-2.7962122.92157746-.00059985 1.80551148.36555577 2.45671845 1.01765633 1.17178917 1.17195416 1.35256195 3.00844098.4317665 4.38637639-.92079353 1.3779335-2.68671226 1.91356086-4.21782493 1.27932167-1.53111267-.6342392-2.40100384-2.2617054-2.07769966-3.88714219z"/>
        <path fill="rgb(219,228,255)" fill-rule="evenodd" d="M11.4603125 11.82265625h4.60875c1.07226198 0 2.1006069.42595441 2.85881062 1.18415813.75820372.75820372 1.18415813 1.78654864 1.18415813 2.85881062H14.365625c-1.60507755 0-2.90625-1.30117245-2.90625-2.90625v-1.13671875h.0009375z"/>
        <path fill="rgb(71,114,229)" fill-rule="evenodd" d="M14.36562538 16.38125038h6.26203156v-.515625c-.00284195-2.51646423-2.04212952-4.5557518-4.55859375-4.55859375h-5.1253128v1.65234375c.00155067 1.88920689 1.5326681 3.42032433 3.421875 3.421875zm-2.38968754-3.42093754v-.6220312l4.09312535.00093745c1.74809646.00224018 3.23166084 1.28272152 3.48937416 3.01171875h-5.1918745c-1.32030583 0-2.390625-1.07031917-2.390625-2.390625z"/>
      </g>
    </g>
  </g>
</svg>
