<svg xmlns="http://www.w3.org/2000/svg" xmlns:xlink="http://www.w3.org/1999/xlink" width="40.5" height="40" viewBox="0 0 40.5 40">
  <defs>
    <rect id="rect-2" width="24" height="24" x="8.25" y="8"/>
    <mask id="mask-3" maskContentUnits="userSpaceOnUse" maskUnits="userSpaceOnUse">
      <rect width="40.5" height="40" x="0" y="0" fill="black"/>
      <use fill="white" xlink:href="#rect-2"/>
    </mask>
    <path id="path-5" fill-rule="evenodd" d="M20.34533333 19.62977778c-1.6551111.05377778-3.01288889-1.304-2.9591111-2.95911111.04888888-1.50133334 1.26666666-2.72 2.76888888-2.76866667C21.81 13.848 23.168 15.206 23.114 16.86088889c-.04866667 1.50155555-1.26733333 2.72-2.76866667 2.76888889z"/>
    <mask id="mask-6" x="0" y="0" maskContentUnits="userSpaceOnUse" maskUnits="userSpaceOnUse">
      <rect width="40.5" height="40" x="0" y="0" fill="black"/>
      <use fill="white" xlink:href="#path-5"/>
    </mask>
  </defs>
  <g>
    <path fill="rgb(236,235,255)" fill-rule="evenodd" d="M20 0h.5c11.03830049 0 20 8.96169951 20 20s-8.96169951 20-20 20H20C8.96169951 40 0 31.03830049 0 20S8.96169951 0 20 0z"/>
    <g>
      <use fill="none" xlink:href="#rect-2"/>
      <g mask="url(#mask-3)">
        <path fill="rgb(140,132,243)" fill-rule="evenodd" d="M19.72599983 28.39666748c.13067627.15367317.32227898.2421608.52400017.24199867.20194244.00029755.39380264-.0881977.52466583-.24199867l5.88888932-6.91755676.00688934-.00777817c.51466751-.59666443.89488983-1.22066498 1.12955665-1.85422134.92888833-2.45444489.5771103-5.2284441-.93777847-7.4206667C25.34155655 9.99555588 22.93133354 8.7333336 20.25 8.7333336c-2.68133354 0-5.0915556 1.26222229-6.61199951 3.46311092-1.51466656 2.19311142-1.86577797 4.96399975-.93955612 7.41533375.23600006.63622284.61644458 1.26244354 1.13066673 1.85844421l5.89688873 6.92644501zm-5.35711098-15.69489002C15.7211113 10.7446661 17.864666 9.62222195 20.25 9.62222195s4.52866745 1.12244415 5.8797779 3.0791111c1.34933282 1.95244503 1.66222192 4.42044353.83711053 6.60222148v.00288964c-.19688797.53333473-.52111054 1.0633335-.9639988 1.57777786-.00577736.00622177-.0111103.0126667-.01644516.01910973L20.25 27.6408882l-5.74644375-6.74822235-.0020008-.00222206c-.44533253-.516222-.77133275-1.0506649-.97133256-1.58888817V19.298666c-.82377815-2.1784439-.51022243-4.64466667.83866596-6.59688854z"/>
        <use fill-opacity="0" stroke="rgb(140,132,243)" stroke-linecap="butt" stroke-linejoin="miter" stroke-width="2" mask="url(#mask-6)" xlink:href="#path-5"/>
        <path fill="rgb(140,132,243)" fill-rule="evenodd" d="M20.48977778 31.26666667c-1.88733334 0-3.66666667-.18933334-5.0108889-.53333334-1.56866666-.4-2.36422221-.96777777-2.36422221-1.684 0-.52844444.43422222-.97777777 1.29088889-1.3351111.682-.28466667 1.63933333-.51644445 2.76844444-.67044445.24325075-.03313708.46730735.1371937.50044444.38044444.03313708.24325075-.1371937.46730736-.38044444.50044445-1.05377778.14355555-1.93333333.35555555-2.54622222.60977777-.61777778.25777778-.74422222.47177778-.74422222.5148889 0 .07733333.30177777.46666666 1.69555555.82222222 1.27422222.32577777 2.97555556.50533333 4.79066667.50533333 1.8151111 0 3.51577778-.17866667 4.79066666-.50444445C26.67422222 29.5168889 26.976 29.1268889 26.976 29.05022222c0-.05066666-.15555556-.29844444-.91733333-.5831111-.73577778-.27511112-1.77044445-.4888889-2.99222223-.616-.15914153-.01506148-.29793576-.114425-.36348425-.2602203-.06554849-.1457953-.04775258-.3155606.0466052-.44459348.09435778-.12903288.2507403-.19745404.40954572-.17918623 1.29533333.13555556 2.40577778.36622222 3.21088889.66666667.992.37088889 1.49488889.84733333 1.49488889 1.41577778 0 .71622222-.79533333 1.28288888-2.36422222 1.684-1.344.34377777-3.12355556.5331111-5.0108889.5331111z"/>
      </g>
    </g>
  </g>
</svg>
