<svg xmlns="http://www.w3.org/2000/svg" xmlns:xlink="http://www.w3.org/1999/xlink" width="40" height="41" viewBox="0 0 40 41">
  <defs>
    <rect id="rect-2" width="26" height="26" x="7" y="7.5"/>
    <mask id="mask-3" maskContentUnits="userSpaceOnUse" maskUnits="userSpaceOnUse">
      <rect width="40" height="41" x="0" y="0" fill="black"/>
      <use fill="white" xlink:href="#rect-2"/>
    </mask>
  </defs>
  <g>
    <ellipse cx="20" cy="20.5" fill="rgb(237,255,235)" rx="20" ry="20.5"/>
    <g>
      <use fill="none" xlink:href="#rect-2"/>
      <g mask="url(#mask-3)">
        <path fill="rgb(109,190,98)" fill-rule="evenodd" d="M19.7303505 20.921484c.08555984.0351467.17715454.05325889.2696495.05331992.09227562-.00095367.18349457-.01974868.26863289-.05535125 1.79609108-.72793389 2.96950722-2.47439194 2.96460914-4.41238213V15.2375393c.00111962-.28910255-.1729393-.5500927-.44027328-.66015625l-2.5192585-1.04456997c-.17534828-.07212066-.37207413-.07212066-.5474224 0l-2.52078057 1.0466013c-.26733399.11006355-.4413929.3710537-.44027329.66015625v1.26953125c-.00495529 1.93815803 1.1687355 3.6847229 2.9651165 4.41238212zm-2.051054-4.41136742v-1.13902283L20 14.40625l2.3207016.96484375v1.13750076c.00400543 1.53655434-.9091587 2.92728043-2.3207016 3.53437424-1.41103363-.60687637-2.32409668-1.99684906-2.3207035-3.53285217z"/>
        <path fill="rgb(109,190,98)" fill-rule="evenodd" d="M14.16320229 30.89492226H25.8367958c1.46325683-.00167847 2.64928054-1.18701744 2.65179825-2.65027428V12.75636673c-.00195885-1.46365261-1.18814469-2.64961052-2.65179825-2.65128899H14.16320229c-1.46325684.00167752-2.64927864 1.18701744-2.65179635 2.65027333v15.4882822c.00195885 1.46365166 1.18814373 2.64961052 2.65179635 2.65128899zm-1.5853901-18.13855553c.00111962-.875041.71035004-1.5840435 1.5853901-1.58488274H25.8367958c.87504196.00083924 1.58427047.70984173 1.585392 1.58488274v15.48828125c-.00112153.87504005-.71035004 1.5840435-1.585392 1.58488274H14.16320229c-.87504006-.00083924-1.58427048-.70984269-1.5853901-1.58488274V12.75636673z"/>
        <rect width="9.241" height="1.066" x="15.379" y="23.225" fill="rgb(109,190,98)" rx="0" ry="0"/>
        <rect width="9.241" height="1.066" x="15.379" y="26.084" fill="rgb(109,190,98)" rx="0" ry="0"/>
      </g>
    </g>
  </g>
</svg>
