<svg xmlns="http://www.w3.org/2000/svg" xmlns:xlink="http://www.w3.org/1999/xlink" width="40" height="40" viewBox="0 0 40 40">
  <defs>
    <rect id="rect-2" width="24" height="24" x="8" y="8"/>
    <mask id="mask-3" maskContentUnits="userSpaceOnUse" maskUnits="userSpaceOnUse">
      <rect width="40" height="40" x="0" y="0" fill="black"/>
      <use fill="white" xlink:href="#rect-2"/>
    </mask>
  </defs>
  <g>
    <ellipse cx="20" cy="20" fill="rgb(255,238,227)" rx="20" ry="20"/>
    <g>
      <use fill="none" xlink:href="#rect-2"/>
      <g mask="url(#mask-3)">
        <path fill="rgb(255,133,56)" fill-rule="evenodd" d="M12.92338562 30.04784012c.29971027.35614967.740983.56233597 1.2064581.5637226.2571926-.00010108.51046847-.06301879.73781299-.18328094l4.921875-2.58749961c.1321144-.06918717.28976059-.06918717.421875 0l4.921875 2.58749961c.53230285.28019333 1.17754364.23374367 1.66423034-.11980056.4866829-.35354615.73033143-.95281792.6284256-1.54566956l-.93984222-5.48062324c-.02536392-.14756585.02354812-.29815865.13077926-.40265656l3.98203278-3.88125038c.4304657-.41991234.58527374-1.04776573.39934921-1.61966133-.18592071-.57189179-.68033981-.9886818-1.27544403-1.07518196l-5.50265693-.79968834c-.14821434-.0215397-.27634621-.11461449-.3426571-.24890614l-2.46046829-4.98609352C21.15085983 9.72933292 20.60151291 9.3878193 20 9.3878193c-.6015129 0-1.15085983.34151363-1.41703033.8809309l-2.45906449 4.98609352c-.06630897.13429165-.19444084.22736645-.34265518.24890614l-5.50406265.79968834c-.59523583.08631324-1.08981133.50315475-1.27567578 1.07517814-.1858654.57202149-.03076744 1.19996071.40005112 1.61966515l3.97921848 3.88125038c.1072321.10449791.15614415.25509071.13078118.40265656l-.9375 5.48062324c-.07815552.45886993.04961204.9288807.34932327 1.28502846zM19.59218788 10.765625c.07452965-.15699387.23405647-.255826.40781212-.25265598.17375755-.00317002.33328247.09566211.40781403.25265598l2.4609375 4.98703098c.23003387.46644879.67498397.78972912 1.18968582.86437512l5.50406265.79968643c.17136383.02507019.31360626.14531708.3668518.31011963.05324174.16480064.00823594.3455391-.11606979.4661312l-3.98156357 3.88125039c-.37246322.36285019-.54249954.88576126-.45468711 1.3982811l.94031334 5.48062515c.0290451.17059326-.04116059.34290314-.18115998.44461823-.13999939.1017189-.32556915.11524963-.47883987.0349121l-4.921875-2.5874977c-.4603157-.24187852-1.01015473-.24187852-1.47047043 0l-4.92187405 2.5874977c-.153306.08060456-.33907222.06721116-.47922992-.0345497-.1401577-.10176087-.21041298-.27425004-.18123913-.44498063l.93890667-5.48062515c.08781242-.51251984-.0822258-1.03543091-.45468712-1.3982811l-3.98156262-3.88125038c-.12436676-.12078476-.16922378-.3017807-.11565685-.46666527.05356693-.16488266.19623566-.28495407.36784363-.30958557l5.50406265-.79968643c.51470185-.074646.95965195-.39792633 1.18968773-.86437512l2.4609375-4.98703098z"/>
        <ellipse cx="22.467" cy="19.359" fill="rgb(255,133,56)" rx=".611" ry=".611"/>
        <ellipse cx="17.533" cy="19.359" fill="rgb(255,133,56)" rx=".611" ry=".611"/>
        <path fill="rgb(255,133,56)" fill-rule="evenodd" d="M19.9615625 24.085625c-.40270031.00008812-.80434266-.04122281-1.19859375-.12328125-1.0696875-.22359375-1.73953125-.67171875-1.7671875-.69046875l.41874797-.6183689L17.46875 22.5725c.005625.00375.58546875.38625 1.5028125.57140625 1.215.2446875 2.42484375.046875 3.5953125-.59203125l.40359375.74109375c-1.111875.60515625-2.14921875.79265625-3.00890625.79265625z"/>
      </g>
    </g>
  </g>
</svg>
