<svg xmlns="http://www.w3.org/2000/svg" xmlns:xlink="http://www.w3.org/1999/xlink" width="40" height="40" viewBox="0 0 40 40">
  <defs>
    <rect id="rect-2" width="24" height="24" x="8" y="8"/>
    <mask id="mask-3" maskContentUnits="userSpaceOnUse" maskUnits="userSpaceOnUse">
      <rect width="40" height="40" x="0" y="0" fill="black"/>
      <use fill="white" xlink:href="#rect-2"/>
    </mask>
  </defs>
  <g>
    <ellipse cx="20" cy="20" fill="rgb(236,235,255)" rx="20" ry="20"/>
    <g>
      <use fill="none" xlink:href="#rect-2"/>
      <g mask="url(#mask-3)">
        <path fill="rgb(140,132,243)" fill-rule="evenodd" d="M17.88500023 31.63109398h4.2337513c.78334045.00540924 1.44913864-.57111931 1.5557804-1.34718895l.3201561-2.2340622c.33625985-.16897201.66158486-.35887718.97406197-.56859397l2.1098442.84609413.00609399.00234413c.1827011.07136345.37713623.10792923.57328033.10781288.56513596.00210571 1.08674812-.30314064 1.36171913-.796875l2.11593819-3.6642189.00656128-.01171875c.37427902-.67427063.20682716-1.52024842-.39609337-2.00109482l-1.78125-1.39406204c.01453209-.20015717.02156258-.38624955.02156258-.56859207 0-.18234635-.0070305-.37265778-.02156258-.5690651l1.78359413-1.39359283c.60351563-.48408127.76900292-1.33332444.39140701-2.0085926l-2.11546897-3.66046906c-.37687493-.6829691-1.18921853-.97781277-1.93453217-.703125l-2.11828041.85031223c-.31362915-.21006775-.6403923-.39983082-.97828102-.56812477l-.3192196-2.22468758c-.10498618-.77828121-.77092551-1.35797024-1.55624961-1.35468769h-4.23374939c-.78334427-.00540924-1.44913864.57111931-1.55578232 1.34718704l-.3201561 2.2345314c-.33626174.16879368-.66159057.35854245-.97406196.56812478l-2.109375-.84749985-.0070324-.00281239c-.71906185-.2779684-1.5665617.02578164-1.934062.690938l-2.11124992 3.64968681c-.39487744.67870903-.2311163 1.54444313.38437557 2.03203202l1.78125 1.3912487c-.01453209.20156479-.02203178.38953209-.02203178.56765747 0 .17812347.00749969.36609268.02203178.56859207l-1.7845316 1.39500046c-.60244464.48465729-.76707744 1.33337402-.38953113 2.0081253l2.11453056 3.66046906c.37687493.6796875 1.18875027.97453117 1.93359375.70078087l2.11921883-.85031128c.31364727.209898.64040947.39950561.97828102.56765556l.31875038 2.22421837c.10453987.7789936.77074814 1.35954285 1.55671883 1.35656357zM15.4498434 26.3449993l-.26203156-.1875-2.68593693 1.078125c-.24937534.08812523-.42421913-.03750038-.49875068-.17343712l-2.1135931-3.65625c-.09890652-.18703079-.06234456-.40124893.08859348-.52078247l2.28750038-1.78828048-.03328133-.32249832c-.06007099-.51387787-.06007099-1.03300095 0-1.546875l.03328133-.32250214-2.28234386-1.78640556c-.15626145-.1235733-.19835186-.34300232-.09890652-.515625l2.11874962-3.65812493.00703144-.01312446c.08437538-.15468789.30984401-.23203183.48375034-.16640664l2.6953125 1.08234406.26109314-.1875c.41865349-.3027792.86631584-.56327343 1.3364067-.77765656l.29390527-.13218784.41109466-2.86968708v-.01078129c.03097916-.19172859.19815827-.33154487.39234352-.328125h4.2337513c.19657326-.00400257.36546326.13877964.39421845.33328152l.41015625 2.871562.29437446.13171864c.47032547.21289825.91791344.47281456 1.3359375.77578163l.26156235.1875L27.5 12.76343727c.234375-.08250046.421875.02624989.49828148.17437458l2.11406135 3.65625096c.09796906.18703079.0614071.40124893-.08953094.52078056l-2.2893753 1.7896862.03515624.32390785c.02868653.25588799.0435524.51313591.04453087.77062416-.00131416.25810242-.01617813.51595688-.04453087.77249909l-.03421783.32297134 2.28421783 1.78453064c.15290451.1256218.19431115.34250832.09843827.515625l-2.1168747 3.66562462-.0070324.01218796c-.06902694.12054253-.19765662.19453049-.3365612.19359398-.0500164.00009918-.09961318-.00912094-.14625167-.02718926l-2.69624901-1.08281135-.26109505.1875c-.41910171.30273819-.86686706.5636711-1.336874.77906227l-.29296876.1326561-.41109275 2.8678131v.01078034c-.03243828.19093895-.19964219.32944489-.39328194.32578087h-4.2337513c-.19696236.00369835-.36590767-.13973427-.39421844-.33468628l-.41202927-2.87156296-.29296875-.1326561c-.47027779-.21299171-.91785812-.4729023-1.33593845-.77578163zM20 24.265625c-2.35583878 0-4.265625-1.90978622-4.265625-4.265625S17.64416122 15.734375 20 15.734375 24.265625 17.64416122 24.265625 20C24.26201248 22.3543415 22.3543415 24.26201248 20 24.265625zM16.90625 20c0-1.70863152 1.38511848-3.09375 3.09375-3.09375 1.70745468.00283813 3.09091187 1.38629532 3.09375 3.09375 0 1.70863152-1.38511848 3.09375-3.09375 3.09375S16.90625 21.70863152 16.90625 20z"/>
      </g>
    </g>
  </g>
</svg>
