<svg xmlns="http://www.w3.org/2000/svg" xmlns:xlink="http://www.w3.org/1999/xlink" width="32" height="32" viewBox="0 0 32 32">
  <defs>
    <rect id="rect-2" width="20.8" height="20.8" x="5.6" y="5.6"/>
    <mask id="mask-3" maskContentUnits="userSpaceOnUse" maskUnits="userSpaceOnUse">
      <rect width="32" height="32" x="0" y="0" fill="black"/>
      <use fill="white" xlink:href="#rect-2"/>
    </mask>
  </defs>
  <g>
    <ellipse cx="16" cy="16" fill="rgb(236,235,255)" rx="16" ry="16"/>
    <g>
      <use fill="none" xlink:href="#rect-2"/>
      <g mask="url(#mask-3)">
        <path fill="rgb(140,132,243)" fill-rule="evenodd" d="M11.3305626 24.315979h9.3388748c1.17060471-.00134277 2.11942292-.949646 2.12143708-2.12023925v-12.390625c-.00156784-1.17089844-.95051193-2.11968995-2.12143707-2.12103272h-9.33887482c-1.1706047.00134277-2.11942291.94958496-2.12143707 2.12023926v12.390625c.00156784 1.17089844.95051575 2.11968994 2.12143707 2.12103271zM10.06224822 9.80505371c.00089645-.7000122.56827927-1.26721191 1.26831055-1.2678833h9.33887481c.7000351.00067139 1.26741791.5678711 1.26831437 1.2678833v12.390625c-.00089646.70007324-.56827927 1.26727295-1.26831437 1.26794434h-9.33887481c-.70003128-.00067139-1.2674141-.5678711-1.26831055-1.26794434v-12.390625z"/>
        <rect width="7.393" height=".853" x="12.304" y="10.779" fill="rgb(140,132,243)" rx="0" ry="0"/>
        <rect width="6.621" height=".853" x="12.304" y="13.623" fill="rgb(140,132,243)" rx="0" ry="0"/>
        <rect width="3.696" height=".853" x="12.304" y="16.466" fill="rgb(140,132,243)" rx="0" ry="0"/>
        <path fill="rgb(140,132,243)" fill-rule="evenodd" d="M18.46390625 21.04440625L17.483625 20.064125l.4021875-.4021875.57809375.57809375.9611875-.9611875.4021875.4021875-1.363375 1.363375z"/>
        <path fill="rgb(140,132,243)" fill-rule="evenodd" d="M16.48807907 20.95843506c.36309815.87670898 1.21865082 1.44830322 2.16757584 1.44818115 1.29413986-.00158691 2.34304428-1.04992676 2.3452797-2.34411621.00065993-.94891357-.57047654-1.80474854-1.4469986-2.16827393-.87651825-.36358642-1.88573838-.163208-2.55690766.50756836-.67116547.6708374-.87205124 1.67993164-.50894928 2.55664063zm.3902359-.89782715c.00037384-.9812622.79607392-1.77648926 1.77734375-1.77624512.98122788.00134278 1.7760849.79693604 1.77653122 1.77813721-.0006752.9812622-.7966156 1.77624512-1.77788544 1.7756958-.98126983-.00048828-1.77636337-.79632568-1.77598953-1.77758789z"/>
      </g>
    </g>
  </g>
</svg>
