<svg xmlns="http://www.w3.org/2000/svg" xmlns:xlink="http://www.w3.org/1999/xlink" width="40" height="40.44" viewBox="0 0 40 40.44">
  <defs>
    <rect id="rect-2" width="24" height="24" x="8" y="8.22"/>
    <mask id="mask-3" maskContentUnits="userSpaceOnUse" maskUnits="userSpaceOnUse">
      <rect width="40" height="40.44" x="0" y="0" fill="black"/>
      <use fill="white" xlink:href="#rect-2"/>
    </mask>
  </defs>
  <g>
    <path fill="rgb(236,235,255)" fill-rule="evenodd" d="M20 0c11.03830049 0 20 8.96169951 20 20v.44c0 11.03830049-8.96169951 20-20 20s-20-8.96169951-20-20V20C0 8.96169951 8.96169951 0 20 0z"/>
    <g>
      <use fill="none" xlink:href="#rect-2"/>
      <g mask="url(#mask-3)">
        <path fill="rgb(140,132,243)" fill-rule="evenodd" d="M15.18400002 28.86933231c1.48244476.82688904 3.13866615 1.26288987 4.80288887 1.26288987 1.6906662 0 3.38088989-.4513321 4.88800048-1.30488968 1.48240567-.83726883 2.72680188-2.03875733 3.61555386-3.49088765.92933273-1.5273342 1.42066956-3.29955673 1.42066956-5.12488937 0-2.64733314-1.03089142-5.13400078-2.90177918-7.00355625C25.138443 11.33844376 22.64711 10.30888843 20 10.30888843c-2.6471119 0-5.13577843 1.0288887-7.00777817 2.899333-1.58022213 1.5791111-2.55866623 3.57977868-2.82977772 5.7855568-.24557971 2.02840233.13687802 4.08332634 1.09577847 5.88755417l-1.11400032 3.60533619c-.13515759.43988037-.01366043.91841507.3149681 1.24054336.3286276.32212448.80949498.43404007 1.24658776.29012299l3.4782219-1.14800263zm.27266693-.86777496l-.17311097-.10111237-3.85666656 1.27288819c-.12131596.03974151-.25466728.00860596-.34584332-.0807457-.09117603-.08935165-.12499618-.22204971-.08771228-.34414291l1.22577762-3.96711064-.09333324-.16644478c-.9300003-1.65911102-1.31400013-3.61688804-1.08133316-5.5126667.24688816-2.00688934 1.13755512-3.82755565 2.57600021-5.26399994C15.32444477 12.13555527 17.58800125 11.19777775 20 11.19777775c2.41200066 0 4.6784439.93644428 6.38133144 2.63799953 1.7028885 1.7015562 2.64066697 3.9659996 2.64066697 6.3757782 0 1.66266632-.44666672 3.27466583-1.291111 4.66266632-.80986023 1.32284546-1.94374752 2.4172678-3.29444408 3.17978-1.37355423.77799989-2.91199875 1.18933106-4.44955444 1.18933106-1.57288743.00022507-3.13933373-.42933273-4.53022194-1.24177551z"/>
        <rect width="6.611" height="1" x="15.78" y="21.305" fill="rgb(140,132,243)" rx="0" ry="0"/>
        <ellipse cx="23.675" cy="21.767" fill="rgb(140,132,243)" rx=".545" ry=".545"/>
        <rect width="6.611" height="1" x="17.609" y="18.083" fill="rgb(140,132,243)" rx="0" ry="0" transform="matrix(-1 0 0 1 41.82866667 0)"/>
        <ellipse cx="16.325" cy="18.545" fill="rgb(140,132,243)" rx=".545" ry=".545" transform="matrix(-1 0 0 1 32.65066667 0)"/>
      </g>
    </g>
  </g>
</svg>
