<svg xmlns="http://www.w3.org/2000/svg" width="220" height="181.151" viewBox="0 0 220 181.151">
  <defs>
    <linearGradient id="linearGradient-11" x1="49.851" x2="170.149" y1="146.365" y2="49.228" gradientUnits="userSpaceOnUse">
      <stop offset="0" stop-color="rgb(0,91,234)"/>
      <stop offset="1" stop-color="rgb(0,198,251)"/>
    </linearGradient>
  </defs>
  <g transform="translate(0 4.8e-7)">
    <path fill="rgb(240,248,255)" fill-rule="evenodd" d="M196.44398 43.983127c-2.208-3.8234-7.097-5.1334-10.92-2.9259l-40.774 23.5368c2.954-2.7771 3.362-7.3266.948-10.5846-2.414-3.2581-6.885-4.1926-10.402-2.1743l-.766.4477c.444-.4142.934-.7773 1.459-1.0824l20.771-11.9915c3.519-2.0319 4.953-6.3799 3.335-10.1069-1.618-3.7269-5.775-5.6471-9.661-4.4635l11.483-6.6289c3.825-2.2076 5.136-7.09815 2.929-10.92342-2.208-3.825266-7.098-5.13668-10.924-2.92911l-131.538 75.94593c-3.823943 2.2075-5.13428 7.0971-2.92671 10.921 2.20757 3.824 7.09707 5.1343 10.92101 2.9267l13.8477-7.9943c3.824-2.2076 8.7135-.8972 10.9211 2.9267 2.2075 3.824.8972 8.7135-2.9267 10.921l-27.69392 15.989c-2.49392 1.418-4.03693 4.063-4.04327 6.932-.00633 2.868 1.52498 5.521 4.01262 6.95 2.48764 1.428 5.55017 1.415 8.02497-.036l13.0819-7.553c-2.9694 2.774-3.3855 7.334-.967 10.599 2.4184 3.266 6.9018 4.198 10.421 2.166l-28.38934 16.628c-2.49392 1.418-4.03693 4.064-4.04327 6.932-.00633 2.869 1.52498 5.521 4.01262 6.95 2.48759 1.429 5.55019 1.415 8.02499-.036l40.7709-23.541c-2.9657 2.775-3.3796 7.332-.9622 10.596 2.4173 3.263 6.8976 4.196 10.4163 2.167l96.9263-55.9597c3.691-2.1405 5.051-6.8025 3.089-10.5916-1.962-3.7891-6.554-5.3694-10.433-3.5903 3.048-2.735 3.537-7.3311 1.131-10.6455-2.405-3.3144-6.926-4.2751-10.471-2.2253l28.387-16.6282c1.838-1.0599 3.178-2.8064 3.727-4.8551.55-2.0488.262-4.2317-.799-6.0683z"/>
    <path fill="rgb(2,204,170)" fill-rule="evenodd" d="M197.536026 28.1400299l-5.9925232-5.9957714 5.9925232-5.99572945 5.99887085 5.99572945-5.99887085 5.9957714zm-4.4096222-5.99579047l4.40963746 4.40968895 4.4080658-4.40968895-4.4080658-4.40966034-4.40963745 4.40966034z"/>
    <path fill="rgb(2,204,170)" fill-rule="evenodd" d="M5.99252987 122.9524002L0 116.9566269l5.99252987-5.99572755 5.99897003 5.99572754-5.99897003 5.99577332zm-4.4096799-5.99578857l4.40965987 4.40969086 4.4080906-4.40969086-4.4080906-4.40966034-4.40965986 4.40966034z"/>
    <path fill="rgb(2,204,170)" fill-rule="evenodd" d="M167.6742096 129.22155762l-4.75021363-4.75022888 4.75021362-4.75022889 4.75183106 4.75022889-4.75183106 4.75022888zm-3.16731263-4.750206l3.1673584 3.16733551 3.16894531-3.1673355-3.1689453-3.16735078-3.1673584 3.16735077z"/>
    <path fill="rgb(0,140,255)" fill-rule="evenodd" d="M69.46728516 181.15086365c-2.34000397-.00004578-4.23692322-1.89698792-4.23692322-4.23698426 0-2.3400116 1.8969574-4.23698425 4.23697662-4.23698425 2.34002686 0 4.23698425 1.89697266 4.23698425 4.23698425-.00267791 2.338974-1.89812469 4.23435975-4.23703765 4.23698426zm.00022125-7.35473633c-1.7220459 0-3.11792755 1.39587402-3.11792755 3.1177826 0 1.7218933 1.39588165 3.11778258 3.11778259 3.11778258s3.11777496-1.39588928 3.11777496-3.11778259c-.00167846-1.72102356-1.39646148-3.11592102-3.11763-3.1177826z"/>
    <path fill="rgb(0,140,255)" fill-rule="evenodd" d="M104.32242584 8.4739604c-2.33957672-.00180054-4.23490906-1.89953041-4.2337265-4.23911047.00118256-2.33960998 1.8984375-4.23543989 4.23806-4.23484993 2.3395996.00059023 4.2359085 1.89738 4.2359085 4.23697996-.00267791 2.34022999-1.90007018 4.2361393-4.240242 4.23698044zm.0000763-7.35474038c-1.72148896.00177002-3.1157608 1.3984301-3.11457825 3.11991.00117493 1.7214899 1.39736938 3.11623955 3.1188507 3.11565018 1.72148896-.00059033 3.11670686-1.39628983 3.11670686-3.11778021-.00167847-1.72227001-1.39840699-3.11769998-3.12082673-3.11777997h-.00015258z"/>
    <path fill="rgb(0,140,255)" fill-rule="evenodd" d="M215.76289368 92.0943451c-2.33996582-.00003815-4.2368927-1.89698792-4.2368927-4.23699189 0-2.34001923 1.89697265-4.23697662 4.23698425-4.23697662s4.236969 1.8969574 4.236969 4.23697662c-.00270081 2.33899689-1.89811707 4.23438263-4.23706055 4.23699188zm.00022888-7.35474396c-1.72203064 0-3.11790466 1.39588165-3.11790466 3.11778259s1.39587402 3.11777496 3.11778259 3.11777496c1.7218933 0 3.11776733-1.39587402 3.11776733-3.11777496-.00167846-1.72102356-1.39645386-3.11592102-3.11764526-3.1177826z"/>
    <path fill="rgb(234,57,64)" fill-rule="evenodd" d="M136.23257446 159.88616943h-9.13907623l4.56955719-7.91436767 4.56951904 7.91436767zm-7.19488525-1.11921692h5.26185608l-2.63014221-4.5567627-2.63171387 4.5567627z"/>
    <path fill="rgb(234,57,64)" fill-rule="evenodd" d="M46.21672821 45.72739029h-9.13908768l4.56953812-7.91436005 4.56954956 7.91436005zm-7.1948967-1.1192131h5.26184845l-2.63012695-4.55675889-2.6317215 4.55675889z"/>
    <path fill="none" stroke="url(#linearGradient-11)" stroke-dasharray="0 0 0 0" stroke-linecap="butt" stroke-linejoin="miter" stroke-width="21" d="M65.3125 82.73443l30.7176 32.4695 58.6574-50.7508"/>
  </g>
</svg>
