<svg xmlns="http://www.w3.org/2000/svg" xmlns:xlink="http://www.w3.org/1999/xlink" width="343" height="144" viewBox="0 0 343 144">
  <defs>
    <linearGradient id="linearGradient-2" x1="-10.29" x2="524.79" y1="2.88" y2="132.48" gradientUnits="userSpaceOnUse">
      <stop offset="0" stop-color="rgb(140,132,243)"/>
      <stop offset="1" stop-color="rgb(0,140,255)"/>
    </linearGradient>
    <path id="path-3" fill-rule="evenodd" d="M16 0h311c8.8306404 0 16 7.1693596 16 16v112c0 8.8306404-7.1693596 16-16 16H16c-8.8306404 0-16-7.1693596-16-16V16C0 7.1693596 7.1693596 0 16 0z"/>
    <mask id="mask-4" maskContentUnits="userSpaceOnUse" maskUnits="userSpaceOnUse">
      <rect width="343" height="144" x="0" y="0" fill="black"/>
      <use fill="white" xlink:href="#path-3"/>
    </mask>
  </defs>
  <g>
    <path fill="url(#linearGradient-2)" fill-rule="evenodd" d="M16 0h311c8.8306404 0 16 7.1693596 16 16v112c0 8.8306404-7.1693596 16-16 16H16c-8.8306404 0-16-7.1693596-16-16V16C0 7.1693596 7.1693596 0 16 0z"/>
    <g>
      <use fill="none" xlink:href="#path-3"/>
      <g mask="url(#mask-4)" opacity=".2">
        <path fill="rgb(83,30,234)" fill-rule="evenodd" d="M-56.00001144 2.50003815c0 26.78560638 21.7137432 48.4996872 48.49912262 48.50014496 26.7733612-.02987671 48.470047-21.72610474 48.50083923-48.50014496C40.9999504-24.28579712 19.28574753-46-7.4999733-46c-26.78572274 0-48.50003815 21.71420288-48.50003815 48.50003815zM-7.49974442-33.1884613c-19.7103157 0-35.68873214 15.97841644-35.68873214 35.68873596 0 19.71031189 15.97841644 35.6887207 35.68873214 35.6887207 19.71020508 0 35.68862153-15.97840881 35.68862153-35.6887207-.01922608-19.70024872-15.98506165-35.66744232-35.6871338-35.68873596h-.00148773zM328.49910355 87.00015259c-26.78536988-.00045777-48.499115-21.71455384-48.499115-48.50015259 0-26.7858429 21.71432496-48.50004578 48.50003052-48.50004578 26.78573609 0 48.49993897 21.71420288 48.49993897 48.50004578-.03079224 26.77404785-21.72747803 48.47027588-48.5008545 48.50015259zm.00112915-84.18865967c-19.71029663 0-35.6887207 15.97842407-35.6887207 35.68873596 0 19.7103119 15.97842407 35.68873596 35.6887207 35.68873596 19.71020507 0 35.68862915-15.97842407 35.68862915-35.68873596-.01922608-19.70024109-15.98504639-35.66744232-35.6871338-35.68873596h-.00149535zM154.0000038 162.00003052c0 18.77755737 15.22201539 33.9998169 33.99938965 34.00012207 18.76896668-.02093506 33.97901917-15.23068238 34.0005951-34.00012207C221.99998856 143.22232056 206.777668 128 188.00003433 128c-18.7776184 0-34.00003052 15.22232056-34.00003052 34.00003052zm34.00019837-25.0187378c-13.81755066 0-25.0189209 11.20135499-25.0189209 25.0189209 0 13.8175354 11.20137024 25.0189209 25.0189209 25.0189209 13.81744385 0 25.01882934-11.2013855 25.01882934-25.0189209-.01348876-13.81048584-11.20602417-25.0039978-25.01779174-25.0189209h-.0010376z"/>
      </g>
    </g>
  </g>
</svg>
