<svg xmlns="http://www.w3.org/2000/svg" xmlns:xlink="http://www.w3.org/1999/xlink" width="720" height="900" viewBox="0 0 720 900">
  <defs>
    <rect id="rect-1" width="720" height="900" x="0" y="0"/>
    <mask id="mask-2" maskContentUnits="userSpaceOnUse" maskUnits="userSpaceOnUse">
      <rect width="720" height="900" x="0" y="0" fill="black"/>
      <use fill="white" xlink:href="#rect-1"/>
    </mask>
  </defs>
  <g>
    <use fill="none" xlink:href="#rect-1"/>
    <g mask="url(#mask-2)">
      <g opacity=".05">
        <path fill="rgb(0,140,255)" fill-rule="evenodd" d="M850.4323531 133.92276241L762.62359394 331.6065511s-155.98720782 136.55240357-204.79938829-45.88601975C509.0120252 103.282108 422.6897475 121.2350693 304.7645118 153.59673474c-117.92523572 32.36166545-254.4785705-183.20157705 13.53966268-343.779842C586.32240766-350.76137222 707.8034542-373.85983742 707.8034542-373.85983742l142.6288989 507.78259983z"/>
      </g>
      <path fill="rgb(255,69,125)" fill-rule="evenodd" d="M586 497.02514648l11.99743652 12.03039551L610 497.0251465l-12.00256348-12.025177L586 497.02514648zm11.99743652 8.01852417l-8-8.01852417 8-8.01327514 8.00524903 8.01327514-8.00524903 8.01852417z"/>
      <path fill="rgb(253,186,69)" fill-rule="evenodd" d="M145.14523601 839.76899158l17.8354716-16.05913923-23.08319618-7.66207752 5.24772458 23.72121675zm12.05932097-14.88588544l-10.27257776 9.24947543-3.00804255-13.66992936 13.28062031 4.42045393z"/>
      <path fill="rgb(112,101,255)" fill-rule="evenodd" d="M386.04317251 74.86869387L365.90489998 50.0000393 354.0919926 80.20077665l31.9511799-5.33208278zm-18.97909362-17.09579054l11.59888107 14.32340168-18.41154433 3.05131771 6.81266326-17.37471939z"/>
    </g>
  </g>
</svg>
