<svg xmlns="http://www.w3.org/2000/svg" xmlns:xlink="http://www.w3.org/1999/xlink" width="80" height="80" viewBox="0 0 80 80">
  <defs>
    <rect id="rect-1" width="80" height="80" x="0" y="0"/>
    <rect id="rect-2" width="80" height="80" x="0" y="0"/>
    <mask id="mask-3" maskContentUnits="userSpaceOnUse" maskUnits="userSpaceOnUse">
      <rect width="80" height="80" x="0" y="0" fill="black"/>
      <use fill="white" xlink:href="#rect-2"/>
    </mask>
    <path id="path-5" fill-rule="evenodd" d="M39.99999857 1.62962961c-21.17718315 0-38.37036896 17.1931858-38.37036896 38.37036896 0 21.17718506 17.1931858 38.37036896 38.37036896 38.37036896 21.17718506 0 38.37036896-17.1931839 38.37036896-38.37036896 0-21.17718315-17.1931839-38.37036896-38.37036896-38.37036896z"/>
    <mask id="mask-6" maskContentUnits="userSpaceOnUse" maskUnits="userSpaceOnUse">
      <rect width="80" height="80" x="0" y="0" fill="black"/>
      <use fill="white" xlink:href="#path-5"/>
    </mask>
  </defs>
  <g>
    <use fill="none" xlink:href="#rect-2"/>
    <g mask="url(#mask-3)">
      <ellipse cx="40" cy="40" fill="rgb(250,251,255)" rx="38.37" ry="38.37"/>
      <g>
        <use fill="none" xlink:href="#path-5"/>
        <g mask="url(#mask-6)">
          <path fill="rgb(0,169,157)" fill-rule="evenodd" d="M10.97755682 66.05333056L37.49517045 54.3678192H43.7875l25.34914773 12.49431818v29.84403409H9.62926136l1.34829546-30.65284091z"/>
          <path fill="rgb(53,44,56)" fill-rule="evenodd" d="M52.7840909 58.64026238v38.20994318h12.2130682c.1875-1.43863636.34090908-2.68977273.41590908-3.66477273C65.84346591 87.77946693 68.8 65.78571693 68.8 65.78571693l-16.0159091-7.14545455z"/>
          <path fill="rgb(53,44,56)" fill-rule="evenodd" d="M27.87727273 58.40247829L11.0875 65.81213738s3.2659091 21.64772727 3.6971591 27.05113636c.08522726 1.05085227.2497159 2.41363637.45767045 3.98693182h12.63494318V58.40247829z"/>
          <path fill="rgb(60,51,63)" fill-rule="evenodd" d="M62.92613636 96.85020556c-.5778409-11.30113636 3.66477273-29.97954545 4.60227273-30.96477273 1.46931818-.825 2.26875.91789773 2.26875.91789773S74.0849432 82.41441011 77.5 96.85020556H62.92613636z"/>
          <path fill="rgb(60,51,63)" fill-rule="evenodd" d="M17.07386364 96.85020556c.5778409-11.30113636-3.66477273-29.97954545-4.60227273-30.96477273-1.46931818-.825-2.26875.91789773-2.26875.91789773S5.9150568 82.41441011 2.5 96.85020556h14.57386364z"/>
          <path fill="rgb(240,190,180)" fill-rule="evenodd" d="M41.44886364 65.5521942c3.74418441-.3405283 6.53015474-3.61032389 6.271875-7.36107955l-1.02272728-14.82272727H33.69318182l.21392045 15.40142045c.02882074 1.92482539.8587607 3.75050122 2.29012303 5.03774062 1.43136234 1.2872394 3.33455464 1.91949854 5.25163834 1.74464575z"/>
          <path fill="rgb(240,190,180)" fill-rule="evenodd" d="M33.60113525 58.77406693c.05872345 3.94665908 3.27677155 7.11420822 7.22386551 7.11051559.21647644 0 .43295288-.00937653.65028382-.02983093 3.87698745-.35540009 6.81391906-3.80028534 6.54715728-7.68494416l-1.03892135-15.10568237H33.38295364l.21818161 15.70994187zm.60767365-.00937272l-.20965958-15.09204483h12.4167595l.9997177 14.53977204c.2446022 3.55653763-2.44517135 6.7133522-5.99573898 7.03721237-1.83309173.16752624-3.65301132-.43688965-5.02169037-1.6677475-1.36867904-1.23085403-2.16213989-2.97666168-2.18938827-4.81719208z"/>
          <path fill="rgb(224,173,166)" fill-rule="evenodd" d="M40.1875 58.13997829c3.290625.06903409 5.90710227-1.37386364 7.54261364-4.21193182L46.98352273 43.064126H33.38295455l.16363636 11.7784091c1.86903409 1.87244318 3.6997159 3.23522727 6.64090909 3.29744318z"/>
          <path fill="rgb(240,190,180)" fill-rule="evenodd" d="M26.70454545 31.02236465c-.65880681.25568182-1.02954545 1.11818182-1.10795454 1.93039773-.18910454 2.12141205.4763129 4.23056136 1.84857954 5.859375.22159091.26079545.46789773.51136363.77897728.65710227 2.13579545.99375 1.340625-5.24914773 1.12926136-6.21732954-.23522727-1.07301137-1.30142045-2.7596591-2.64886364-2.22954546z"/>
          <path fill="rgb(240,190,180)" fill-rule="evenodd" d="M28.05028343 39.82634354c.18565941.09193802.38944435.1414299.59659195.14488601.2338314-.00001144.46050072-.08068466.64175987-.22840881 1.43096733-1.1454544.4585228-6.52500153.44659233-6.57784271-.18068122-.83011246-.77812576-1.93977165-1.6610794-2.41448784-.4660511-.26101303-1.02495194-.29796028-1.521307-.10056877-.87528419.34005737-1.27244376 1.39176178-1.35767173 2.26278305-.20551872 2.2289009.49415398 4.44678497 1.94147873 6.15426254.23181724.27357864.52329445.57784271.91363525.75937653zm-1.20681762-8.4383545c.1169033-.04667663.24145698-.07124137.36732864-.072443.17424774.00126648.3452816.0470314.49687576.13295364.6255684.33579636 1.11647606 1.22130775 1.26136398 1.88352394.255682 1.19914627.6144886 5.16051102-.17045593 5.78948975l-.0004692.00037002c-.04117394.03260422-.13777352.1090889-.40691567-.0174179-.25142097-.11676026-.46704674-.34516907-.64431953-.55397416C26.44898415 37.0007248 25.81772423 35 25.99119186 32.98600006c.05965996-.65454483.34772873-1.40198898.85227395-1.59801102z"/>
          <path fill="rgb(203,140,132)" fill-rule="evenodd" d="M28.6127841 37.7928192c-.03102048.00010214-.0619353-.0036191-.09204546-.01107955-.94340753-.25548523-1.50500072-1.22315934-1.25880682-2.16903409.04472455-.18005951.15043134-.33907143.29914773-.45.01928743-.01336517.03950992-.02532777.06051136-.03579545-.0305797-.57050779-.12287963-1.13602342-.2752841-1.68664773-.02368253-.10686762-.0705222-.20723835-.1372159-.2940341-.00672847.01350738-.01471855.02634858-.02386364.03835228-.04626065.0973021-.0775789.20102582-.09289772.30767045-.0284696.1388464-.12885027.25195742-.26332959.29672522-.1344793.0447678-.28262665.0143911-.38863636-.0796875-.10600971-.0940786-.15377639-.23756632-.12530678-.37641272.03026826-.1953616.09429083-.38396863.18920454-.55738636.14275588-.25568553.407988-.41895493.70056819-.43125.42613636-.02897727.75.31619318.90681818.8846591.20655837.74737048.31260528 1.51893341.3153409 2.29431817.0009875.17931203-.11854874.33694608-.29147727.384375-.04276268.01137605-.0870958.01569421-.13125.0127841-.0330968.22063478.01213574.44589285.12784091.63664772.12175434.22235501.32836767.3859239.57272728.4534091.19675863.04556743.32777594.2318104.30417795.43239326-.02359798.20058286-.19426165.35133394-.3962234.3499931z"/>
          <path fill="rgb(240,190,180)" fill-rule="evenodd" d="M54.55511364 31.02236465c.65880681.25568182 1.02954545 1.11818182 1.10795454 1.93039773.18948816 2.12145376-.4759748 4.23074735-1.84857954 5.859375-.22159091.26079545-.46789773.51136363-.77897728.65710227-2.13579545.99375-1.340625-5.24914773-1.12926136-6.21732954.2309659-1.07301137 1.2971591-2.7596591 2.64886364-2.22954546z"/>
          <path fill="rgb(240,190,180)" fill-rule="evenodd" d="M51.9633522 39.74282074c.18190384.14834213.4095955.22905731.64431763.22840881.20622635-.00425338.40900803-.05371093.5940361-.14488601.38948822-.18153382.68011093-.48579789.91363526-.75937653 1.44723892-1.70752335 2.14690017-3.92537308 1.94147873-6.15426254-.07926178-.87102127-.48238755-1.9218731-1.35766983-2.26278305-.49635697-.19739151-1.0552559-.16044426-1.5213089.10056877-.88295365.47471619-1.48039627 1.58437538-1.66107941 2.41448784-.01193237.05284118-.984375 5.4323883.44659042 6.57784271zm1.58778382-8.29432106c.15074539-.0847683.32052612-.12992668.49346542-.13124847v-.00170517c.126503-.00006295.2519226.02334404.3698883.06903457.50198746.19602204.79005433.94346428.85227204 1.59800911.17500305 2.01506806-.45604706 4.01732254-1.7548294 5.5678978-.1772728.2088089-.39289857.43721771-.64431763.55397796-.26981736.12602616-.36503601.05059815-.40644837.01779175l-.00093841-.00074386c-.78835297-.62897873-.43125153-4.59034348-.17045594-5.78948975.14488602-.66221619.6357956-1.54772758 1.26136399-1.88352394z"/>
          <path fill="rgb(203,140,132)" fill-rule="evenodd" d="M52.64261364 37.7928192c-.20196176.00134084-.37262543-.14941024-.39622342-.3499931-.02359798-.20058287.10741933-.38682583.30417796-.43239327.24409166-.06586353.45123484-.22752126.57443182-.44829545.11563079-.19109796.16085067-.41659444.1278409-.6375-.04415346.00286452-.08847922-.00145293-.13125-.0127841-.17292851-.04742891-.29246476-.20506297-.29147726-.384375.00273562-.77538475.10878253-1.54694769.3153409-2.29431817.15681819-.56846591.48323864-.89573864.90767046-.8846591.29244661.01276258.55733154.1763395.6997159.43210228.0948207.17315496.15884062.3614658.18920455.55653409.03005086.13963594-.01719356.28465397-.12372985.37979213-.1065363.09513815-.2559541.1257418-.39131484.08014882-.13536074-.04559298-.23581408-.16035966-.2630803-.30056595-.01463066-.10631241-.04538158-.20977344-.09119319-.30681818-.01109866-.02024541-.027247-.03727458-.046875-.04943182.01022728.01278409-.06136363.1090909-.11505682.30426136-.15181337.54927254-.2438248 1.11334258-.27443181 1.68238637.0212198.0108864.04171673.02312763.06136363.03664772.14833926.11075443.25374408.26946397.29829546.44914773.2461939.94587475-.31539929 1.91354886-1.25880682 2.1690341-.03093993.00767197-.0627269.01139477-.09460227.01107954z"/>
          <path fill="rgb(240,190,180)" fill-rule="evenodd" d="M28.57954545 32.5487851c.10214405-1.92319755.39679863-3.83131439.87954546-5.69573863.75340909-2.8627841 2.47840909-5.50568182 5.14431818-6.96306818 2.94545455-1.60909091 6.51136364-1.91420455 9.72784091-1.20767046 2.37357955.52073864 4.64573864 1.82130682 6.0409091 3.83522728 1.48551135 2.14857954 1.6431818 5.39147727 1.865625 7.92613636.33457064 3.74641304.02585783 7.5224521-.9127841 11.16477273-.76704545 2.95482954-2.06079545 5.89176136-4.13948864 8.175-1.63806818 1.8-3.84545454 3.15340909-6.32045454 3.21732954-.39053453.00929143-.78120038-.01179483-1.16846591-.06306818-2.73579546-.3622159-4.99857955-2.17244318-6.63068182-4.28522727-2.43920454-3.159375-3.85482954-7.19573864-4.33977273-11.1784091-.19268015-1.6343245-.2417315-3.28239318-.1465909-4.92528408z"/>
          <path fill="rgb(57,34,47)" fill-rule="evenodd" d="M45.58579545 45.88770556c-1.04829545-1.846875-3.15340909-3.03920455-5.27982954-2.98295455-2.12642046.05625-3.94431818.87443182-4.89971591 2.77073864-.31186477-.01867956-.61976982-.07945784-.9153409-.18068182-1.61505683-.84289772-2.79460228-1.9278409-3.90426137-3.76022727-1.1096591-1.83238636-1.63636364-5.1059659-1.82727273-7.44886364-.54289773 2.60880682-.52329545 9.66051137 1.26988636 13.21022728 1.82130682 3.60511363 3.88551137 6.85653409 7.81448864 7.79318181 3.57272727.85227273 7.5-.628125 9.871875-3.43465909 4.26136364-5.0497159 4.71306818-11.65142045 4.82386364-13.32357954.03835227-.58806818.0059659-3.81392046-.61193182-4.33295455-.20113637-.17045454-.32982955 2.55681818-.40994318 3.0502841-.24289773 1.49573863-1.15738637 3.50795454-1.92613637 4.81363636-.86335227 1.46335227-2.58920454 2.878125-4.00568182 3.82585227z"/>
          <path fill="rgb(240,190,180)" fill-rule="evenodd" d="M40.22585227 44.97321692c-1.34573863.5752841-2.80738636 1.16335228-3.34431818 1.26647728 1.05170455.6715909 2.5815341 1.06022727 3.8752841 1.02869318.53181817-.01363637 2.59857954-.34857955 2.89772726-1.15056818.02897728-.08181819-2.93352272-.82073864-3.42869318-1.14460228z"/>
          <path fill="rgb(57,34,47)" fill-rule="evenodd" d="M52.1627841 31.9769101c.02976052.12032916.041536.24440247.03494317.36818182-.02524648-.12105454-.0369661-.2445392-.03494318-.36818181z"/>
          <path fill="rgb(57,34,47)" fill-rule="evenodd" d="M28.9639206 35.02293396c.26335334-2.25596619.40653419-4.49062538 1.05596542-6.68011475.31400299-1.06327438.70890426-2.10096168 1.18125152-3.1039772 2.8491478.69375038 6.04431534.68863678 8.91732788.2190342 1.20154953-.19503212 2.38506699-.4883461 3.53863907-.87698746 1.13948822-.38352394 2.24317932-.69630814 3.33153153-1.240057.0607109 1.65603638.63861847 3.25146294 1.65255737 4.56221581.66818237.86164665 1.51193237 1.58693123 2.09744263 2.505682.91413116 1.43284606 1.10709 3.18300628 1.27133178 4.8560028-.08684158-.90176773.19807434-2.05648804.4221344-2.91708374.10653305-.4065342.20624924-.97329521.53267289-1.24602127.32641601-.27272797.86505508-.35113716 1.27840805-.28466034 1.55880355-2.82613563 1.27414703-6.30340958.94602203-9.55312538-.06988907-.68863678-.14147568-1.38409042-.38096619-2.04545403-.2394905-.6613636-.66903305-1.2758522-1.29034042-1.5988636-.22330475-.1149311-.48392868-.1274128-.73268509-.1393261-.36550903-.01750373-.70539474-.03377914-.86362076-.37203788-.1670456-.35880661-.08608246-.99119377-.2454567-1.41221619-.32943343-.85139465-.7832222-1.6492672-1.34659194-2.36761284-4.72244263-6.01960277-14.57471466-6.98437547-19.97812271-1.875-2.19034195 2.07102204-3.27954483 4.86392022-3.78579522 7.80340767-.32727241 1.90056992-.39630699 3.80539894-.4738636 5.72130776l-.0102272-.02301026v.18835259c-.01193237.29573822-.02301216.59062385-.03750038.88636207-.0412941.8861618.11908531 1.7819233.27562904 2.65627098.00500488.0279503.01000595.0558796.01499558.08378602.08181762.45340919.35795402 1.86647796.35795402 1.86647796s.2446022-.11846542.77727318-.04516983c.34005737.046875.81562424.32727242.99374962.62386322.18333816.3068409.18094635.67720604.17863655 1.0346508-.00025559.0396843-.00051117.0792122-.00051117.11847306-.01084328.89531326.09749603 1.78809356.32215881 2.65483093z"/>
          <path fill="rgb(224,173,166)" fill-rule="evenodd" d="M40.675 42.81355783c-.04349154-.00006984-.0866776-.00726751-.1278409-.02130682-.50198865-.17045454-1.26136365-.42613636-1.65767046-1.0653409-.37159091-.59659091-.30681819-1.31846591-.25994319-1.84517046l.55823864-6.23267045c.00922936-.14398118.09581463-.27163286.22617707-.3334503.13036243-.06181743.2839956-.04807654.40131882.03589382.11732323.08397036.17988119.22496136.1634132.36829511l-.55823863 6.23352273c-.04857955.5377841-.07073864 1.01079545.14318181 1.35426136.22755682.365625.69630682.54801137 1.23920455.73295455.18373212.06273599.29517846.24910885.26350054.44065469-.03167792.19154583-.19719398.33211455-.39134145.33235667z"/>
          <path fill="rgb(57,34,47)" fill-rule="evenodd" d="M34.25056818 35.7362851c-1.42755682-.15767045-1.18551136-2.37698863.24460227-2.21590909 1.43011364.16107955 1.1846591 2.37698864-.24460227 2.2159091z"/>
          <path fill="rgb(55,33,46)" fill-rule="evenodd" d="M30.70886803 32.66394043c-.13288117-.00146866-.26484299-.00292587-.39153862.01950455-.55823708.0988655-.94602204-.50965882-.55397606-.95113564.23607826-.26505852.4014206-.5573864.71761322-.74744415.290596-.1601925.5981884-.2874031.9170456-.37926102.6121044-.20103454 1.24980353-.3135376 1.89375114-.33409118.6620407-.01233483 1.32305526.057518 1.9678955.2079544.64005661.14744377 1.3909111.36221695 1.86306763.83778382.29734802.3067112.35735703.77254676.14744568 1.14460182-.23096848.3954544-.6409111.49176407-1.06704712.43380737-.26505661-.0357933-.50710297-.16534042-.75767136-.25056839-.25304031-.08938217-.51116562-.16366196-.77301025-.22244263-.13124847-.02897644-.27272797-.05795288-.3954544-.07585144-.01810837-.00263977-.0337639-.00492859-.04697037-.00686645l-.18314362-.01870346c-.25110626-.02128601-.50317764-.02896881-.7551117-.02301026-.25142288.00596619-.50284194.01278305-.75341033.03579712-.06333924.0056839-.12667847.01214218-.1900177.02011109-.01360703.00240326-.02977753.00534057-.04861832.00886535-.13210297.02471543-.26420593.04858017-.3954544.07755661-.26164819.05880738-.51136399.14914704-.77812577.20028305-.13674164.02621079-.27751541.0246544-.41726875.02310944zm1.69578743-.31882477c.00078582-.0004425-.01625061.00195694-.05347062.00850678.0340767-.00479508.05268479-.0080719.05347062-.00850678z"/>
          <path fill="rgb(57,34,47)" fill-rule="evenodd" d="M46.22755682 35.7362851c1.42755682-.15767045 1.18465909-2.37698863-.24545455-2.21590909-1.43011363.16107955-1.18465909 2.37698864.24545455 2.2159091z"/>
          <path fill="rgb(55,33,46)" fill-rule="evenodd" d="M50.71392045 31.73230783c-.22670454-.25568182-.384375-.52244318-.67585227-.7184659-.2684659-.18068182-.60426136-.28977273-.91022727-.39204546-.62644943-.21145398-1.28062926-.32948267-1.94147727-.3502841-.64537841-.01218579-1.28985341.0539216-1.91931819.196875-.65454545.14573864-1.42926136.36306819-1.91164772.85227274-.29734773.30671164-.35735455.77254772-.14744318 1.14460227.23011363.39289773.64517045.49176136 1.06619318.43380682.26590909-.03579546.51136363-.16107955.75852272-.25056819.2530074-.08948693.51113779-.1637676.77301137-.22244318.13125-.02897727.26335227-.05198863.39545454-.07585227.13210228-.02386364.13295455-.01960227.02982955-.00511364.06647727-.00767045.13380682-.01448863.20028409-.02045454.25110426-.02130085.5031784-.02898239.75511364-.02301137.25056818.00596591.5028409.0127841.75255681.03579546.04860512.00436193.09721023.00917983.14581535.01478608.01355965.00221846.04453721.00694858.09282102.0141912.13295454.0247159.26505682.04857954.39630682.07755681.26079545.05880682.51136363.15085227.77727272.2002841.2659091.0494318.54971591 0 .8096591.04261363.55738636.09886363.946875-.51136364.553125-.95113637v-.00340909z"/>
          <path fill="rgb(0,0,0)" fill-rule="evenodd" d="M30.31306839 39.17520523c1.0363636.68608093 2.40596771 1.00227356 3.75.89403534.36251068-.02548218.72211075-.08251572 1.07471848-.17045593 1.58181762-.40994263 2.77329254-1.52386475 3.35539627-3.13721466.23011398-.65198899.51136398-1.61931992.51136398-2.55681992 0-1.35085297-.9008522-2.1826706-2.47159195-2.2806816-.80369186-.05028344-1.60823822-.089489-1.60823822-.089489-1.25454712-.06477164-2.28068161-.09119224-3.23011398-.08522605-.96221543 0-1.78380585.26164818-2.44005585.76704597-.30721855.24359513-.53433037.57372284-.65198898.9477272-.31363678.92556763-.2292614 2.10255433-.10312462 2.9275551.1772728 1.15483092.80369186 2.11790084 1.81363487 2.78352355zm-.61193275-6.07500076c.45085334-.34687424 1.009943-.54971695 1.66448974-.60255814.11164665-.00852203.21732903-.01278305.32897759-.0102272.93579483 0 1.94914627.02556991 3.18920517.08522796.80028152.03409195 1.59801101.08522797 1.59801101.08522797.8122139.05113602 1.77869416.35965729 1.77869416 1.54431915-.0008545.6511345-.16363907 1.44886399-.47130967 2.30113602-.49687576 1.37812424-1.50767135 2.32755661-2.84659195 2.67358017-1.4369278.37073517-3.09545326.12869263-4.22727012-.61704636-.83096695-.54801178-1.34659195-1.33636474-1.49062538-2.27983093-.11420441-.74318313-.19346619-1.79488754.072443-2.57897568.0703888-.23672485.21132088-.44633865.40397645-.60085296z"/>
          <path fill="rgb(0,0,0)" fill-rule="evenodd" d="M45.82954407 39.8544693c.49036026.09420395.99123382.12144089 1.48892212.08096313.984375-.07926178 1.9372139-.41420364 2.67613601-.96477127.88640976-.63932037 1.45246125-1.63123321 1.5519867-2.71960067.07585144-.72613907.09801101-1.75994492-.17982865-2.56363678-.10436248-.32664109-.29660797-.61825562-.55568313-.84289933-.5514183-.46278381-1.2349434-.71420288-2.05397797-.74488449-.81903076-.0306816-1.72073746-.03579712-2.82869339-.01619339-.73721313.01363373-1.50426102.0366478-1.50426102.0366478-1.546875.05284119-2.46732711.8693161-2.47158813 2.19459915-.00341034.9375.28125 1.9065361.52159119 2.55681992.59658813 1.6193161 1.78806686 2.67869186 3.35539627 2.98295593zm-3.1201706-5.53721619c.00426102-1.05937576.8130684-1.3704567 1.56136322-1.43011474.05965805-.00511551.11931992-.00767136.17812348-.01193238.50540161-.01704406 1.00312805-.02812576 1.49403763-.0366478 1.09601974-.0204544 1.98153305-.0153389 2.78522491.01534272.64005661.02471542 1.17784119.21647644 1.59716034.56846237.15426254.13676834.26730728.31386185.32641983.51136398.23266983.67585373.20624924 1.59289933.14233017 2.24318314-.08124924.87534714-.53754806 1.67263031-1.25113678 2.18608093-.94687653.70568085-2.31391907.99204254-3.56846619.74829483-1.29801178-.25227356-2.28835296-1.13863754-2.79034042-2.50227356-.2190361-.59147644-.47471619-1.46931839-.47471619-2.29175949z"/>
          <path fill="rgb(0,0,0)" fill-rule="evenodd" d="M42.51079545 34.02833056c-1.40795454-.1627841-2.45880681-.13295455-4.01931818.11079545l-.11079545-.73039772c1.61164773-.25568182 2.75625-.28380682 4.21875-.11505682l-.08863637.73465909z"/>
          <path fill="rgb(0,0,0)" fill-rule="evenodd" d="M31.11676136 31.75617147l-3.40056818-.01789773-.11164773 2.66761364 1.0065341.11079545s.0715909-1.43778409 1.06193181-1.78465909c.99034091-.346875 1.5221591-.39630682 1.5221591-.39630682l-.01875-.4840909"/>
          <path fill="rgb(0,0,0)" fill-rule="evenodd" d="M49.17045455 32.0612851l3.40056818.0690341.04261363 2.67017045-1.00994318.08522727s-.0340909-1.43863636-1.01505682-1.81107954c-.9809659-.37244318-1.51193181-.43295455-1.51193181-.43295455l.03153409-.48323863"/>
        </g>
      </g>
    </g>
  </g>
</svg>
